<svg width="78" height="35" viewBox="0 0 78 35" fill="none" xmlns="http://www.w3.org/2000/svg">
<path d="M38.6504 0.116234C38.581 0.198261 38.5741 0.239273 38.6366 0.259781C38.699 0.280289 38.7198 3.2743 38.7198 13.6782C38.7198 22.5577 38.7407 27.0692 38.7892 27.0692C38.8309 27.0692 38.8586 27.1922 38.8586 27.3426C38.8586 27.493 38.8933 27.616 38.928 27.616C38.9697 27.616 38.9974 27.7391 38.9974 27.8895C38.9974 28.0398 39.0321 28.1629 39.0668 28.1629C39.1084 28.1629 39.1362 28.2517 39.1362 28.368C39.1362 28.4773 39.1709 28.573 39.2056 28.573C39.2472 28.573 39.275 28.6619 39.275 28.7644C39.275 28.8738 39.3305 28.9968 39.4138 29.0515C39.4901 29.1062 39.5526 29.2292 39.5526 29.3249C39.5526 29.4206 39.615 29.5437 39.6914 29.5984C39.7677 29.6531 39.8302 29.7488 39.8302 29.8171C39.8302 29.8855 39.8649 29.9402 39.8996 29.9402C39.9412 29.9402 39.969 29.9948 39.969 30.0632C39.969 30.1315 40.0314 30.2272 40.1077 30.2819C40.1841 30.3366 40.2465 30.4255 40.2465 30.487C40.2465 30.5485 40.309 30.6374 40.3853 30.6921C40.4617 30.7468 40.5241 30.8288 40.5241 30.8766C40.5241 30.986 42.2243 32.6744 42.3353 32.6744C42.377 32.6744 42.5019 32.7633 42.606 32.8795C42.7101 32.9888 42.8419 33.0845 42.8974 33.0845C42.946 33.0845 43.0362 33.1461 43.0917 33.2213C43.1473 33.2965 43.2444 33.358 43.3138 33.358C43.3832 33.358 43.4387 33.3853 43.4387 33.4263C43.4387 33.4605 43.5012 33.4947 43.5775 33.4947C43.6538 33.4947 43.7163 33.522 43.7163 33.563C43.7163 33.5972 43.7787 33.6314 43.8551 33.6314C43.9314 33.6314 43.9939 33.6587 43.9939 33.6861C43.9939 33.7203 44.1535 33.7886 44.3408 33.8365C44.5352 33.8843 44.6878 33.9527 44.6878 33.9869C44.6878 34.0142 44.7503 34.0415 44.8266 34.0415C44.903 34.0415 44.9654 34.0689 44.9654 34.1099C44.9654 34.1441 45.0626 34.1783 45.1736 34.1783C45.2916 34.1783 45.3818 34.2056 45.3818 34.2466C45.3818 34.2808 45.5414 34.315 45.7288 34.315C45.9231 34.315 46.0757 34.3423 46.0757 34.3833C46.0757 34.4243 46.2839 34.4517 46.5615 34.4517C46.8391 34.4517 47.0473 34.479 47.0473 34.52C47.0473 34.6362 47.8037 34.6021 47.9286 34.479C48.0257 34.3902 48.0257 34.3628 47.9425 34.3081C47.8592 34.2534 47.8592 34.2329 47.9494 34.1714C48.0257 34.1167 48.0327 34.0894 47.9702 34.062C47.9216 34.0484 47.88 33.9663 47.88 33.898C47.88 33.8228 47.9147 33.7818 47.9494 33.8023C47.991 33.8296 48.0188 33.6998 48.0188 33.4673C48.0188 33.2623 47.9841 33.0709 47.9494 33.0504C47.9008 33.0162 47.8939 32.9752 47.9425 32.9273C47.9772 32.8795 48.0119 31.82 48.0188 30.2956L48.0257 27.7527H47.8106C47.6996 27.7527 47.6024 27.7186 47.6024 27.6844C47.6024 27.6434 47.4775 27.616 47.3248 27.616C47.1722 27.616 47.0473 27.5819 47.0473 27.5477C47.0473 27.5067 46.9987 27.4793 46.9362 27.4793C46.8738 27.4793 46.735 27.3836 46.6309 27.2742C46.5268 27.158 46.388 27.0692 46.3256 27.0692C46.2631 27.0692 46.2145 27.0145 46.2145 26.9461C46.2145 26.8778 46.1521 26.7821 46.0757 26.7274C45.9994 26.6727 45.9369 26.577 45.9369 26.5087C45.9369 26.4403 45.9092 26.3856 45.8675 26.3856C45.8328 26.3856 45.7981 26.3241 45.7981 26.2489C45.7981 26.1737 45.7704 26.1122 45.7288 26.1122C45.6802 26.1122 45.6594 24.5878 45.6594 21.669V17.2259H46.8391H48.0188V17.0139C48.0188 16.8977 47.991 16.8225 47.9494 16.8499C47.9008 16.8772 47.88 15.8587 47.88 13.849C47.88 11.8599 47.9008 10.8003 47.9494 10.8003C48.0535 10.8003 48.0327 10.6021 47.9216 10.4859C47.8453 10.4107 47.5816 10.3902 46.7419 10.3902H45.6594V5.29082C45.6594 0.963852 45.6455 0.177753 45.5622 0.095726C45.4789 0.0136986 44.9238 2.67029e-05 42.1063 2.67029e-05C39.0876 0.00686264 38.7476 0.0136986 38.6504 0.116234Z" fill="white"/>
<path d="M50.3789 13.808V17.2258H50.5871C50.7051 17.2258 50.7953 17.2532 50.7953 17.2942C50.7953 17.3284 50.8924 17.3626 51.0035 17.3626C51.1214 17.3626 51.2116 17.3899 51.2116 17.4309C51.2116 17.4651 51.2741 17.4993 51.3504 17.4993C51.4268 17.4993 51.4892 17.5266 51.4892 17.5676C51.4892 17.6018 51.5378 17.636 51.5933 17.636C51.7321 17.636 52.322 18.217 52.322 18.3537C52.322 18.4084 52.3567 18.4563 52.3914 18.4563C52.433 18.4563 52.4608 18.5178 52.4608 18.593C52.4608 18.6682 52.4955 18.7297 52.5302 18.7297C52.5718 18.7297 52.5996 18.8527 52.5996 19.0031C52.5996 19.1535 52.6343 19.2765 52.6689 19.2765C52.7175 19.2765 52.7383 20.4181 52.7383 22.5576C52.7383 24.6972 52.7175 25.8388 52.6689 25.8388C52.6343 25.8388 52.5996 25.9276 52.5996 26.0438C52.5996 26.1532 52.5718 26.2489 52.5302 26.2489C52.4955 26.2489 52.4608 26.3104 52.4608 26.3856C52.4608 26.4608 52.433 26.5223 52.3914 26.5223C52.3567 26.5223 52.322 26.5702 52.322 26.6249C52.322 26.7547 51.8778 27.2059 51.7529 27.2059C51.6974 27.2059 51.6141 27.2674 51.5586 27.3426C51.5031 27.4178 51.406 27.4793 51.3366 27.4793C51.2672 27.4793 51.2116 27.5067 51.2116 27.5477C51.2116 27.5818 51.0867 27.616 50.9341 27.616C50.7814 27.616 50.6565 27.6434 50.6565 27.6844C50.6565 27.7186 50.594 27.7527 50.5177 27.7527C50.3789 27.7527 50.3789 27.8006 50.3789 31.1706V34.5884H50.8647C51.1423 34.5884 51.3504 34.561 51.3504 34.52C51.3504 34.479 51.5378 34.4517 51.7668 34.4517C51.9958 34.4517 52.1832 34.4243 52.1832 34.3833C52.1832 34.3423 52.3428 34.315 52.5302 34.315C52.7245 34.315 52.8771 34.2808 52.8771 34.2466C52.8771 34.2056 52.9743 34.1782 53.0853 34.1782C53.2033 34.1782 53.2935 34.1441 53.2935 34.1099C53.2935 34.0689 53.3907 34.0415 53.5017 34.0415C53.6197 34.0415 53.7099 34.0073 53.7099 33.9732C53.7099 33.9322 53.7723 33.9048 53.8487 33.9048C53.925 33.9048 53.9875 33.8706 53.9875 33.8365C53.9875 33.7954 54.0777 33.7681 54.1818 33.7681C54.2928 33.7681 54.4177 33.7134 54.4732 33.6314C54.5287 33.5562 54.6259 33.4947 54.6953 33.4947C54.7647 33.4947 54.8202 33.4605 54.8202 33.4263C54.8202 33.3853 54.8757 33.358 54.9451 33.358C55.0145 33.358 55.1117 33.2964 55.1672 33.2212C55.2227 33.1461 55.3129 33.0845 55.3754 33.0845C55.4378 33.0845 55.528 33.023 55.5835 32.9478C55.6391 32.8726 55.7223 32.8111 55.7779 32.8111C55.8264 32.8111 56.0207 32.6539 56.2081 32.4693C56.3955 32.2779 56.5828 32.1275 56.6245 32.1275C56.7216 32.1275 57.3184 31.5192 57.3184 31.4303C57.3184 31.3961 57.4433 31.2457 57.596 31.1022C57.7487 30.9587 57.8736 30.8083 57.8736 30.7604C57.8736 30.7194 57.9499 30.61 58.0471 30.5143C58.1442 30.4186 58.2067 30.3161 58.1928 30.2888C58.172 30.2614 58.2206 30.1931 58.2969 30.1452C58.3663 30.0905 58.4288 30.0017 58.4288 29.9401C58.4288 29.8786 58.4912 29.7898 58.5675 29.7351C58.6508 29.6804 58.7063 29.5573 58.7063 29.448C58.7063 29.3454 58.741 29.2566 58.7757 29.2566C58.8174 29.2566 58.8451 29.1951 58.8451 29.1199C58.8451 29.0447 58.8798 28.9832 58.9145 28.9832C58.9562 28.9832 58.9839 28.9216 58.9839 28.8464C58.9839 28.7712 59.0186 28.7097 59.0533 28.7097C59.0949 28.7097 59.1227 28.614 59.1227 28.5047C59.1227 28.3884 59.1574 28.2996 59.1921 28.2996C59.2337 28.2996 59.2615 28.2039 59.2615 28.0945C59.2615 27.9783 59.2962 27.8894 59.3309 27.8894C59.3725 27.8894 59.4003 27.7322 59.4003 27.5477C59.4003 27.3563 59.435 27.2059 59.4697 27.2059C59.5113 27.2059 59.5391 27.0008 59.5391 26.7274C59.5391 26.454 59.5668 26.2489 59.6085 26.2489C59.657 26.2489 59.6779 24.9501 59.6779 22.4893C59.6779 20.0285 59.657 18.7297 59.6085 18.7297C59.5668 18.7297 59.5391 18.5246 59.5391 18.2512C59.5391 17.9778 59.5113 17.7727 59.4697 17.7727C59.435 17.7727 59.4003 17.6155 59.4003 17.4309C59.4003 17.2395 59.3725 17.0891 59.3309 17.0891C59.2962 17.0891 59.2615 16.9934 59.2615 16.8841C59.2615 16.7679 59.2337 16.679 59.1921 16.679C59.1574 16.679 59.1227 16.5833 59.1227 16.4739C59.1227 16.3577 59.0949 16.2689 59.0533 16.2689C59.0186 16.2689 58.9839 16.2073 58.9839 16.1321C58.9839 16.0569 58.9562 15.9954 58.9145 15.9954C58.8798 15.9954 58.8451 15.9339 58.8451 15.8587C58.8451 15.7835 58.8174 15.722 58.7757 15.722C58.741 15.722 58.7063 15.6331 58.7063 15.5306C58.7063 15.4212 58.6508 15.2982 58.5675 15.2435C58.4912 15.1888 58.4288 15.1 58.4288 15.0384C58.4288 14.9769 58.3663 14.8881 58.29 14.8334C58.2136 14.7787 58.1512 14.6898 58.1512 14.6283C58.1512 14.5668 58.0887 14.4779 58.0124 14.4232C57.936 14.3685 57.8736 14.2797 57.8736 14.2318C57.8736 14.184 57.7487 14.0199 57.596 13.8764C57.4433 13.7328 57.3184 13.5824 57.3184 13.5346C57.3184 13.4252 56.8535 12.9877 56.7286 12.9877C56.6731 12.9877 56.6245 12.9262 56.6245 12.851C56.6245 12.7758 56.5759 12.7143 56.5134 12.7143C56.4579 12.7143 56.2567 12.5571 56.0693 12.3725C55.8819 12.1811 55.6876 12.0308 55.6391 12.0308C55.5835 12.0308 55.5003 11.9692 55.4448 11.894C55.3892 11.8188 55.2921 11.7573 55.2227 11.7573C55.1533 11.7573 55.0978 11.7231 55.0978 11.689C55.0978 11.648 55.0353 11.6206 54.959 11.6206C54.8827 11.6206 54.8202 11.5864 54.8202 11.5523C54.8202 11.5112 54.7577 11.4839 54.6814 11.4839C54.6051 11.4839 54.5426 11.4497 54.5426 11.4155C54.5426 11.3745 54.4802 11.3472 54.4038 11.3472C54.3275 11.3472 54.265 11.313 54.265 11.2788C54.265 11.2378 54.2026 11.2105 54.1262 11.2105C54.0499 11.2105 53.9875 11.1763 53.9875 11.1421C53.9875 11.1011 53.925 11.0738 53.8487 11.0738C53.7723 11.0738 53.7099 11.0396 53.7099 11.0054C53.7099 10.9644 53.6197 10.937 53.5017 10.937C53.3907 10.937 53.2935 10.9029 53.2935 10.8687C53.2935 10.8277 53.2033 10.8003 53.0853 10.8003C52.9743 10.8003 52.8771 10.7662 52.8771 10.732C52.8771 10.691 52.7522 10.6636 52.5996 10.6636C52.4469 10.6636 52.322 10.6294 52.322 10.5953C52.322 10.5543 52.1138 10.5269 51.8362 10.5269C51.5586 10.5269 51.3504 10.4996 51.3504 10.4586C51.3504 10.4175 51.1423 10.3902 50.8647 10.3902H50.3789V13.808Z" fill="white"/>
<path d="M8.18864 10.7319C8.18864 10.7729 8.00821 10.8003 7.7792 10.8003C7.5502 10.8003 7.34201 10.8276 7.3212 10.8686C7.30038 10.9028 7.16853 10.937 7.03667 10.937C6.90482 10.937 6.80073 10.9643 6.80073 11.0053C6.80073 11.0395 6.71052 11.0737 6.59255 11.0737C6.48151 11.0737 6.38436 11.101 6.38436 11.1421C6.38436 11.1762 6.29415 11.2104 6.17617 11.2104C6.06514 11.2104 5.96799 11.2378 5.96799 11.2788C5.96799 11.3129 5.87777 11.3471 5.7598 11.3471C5.64877 11.3471 5.55162 11.3745 5.55162 11.4155C5.55162 11.4497 5.48916 11.4838 5.41283 11.4838C5.33649 11.4838 5.27404 11.5112 5.27404 11.5522C5.27404 11.5864 5.21158 11.6206 5.13525 11.6206C5.05891 11.6206 4.99646 11.6479 4.99646 11.6889C4.99646 11.7231 4.94094 11.7573 4.87154 11.7573C4.80215 11.7573 4.705 11.8188 4.64948 11.894C4.59396 11.9692 4.50375 12.0307 4.44129 12.0307C4.37884 12.0307 4.28862 12.0922 4.23311 12.1674C4.17759 12.2426 4.08738 12.3041 4.0388 12.3041C3.98329 12.3041 3.85143 12.393 3.74734 12.5092C3.64325 12.6186 3.51834 12.7143 3.4767 12.7143C3.43506 12.7143 3.10197 13.0082 2.74111 13.3636C2.38026 13.7191 2.08186 14.0472 2.08186 14.0882C2.08186 14.1292 1.99164 14.2523 1.87367 14.3548C1.76264 14.4573 1.66549 14.5872 1.66549 14.6419C1.66549 14.6898 1.60303 14.7786 1.52669 14.8333C1.45036 14.888 1.3879 14.9769 1.3879 15.0384C1.3879 15.0999 1.32545 15.1888 1.24911 15.2434C1.17278 15.2981 1.11032 15.3938 1.11032 15.4622C1.11032 15.5305 1.08257 15.5852 1.04093 15.5852C1.00623 15.5852 0.971533 15.6467 0.971533 15.7219C0.971533 15.7971 0.943775 15.8587 0.902138 15.8587C0.86744 15.8587 0.832743 15.9202 0.832743 15.9954C0.832743 16.0706 0.804985 16.1321 0.763347 16.1321C0.72865 16.1321 0.693952 16.2209 0.693952 16.3371C0.693952 16.4465 0.666194 16.5422 0.624557 16.5422C0.589859 16.5422 0.555162 16.6311 0.555162 16.7473C0.555162 16.8567 0.527404 16.9524 0.485767 16.9524C0.451069 16.9524 0.416371 17.0412 0.416371 17.1574C0.416371 17.2668 0.388613 17.3625 0.346976 17.3625C0.312278 17.3625 0.277581 17.4855 0.277581 17.6359C0.277581 17.7863 0.249823 17.9093 0.208186 17.9093C0.166549 17.9093 0.13879 18.0939 0.13879 18.3195C0.13879 18.5451 0.111032 18.7296 0.0693952 18.7296C0.0208186 18.7296 0 21.3887 0 26.5633C0 33.2554 0.013879 34.4038 0.0971533 34.4926C0.180428 34.5746 0.742529 34.5883 3.56691 34.5883H6.93952V27.0008C6.93952 21.9902 6.96034 19.4132 7.00892 19.4132C7.05055 19.4132 7.07831 19.297 7.07831 19.1534C7.07831 18.9757 7.11995 18.8663 7.2171 18.798C7.29344 18.7433 7.35589 18.6613 7.35589 18.6134C7.35589 18.4972 7.95269 17.9093 8.07066 17.9093C8.11924 17.9093 8.20251 17.8478 8.25803 17.7726C8.31355 17.6906 8.43846 17.6359 8.54949 17.6359C8.65358 17.6359 8.7438 17.6017 8.7438 17.5676C8.7438 17.5265 8.86871 17.4992 9.02138 17.4992H9.29896V14.0814V10.6636H8.7438C8.41764 10.6636 8.18864 10.6909 8.18864 10.7319Z" fill="white"/>
<path d="M11.7465 10.7662C11.6771 10.8413 11.6563 11.6069 11.6563 14.0814C11.6563 17.5745 11.6493 17.4993 12.031 17.4993C12.1281 17.4993 12.2114 17.5266 12.2114 17.5676C12.2114 17.6018 12.3086 17.636 12.4196 17.636C12.5376 17.636 12.6278 17.6633 12.6278 17.7043C12.6278 17.7385 12.6764 17.7727 12.7388 17.7727C12.8013 17.7727 12.9401 17.8616 13.0442 17.9778C13.1483 18.0871 13.287 18.1828 13.3495 18.1828C13.412 18.1828 13.4605 18.2375 13.4605 18.3059C13.4605 18.3742 13.523 18.4699 13.5993 18.5246C13.6757 18.5793 13.7381 18.675 13.7381 18.7434C13.7381 18.8117 13.7728 18.8664 13.8075 18.8664C13.8491 18.8664 13.8769 18.9279 13.8769 19.0031C13.8769 19.0783 13.9116 19.1398 13.9463 19.1398C13.9949 19.1398 14.0157 21.7579 14.0157 26.8641V34.5884H17.4577C20.5735 34.5884 20.9066 34.5747 21.0107 34.4722C21.094 34.3901 21.1009 34.3491 21.0385 34.3286C20.9275 34.2944 20.9136 19.55 21.0246 19.55C21.0663 19.55 21.094 19.4269 21.094 19.2765C21.094 19.1262 21.1287 19.0031 21.1634 19.0031C21.205 19.0031 21.2328 18.9416 21.2328 18.8664C21.2328 18.7912 21.2675 18.7297 21.3022 18.7297C21.3438 18.7297 21.3716 18.6818 21.3716 18.6271C21.3716 18.4904 21.9614 17.9094 22.1002 17.9094C22.1558 17.9094 22.2043 17.8752 22.2043 17.841C22.2043 17.8 22.2668 17.7727 22.3431 17.7727C22.4195 17.7727 22.4819 17.7385 22.4819 17.7043C22.4819 17.6633 22.5791 17.636 22.6901 17.636C22.8081 17.636 22.8983 17.6018 22.8983 17.5676C22.8983 17.5266 22.9954 17.4993 23.1065 17.4993H23.3147V14.0814V10.6636H22.7595C22.4333 10.6636 22.2043 10.691 22.2043 10.732C22.2043 10.773 22.017 10.8003 21.788 10.8003C21.559 10.8003 21.3716 10.8277 21.3716 10.8687C21.3716 10.9029 21.2467 10.937 21.094 10.937C20.9413 10.937 20.8164 10.9644 20.8164 11.0054C20.8164 11.0396 20.7262 11.0738 20.6082 11.0738C20.4972 11.0738 20.4001 11.1011 20.4001 11.1421C20.4001 11.1763 20.3098 11.2105 20.1919 11.2105C20.0808 11.2105 19.9837 11.2378 19.9837 11.2788C19.9837 11.313 19.9212 11.3472 19.8449 11.3472C19.7686 11.3472 19.7061 11.3745 19.7061 11.4155C19.7061 11.4497 19.6436 11.4839 19.5673 11.4839C19.491 11.4839 19.4285 11.5112 19.4285 11.5523C19.4285 11.5864 19.3661 11.6206 19.2897 11.6206C19.2134 11.6206 19.1509 11.648 19.1509 11.689C19.1509 11.7231 19.0885 11.7573 19.0122 11.7573C18.9358 11.7573 18.8734 11.7847 18.8734 11.8257C18.8734 11.8599 18.8109 11.894 18.7346 11.894C18.6582 11.894 18.5958 11.9214 18.5958 11.9624C18.5958 11.9966 18.5403 12.0308 18.4709 12.0308C18.4015 12.0308 18.3043 12.0923 18.2488 12.1675C18.1933 12.2427 18.1031 12.3042 18.0406 12.3042C17.9782 12.3042 17.8879 12.3657 17.8324 12.4409C17.6728 12.6528 17.305 12.6255 17.0691 12.3725C16.965 12.2563 16.8331 12.1675 16.7776 12.1675C16.729 12.1675 16.6388 12.1059 16.5833 12.0308C16.5278 11.9556 16.4306 11.894 16.3613 11.894C16.2919 11.894 16.2363 11.8599 16.2363 11.8257C16.2363 11.7847 16.1739 11.7573 16.0976 11.7573C16.0212 11.7573 15.9588 11.7231 15.9588 11.689C15.9588 11.648 15.8963 11.6206 15.82 11.6206C15.7436 11.6206 15.6812 11.5864 15.6812 11.5523C15.6812 11.5112 15.6187 11.4839 15.5424 11.4839C15.4661 11.4839 15.4036 11.4497 15.4036 11.4155C15.4036 11.3745 15.3411 11.3472 15.2648 11.3472C15.1885 11.3472 15.126 11.313 15.126 11.2788C15.126 11.2378 15.0358 11.2105 14.9178 11.2105C14.8068 11.2105 14.7096 11.1763 14.7096 11.1421C14.7096 11.1011 14.5847 11.0738 14.4321 11.0738C14.2794 11.0738 14.1545 11.0396 14.1545 11.0054C14.1545 10.9644 14.0643 10.937 13.9463 10.937C13.8353 10.937 13.7381 10.9029 13.7381 10.8687C13.7381 10.8277 13.5507 10.8003 13.3217 10.8003C13.0927 10.8003 12.9054 10.773 12.9054 10.732C12.9054 10.6226 11.8436 10.65 11.7465 10.7662Z" fill="white"/>
<path d="M25.8125 14.0814V17.4993H26.0207C26.1387 17.4993 26.2289 17.5266 26.2289 17.5676C26.2289 17.6018 26.326 17.636 26.4371 17.636C26.555 17.636 26.6452 17.6633 26.6452 17.7043C26.6452 17.7385 26.7077 17.7727 26.784 17.7727C26.8604 17.7727 26.9228 17.8 26.9228 17.841C26.9228 17.8752 26.9714 17.9094 27.0269 17.9094C27.1588 17.9094 27.6168 18.3469 27.6168 18.4699C27.6168 18.5246 27.6792 18.6066 27.7556 18.6613C27.8319 18.716 27.8944 18.8117 27.8944 18.8801C27.8944 18.9484 27.9291 19.0031 27.9638 19.0031C28.0054 19.0031 28.0331 19.1262 28.0331 19.2765C28.0331 19.4269 28.0678 19.55 28.1025 19.55C28.1511 19.55 28.1719 22.0997 28.1719 27.0692V34.5884H31.5445C34.3689 34.5884 34.931 34.5747 35.0143 34.4927C35.0976 34.4107 35.1115 33.2828 35.1115 26.7684C35.1115 21.7305 35.0906 19.1398 35.0421 19.1398C35.0004 19.1398 34.9727 18.9142 34.9727 18.593C34.9727 18.2717 34.9449 18.0461 34.9033 18.0461C34.8686 18.0461 34.8339 17.9231 34.8339 17.7727C34.8339 17.6223 34.8061 17.4993 34.7645 17.4993C34.7298 17.4993 34.6951 17.3762 34.6951 17.2258C34.6951 17.0755 34.6673 16.9524 34.6257 16.9524C34.591 16.9524 34.5563 16.8909 34.5563 16.8157C34.5563 16.7405 34.5285 16.679 34.4869 16.679C34.4522 16.679 34.4175 16.5833 34.4175 16.4739C34.4175 16.3577 34.3897 16.2689 34.3481 16.2689C34.3134 16.2689 34.2787 16.2073 34.2787 16.1321C34.2787 16.0569 34.251 15.9954 34.2093 15.9954C34.1746 15.9954 34.1399 15.9339 34.1399 15.8587C34.1399 15.7835 34.1122 15.722 34.0705 15.722C34.0358 15.722 34.0011 15.6605 34.0011 15.5853C34.0011 15.5101 33.9734 15.4486 33.9317 15.4486C33.897 15.4486 33.8623 15.3939 33.8623 15.3255C33.8623 15.2572 33.7999 15.1615 33.7236 15.1068C33.6472 15.0521 33.5848 14.9632 33.5848 14.9017C33.5848 14.8402 33.5223 14.7513 33.446 14.6967C33.3696 14.642 33.3072 14.5599 33.3072 14.5053C33.3072 14.4574 33.1545 14.266 32.9602 14.0814C32.7728 13.8969 32.6132 13.7123 32.6132 13.6713C32.6132 13.5756 32.1552 13.1245 32.0581 13.1245C32.0164 13.1245 31.8291 12.9672 31.6417 12.7827C31.4543 12.5913 31.267 12.4409 31.2253 12.4409C31.1768 12.4409 31.0518 12.3452 30.9477 12.2358C30.8437 12.1196 30.7049 12.0308 30.6424 12.0308C30.58 12.0308 30.5314 11.9966 30.5314 11.9624C30.5314 11.9214 30.4689 11.894 30.3926 11.894C30.3162 11.894 30.2538 11.8599 30.2538 11.8257C30.2538 11.7847 30.1913 11.7573 30.115 11.7573C30.0387 11.7573 29.9762 11.7231 29.9762 11.689C29.9762 11.648 29.9138 11.6206 29.8374 11.6206C29.7611 11.6206 29.6986 11.5864 29.6986 11.5523C29.6986 11.5112 29.6362 11.4839 29.5598 11.4839C29.4835 11.4839 29.4211 11.4497 29.4211 11.4155C29.4211 11.3745 29.3586 11.3472 29.2823 11.3472C29.2059 11.3472 29.1435 11.313 29.1435 11.2788C29.1435 11.2378 29.0533 11.2105 28.9353 11.2105C28.8243 11.2105 28.7271 11.1763 28.7271 11.1421C28.7271 11.1011 28.6369 11.0738 28.5189 11.0738C28.4079 11.0738 28.3107 11.0396 28.3107 11.0054C28.3107 10.9644 28.1858 10.937 28.0331 10.937C27.8805 10.937 27.7556 10.9029 27.7556 10.8687C27.7556 10.8277 27.6029 10.8003 27.4086 10.8003C27.2212 10.8003 27.0616 10.7662 27.0616 10.732C27.0616 10.691 26.8049 10.6636 26.4371 10.6636H25.8125V14.0814Z" fill="white"/>
<path d="M71.8918 10.732C71.8918 10.773 71.6836 10.8003 71.406 10.8003C71.1284 10.8003 70.9202 10.8277 70.9202 10.8687C70.9202 10.9029 70.83 10.937 70.712 10.937C70.601 10.937 70.5039 10.9644 70.5039 11.0054C70.5039 11.0396 70.3789 11.0738 70.2263 11.0738C70.0736 11.0738 69.9487 11.1011 69.9487 11.1421C69.9487 11.1763 69.8585 11.2105 69.7405 11.2105C69.6295 11.2105 69.5323 11.2378 69.5323 11.2788C69.5323 11.313 69.4699 11.3472 69.3935 11.3472C69.3172 11.3472 69.2547 11.3745 69.2547 11.4155C69.2547 11.4497 69.1923 11.4839 69.116 11.4839C69.0396 11.4839 68.9772 11.5112 68.9772 11.5523C68.9772 11.5864 68.9147 11.6206 68.8384 11.6206C68.762 11.6206 68.6996 11.648 68.6996 11.689C68.6996 11.7231 68.6371 11.7573 68.5608 11.7573C68.4845 11.7573 68.422 11.7847 68.422 11.8257C68.422 11.8599 68.3665 11.894 68.2971 11.894C68.2277 11.894 68.1305 11.9556 68.075 12.0308C68.0195 12.1059 67.9293 12.1675 67.8807 12.1675C67.8252 12.1675 67.6934 12.2563 67.5893 12.3725C67.4852 12.4819 67.3603 12.5776 67.3186 12.5776C67.277 12.5776 66.8814 12.9331 66.4442 13.3637C66.007 13.7943 65.6462 14.184 65.6462 14.225C65.6462 14.266 65.556 14.389 65.438 14.4916C65.327 14.5941 65.2298 14.724 65.2298 14.7787C65.2298 14.8265 65.1674 14.9154 65.091 14.9701C65.0147 15.0248 64.9522 15.1205 64.9522 15.1888C64.9522 15.2572 64.9245 15.3119 64.8828 15.3119C64.8481 15.3119 64.8134 15.3734 64.8134 15.4486C64.8134 15.5238 64.7857 15.5853 64.7441 15.5853C64.7094 15.5853 64.6747 15.6468 64.6747 15.722C64.6747 15.7972 64.6469 15.8587 64.6053 15.8587C64.5706 15.8587 64.5359 15.9202 64.5359 15.9954C64.5359 16.0706 64.5081 16.1321 64.4665 16.1321C64.4318 16.1321 64.3971 16.1937 64.3971 16.2689C64.3971 16.344 64.3693 16.4056 64.3277 16.4056C64.293 16.4056 64.2583 16.4944 64.2583 16.6106C64.2583 16.72 64.2305 16.8157 64.1889 16.8157C64.1542 16.8157 64.1195 16.9046 64.1195 17.0208C64.1195 17.1301 64.0917 17.2258 64.0501 17.2258C64.0154 17.2258 63.9807 17.3147 63.9807 17.4309C63.9807 17.5403 63.9529 17.636 63.9113 17.636C63.8697 17.636 63.8419 17.8205 63.8419 18.0461C63.8419 18.2717 63.8142 18.4563 63.7725 18.4563C63.7239 18.4563 63.7031 21.1905 63.7031 26.5223V34.5884H67.1729H70.6426V26.8641C70.6426 21.7579 70.6635 19.1398 70.712 19.1398C70.7537 19.1398 70.7814 19.0783 70.7814 19.0031C70.7814 18.9279 70.8161 18.8664 70.8508 18.8664C70.8925 18.8664 70.9202 18.8185 70.9202 18.7639C70.9202 18.6271 71.7877 17.7727 71.9265 17.7727C71.982 17.7727 72.0306 17.7385 72.0306 17.7043C72.0306 17.6633 72.1277 17.636 72.2387 17.636C72.3567 17.636 72.4469 17.6018 72.4469 17.5676C72.4469 17.5266 72.8425 17.4993 73.4879 17.4993H74.5288V14.0814V10.6636H73.2103C72.3775 10.6636 71.8918 10.691 71.8918 10.732Z" fill="white"/>
<path d="M75.4996 30.5553C75.4996 30.5895 75.3747 30.6237 75.222 30.6237C75.0693 30.6237 74.9444 30.651 74.9444 30.6921C74.9444 30.7262 74.8958 30.7604 74.8403 30.7604C74.7015 30.7604 73.9729 31.4782 73.9729 31.6149C73.9729 31.6696 73.9451 31.7174 73.9035 31.7174C73.8688 31.7174 73.8341 31.8404 73.8341 31.9908C73.8341 32.1412 73.8063 32.2643 73.7647 32.2643C73.73 32.2643 73.6953 32.4146 73.6953 32.606C73.6953 32.7906 73.73 32.9478 73.7647 32.9478C73.8063 32.9478 73.8341 33.0367 73.8341 33.1529C73.8341 33.2623 73.8688 33.358 73.9035 33.358C73.9451 33.358 73.9729 33.4195 73.9729 33.4947C73.9729 33.5699 74.0076 33.6314 74.0423 33.6314C74.0839 33.6314 74.1117 33.6792 74.1117 33.7339C74.1117 33.8706 74.5628 34.315 74.7015 34.315C74.7571 34.315 74.8056 34.3423 74.8056 34.3833C74.8056 34.4175 74.8681 34.4517 74.9444 34.4517C75.0208 34.4517 75.0832 34.479 75.0832 34.52C75.0832 34.561 75.3816 34.5884 75.8466 34.5884C76.3115 34.5884 76.6099 34.561 76.6099 34.52C76.6099 34.479 76.6654 34.4517 76.7348 34.4517C76.8042 34.4517 76.9014 34.3901 76.9569 34.315C77.0124 34.2398 77.0957 34.1782 77.1512 34.1782C77.2761 34.1782 77.5814 33.8638 77.5814 33.7339C77.5814 33.6792 77.6161 33.6314 77.6508 33.6314C77.6925 33.6314 77.7202 33.5699 77.7202 33.4947C77.7202 33.4195 77.7549 33.358 77.7896 33.358C77.8313 33.358 77.859 33.2349 77.859 33.0845C77.859 32.9342 77.8937 32.8111 77.9284 32.8111C77.9701 32.8111 77.9978 32.6881 77.9978 32.5377C77.9978 32.3873 77.9701 32.2643 77.9284 32.2643C77.8937 32.2643 77.859 32.1686 77.859 32.0592C77.859 31.943 77.8313 31.8541 77.7896 31.8541C77.7549 31.8541 77.7202 31.7926 77.7202 31.7174C77.7202 31.6422 77.6925 31.5807 77.6508 31.5807C77.6161 31.5807 77.5814 31.5328 77.5814 31.4782C77.5814 31.3414 76.9916 30.7604 76.8528 30.7604C76.7973 30.7604 76.7487 30.7262 76.7487 30.6921C76.7487 30.651 76.6238 30.6237 76.4711 30.6237C76.3185 30.6237 76.1935 30.5895 76.1935 30.5553C76.1935 30.5143 76.0409 30.487 75.8466 30.487C75.6592 30.487 75.4996 30.5143 75.4996 30.5553ZM76.3323 30.8288C76.3323 30.863 76.3948 30.8971 76.4711 30.8971C76.5475 30.8971 76.6099 30.9245 76.6099 30.9655C76.6099 30.9997 76.6585 31.0338 76.714 31.0338C76.8528 31.0338 77.4427 31.6149 77.4427 31.7516C77.4427 31.8063 77.4774 31.8541 77.512 31.8541C77.5537 31.8541 77.5814 31.9772 77.5814 32.1275C77.5814 32.2779 77.6161 32.401 77.6508 32.401C77.6925 32.401 77.7202 32.4898 77.7202 32.606C77.7202 32.7154 77.6925 32.8111 77.6508 32.8111C77.6161 32.8111 77.5814 32.9273 77.5814 33.0709C77.5814 33.2486 77.5398 33.358 77.4427 33.4263C77.3663 33.481 77.3039 33.563 77.3039 33.6177C77.3039 33.7408 76.8459 34.1782 76.714 34.1782C76.6585 34.1782 76.6099 34.2056 76.6099 34.2466C76.6099 34.2808 76.485 34.315 76.3323 34.315C76.1797 34.315 76.0547 34.3423 76.0547 34.3833C76.0547 34.4175 75.9298 34.4517 75.7772 34.4517C75.6245 34.4517 75.4996 34.4175 75.4996 34.3833C75.4996 34.3423 75.4094 34.315 75.2914 34.315C75.1804 34.315 75.0832 34.2808 75.0832 34.2466C75.0832 34.2056 75.0346 34.1782 74.9791 34.1782C74.8403 34.1782 74.2505 33.5972 74.2505 33.4605C74.2505 33.4058 74.2227 33.358 74.1811 33.358C74.1464 33.358 74.1117 33.2623 74.1117 33.1529C74.1117 33.0367 74.0839 32.9478 74.0423 32.9478C74.0076 32.9478 73.9729 32.7906 73.9729 32.606C73.9729 32.4146 74.0076 32.2643 74.0423 32.2643C74.0839 32.2643 74.1117 32.1686 74.1117 32.0592C74.1117 31.943 74.1464 31.8541 74.1811 31.8541C74.2227 31.8541 74.2505 31.8063 74.2505 31.7516C74.2505 31.5739 74.993 30.8971 75.1873 30.8971C75.2845 30.8971 75.3608 30.863 75.3608 30.8288C75.3608 30.7878 75.569 30.7604 75.8466 30.7604C76.1241 30.7604 76.3323 30.7878 76.3323 30.8288Z" fill="white"/>
<path d="M75.2266 32.5377C75.2266 33.1392 75.2543 33.6314 75.289 33.6314C75.3237 33.6314 75.3931 33.5836 75.4417 33.5152C75.518 33.4263 75.518 33.399 75.4556 33.3785C75.3376 33.3375 75.3445 33.0299 75.4625 32.9068C75.6638 32.7154 76.0593 32.8521 76.0593 33.1119C76.0593 33.1734 76.094 33.2213 76.1287 33.2213C76.1703 33.2213 76.1981 33.2691 76.1981 33.3306C76.1981 33.3853 76.2397 33.481 76.2952 33.5357C76.4132 33.6451 76.6145 33.6656 76.6145 33.5631C76.6145 33.522 76.5867 33.4947 76.5451 33.4947C76.5104 33.4947 76.4757 33.4332 76.4757 33.358C76.4757 33.2828 76.4479 33.2213 76.4063 33.2213C76.3716 33.2213 76.3369 33.1597 76.3369 33.0846C76.3369 33.0094 76.3091 32.9478 76.2675 32.9478C76.1287 32.9478 76.205 32.7223 76.4063 32.5377C76.5728 32.3873 76.6145 32.2916 76.6145 32.0592C76.6145 31.7653 76.4965 31.5807 76.3091 31.5807C76.2467 31.5807 76.1981 31.5465 76.1981 31.5124C76.1981 31.4713 75.9899 31.444 75.7123 31.444H75.2266V32.5377ZM76.2397 31.8131C76.2952 31.8678 76.3369 32.0114 76.3369 32.1276C76.3369 32.4283 76.1981 32.5377 75.8234 32.5377C75.5527 32.5377 75.5041 32.5172 75.5041 32.401C75.5041 32.3258 75.4764 32.2643 75.4347 32.2643C75.4001 32.2643 75.3654 32.2028 75.3654 32.1276C75.3654 32.0524 75.4001 31.9909 75.4347 31.9909C75.4764 31.9909 75.5041 31.9293 75.5041 31.8541C75.5041 31.7379 75.5527 31.7174 75.8234 31.7174C76.0038 31.7174 76.1842 31.7584 76.2397 31.8131Z" fill="white"/>
</svg>
