<svg width="634" height="262" fill="none" xmlns="http://www.w3.org/2000/svg"><path d="M302.964 89.519l88.527.092.023-21.537-88.527-.092-.023 21.537z" fill="url(#paint0_linear_2523_17761)"/><path d="M235.165 134.49h224.913V82.743H235.165v51.747z" fill="url(#paint1_linear_2523_17761)"/><path d="M309.501 141.051l75.352.079a3.002 3.002 0 003.004-2.998l.059-56.363a3 3 0 00-2.998-3.004l-75.352-.079a3.001 3.001 0 00-3.004 2.998l-.059 56.363a3 3 0 002.998 3.004z" fill="url(#paint2_linear_2523_17761)"/><path d="M384.888 115.238c3.613-20.83-10.344-40.645-31.175-44.259-20.83-3.613-40.645 10.345-44.258 31.175-3.613 20.831 10.344 40.646 31.174 44.259 20.831 3.613 40.646-10.344 44.259-31.175z" fill="#757575"/><path d="M358.676 142.701c18.783-6.332 28.877-26.693 22.545-45.477-6.332-18.784-26.693-28.878-45.477-22.545-18.784 6.332-28.878 26.693-22.545 45.477 6.332 18.784 26.693 28.878 45.477 22.545z" fill="url(#paint3_linear_2523_17761)"/><path d="M298.204 67.977l98.097.103.037-35.892-98.096-.102-.038 35.891z" fill="url(#paint4_linear_2523_17761)"/><path d="M303.028 32.09l88.527.094.005-4.785-88.527-.093-.005 4.785z" fill="url(#paint5_linear_2523_17761)"/><path d="M303.054 10.554l88.527.092.01-9.57-88.527-.092-.01 9.57z" fill="url(#paint6_linear_2523_17761)"/><path d="M307.814 27.31l78.956.083.018-16.752-78.957-.083-.017 16.752z" fill="url(#paint7_linear_2523_17761)"/><path d="M379.982 24.998l1.633.002c.211 0 .382-.17.382-.382l.012-11.203a.382.382 0 00-.381-.382l-1.634-.002a.381.381 0 00-.382.381l-.012 11.204c0 .21.171.382.382.382z" fill="#919191"/><path d="M370.438 24.92l1.634.002a.382.382 0 00.382-.382l.012-11.203a.382.382 0 00-.382-.382l-1.633-.002a.381.381 0 00-.382.381l-.012 11.204c0 .21.17.381.381.382z" fill="#949494"/><path d="M360.833 24.974l1.633.002c.211 0 .382-.17.382-.381l.012-11.204a.382.382 0 00-.381-.382l-1.634-.001a.381.381 0 00-.382.38l-.012 11.204c0 .211.171.382.382.383zm-10.251.236h1.634a.38.38 0 00.382-.38V13.625a.382.382 0 00-.382-.382h-1.634c-.21 0-.381.17-.381.382v11.203c0 .211.171.382.381.382zm-8.889-.251l1.633.002a.382.382 0 00.382-.382l.012-11.203a.381.381 0 00-.381-.382l-1.634-.002c-.21 0-.382.17-.382.381l-.012 11.204c0 .21.171.382.382.382zm-9.57-.018l1.633.002c.211 0 .382-.17.382-.381l.012-11.204c0-.21-.17-.382-.381-.382l-1.634-.002a.381.381 0 00-.382.382l-.012 11.203c0 .21.171.382.382.382z" fill="#969696"/><path d="M322.553 24.933l1.633.002c.211 0 .382-.17.382-.381l.012-11.204a.382.382 0 00-.381-.382l-1.634-.002a.381.381 0 00-.382.382l-.012 11.203c0 .211.171.382.382.382z" fill="#949494"/><path d="M312.974 24.926l1.633.001c.211 0 .382-.17.382-.381l.012-11.203a.383.383 0 00-.381-.383l-1.634-.001a.381.381 0 00-.382.381l-.012 11.204c0 .21.171.381.382.382z" fill="#919191"/><path d="M348.487 27.686l2.388 4.145h-4.785l2.397-4.145z" fill="#B0B0B0"/><path d="M104.762 147l130.957-11.865.043-52.931L104.827 70l-.065 77z" fill="url(#paint8_linear_2523_17761)"/><path d="M.762 147h102V70h-102v77z" fill="url(#paint9_linear_2523_17761)"/><path d="M102.85 146.705l1.932.002.065-76.569-1.932-.002-.065 76.569zm-96.425-.124l1.931.003.065-76.569-1.932-.002-.064 76.568z" fill="#000"/><path d="M466.673 140.058l64.344.067a3.72 3.72 0 003.724-3.716l.057-54.774a3.72 3.72 0 00-3.716-3.724l-64.344-.067a3.72 3.72 0 00-3.724 3.716l-.057 54.774a3.721 3.721 0 003.716 3.724z" fill="url(#paint10_linear_2523_17761)"/><path d="M543.233 140.138l14.097.014a3.719 3.719 0 003.724-3.715l.057-54.766a3.72 3.72 0 00-3.715-3.724l-14.098-.014a3.72 3.72 0 00-3.724 3.715l-.057 54.766a3.721 3.721 0 003.716 3.724z" fill="url(#paint11_linear_2523_17761)"/><path d="M459.762 135.22l4.785.005.055-52.635-4.785-.005-.055 52.635z" fill="url(#paint12_linear_2523_17761)"/><path d="M534.733 135.335l4.785.005.055-52.635-4.785-.005-.055 52.635z" fill="url(#paint13_linear_2523_17761)"/><path d="M608.003 114.622a4.871 4.871 0 10.001-9.743 4.871 4.871 0 00-.001 9.743z" fill="#C4C4C4"/><path d="M584.061 111.359a2.353 2.353 0 01-.006-2.724c2.756-3.911 11.589-14.885 23.945-14.885 12.249 0 21.143 10.958 23.936 14.878a2.353 2.353 0 01-.007 2.74c-2.81 3.913-11.774 14.882-23.929 14.882-12.259 0-21.161-10.984-23.939-14.891z" stroke="#C4C4C4" stroke-width="3" stroke-miterlimit="10" stroke-linecap="square"/><path d="M608.003 122.747c7.178 0 12.997-5.818 12.997-12.996 0-7.178-5.819-12.997-12.997-12.997s-12.996 5.819-12.996 12.997 5.818 12.996 12.996 12.996z" stroke="#C4C4C4" stroke-width="3" stroke-miterlimit="10" stroke-linecap="square"/><path d="M608.003 114.622a4.871 4.871 0 10.001-9.743 4.871 4.871 0 00-.001 9.743z" stroke="#C4C4C4" stroke-width="3" stroke-miterlimit="10" stroke-linecap="square"/><path stroke="#AAAAAD" d="M1.5 149v109m181-49v49"/><path d="M7.646 258.354a.501.501 0 010-.708l3.182-3.182a.5.5 0 01.708.708L8.707 258l2.829 2.828a.501.501 0 01-.708.708l-3.182-3.182zm169.708-.708a.502.502 0 010 .708l-3.182 3.182a.502.502 0 01-.708-.708l2.829-2.828-2.829-2.828a.502.502 0 01.708-.708l3.182 3.182zM8 257.5h169v1H8v-1z" fill="#FC0"/><g clip-path="url(#clip0_2523_17761)"><path d="M405.715 218.684l45.82.048.041-38.758-45.82-.048-.041 38.758z" fill="url(#paint14_linear_2523_17761)"/><path d="M406 182h45v-39h-45v39z" fill="url(#paint15_linear_2523_17761)"/><path d="M405.792 143.224l45.82.047.053-51.21-45.819-.048-.054 51.211z" fill="url(#paint16_linear_2523_17761)"/><path d="M405.842 92.024l45.82.048.02-18.87-45.82-.048-.02 18.87z" fill="url(#paint17_linear_2523_17761)"/><path d="M244 218.684l45.82.048.041-38.758-45.82-.048-.041 38.758z" fill="url(#paint18_linear_2523_17761)"/><path d="M244.285 182h45v-39h-45v39z" fill="url(#paint19_linear_2523_17761)"/><path d="M244.077 143.224l45.82.047.053-51.21-45.819-.048-.054 51.211z" fill="url(#paint20_linear_2523_17761)"/><path d="M244.127 92.024l45.82.048.02-18.87-45.82-.048-.02 18.87z" fill="url(#paint21_linear_2523_17761)"/></g><path d="M182 236.655l328.988.345.029-27.655L182.029 209 182 236.655z" fill="url(#paint22_linear_2523_17761)"/><path fill-rule="evenodd" clip-rule="evenodd" d="M206.684 209.358l-7.479-.008.005-5.364 7.48.009-.006 5.363zm4.983-.003l7.48.009.005-5.363-7.479-.009-.006 5.363zm19.942.035l-7.479-.009.005-5.363 7.479.008-.005 5.364zm4.974.007l7.479.008.005-5.363-7.479-.008-.005 5.363zm19.942.014l-7.48-.008.006-5.363 7.479.008-.005 5.363zm4.973.008l7.48.008.005-5.363-7.479-.009-.006 5.364zm19.942.014l-7.479-.009.005-5.363 7.479.009-.005 5.363zm4.983-.003l7.479.009.006-5.363-7.48-.009-.005 5.363zm19.932.044l-7.479-.008.005-5.363 7.48.008-.006 5.363zm4.984-.002l7.479.008.005-5.363-7.479-.008-.005 5.363zm19.932.024l-7.479-.008.005-5.363 7.479.008-.005 5.363zm12.462.006l-7.479-.008.005-5.364 7.48.009-.006 5.363zm12.673-.075l-7.466.008-.005-5.298 7.466-.008.005 5.298zm4.975.002l7.466-.008-.005-5.298-7.467.008.006 5.298zm19.898-.024l-7.467.008-.005-5.297 7.466-.009.006 5.298zm4.974.003l7.466-.009-.005-5.297-7.466.008.005 5.298zm19.898-.044l-7.466.008-.005-5.297 7.466-.009.005 5.298zm4.975.003l7.466-.009-.005-5.297-7.467.008.006 5.298zm19.907-.014l-7.467.008-.005-5.298 7.466-.008.006 5.298zm4.965-.008l7.466-.008-.005-5.298-7.466.008.005 5.298zm19.907-.014l-7.466.008-.005-5.297 7.466-.009.005 5.298zm4.966-.007l7.466-.008-.005-5.298-7.467.008.006 5.298zm19.907-.034l-7.467.008-.005-5.297 7.467-.009.005 5.298zm4.974.003l7.466-.009-.005-5.298-7.466.009.005 5.298z" fill="#1A1A1A"/><defs><linearGradient id="paint0_linear_2523_17761" x1="391.486" y1="78.824" x2="302.96" y2="78.731" gradientUnits="userSpaceOnUse"><stop/><stop offset=".03" stop-color="#0F0F0F"/><stop offset=".17" stop-color="#444"/><stop offset=".23" stop-color="#595959"/><stop offset=".27" stop-color="#444"/><stop offset=".33" stop-color="#232323"/><stop offset=".37" stop-color="#222"/><stop offset=".39" stop-color="#414141"/><stop offset=".41" stop-color="#595959"/><stop offset=".43" stop-color="#6B6B6B"/><stop offset=".46" stop-color="#757575"/><stop offset=".48" stop-color="#787878"/><stop offset=".5" stop-color="#686868"/><stop offset=".52" stop-color="#4B4B4B"/><stop offset=".55" stop-color="#343434"/><stop offset=".57" stop-color="#242424"/><stop offset=".6" stop-color="#1A1A1A"/><stop offset=".64" stop-color="#171717"/><stop offset=".65" stop-color="#1D1D1D"/><stop offset=".67" stop-color="#343434"/><stop offset=".69" stop-color="#464646"/><stop offset=".71" stop-color="#535353"/><stop offset=".75" stop-color="#5A5A5A"/><stop offset=".82" stop-color="#5C5C5C"/><stop offset=".83" stop-color="#525252"/><stop offset=".84" stop-color="#3C3C3C"/><stop offset=".86" stop-color="#2B2B2B"/><stop offset=".88" stop-color="#202020"/><stop offset=".91" stop-color="#191919"/><stop offset="1" stop-color="#171717"/></linearGradient><linearGradient id="paint1_linear_2523_17761" x1="347.599" y1="134.464" x2="347.599" y2="82.708" gradientUnits="userSpaceOnUse"><stop/><stop offset=".5" stop-color="#595959"/><stop offset="1"/></linearGradient><linearGradient id="paint2_linear_2523_17761" x1="387.872" y1="109.896" x2="306.518" y2="109.811" gradientUnits="userSpaceOnUse"><stop/><stop offset=".03" stop-color="#0F0F0F"/><stop offset=".17" stop-color="#444"/><stop offset=".23" stop-color="#595959"/><stop offset=".27" stop-color="#444"/><stop offset=".33" stop-color="#232323"/><stop offset=".37" stop-color="#222"/><stop offset=".39" stop-color="#414141"/><stop offset=".41" stop-color="#595959"/><stop offset=".43" stop-color="#6B6B6B"/><stop offset=".46" stop-color="#757575"/><stop offset=".48" stop-color="#787878"/><stop offset=".5" stop-color="#686868"/><stop offset=".52" stop-color="#4B4B4B"/><stop offset=".55" stop-color="#343434"/><stop offset=".57" stop-color="#242424"/><stop offset=".6" stop-color="#1A1A1A"/><stop offset=".64" stop-color="#171717"/><stop offset=".65" stop-color="#1D1D1D"/><stop offset=".67" stop-color="#343434"/><stop offset=".69" stop-color="#464646"/><stop offset=".71" stop-color="#535353"/><stop offset=".75" stop-color="#5A5A5A"/><stop offset=".82" stop-color="#5C5C5C"/><stop offset=".83" stop-color="#525252"/><stop offset=".84" stop-color="#3C3C3C"/><stop offset=".86" stop-color="#2B2B2B"/><stop offset=".88" stop-color="#202020"/><stop offset=".91" stop-color="#191919"/><stop offset="1" stop-color="#171717"/></linearGradient><linearGradient id="paint3_linear_2523_17761" x1="345.672" y1="147.472" x2="345.654" y2="75.513" gradientUnits="userSpaceOnUse"><stop/><stop offset="1" stop-color="#5C5C5C"/></linearGradient><linearGradient id="paint4_linear_2523_17761" x1="396.302" y1="50.103" x2="298.205" y2="50" gradientUnits="userSpaceOnUse"><stop/><stop offset=".03" stop-color="#0F0F0F"/><stop offset=".17" stop-color="#444"/><stop offset=".23" stop-color="#595959"/><stop offset=".27" stop-color="#444"/><stop offset=".33" stop-color="#232323"/><stop offset=".37" stop-color="#222"/><stop offset=".39" stop-color="#414141"/><stop offset=".41" stop-color="#595959"/><stop offset=".43" stop-color="#6B6B6B"/><stop offset=".46" stop-color="#757575"/><stop offset=".48" stop-color="#787878"/><stop offset=".5" stop-color="#686868"/><stop offset=".52" stop-color="#4B4B4B"/><stop offset=".55" stop-color="#343434"/><stop offset=".57" stop-color="#242424"/><stop offset=".6" stop-color="#1A1A1A"/><stop offset=".64" stop-color="#171717"/><stop offset=".65" stop-color="#1D1D1D"/><stop offset=".67" stop-color="#343434"/><stop offset=".69" stop-color="#464646"/><stop offset=".71" stop-color="#535353"/><stop offset=".75" stop-color="#5A5A5A"/><stop offset=".82" stop-color="#5C5C5C"/><stop offset=".83" stop-color="#525252"/><stop offset=".84" stop-color="#3C3C3C"/><stop offset=".86" stop-color="#2B2B2B"/><stop offset=".88" stop-color="#202020"/><stop offset=".91" stop-color="#191919"/><stop offset="1" stop-color="#171717"/></linearGradient><linearGradient id="paint5_linear_2523_17761" x1="391.542" y1="29.787" x2="303.015" y2="29.694" gradientUnits="userSpaceOnUse"><stop/><stop offset=".03" stop-color="#0F0F0F"/><stop offset=".17" stop-color="#444"/><stop offset=".23" stop-color="#595959"/><stop offset=".27" stop-color="#444"/><stop offset=".33" stop-color="#232323"/><stop offset=".37" stop-color="#222"/><stop offset=".39" stop-color="#414141"/><stop offset=".41" stop-color="#595959"/><stop offset=".43" stop-color="#6B6B6B"/><stop offset=".46" stop-color="#757575"/><stop offset=".48" stop-color="#787878"/><stop offset=".5" stop-color="#686868"/><stop offset=".52" stop-color="#4B4B4B"/><stop offset=".55" stop-color="#343434"/><stop offset=".57" stop-color="#242424"/><stop offset=".6" stop-color="#1A1A1A"/><stop offset=".64" stop-color="#171717"/><stop offset=".65" stop-color="#1D1D1D"/><stop offset=".67" stop-color="#343434"/><stop offset=".69" stop-color="#464646"/><stop offset=".71" stop-color="#535353"/><stop offset=".75" stop-color="#5A5A5A"/><stop offset=".82" stop-color="#5C5C5C"/><stop offset=".83" stop-color="#525252"/><stop offset=".84" stop-color="#3C3C3C"/><stop offset=".86" stop-color="#2B2B2B"/><stop offset=".88" stop-color="#202020"/><stop offset=".91" stop-color="#191919"/><stop offset="1" stop-color="#171717"/></linearGradient><linearGradient id="paint6_linear_2523_17761" x1="391.57" y1="5.853" x2="303.043" y2="5.761" gradientUnits="userSpaceOnUse"><stop/><stop offset=".03" stop-color="#0F0F0F"/><stop offset=".17" stop-color="#444"/><stop offset=".23" stop-color="#595959"/><stop offset=".27" stop-color="#444"/><stop offset=".33" stop-color="#232323"/><stop offset=".37" stop-color="#222"/><stop offset=".39" stop-color="#414141"/><stop offset=".41" stop-color="#595959"/><stop offset=".43" stop-color="#6B6B6B"/><stop offset=".46" stop-color="#757575"/><stop offset=".48" stop-color="#787878"/><stop offset=".5" stop-color="#686868"/><stop offset=".52" stop-color="#4B4B4B"/><stop offset=".55" stop-color="#343434"/><stop offset=".57" stop-color="#242424"/><stop offset=".6" stop-color="#1A1A1A"/><stop offset=".64" stop-color="#171717"/><stop offset=".65" stop-color="#1D1D1D"/><stop offset=".67" stop-color="#343434"/><stop offset=".69" stop-color="#464646"/><stop offset=".71" stop-color="#535353"/><stop offset=".75" stop-color="#5A5A5A"/><stop offset=".82" stop-color="#5C5C5C"/><stop offset=".83" stop-color="#525252"/><stop offset=".84" stop-color="#3C3C3C"/><stop offset=".86" stop-color="#2B2B2B"/><stop offset=".88" stop-color="#202020"/><stop offset=".91" stop-color="#191919"/><stop offset="1" stop-color="#171717"/></linearGradient><linearGradient id="paint7_linear_2523_17761" x1="386.765" y1="19.002" x2="307.808" y2="18.919" gradientUnits="userSpaceOnUse"><stop/><stop offset=".03" stop-color="#0F0F0F"/><stop offset=".17" stop-color="#444"/><stop offset=".23" stop-color="#595959"/><stop offset=".27" stop-color="#444"/><stop offset=".33" stop-color="#232323"/><stop offset=".37" stop-color="#222"/><stop offset=".39" stop-color="#414141"/><stop offset=".41" stop-color="#595959"/><stop offset=".43" stop-color="#6B6B6B"/><stop offset=".46" stop-color="#757575"/><stop offset=".48" stop-color="#787878"/><stop offset=".5" stop-color="#686868"/><stop offset=".52" stop-color="#4B4B4B"/><stop offset=".55" stop-color="#343434"/><stop offset=".57" stop-color="#242424"/><stop offset=".6" stop-color="#1A1A1A"/><stop offset=".64" stop-color="#171717"/><stop offset=".65" stop-color="#1D1D1D"/><stop offset=".67" stop-color="#343434"/><stop offset=".69" stop-color="#464646"/><stop offset=".71" stop-color="#535353"/><stop offset=".75" stop-color="#5A5A5A"/><stop offset=".82" stop-color="#5C5C5C"/><stop offset=".83" stop-color="#525252"/><stop offset=".84" stop-color="#3C3C3C"/><stop offset=".86" stop-color="#2B2B2B"/><stop offset=".88" stop-color="#202020"/><stop offset=".91" stop-color="#191919"/><stop offset="1" stop-color="#171717"/></linearGradient><linearGradient id="paint8_linear_2523_17761" x1="170.794" y1="148.241" x2="170.794" y2="71.25" gradientUnits="userSpaceOnUse"><stop/><stop offset=".07" stop-color="#090909"/><stop offset=".19" stop-color="#212121"/><stop offset=".35" stop-color="#494949"/><stop offset=".5" stop-color="#787878"/><stop offset=".65" stop-color="#494949"/><stop offset=".81" stop-color="#212121"/><stop offset=".93" stop-color="#090909"/><stop offset="1"/></linearGradient><linearGradient id="paint9_linear_2523_17761" x1="51.348" y1="68.759" x2="51.348" y2="145.75" gradientUnits="userSpaceOnUse"><stop/><stop offset=".07" stop-color="#090909"/><stop offset=".19" stop-color="#212121"/><stop offset=".35" stop-color="#494949"/><stop offset=".5" stop-color="#787878"/><stop offset=".65" stop-color="#494949"/><stop offset=".81" stop-color="#212121"/><stop offset=".93" stop-color="#090909"/><stop offset="1"/></linearGradient><linearGradient id="paint10_linear_2523_17761" x1="498.62" y1="76.875" x2="498.554" y2="139.081" gradientUnits="userSpaceOnUse"><stop/><stop offset=".07" stop-color="#090909"/><stop offset=".19" stop-color="#212121"/><stop offset=".35" stop-color="#494949"/><stop offset=".5" stop-color="#787878"/><stop offset=".65" stop-color="#494949"/><stop offset=".81" stop-color="#212121"/><stop offset=".93" stop-color="#090909"/><stop offset="1"/></linearGradient><linearGradient id="paint11_linear_2523_17761" x1="550.26" y1="76.938" x2="550.195" y2="139.135" gradientUnits="userSpaceOnUse"><stop/><stop offset=".07" stop-color="#090909"/><stop offset=".19" stop-color="#212121"/><stop offset=".35" stop-color="#494949"/><stop offset=".5" stop-color="#787878"/><stop offset=".65" stop-color="#494949"/><stop offset=".81" stop-color="#212121"/><stop offset=".93" stop-color="#090909"/><stop offset="1"/></linearGradient><linearGradient id="paint12_linear_2523_17761" x1="-4371.87" y1="40710.2" x2="-4368.61" y2="37588.9" gradientUnits="userSpaceOnUse"><stop/><stop offset=".5" stop-color="#595959"/><stop offset="1"/></linearGradient><linearGradient id="paint13_linear_2523_17761" x1="-4042.82" y1="40713.2" x2="-4039.56" y2="37592.5" gradientUnits="userSpaceOnUse"><stop/><stop offset=".5" stop-color="#595959"/><stop offset="1"/></linearGradient><linearGradient id="paint14_linear_2523_17761" x1="428.615" y1="218.678" x2="428.656" y2="179.919" gradientUnits="userSpaceOnUse"><stop/><stop offset=".77" stop-color="#292929"/><stop offset="1" stop-color="#919191"/></linearGradient><linearGradient id="paint15_linear_2523_17761" x1="428.49" y1="181.979" x2="428.49" y2="142.979" gradientUnits="userSpaceOnUse"><stop stop-color="#919191"/><stop offset=".23" stop-color="#292929"/><stop offset="1"/></linearGradient><linearGradient id="paint16_linear_2523_17761" x1="428.702" y1="143.227" x2="428.756" y2="92.017" gradientUnits="userSpaceOnUse"><stop stop-color="#5C5C5C"/><stop offset="1"/></linearGradient><linearGradient id="paint17_linear_2523_17761" x1="428.752" y1="92.018" x2="428.772" y2="73.148" gradientUnits="userSpaceOnUse"><stop/><stop offset=".04" stop-color="#0C0C0C"/><stop offset=".12" stop-color="#222"/><stop offset=".22" stop-color="#333"/><stop offset=".34" stop-color="#3E3E3E"/><stop offset=".52" stop-color="#454545"/><stop offset="1" stop-color="#474747"/></linearGradient><linearGradient id="paint18_linear_2523_17761" x1="266.9" y1="218.678" x2="266.941" y2="179.919" gradientUnits="userSpaceOnUse"><stop/><stop offset=".77" stop-color="#292929"/><stop offset="1" stop-color="#919191"/></linearGradient><linearGradient id="paint19_linear_2523_17761" x1="266.775" y1="181.979" x2="266.775" y2="142.979" gradientUnits="userSpaceOnUse"><stop stop-color="#919191"/><stop offset=".23" stop-color="#292929"/><stop offset="1"/></linearGradient><linearGradient id="paint20_linear_2523_17761" x1="266.987" y1="143.227" x2="267.041" y2="92.017" gradientUnits="userSpaceOnUse"><stop stop-color="#5C5C5C"/><stop offset="1"/></linearGradient><linearGradient id="paint21_linear_2523_17761" x1="267.037" y1="92.018" x2="267.057" y2="73.148" gradientUnits="userSpaceOnUse"><stop/><stop offset=".04" stop-color="#0C0C0C"/><stop offset=".12" stop-color="#222"/><stop offset=".22" stop-color="#333"/><stop offset=".34" stop-color="#3E3E3E"/><stop offset=".52" stop-color="#454545"/><stop offset="1" stop-color="#474747"/></linearGradient><linearGradient id="paint22_linear_2523_17761" x1="346.422" y1="236.806" x2="346.451" y2="209.15" gradientUnits="userSpaceOnUse"><stop/><stop offset=".77" stop-color="#292929"/><stop offset="1" stop-color="#919191"/></linearGradient><clipPath id="clip0_2523_17761"><path fill="#fff" transform="translate(244 73)" d="M0 0h207.68v145.76H0z"/></clipPath></defs></svg>