<svg width="128" height="105" fill="none" xmlns="http://www.w3.org/2000/svg"><path d="M109.732 66.04l14.098.015c2.054.002 3.721-1.01 3.722-2.26l.035-33.34c.001-1.25-1.663-2.266-3.717-2.269l-14.098-.014c-2.054-.003-3.721 1.01-3.722 2.26l-.035 33.34c-.001 1.25 1.663 2.266 3.717 2.268z" fill="url(#paint0_linear_2523_19405)"/><path d="M57.299 104.37l49.841.052c1.096.001 1.986-1.342 1.988-2.999l.059-56.363c.001-1.657-.886-3.002-1.982-3.003l-49.84-.052c-1.097-.001-1.987 1.341-1.989 2.998l-.058 56.364c-.002 1.657.885 3.001 1.981 3.003z" fill="url(#paint1_linear_2523_19405)"/><path d="M120.156 52.025c3.613-20.83-10.345-40.645-31.175-44.258C68.15 4.154 48.335 18.11 44.72 38.94 41.108 59.77 55.065 79.586 75.896 83.2c20.83 3.612 40.646-10.345 44.259-31.176z" fill="#757575"/><path d="M93.943 79.488c18.784-6.332 28.878-26.693 22.545-45.477-6.332-18.784-26.693-28.878-45.477-22.545-18.784 6.332-28.878 26.693-22.545 45.477 6.332 18.784 26.693 28.878 45.477 22.545z" fill="url(#paint2_linear_2523_19405)"/><path d="M92.843 76.226c16.982-5.725 26.108-24.133 20.383-41.115-5.725-16.983-24.133-26.109-41.115-20.383-16.983 5.725-26.108 24.133-20.383 41.115 5.725 16.982 24.133 26.108 41.115 20.383z" fill="#fff"/><path stroke="#AAAAAD" d="M117.5 46.5H4.5m49 58h-49"/><path d="M3.646 47.935a.5.5 0 01.708 0l3.182 3.182a.5.5 0 11-.708.708L4 48.996l-2.828 2.829a.5.5 0 11-.708-.708l3.182-3.181zm.708 54.892a.5.5 0 01-.708 0L.464 99.645a.5.5 0 11.708-.707L4 101.766l2.828-2.828a.5.5 0 01.708.707l-3.182 3.182zM4.5 48.289v54.184h-1V48.289h1z" fill="#FC0"/><defs><linearGradient id="paint0_linear_2523_19405" x1="116.734" y1="27.569" x2="116.694" y2="65.433" gradientUnits="userSpaceOnUse"><stop/><stop offset=".07" stop-color="#090909"/><stop offset=".19" stop-color="#212121"/><stop offset=".35" stop-color="#494949"/><stop offset=".5" stop-color="#787878"/><stop offset=".65" stop-color="#494949"/><stop offset=".81" stop-color="#212121"/><stop offset=".93" stop-color="#090909"/><stop offset="1"/></linearGradient><linearGradient id="paint1_linear_2523_19405" x1="109.147" y1="73.188" x2="55.337" y2="73.131" gradientUnits="userSpaceOnUse"><stop/><stop offset=".03" stop-color="#0F0F0F"/><stop offset=".17" stop-color="#444"/><stop offset=".23" stop-color="#595959"/><stop offset=".27" stop-color="#444"/><stop offset=".33" stop-color="#232323"/><stop offset=".37" stop-color="#222"/><stop offset=".39" stop-color="#414141"/><stop offset=".41" stop-color="#595959"/><stop offset=".43" stop-color="#6B6B6B"/><stop offset=".46" stop-color="#757575"/><stop offset=".48" stop-color="#787878"/><stop offset=".5" stop-color="#686868"/><stop offset=".52" stop-color="#4B4B4B"/><stop offset=".55" stop-color="#343434"/><stop offset=".57" stop-color="#242424"/><stop offset=".6" stop-color="#1A1A1A"/><stop offset=".64" stop-color="#171717"/><stop offset=".65" stop-color="#1D1D1D"/><stop offset=".67" stop-color="#343434"/><stop offset=".69" stop-color="#464646"/><stop offset=".71" stop-color="#535353"/><stop offset=".75" stop-color="#5A5A5A"/><stop offset=".82" stop-color="#5C5C5C"/><stop offset=".83" stop-color="#525252"/><stop offset=".84" stop-color="#3C3C3C"/><stop offset=".86" stop-color="#2B2B2B"/><stop offset=".88" stop-color="#202020"/><stop offset=".91" stop-color="#191919"/><stop offset="1" stop-color="#171717"/></linearGradient><linearGradient id="paint2_linear_2523_19405" x1="80.939" y1="84.26" x2="80.921" y2="12.3" gradientUnits="userSpaceOnUse"><stop/><stop offset="1" stop-color="#5C5C5C"/></linearGradient></defs></svg>