<svg width="690" height="146" fill="none" xmlns="http://www.w3.org/2000/svg"><g clip-path="url(#clip0_2520_19312)"><path d="M358.964 88.519l88.527.092.023-21.537-88.527-.092-.023 21.537z" fill="url(#paint0_linear_2520_19312)"/><path d="M291.166 133.49h224.912V81.743H291.166v51.747z" fill="url(#paint1_linear_2520_19312)"/><path d="M365.501 140.051l75.352.079a3.002 3.002 0 003.004-2.998l.059-56.363a3 3 0 00-2.998-3.004l-75.352-.079a3.001 3.001 0 00-3.004 2.998l-.059 56.363a3 3 0 002.998 3.004z" fill="url(#paint2_linear_2520_19312)"/><path d="M440.888 114.238c3.613-20.83-10.344-40.645-31.175-44.259-20.83-3.613-40.645 10.345-44.258 31.175-3.613 20.831 10.344 40.646 31.174 44.259 20.831 3.613 40.646-10.344 44.259-31.175z" fill="#757575"/><path d="M414.675 141.701c18.784-6.332 28.878-26.693 22.546-45.477-6.333-18.784-26.693-28.878-45.477-22.545-18.784 6.332-28.878 26.693-22.546 45.477 6.333 18.784 26.694 28.878 45.477 22.545z" fill="url(#paint3_linear_2520_19312)"/><path d="M354.204 66.977l98.097.103.037-35.892-98.096-.102-.038 35.891z" fill="url(#paint4_linear_2520_19312)"/><path d="M359.028 31.09l88.527.094.005-4.785-88.527-.093-.005 4.785z" fill="url(#paint5_linear_2520_19312)"/><path d="M359.054 9.553l88.527.093.01-9.57-88.527-.093-.01 9.57z" fill="url(#paint6_linear_2520_19312)"/><path d="M363.814 26.31l78.956.083.018-16.752-78.957-.083-.017 16.752z" fill="url(#paint7_linear_2520_19312)"/><path d="M435.982 23.999l1.633.002c.211 0 .382-.17.382-.382l.012-11.203a.382.382 0 00-.381-.382l-1.634-.002a.381.381 0 00-.382.381l-.012 11.204c0 .21.171.382.382.382z" fill="#919191"/><path d="M426.438 23.92l1.634.002a.382.382 0 00.382-.382l.012-11.203a.382.382 0 00-.382-.382l-1.633-.002a.381.381 0 00-.382.381l-.012 11.204c0 .21.17.381.381.382z" fill="#949494"/><path d="M416.833 23.974l1.633.002c.211 0 .382-.17.382-.381l.012-11.204a.382.382 0 00-.381-.382l-1.634-.001a.381.381 0 00-.382.38l-.012 11.204c0 .211.171.382.382.383zm-10.251.238h1.634a.382.382 0 00.382-.382V12.627a.382.382 0 00-.382-.382h-1.634c-.21 0-.381.17-.381.382V23.83c0 .211.171.382.381.382zm-8.889-.253l1.633.002a.382.382 0 00.382-.382l.012-11.203a.381.381 0 00-.381-.382l-1.634-.002a.381.381 0 00-.382.381l-.012 11.204c0 .21.171.382.382.382zm-9.57-.017l1.633.002c.211 0 .382-.17.382-.381l.012-11.204c0-.21-.17-.382-.381-.382l-1.634-.002a.381.381 0 00-.382.382l-.012 11.203c0 .21.171.382.382.382z" fill="#969696"/><path d="M378.553 23.934l1.633.002c.211 0 .382-.17.382-.381l.012-11.204a.382.382 0 00-.381-.382l-1.634-.002a.381.381 0 00-.382.382l-.012 11.203c0 .211.171.382.382.382z" fill="#949494"/><path d="M368.974 23.927l1.633.001c.211 0 .382-.17.382-.381l.012-11.204c0-.21-.17-.381-.381-.382l-1.634-.001a.381.381 0 00-.382.381l-.012 11.204c0 .21.171.381.382.382z" fill="#919191"/><path d="M404.487 26.686l2.388 4.145h-4.785l2.397-4.145z" fill="#B0B0B0"/><path d="M160.762 146l130.957-11.865.043-52.931L160.827 69l-.065 77z" fill="url(#paint8_linear_2520_19312)"/><path d="M56.762 146h102V69h-102v77z" fill="url(#paint9_linear_2520_19312)"/><path d="M158.85 145.705l1.932.002.065-76.569-1.932-.002-.065 76.569zm-96.425-.124l1.931.003.065-76.569-1.932-.002-.064 76.568z" fill="#000"/><path d="M522.673 139.058l64.344.067a3.72 3.72 0 003.724-3.716l.057-54.774a3.72 3.72 0 00-3.716-3.724l-64.344-.067a3.72 3.72 0 00-3.724 3.716l-.057 54.774a3.721 3.721 0 003.716 3.724z" fill="url(#paint10_linear_2520_19312)"/><path d="M599.233 139.138l14.097.014a3.719 3.719 0 003.724-3.715l.057-54.766a3.72 3.72 0 00-3.715-3.724l-14.098-.014a3.72 3.72 0 00-3.724 3.715l-.057 54.766a3.721 3.721 0 003.716 3.724z" fill="url(#paint11_linear_2520_19312)"/><path d="M515.762 134.22l4.785.005.055-52.635-4.785-.005-.055 52.635z" fill="url(#paint12_linear_2520_19312)"/><path d="M590.733 134.335l4.785.005.055-52.635-4.785-.005-.055 52.635z" fill="url(#paint13_linear_2520_19312)"/><path stroke="#AAAAAD" d="M55 69.5H6m49 76H6"/><path d="M5.146 71.646a.5.5 0 01.708 0l3.182 3.182a.5.5 0 11-.708.707L5.5 72.707l-2.828 2.829a.5.5 0 11-.708-.708l3.182-3.182zm.708 71.708a.5.5 0 01-.708 0l-3.182-3.182a.501.501 0 01.708-.708l2.828 2.829 2.828-2.829a.5.5 0 01.708.708l-3.182 3.182zM6 72v71H5V72h1z" fill="#FC0"/><path d="M664.003 113.622a4.871 4.871 0 10.001-9.743 4.871 4.871 0 00-.001 9.743z" fill="#C4C4C4"/><path d="M640.061 110.359a2.359 2.359 0 01-.006-2.724c2.756-3.911 11.589-14.885 23.945-14.885 12.248 0 21.143 10.958 23.935 14.878a2.356 2.356 0 01-.006 2.74c-2.811 3.913-11.774 14.882-23.929 14.882-12.259 0-21.162-10.984-23.939-14.891z" stroke="#C4C4C4" stroke-width="3" stroke-miterlimit="10" stroke-linecap="square"/><path d="M664.003 121.747c7.178 0 12.997-5.818 12.997-12.996 0-7.178-5.819-12.997-12.997-12.997s-12.997 5.819-12.997 12.997 5.819 12.996 12.997 12.996z" stroke="#C4C4C4" stroke-width="3" stroke-miterlimit="10" stroke-linecap="square"/><path d="M664.003 113.622a4.871 4.871 0 10.001-9.743 4.871 4.871 0 00-.001 9.743z" stroke="#C4C4C4" stroke-width="3" stroke-miterlimit="10" stroke-linecap="square"/></g><defs><linearGradient id="paint0_linear_2520_19312" x1="447.486" y1="77.824" x2="358.96" y2="77.731" gradientUnits="userSpaceOnUse"><stop/><stop offset=".03" stop-color="#0F0F0F"/><stop offset=".17" stop-color="#444"/><stop offset=".23" stop-color="#595959"/><stop offset=".27" stop-color="#444"/><stop offset=".33" stop-color="#232323"/><stop offset=".37" stop-color="#222"/><stop offset=".39" stop-color="#414141"/><stop offset=".41" stop-color="#595959"/><stop offset=".43" stop-color="#6B6B6B"/><stop offset=".46" stop-color="#757575"/><stop offset=".48" stop-color="#787878"/><stop offset=".5" stop-color="#686868"/><stop offset=".52" stop-color="#4B4B4B"/><stop offset=".55" stop-color="#343434"/><stop offset=".57" stop-color="#242424"/><stop offset=".6" stop-color="#1A1A1A"/><stop offset=".64" stop-color="#171717"/><stop offset=".65" stop-color="#1D1D1D"/><stop offset=".67" stop-color="#343434"/><stop offset=".69" stop-color="#464646"/><stop offset=".71" stop-color="#535353"/><stop offset=".75" stop-color="#5A5A5A"/><stop offset=".82" stop-color="#5C5C5C"/><stop offset=".83" stop-color="#525252"/><stop offset=".84" stop-color="#3C3C3C"/><stop offset=".86" stop-color="#2B2B2B"/><stop offset=".88" stop-color="#202020"/><stop offset=".91" stop-color="#191919"/><stop offset="1" stop-color="#171717"/></linearGradient><linearGradient id="paint1_linear_2520_19312" x1="403.6" y1="133.464" x2="403.6" y2="81.708" gradientUnits="userSpaceOnUse"><stop/><stop offset=".5" stop-color="#595959"/><stop offset="1"/></linearGradient><linearGradient id="paint2_linear_2520_19312" x1="443.872" y1="108.896" x2="362.518" y2="108.811" gradientUnits="userSpaceOnUse"><stop/><stop offset=".03" stop-color="#0F0F0F"/><stop offset=".17" stop-color="#444"/><stop offset=".23" stop-color="#595959"/><stop offset=".27" stop-color="#444"/><stop offset=".33" stop-color="#232323"/><stop offset=".37" stop-color="#222"/><stop offset=".39" stop-color="#414141"/><stop offset=".41" stop-color="#595959"/><stop offset=".43" stop-color="#6B6B6B"/><stop offset=".46" stop-color="#757575"/><stop offset=".48" stop-color="#787878"/><stop offset=".5" stop-color="#686868"/><stop offset=".52" stop-color="#4B4B4B"/><stop offset=".55" stop-color="#343434"/><stop offset=".57" stop-color="#242424"/><stop offset=".6" stop-color="#1A1A1A"/><stop offset=".64" stop-color="#171717"/><stop offset=".65" stop-color="#1D1D1D"/><stop offset=".67" stop-color="#343434"/><stop offset=".69" stop-color="#464646"/><stop offset=".71" stop-color="#535353"/><stop offset=".75" stop-color="#5A5A5A"/><stop offset=".82" stop-color="#5C5C5C"/><stop offset=".83" stop-color="#525252"/><stop offset=".84" stop-color="#3C3C3C"/><stop offset=".86" stop-color="#2B2B2B"/><stop offset=".88" stop-color="#202020"/><stop offset=".91" stop-color="#191919"/><stop offset="1" stop-color="#171717"/></linearGradient><linearGradient id="paint3_linear_2520_19312" x1="401.672" y1="146.472" x2="401.654" y2="74.513" gradientUnits="userSpaceOnUse"><stop/><stop offset="1" stop-color="#5C5C5C"/></linearGradient><linearGradient id="paint4_linear_2520_19312" x1="452.302" y1="49.103" x2="354.205" y2="49" gradientUnits="userSpaceOnUse"><stop/><stop offset=".03" stop-color="#0F0F0F"/><stop offset=".17" stop-color="#444"/><stop offset=".23" stop-color="#595959"/><stop offset=".27" stop-color="#444"/><stop offset=".33" stop-color="#232323"/><stop offset=".37" stop-color="#222"/><stop offset=".39" stop-color="#414141"/><stop offset=".41" stop-color="#595959"/><stop offset=".43" stop-color="#6B6B6B"/><stop offset=".46" stop-color="#757575"/><stop offset=".48" stop-color="#787878"/><stop offset=".5" stop-color="#686868"/><stop offset=".52" stop-color="#4B4B4B"/><stop offset=".55" stop-color="#343434"/><stop offset=".57" stop-color="#242424"/><stop offset=".6" stop-color="#1A1A1A"/><stop offset=".64" stop-color="#171717"/><stop offset=".65" stop-color="#1D1D1D"/><stop offset=".67" stop-color="#343434"/><stop offset=".69" stop-color="#464646"/><stop offset=".71" stop-color="#535353"/><stop offset=".75" stop-color="#5A5A5A"/><stop offset=".82" stop-color="#5C5C5C"/><stop offset=".83" stop-color="#525252"/><stop offset=".84" stop-color="#3C3C3C"/><stop offset=".86" stop-color="#2B2B2B"/><stop offset=".88" stop-color="#202020"/><stop offset=".91" stop-color="#191919"/><stop offset="1" stop-color="#171717"/></linearGradient><linearGradient id="paint5_linear_2520_19312" x1="447.542" y1="28.787" x2="359.015" y2="28.694" gradientUnits="userSpaceOnUse"><stop/><stop offset=".03" stop-color="#0F0F0F"/><stop offset=".17" stop-color="#444"/><stop offset=".23" stop-color="#595959"/><stop offset=".27" stop-color="#444"/><stop offset=".33" stop-color="#232323"/><stop offset=".37" stop-color="#222"/><stop offset=".39" stop-color="#414141"/><stop offset=".41" stop-color="#595959"/><stop offset=".43" stop-color="#6B6B6B"/><stop offset=".46" stop-color="#757575"/><stop offset=".48" stop-color="#787878"/><stop offset=".5" stop-color="#686868"/><stop offset=".52" stop-color="#4B4B4B"/><stop offset=".55" stop-color="#343434"/><stop offset=".57" stop-color="#242424"/><stop offset=".6" stop-color="#1A1A1A"/><stop offset=".64" stop-color="#171717"/><stop offset=".65" stop-color="#1D1D1D"/><stop offset=".67" stop-color="#343434"/><stop offset=".69" stop-color="#464646"/><stop offset=".71" stop-color="#535353"/><stop offset=".75" stop-color="#5A5A5A"/><stop offset=".82" stop-color="#5C5C5C"/><stop offset=".83" stop-color="#525252"/><stop offset=".84" stop-color="#3C3C3C"/><stop offset=".86" stop-color="#2B2B2B"/><stop offset=".88" stop-color="#202020"/><stop offset=".91" stop-color="#191919"/><stop offset="1" stop-color="#171717"/></linearGradient><linearGradient id="paint6_linear_2520_19312" x1="447.57" y1="4.852" x2="359.043" y2="4.76" gradientUnits="userSpaceOnUse"><stop/><stop offset=".03" stop-color="#0F0F0F"/><stop offset=".17" stop-color="#444"/><stop offset=".23" stop-color="#595959"/><stop offset=".27" stop-color="#444"/><stop offset=".33" stop-color="#232323"/><stop offset=".37" stop-color="#222"/><stop offset=".39" stop-color="#414141"/><stop offset=".41" stop-color="#595959"/><stop offset=".43" stop-color="#6B6B6B"/><stop offset=".46" stop-color="#757575"/><stop offset=".48" stop-color="#787878"/><stop offset=".5" stop-color="#686868"/><stop offset=".52" stop-color="#4B4B4B"/><stop offset=".55" stop-color="#343434"/><stop offset=".57" stop-color="#242424"/><stop offset=".6" stop-color="#1A1A1A"/><stop offset=".64" stop-color="#171717"/><stop offset=".65" stop-color="#1D1D1D"/><stop offset=".67" stop-color="#343434"/><stop offset=".69" stop-color="#464646"/><stop offset=".71" stop-color="#535353"/><stop offset=".75" stop-color="#5A5A5A"/><stop offset=".82" stop-color="#5C5C5C"/><stop offset=".83" stop-color="#525252"/><stop offset=".84" stop-color="#3C3C3C"/><stop offset=".86" stop-color="#2B2B2B"/><stop offset=".88" stop-color="#202020"/><stop offset=".91" stop-color="#191919"/><stop offset="1" stop-color="#171717"/></linearGradient><linearGradient id="paint7_linear_2520_19312" x1="442.765" y1="18.002" x2="363.808" y2="17.919" gradientUnits="userSpaceOnUse"><stop/><stop offset=".03" stop-color="#0F0F0F"/><stop offset=".17" stop-color="#444"/><stop offset=".23" stop-color="#595959"/><stop offset=".27" stop-color="#444"/><stop offset=".33" stop-color="#232323"/><stop offset=".37" stop-color="#222"/><stop offset=".39" stop-color="#414141"/><stop offset=".41" stop-color="#595959"/><stop offset=".43" stop-color="#6B6B6B"/><stop offset=".46" stop-color="#757575"/><stop offset=".48" stop-color="#787878"/><stop offset=".5" stop-color="#686868"/><stop offset=".52" stop-color="#4B4B4B"/><stop offset=".55" stop-color="#343434"/><stop offset=".57" stop-color="#242424"/><stop offset=".6" stop-color="#1A1A1A"/><stop offset=".64" stop-color="#171717"/><stop offset=".65" stop-color="#1D1D1D"/><stop offset=".67" stop-color="#343434"/><stop offset=".69" stop-color="#464646"/><stop offset=".71" stop-color="#535353"/><stop offset=".75" stop-color="#5A5A5A"/><stop offset=".82" stop-color="#5C5C5C"/><stop offset=".83" stop-color="#525252"/><stop offset=".84" stop-color="#3C3C3C"/><stop offset=".86" stop-color="#2B2B2B"/><stop offset=".88" stop-color="#202020"/><stop offset=".91" stop-color="#191919"/><stop offset="1" stop-color="#171717"/></linearGradient><linearGradient id="paint8_linear_2520_19312" x1="226.794" y1="147.241" x2="226.794" y2="70.25" gradientUnits="userSpaceOnUse"><stop/><stop offset=".07" stop-color="#090909"/><stop offset=".19" stop-color="#212121"/><stop offset=".35" stop-color="#494949"/><stop offset=".5" stop-color="#787878"/><stop offset=".65" stop-color="#494949"/><stop offset=".81" stop-color="#212121"/><stop offset=".93" stop-color="#090909"/><stop offset="1"/></linearGradient><linearGradient id="paint9_linear_2520_19312" x1="107.348" y1="67.759" x2="107.348" y2="144.75" gradientUnits="userSpaceOnUse"><stop/><stop offset=".07" stop-color="#090909"/><stop offset=".19" stop-color="#212121"/><stop offset=".35" stop-color="#494949"/><stop offset=".5" stop-color="#787878"/><stop offset=".65" stop-color="#494949"/><stop offset=".81" stop-color="#212121"/><stop offset=".93" stop-color="#090909"/><stop offset="1"/></linearGradient><linearGradient id="paint10_linear_2520_19312" x1="554.62" y1="75.875" x2="554.554" y2="138.081" gradientUnits="userSpaceOnUse"><stop/><stop offset=".07" stop-color="#090909"/><stop offset=".19" stop-color="#212121"/><stop offset=".35" stop-color="#494949"/><stop offset=".5" stop-color="#787878"/><stop offset=".65" stop-color="#494949"/><stop offset=".81" stop-color="#212121"/><stop offset=".93" stop-color="#090909"/><stop offset="1"/></linearGradient><linearGradient id="paint11_linear_2520_19312" x1="606.26" y1="75.938" x2="606.195" y2="138.135" gradientUnits="userSpaceOnUse"><stop/><stop offset=".07" stop-color="#090909"/><stop offset=".19" stop-color="#212121"/><stop offset=".35" stop-color="#494949"/><stop offset=".5" stop-color="#787878"/><stop offset=".65" stop-color="#494949"/><stop offset=".81" stop-color="#212121"/><stop offset=".93" stop-color="#090909"/><stop offset="1"/></linearGradient><linearGradient id="paint12_linear_2520_19312" x1="-4315.87" y1="40709.2" x2="-4312.61" y2="37587.9" gradientUnits="userSpaceOnUse"><stop/><stop offset=".5" stop-color="#595959"/><stop offset="1"/></linearGradient><linearGradient id="paint13_linear_2520_19312" x1="-3986.82" y1="40712.2" x2="-3983.56" y2="37591.5" gradientUnits="userSpaceOnUse"><stop/><stop offset=".5" stop-color="#595959"/><stop offset="1"/></linearGradient><clipPath id="clip0_2520_19312"><path fill="#fff" d="M0 0h689.962v146H0z"/></clipPath></defs></svg>