<svg width="472" height="83" fill="none" xmlns="http://www.w3.org/2000/svg"><path stroke="#AAAAAD" d="M302 1.5H5.313M134 31.5H5"/><path d="M3.646 3.646a.5.5 0 01.708 0l3.182 3.182a.5.5 0 11-.708.708L4 4.707 1.172 7.536a.5.5 0 11-.708-.708l3.182-3.182zm.708 26.708a.5.5 0 01-.708 0L.464 27.172a.5.5 0 11.708-.707L4 29.293l2.828-2.828a.5.5 0 11.708.707l-3.182 3.182zM4.5 4v26h-1V4h1z" fill="#FC0"/><path d="M457.587 82.99H51.311c-7.913 0-14.32-7.273-14.311-16.218l.056-35.602 178.18-.398 40.613-21.224c2.514-2.333 5.722-3.619 9.042-3.622l181.966.586c.399 0 .791.106 1.143.31.352.203.651.496.872.854l7.605 12.12c.222.355.52.646.87.847.35.201.74.307 1.137.308l-.805.08c7.914 0 14.321 7.273 14.312 16.228l-.056 30.597c-.009 8.955-6.434 15.144-14.348 15.135z" fill="url(#paint0_linear_2523_19437)"/><path d="M419.254 6.494l7.479.008.006-5.363-7.48-.009-.005 5.364zm-12.462-.006l7.479.008.005-5.363-7.479-.008-.005 5.363zm-12.453-.016l7.479.008.005-5.363-7.479-.008-.005 5.363zm-12.463-.006l7.479.009.006-5.364-7.48-.008-.005 5.363zm-12.453-.035l7.479.008.006-5.363-7.48-.008-.005 5.363zm-12.462-.006l7.479.009.005-5.364-7.479-.008-.005 5.363zm-12.463-.005l7.48.008.005-5.363-7.479-.009-.006 5.363zm-12.453-.016l7.479.008.006-5.363-7.48-.009-.005 5.364zm-12.462-.006l7.479.008.005-5.363-7.479-.008-.005 5.363zm-12.453-.016l7.479.009.005-5.364-7.479-.008-.005 5.363zm-12.463-.027l7.48.008.005-5.363-7.479-.008-.006 5.363zm-12.462-.006l7.479.008.005-5.363-7.479-.008-.005 5.363z" fill="#1A1A1A"/><defs><linearGradient id="paint0_linear_2523_19437" x1="326.888" y1="84.075" x2="326.888" y2="6.772" gradientUnits="userSpaceOnUse"><stop offset=".193" stop-color="#fff"/><stop offset=".651" stop-color="#1A1A1A"/></linearGradient></defs></svg>