<svg width="160" height="77" fill="none" xmlns="http://www.w3.org/2000/svg"><path d="M55.762 77h102V0h-102v77z" fill="url(#paint0_linear_2520_19403)"/><path d="M157.85 76.704l1.932.003.065-76.569-1.932-.002-.065 76.568zm-96.425-.122l1.931.002.065-76.569L61.49.013l-.064 76.569z" fill="#000"/><path stroke="#AAAAAD" d="M54 65.5H5m49 11H5"/><path d="M4.354 65.646a.5.5 0 00-.708 0L.464 68.828a.5.5 0 10.708.707L4 66.707l2.828 2.829a.5.5 0 10.708-.708l-3.182-3.182zm-.708 10.708a.5.5 0 00.708 0l3.182-3.182a.5.5 0 10-.708-.707L4 75.293l-2.828-2.829a.5.5 0 10-.708.708l3.182 3.182zM3.5 66v10h1V66h-1z" fill="#FC0"/><defs><linearGradient id="paint0_linear_2520_19403" x1="106.348" y1="-1.241" x2="106.348" y2="75.75" gradientUnits="userSpaceOnUse"><stop/><stop offset=".07" stop-color="#090909"/><stop offset=".19" stop-color="#212121"/><stop offset=".35" stop-color="#494949"/><stop offset=".5" stop-color="#787878"/><stop offset=".65" stop-color="#494949"/><stop offset=".81" stop-color="#212121"/><stop offset=".93" stop-color="#090909"/><stop offset="1"/></linearGradient></defs></svg>