<svg width="27" height="17" fill="none" xmlns="http://www.w3.org/2000/svg"><path d="M13.663 16.938c3.906 0 2.513-2.473 2.815-3.184-.005-.531-.01-1.042.009-1.352.247.07.831.365 2.037 1.537 1.862 1.88 2.338 2.998 3.842 2.998h2.769c.877 0 1.334-.363 1.562-.668.22-.294.437-.812.2-1.617-.617-1.94-4.22-5.29-4.443-5.642.034-.066.088-.152.116-.197h-.003c.712-.94 3.425-5.005 3.824-6.632a.022.022 0 00.003-.01c.216-.742.018-1.223-.187-1.495-.308-.408-.799-.614-1.462-.614h-2.768c-.927 0-1.63.467-1.986 1.319-.595 1.513-2.267 4.625-3.52 5.726a72.123 72.123 0 01.008-3.637c.04-1.727.171-3.408-1.621-3.408h-4.352C9.384.063 8.31 1.29 9.472 2.745c1.018 1.275.366 1.986.585 5.525-.854-.916-2.376-3.392-3.451-6.557C6.305.857 5.848.063 4.562.063H1.793C.671.064 0 .677 0 1.7c0 2.302 5.095 15.238 13.663 15.238zM4.562 1.75c.244 0 .269 0 .45.514 1.101 3.244 3.572 8.043 5.376 8.043 1.356 0 1.356-1.39 1.356-1.913l-.001-4.164c-.075-1.378-.576-2.065-.906-2.481l3.947.004c.002.02-.023 4.607.01 5.719 0 1.578 1.254 2.483 3.21.503 2.065-2.33 3.492-5.813 3.55-5.955.084-.202.157-.271.423-.271h2.78c-.001.003-.001.007-.003.01-.253 1.181-2.751 4.946-3.587 6.115-.014.018-.026.037-.038.056-.368.6-.668 1.264.05 2.198h.001c.066.079.236.263.483.52.77.794 3.409 3.51 3.643 4.59-.155.024-.324.006-2.94.012-.557 0-.992-.832-2.654-2.509-1.494-1.453-2.463-2.047-3.347-2.047-1.714 0-1.59 1.391-1.573 3.075.005 1.824-.006 1.247.006 1.362-.1.04-.387.118-1.135.118-7.138 0-11.787-11.33-11.965-13.495.062-.006.913-.003 2.864-.004z" fill="#fff"/></svg>