<svg width="74" height="74" fill="none" xmlns="http://www.w3.org/2000/svg"><path d="M27.75 52.417L12.333 67.833M46.25 52.417l15.417 15.416M37 6.167v6.166m0 55.5V52.417m-20.967 0h41.934c3.453 0 5.18 0 6.5-.672a6.167 6.167 0 002.694-2.695c.672-1.32.672-3.046.672-6.5V22.2c0-3.454 0-5.18-.672-6.5a6.166 6.166 0 00-2.695-2.694c-1.319-.673-3.046-.673-6.5-.673H16.034c-3.453 0-5.18 0-6.5.672A6.166 6.166 0 006.84 15.7c-.672 1.32-.672 3.046-.672 6.5v20.35c0 3.454 0 5.18.672 6.5a6.167 6.167 0 002.695 2.695c1.319.672 3.046.672 6.5.672z" stroke="#fff" stroke-width="2" stroke-linecap="round" stroke-linejoin="round"/></svg>