<svg width="20" height="20" viewBox="0 0 20 20" fill="none" xmlns="http://www.w3.org/2000/svg">
<path d="M19.7959 10.4915C19.9265 10.3608 20 10.1812 20 9.9975C20 9.8097 19.9265 9.63416 19.7959 9.50352L14.1743 3.88196C13.9008 3.60843 13.4558 3.60843 13.1823 3.88196C12.9088 4.15548 12.9088 4.60047 13.1823 4.874L17.6118 9.29531L0.702183 9.29531C0.314349 9.29531 5.86834e-07 9.60966 5.52929e-07 9.9975C5.19023e-07 10.3853 0.314349 10.6956 0.702183 10.6956L17.6118 10.6956L13.1864 15.1251C12.9128 15.3986 12.9128 15.8436 13.1864 16.1171C13.4599 16.3906 13.9049 16.3906 14.1784 16.1171L19.7959 10.4915Z" fill="black"/>
</svg>
