<svg width="20" height="20" viewBox="0 0 20 20" fill="none" xmlns="http://www.w3.org/2000/svg">
<path d="M0.204123 9.50852C0.0734844 9.63916 0 9.81879 0 10.0025C0 10.1903 0.0734844 10.3658 0.204123 10.4965L5.82568 16.118C6.0992 16.3916 6.54419 16.3916 6.81772 16.118C7.09124 15.8445 7.09124 15.3995 6.81772 15.126L2.38824 10.7047H19.2978C19.6857 10.7047 20 10.3903 20 10.0025C20 9.61467 19.6857 9.3044 19.2978 9.3044H2.38824L6.81364 4.87492C7.08716 4.60139 7.08716 4.1564 6.81364 3.88288C6.54011 3.60935 6.09512 3.60935 5.8216 3.88288L0.204123 9.50852Z" fill="black"/>
</svg>
