<svg width="17" height="20" viewBox="0 0 17 20" fill="none" xmlns="http://www.w3.org/2000/svg">
<path d="M14.9459 4.46622C14.9132 4.10696 14.6111 3.82935 14.2478 3.82935H12.08C11.9657 1.69831 10.198 0 8.03837 0C5.87875 0 4.11104 1.69831 3.99673 3.82935H1.82894C1.46561 3.82935 1.1635 4.10696 1.13084 4.46622L0.0040824 17.1627C0.0040824 17.1831 0 17.2035 0 17.2239C0 18.7548 1.3962 20 3.11084 20H12.9577C14.6724 20 16.0686 18.7548 16.0686 17.2239C16.0686 17.2035 16.0686 17.1831 16.0645 17.1627L14.9459 4.46622ZM8.03837 1.40029C9.42641 1.40029 10.5654 2.46989 10.6756 3.82935H5.4011C5.51133 2.46989 6.65034 1.40029 8.03837 1.40029ZM12.9618 18.6038H3.11492C2.18412 18.6038 1.4207 17.9996 1.40437 17.2525L2.47397 5.22964H3.99265V6.72382C3.99265 7.11166 4.307 7.42601 4.69484 7.42601C5.08267 7.42601 5.39702 7.11166 5.39702 6.72382V5.22964H10.692V6.72382C10.692 7.11166 11.0063 7.42601 11.3901 7.42601C11.7779 7.42601 12.0923 7.11166 12.0923 6.72382V5.22964H13.6109L14.6805 17.2525C14.6561 17.9996 13.8967 18.6038 12.9618 18.6038Z" fill="#0075CB"/>
</svg>
