<svg width="40" height="40" viewBox="0 0 40 40" fill="none" xmlns="http://www.w3.org/2000/svg">
<path d="M27.4691 11H12.8409C11.8218 11 11 11.8218 11 12.8409V27.4691C11 28.4881 11.8218 29.3099 12.8409 29.3099H27.4691C28.4881 29.3099 29.3099 28.4881 29.3099 27.4691V12.8409C29.2771 11.8218 28.4553 11 27.4691 11ZM20.1385 16.4897C22.1438 16.4897 23.7874 18.1333 23.7874 20.1385C23.7874 22.1438 22.1438 23.7874 20.1385 23.7874C18.1333 23.7874 16.4897 22.1438 16.4897 20.1385C16.4897 18.1333 18.1333 16.4897 20.1385 16.4897ZM13.3011 27.4691C13.0381 27.4691 12.8409 27.2718 12.8409 27.0089V19.251H14.7475C14.6488 19.514 14.6488 19.9084 14.6488 20.1714C14.6488 23.1957 17.1143 25.6611 20.1385 25.6611C23.1628 25.6611 25.6282 23.1957 25.6282 20.1714C25.6282 19.9084 25.6282 19.5468 25.5296 19.251H27.4362V27.0089C27.4362 27.2718 27.239 27.4691 26.976 27.4691H13.3011ZM27.4691 15.1419C27.4691 15.4049 27.2718 15.6021 27.0089 15.6021H25.168C24.905 15.6021 24.7078 15.4049 24.7078 15.1419V13.3011C24.7078 13.0381 24.905 12.8409 25.168 12.8409H27.0089C27.2718 12.8409 27.4691 13.0381 27.4691 13.3011V15.1419Z" fill="white"/>
</svg>
