<svg width="140" height="36" viewBox="0 0 140 36" fill="none" xmlns="http://www.w3.org/2000/svg">
<path d="M24.4869 1.32C24.0231 0.504 23.1883 0 22.2608 0H17.1825C16.255 0 15.4202 0.504 14.9565 1.32L0.347825 27.48C-0.115942 28.296 -0.115942 29.304 0.347825 30.144L2.87535 34.68C3.33912 35.496 4.1739 36 5.10143 36H34.2955C35.2231 36 36.0578 35.496 36.5216 34.68L39.0491 30.144C39.5129 29.328 39.5129 28.32 39.0491 27.48L24.4869 1.32ZM26.6898 30.024C24.4869 30.744 22.1449 31.128 19.7333 31.128C17.2985 31.128 14.9797 30.744 12.7768 30.024C10.2029 29.184 8.62606 26.496 9.15939 23.76C10.1565 18.792 12.6608 14.4 16.1391 11.064C18.1796 9.144 21.2869 9.12 23.3043 11.064C26.7825 14.376 29.2869 18.768 30.284 23.76C30.8405 26.472 29.2637 29.184 26.6898 30.024Z" fill="#02B5E2"/>
<path d="M113.672 7.81175C113.486 7.47851 113.16 7.28809 112.788 7.28809H111.928C111.695 7.28809 111.486 7.4071 111.393 7.62133L103.973 22.7361C103.811 23.0455 103.369 23.0455 103.229 22.7361L95.8099 7.62133C95.7169 7.4071 95.5076 7.28809 95.275 7.28809H94.4145C94.0423 7.28809 93.7167 7.47851 93.5307 7.81175L92.5771 9.47794C92.4143 9.76357 92.4143 10.1206 92.5538 10.4301L101.392 28.2345C101.531 28.5202 101.834 28.7106 102.136 28.7106H105.043C105.369 28.7106 105.648 28.5202 105.788 28.2345L114.626 10.4301C114.765 10.1444 114.765 9.78738 114.602 9.50175L113.672 7.81175Z" fill="#17222E"/>
<path d="M69.8775 7.81175C69.6915 7.47851 69.3659 7.28809 68.9937 7.28809H68.1332C67.9006 7.28809 67.6913 7.4071 67.5983 7.62133L60.179 22.7361C60.0162 23.0455 59.5743 23.0455 59.4348 22.7361L52.0155 7.62133C51.9225 7.4071 51.7131 7.28809 51.4806 7.28809H50.62C50.2479 7.28809 49.9223 7.47851 49.7362 7.81175L48.7826 9.47794C48.6198 9.76357 48.6198 10.1206 48.7594 10.4301L57.5974 28.2345C57.7369 28.5202 58.0393 28.7106 58.3416 28.7106H61.2489C61.5745 28.7106 61.8536 28.5202 61.9931 28.2345L70.8311 10.4301C70.9707 10.1444 70.9707 9.78738 70.8079 9.50175L69.8775 7.81175Z" fill="#17222E"/>
<path d="M82.9252 7.28809H81.5995C81.2274 7.28809 80.9017 7.47851 80.7157 7.81175L79.7621 9.47794C79.6691 9.62076 79.6226 9.78738 79.6226 9.9778V27.8299C79.6226 28.3059 79.9947 28.6868 80.4598 28.6868H82.9019C83.3671 28.6868 83.7392 28.3059 83.7392 27.8299V8.14499C83.7392 7.90696 83.6462 7.69273 83.4834 7.52611C83.3671 7.3833 83.1578 7.28809 82.9252 7.28809Z" fill="#17222E"/>
<path d="M127.883 11.0971H139.419C139.744 11.0971 140 10.8353 140 10.5021V10.1212C140 9.8594 139.93 9.59757 139.814 9.38334L138.93 7.81236C138.744 7.50292 138.418 7.3125 138.07 7.3125H125.417C125.045 7.3125 124.72 7.50292 124.533 7.83616L123.65 9.38334C123.533 9.59757 123.464 9.8594 123.464 10.1212V25.8787C123.464 26.1405 123.533 26.4023 123.65 26.6166L124.533 28.1637C124.72 28.497 125.045 28.6874 125.417 28.6874H138.07C138.418 28.6874 138.767 28.497 138.93 28.1875L139.814 26.6166C139.93 26.4023 140 26.1405 140 25.8787V25.474C140 25.1408 139.744 24.879 139.419 24.879H127.883C127.65 24.879 127.464 24.6885 127.464 24.4505V20.2374C127.464 19.9994 127.65 19.809 127.883 19.809H135.697C136.069 19.809 136.395 19.4995 136.395 19.0949V16.7384C136.395 16.3576 136.093 16.0243 135.697 16.0243H127.883C127.65 16.0243 127.464 15.8339 127.464 15.5959V11.5018C127.464 11.2876 127.65 11.0971 127.883 11.0971Z" fill="#17222E"/>
</svg>
