<svg width="16" height="16" viewBox="0 0 16 16" fill="none" xmlns="http://www.w3.org/2000/svg">
<path d="M11.2559 12.0466L15.0459 15.8366C15.1538 15.9445 15.2975 16 15.4413 16C15.585 16 15.7288 15.9445 15.8366 15.8366C16.0555 15.6177 16.0555 15.2616 15.8366 15.0427L12.0466 11.2526C13.0594 10.06 13.6704 8.51787 13.6704 6.83521C13.6704 3.06473 10.6024 0 6.8352 0C3.068 0 0 3.06477 0 6.83527C0 10.6058 3.068 13.6705 6.83847 13.6705C8.52113 13.6704 10.0633 13.0594 11.2559 12.0466ZM1.12069 6.83527C1.12069 3.68232 3.68552 1.12075 6.8352 1.12075C9.98489 1.12075 12.5497 3.68559 12.5497 6.83527C12.5497 9.98495 9.98489 12.5498 6.8352 12.5498C3.68552 12.5498 1.12069 9.98489 1.12069 6.83527Z" fill="#919498"/>
</svg>
