<svg width="40" height="40" viewBox="0 0 40 40" fill="none" xmlns="http://www.w3.org/2000/svg">
<path d="M31 13.1607C30.1877 13.5181 29.3105 13.778 28.4008 13.8755C29.343 13.3232 30.0578 12.4459 30.3827 11.3737C29.5055 11.8936 28.5307 12.251 27.5235 12.4784C26.7113 11.6012 25.5416 11.0488 24.242 11.0488C21.7402 11.0488 19.7258 13.0632 19.7258 15.565C19.7258 15.9224 19.7583 16.2473 19.8558 16.6047C16.1194 16.4097 12.7729 14.6228 10.5635 11.8936C10.1737 12.5759 9.94623 13.3232 9.94623 14.1679C9.94623 15.7274 10.7585 17.1245 11.9606 17.9368C11.2134 17.9043 10.5311 17.7094 9.91374 17.3845C9.91374 17.4169 9.91374 17.4169 9.91374 17.4494C9.91374 19.6263 11.4733 21.4458 13.5202 21.8681C13.1303 21.9656 12.7404 22.0306 12.318 22.0306C12.0256 22.0306 11.7332 21.9981 11.4733 21.9656C12.0581 23.7526 13.7151 25.0522 15.697 25.0847C14.1375 26.2868 12.2206 27.0016 10.1087 27.0016C9.75129 27.0016 9.39389 26.9691 9.0365 26.9366C11.0184 28.2038 13.3902 28.951 15.957 28.951C24.242 28.951 28.7907 22.0631 28.7907 16.1173C28.7907 15.9224 28.7907 15.7274 28.7907 15.5325C29.6354 14.8827 30.3827 14.0704 31 13.1607Z" fill="white"/>
</svg>
