<svg width="85" height="62" fill="none" xmlns="http://www.w3.org/2000/svg"><path clip-rule="evenodd" d="M70.086 8.94c-.37 0-.74.159-1.003.423a1.475 1.475 0 00-.423 1.056c0 .422.159.792.423 1.056s.633.422 1.003.422c.37 0 .74-.158 1.003-.422.264-.264.422-.634.422-1.056 0-.422-.158-.792-.422-1.056-.211-.264-.58-.422-1.003-.422zm7.709 13.411l.739 3.432 2.323-3.01-1.162 3.697 3.063-1.056L80.118 28l2.64 1.32-3.063.475 1.162 3.115-2.323-1.848-.74 3.802-.739-3.432-2.323 3.01 1.162-3.697-3.063 1.056 2.64-2.587-2.64-1.32 3.063-.475-1.162-3.115 2.323 1.848.74-3.802zm2.48-12.881c1.109-.106 2.27-.159 3.274-.106h.21l.053.211a6.81 6.81 0 01-.263 4.33c-.528 1.32-1.479 2.534-2.904 3.59-.898.634-2.06 1.056-3.327 1.425-.686.212-1.425.476-2.217.793-.845.37-1.743.844-2.587 1.372-.845.528-1.637 1.109-2.376 1.637-4.488 3.326-5.597 7.656-6.547 11.299-.845 3.432-1.584 6.283-4.7 7.339-.475 2.06-.686 4.382-.686 6.705 0 2.957.264 5.808.634 7.973v.053c0 .158.105.264.211.475.422.528 1.003 1.32.317 3.485l-.211.633-1.32-2.217c-.053.21-.053.37-.106.58 0 .37 0 .792.158 1.11l.264.686-.633-.264c-.792-.37-1.162-1.373-1.426-2.27-.053.158-.053.316-.105.422-.053.475-.053.897.053 1.214l.21.634-.58-.264a1.852 1.852 0 01-1.003-.898c-.106-.211-.211-.475-.211-.74-.159.212-.317.476-.476.74-.158.264-.316.58-.475.792l-.105.106h-.159c-4.646-.317-5.385-6.283-5.966-11.3l-.159-1.425c-.21-1.795-.58-3.168-1.003-4.118-.37-.792-.792-1.214-1.214-1.162-1.426.106-2.429.845-2.957 2.535-.58 1.742-.633 4.54-.105 8.606 1.056.686 1.742 1.69 2.112 2.745.422 1.215.37 2.587 0 3.855l-.053.21-.95.106-.106-.105c-.159-.159-.264-.423-.475-.74-.37-.686-.95-1.689-1.795-2.27.052.212.105.423.158.687.053.475.053.95.053 1.372-.053.476-.159.845-.37 1.004a.403.403 0 01-.264.105l-.211.053-.211-.528c-.37-.845-.74-1.742-1.426-2.27-.158.686-.053 1.425.106 2.059l.105.528-4.33-.053h-.052c-4.277-1.584-4.065-8.342-3.907-12.672.053-1.372.106-2.534-.053-3.115-.053-.158-.053-.264-.053-.264h-.105c-.37-.053-.898-.105-1.426-.105-1.214.052-2.692.37-3.96 1.372-1.267 1.004-2.323 2.693-2.745 5.439-.159.95-.211 2.059-.211 3.273.158.317.528.634 1.003.95 1.32.95 3.062 2.27 2.429 5.492l-.053.316-.317-.052c-.686-.159-1.003-.74-1.32-1.373-.211-.423-.422-.792-.74-1.003v.475c.054.475.212 1.109.37 1.373l.37.686-.686-.211c-.528-.159-.845-.898-1.11-1.584-.21-.528-.422-1.003-.686-1.162l.106.528c.106.476.264 1.056.422 1.531l.159.37.211.528-.528-.106c-.58-.105-.95-.844-1.32-1.53-.317-.634-.686-1.268-1.056-1.32-.053.052.106.21.159.475 0 .158.052.316.052.475.106.686.211 1.372-.21 1.478-1.004.264-3.538.37-6.073.37-2.798 0-5.702-.159-6.758-.37H6.04l-.053-.053a8.069 8.069 0 01-2.428-3.01c-.528-1.108-.845-2.375-1.215-3.8-.792-3.274-.95-7.129-.739-11.247.211-4.065.74-8.342 1.32-12.408.475-3.326 2.06-6.335 3.96-8.817 2.534-3.22 5.755-5.544 8.025-6.441 4.33-1.69 8.818-1.426 14.362-1.11 2.587.16 5.438.318 8.606.318h1.267c2.481 0 4.963.053 7.656-1.11l11.246-6.493c-.37-2.112.158-3.643 1.003-4.488.37-.37.845-.634 1.32-.74.475-.105 1.003-.105 1.478.053 1.162.317 2.27 1.426 2.852 3.327 6.6-.37 7.655 1.214 8.711 2.85.475.74.95 1.48 2.112 2.007 1.109.423 2.904.317 4.752.159z" stroke="#A2624A" stroke-miterlimit="10"/></svg>