<svg width="62" height="62" fill="none" xmlns="http://www.w3.org/2000/svg"><path d="M31.598 28.662c-.216-.053-.433-.106-.65-.106-.163 0-.38 0-.65.106-.217.053-.488.213-.76.427-.541.96-.596 2.612-.596 3.572v.585c-.108.746-.867 1.386-1.571 2.026-.488.426-.976.853-.976.96a45.814 45.814 0 01-.325 3.838c-.271 2.452-.542 4.904-.108 6.983.054 0 .325-.106.758 0 .597.107 1.355.16 1.897.053a.417.417 0 00.271-.106c.163-.053.271-.32.325-.587.055-.32.055-.64-.054-.852-.054-.107-.325-.107-.704-.267-.325-.16-.65-.32-.813-.48-.054-.053-.163-.106-.217-.16-.163-.213-.271-.693-.271-1.12 0-.372.108-.746.325-1.012.271-.32.488-.533.813-.747.325-.213.65-.32 1.084-.373.596 0 1.138.427 1.572.747.433-.32.976-.747 1.572-.747.433 0 .758.16 1.084.373.27.16.487.427.758.693l.055.054c.216.266.325.64.325 1.013 0 .426-.109.853-.271 1.12-.163.212-.596.426-1.03.639-.325.16-.596.16-.65.267-.109.16-.109.533-.055.852.055.267.163.534.271.587.055.053.163.053.271.107.542.106 1.301.053 1.952-.054.433-.053.65 0 .758 0 .38-2.079.109-4.531-.108-6.93a45.815 45.815 0 01-.325-3.838c0-.107-.488-.534-.976-.96-.704-.64-1.409-1.28-1.572-1.973v-.691c0-.96-.054-2.613-.596-3.572-.325-.213-.596-.32-.813-.427zm9.54.64a1.779 1.779 0 00-1.247-.533c-.488 0-.922.213-1.247.533-.325.32-.542.746-.542 1.28 0 .48.217.959.542 1.279.325.32.759.533 1.247.533.487 0 .921-.213 1.246-.533.325-.32.542-.747.542-1.28 0-.48-.217-.96-.542-1.28zm-17.995-.053a1.909 1.909 0 00-1.3-.534c-.488 0-.976.214-1.301.534-.325.32-.542.8-.542 1.28 0 .532.217.959.542 1.279.325.32.813.533 1.3.533.488 0 .976-.214 1.301-.534.325-.32.542-.8.542-1.279 0-.48-.216-.96-.542-1.28zm17.94-22.017c-.38.426-.65.853-.705 1.012 0 .054 4.553 2.133 8.293 3.786 1.138.48 2.222.96 3.143 1.332.488.213.922.373 1.247.48.163-.96.325-3.092.38-4.958.053-1.546 0-2.825-.11-2.879-.324-.213-2.926-.373-5.582-.373-2.547-.053-5.04.054-5.42.267-.162.053-.758.693-1.246 1.333zM21.409 8.244a8.599 8.599 0 00-.705-1.012c-.487-.64-1.084-1.28-1.192-1.333-.38-.213-2.872-.32-5.42-.267-2.656.054-5.311.16-5.582.373-.109.107-.109 1.387-.109 2.88.054 1.865.217 3.997.38 4.957a14.58 14.58 0 001.246-.48c.867-.373 2.006-.8 3.144-1.332 3.685-1.653 8.238-3.679 8.238-3.786zm37.397 33.213c.27-.054.542-.054.759-.054h.054c.325 0 .65.267.65.64v15.46a.6.6 0 01-.162.426L58.1 60.382c-.108.16-.27.213-.487.213l-10.027.267h-.163c-.758-.16-.758-.8-.813-1.387 0-.213.055-.373.055-.373-.055-.053-.542.48-.976.907-.488.48-.921.906-1.41.8a.584.584 0 01-.433-.427s-.38-1.173-.163-2.24c0-.106.055-.213.109-.32-.217.16-.434.32-.65.587-.38.373-.705.907-.922 1.386-.325.533-.596 1.013-.975 1.173-.055 0-.109.053-.163.053-.488.107-.813-.106-.976-.746-.216-1.013-.162-1.92.163-2.665-.434.373-.813.8-1.192 1.172-.976 1.12-1.843 2.133-3.523 1.813a.69.69 0 01-.542-.533c-.054-.213-.054-.48-.054-.746-.217-5.332 4.281-9.596 9.647-12.635 5.149-3.092 11.219-4.851 14.2-5.224zm-56.583-.054c.216 0 .487.054.758.054 2.981.373 8.997 2.132 14.255 5.117 5.365 3.04 9.864 7.304 9.647 12.635 0 .266-.054.48-.054.746-.054.267-.271.533-.542.533-1.68.32-2.547-.693-3.523-1.812-.38-.427-.705-.853-1.192-1.173.325.746.379 1.6.162 2.666-.163.64-.488.852-.975.746-.434-.107-.76-.587-1.139-1.226-.27-.427-.596-.96-.921-1.386a6.49 6.49 0 00-.65-.587c.054.107.054.213.108.32.217 1.066-.163 2.24-.163 2.24a.584.584 0 01-.433.426c-.488.106-.921-.267-1.41-.8-.379-.427-.92-.906-.975-.906-.054.053.054.213.054.373-.054.64-.108 1.226-.813 1.386h-.162l-10.027-.267a.692.692 0 01-.488-.213l-2.005-2.452a.6.6 0 01-.163-.427v-15.46c0-.266.271-.533.65-.533zM36.53 5.153c.38-.214.867-.694 1.355-1.28.922-.96 2.006-2.132 3.415-2.559.054 0 .108 0 .162-.053a48.308 48.308 0 016.775-.16c2.222.053 4.499.32 6.938.64.108 0 .216.053.325.16 1.355.96 1.951 4.584 2.168 9.169.27 6.557-.217 15.193-.705 20.844v.053c-.162 1.493-.596 3.199-1.355 4.692-.704 1.386-1.626 2.665-2.818 3.572-2.493 1.919-5.42 3.145-8.13 4.264-3.198 1.333-6.07 2.506-7.533 4.585-.109.16-.272.32-.488.48-1.03.693-3.415 1.066-5.8 1.066-2.33 0-4.715-.373-5.799-1.066h-.054c-.217-.107-.325-.267-.434-.427-1.409-2.079-4.335-3.252-7.533-4.584-2.71-1.12-5.637-2.346-8.13-4.265a9.679 9.679 0 01-2.764-3.572c-.759-1.493-1.247-3.199-1.355-4.745-.488-5.65-.976-14.287-.705-20.844.217-4.638.813-8.316 2.223-9.222a.418.418 0 01.27-.107c2.44-.373 4.716-.586 6.938-.64a72.71 72.71 0 016.775.16c.054 0 .108 0 .217.053 1.355.48 2.439 1.6 3.36 2.56.542.532.975 1.066 1.355 1.279H36.53v-.054z" stroke="#A2624A" stroke-miterlimit="10"/></svg>