<svg width="129" height="31" fill="none" xmlns="http://www.w3.org/2000/svg"><g clip-path="url(#clip0)"><path fill="#A2624A" d="M1 4.654h45v22H1zm87.5-2.5v2.5H83v22h5.5v3h11v-3H127v-22H99.5v-2.5h-11z"/><path d="M83 2.154H46v27h37v-12H71l-1.5-1.5 1.5-1.5h12v-12z" fill="url(#paint0_linear)"/><path d="M78 8.154H51v15h27v-6h-7l-1.5-1.5 1.5-1.5h7v-6z" fill="#A2624A"/><path d="M38.93 17.063a1.42 1.42 0 01-.998-.411 1.425 1.425 0 01-.411-.998c0-.37.15-.733.411-.998a1.416 1.416 0 011.993 0c.262.263.414.626.414.998s-.152.735-.414.998a1.417 1.417 0 01-.995.411zm-11.341 0a1.42 1.42 0 01-.998-.411 1.42 1.42 0 010-1.996 1.415 1.415 0 011.993 0c.262.263.414.626.414.998s-.152.735-.415.998a1.417 1.417 0 01-.994.411zm-11.341.001a1.42 1.42 0 01-.998-.412 1.42 1.42 0 010-1.996 1.416 1.416 0 011.992 0c.263.263.415.626.415.998s-.152.736-.415.998a1.417 1.417 0 01-.994.412zm90.556-.001c-.372 0-.735-.15-.998-.411a1.423 1.423 0 01-.414-.998c0-.37.152-.733.414-.998a1.42 1.42 0 01.998-.411c.369 0 .733.149.995.411.262.265.414.629.414.998 0 .372-.152.735-.414.998a1.418 1.418 0 01-.995.411zm-51.357-.595a1.42 1.42 0 01-.998-.412 1.426 1.426 0 01-.412-.999c0-.37.15-.733.412-.998a1.417 1.417 0 011.994 0c.262.262.414.626.414.998s-.152.736-.414.999a1.419 1.419 0 01-.996.412z" stroke="#B2A194" stroke-width="2"/><path d="M83.023 4.265V3.001a1.41 1.41 0 00-1.41-1.41H47.226a1.41 1.41 0 00-1.409 1.41v1.264m37.206 0h5.46m-5.46 0v9.983m0 12.795v1.265a1.41 1.41 0 01-1.41 1.409H47.226a1.41 1.41 0 01-1.409-1.41v-1.264m37.206 0v-10.45m0 10.45h5.46m24.612 0c1.8-2.088 5.643-7.973 5.643-11.388s-3.843-9.3-5.643-11.39M83.023 16.592v-2.344m0 2.344h-4.997M45.817 4.265H2.591a1.41 1.41 0 00-1.41 1.41v19.959c0 .779.632 1.41 1.41 1.41h43.226m0-22.779v22.778M99.941 4.265V3.001a1.41 1.41 0 00-1.409-1.41h-8.639a1.41 1.41 0 00-1.41 1.41v1.264m11.458 0h26.308c.779 0 1.409.631 1.409 1.41v19.959c0 .779-.63 1.41-1.409 1.41H99.941m0-22.779v22.778m0 0v1.265a1.41 1.41 0 01-1.409 1.409h-8.639a1.41 1.41 0 01-1.41-1.41v-1.264m0-22.778v22.778m-5.46-12.795h-4.997m0 2.344h-7.06l-1.172-1.172 1.172-1.172h7.06m0 2.344v5.425c0 .778-.63 1.41-1.41 1.41H52.225a1.41 1.41 0 01-1.41-1.41V9.292c0-.779.632-1.41 1.41-1.41h24.393a1.41 1.41 0 011.409 1.41v4.956" stroke="#B2A194" stroke-width="2" stroke-linecap="round" stroke-linejoin="round"/></g><defs><linearGradient id="paint0_linear" x1="49.387" y1="26.683" x2="70.392" y2="-2.103" gradientUnits="userSpaceOnUse"><stop stop-color="#A1A1A1"/><stop offset=".507" stop-color="#fff"/><stop offset=".99" stop-color="#DFDFDF"/></linearGradient><clipPath id="clip0"><path fill="#fff" transform="translate(0 .827)" d="M0 0h129v30H0z"/></clipPath></defs></svg>