<svg width="129" height="30" fill="none" xmlns="http://www.w3.org/2000/svg"><g clip-path="url(#clip0)" stroke="#fff" stroke-width="2"><path d="M38.93 16.236a1.42 1.42 0 01-.998-.411 1.425 1.425 0 01-.411-.998c0-.37.15-.733.411-.998a1.416 1.416 0 011.993 0c.262.262.414.626.414.998s-.152.735-.414.998a1.417 1.417 0 01-.995.411zm-11.341 0a1.42 1.42 0 01-.998-.411 1.42 1.42 0 010-1.996 1.415 1.415 0 011.993 0c.262.262.414.626.414.998s-.152.735-.415.998a1.416 1.416 0 01-.994.411zm-11.341 0a1.42 1.42 0 01-.998-.411 1.419 1.419 0 010-1.996 1.416 1.416 0 011.992 0c.263.263.415.626.415.998s-.152.735-.415.998a1.416 1.416 0 01-.994.411zm90.556 0c-.372 0-.735-.15-.998-.411a1.423 1.423 0 01-.414-.998c0-.37.152-.733.414-.998a1.42 1.42 0 01.998-.411c.369 0 .733.149.995.411.262.265.414.628.414.998 0 .372-.152.735-.414.998a1.418 1.418 0 01-.995.411zm-51.357-.596a1.42 1.42 0 01-.998-.411 1.426 1.426 0 01-.412-.999c0-.37.15-.733.412-.998a1.42 1.42 0 01.998-.412c.37 0 .734.15.996.412s.414.626.414.998-.152.736-.414.999a1.419 1.419 0 01-.996.411z"/><path d="M83.023 3.438V2.174a1.41 1.41 0 00-1.41-1.41H47.226a1.41 1.41 0 00-1.409 1.41v1.264m37.206 0h5.46m-5.46 0v9.983m0 12.795v1.264a1.41 1.41 0 01-1.41 1.41H47.226a1.41 1.41 0 01-1.409-1.41v-1.264m37.206 0V15.765m0 10.451h5.46m24.612 0c1.8-2.088 5.643-7.973 5.643-11.389 0-3.414-3.843-9.3-5.643-11.389M83.023 15.765V13.42m0 2.344h-4.997M45.817 3.438H2.591a1.41 1.41 0 00-1.41 1.41v19.959c0 .778.632 1.41 1.41 1.41h43.226m0-22.779v22.778M99.941 3.438V2.174a1.41 1.41 0 00-1.409-1.41h-8.639a1.41 1.41 0 00-1.41 1.41v1.264m11.458 0h26.308c.779 0 1.409.631 1.409 1.41v19.959c0 .778-.63 1.41-1.409 1.41H99.941m0-22.779v22.778m0 0v1.264a1.41 1.41 0 01-1.409 1.41h-8.639a1.41 1.41 0 01-1.41-1.41v-1.264m0-22.778v22.778m-5.46-12.795h-4.997m0 2.344h-7.06l-1.172-1.172 1.172-1.172h7.06m0 2.344v5.425c0 .778-.63 1.409-1.41 1.409H52.225a1.41 1.41 0 01-1.41-1.41V8.466c0-.779.632-1.41 1.41-1.41h24.393a1.41 1.41 0 011.409 1.41v4.956" stroke-linecap="round" stroke-linejoin="round"/></g><defs><clipPath id="clip0"><path fill="#fff" d="M0 0h129v30H0z"/></clipPath></defs></svg>