<svg width="64" height="64" fill="none" xmlns="http://www.w3.org/2000/svg"><g clip-path="url(#clip0)" stroke="#A2624A" stroke-width="2"><path d="M22.455 1.936a2 2 0 012.339-.627l5.379 2.201a4 4 0 003.03 0l5.38-2.201a2 2 0 012.338.627l3.558 4.596a4 4 0 002.624 1.515l5.76.783a2 2 0 011.712 1.712l.783 5.76a4 4 0 001.515 2.624l4.596 3.557a2 2 0 01.627 2.34l-2.202 5.379a4 4 0 000 3.03l2.202 5.379a2 2 0 01-.627 2.339l-4.596 3.558a4 4 0 00-1.515 2.624l-.783 5.76a2 2 0 01-1.713 1.711l-5.759.783a4 4 0 00-2.624 1.516l-3.558 4.596a2 2 0 01-2.339.626l-5.379-2.201a4 4 0 00-3.03 0l-5.38 2.201a2 2 0 01-2.338-.626l-3.558-4.596a4 4 0 00-2.624-1.516l-5.76-.783a2 2 0 01-1.712-1.712l-.783-5.76a4 4 0 00-1.515-2.623L1.907 40.95a2 2 0 01-.627-2.34l2.202-5.378-.926-.379.926.379a4 4 0 000-3.03l-2.202-5.38a2 2 0 01.627-2.339l4.596-3.557a4 4 0 001.515-2.624l.783-5.76a2 2 0 011.713-1.712l5.759-.783a4 4 0 002.624-1.515l3.558-4.596z"/><path d="M41.522 17.974L21.789 45.441" stroke-linecap="round"/><circle cx="25.788" cy="21.707" r="4.333"/><circle cx="37.522" cy="41.974" r="4.333"/></g><defs><clipPath id="clip0"><path fill="#fff" d="M0 0h64v64H0z"/></clipPath></defs></svg>