<svg width="160" height="166" fill="none" xmlns="http://www.w3.org/2000/svg"><g clip-path="url(#clip0)"><mask id="a" fill="#fff"><path d="M81.733 76.615c-.582-.146-1.165-.292-1.747-.292-.437 0-1.02 0-1.747.292-.583.145-1.31.583-2.039 1.166-1.456 2.623-1.601 7.141-1.601 9.764v1.605c-.291 2.04-2.33 3.79-4.223 5.538-1.31 1.166-2.62 2.332-2.62 2.624a127.43 127.43 0 01-.874 10.493c-.728 6.705-1.456 13.409-.291 19.093.145 0 .873-.291 2.038 0 1.602.292 3.64.437 5.096.146.291 0 .583-.146.728-.292.437-.145.728-.874.874-1.603.145-.874.145-1.749-.146-2.332-.145-.291-.873-.291-1.893-.729-.873-.437-1.747-.874-2.184-1.311-.145-.146-.436-.292-.582-.438-.437-.582-.728-1.894-.728-3.06 0-1.02.291-2.041.874-2.769.728-.875 1.31-1.458 2.184-2.041.873-.583 1.747-.874 2.912-1.02 1.601 0 3.057 1.166 4.222 2.04 1.165-.874 2.62-2.04 4.222-2.04 1.165 0 2.039.437 2.913 1.02.728.437 1.31 1.166 2.038 1.895l.145.146c.583.728.874 1.749.874 2.769 0 1.166-.291 2.332-.728 3.06-.437.583-1.602 1.166-2.766 1.749-.874.438-1.602.438-1.748.729-.29.437-.29 1.458-.145 2.332.145.729.437 1.458.728 1.603.145.146.437.146.728.292 1.456.291 3.494.146 5.242-.146 1.164-.146 1.747 0 2.038 0 1.02-5.684.291-12.388-.291-18.947a127.428 127.428 0 01-.874-10.494c0-.291-1.31-1.457-2.62-2.623-1.894-1.75-3.786-3.498-4.223-5.393v-1.895c0-2.624-.146-7.142-1.602-9.766-.873-.582-1.601-.874-2.184-1.165zm25.626 1.749c-.874-.875-2.038-1.458-3.349-1.458-1.31 0-2.475.583-3.349 1.457-.873.875-1.456 2.04-1.456 3.498 0 1.312.583 2.624 1.456 3.498.874.875 2.039 1.458 3.349 1.458 1.311 0 2.475-.583 3.349-1.458.874-.874 1.456-2.04 1.456-3.498 0-1.311-.582-2.623-1.456-3.498zm-48.34-.146c-.873-.875-2.183-1.458-3.494-1.458-1.31 0-2.62.583-3.494 1.458-.874.874-1.456 2.186-1.456 3.498 0 1.457.582 2.623 1.456 3.498.873.874 2.184 1.457 3.494 1.457s2.62-.583 3.495-1.457c.873-.875 1.455-2.187 1.455-3.498 0-1.312-.582-2.624-1.456-3.498zm48.194-60.194c-1.019 1.166-1.747 2.332-1.892 2.77 0 .145 12.23 5.83 22.277 10.348 3.057 1.311 5.969 2.623 8.444 3.643a38.218 38.218 0 003.349 1.312c.437-2.623.874-8.453 1.019-13.555.146-4.226 0-7.724-.291-7.87-.873-.583-7.862-1.02-14.997-1.02-6.843-.146-13.541.146-14.56.729-.437.146-2.038 1.894-3.349 3.643zm-52.853 2.77c-.145-.292-.873-1.458-1.892-2.77-1.31-1.749-2.913-3.498-3.204-3.643-1.019-.583-7.717-.875-14.56-.729-7.134.146-14.269.437-14.997 1.02-.291.292-.291 3.79-.291 7.87.146 5.102.582 10.931 1.02 13.555a38.07 38.07 0 003.348-1.312c2.33-1.02 5.387-2.186 8.445-3.643 9.9-4.518 22.131-10.057 22.131-10.348zm100.465 90.8c.728-.146 1.456-.146 2.038-.146h.146c.874 0 1.747.729 1.747 1.749v42.266c0 .438-.145.875-.437 1.166l-5.387 6.705c-.291.437-.728.583-1.31.583l-26.936.728h-.437c-2.039-.437-2.039-2.186-2.184-3.789 0-.583.145-1.02.145-1.02-.145-.146-1.456 1.312-2.62 2.478-1.311 1.311-2.476 2.477-3.786 2.186a1.583 1.583 0 01-1.165-1.166s-1.019-3.207-.437-6.122c0-.291.146-.583.292-.874-.583.437-1.165.874-1.748 1.603-1.019 1.02-1.893 2.478-2.475 3.79-.874 1.457-1.602 2.769-2.621 3.206-.145 0-.291.146-.437.146-1.31.291-2.184-.292-2.62-2.041-.583-2.769-.437-5.247.436-7.287-1.164 1.02-2.184 2.186-3.203 3.206-2.62 3.061-4.95 5.83-9.464 4.956a1.872 1.872 0 01-1.456-1.458c-.146-.583-.146-1.311-.146-2.04-.582-14.575 11.503-26.235 25.918-34.542 13.832-8.453 30.139-13.263 38.147-14.283zm-152.007-.146c.582 0 1.31.146 2.038.146 8.008 1.02 24.17 5.83 38.293 13.991 14.414 8.308 26.5 19.968 25.917 34.542 0 .729-.146 1.312-.146 2.041-.145.728-.728 1.457-1.456 1.457-4.513.875-6.843-1.894-9.464-4.955-1.019-1.166-1.892-2.332-3.203-3.207.874 2.041 1.02 4.373.437 7.288-.437 1.749-1.31 2.332-2.62 2.04-1.166-.291-2.04-1.603-3.058-3.352-.728-1.166-1.602-2.623-2.476-3.789-.582-.583-1.165-1.166-1.747-1.604.146.292.146.583.291.875.583 2.915-.437 6.121-.437 6.121a1.581 1.581 0 01-1.164 1.166c-1.31.292-2.476-.729-3.786-2.186-1.02-1.166-2.475-2.478-2.62-2.478-.146.146.145.583.145 1.021-.146 1.749-.291 3.352-2.184 3.789h-.437l-26.936-.729c-.583 0-1.02-.291-1.31-.583l-5.388-6.704c-.291-.292-.437-.729-.437-1.166v-42.267c0-.728.728-1.457 1.748-1.457zM94.983 12.34c1.02-.583 2.33-1.894 3.64-3.498 2.475-2.623 5.387-5.83 9.173-6.995.145 0 .291 0 .437-.146 6.261-.583 12.23-.729 18.2-.437 5.969.145 12.085.874 18.637 1.749.291 0 .582.145.873.437 3.64 2.623 5.242 12.534 5.824 25.068.728 17.927-.582 41.538-1.892 56.987v.146c-.437 4.08-1.602 8.745-3.64 12.826-1.893 3.789-4.369 7.287-7.572 9.765-6.697 5.246-14.56 8.599-21.84 11.659-8.59 3.644-16.307 6.85-20.238 12.534-.292.438-.728.875-1.31 1.312-2.767 1.895-9.174 2.915-15.58 2.915-6.261 0-12.667-1.02-15.58-2.915h-.145c-.582-.291-.874-.729-1.165-1.166-3.785-5.684-11.648-8.89-20.238-12.534-7.28-3.061-15.143-6.413-21.84-11.66-3.058-2.477-5.679-5.83-7.426-9.765-2.039-4.08-3.349-8.745-3.64-12.971C8.35 70.2 7.04 46.59 7.768 28.664c.582-12.68 2.184-22.737 5.97-25.214.145-.146.436-.292.728-.292 6.552-1.02 12.667-1.603 18.636-1.749 5.97-.145 11.94 0 18.2.438.146 0 .292 0 .583.145 3.64 1.312 6.552 4.373 9.027 6.996 1.456 1.458 2.621 2.915 3.64 3.498h30.431v-.146z"/></mask><path d="M81.733 76.615c-.582-.146-1.165-.292-1.747-.292-.437 0-1.02 0-1.747.292-.583.145-1.31.583-2.039 1.166-1.456 2.623-1.601 7.141-1.601 9.764v1.605c-.291 2.04-2.33 3.79-4.223 5.538-1.31 1.166-2.62 2.332-2.62 2.624a127.43 127.43 0 01-.874 10.493c-.728 6.705-1.456 13.409-.291 19.093.145 0 .873-.291 2.038 0 1.602.292 3.64.437 5.096.146.291 0 .583-.146.728-.292.437-.145.728-.874.874-1.603.145-.874.145-1.749-.146-2.332-.145-.291-.873-.291-1.893-.729-.873-.437-1.747-.874-2.184-1.311-.145-.146-.436-.292-.582-.438-.437-.582-.728-1.894-.728-3.06 0-1.02.291-2.041.874-2.769.728-.875 1.31-1.458 2.184-2.041.873-.583 1.747-.874 2.912-1.02 1.601 0 3.057 1.166 4.222 2.04 1.165-.874 2.62-2.04 4.222-2.04 1.165 0 2.039.437 2.913 1.02.728.437 1.31 1.166 2.038 1.895l.145.146c.583.728.874 1.749.874 2.769 0 1.166-.291 2.332-.728 3.06-.437.583-1.602 1.166-2.766 1.749-.874.438-1.602.438-1.748.729-.29.437-.29 1.458-.145 2.332.145.729.437 1.458.728 1.603.145.146.437.146.728.292 1.456.291 3.494.146 5.242-.146 1.164-.146 1.747 0 2.038 0 1.02-5.684.291-12.388-.291-18.947a127.428 127.428 0 01-.874-10.494c0-.291-1.31-1.457-2.62-2.623-1.894-1.75-3.786-3.498-4.223-5.393v-1.895c0-2.624-.146-7.142-1.602-9.766-.873-.582-1.601-.874-2.184-1.165zm25.626 1.749c-.874-.875-2.038-1.458-3.349-1.458-1.31 0-2.475.583-3.349 1.457-.873.875-1.456 2.04-1.456 3.498 0 1.312.583 2.624 1.456 3.498.874.875 2.039 1.458 3.349 1.458 1.311 0 2.475-.583 3.349-1.458.874-.874 1.456-2.04 1.456-3.498 0-1.311-.582-2.623-1.456-3.498zm-48.34-.146c-.873-.875-2.183-1.458-3.494-1.458-1.31 0-2.62.583-3.494 1.458-.874.874-1.456 2.186-1.456 3.498 0 1.457.582 2.623 1.456 3.498.873.874 2.184 1.457 3.494 1.457s2.62-.583 3.495-1.457c.873-.875 1.455-2.187 1.455-3.498 0-1.312-.582-2.624-1.456-3.498zm48.194-60.194c-1.019 1.166-1.747 2.332-1.892 2.77 0 .145 12.23 5.83 22.277 10.348 3.057 1.311 5.969 2.623 8.444 3.643a38.218 38.218 0 003.349 1.312c.437-2.623.874-8.453 1.019-13.555.146-4.226 0-7.724-.291-7.87-.873-.583-7.862-1.02-14.997-1.02-6.843-.146-13.541.146-14.56.729-.437.146-2.038 1.894-3.349 3.643zm-52.853 2.77c-.145-.292-.873-1.458-1.892-2.77-1.31-1.749-2.913-3.498-3.204-3.643-1.019-.583-7.717-.875-14.56-.729-7.134.146-14.269.437-14.997 1.02-.291.292-.291 3.79-.291 7.87.146 5.102.582 10.931 1.02 13.555a38.07 38.07 0 003.348-1.312c2.33-1.02 5.387-2.186 8.445-3.643 9.9-4.518 22.131-10.057 22.131-10.348zm100.465 90.8c.728-.146 1.456-.146 2.038-.146h.146c.874 0 1.747.729 1.747 1.749v42.266c0 .438-.145.875-.437 1.166l-5.387 6.705c-.291.437-.728.583-1.31.583l-26.936.728h-.437c-2.039-.437-2.039-2.186-2.184-3.789 0-.583.145-1.02.145-1.02-.145-.146-1.456 1.312-2.62 2.478-1.311 1.311-2.476 2.477-3.786 2.186a1.583 1.583 0 01-1.165-1.166s-1.019-3.207-.437-6.122c0-.291.146-.583.292-.874-.583.437-1.165.874-1.748 1.603-1.019 1.02-1.893 2.478-2.475 3.79-.874 1.457-1.602 2.769-2.621 3.206-.145 0-.291.146-.437.146-1.31.291-2.184-.292-2.62-2.041-.583-2.769-.437-5.247.436-7.287-1.164 1.02-2.184 2.186-3.203 3.206-2.62 3.061-4.95 5.83-9.464 4.956a1.872 1.872 0 01-1.456-1.458c-.146-.583-.146-1.311-.146-2.04-.582-14.575 11.503-26.235 25.918-34.542 13.832-8.453 30.139-13.263 38.147-14.283zm-152.007-.146c.582 0 1.31.146 2.038.146 8.008 1.02 24.17 5.83 38.293 13.991 14.414 8.308 26.5 19.968 25.917 34.542 0 .729-.146 1.312-.146 2.041-.145.728-.728 1.457-1.456 1.457-4.513.875-6.843-1.894-9.464-4.955-1.019-1.166-1.892-2.332-3.203-3.207.874 2.041 1.02 4.373.437 7.288-.437 1.749-1.31 2.332-2.62 2.04-1.166-.291-2.04-1.603-3.058-3.352-.728-1.166-1.602-2.623-2.476-3.789-.582-.583-1.165-1.166-1.747-1.604.146.292.146.583.291.875.583 2.915-.437 6.121-.437 6.121a1.581 1.581 0 01-1.164 1.166c-1.31.292-2.476-.729-3.786-2.186-1.02-1.166-2.475-2.478-2.62-2.478-.146.146.145.583.145 1.021-.146 1.749-.291 3.352-2.184 3.789h-.437l-26.936-.729c-.583 0-1.02-.291-1.31-.583l-5.388-6.704c-.291-.292-.437-.729-.437-1.166v-42.267c0-.728.728-1.457 1.748-1.457zM94.983 12.34c1.02-.583 2.33-1.894 3.64-3.498 2.475-2.623 5.387-5.83 9.173-6.995.145 0 .291 0 .437-.146 6.261-.583 12.23-.729 18.2-.437 5.969.145 12.085.874 18.637 1.749.291 0 .582.145.873.437 3.64 2.623 5.242 12.534 5.824 25.068.728 17.927-.582 41.538-1.892 56.987v.146c-.437 4.08-1.602 8.745-3.64 12.826-1.893 3.789-4.369 7.287-7.572 9.765-6.697 5.246-14.56 8.599-21.84 11.659-8.59 3.644-16.307 6.85-20.238 12.534-.292.438-.728.875-1.31 1.312-2.767 1.895-9.174 2.915-15.58 2.915-6.261 0-12.667-1.02-15.58-2.915h-.145c-.582-.291-.874-.729-1.165-1.166-3.785-5.684-11.648-8.89-20.238-12.534-7.28-3.061-15.143-6.413-21.84-11.66-3.058-2.477-5.679-5.83-7.426-9.765-2.039-4.08-3.349-8.745-3.64-12.971C8.35 70.2 7.04 46.59 7.768 28.664c.582-12.68 2.184-22.737 5.97-25.214.145-.146.436-.292.728-.292 6.552-1.02 12.667-1.603 18.636-1.749 5.97-.145 11.94 0 18.2.438.146 0 .292 0 .583.145 3.64 1.312 6.552 4.373 9.027 6.996 1.456 1.458 2.621 2.915 3.64 3.498h30.431v-.146z" fill="#A2624A" stroke="#A2624A" stroke-width="3" mask="url(#a)"/></g><defs><clipPath id="clip0"><path fill="#fff" transform="translate(.5)" d="M0 0h159v165.57H0z"/></clipPath></defs></svg>