<svg width="65" height="65" fill="none" xmlns="http://www.w3.org/2000/svg"><path d="M1.87 14.55h23.713v11.697c0 1.503 1.597 2.47 2.929 1.771l3.683-1.93a2 2 0 011.89.017l3.395 1.86c1.333.731 2.96-.233 2.96-1.753V14.55h23.43v47.372a2 2 0 01-2 2h-58a2 2 0 01-2-2V14.55zm25.713 11.697V14.55h10.858v11.662l-3.396-1.86a4 4 0 00-3.778-.035l-3.683 1.93zm35.4-13.697H40.276L38.352 1.922h16.356a2 2 0 011.655.877l6.619 9.751zm-37.215 0H2.757L9.375 2.8l-.827-.562.827.561a2 2 0 011.655-.877h16.9L25.768 12.55zm4.205-10.628h6.348l1.923 10.628H27.808l2.164-10.628z" stroke="#A2624A" stroke-width="2"/><path d="M16.35 54.256H9.99c-.619 0-1.12.448-1.12 1s.501 1 1.12 1h6.36c.617 0 1.12-.448 1.12-1s-.502-1-1.12-1zm3.52-8h-10a1 1 0 000 2h10a1 1 0 000-2z" fill="#A2624A"/></svg>