<svg width="24" height="24" fill="none" xmlns="http://www.w3.org/2000/svg"><path d="M23.89 1.919a.36.36 0 00-.054-.128C22.603-.078 19.511.023 17.588 0c-.194-.002-.288.204-.246.362a1.496 1.496 0 00-.473.213C14.892 1.99 13.95 4.96 13.017 7.127c-.894 2.074-1.905 4.085-2.774 6.171-.37.886-1.357 2.676-1.513 4.037-1.72-3.248-3.316-6.55-4.853-9.898-.081-.176-.266-.198-.412-.13-.382-.23-.875-.05-1.28.054-.55.144-1.125.312-1.64.565a.335.335 0 00-.16.163c-.186-.082-.44.082-.375.327 1.385 5.25 5.223 9.672 7.195 14.718a.45.45 0 00.374.29c.036.078.1.14.196.163a15.16 15.16 0 002.193.318c.648.053 1.404.189 2.032-.01.217-.068.304-.277.272-.466a.293.293 0 00.161-.105c.065-.073 0-.168-.087-.155.517-.077.99-2.428 1.136-2.837a117.59 117.59 0 011.483-3.884 32.21 32.21 0 01.98-2.212c.139-.255.267-.518.392-.784 2.023-3.918 4.796-7.594 7.534-10.86a.535.535 0 00.018-.673zM3.071 8.29c-.03-.057-.057-.115-.086-.172.138-.034.273-.076.392-.142l.072.195a.47.47 0 00-.378.119zm2.109 4.37c-.026-.037-.049-.076-.075-.113-.004-.006-.01-.008-.015-.014a15.684 15.684 0 00-.214-.81l.004-.006c.13.287.26.574.394.86a.53.53 0 00-.094.083zm5.613 10.365a.449.449 0 00.057-.347c.083-.061.161-.128.238-.198-.014.061-.032.12-.046.182a.392.392 0 00.075.351c-.108.002-.216.007-.324.012zm2.701-5.484c-.09.235-.192.482-.301.738l.018-.164c.133-.363.277-.723.42-1.083.03-.023.063-.044.093-.067-.077.192-.156.383-.23.576zm2.521-5.409a46.72 46.72 0 00-1.27 2.484 8.299 8.299 0 01-.391.534c.543-1.077 1.138-2.127 1.726-3.179l-.065.161zm3.092-9.667c.032-.056.063-.112.097-.167.14-.18.276-.37.407-.576l.043-.002c.085.024.17.048.255.076a.392.392 0 00-.251.12c-.185.189-.367.37-.55.55z" fill="#54B55F"/></svg>