<svg width="44" height="44" fill="none" xmlns="http://www.w3.org/2000/svg"><path clip-rule="evenodd" d="M38.075 3.212c.524 0 .89.42.89.943 0 .524-.418.943-.89.943-.471 0-.89-.42-.89-.943 0-.524.419-.943.89-.943zm4.19 1.781C39.072.855 36.662 1.536 35.09 3.527c-.996 1.257-1.467 3.09-2.148 4.4-.262.47-.524.576-1.152.366-1.99-.68-1.414-3.195-5.762-3.405H6.962c-.89.629 2.357 3.981 3.614 5.605.576.68 9.428-.314 11.105.21.419.104.314.838 0 1.257-.367.471-9.167-.158-9.272.104-.209.315 1.834 1.99 2.672 2.777.733.68 6.757-.315 7.857.157.524.052.419 1.152-.105 1.257-1.257.314-2.88-.21-3.98.262-.577.262 2.147 2.357 2.723 2.304l6.652.105c-.786.838-2.357 1.676-3.824 1.676-6.233.157-17.023-6.547-21.266-8.747-6.18 11.628 1.362 15.556 8.329 15.923C5.81 29.56 2.772 45.64 19.952 42.444c.995-11.366.262-18.49 14.09-16.813.681.104 1.833 0 2.567-.315 4.766-2.147 2.304-12.728 3.457-19.118.21-1.048 1.204-1.152 2.2-1.205z" stroke="#A2624A" stroke-miterlimit="10"/></svg>