<svg width="29" height="21" fill="none" xmlns="http://www.w3.org/2000/svg"><g clip-path="url(#clip0)"><path d="M28 1.827H1v18h27v-18z" fill="#F0F0F0"/><path d="M16.188 1.827h-3.375V9.14H1v3.375h11.813v7.312h3.374v-7.312H28V9.14H16.187V1.827z" fill="#D80027"/><path d="M21.765 13.957L28 17.421v-3.463h-6.234zm-4.331 0l10.565 5.87v-1.66l-7.578-4.21h-2.987zm7.751 5.87l-7.751-4.307v4.307h7.75z" fill="#0052B4"/><path d="M17.434 13.957l10.565 5.87v-1.66l-7.578-4.21h-2.987z" fill="#F0F0F0"/><path d="M17.434 13.957l10.565 5.87v-1.66l-7.578-4.21h-2.987z" fill="#D80027"/><path d="M5.764 13.957L1 16.604v-2.646h4.764zm5.8.747v5.123h-9.22l9.22-5.123z" fill="#0052B4"/><path d="M8.578 13.957L1 18.168v1.66l10.565-5.87H8.578z" fill="#D80027"/><path d="M7.234 7.697L1 4.233v3.464h6.234zm4.331 0L1 1.827v1.66l7.578 4.21h2.987zm-7.752-5.87l7.751 4.307V1.827H3.813z" fill="#0052B4"/><path d="M11.565 7.697L1 1.827v1.66l7.578 4.21h2.987z" fill="#F0F0F0"/><path d="M11.565 7.697L1 1.827v1.66l7.578 4.21h2.987z" fill="#D80027"/><path d="M23.234 7.697l4.764-2.647v2.647h-4.764zm-5.8-.747V1.827h9.22l-9.22 5.123z" fill="#0052B4"/><path d="M20.421 7.697L28 3.487v-1.66l-10.565 5.87h2.987z" fill="#D80027"/></g><path d="M1 1.827v-1H0v1h1zm27 0h1v-1h-1v1zm0 18v1h1v-1h-1zm-27 0H0v1h1v-1zm0-17h27v-2H1v2zm26-1v18h2v-18h-2zm1 17H1v2h27v-2zm-26 1v-18H0v18h2z" fill="#F6F6F6"/><defs><clipPath id="clip0"><path d="M1 1.827h27v18H1v-18z" fill="#fff"/></clipPath></defs></svg>