<svg width="37" height="33" fill="none" xmlns="http://www.w3.org/2000/svg"><path clip-rule="evenodd" d="M13.293 15.442c-2.095-.89-5.029 1.152-5.71 1.676.158.472.262.943.367 1.31.472 1.728.733 2.566 3.3 3.666 1.78.733 4.4.053 6.233-.838.576-.314 1.048-.628 1.414-.943.315-.262.524-.523.524-.733 0-.052 0-.105-.052-.157-.576-.576-1.572-1.362-2.776-2.148a16.723 16.723 0 00-3.3-1.833zM10.255 4.757c-1.205-.996-2.881.262-3.51.733.681.367 1.938.419 2.829.157.262-.052.524-.157.68-.262.158-.105.21-.157.263-.262 0-.104-.053-.21-.262-.366zm14.142-3.09a.8.8 0 01.524.209c.157.157.21.314.21.576 0 .21-.105.419-.21.576a.672.672 0 01-.524.21.8.8 0 01-.524-.21c-.157-.157-.21-.314-.21-.576 0-.21.106-.42.21-.576a.8.8 0 01.524-.21zm8.748 3.875a.8.8 0 01.523.21c.157.157.21.314.21.576 0 .21-.105.419-.21.576a.672.672 0 01-.523.21.8.8 0 01-.524-.21c-.157-.157-.21-.314-.21-.576 0-.21.105-.419.21-.576.104-.157.314-.21.524-.21zm1.623 11.838a.8.8 0 01.524.21c.157.157.21.314.21.576 0 .21-.105.419-.21.576a.673.673 0 01-.524.21.8.8 0 01-.523-.21c-.158-.157-.21-.314-.21-.576 0-.21.105-.42.21-.576a.8.8 0 01.523-.21zm-4.923 8.486a.8.8 0 01.524.209c.157.157.209.314.209.576 0 .21-.105.42-.21.576a.673.673 0 01-.523.21.8.8 0 01-.524-.21c-.157-.157-.21-.314-.21-.576 0-.21.105-.419.21-.576a.673.673 0 01.524-.21zm-17.443-5.238a1.972 1.972 0 00-.419-.262c-.733-.472-2.095-1.362-2.095-2.043v-.21c.053-.261.262-.523.576-.68.315-.158.681-.21 1.257-.21.577 0 1.258.105 2.096.314.942.21 1.204.472 1.152.733-.052.315-.786.315-1.362.367-.262 0-.524.052-.576.052v.053c0 .105.052.262.105.419.104.367.262.733.366.995.262.576.105.734-.262.734-.21-.053-.523-.105-.838-.262zM12.14 4.023c.681.524 1.362 1.153 2.096 1.886l.314.314-3.562 1.362c-.628.576-.943 1.467-.995 2.357-.105 1.31.21 2.62.524 3.248.628.104 1.623-.053 2.776-.21 1.519-.21 3.3-.524 4.766-.262.576-.104.734-1.204.943-2.514.367-2.462.786-5.71 4.505-5.866h.104c1.205.366 1.205 1.99 1.205 3.3 0 .419 0 .838.053 1.1.052.157.052.261.104.261h.053c.524 0 1.1-.471 1.728-.995 1.205-.995 2.514-2.095 4.295-.524.996 1.205.996 2.305.472 3.405-.524.995-1.52 1.938-2.62 2.88.158.42.682.63 1.258.839 1.205.471 2.566.995 2.2 3.248-.157.942-.681 1.466-1.414 1.78-.89.367-2.096.367-3.09.262v.053c.052.157.156.366.261.628.576 1.205 1.572 3.038-.786 4.714h-.052c-1.624.786-2.828-.419-4.085-1.676-.839-.838-1.677-1.676-2.672-1.938-.838.314-1.047 1.52-1.205 2.567-.157.995-.261 1.833-.942 1.938a64.61 64.61 0 01-1.676.157c.261.628.785 1.78.89 1.833.21.105.21.262.105.42-.053.104-.158.156-.315.209-.21.052-.523.21-.838.471l.053.053c.052.052.105.104.105.209l.261-.105c.157.315.42 1.257.472 1.729 0 .157.052.262 0 .366-.053.315-.157.42-.472.262-.052-.052-.157-.157-.261-.314-.262-.471-.367-.995-.42-1.362-.052.262-.157.576-.21.838-.104.472-.156.89-.418.943-.21.053-.314-.052-.42-.367-.104-.471.053-.89.158-1.257-.105.053-.21.157-.314.21-.21.157-.367.366-.524.576-.262.314-.472.524-.681.42-.157-.053-.21-.21-.157-.472.157-.42.471-.629.838-.838l.21-.105c.209-.157.366-.314.576-.42l.314-.313c.471-.577.943-.786 1.257-.943-.314-.524-.786-1.572-.995-2.043-1.257.052-2.724 0-4.138 0 .262.628.786 1.78.89 1.886.21.104.21.262.105.419-.052.104-.157.157-.314.21-.21.052-.524.209-.838.47l.052.053c.052.052.105.105.105.21l.262-.105c.157.314.419 1.257.471 1.728 0 .157.053.262 0 .367-.052.314-.157.419-.471.262a1.994 1.994 0 01-.262-.315c-.262-.471-.367-.995-.42-1.361-.052.261-.104.576-.209.838-.104.471-.157.89-.419.943-.21.052-.314-.053-.419-.367-.105-.472.053-.89.157-1.257-.104.052-.21.157-.314.21-.21.156-.367.366-.524.575-.262.315-.471.524-.68.42-.158-.053-.21-.21-.158-.472.157-.419.472-.628.838-.838l.21-.105c.21-.157.366-.314.576-.419l.314-.314c.472-.576.943-.786 1.257-.943-.314-.524-.785-1.624-.995-2.043-1.152 0-2.2-.052-2.986-.052-1.99-.471-3.195-1.467-3.928-2.62-.733-1.151-.943-2.46-1.048-3.508L1.456 9.523c-.106-1.362 0-2.566.47-3.719.472-1.1 1.258-2.095 2.462-2.88h.105c.786-.21 1.624-.315 2.462-.367.838-.053 1.728.052 2.566.21h.053c1.205.366 1.886.733 2.566 1.256z" stroke="#A2624A" stroke-miterlimit="10"/></svg>