<svg width="64" height="64" fill="none" xmlns="http://www.w3.org/2000/svg"><path fill-rule="evenodd" clip-rule="evenodd" d="M31.812.559c-1.605 0-2.688.627-3.336 1.512-.608.829-.753 1.774-.753 2.348a1 1 0 102 0c0-.298.085-.783.366-1.166.24-.328.701-.694 1.723-.694.705 0 1.102.289 1.36.637.289.39.415.886.435 1.2.008.168-.025.5-.167.82-.136.304-.348.555-.689.696-1.417.588-1.887 1.816-1.99 2.709l-4.67 2.742a1 1 0 001.012 1.725l4.633-2.721 4.476 2.713a1 1 0 101.037-1.71l-4.472-2.71c.02-.085.048-.173.086-.26a1.17 1.17 0 01.655-.64c.914-.38 1.454-1.07 1.748-1.73a3.939 3.939 0 00.338-1.744V4.28a4.405 4.405 0 00-.824-2.273c-.6-.81-1.572-1.448-2.968-1.448zm-3.312 18h6.4v-2h-6.4v2z" fill="#A2624A"/><path d="M47.34 12.062l.326-.945-.326.945zm-31.23 0l.326.946-.326-.946zM2.602 27.58l-.865-.502-.547.943.986.464.426-.905zm20.148-6.615l.957-.29v-.002l-.957.292zm.375.42l-.442.896.442-.896zm.62.07l-.218-.975-.02.004-.02.005.258.967zm6.98 5.68a1 1 0 102 0h-2zm8.981-5.68l-.218.977h.003l.215-.976zm.62-.07l.523.852-.523-.852zm.375-.42l.957.29-.957-.29zm1.905-7.16l.985.177-.985-.177zm.036-.462l1-.029-1 .029zm4.382 49.18l-.065-.997.065.998zM24.672 8.063l.469.884-.47-.883zm14.106 0l-.466.885.466-.884zm-14.113.001l.466.885-.466-.885zm14.12 0l-.465.886.466-.885zm-29.57 8.12l.864.503-.865-.502zm44.76-.509l-.873.488.873-.488zm.28.53l-.856.517.856-.517zm.592-1.018c-.34-.607-.957-1.207-2.04-1.852-1.084-.647-2.703-1.378-5.141-2.217l-.651 1.89c2.373.818 3.85 1.497 4.769 2.045.92.549 1.215.926 1.318 1.11l1.745-.976zm-7.181-4.07a80.676 80.676 0 00-5.609-1.683l-.503 1.936c.8.208 3.086.822 5.461 1.639l.65-1.891zm-5.068-1.325c-.767-.997-1.906-1.854-3.347-2.612l-.931 1.77c1.294.68 2.163 1.374 2.693 2.062l1.585-1.22zm-3.354-2.613a1.908 1.908 0 00-.89-.22v2a.092.092 0 01-.042-.01l.932-1.77zm-.89-.22H25.096v2h13.256v-2zm-13.257 0c-.322 0-.628.08-.894.221l.938 1.767a.097.097 0 01-.044.013v-2zm-.897.22c-1.441.759-2.58 1.616-3.347 2.613l1.584 1.22c.53-.688 1.4-1.382 2.694-2.063l-.931-1.77zm-2.806 2.255c-.82.213-3.164.842-5.61 1.684l.652 1.89a78.754 78.754 0 015.46-1.638l-.503-1.936zm-5.61 1.684c-2.461.847-4.089 1.584-5.174 2.236-1.083.65-1.695 1.256-2.026 1.868l1.759.953c.096-.18.379-.555 1.297-1.106.917-.55 2.398-1.235 4.796-2.06l-.651-1.891zM53.4 16.72l6.873 11.375 1.712-1.034-6.873-11.375L53.4 16.72zm7.312 9.95l-11.524 5.293.835 1.818 11.523-5.294-.834-1.818zm-25.798-6.048l5.691-11.591-1.795-.882-5.691 11.592 1.795.881zM22.847 9.031l5.691 11.592 1.796-.881L24.642 8.15l-1.795.881zm-8.575 22.937L3.028 26.674l-.852 1.81 11.245 5.294.851-1.81zM3.467 28.081l6.612-11.395-1.73-1.004-6.612 11.395 1.73 1.004zm43.492 33.444c-2.725.18-7.563.367-15.234.367v2c7.7 0 12.584-.188 15.365-.372l-.131-1.995zm-15.234.367c-7.67 0-12.508-.187-15.233-.367l-.131 1.995c2.781.184 7.665.372 15.364.372v-2zM14.846 28.185c0-2.502-.637-5.683-1.347-8.362a53.845 53.845 0 00-1.083-3.594c-.334-.973-.652-1.778-.888-2.202l-1.748.97c.14.253.409.904.744 1.88a51.91 51.91 0 011.042 3.458c.698 2.635 1.28 5.613 1.28 7.85h2zM20.67 10.18c.006-.027.008-.013-.09.174-.08.153-.203.384-.321.672-.245.598-.453 1.398-.453 2.55h2c0-.892.157-1.434.303-1.79.078-.19.157-.339.245-.508.07-.134.205-.384.266-.656l-1.95-.442zm-.864 3.396c0 .627.14 1.422.32 2.206.184.803.428 1.667.67 2.461a68.571 68.571 0 00.907 2.754l.07.198.02.06 1.913-.583c-.022-.073-.17-.489-.341-.991a66.976 66.976 0 01-.655-2.021 35.23 35.23 0 01-.635-2.325c-.174-.758-.269-1.37-.269-1.76h-2zm1.987 7.678c.145.477.49.83.89 1.026l.886-1.793a.3.3 0 01.138.186l-1.914.581zm.89 1.027c.163.08.36.14.558.172.198.031.471.045.76-.032l-.513-1.933a.28.28 0 01.065-.01c.007 0 .007 0 0 0a.155.155 0 01-.015-.004l.004.001a.315.315 0 01.026.012l-.885 1.794zm1.28.15l5.691-1.273-.436-1.951-5.691 1.272.436 1.952zm4.853-1.464l2.288 1.81 1.24-1.57-2.288-1.809-1.24 1.569zm1.909 1.025v5.142h2v-5.142h-2zm1.62.785l2.29-1.81-1.24-1.57-2.29 1.81 1.24 1.57zm1.452-1.619l5.691 1.273.437-1.952-5.691-1.272-.437 1.951zm5.694 1.273c.093.02.271.05.485.046a1.74 1.74 0 00.873-.241l-1.047-1.704a.406.406 0 01.12-.052c.018-.004.024-.003.016-.003l-.026-.001.01.002-.431 1.953zm1.358-.195c.145-.09.317-.209.47-.377.167-.185.274-.39.339-.604l-1.913-.582a.447.447 0 01.09-.154c.017-.02.029-.029.024-.025a.713.713 0 01-.057.038l1.047 1.704zm.81-.981c.055-.185 1.532-5.05 1.932-7.274l-1.969-.354c-.374 2.081-1.806 6.81-1.877 7.046l1.913.582zm1.982-7.942c-.03-1.059-.24-1.8-.477-2.354-.113-.266-.23-.483-.303-.623-.09-.172-.087-.185-.08-.156l-1.95.442c.06.264.186.504.256.637.086.165.16.305.237.483.142.333.295.828.318 1.628l2-.057zm8.281.713c-.236.425-.554 1.23-.887 2.203a53.826 53.826 0 00-1.083 3.594c-.71 2.679-1.348 5.86-1.348 8.362h2c0-2.237.583-5.215 1.281-7.85a51.841 51.841 0 011.041-3.457c.335-.978.604-1.628.744-1.88l-1.748-.972zM14.846 59.693V36.318h-2v23.375h2zm0-23.375v-8.133h-2v8.133h2zm-11.48-3.862l10.052 4.765.857-1.807-10.053-4.766-.856 1.808zm45.238-4.271v8.133h2v-8.133h-2zm0 8.133v23.375h2V36.318h-2zm10.966-5.68l-10.383 4.77.835 1.818 10.383-4.77-.835-1.817zM1.747 27.06a3.794 3.794 0 001.619 5.396l.856-1.808a1.794 1.794 0 01-.765-2.55l-1.71-1.038zm41.844-13.079c.039-.217.057-.44.05-.668l-1.999.057a1.25 1.25 0 01-.02.257l1.969.354zM16.492 61.525c-.928-.061-1.646-.835-1.646-1.832h-2c0 1.983 1.47 3.693 3.515 3.828l.131-1.996zM47.09 63.52c2.045-.134 3.514-1.844 3.514-3.827h-2c0 .997-.718 1.77-1.645 1.832l.131 1.995zM24.203 7.18a.996.996 0 01.736-.08l-.54 1.926c.248.07.514.04.742-.08l-.938-1.767zm36.089 20.947a1.724 1.724 0 01-.722 2.512l.835 1.817a3.724 3.724 0 001.56-5.425l-1.673 1.096zM38.502 7.103a.995.995 0 01.742.075l-.932 1.77c.23.12.498.148.75.075l-.56-1.92zM24.939 7.1a1.01 1.01 0 00-.74.078l.932 1.77a.996.996 0 01-.733.078l.54-1.926zm14.312.079a1.006 1.006 0 00-.75-.076l.56 1.92a.995.995 0 01-.741-.074l.931-1.77zM8.584 15.22c-.056.104-.107.21-.142.281a2.91 2.91 0 01-.093.18l1.73 1.004a4.79 4.79 0 00.16-.305c.045-.092.073-.15.104-.207l-1.76-.953zm44.518.941c.035.063.066.127.117.227.045.091.106.21.18.332l1.712-1.034a2.95 2.95 0 01-.105-.196c-.04-.078-.096-.193-.159-.305l-1.745.976z" fill="#A2624A"/></svg>