<svg width="29" height="21" fill="none" xmlns="http://www.w3.org/2000/svg"><g clip-path="url(#clip0)"><path d="M28 1.827H1v18h27v-18z" fill="#F0F0F0"/><path d="M10 1.827H1v18h9v-18z" fill="#0052B4"/><path d="M28 1.827h-9v18h9v-18z" fill="#D80027"/></g><path d="M1 1.827v-1H0v1h1zm27 0h1v-1h-1v1zm0 18v1h1v-1h-1zm-27 0H0v1h1v-1zm0-17h27v-2H1v2zm26-1v18h2v-18h-2zm1 17H1v2h27v-2zm-26 1v-18H0v18h2z" fill="#F6F6F6"/><defs><clipPath id="clip0"><path d="M1 1.827h27v18H1v-18z" fill="#fff"/></clipPath></defs></svg>