<svg width="30" height="31" fill="none" xmlns="http://www.w3.org/2000/svg"><g clip-path="url(#clip0)"><path d="M6.649 18.956l-1.045 3.899-3.816.08A14.933 14.933 0 010 15.828c0-2.487.605-4.833 1.677-6.898h.001l3.398.623 1.488 3.377a8.917 8.917 0 00-.48 2.898 8.88 8.88 0 00.565 3.13z" fill="#FBBB00"/><path d="M29.738 13.025c.172.907.262 1.844.262 2.802 0 1.074-.113 2.121-.328 3.132a14.997 14.997 0 01-5.282 8.566v-.001l-4.28-.219-.606-3.78a8.94 8.94 0 003.846-4.566h-8.02v-5.934h14.408z" fill="#518EF8"/><path d="M24.39 27.524A14.937 14.937 0 0115 30.828c-5.712 0-10.679-3.193-13.212-7.891l4.86-3.98a8.919 8.919 0 0012.856 4.568l4.886 4z" fill="#28B446"/><path d="M24.575 4.28l-4.86 3.979a8.922 8.922 0 00-13.15 4.67l-4.887-4C4.173 4.116 9.202.827 15 .827c3.64 0 6.977 1.297 9.575 3.453z" fill="#F14336"/></g><defs><clipPath id="clip0"><path fill="#fff" transform="translate(0 .827)" d="M0 0h30v30H0z"/></clipPath></defs></svg>