<svg width="16" height="16" fill="none" xmlns="http://www.w3.org/2000/svg"><circle cx="8" cy="8" r="6.25" stroke="#A1A1A1" stroke-width=".5"/><path d="M7.232 9.72c0-.253.023-.47.07-.65.053-.187.14-.363.26-.53.127-.167.297-.34.51-.52.26-.22.46-.403.6-.55.147-.147.25-.29.31-.43s.09-.31.09-.51c0-.32-.103-.567-.31-.74-.207-.173-.507-.26-.9-.26a2.67 2.67 0 00-.87.13c-.253.08-.497.177-.73.29l-.31-.7c.267-.14.56-.257.88-.35.327-.093.69-.14 1.09-.14.633 0 1.123.157 1.47.47.347.313.52.74.52 1.28 0 .3-.05.557-.15.77-.093.207-.23.4-.41.58-.173.173-.38.36-.62.56-.22.187-.39.35-.51.49-.113.14-.19.28-.23.42-.04.133-.06.297-.06.49v.17h-.7v-.27zm-.23 1.74c0-.247.057-.42.17-.52.12-.1.27-.15.45-.15.167 0 .31.05.43.15.12.1.18.273.18.52 0 .24-.06.413-.18.52a.625.625 0 01-.43.16.652.652 0 01-.45-.16c-.113-.107-.17-.28-.17-.52z" fill="#A1A1A1"/></svg>