<svg width="116" height="25" fill="none" xmlns="http://www.w3.org/2000/svg"><g clip-path="url(#clip0)"><path d="M22.567.827c-6.683 0-12 5.393-12 12 0 6.684 5.393 12 12 12 6.608 0 12-5.392 12-12 .076-6.607-5.392-12-12-12zm0 16.481c-2.43 0-4.48-2.05-4.48-4.48 0-2.431 2.05-4.482 4.48-4.482 2.43 0 4.481 2.05 4.481 4.481 0 2.43-1.974 4.481-4.48 4.481zM10.566 4.32v17.47H6.237L.77 4.32h9.797z" fill="#8B3FFD"/><path d="M111.807 7.435l-2.658 6.531c-.076.076-.076.228-.076.304l-.076.152-.076-.152c0-.076-.076-.228-.076-.304l-2.658-6.531h-3.418l4.481 11.164-1.899 4.253h3.418l6.304-15.417h-3.266zm-25.216.607c-.607-.455-1.367-.76-2.278-.835-1.519-.152-2.962.38-3.95 1.367V7.359H77.25v11.164h3.115v-5.848c0-1.29.227-1.67.455-1.974.38-.608 1.063-.912 1.9-.912.834 0 1.594.38 1.974.988.227.455.303 1.063.303 1.367v6.38h3.115v-6.76c0-1.747-.532-2.962-1.52-3.722zM71.325 7.51c-1.519-.531-3.19-.455-4.709.229-.987.455-1.898 1.215-2.43 2.202-.532.835-.76 1.899-.76 3.038 0 1.14.228 2.203.76 3.038s1.215 1.595 2.126 2.05c.912.456 1.975.76 2.963.76.531 0 1.063-.076 1.595-.228.455-.152.911-.303 1.367-.531.911-.532 1.67-1.216 2.127-2.051.53-.835.759-1.899.759-3.038.076-2.506-1.367-4.633-3.798-5.468zm.912 5.621c-.076.987-.38 1.823-.988 2.354-.455.38-1.139.608-1.974.684-.836 0-1.443-.228-1.975-.684-.607-.531-.911-1.367-.987-2.354-.076-1.14.38-2.05 1.215-2.658.455-.304 1.063-.532 1.67-.532.684 0 1.216.228 1.748.532.911.531 1.367 1.519 1.29 2.658zm-12.38-5.089c-.608-.455-1.367-.76-2.279-.835h-.53c-1.216 0-2.28.532-3.19 1.595l-.153.228h-.303a3.24 3.24 0 00-.836-.912c-.608-.455-1.367-.76-2.279-.835-1.443-.152-2.582.304-3.57 1.367V7.51h-3.113v11.165h3.114v-6c0-1.215.152-1.519.38-1.899a1.918 1.918 0 011.822-.91c.76 0 1.444.379 1.823.986.304.456.304.988.304 1.52v6.227h3.114v-6c0-1.139.152-1.519.38-1.899.38-.607 1.063-.91 1.823-.91.759 0 1.367.379 1.746.987.228.38.304.835.304 1.139v6.607h3.114v-6.835a6.47 6.47 0 00-.228-1.747c-.303-.76-.76-1.443-1.443-1.899zm39.949 7.14c-.455.455-1.519 1.29-2.962 1.367-1.215.076-2.126-.304-2.81-.988-.303-.303-.532-.76-.683-1.215h8.582v-.076c.076-.455.152-.835.152-1.29 0-.38-.076-.912-.228-1.596-.38-1.291-1.139-2.278-2.126-3.038-1.14-.835-2.203-1.063-2.507-1.063-2.202-.38-4.709.607-6 2.658-.912 1.443-.835 2.886-.835 3.342 0 .532.076 2.202 1.443 3.721 1.595 1.747 3.797 1.823 4.48 1.9 3.039.075 5.089-1.824 5.545-2.203l-2.05-1.52zm-5.316-4.71c.455-.303.987-.53 1.67-.53.684 0 1.216.227 1.748.53.456.38.835.836 1.063 1.368h-5.469c.076-.532.456-1.063.988-1.367z" fill="#000"/></g><defs><clipPath id="clip0"><path fill="#fff" transform="translate(.769 .827)" d="M0 0h114.72v24H0z"/></clipPath></defs></svg>