<svg width="16" height="16" fill="none" xmlns="http://www.w3.org/2000/svg"><g clip-path="url(#clip0)"><path d="M16 4.364c-.072-1.768-.349-2.67-.85-3.055a.938.938 0 00-.444-.196c-.65-.1-1.306-.163-1.964-.19h-.545c-.462-.002-.923.02-1.382.066l-.204.036c-.481.183-.91.48-1.25.866l-.103.116H6.742l-.102-.116a3.084 3.084 0 00-1.163-.873 1.454 1.454 0 00-.16-.058S4.277.887 3.862.887h-.553c-.577.02-1.152.072-1.723.153a1.6 1.6 0 00-1.055.727 6.37 6.37 0 00-.53 2.597 56.254 56.254 0 00.188 5.818c.065.544.223 1.073.466 1.563.226.476.553.895.96 1.23a9.81 9.81 0 002.37 1.272 4.363 4.363 0 011.717 1.026c.086.123.195.23.32.312.612.31 1.294.452 1.978.415a3.943 3.943 0 001.978-.422c.126-.083.234-.19.32-.313a4.365 4.365 0 011.717-1.01 9.811 9.811 0 002.37-1.273c.407-.334.735-.754.96-1.23a4.64 4.64 0 00.444-1.57A53.81 53.81 0 0016 4.364zm-12.916-.59a3.52 3.52 0 01-1.63.466c.088-.793 0-1.498.263-1.687.261-.19 2.909-.466 3.483-.051L3.084 3.775zM5.207 9.79a.727.727 0 110-1.455.727.727 0 010 1.455zm4.975 3.862a1.455 1.455 0 01-1.455.414c-.116-.065-.152-.407-.094-.509.215-.072.417-.18.596-.32.437-.727-.676-1.527-1.222-.85-.53-.677-1.789.196-1.149.916.167.1.342.186.524.254.19.611-.422.633-.865.524a1.986 1.986 0 01-.59-.495c.012-.894.07-1.788.175-2.676.08-.204.785-.589.727-.873a2.4 2.4 0 01.284-1.367c.316-.232.71-.333 1.098-.284.924.175.946.822.967 1.673 0 .277.662.67.728.844a16 16 0 01.276 2.749zm.64-3.862a.727.727 0 11.258-.047.727.727 0 01-.287.047h.029zm2.095-6.014L10.77 2.502c.611-.415 3.171-.175 3.484.05.313.226.174.895.262 1.688a3.52 3.52 0 01-1.63-.465h.03z" fill="#B2A194"/></g><defs><clipPath id="clip0"><path fill="#fff" d="M0 0h16v16H0z"/></clipPath></defs></svg>