<svg width="16" height="16" fill="none" xmlns="http://www.w3.org/2000/svg"><g clip-path="url(#clip0)"><g clip-path="url(#clip1)"><path d="M12.174 2.342h.495c.528.018 1.055.064 1.578.138a6.02 6.02 0 01.298 1.92c.04 1.88-.02 3.762-.182 5.636a3.22 3.22 0 01-.305 1.07 2.2 2.2 0 01-.553.727 8.609 8.609 0 01-2.029 1.076 5.16 5.16 0 00-2.32 1.455A3.18 3.18 0 018 14.545a3.143 3.143 0 01-1.135-.152 5.156 5.156 0 00-2.32-1.455 8.603 8.603 0 01-2.029-1.076 2.254 2.254 0 01-.553-.727 3.077 3.077 0 01-.298-1.04 51.02 51.02 0 01-.21-5.695 5.862 5.862 0 01.29-1.884h.044c.51-.075 1.025-.121 1.542-.138h.501c.284 0 .888 0 1.186.051.208.13.395.292.553.48l.08.087.436.451h3.775l.436-.472.123-.066c.164-.198.36-.365.582-.494.39-.037.78-.054 1.171-.051v-.022zm0-1.433c-.461-.003-.922.02-1.382.066l-.203.036c-.475.19-.897.492-1.23.88l-.101.116H6.742l-.102-.116a3.084 3.084 0 00-1.164-.873 1.454 1.454 0 00-.16-.058S4.276.887 3.862.887h-.553c-.577.02-1.152.072-1.724.153a1.6 1.6 0 00-1.054.727A6.37 6.37 0 000 4.364a56.253 56.253 0 00.189 5.818 4.8 4.8 0 00.465 1.563c.226.476.554.895.96 1.23a9.81 9.81 0 002.371 1.272 4.363 4.363 0 011.717 1.026c.086.123.194.23.32.313A3.913 3.913 0 008 16a3.94 3.94 0 001.978-.422c.125-.083.234-.189.32-.313a4.362 4.362 0 011.716-1.01 9.811 9.811 0 002.371-1.273c.406-.334.734-.754.96-1.23.24-.493.39-1.024.444-1.57.175-1.934.245-3.877.21-5.818-.072-1.768-.348-2.67-.85-3.055a.938.938 0 00-.444-.196c-.65-.1-1.306-.163-1.963-.19h-.546L12.174.91z" fill="#B2A194"/><path d="M5.636 13.753c.437.313.888-.124 1.04.269.05.114.113.222.19.32a1.564 1.564 0 001.163.414 1.542 1.542 0 001.164-.414 1.01 1.01 0 00.189-.32c.16-.393.545.043.982-.27" stroke="#B2A194" stroke-width="1.5" stroke-miterlimit="10"/><path d="M3.702 2.364a3.258 3.258 0 011.49.24L3.07 3.884a3.418 3.418 0 01-1.564.48c0-.786.066-1.557.335-1.746a5.49 5.49 0 011.862-.233v-.021zm0-1.433a5.76 5.76 0 00-2.677.487C.211 1.95.051 2.975.051 4.364v1.454h1.454a4.858 4.858 0 002.277-.647l2.16-1.316 1.963-1.179-1.898-1.28A3.913 3.913 0 003.702.91v.022zm1.505 7.404a.727.727 0 100 1.454.727.727 0 000-1.454zm2.843-.008a1.665 1.665 0 00-.901.306A2.4 2.4 0 006.865 10c0 .284-.683.67-.727.873-.109.9-.17 1.806-.182 2.713.162.201.362.37.59.494.125.031.255.048.385.05.334 0 .618-.13.48-.574a3.115 3.115 0 01-.524-.254c-.48-.538.102-1.164.647-1.164a.618.618 0 01.466.226.633.633 0 01.509-.255.771.771 0 01.727 1.105 2.01 2.01 0 01-.596.32c-.058.102 0 .444.094.51.1.05.21.075.32.072.42-.009.823-.175 1.127-.465a15.994 15.994 0 00-.203-2.785c-.073-.175-.727-.568-.727-.844 0-.851-.044-1.498-.968-1.673h-.196l-.036-.022zm2.743.008a.727.727 0 100 1.454.727.727 0 000-1.454zm1.57-5.985a4.422 4.422 0 011.753.24c.29.246.313 1.032.305 1.752a3.324 3.324 0 01-1.527-.458l-2.116-1.28a3.556 3.556 0 011.585-.255zm0-1.455a4.066 4.066 0 00-2.4.501l-1.89 1.28 1.956 1.179 2.123 1.272a4.778 4.778 0 002.27.691h1.454V4.364c0-1.142-.044-2.219-.822-2.91-.189-.16-.69-.581-2.69-.581v.022z" fill="#B2A194"/></g></g><defs><clipPath id="clip0"><path fill="#fff" d="M0 0h16v16H0z"/></clipPath><clipPath id="clip1"><path fill="#fff" transform="translate(-.01 .873)" d="M0 0h16.019v15.133H0z"/></clipPath></defs></svg>