<svg width="88" height="68" fill="none" xmlns="http://www.w3.org/2000/svg"><path fill-rule="evenodd" clip-rule="evenodd" d="M82.093 15.428l-.055.215-.121.022-2.97-1.503c-.043-.021-.072-.064-.081-.124a.284.284 0 01.015-.16c.172-.595.397-1.207.674-1.836.407-.926.914-1.81 1.518-2.649.11-.129.2-.223.268-.284.07-.06.145-.112.226-.158.08-.045.2-.047.356-.004.156.043.35.123.58.239.33.167.71.399 1.143.696.148.097.335.233.56.409v.071a.188.188 0 01-.015.072c-.064.145-.219.304-.466.475a4.043 4.043 0 01-.36.219.589.589 0 01-.26-.211 12.948 12.948 0 01-.207-.293.934.934 0 00-.275-.214.975.975 0 00-.808-.028c-.29.106-.49.279-.592.515a.664.664 0 00-.053.191c.025.04.056.076.093.106s.08.057.127.08l.092.047a.648.648 0 00.271.07c.268.008.422.019.464.034.153.05.275.098.367.144.056.029.105.06.146.091.04.031.08.074.116.126l-.014.068-.83.818a1.2 1.2 0 00-.431-.36.965.965 0 00-.345-.104.75.75 0 00-.338.044c-.23.123-.408.329-.532.612-.082.187-.116.37-.1.55a.757.757 0 00.23.474c.084.086.186.16.302.219a1.3 1.3 0 00.547.139c.191.005.4-.019.626-.072l.11.056.022 1.198zm-3.999-1.92c.01.043-.006.08-.044.111l-.087.06c-.104.05-.251.054-.44.015a2.954 2.954 0 01-.61-.21 8.576 8.576 0 01-1.177-.683 8.894 8.894 0 01-.558-.406l-.06-.086a.358.358 0 01-.038-.247c.015-.098.045-.198.084-.299l.032-.08c.007-.02.015-.033.022-.035.043-.161.103-.35.177-.56.074-.213.149-.411.22-.59.24-.603.522-1.171.842-1.704.32-.534.7-1.083 1.141-1.649l.099-.012 1.039.48.018.131a9.004 9.004 0 00-1.262 1.568 11.408 11.408 0 00-.962 1.895c-.05.23-.035.437.042.62a.765.765 0 00.402.408c.086.039.184.068.288.083.149.003.306-.014.466-.05a4.8 4.8 0 00.451-.128c.042.024.07.073.083.145-.018.19-.042.4-.068.631-.026.23-.06.429-.1.592zm-2.683-7.313c.087.028.157.052.206.07.121.045.226.098.31.157a.422.422 0 01.17.217 4.635 4.635 0 01-.929 1.654 4.698 4.698 0 01-1.522 1.134 3.28 3.28 0 00-.598.821 7.729 7.729 0 00-.432 1.085l-.08.081c-.033.037-.081.054-.143.051a.731.731 0 01-.216-.05 2.28 2.28 0 01-.619-.37.88.88 0 01.03-.446c.045-.141.117-.283.214-.424.206-.355.448-.67.726-.945l-.003-.202a4.65 4.65 0 01-.55-1.735 4.183 4.183 0 01.167-1.786l.051-.157a1.57 1.57 0 00.067-.16.273.273 0 01.05-.037.68.68 0 01.11-.054c.09-.03.22-.014.387.05.118.044.248.11.387.194.046.027.105.066.177.114l.082.12-.12.3c-.027.069-.053.14-.073.204-.132.41-.199.783-.197 1.121.004.413.11.768.318 1.066a.399.399 0 00.07.043c.045.017.101.008.168-.025.325-.171.596-.392.814-.663a2.94 2.94 0 00.5-.942 3.89 3.89 0 00.1-.38l.1-.122a.666.666 0 01.135-.002c.046.003.094.01.143.018zm-3.977-1.14c.052.168.064.301.04.398a1.05 1.05 0 01-.206.413 1.69 1.69 0 01-.363.327 1.16 1.16 0 01-.275-.283 2.393 2.393 0 01-.21-.39.45.45 0 00-.409-.123 2.555 2.555 0 00-.281.31 10.942 10.942 0 00-.747 2.869c-.013.185-.02.417-.02.694l-.001.7c-.004.095-.047.155-.129.182l-1.074-.323-.108-.103a.307.307 0 01-.012-.185l.013-.05c.058-.581.157-1.143.295-1.683.105-.41.23-.813.372-1.207.142-.394.312-.808.507-1.238a.313.313 0 00.062-.13c.022-.083.014-.145-.02-.184a.216.216 0 00-.139-.069 3.33 3.33 0 00-.763.096 2.585 2.585 0 00-.698.306l-.11-.034a1.55 1.55 0 01.041-.428c.028-.11.073-.227.13-.342.055-.115.122-.232.195-.345a.559.559 0 01.173-.165.533.533 0 01.224-.101c.24-.028.47-.037.69-.029.22.009.445.048.675.117a19.777 19.777 0 011.189.255c.268.08.48.177.64.288.158.11.264.263.319.457zm-6.256.53c.305.246.53.535.676.866.144.333.182.675.116 1.025a1.957 1.957 0 01-.074.277 1.567 1.567 0 01-.481.71c-.178.14-.444.27-.796.396a1.163 1.163 0 01-.484.037 9.953 9.953 0 01-.27-.047c-.493-.113-.901-.32-1.226-.622-.382-.356-.561-.774-.539-1.254a2.98 2.98 0 01.16-.563 1.4 1.4 0 01.288-.433c.042-.042.103-.054.183-.036.001.403.059.731.172.984.14.316.375.538.703.664.081.034.167.063.256.083.234.052.438.053.61 0a.615.615 0 00.423-.413.588.588 0 00-.025-.404 1.002 1.002 0 00-.254-.363l-.916-.628c-.352-.257-.6-.499-.742-.727a1.51 1.51 0 01-.197-1.12c.068-.361.241-.666.52-.918.183-.164.39-.267.625-.311.167-.034.394-.042.68-.023a6.126 6.126 0 01.242.04c.252.058.504.167.753.324.248.157.461.342.636.552l.07.133a.467.467 0 01-.01.09.918.918 0 01-.219.415 2.045 2.045 0 01-.329.304c-.077.018-.136.015-.175-.01a2.43 2.43 0 00-.436-.518c-.21-.187-.41-.304-.603-.347a.636.636 0 00-.35.012.652.652 0 00-.3.242.618.618 0 00-.06.163.647.647 0 00.048.379.857.857 0 00.236.32l1.089.722zm-6.012-4.09a2.7 2.7 0 01.064.415 18.34 18.34 0 01-.292 3.917c-.08.437-.178.886-.29 1.349l-.125.15-.964-.142-.053-.176a10.25 10.25 0 00-.416-1.994 18.773 18.773 0 00-.723-1.9 1.31 1.31 0 00-.122-.148c-.06-.06-.116-.084-.166-.07l-.083.094a29.96 29.96 0 00-.155 2.046c-.024.633-.01 1.254.045 1.862l-.082.027-.913-.135-.085-.089a19.091 19.091 0 01.632-5.656l.1-.123c.08-.07.197-.092.348-.07.11.015.231.054.365.114.042.016.099.046.172.087l.226.254c.51 1.002.953 2.014 1.325 3.036a.425.425 0 00.056.058l.07.06a.38.38 0 00.118-.097c.059-.536.087-1.034.085-1.492a10.014 10.014 0 00-.11-1.428l.053-.084a.169.169 0 01.114-.055.87.87 0 01.209.01c.114.017.249.054.402.106.05.017.116.043.195.075zm-6.12-.459c.39.501.662 1.096.816 1.783.135.604.175 1.267.12 1.986a8.513 8.513 0 01-.112.87c-.05.274-.115.559-.196.854l-.116.093-1.202-.137a3.19 3.19 0 00.555-1.566.727.727 0 00-.01-.248 1.21 1.21 0 00-.087-.265.878.878 0 00-.518-.219 1.928 1.928 0 00-.595.038 3.598 3.598 0 00-.539.152.499.499 0 00-.208.216.928.928 0 00-.08.337c-.012.156 0 .36.039.614.03.18.05.312.063.395.022.089.038.175.049.257a.63.63 0 01.003.183l-1.213-.184a4.21 4.21 0 01-.12-.783 5.992 5.992 0 01.067-1.318c.166-.839.445-1.573.835-2.203.474-.768 1.053-1.253 1.738-1.455.116-.002.248.071.395.22a4.4 4.4 0 01.317.38zm-2.009 2.352l1.027-.118.673.077.086.01c.067.007.104-.04.112-.14.001-.076.003-.13.005-.16a2.175 2.175 0 00-.504-1.323.593.593 0 00-.219-.055c-.282.1-.526.3-.729.599-.203.298-.354.67-.451 1.11zM48.978.238l.064.057c-.123.46-.217.92-.28 1.383-.064.464-.1.946-.11 1.447-.009.495.005.976.042 1.437.037.463.1.97.191 1.522l-.015.075-1.142-.055-.07-.095c-.06-.434-.104-.874-.134-1.32-.03-.446-.041-.887-.034-1.323.02-1.101.158-2.16.411-3.18l1.077.052zm-3.416 2.421c.346.177.623.414.83.709.206.297.311.624.315.982.002.091-.005.188-.018.288a1.59 1.59 0 01-.328.799c-.147.174-.38.359-.698.557a1.17 1.17 0 01-.465.137c-.067.004-.158.007-.272.011-.503-.008-.942-.126-1.319-.354-.443-.27-.7-.643-.773-1.12a2.994 2.994 0 01.044-.587c.03-.163.096-.326.195-.486.033-.05.09-.074.172-.073.08.395.202.706.362.93.2.282.471.45.817.506.086.017.175.026.266.027.239.003.437-.039.594-.128a.626.626 0 00.332-.494.596.596 0 00-.105-.393.987.987 0 00-.319-.303c-.342-.141-.68-.283-1.017-.425-.394-.178-.684-.363-.868-.558a1.508 1.508 0 01-.414-1.06 1.65 1.65 0 01.327-1.01c.146-.2.328-.345.547-.438.158-.069.378-.123.659-.164A3.557 3.557 0 0144.67 0c.258.004.525.057.799.16.274.103.517.24.73.41l.094.114c.005.02.008.051.008.092a.947.947 0 01-.131.453c-.066.12-.153.243-.262.368-.071.034-.128.043-.172.028a2.395 2.395 0 00-.528-.418c-.241-.14-.46-.212-.656-.215a.627.627 0 00-.34.086.664.664 0 00-.245.3.384.384 0 00-.02.085.79.79 0 00-.007.087.64.64 0 00.123.363c.08.114.178.204.294.266l1.205.48zm-4.616-.022c.356.154.646.373.87.655.223.282.348.603.373.96.006.09.006.187-.001.29-.026.319-.12.593-.28.819-.136.184-.357.384-.662.603a1.16 1.16 0 01-.455.168 7.878 7.878 0 01-.271.03c-.502.025-.946-.063-1.335-.267-.457-.24-.736-.596-.837-1.068a3.013 3.013 0 01.009-.59c.021-.165.077-.332.166-.499.03-.052.085-.08.167-.084.104.39.242.692.416.906.215.268.496.419.843.452.087.01.177.013.267.008.238-.011.434-.067.585-.166a.634.634 0 00.301-.517.592.592 0 00-.127-.385.973.973 0 00-.337-.282c-.348-.119-.694-.238-1.038-.358-.404-.151-.703-.317-.898-.5a1.501 1.501 0 01-.475-1.031A1.667 1.667 0 0138.49.749a1.31 1.31 0 01.52-.475c.153-.078.368-.148.646-.208l.147-.02.096-.008c.258-.013.527.023.806.107.279.084.53.205.751.361l.101.11c.006.019.011.05.014.09a.966.966 0 01-.104.461 2.112 2.112 0 01-.239.385c-.069.04-.126.052-.17.04a2.368 2.368 0 00-.551-.383c-.248-.124-.47-.181-.666-.17a.625.625 0 00-.334.107.674.674 0 00-.226.316.39.39 0 00-.015.088.63.63 0 00.143.441.84.84 0 00.308.246l1.228.4zM36.99.615c.244.754.404 1.507.48 2.26.024.246.04.506.042.778.004.273-.002.55-.017.83a2.46 2.46 0 01-.442 1.329c-.294.422-.66.653-1.098.69l-.142.012-.093.007a1.663 1.663 0 01-1.089-.296c-.313-.206-.58-.504-.802-.891a6.849 6.849 0 01-.221-.58 2.709 2.709 0 01-.126-.573 7.632 7.632 0 01-.084-.548c-.027-.221-.043-.347-.045-.378a10.955 10.955 0 01.029-2.5l.083-.107a.454.454 0 01.18-.107.88.88 0 01.214-.049c.125-.01.26-.001.407.027.048.006.11.021.184.045l.091.046c.02.1.016.222-.013.368-.031.12-.06.24-.087.358-.03.268-.05.553-.057.854a6.9 6.9 0 00.029.86c.028.289.074.553.133.791.06.24.146.48.256.72.101.19.235.337.4.437a.88.88 0 00.535.126.914.914 0 00.336-.097c.192-.103.32-.282.386-.538.047-.193.058-.422.031-.691-.06-.6-.14-1.169-.24-1.706-.1-.536-.23-1.058-.392-1.564l.084-.09a.385.385 0 01.134-.074.73.73 0 01.172-.037 1.5 1.5 0 01.326.01.574.574 0 01.147.034.362.362 0 01.111.032l.069.036c.053.052.083.11.09.176zm-5.592 3.417a5.071 5.071 0 011.627 2.335.446.446 0 01.035.083c.01.032.017.06.021.085.01.06-.007.12-.051.177l-.998.155-.082-.019a7.873 7.873 0 00-.477-1.058 4.934 4.934 0 00-.668-.943.57.57 0 00-.491-.163.375.375 0 00-.264.164c-.062.091-.08.216-.056.37.11.676.282 1.286.515 1.83l-.084.067-1.118.172-.085-.079a18.912 18.912 0 01-.352-1.32 21.798 21.798 0 01-.535-4.37l.064-.095c.339-.088.616-.157.83-.205.215-.049.442-.091.683-.129.231-.035.44-.058.628-.066.186-.007.34.004.462.036.298.072.54.21.727.412.188.202.306.453.355.753.028.32-.03.641-.17.965-.112.258-.285.54-.516.843zm-.35-1.309a.773.773 0 00-.01-.153 2.7 2.7 0 01-.021-.127.592.592 0 00-.343-.325.932.932 0 00-.496-.062l-.114.018c-.244.037-.416.19-.513.457-.083.233-.098.51-.046.83.034.215.097.404.185.565.04.06.106.083.2.069a.24.24 0 00.07-.019c.264-.128.494-.291.689-.49.24-.249.373-.503.399-.763zm-6.484-.332c.126.124.202.236.227.334.04.157.05.315.024.47a1.771 1.771 0 01-.152.472 1.114 1.114 0 01-.372-.115 2.396 2.396 0 01-.367-.242.418.418 0 00-.222-.004.387.387 0 00-.187.099 2.546 2.546 0 00-.09.415c.063.52.162 1.041.298 1.56.124.477.275.931.451 1.362.08.171.186.381.319.628l.339.623c.042.085.034.16-.022.226l-1.073.248-.143-.039a.319.319 0 01-.1-.157l-.013-.052a11.98 11.98 0 01-.562-1.644 13.673 13.673 0 01-.266-1.258 18.32 18.32 0 01-.167-1.353.34.34 0 00-.009-.147c-.022-.084-.058-.135-.106-.153a.2.2 0 00-.152.008c-.237.144-.44.3-.606.466a2.623 2.623 0 00-.447.618l-.111.026a1.583 1.583 0 01-.227-.77 3.78 3.78 0 010-.405c0-.058.023-.135.068-.232a.544.544 0 01.142-.201 4.44 4.44 0 01.576-.37c.19-.1.402-.18.633-.232.256-.09.447-.155.573-.195a6.06 6.06 0 01.565-.17c.268-.06.497-.082.685-.063a.782.782 0 01.494.247zM18.61 4.072c.546.313 1.023.76 1.43 1.341.358.511.652 1.114.881 1.81.098.296.18.583.24.858.06.276.113.568.155.877l-.068.134-1.138.353A3.35 3.35 0 0020 7.759a.772.772 0 00-.105-.23 1.28 1.28 0 00-.182-.212.84.84 0 00-.552.003c-.163.05-.337.142-.523.274-.137.096-.28.216-.427.358a.519.519 0 00-.104.285 1 1 0 00.06.348c.05.15.14.337.273.558l.212.345c.054.074.103.148.144.22a.63.63 0 01.074.17l-1.166.314a4.323 4.323 0 01-.413-.684 5.989 5.989 0 01-.454-1.26c-.176-.85-.211-1.649-.105-2.395.129-.908.462-1.593 1.002-2.057.104-.048.25-.032.441.048.11.047.255.123.435.228zm-.897 3.006l.88-.523.638-.198.08-.025c.064-.019.08-.078.048-.176a3.6 3.6 0 01-.058-.15c-.21-.456-.533-.8-.97-1.036a.55.55 0 00-.22.036c-.215.207-.357.49-.424.852s-.058.769.026 1.22zm-.967 3.19l.117.192-.063.109-3.002 1.198c-.044.017-.092.007-.141-.027a.284.284 0 01-.104-.124 16.183 16.183 0 01-1.759-4.832 3.224 3.224 0 01-.027-.406 1.54 1.54 0 01.034-.282c.02-.093.098-.186.23-.273.131-.088.315-.18.547-.273a9.482 9.482 0 011.239-.378c.165-.044.384-.09.656-.138l.05.05c.018.019.032.04.041.063.061.151.074.381.034.69-.01.098-.038.241-.079.429a.526.526 0 01-.319.048c-.12-.016-.234-.032-.343-.05a.859.859 0 00-.331.058c-.25.1-.434.3-.546.595-.113.296-.12.568-.02.814a.66.66 0 00.102.175c.045.01.09.012.135.004a.617.617 0 00.14-.04l.093-.037a.615.615 0 00.227-.156c.18-.199.288-.308.326-.329.135-.081.25-.141.341-.177a.832.832 0 01.16-.048.52.52 0 01.165 0l.04.06.04 1.209a1.094 1.094 0 00-.537.073.922.922 0 00-.298.189.765.765 0 00-.19.288c-.06.262-.031.542.089.836.079.195.188.35.326.465.137.113.3.167.486.159a.998.998 0 00.352-.075 1.21 1.21 0 00.456-.318 2.5 2.5 0 00.356-.527l.112-.044.865.83zm-6.196-.18a5.09 5.09 0 012.232 1.772.62.62 0 01.103.146.237.237 0 01.005.186l-.893.447-.084.008a7.978 7.978 0 00-.766-.881 4.958 4.958 0 00-.911-.713.552.552 0 00-.511-.01c-.1.05-.169.13-.2.236-.03.107-.012.232.058.375.306.62.65 1.159 1.033 1.615l-.059.09-1.002.5-.104-.05a19.595 19.595 0 01-.726-1.172 21.813 21.813 0 01-1.812-4.065l.032-.11c.293-.187.533-.336.72-.447.188-.11.39-.22.605-.327a5.73 5.73 0 01.572-.252c.174-.064.323-.099.447-.103a1.39 1.39 0 01.808.18c.236.139.424.348.56.623.12.3.164.629.128.984a4.236 4.236 0 01-.235.968zm-.72-1.16a.82.82 0 00-.056-.145l-.057-.117a.586.586 0 00-.421-.21.902.902 0 00-.486.087 6.86 6.86 0 01-.101.05c-.22.11-.336.309-.347.596-.009.25.06.522.205.816.096.198.212.361.344.49.054.047.124.05.208.007a.212.212 0 00.06-.038c.211-.203.379-.43.503-.68.152-.312.201-.597.147-.856zm-3.317 2.88c.197.069.404.227.621.475.15.17.312.388.484.654.154.236.262.446.326.632.08.236.112.48.097.73-.016.25-.088.478-.215.686-.126.208-.29.382-.49.518a1.931 1.931 0 01-1.646.294 2.57 2.57 0 01-1.088-.476 3.579 3.579 0 01-.844-.923 4.382 4.382 0 01-.407-.79 4.97 4.97 0 01-.251-.889 2.469 2.469 0 01.17-1.615c.219-.473.564-.87 1.036-1.196a1.14 1.14 0 01.725-.12c.252.04.451.17.592.388a.919.919 0 01.089.163c.068.313-.02.553-.261.719a.791.791 0 01-.114.06c-.125-.113-.25-.172-.373-.177a.605.605 0 00-.368.118 1.21 1.21 0 00-.3.3 2.17 2.17 0 00-.233.42c-.099.229-.108.502-.029.815.08.313.222.629.425.94.275.425.587.749.933.97a.962.962 0 00.516.147.857.857 0 00.47-.155.99.99 0 00.388-.564.793.793 0 00-.118-.56.708.708 0 00-.727-.31c-.065-.05-.1-.09-.106-.124l.698-1.13zm-3.39 9.44l.088.07.005.023a3.484 3.484 0 01.062.535 3.95 3.95 0 01-.188 1.41 4.153 4.153 0 01-.556 1.127l-.044.067-.053.068-.131.139h-.123l-.019-.021a3.307 3.307 0 01-.338-.461 2.524 2.524 0 01-.237-.516l-.002-.004-.019.014a2.424 2.424 0 01-.583.97l-.019.018H.888l-.018-.023a4.162 4.162 0 01-.34-.46 3.14 3.14 0 01-.404-.971A4.846 4.846 0 010 22.218a3.561 3.561 0 01.029-.455l.024-.18.046-.293.07-.047a.4.4 0 01.12-.044.71.71 0 01.147-.014 1.264 1.264 0 01.24.027l.126.03.07.095-.054.343-.035.266a4.288 4.288 0 00-.019.75 2.902 2.902 0 00.07.46c.018.076.041.152.068.228a.304.304 0 00.078.109.122.122 0 00.06-.04l.048-.069c.055-.1.102-.21.14-.33.038-.12.067-.25.087-.388.015-.102.026-.225.033-.367.007-.142.01-.306.01-.494 0-.038 0-.08-.004-.126l-.023-.223-.02-.11c.012-.025.025-.061.038-.082a.161.161 0 01.097-.065.521.521 0 01.134-.014 1.918 1.918 0 01.262.026l.145.028.111.078-.01.043a3.579 3.579 0 00-.032 1.484 3.39 3.39 0 00.193.635l.017.016.052-.022.02-.027a.216.216 0 00.02-.046l.006-.012a1.912 1.912 0 00.196-.568 3.96 3.96 0 00.052-.735c0-.116-.018-.27-.056-.464l-.022-.113-.042-.182c.023-.025.064-.07.095-.085a.336.336 0 01.095-.027.773.773 0 01.119-.008 1.892 1.892 0 01.237.021l.028.002.047.011.01.008zm4.434 12.379a1.175 1.175 0 01.293.323.807.807 0 01.115.41.75.75 0 01-.04.242.76.76 0 01-.257.36.997.997 0 01-.196.12 1.292 1.292 0 01-.23.076 1.014 1.014 0 01-.234.03.927.927 0 01-.237-.04 1.045 1.045 0 01-.239-.104.865.865 0 01-.191-.155.68.68 0 01-.184-.466l.002-.052.006-.059a.924.924 0 01.144-.35l.08-.126.033.146a.689.689 0 00.388.475.534.534 0 00.194.035h.051a.244.244 0 00.198-.128.152.152 0 00-.022-.165.337.337 0 00-.044-.046.242.242 0 00-.044-.03l-.197-.09a5.241 5.241 0 01-.212-.106 2.26 2.26 0 01-.153-.087.759.759 0 01-.06-1.244.514.514 0 01.115-.064 1.935 1.935 0 01.28-.075l.045-.007.05-.006a.928.928 0 01.447.063c.11.044.216.11.317.197a.203.203 0 01.052.06c.013.023.022.05.027.08l.002.011-.001.011a.698.698 0 01-.089.24.817.817 0 01-.173.204l-.017.015h-.13l-.017-.034a.48.48 0 00-.07-.099.686.686 0 00-.104-.093.474.474 0 00-.117-.063.332.332 0 00-.114-.02.18.18 0 00-.1.027.157.157 0 00-.036.038.322.322 0 00-.031.059.243.243 0 000 .054.267.267 0 00.014.054l.032.036c.156.081.534.253.654.343zm1.962 0a1.18 1.18 0 01.293.323.778.778 0 01.075.651v.002a.775.775 0 01-.257.36.988.988 0 01-.197.118 1.23 1.23 0 01-.23.077 1.012 1.012 0 01-.234.03.936.936 0 01-.238-.04 1.053 1.053 0 01-.238-.104.862.862 0 01-.191-.155.682.682 0 01-.185-.466.9.9 0 01.026-.187.944.944 0 01.127-.274l.08-.127.033.147a.69.69 0 00.214.365.533.533 0 00.368.145h.052a.244.244 0 00.197-.128.153.153 0 00-.022-.165.252.252 0 00-.088-.075l-.197-.092a5.15 5.15 0 01-.212-.105 2.127 2.127 0 01-.153-.087.747.747 0 01-.355-.645.733.733 0 01.295-.599.525.525 0 01.115-.064c.037-.015.08-.028.127-.041.047-.013.098-.023.152-.033l.047-.008.05-.006a.929.929 0 01.447.063c.11.044.215.11.316.197a.19.19 0 01.052.06.27.27 0 01.028.08l.002.01-.002.012a.743.743 0 01-.262.444l-.017.015h-.129l-.017-.034a.47.47 0 00-.07-.099.651.651 0 00-.105-.093.475.475 0 00-.117-.063.33.33 0 00-.113-.02.171.171 0 00-.1.027.16.16 0 00-.036.038.3.3 0 00-.032.059.243.243 0 000 .054.25.25 0 00.014.054l.032.036c.156.081.534.253.655.343zm1.08-1.938l.048-.01.047-.005c.135 0 .234.067.297.2l.001.003a.328.328 0 01.025.113c0 .047-.01.092-.031.135a.405.405 0 01-.446.21l-.009-.001a.336.336 0 01-.084-.046.26.26 0 01-.06-.067.3.3 0 01-.048-.165.425.425 0 01.157-.318.286.286 0 01.103-.05zm.34 1.002a7.122 7.122 0 00.093 2.25l.005.022-.073.142c-.127 0-.477.019-.57-.001a.109.109 0 01-.043-.019.15.15 0 01-.032-.03h-.024l-.01-.049a.465.465 0 01-.012-.067.158.158 0 01.001-.048l-.002-.247-.006-.233-.028-.848a6.3 6.3 0 01.018-.516 3.919 3.919 0 01.068-.472l.008-.037.083-.026.043-.009a1.053 1.053 0 01.188-.021c.052 0 .09.002.114.007a.246.246 0 01.044.015l.046.023.04.024a.093.093 0 01.035.037.11.11 0 01.01.027.34.34 0 01.005.076zm2.1.616l-.009.108-.003.106c0 .134.02.315.06.546.02.117.037.221.047.312a1.605 1.605 0 01.003.423 1.944 1.944 0 01-.038.208l-.001.003a.173.173 0 01-.022.048.256.256 0 01-.034.043l-.05.043-.145.029-.105.017a3.744 3.744 0 01-.513.042c-.076 0-.147-.002-.213-.006a.692.692 0 01-.11-.017 1.023 1.023 0 01-.386-.182.663.663 0 01-.176-.215.846.846 0 01-.077-.234 1.697 1.697 0 01-.025-.302c0-.257.12-.471.357-.643.096-.07.201-.128.316-.173.11-.044.23-.076.356-.097l.034-.02.036-.032a.4.4 0 00.03-.076.263.263 0 00.01-.073.165.165 0 00-.015-.073.15.15 0 00-.048-.056.245.245 0 00-.092-.04.676.676 0 00-.152-.014.345.345 0 00-.13.026.492.492 0 00-.226.193.241.241 0 00-.03.114v.046l-.041.014-.03.007-.031.001a.25.25 0 01-.13-.036.347.347 0 01-.103-.1.473.473 0 01-.09-.276c0-.063.015-.12.045-.172a1.35 1.35 0 01.086-.13.55.55 0 01.176-.152 1.744 1.744 0 01.237-.1.834.834 0 01.206-.04 1.3 1.3 0 01.11-.004l.067.002.072.004.206.024c.095.011.18.034.252.067a.534.534 0 01.185.135c.05.058.088.128.112.212.023.081.035.175.035.281l-.004.1-.009.109zm-.646 1.226a.101.101 0 00.036-.019.1.1 0 00.024-.03.205.205 0 00.023-.103.845.845 0 00-.028-.194l-.05-.192a.15.15 0 00-.019-.046.092.092 0 00-.022-.023l-.053-.008-.035-.002-.024.001a.309.309 0 00-.12.047.5.5 0 00-.18.23.383.383 0 00-.024.133.236.236 0 00.072.177.241.241 0 00.083.054.302.302 0 00.108.018l.044-.002.038-.006.127-.035zm2.513-1.91a1.116 1.116 0 01.255.471l.002.007a5.427 5.427 0 01.062.789 5.107 5.107 0 01-.124 1.124l-.006.026-.102.066h-.543l-.066-.099.013-.032a2.723 2.723 0 00.205-1.347 3.493 3.493 0 00-.041-.291v-.004a.306.306 0 00-.029-.1.257.257 0 00-.347-.106.253.253 0 00-.086.087l-.066.187a3.337 3.337 0 00-.053.618 3.837 3.837 0 00.123.964l.006.02-.04.102c-.204 0-.41.027-.609-.024l-.013-.02a.55.55 0 01-.074-.173l-.02-.093c-.039-.273-.013-.56-.012-.838l.006-.472a7.42 7.42 0 01.02-.386c.012-.143.029-.3.049-.472l.012-.072a.161.161 0 01.014-.05.122.122 0 01.034-.042.43.43 0 01.132-.073.841.841 0 01.159-.017h.138c.053 0 .096.009.13.026.021.011.04.028.053.049.011.016.02.035.026.057a.228.228 0 01.016.038.171.171 0 01.008.05c0 .02-.01.043-.012.064l.035-.005a.276.276 0 00.047-.018c.043-.023.167-.1.203-.109a.608.608 0 01.153-.019c.055 0 .11.01.166.028a.7.7 0 01.164.078l.012.011zm-6.991 5.069l.084-.01.084-.004a.94.94 0 01.372.075c.116.05.225.125.326.224.1.099.176.207.227.325a.94.94 0 01.077.377l.008.127.004.138c0 .377-.068.695-.203.956a.961.961 0 01-.317.372.781.781 0 01-.442.127H8.05a.878.878 0 01-.32-.07.978.978 0 01-.291-.19l-.008-.008a1.753 1.753 0 01-.27-.534 1.954 1.954 0 01-.093-.609 1.623 1.623 0 01.12-.635 1.266 1.266 0 01.372-.502l.003-.002a.855.855 0 01.349-.157h.003zm.184 1.956c.07 0 .13-.016.18-.046a.353.353 0 00.127-.14.684.684 0 00.067-.19 1.28 1.28 0 00.023-.252l-.003-.101-.009-.092-.014-.087-.021-.087a.593.593 0 00-.124-.249.345.345 0 00-.102-.083.234.234 0 00-.108-.025.325.325 0 00-.192.056.438.438 0 00-.139.179.933.933 0 00-.068.214 1.333 1.333 0 00-.023.256c0 .155.03.297.087.424a.454.454 0 00.124.17.247.247 0 00.154.053h.04zm3.03-1.666a4.594 4.594 0 01.09.482 3.604 3.604 0 01.026.462 6.167 6.167 0 01-.037.574l-.072.642c-.012.047-.028.08-.047.125l-.019.01a.566.566 0 01-.219.073 1.792 1.792 0 01-.254.015h-.148l-.043-.11a.164.164 0 00-.037.017c-.053.033-.098.06-.134.08a.37.37 0 01-.093.037l-.074.013-.041.003-.053.002a.576.576 0 01-.198-.033.53.53 0 01-.093-.047.763.763 0 01-.092-.069.475.475 0 01-.088-.1.582.582 0 01-.063-.123l-.023-.084-.04-.164a3.78 3.78 0 01-.07-.413 4 4 0 01.007-.898l.025-.183.048-.311c.003-.068.023-.092.033-.156l.07-.06.043-.03a.326.326 0 01.1-.035l.052-.008.053-.002a.832.832 0 01.206.027c.036.012.082.023.12.034l.049.11-.094.42c-.03.131-.052.253-.066.365a2.09 2.09 0 00.014.67l.03.16.017.082a.565.565 0 00.089.181c.02.02.041.034.063.043a.171.171 0 00.155-.008.338.338 0 00.088-.073.687.687 0 00.08-.175c.009-.03.018-.066.026-.107a2.756 2.756 0 00.036-.76 3.488 3.488 0 00-.036-.27l-.1-.598.07-.048a.262.262 0 01.11-.044l.056-.007.06-.002c.058 0 .123.007.195.022l.04.008.073.022.038.063.027.054.027.062.018.06zm.98-1.01a3.1 3.1 0 01.038.128.855.855 0 01.015.077c.007.049.012.109.015.178l.004.236-.002.201-.006.183-.022.467-.007.212.003.317c.004.214-.012.64.018.824a2.9 2.9 0 01-.015.34.427.427 0 01-.025.106.157.157 0 01-.06.077.377.377 0 01-.116.045.674.674 0 01-.144.015 1.016 1.016 0 01-.211-.022l-.047-.008-.066-.018-.01-.007c-.018-.015-.03-.041-.038-.08a.934.934 0 01-.011-.103l-.006-.124-.002-.12c0-.875.007-1.748.016-2.622 0-.101.003-.168.01-.198a.253.253 0 01.021-.058.584.584 0 01.037-.062l.002-.001a.223.223 0 01.107-.076.452.452 0 01.13-.02.86.86 0 01.226.035l.05.016.086.037.01.025zm-5.307 1.132c0 .06 0 .145-.115.145l-.55-.004c-.116 0-.115-.08-.115-.141v-.008c.01-.288-.046-.436-.112-.512a.208.208 0 00-.16-.074c-.129 0-.2.079-.24.2-.044.138-.051.332-.051.534 0 .44.23.473.485.51l.047.008c.294.045.496.145.63.267.18.165.238.37.238.54 0 .198-.044.468-.218.661-.124.138-.312.235-.593.235-.1 0-.181-.007-.262-.021a1.64 1.64 0 01-.246-.07l-.089-.033c-.131-.048-.207-.076-.278-.076-.035 0-.062.01-.08.035-.023.034-.037.095-.037.19 0 .015.003.03.005.049l.003.016a.667.667 0 01.004.089c0 .068-.043.087-.112.087l-.064-.003a.68.68 0 00-.153 0c-.066.01-.109.031-.14.046a.194.194 0 01-.085.026c-.046 0-.095-.046-.123-.127a.614.614 0 01-.029-.196c0-.18.056-.327.154-.43a.548.548 0 01.409-.166c.077 0 .166.014.272.04.105.027.226.066.371.12l.024.008a.499.499 0 00.17.042c.108 0 .17-.078.206-.183a1.42 1.42 0 00.05-.422c0-.204-.064-.322-.153-.39a.646.646 0 00-.328-.107l-.027-.003c-.356-.04-.892-.1-.892-.788 0-.306.12-.54.308-.702.21-.183.504-.273.805-.273.317 0 .557.099.727.236.239.192.344.461.344.639v.006zM3.942 21.22l.048-.01.048-.004c.134 0 .233.066.296.199l.001.003c.008.02.014.04.019.057a.304.304 0 01-.025.191.41.41 0 01-.368.22l-.036-.001c-.014-.003-.038-.005-.051-.01a.329.329 0 01-.083-.046.26.26 0 01-.062-.067.302.302 0 01-.047-.164.432.432 0 01.075-.23.317.317 0 01.185-.138zm.34 1.002a7.003 7.003 0 00-.012 1.536 8.154 8.154 0 00.106.714l.004.022-.073.143c-.127 0-.476.018-.57-.002a.11.11 0 01-.042-.018.152.152 0 01-.033-.03h-.024l-.011-.05a.549.549 0 01-.011-.067.178.178 0 01.001-.047l-.002-.248-.006-.233-.028-.848a7.318 7.318 0 01.018-.516 3.7 3.7 0 01.069-.473l.007-.036.083-.026.041-.008a1.022 1.022 0 01.19-.023l.066.003a.265.265 0 01.092.02l.047.023.038.024c.018.012.03.025.036.037a.242.242 0 01.015.103zm1.449-.2a.186.186 0 01.126.094l.009.015v.017c0 .064-.003.127-.009.19a.821.821 0 01-.039.193l-.008.026-.023.012a.132.132 0 01-.04.012l-.041.003-.05-.003a.247.247 0 01-.045-.008l-.023-.005h-.024a.09.09 0 00-.072.03.14.14 0 00-.024.04.196.196 0 00-.013.055 3.022 3.022 0 00.124 1.24c.032.104.068.208.11.312.01.022.019.049.024.078.004.028.007.06.007.096l-.003.034-.008.044a.248.248 0 01-.085.134.32.32 0 01-.152.063.799.799 0 01-.106.007l-.197.003a.179.179 0 01-.041-.008c-.019-.004-.05-.016-.07-.023l-.045-.06-.003-.015a6.648 6.648 0 01-.125-.909 14.087 14.087 0 01-.035-.99v-.01a.172.172 0 00-.007-.08.096.096 0 00-.015-.03l-.012-.012-.04.002-.036.004-.033.01-.09.041-.084-.075v-.03c0-.086.007-.162.02-.225a.816.816 0 01.072-.207l.017-.037h.116a.243.243 0 00.123-.034l.018-.036a.339.339 0 00.018-.058l.026-.149.006-.01a.477.477 0 01.274-.194.98.98 0 01.138-.036c.052-.01.11-.019.176-.026l.043-.005.048.102-.011.026a1.68 1.68 0 00-.075.208.663.663 0 00-.022.174c0 .01.004.018.011.024l.017.012.008.002.163-.03.012.002zm2.077.335a1.082 1.082 0 01.117.52c0 .059-.004.126-.013.202a3.65 3.65 0 01-.037.245c-.035.189-.062.346-.079.469a2.11 2.11 0 00-.026.256l.001.104.005.062.01.052.023.094-.08.243-.079.033h-.545c-.009-.022-.027-.058-.031-.08a2.545 2.545 0 01-.05-.31 3.349 3.349 0 01-.017-.32c0-.193.018-.389.055-.587a3.74 3.74 0 01.157-.578.474.474 0 00-.08-.165.212.212 0 00-.065-.055.154.154 0 00-.07-.017l-.04.003a.305.305 0 00-.132.065.37.37 0 00-.093.13.595.595 0 00-.044.146c-.01.055-.015.118-.015.187a11.318 11.318 0 00.019.773 5.954 5.954 0 00.078.661l.002.014-.031.133h-.605l-.06-.068a.196.196 0 01-.022-.033.152.152 0 01-.013-.039c-.038-.19-.002-1.017-.002-1.276 0-.242.002-.46.006-.651a10.013 10.013 0 01.044-.817c.012-.128.027-.264.045-.408l.002-.016c.018-.026.045-.074.066-.094a.216.216 0 01.1-.05.563.563 0 01.13-.013 1.18 1.18 0 01.223.022l.053.01.094.027.04.13-.126.425a1.197 1.197 0 00-.03.24v.058l.004.031.012.027h.002a.08.08 0 00.025-.008.513.513 0 00.063-.04.74.74 0 01.082-.053.252.252 0 01.074-.027c.057-.009.16-.01.204-.018.07 0 .138.007.2.021a.734.734 0 01.181.065.586.586 0 01.268.275zm2.44-1.088l.018.053c.017.05.03.102.037.152l.008.082.006.096c.003.07.005.15.005.237l-.002.2-.007.183-.021.467-.007.211.002.317c.004.215-.012.64.018.825 0 .15-.005.263-.015.34a.43.43 0 01-.025.106.156.156 0 01-.059.077.383.383 0 01-.117.045.67.67 0 01-.143.014 1.052 1.052 0 01-.211-.021l-.047-.009-.068-.017-.009-.008c-.018-.014-.03-.04-.037-.08a.896.896 0 01-.012-.102l-.006-.124-.002-.12c0-.915.003-1.83.018-2.744a.544.544 0 01.008-.076.255.255 0 01.022-.059c.01-.02.023-.04.037-.06l.001-.002a.224.224 0 01.107-.077.374.374 0 01.13-.02.83.83 0 01.225.036l.051.016.086.036.01.026zm1.117.72l.085-.01.083-.004c.132 0 .256.025.373.075.116.05.224.125.325.224a.946.946 0 01.304.702l.009.126.003.139c0 .376-.067.694-.203.955a.96.96 0 01-.316.373.783.783 0 01-.442.126H11.5a.751.751 0 01-.16-.018 1.028 1.028 0 01-.45-.241l-.009-.009a1.725 1.725 0 01-.27-.533 2 2 0 01-.093-.61c0-.225.04-.437.121-.634a1.26 1.26 0 01.37-.502l.004-.003a.864.864 0 01.35-.157h.002zm.184 1.955c.07 0 .131-.015.181-.045a.355.355 0 00.127-.14.691.691 0 00.067-.19c.015-.075.023-.159.023-.253l-.003-.1-.009-.093-.014-.086-.021-.087a.584.584 0 00-.125-.249.353.353 0 00-.102-.083.238.238 0 00-.108-.026c-.147 0-.257.079-.33.236a.924.924 0 00-.069.213 1.33 1.33 0 000 .479.95.95 0 00.065.202.451.451 0 00.124.17.245.245 0 00.154.052h.04zm3.003-1.884l.042.07v.018c0 .268-.014.517-.041.745-.028.23-.07.439-.124.628a2.61 2.61 0 01-.289.657 2.138 2.138 0 01-.44.511l-.023.02-.103-.023-.013-.013a2.66 2.66 0 01-.416-.527 4.275 4.275 0 01-.12-.212l-.005-.01a6.35 6.35 0 01-.222-.806 4.784 4.784 0 01-.068-.434 3.803 3.803 0 01-.022-.46.294.294 0 01.031-.108l.045-.08.119-.022a1.484 1.484 0 01.208-.018c.044 0 .084.003.118.009a.335.335 0 01.095.032c.023.013.053.05.074.072v.315c0 .165.003.309.01.43.007.124.016.228.03.312.02.132.051.253.093.362.04.107.091.203.152.288l.016.022.011-.008a.272.272 0 00.05-.058l.028-.048.048-.093a2.684 2.684 0 00.155-.748c.007-.087.01-.176.01-.267L14 22.504l-.007-.105-.01-.11-.015-.133.01-.044a.122.122 0 01.016-.036l.021-.03c.02-.022.05-.04.09-.052a.36.36 0 01.113-.015 1.199 1.199 0 01.2.027c.04.008.083.022.121.033l.013.021zm1.908 1.615l.09-.23.063.119a.65.65 0 01.077.306.766.766 0 01-.09.357 1.037 1.037 0 01-.105.162 1.403 1.403 0 01-.143.155.726.726 0 01-.286.169 1.038 1.038 0 01-.33.053 1.035 1.035 0 01-.412-.082.784.784 0 01-.171-.099.554.554 0 01-.123-.131 1.744 1.744 0 01-.135-.245 1.983 1.983 0 01-.161-.565 2.15 2.15 0 01.008-.629c.018-.105.046-.207.084-.303a1.219 1.219 0 01.667-.686.916.916 0 01.556-.037c.09.018.17.05.24.098a.67.67 0 01.182.183c.045.069.08.143.103.224a1.009 1.009 0 01-.077.713.612.612 0 01-.156.189.786.786 0 01-.23.125l-.454.113a.67.67 0 00-.136.066.172.172 0 00-.041.046.08.08 0 00-.011.04l.005.022a.318.318 0 00.144.157c.024.013.05.023.079.032a.661.661 0 00.19.027.74.74 0 00.358-.095.464.464 0 00.214-.252v-.002zm-.495-.79a.11.11 0 00.066-.045.139.139 0 00.025-.081.191.191 0 00-.05-.13.175.175 0 00-.04-.03.367.367 0 00-.132-.04.42.42 0 00-.173.036.438.438 0 00-.145.112.52.52 0 00-.132.348l.008.03.012.005.036-.008c.159-.06.37-.154.525-.198zM5.043 27.253l.032.006c.1.009.208.004.309.004l.01.05a.953.953 0 01.018.185.599.599 0 01-.06.282l-.023.052-.051-.018a.476.476 0 00-.14-.026.246.246 0 00-.057.006.173.173 0 00-.045.017.097.097 0 00-.029.027.18.18 0 00-.022.04c0 .355.011.678.032.968a7.348 7.348 0 00.117.877l.003.014-.029.11-.09.03-.049.012a1.182 1.182 0 01-.242.031.581.581 0 01-.134-.014.359.359 0 01-.11-.046l-.072-.055-.005-.023a3.357 3.357 0 01-.064-.453 5.822 5.822 0 01-.019-.508c.004-.318.01-.636.017-.955a.065.065 0 00-.019-.046.097.097 0 00-.034-.024.135.135 0 00-.048-.008.24.24 0 00-.097.024l-.06.027-.023-.063a.591.591 0 01-.037-.186c0-.051.01-.1.028-.15a.51.51 0 01.08-.137l.019-.023.092-.004.12-.02c.004-.093.017-.18.04-.262a.941.941 0 01.125-.272.71.71 0 01.225-.218.717.717 0 01.297-.093l.04-.004.05-.002a.883.883 0 01.2.023l.02.005.015.016a.297.297 0 01.05.1l.01.054a.56.56 0 01-.03.247l-.034.09-.037.082-.023.046-.049-.014-.061-.014-.045-.005a.13.13 0 00-.046.017.104.104 0 00-.033.035.217.217 0 00-.033.121v.045zm1.703-.049c.054 0 .102.01.144.028.044.02.08.05.11.089a.4.4 0 01.058.126.59.59 0 01.019.15.839.839 0 01-.062.315.57.57 0 01-.073.13.32.32 0 01-.098.086l-.014.007h-.084a.21.21 0 01-.113-.038.526.526 0 01-.106-.093.524.524 0 00-.078-.075c-.014-.01-.024-.016-.029-.016-.013 0-.03.01-.05.026a.301.301 0 00-.075.09 2.301 2.301 0 00-.057.333 3.128 3.128 0 00.016.826 3.477 3.477 0 00.112.51l.003.061-.005.012a.15.15 0 01-.044.061.186.186 0 01-.064.035l-.01.003h-.51l-.063-.08-.002-.015a9.432 9.432 0 01-.102-1.93c.008-.153.02-.306.037-.458l.001-.015.008-.013.016-.042c.006-.011.01-.024.019-.033.037-.042.09-.063.16-.063.017 0 .041.002.07.005l.2.032.064.005h.043l.069.192h.014c.06-.045.24-.194.294-.216a.533.533 0 01.182-.034zm1.333.018l.085-.01.083-.004c.132 0 .256.025.373.076.116.05.225.124.325.223.1.1.177.207.227.325a.94.94 0 01.078.377l.008.127.004.138c0 .377-.068.695-.203.956a.963.963 0 01-.317.372.784.784 0 01-.442.127h-.085a.78.78 0 01-.322-.07 1.082 1.082 0 01-.29-.19l-.007-.008a1.721 1.721 0 01-.27-.534 2.013 2.013 0 01-.093-.609c0-.225.04-.437.12-.635a1.286 1.286 0 01.371-.502l.004-.002a.84.84 0 01.349-.157h.002zm.185 1.956c.07 0 .13-.015.18-.046a.354.354 0 00.127-.14.682.682 0 00.067-.19 1.28 1.28 0 00.023-.252l-.003-.1-.009-.093-.014-.087-.021-.087a.585.585 0 00-.124-.249.35.35 0 00-.103-.083.236.236 0 00-.107-.025c-.148 0-.258.078-.33.235a.898.898 0 00-.07.214 1.33 1.33 0 000 .479c.014.07.036.138.065.201a.444.444 0 00.124.17.243.243 0 00.154.053h.04zm4.014-1.682a1.472 1.472 0 01.255.814 3.705 3.705 0 01.037.509c0 .129-.008.263-.023.4a4.45 4.45 0 01-.068.42l-.01.05-.014.05a.336.336 0 01-.051.104l-.019.027h-.569l-.07-.065-.006-.016a.155.155 0 01-.007-.048v-.019c0-.015.003-.038.01-.065l.001-.005a3.13 3.13 0 00.117-.462 2.703 2.703 0 00.017-.794 2.659 2.659 0 00-.065-.332.427.427 0 00-.193-.214.181.181 0 00-.073-.016.137.137 0 00-.07.018.195.195 0 00-.062.06.366.366 0 00-.053.143 5.377 5.377 0 01.056.388 3.943 3.943 0 01-.066 1.233.334.334 0 01-.085.174l-.019.02h-.586l-.045-.034a.104.104 0 01-.025-.03l-.007-.016c.002-.046 0-.145.011-.181a3.704 3.704 0 00.12-1.26 3.18 3.18 0 00-.036-.283.347.347 0 00-.04-.112.472.472 0 00-.072-.097.35.35 0 00-.08-.01.249.249 0 00-.112.026.33.33 0 00-.102.083.375.375 0 00-.097.254v.008a3.71 3.71 0 00-.028.486 4.765 4.765 0 00.04.621l.027.112.02.097a.896.896 0 01.018.184l-.014.152h-.583l-.093-.081-.003-.025a11.983 11.983 0 01-.062-.611 7.777 7.777 0 01-.02-.612 9.338 9.338 0 01.082-1.222l.004-.034.03-.015a.792.792 0 01.172-.068l.122-.03a.226.226 0 01.065-.003.786.786 0 01.089.011l.088.017.06.015.037.013.023.176.011.007a.043.043 0 00.02.005l.02-.003.03-.01a1.217 1.217 0 01.223-.093.84.84 0 01.24-.036l.007.001c.08.01.154.034.226.07a.863.863 0 01.184.126h.018a1.185 1.185 0 01.254-.14.865.865 0 01.287-.057.702.702 0 01.385.118c.04.028.079.06.115.098l.007.009zm-9.03 5.955a2.789 2.789 0 01.67 1.383l.008.025a.713.713 0 01.011.09.176.176 0 01-.018.076.22.22 0 01-.047.063l-.018.017h-.608l-.088-.033-.007-.035a5.502 5.502 0 00-.08-.333 3.22 3.22 0 00-.212-.558 2.653 2.653 0 00-.156-.266.265.265 0 00-.212-.105.158.158 0 00-.118.048.155.155 0 00-.034.058.301.301 0 00-.013.093c0 .186.01.364.03.534.02.17.05.333.09.487l.012.048-.11.062h-.687l-.07-.088L1.587 35a10.248 10.248 0 01-.097-1.13 12.063 12.063 0 01.025-1.224c.02-.277.051-.553.092-.83l.003-.02.075-.077.293-.028.216-.016.194-.01.204-.003a4.345 4.345 0 01.364.017.963.963 0 01.5.19.793.793 0 01.314.656v.005a1.064 1.064 0 01-.06.276 1.222 1.222 0 01-.135.264c-.045.07-.1.14-.162.21-.05.056-.105.113-.167.172zm-.227-.757a.364.364 0 00.006-.07v-.064a.242.242 0 00-.043-.083.303.303 0 00-.088-.073.467.467 0 00-.242-.067H2.59a.289.289 0 00-.156.042.369.369 0 00-.12.131.834.834 0 00-.093.415.776.776 0 00.048.298l.01.008a.092.092 0 00.038.006l.024-.001c.153-.046.29-.112.413-.2a.853.853 0 00.178-.168.518.518 0 00.09-.174zm2.916.052a3.85 3.85 0 01.106 1.213 5.999 5.999 0 01-.027.305c-.024.214-.05.428-.072.643-.013.047-.028.08-.047.125l-.019.01a.567.567 0 01-.219.072 1.665 1.665 0 01-.254.016h-.148l-.043-.111a.172.172 0 00-.037.017 2.26 2.26 0 01-.135.08.37.37 0 01-.092.038l-.074.012-.041.004-.053.001a.656.656 0 01-.198-.033.54.54 0 01-.185-.115.478.478 0 01-.088-.1.583.583 0 01-.063-.124l-.023-.083-.04-.165a3.396 3.396 0 01-.091-.805c0-.17.009-.338.028-.505l.025-.184.048-.31.001-.029c.007-.039.008-.04.022-.08l.01-.047.07-.06.043-.03a.255.255 0 01.099-.036l.053-.007.053-.003a.955.955 0 01.205.027c.036.013.083.023.12.034l.05.11-.095.42c-.029.131-.05.254-.065.365a2.09 2.09 0 00.014.67l.03.16.017.082a.669.669 0 00.089.182c.02.019.041.033.063.043a.172.172 0 00.155-.008.337.337 0 00.087-.072 1.016 1.016 0 00.08-.177.848.848 0 00.027-.108 2.82 2.82 0 00.048-.508 3.336 3.336 0 00-.048-.52l-.1-.599.07-.048a.26.26 0 01.11-.043l.056-.007.06-.003a.845.845 0 01.193.022l.041.009.075.021c.023.039.043.077.063.117l.028.062a.51.51 0 01.018.06z" fill="#2C2B2A"/><path d="M76.876 23.087c.434.434.705.948.823 1.541.003.016.011.033.015.053a.36.36 0 01.004.052c0 .037-.017.07-.052.101h-.675l-.053-.018a4.55 4.55 0 00-.2-.674 2.567 2.567 0 00-.34-.624.37.37 0 00-.307-.142.265.265 0 00-.191.073c-.051.049-.077.12-.077.216 0 .413.048.792.144 1.137l-.063.032h-.756l-.048-.055a10.365 10.365 0 01-.09-.818 11.53 11.53 0 01.115-2.654l.052-.05a22 22 0 01.57-.047c.146-.009.301-.013.464-.013.156 0 .296.006.421.018.124.012.224.035.301.064a.94.94 0 01.436.312.74.74 0 01.153.482c-.008.193-.088.38-.215.56a2.617 2.617 0 01-.431.454zM84.409 34.6l.047-.12c.053.1.08.204.08.315 0 .13-.032.254-.094.371a1.338 1.338 0 01-.27.343.79.79 0 01-.3.176 1.14 1.14 0 01-.802-.031.665.665 0 01-.304-.236 2.036 2.036 0 01-.259-.568c-.06-.211-.09-.43-.09-.655 0-.25.04-.481.123-.692.082-.211.213-.389.389-.535.215-.18.445-.272.693-.272.078 0 .157.012.238.029.186.04.332.135.438.29a.884.884 0 01.144.505c0 .174-.04.336-.119.485a.646.646 0 01-.402.323c-.234.068-.41.097-.518.129a.536.536 0 00-.176.086c-.06.046-.089.1-.089.157 0 .006 0 .023.01.047a.403.403 0 00.113.16.49.49 0 00.19.102.876.876 0 00.682-.083.624.624 0 00.276-.326zm-.614-.857a.225.225 0 00.116-.08.233.233 0 00.042-.134.294.294 0 00-.035-.138.265.265 0 00-.105-.107.388.388 0 00-.181-.055.52.52 0 00-.422.193.653.653 0 00-.17.445.14.14 0 00.01.045.423.423 0 00.018.045l.04.017c.01.005.021.01.03.007l.06-.014.597-.224zm2.999-.131c-.01.085-.014.17-.014.252 0 .156.023.367.07.634.046.267.07.47.07.605 0 .134-.019.28-.056.439a.164.164 0 01-.047.071.586.586 0 01-.037.034 5.11 5.11 0 01-.266.047 4.011 4.011 0 01-.817.04.87.87 0 01-.24-.054c-.226-.082-.383-.209-.47-.377-.071-.136-.107-.329-.107-.576 0-.268.126-.492.377-.673.211-.152.461-.251.75-.296a.392.392 0 00.116-.086.46.46 0 00.06-.214.243.243 0 00-.102-.205c-.068-.05-.175-.076-.321-.076a.536.536 0 00-.345.14c-.111.092-.167.196-.167.312a.16.16 0 01-.047.005c-.08 0-.15-.042-.21-.125a.46.46 0 01-.088-.272c0-.058.014-.11.042-.158a.883.883 0 01.177-.232.88.88 0 01.221-.121c.095-.039.176-.065.245-.077.068-.013.144-.02.228-.02.046 0 .097.003.153.008a6.9 6.9 0 01.233.026c.205.026.358.094.457.207.099.113.149.284.149.512 0 .07-.005.147-.014.23zm-.648 1.473a.178.178 0 00.11-.09.325.325 0 00.035-.152.943.943 0 00-.035-.24l-.056-.217a.205.205 0 00-.086-.129.45.45 0 00-.168-.014.477.477 0 00-.305.193.554.554 0 00-.128.345.34.34 0 00.105.254.37.37 0 00.268.103c.04 0 .077-.005.112-.012.033-.008.084-.021.148-.04zm1.775-3.226c.009.025.014.045.018.057a.97.97 0 01.04.162c.008.053.013.119.016.195a9.28 9.28 0 01-.005.7c-.02.453-.032.712-.032.775 0 .216.004.482.012.8l.011.5c0 .167-.005.294-.016.377-.01.084-.032.136-.063.155a.5.5 0 01-.26.057 1.423 1.423 0 01-.34-.047c-.013-.01-.023-.062-.029-.155a4.204 4.204 0 01-.009-.274v-.228a209.446 209.446 0 01.01-1.854c.002-.29.007-.59.009-.901 0-.111.003-.181.009-.21a.315.315 0 01.056-.11.175.175 0 01.088-.061.391.391 0 01.126-.02.958.958 0 01.359.082zm-10.47 8.217c-.036.03-.07.051-.115.051a.267.267 0 01-.164-.065c-.055-.043-.108-.089-.12-.148-.067-.301-.131-.613-.229-.928-.117-.38-.241-.7-.38-.956a.08.08 0 00-.052-.037.145.145 0 00-.062-.005.219.219 0 00-.054.111c-.008.044-.013.08-.017.112-.028.25-.042.476-.042.677 0 .22.01.408.033.564.022.156.062.35.119.582.034.143.087.335.156.575l-.042.047h-.68l-.047-.023-.057-.214c-.066-.25-.071-.508-.09-.758a9.488 9.488 0 01.014-1.672c.028-.3.073-.598.133-.896l.076-.061a1.473 1.473 0 01.399-.056.97.97 0 01.159.012.375.375 0 01.126.044.454.454 0 01.085.056c.04.038.084.073.119.116.133.159.24.328.337.494.098.165.182.34.252.522.04-.047.058-.094.076-.135a9.12 9.12 0 01.294-.635c.123-.238.307-.374.522-.418.101-.02.198-.028.29-.028.105 0 .188.006.252.014.012.002.029.003.047.014l.071.042c.124.557.186 1.132.186 1.724 0 .3-.016.6-.048.898a9.602 9.602 0 01-.138.895l-.052.065h-.755c-.016-.037-.024-.065-.019-.08a6.9 6.9 0 00.221-.873 4.943 4.943 0 00.064-1.177 6.301 6.301 0 00-.024-.292.397.397 0 00-.052-.186.645.645 0 00-.057-.06.197.197 0 00-.066.023 1.56 1.56 0 00-.29.483c-.042.102-.102.28-.176.538-.018.064-.042.27-.076.617-.023.238-.068.377-.128.427zm4.007-.39l.047-.116c.054.096.08.198.08.306a.738.738 0 01-.094.362 1.315 1.315 0 01-.275.335.813.813 0 01-.307.171 1.213 1.213 0 01-.816-.03.672.672 0 01-.311-.23 1.943 1.943 0 01-.264-.554 2.212 2.212 0 01-.093-.638c0-.245.043-.47.126-.675.084-.206.217-.38.397-.522a1.11 1.11 0 01.707-.265c.08 0 .16.011.242.028.19.039.34.131.447.283a.83.83 0 01.147.492c0 .17-.04.328-.121.473a.653.653 0 01-.41.316c-.239.066-.418.094-.528.125a.56.56 0 00-.18.084c-.061.045-.09.097-.09.153 0 .006 0 .022.009.046.022.06.064.11.116.156a.501.501 0 00.192.1.925.925 0 00.696-.081.617.617 0 00.283-.319zm-.627-.835a.229.229 0 00.119-.079.221.221 0 00.043-.13.277.277 0 00-.036-.135.264.264 0 00-.107-.104.408.408 0 00-.185-.053.541.541 0 00-.43.188.621.621 0 00-.173.434c0 .012.003.027.01.044a.397.397 0 00.018.044l.04.016c.012.005.022.01.032.007l.061-.014.608-.218zm2.835-.83c.136.142.242.304.28.492.06.293.071.583.071.865 0 .412-.047.823-.142 1.232l-.076.046h-.575l-.033-.046c.174-.393.261-.8.261-1.22a3.78 3.78 0 00-.066-.639.369.369 0 00-.124-.236.376.376 0 00-.246-.086c-.131 0-.259.043-.305.168l-.081.22c-.08.214-.066.459-.066.705 0 .37.05.733.147 1.088l-.019.046h-.54l-.077-.018a.512.512 0 01-.076-.17c-.015-.06-.037-.131-.038-.209-.008-.635.003-1.078.01-1.328.006-.25.03-.567.08-.946.004-.028.011-.055.015-.08a.08.08 0 01.028-.056.362.362 0 01.128-.068.685.685 0 01.166-.016h.162c.05 0 .09.007.118.021.03.014.048.042.058.083a.135.135 0 01.023.07.277.277 0 00-.014.076c0 .015.006.036.02.061a.302.302 0 00.18-.028c.073-.036.143-.083.223-.116.048-.02.104-.018.161-.018.114 0 .23.035.347.106zm-6.881-15.746a.34.34 0 00.01-.092c0-.034.004-.06 0-.078-.022-.096-.09-.17-.192-.225a.668.668 0 00-.32-.082h-.077a.432.432 0 00-.388.225.924.924 0 00-.12.49c0 .132.02.25.063.354.017.04.06.06.124.06a.195.195 0 00.048-.005c.188-.053.358-.129.507-.23.186-.125.302-.264.345-.417zm3.293 1.6l.048-.114a.6.6 0 01.081.303.718.718 0 01-.095.358 1.307 1.307 0 01-.278.33.822.822 0 01-.309.17 1.242 1.242 0 01-.823-.03.678.678 0 01-.314-.227 1.909 1.909 0 01-.265-.549 2.143 2.143 0 01-.093-.63c0-.242.042-.464.126-.668.085-.203.22-.374.4-.516.221-.173.458-.261.713-.261.08 0 .161.01.244.027a.7.7 0 01.45.28.81.81 0 01.149.486.934.934 0 01-.122.468.656.656 0 01-.414.312c-.24.066-.421.094-.532.124a.568.568 0 00-.182.083c-.061.044-.09.096-.09.151 0 .006 0 .022.009.046.023.06.065.11.117.154a.507.507 0 00.194.098.948.948 0 00.701-.08.615.615 0 00.285-.314zm-.632-.825a.233.233 0 00.12-.078.216.216 0 00.043-.128.27.27 0 00-.143-.237.416.416 0 00-.187-.052.55.55 0 00-.433.185.608.608 0 00-.175.43.13.13 0 00.01.043.48.48 0 00.019.043l.04.017c.011.004.022.009.031.006l.063-.013.612-.216zm3.083-.127c-.01.083-.015.164-.015.243 0 .15.024.354.072.612.048.257.072.452.072.583 0 .129-.019.27-.058.423a.16.16 0 01-.047.069.626.626 0 01-.039.032 5.298 5.298 0 01-.272.046 4.375 4.375 0 01-.84.039.945.945 0 01-.247-.053c-.233-.08-.394-.201-.483-.363-.073-.132-.11-.317-.11-.556 0-.258.129-.474.387-.648a1.82 1.82 0 01.77-.285.427.427 0 00.12-.083.423.423 0 00.063-.206.23.23 0 00-.106-.198c-.07-.05-.18-.074-.33-.074a.571.571 0 00-.354.135c-.115.09-.172.19-.172.3a.174.174 0 01-.048.006c-.083 0-.155-.04-.216-.12a.426.426 0 01-.09-.263c0-.056.014-.106.043-.152a.857.857 0 01.181-.224.916.916 0 01.228-.117 1.4 1.4 0 01.251-.074c.07-.012.148-.018.235-.018.047 0 .1.002.157.006.058.005.138.014.24.026.21.024.367.09.469.2.102.108.153.273.153.493 0 .068-.005.142-.014.221zm-.665 1.42a.18.18 0 00.112-.087.296.296 0 00.036-.146.852.852 0 00-.036-.232 10.047 10.047 0 01-.058-.209.198.198 0 00-.088-.123.484.484 0 00-.172-.014.496.496 0 00-.314.186.514.514 0 00-.131.332c0 .098.036.18.107.245a.393.393 0 00.275.1.58.58 0 00.115-.012c.035-.008.087-.02.154-.04zm1.823-3.11c.01.025.015.044.02.056a.885.885 0 01.04.155 1.8 1.8 0 01.016.189 8.494 8.494 0 01-.005.674c-.021.437-.033.686-.033.748 0 .208.004.465.012.77l.012.482c0 .162-.005.284-.016.365-.011.08-.033.13-.065.149a.543.543 0 01-.268.055 1.541 1.541 0 01-.35-.046c-.012-.01-.022-.06-.028-.15a3.788 3.788 0 01-.01-.263v-.22a170.651 170.651 0 01.01-1.787l.01-.87c0-.106.002-.174.009-.201a.297.297 0 01.057-.106.18.18 0 01.091-.06.425.425 0 01.13-.017 1.048 1.048 0 01.368.077zm-8.017 5.301a.471.471 0 01.088.23c0 .1-.02.196-.062.285a1.11 1.11 0 01-.173.26.708.708 0 01-.214-.12 1.428 1.428 0 01-.19-.194.281.281 0 00-.139-.033.273.273 0 00-.133.033 1.32 1.32 0 00-.05.084c-.031.056-.066.104-.074.152-.056.317-.07.644-.07.973 0 .302.017.595.06.876.018.114.054.253.097.42.01.034.048.173.11.418a.114.114 0 01-.05.132h-.713l-.083-.042a.184.184 0 01-.036-.109v-.032c0-.363-.083-.712-.083-1.06 0-.263.013-.526.039-.788.026-.262.065-.54.117-.831a.2.2 0 00.018-.09c0-.053-.013-.088-.04-.105a.118.118 0 00-.097-.017 1.99 1.99 0 00-.456.195c-.132.077-.259.18-.382.308h-.073a.904.904 0 01-.016-.491c.017-.08.04-.16.066-.242a.396.396 0 01.08-.13.36.36 0 01.123-.1c.144-.06.284-.107.42-.142.137-.034.282-.043.435-.051.176-.01.306-.03.391-.038.163-.014.29-.023.382-.023.178 0 .324.018.44.056.114.038.203.11.268.216zm2.291 1.059c.043.084.074.171.094.26.02.09.03.187.03.29 0 .129-.018.293-.055.49-.08.43-.12.706-.12.829 0 .094.003.159.007.195.005.036.016.087.035.153l-.074.221-.046.019h-.556l-.014-.033c-.043-.104-.043-.224-.055-.342a3.346 3.346 0 01-.019-.35c0-.427.081-.864.244-1.31a.678.678 0 00-.11-.23.257.257 0 00-.207-.109.298.298 0 00-.06.005.43.43 0 00-.304.26.975.975 0 00-.073.404c0 .336.007.627.021.874.014.246.044.496.089.75l-.018.081h-.598a.66.66 0 01-.044-.05c-.014-.017-.025-.033-.025-.049-.003-.153 0-.39 0-.706v-.715c0-.565.008-.976.023-1.233.015-.257.043-.546.083-.866l.055-.08c.029-.042.107-.052.211-.052a1.562 1.562 0 01.364.052l.027.09a22.84 22.84 0 00-.138.46 1.285 1.285 0 00-.036.287c0 .053-.003.096.009.122l.032.07a.083.083 0 00.023.007l.027.003c.031 0 .078-.023.14-.069a.411.411 0 01.148-.077 1.136 1.136 0 01.218-.019c.15 0 .284.03.4.09a.608.608 0 01.272.277zm.957-1.242a.383.383 0 01.092-.014c.122 0 .214.06.271.183.017.037.023.07.023.099a.3.3 0 01-.113.228.39.39 0 01-.269.1c-.018 0-.044 0-.073-.009a.23.23 0 01-.13-.098.268.268 0 01-.04-.146c0-.075.023-.147.07-.216a.293.293 0 01.169-.127zm.299 1.048a8.006 8.006 0 00-.014 1.742c.027.274.067.543.12.81l-.051.099h-.589c-.016 0-.03-.014-.044-.03-.013-.018-.022-.026-.025-.026a.255.255 0 01-.01-.104c0-.201-.002-.385-.008-.551-.022-.584-.032-.9-.032-.951 0-.217.006-.408.02-.575a4.8 4.8 0 01.076-.522 1.119 1.119 0 01.294-.047c.056 0 .094.002.115.007a.31.31 0 01.083.035.187.187 0 01.055.038.109.109 0 01.007.033c.002.015.004.03.003.042zm2.157-.019c.132.144.234.309.271.5.058.295.069.59.069.875 0 .418-.046.833-.138 1.248l-.073.047h-.557l-.032-.047c.168-.398.253-.81.253-1.235 0-.205-.026-.42-.064-.647a.38.38 0 00-.12-.24.355.355 0 00-.239-.087c-.127 0-.25.044-.295.17l-.079.222c-.077.217-.063.465-.063.715 0 .375.047.742.142 1.102l-.018.047h-.525l-.073-.019a.53.53 0 01-.074-.17c-.015-.063-.036-.134-.037-.213-.008-.644.004-1.092.01-1.346.006-.253.03-.574.078-.958.003-.028.01-.056.014-.08a.083.083 0 01.027-.057.345.345 0 01.124-.069.637.637 0 01.162-.016h.156a.26.26 0 01.115.02c.028.015.046.043.055.085.015.025.023.05.023.071a.293.293 0 00-.014.077.15.15 0 00.019.062.282.282 0 00.175-.028c.07-.037.139-.085.216-.118.046-.02.1-.019.156-.019.11 0 .222.036.336.108zm2.146 2.863c.022-.008.046-.006.068-.006h.047a.78.78 0 01.272.049c.088.032.16.086.217.16a1.775 1.775 0 01-.264.94c-.024.014-.057.01-.1-.012a.492.492 0 00-.217-.177.89.89 0 00-.288-.04h-.084c-.087 0-.191.059-.312.174-.122.115-.226.173-.313.173a.656.656 0 01-.494-.222.846.846 0 01-.225-.601.75.75 0 01.04-.294.922.922 0 01.175-.307c.033-.04.117-.113.235-.235.025-.026.033-.07.04-.118.006-.048.01-.076.01-.085a2.114 2.114 0 01-.252-.516 1.761 1.761 0 01-.088-.55c0-.217.04-.426.121-.627.08-.2.192-.348.336-.444.17-.113.426-.17.767-.17.094 0 .175-.05.242-.15a1.48 1.48 0 00.145-.336.253.253 0 01.07-.006c.033 0 .058.002.07.006.087.067.156.136.206.204a.6.6 0 01.125.302c-.026.06-.06.11-.105.11h-.085c-.046 0-.077.006-.092.017a.33.33 0 00-.062.075.233.233 0 00.002.102l.018.081a1.837 1.837 0 01.22.876 1.618 1.618 0 01-.17.719 1.148 1.148 0 01-.345.392 3.881 3.881 0 00-.49.137.991.991 0 00-.428.314.29.29 0 00-.07.176c0 .079.04.148.12.21l.104-.027.834-.294zm-.948-1.411c.079.211.222.313.409.313.08 0 .154-.025.222-.075a.455.455 0 00.155-.219.93.93 0 00.052-.32.81.81 0 00-.092-.392c-.062-.113-.148-.202-.267-.216-.156-.017-.28.064-.37.19a.804.804 0 00-.135.477.75.75 0 00.025.242zm3.258-.314c.143.074.234.211.313.343a.803.803 0 01.079.672.776.776 0 01-.267.371 1.176 1.176 0 01-.456.207c-.086.02-.168.033-.248.033a.872.872 0 01-.248-.042 1.005 1.005 0 01-.456-.273.674.674 0 01-.18-.59.731.731 0 01.047-.162c.025-.063.06-.13.106-.202a.83.83 0 00.264.449c.136.12.29.18.462.18h.06a.344.344 0 00.216-.093.262.262 0 00.093-.199.24.24 0 00-.058-.155.37.37 0 00-.122-.103c-.094-.046-.17-.079-.225-.104a3.808 3.808 0 01-.405-.212.785.785 0 01-.17-1.182.593.593 0 01.22-.16 1.68 1.68 0 01.405-.094c.037-.003.072-.005.106-.005.255 0 .489.096.708.282a.186.186 0 01.065.113.764.764 0 01-.272.456h-.078a.703.703 0 00-.218-.24.511.511 0 00-.301-.108.26.26 0 00-.258.192.275.275 0 00.023.18l.055.06.74.386zM73.056 32.8a.408.408 0 00.178.026h.2a.92.92 0 01.018.187.65.65 0 01-.058.277.542.542 0 00-.173-.032.287.287 0 00-.145.034.214.214 0 00-.09.12c0 .393.011.75.035 1.071.023.322.066.642.129.961l-.018.068a1.13 1.13 0 01-.36.064c-.098 0-.178-.014-.232-.054l-.053-.041a3.8 3.8 0 01-.069-.484 6.939 6.939 0 01-.02-.546c0-.118.003-.317.009-.596l.009-.442a.138.138 0 00-.04-.1.184.184 0 00-.138-.055.33.33 0 00-.134.032.422.422 0 01.067-.445.843.843 0 00.162-.018 1.05 1.05 0 01.105-.019c0-.233.056-.433.169-.6a.682.682 0 01.525-.309.924.924 0 01.293.019.21.21 0 01.04.081.39.39 0 01.014.1c0 .058-.011.12-.034.187a1.217 1.217 0 01-.073.177.413.413 0 00-.138-.023.179.179 0 00-.14.089.315.315 0 00-.047.169c0 .047.003.08.01.102zm1.521-.019a.994.994 0 01.89.292.995.995 0 01.311.714c.002.091.013.187.013.287 0 .398-.071.732-.213 1.006-.175.337-.431.505-.77.505h-.093a.82.82 0 01-.325-.07.783.783 0 01-.297-.194 1.564 1.564 0 01-.285-.559 2.11 2.11 0 01-.098-.64c0-.236.042-.458.127-.664.084-.206.21-.383.384-.518a.825.825 0 01.356-.159zm.191 2.127c.178 0 .31-.079.396-.237.071-.13.107-.302.107-.515 0-.079-.004-.152-.013-.219a1.754 1.754 0 00-.04-.196.703.703 0 00-.151-.3.367.367 0 00-.28-.142c-.19 0-.331.099-.423.296a1.265 1.265 0 00-.107.54c0 .18.034.343.102.491.086.188.208.282.365.282h.044zm2.656-2.145c.1 0 .175.032.222.098a.436.436 0 01.071.26.81.81 0 01-.062.315c-.042.1-.094.166-.156.2h-.075c-.054 0-.117-.04-.19-.121-.072-.08-.128-.12-.166-.12a.158.158 0 00-.098.043.47.47 0 00-.102.125 2.83 2.83 0 00-.067.38 3.47 3.47 0 00.018.917c.026.177.063.352.115.525a.248.248 0 01.01.073.114.114 0 01-.076.063h-.516a.562.562 0 01-.036-.045 10.075 10.075 0 01-.124-1.59c0-.329.018-.657.053-.986a.13.13 0 00.015-.036.105.105 0 01.016-.038c.026-.03.068-.045.125-.045.032 0 .092.008.178.023s.148.023.186.023c.024.07.05.139.076.209h.084l.325-.241c.044-.033.108-.032.174-.032zm3.87 1.017c.422.45.686.984.801 1.6.003.016.01.033.014.054.003.02.005.039.005.055a.14.14 0 01-.052.104h-.656l-.052-.019a4.968 4.968 0 00-.195-.7 2.727 2.727 0 00-.33-.647.35.35 0 00-.299-.147.25.25 0 00-.186.076c-.05.05-.075.126-.075.224 0 .428.047.822.14 1.18l-.06.033h-.736l-.047-.057a11.34 11.34 0 01-.088-.85 12.753 12.753 0 01.112-2.753l.05-.051c.227-.023.412-.039.555-.048.143-.01.293-.014.452-.014.152 0 .288.006.41.019.12.012.218.036.293.066a.92.92 0 01.424.324.81.81 0 01.149.5c-.008.2-.086.393-.21.58-.1.15-.239.306-.42.471zm-.089-.842a.375.375 0 00.01-.095c0-.035.004-.063 0-.081a.355.355 0 00-.187-.233.618.618 0 00-.312-.086h-.074c-.162 0-.288.078-.377.233a1.012 1.012 0 00-.117.51c0 .136.019.259.06.366.017.042.06.062.122.062a.179.179 0 00.046-.005c.183-.054.349-.133.494-.238.18-.13.293-.274.335-.433z" fill="#2C2B2A"/><path fill-rule="evenodd" clip-rule="evenodd" d="M50.462 64.872c-.9-.713-3.695-2.681-1.895-3.87 1.298 1.134 4.908 3.502 3.381 5.045l-1.486-1.175zm.328 2.885c6.034-4.369 2.268-5.557-.333-8.508-.17-.199-.374-.116-.592.032-7.398 4.895-1.959 5.57.162 8.482.217.26.22.37.763-.006zM14.103 54.899c1.165.776 1.428-.34.54-.966-.882-.621-1.615-.184-.702 1.126.519.746 1.52 1.646 2.59 2.029 1.45.518 2.717.756 3.494-.067l-1.59-1.675c-.719.535-1.585 1.617-3.202.744 1.463-.598 2.43-1.556 3.53-2.525 1.314 1.067.351.937.446 1.497l1.344 1.412c.868-.902-.117-2.108-1.62-3.058l1.837-1.624c.526-.465.85-.356 1.26.078.743.785-1.198 1.575-1.596 1.903l1.56 1.639c2.554-1.346.389-6.189-3.619-5.042-1.398.4-2.02 1.786-2.331 2.98-.257.777-.095 3.262-1.94 1.55zm12.468 2.919c-1.225-.216-2.369-.529-4.044-1.14-.818 1-1.027 1.224-2.846 2.603-.099.076-.061.196.033.304.192.221 1.725 1.203 2.014 1.292.14.044.25-.042.314-.09 1.44-1.086 1.945-1.907 2.784-2.965.56.162 1.057.283 1.463.337-.957 1.19-1.964 2.326-2.908 3.513a.193.193 0 00-.045.16c.072.272 1.725 1.321 2.09 1.435.13.04.235.01.315-.09 1.574-1.977 3.1-3.99 4.715-6.018.08-.1.077-.2-.007-.296-.15-.17-5.321-3.458-5.359-3.47-.145-.044-.257-.02-.33.073-.455.57-.608 1.06-.997 1.573l2.173 1.343c.35-.45.745-.86 1.105-1.312l1.011.638c-.546.687-.974 1.39-1.481 2.11zm29.34.41l1.45-.527 1.529 2.76c-.548.41-1.106.885-1.337 1.212-.629-1.18-1.024-2.316-1.643-3.445zm1.447 7.877c-.15.009-.257-.039-.315-.145-1.244-2.27-2.486-4.585-3.758-6.906-.058-.106-.03-.202.08-.285.072-.055 5.773-2.148 5.888-2.15.117-.004.21.051.272.166.524.956.88 1.884 1.409 2.855-1.376.726-2.3 1.452-3.158 2.428.582 1.066 1.274 1.947 1.84 2.978.062.115.043.21-.055.283-.22.165-1.895.756-2.203.776zm-15.634-6.068c.068-.318-.058-.383-.385-.413a37.95 37.95 0 00-2.048-.146c-.149.027-.232.098-.244.213-.253 2.48-.417 4.949-.668 7.414-.01.093.032.191.197.252 0 0 .943.093 2.11.197.658.058.56-.081.568-.198.1-1.352-.04-2.52.093-3.97.362.255 1.098.57 1.796.827-.105.997-.157 2.148-.264 3.145.008.211-.01.353.317.39 1.12.124 2.101.19 2.116.186.112-.026.176-.101.188-.225.118-1.158-.154-2.03-.036-3.21a13.205 13.205 0 01-3.98-1.53c1.307-.475 2.155-.753 3.794-.823.057-.544.455-1.26.52-1.897.012-.124-.033-.209-.133-.253-.041-.018-.736-.083-1.717-.161-.474-.038-.533.04-.548.327-.014.286-.194 1.33-.25 1.887a7.077 7.077 0 00-1.72.522c.101-.847.15-1.858.294-2.534zM31.458 57.55c.092-.041.238-.032.438.03l.738.223.922.28c.23.055.356.127.419.207.01.003-1.319 3.425-1.44 3.74.539-.094.86-.246 1.78-.224.321-.868.455-1.78.75-2.57.104-.276.203-.436.295-.476.248-.11 1.733.422 2.099.534.774.184.378.567.3.772l-2.513 6.714c-.03.08-.142.111-.33.058-.642-.183-1.276-.387-1.914-.581-.215-.066-.344-.136-.384-.209-.052-.094 1.27-3.082 1.581-3.918-.685-.008-1.258.159-1.808.3-.4 1.062-.672 2.109-1.065 3.158-.03.081-.14.1-.33.058l-1.914-.581c-.215-.065-.343-.135-.384-.209-.006-.01 2.735-7.296 2.76-7.306zM16.78 45.53l.84 1.234c-.531.28-1.06.566-1.591.846a6.755 6.755 0 00-1.485-.952c.82-.411.759-.535 2.236-1.128zm-8.421 1.906c-.043-.154.02-.241.109-.288 2.36-1.23 4.67-2.526 7.042-3.763.11-.057.222-.038.335.056.045.037 3.2 4.704 3.224 4.82.02.098-.029.18-.148.241-.61.318-1.202.44-1.724.71-1.03-1.151-1.78-1.608-2.977-2.286.092 1.275.348 2.41.977 3.77-1.127.59-2.103 1.25-3.21 1.828-.12.062-.224.058-.313-.008-.034-.026-3.315-5.077-3.315-5.08zm1.687 1.891l.781 1.2c.957-.493 2.301-1.187 3.257-1.683-.183-.654-.334-1.37-.32-1.779-1.378.734-2.427 1.59-3.718 2.262zm61.979 7.988c.732-1.207-.567-1.313-1.164-.388-.592.918-.004 1.558 1.365.522.78-.59 1.674-1.656 1.972-2.724.405-1.444.28-3.07-.75-3.703l-1.697 1.727c.696.613 2.265 1.69 1.48 3.34-.88-1.344-1.696-1.823-2.94-2.751l-2.628-1.96c-.592-.44-.512-.759-.07-1.207.798-.806 2.33.993 2.751 1.33l1.662-1.693c-1.847-2.254-7.046.167-5.24 3.828.628 1.277 1.786 1.801 3.259 2.034.912.145 3.707-.329 2 1.645zm5.208-6.451c.49-1.212-.805-1.197-1.215-.265-.408.925.29 1.48 1.438.374.653-.63 1.329-1.723 1.42-2.765.123-1.409-.307-2.944-1.437-3.453L76.1 46.548c.8.521 2.543 1.404 2.085 3.042-1.119-1.198-2.01-1.58-3.407-2.352l-2.95-1.628c-.663-.367-.645-.676-.296-1.142.63-.837 2.475.737 2.952 1.02l1.31-1.758c-2.24-1.978-6.882.787-4.419 4.106.86 1.158 2.095 1.553 3.584 1.643.923.056 3.576-.644 2.274 1.385zM65.977 59.39c-1.084-.5-4.356-1.818-3.169-3.296 1.602.82 5.763 2.358 4.956 4.12l-1.787-.824zm1.376 2.669c3.84-5.317-.022-5.707-3.485-7.994-.23-.156-.384-.037-.526.145-4.88 6.082.308 5.66 3.32 8.003.295.205.34.307.691-.154zM38.268 35.95c-.011.05.021.155-.152.106-.199-.056-.446-.432-.57-.477-.194-.072-.853-.02-1.576-.023-.585-.003-.76-.057-.956-.094-.305-.039-.388-.398-.4-.693-.362.052-.184.182-.306.444-.309-.105-.54-.375-.647-.666-.174.203-.162.182-.216.41-.246-.053-.056-.257-.02-.464-.143.093-.218.118-.333.264-.027-.049.175-.633.3-.917.111-.254.323-.496-.015-.65-.126.03-.877-.018-1.227-.271-1.197-.866 1.93-2.622 1.155-4.275-.052-.136-.22-.227-.273-.424l-.014-.08a.282.282 0 00-.02-.044c-.24.05.015.487-.057.626-.82-.192.34-1.51.456-2.005.536 0 .62.08 1.13.11h.001c.367.022.725.056 1.071.109.149-.001.309.001.477.006l.308.061 2.864.298c.24.05.459.106.642.166.402 3.988 1.553 2.147 2.005 4.129.08.75-.051 1.777-1.228 2.406-1.176.63-.344.597-.037.452 1.532-.506 1.993-1.515 1.96-2.492.12-.002.557.28.616.334l.202.062-.015.011c-.417.332-.895 1.594-.91 1.435-1.21 1.393-2.38 1.82-2.38 1.82.186.95.328 1.247-.25 2.179 1.352-.288.545-1.758 1.696-2.449 1.014-.608 1.868-1.447 2.31-2.05l-.06.218c.345.816.339.464-.006 1.292.464.38.605 1.412.268 1.817-.353.42-.009.933-.205 1.343-.29.604-.626 1.093-.515 1.61.334 1.557.203 2.556-1.43 2.763-.698.089-1.431.917-2.132.999-.54.063-1.224-.252-2.037.192-2.069.969-2.905-.2-4.023-.085-.68.07-1.676-1.36-1.776-1.68-.14-.445-.65-.91-.54-1.241.38-1.145 2.614-1.393 2.177-2.144-.085-.003-.665.313-1.26.36.15-.022 1.152-1.118 1.713-1.073.41.033.771-.253.847-.3.061-.04-.026-.132-.022-.14-1.464-.475-1.185.425-1.495-.864-.03-.334.742-.557 1.354-.422.269.059.61.12.85.148.662.075 1.573-.304 1.788-.17.41.212.482.467.883.51.54.057.587-.37.129-.811-.301-.29-.868-.586-1.495-.753-.372-.1-.4-.324-.495-.495l-.22-.32c-.458-.305-.096-.386-1.447-1.066.388-1.838-2.154-.163-.71-.603.696-.213.55.532.125.583-.13.016-.683.057-.755.06.113.207.853.27 1.118.19l.04-.005c.288.155.633.557.923.928.697.893 1.264.952 1.504 1.05.6.245 1.407.368 1.313.756zm9.02-24.915l.327.268.139-.368-.858-.303c-.032-.011-.048-.043-.036-.07l.221-.54c.012-.029.048-.043.081-.033l.841.369.07-.15c.03-.063.06-.127.086-.187l-.425-.12c-.033-.008-.052-.039-.042-.067l.143-.404c.01-.028.045-.043.079-.034l.416.169.045-.147c.022-.078.046-.158.074-.23.011-.028.047-.043.08-.033l.587.189c.033.01.05.042.039.07l-.207.358.396.117c.033.01.051.04.041.068l-.142.403c-.01.029-.046.044-.08.035l-.383-.17-.162.37.918.318c.033.011.05.043.037.07l-.257.53c-.013.028-.05.04-.083.029l-.805-.363-.238.579.383.258c.023.016.03.044.018.066l-.235.43c-.014.026-.052.038-.084.025a.065.065 0 01-.02-.012l-.31-.253c-.022.046-.05.095-.068.136-.043.147.941.6.86 1.224.06.744-.722.624-.915.943-.125.22.152.773.218.95.378 1.02 1.044 1.802 1.722 2.574 3.62 4.02 3.728 8.002 1.823 12.415.372 2.293 2.295 6.946 3.12 9.513.572-.014 1.64.02 1.969.133.996.31 1.914.024 2.622.625.367.31.234.99.466 1.401.447.19.96.479 1.459.837a27.53 27.53 0 01-.266.483 4.15 4.15 0 00-.82-.442l-.041.082c.273.122.603.319.692.652-.13.22-.26.438-.394.65-1.007.62-3.071.395-4.376.554-2.532.322-4.692.712-6.829 1.434-1.343.456-3.535 1.48-5.181 1.39l.008-.082.002-.03c.716-.236 1.43-.466 2.138-.7.407-.2.808-.404 1.199-.589 2.241-.77 4.474-1.492 6.985-1.96 1.35-.25 4.63-.225 5.432-.919l.01-.102c-.183-.14-.331-.233-.506-.354-.016-.89 0-1.721-.544-2.134-.363-.266-1.137-.35-1.73-.38-.146.006-.296.018-.447.023-.276-.073-1.204-.113-1.722-.163l.032.107c.035.12.094.224.175.316 2.093 1.281 8.063-.47-2.491 2.898-1.917.648-3.785 1.7-5.675 2.363-1.13.4-2.439.744-3.621 1.037-1.396.345-2.875.361-4.331.54-.378.041-1.835-.144-1.96-.088-.19.132-.785.9-.836 1.157 1.202.934 1.318 1.943 2.787 2.244 1.974.115 3.411 1.741 5.04 1.676 2.852-.397 7.507-2.803 9.62-3.744.94-.413 1.76-1.892 2.733-2.235.948-.33 1.806-.44 2.887-.544-.374.481-.763.936-1.167 1.364a9.586 9.586 0 00-2.307.98c-.9.54-2.56 1.745-3.246 2.569l.311.16c-3.977 1.793-7.799 2.374-11.493 2.099-4.87-.363-9.745-2.56-12.966-5.921.51-.08.998-.219 1.506-.289 1.02.006 2.041-.002 3.06-.004l.006-.069-.075-.067.368-.585.927-.765-.018-.087c-.812-.196-1.962-1.678-2.368-2.316-.192-.313-.673-.726-.667-1.203a1.004 1.004 0 00-1.48.86c.088.643 1.226 1.012 1.05 1.537-.83.456-1.5-.964-2.411-.854-.353.045-1.448.633-2.242 1.027-.086-.13-.17-.26-.254-.393.72-.433 1.623-1.09 2.21-1.29.324-.11.736.133 1.037-.037l.003-.032c.166-.108.018-.236.095-.437.238-.355.47-.708.704-1.052.237-.142.545-.143.996-.218-.437-.2-.206-.783-.068-1.052.922-1.799 2.642-2.835 2.635-2.853-.001-.005-.362-.173-.439-.834-.046-.4.289-.522.622-.737-.602-.091-1.327-.596-.322-2.177-.27.05-1.884-.145-1.873-1.04-.1-.453 2.09-2.838 1.698-3.15-.16-.199-.523-.332-.699-.521-.36-.39.35-1.59.654-2.086-.21-.18-.721.149-.683-.468 1.729-9.576 13.484-9.868 13.666-12.075-.435-.482-.757-1.28.032-1.729.322-.165.947-.196 1.251-.294l.137-.331-.413-.322c-.022-.017-.027-.045-.013-.066l.236-.359c.017-.025.056-.034.087-.02l.013.01zM36.384 44.851c1.265.492 2.897-.245 3.995.55 1.348.973 3.459.352 4.47.084-1.861.18-2.515-.68-2.727-.579-.714.341-2.304-.039-3.725-.383-.405-.099-1.19.165-2.013.328zm15.45-2.163c.87-.53 1.476-1.057 1.89-1.5a.588.588 0 01-.118-.005l-.13-.087c.366-.683.885-.656.13-1.442h-.13c-.196.161-.752.362-1.174.31v-.033c.126-.328.59-.743.914-.976-.025-.186-.132-.32-.263-.453h-.025c-.394.054-.43.134-.724 0 .08-.366.764-.91.048-1.232l-.124-.022c-.174.153-.394.283-.703.209v-.039c.107-.117.213-.235.309-.352v-.413c.118-.055.232-.112.344-.158a.665.665 0 00-.22-.438c-.394.056-.418.223-.907.177l-.088-.105c.18-.148.375-.306.562-.453-.085-.254-.125-.302.046-.529-.065-.067-.119-.141-.171-.197h-.174c-.175.086-.358.185-.538.27v.054c.214.076.293.112.318.292-.138.257-.581.706-1.052.512.358-.429-.03-.364.138-.723.238-.213.482-.43.733-.64.043-.22.083-.434.138-.653.193.062.195.07.4.03v-.03c-.073-.069-.125-.136-.193-.204-.35.052-.262.136-.558.052v-.035c.1-.271.369-.422.439-.751-.088-.094-.183-.183-.269-.273h-.125l-.045.028c.156.627-.462.628-.783 1.031.263.06.513.12.783.181-.012.837-1.021.578-1.22.96-.088.142.236.379.263.589-.257.234-.663.395-1.097.521l-.088-.032-.031-.05c.07-.18.452-.35.34-.595-.059-.129-.251-.154-.31-.337.263-.218.764-.271 1.015-.516.232-.237.058-.602.296-.797l-.164-.156c.17-.335.338-.38.076-.73l.186-.097c.22.054.284.041.464-.033.05-.118.089-.23.138-.36l-.138-.1h-.174c-.274.15-.577.288-.87.438.066.828-.615.526-.86.953.264.086.544.177.816.26.038.406-.94 1.077-1.39.776v-.025c.868-.502.23-.479.3-1.112.1-.12.208-.242.306-.363.137-.295-.181-.434-.169-.618.477.058.52.017.822-.126.05-.138.169-.272.098-.39l-.187-.16c-.806.118-1.05 1.2-2.046 1.526l.085.161c.447.01.645.114.911.232-.006.29-.878 1.073-1.26.828-.194-.127.73-.75-.17-.99v.055c-.224.439-.388.912-1.22 1.034l-.137-.077v-.13c.244-.158.495-.336.52-.62-.1-.13-.37-.29-.257-.386.275-.218.849.017 1.094.076.076-.46.672-.63.214-1.09l-.263.057c-.082.267-.657.662-1.076.727l-.095-.08c.114-.127.233-.264.343-.38.159-.44-.55-.505-.605-.899.223-.248.125-1.003-.4-1.056l-.132.107c.42-.029.578 4.9.296 7.736-.075.752-.01 1.216-.197 1.498-.049.154.006.733-.272 1.125-.428.605-.984 1.152-1.062 1.56-2.173 1.868-.822 1.157.275 1.676.95.37 6.065-1.224 7.383-1.729l.971-.264zm-17.98 4.87c.113.19.176.431.397.523 1.055.362 2.404-1.862.802-2.012-.682.2-1.699.663-1.2 1.49zm23.99.183c-.58.3-2.178 1.343-2.7 1.686-.485.315-1.644 1.249-2.084 1.693 1.311-.312 4.024-2.282 4.785-3.38zm-22.791-2.263c-.19.241-.77.359-1.028.521-.936.612-1.063 2.43.143 2.758 1.47.408 3.05-2.016 1.879-2.802-.332-.06-.661-.404-.994-.477zm1.69-19.007c.154-.306 1.314-2.574 1.522-2.664 1.207.046 2.279.171 3.512.186-.256-.046-3.166-.353-3.266-.478.025-.193.225-.616.278-.739l.02-.046c1.518.333 6.227 1.05 7.22 1.188l-1.564-.677c-.007-.007-4.008-.444-5.603-.638.585-1.475.625-3.012-.353-3.728 2.156-.903 3.8-1.77 4.893-2.115.066-.02.139-.012.207-.017.83-.054 2.334.438 3.287.6.347 1.963.742 5.045.457 6.782-.135.828-.472 1.564-.819 2.046-1.902-.451-3.164-.973-3.638-.819.25.333 8.946 2.449 8.92 2.799-.098.605-7.893-2.738-9.929-2.201l-.059.435c2.09.471 9.702 2.297 9.636 2.77l-.118.408c-.01.18.002.21-.097.31-2.633-.703-8.172-2.473-10.968-2.82-.865-.107-2.866-.523-3.539-.582zm1.37-7.507c.242.287.486.465.568.795.517 2.108-1.432 4.067-2.59 6.425l-.824-.1c.135-.128 2.14-4.083 2.326-4.592.286-.81.55-1.845-.002-2.193.174-.114.348-.226.523-.335zm-1.076.49c1.414 1.22-1.64 5.148-2.37 6.582a53.728 53.728 0 01-1.832-.037c.21-2.424 1.748-4.835 4.202-6.546zm10.304 6.917c.353-.529.679-1.334.777-2.232.19-1.735-.364-4.741-.816-6.72l.01.001c1.228 4.21 1.783 7.5.514 9.082-.143-.04-.306-.085-.485-.131zm3.481.916c.234-2.49-.054-5.78-2.89-10.717.042.007.084.012.128.017.156.08.997 1.201 1.247 1.5 1.904 2.282 3.064 4.933 2.767 9.54-.414-.088-.81-.224-1.252-.34zm.208 3.088c-.505-.482-8.153-1.94-9.6-2.353v.149h-.001c4.713 2.026.944 1.663 1.659 2.448l.102.86s-2.736-1.54-2.59-3.91c1.265.036 2.533.454 3.803.808.33.086.663.176.997.268.956.285 5.123 1.176 5.915 1.508.114.24.007.331-.285.222zm-16.614-2.38c-.164.008-.182-.221-.433.254.257.997.147.997.963.704-.053.22.099.267.229.317-.142.2-.02.479.084.639l.164.25c.142.084 1.04.112 1.862-.343.076-.042.809-.356.869-.404-.489.01-1.136-.77-2.153-.463.191.046.422.079.444.176-.049.05-.448-.087-.532-.095-.222-.011-.5.027-.676-.027.143-.208 1.657-.482 1.953-.486.669-.01 1.716.203 1.765.306.074-.023-.064-.166-.01-.206-.228-.475-1.004-.705-1.673-.889-.686-.102-1.022-.245-1.324-.109-.278.126-.714-.002-1.02.083-.24.067-.118.198-.512.293zM49.76 18.1l-.001-.001-.451-.01.452.011zm-5.476-1.677c.48.062.956.123 1.441.194.577-.633-.385-.912-1.43-.325l-.01.13zm3.223-1.947c-.245.598-.189 1.174.099 1.591l.144.037.133-.099c-.059-.527-.296-.88-.265-1.492l-.11-.037zm-1.013-.372c-.174.143-.178.328-.331.52-.28.257-.648.588-.929.841h.116c.355.056.7.104 1.05.168l.418-1.463-.09-.03a4.916 4.916 0 01-.234-.036zm-.58-.807c.253.348.137.262.648.08.398-.075.76.29 1.05.175.045-.096.093-.158.06-.272-.322-.652-1.667-.743-1.757.017zM35.892 29.832c.1-.052.168-.18.168-.286a.287.287 0 00-.159-.248c.407.043.986.196 1.128.307-.11.117-.803.293-1.137.227zm9.555 13.358c-.2.185-.248.345-.443.495l.094.107c.639-.025 1.244-.326 1.528-.572l-.034-.18-.186-.056c-.107-.004-.226-.02-.34-.03-.21.086-.412.16-.62.237zm.13-1.204c-.125.445-.131.589-.573.873v.125l.055.03c.895-.03 1.622-.44 1.735-.932-.232-.148-.47-.23-.956-.232l-.26.136zm2.005-.116c-.18.161-.08.364-.162.542-.125.138-.37.194-.57.264v.078c.934.294 1.878-.226 1.872-.768l-.263-.136c-.204-.009-.406-.021-.596-.023l-.282.043zm1.885-.043c-.112.094-.52.74-.568.85l.174.099c.094.018.192.041.312.051.452-.207 1.072-.402 1.085-.88l-.27-.12c-.113-.011-.231-.024-.345-.031-.125.007-.262.02-.388.03zm-.174-1.377c-.256.245-.434.794-.572 1.03l.132.082c.602.123 1.409-.532 1.479-.85.073-.142-.195-.265-.44-.316l-.299-.024c-.101.024-.202.058-.3.078zm-1.937.773c-.18.144-.373.277-.562.415l-.077.057.132.1c1.122-.13 1.778-.457 1.784-1.243l-.174-.122-.52-.058c-1.038.505-.262.25-.583.851zm3.025.134v.077l.089.077c.751-.04 1.485-.545 1.475-1.032l-.036-.049c-.162-.067-.245-.083-.532-.083-.47.275-.47.762-.996 1.01zm1.698-.134l.08.08c.526-.074 1.204-.48 1.36-.771v-.136c-.19-.058-.4-.082-.74-.073-.292.183-.62.616-.7.9zm-6.33-.744c-.263.216-.471.895-.651 1.16.092.064.061.056.232.075.64-.214 1.308-.63 1.602-1.052l-.043-.183c-.202-.087-.327-.141-.657-.156-.153.05-.32.107-.483.156zm5.552-1.425c-.186.159-.718.791-.663.929l.089.08c.788-.015 1.338-.471 1.658-.776v-.13c-.196-.09-.32-.16-.65-.18-.15.024-.294.051-.434.076zm-2.18.882v.027l.172.07c.73-.032 1.039-.463 1.39-.746l-.045-.1c-.125-.16-.4-.206-.688-.265-.125.079-.8.917-.828 1.014zm-1.258-.861c-.119.288-.11.627-.282.888l.096.1.208.025c.544-.3 1.426-.486 1.45-1.087l-.213-.127-.269-.025c-.345.105-.724.118-.99.226zm-1.845.471c-.22.156-.44.317-.657.466.342.253 1.885-.241 2.096-.442.03-.156.046-.308.082-.464a.697.697 0 00-.339-.29l-.311-.024c-1.033.314-.52.075-.871.754zm4.452-1.052v.065c.437.264 1.246-.013 1.439-.279.024-.172.058-.34.082-.522-.156-.061-.275-.085-.565-.069-.395.216-.562.57-.956.805zm-2.668-.892c-.137.161.061.318-.089.491-.21.138-.412.285-.604.408l.092.089c.6-.035 1.276-.336 1.478-.629.073-.082.043-.186-.046-.256-.125-.131-.36-.137-.748-.131l-.083.028zm-1.964 0c.161.55.023.51-.26.957v.03c.853.25 1.298-.363 1.567-.648a5.657 5.657 0 00-.12-.282 1.793 1.793 0 00-.794-.18c-.137.04-.262.082-.393.123zm2.795.801l.046.138c.18.054.376.082.706.078.376-.205 1.032-.334 1.128-.7a9.113 9.113 0 01-.352-.345c.29-.288.834-.463 1.18-.743l-.077-.18c-.193-.068-.287-.121-.58-.134-.859.535-1.036 1.439-2.05 1.886zm.089-1.864c-.1.397-.1.502-.43.761l.119.1c.675-.017 1.414-.272 1.414-.73-.095-.058-.177-.116-.27-.176a8.118 8.118 0 01-.433-.058c-.131.042-.269.069-.4.104zm-3.013-.36c-.116.164-.024.248.089.393-.03.235-.232.364-.468.47v.095c.15.05.324.083.6.083.256-.201.525-.402.787-.594l.172-.029.18.105c.076.248-.067.371-.22.545.296.21 1.298-.267 1.396-.523.083-.141-.098-.308-.27-.38-.488-.073-.77-.042-1.086.092-.297-.093-.401-.246-.795-.308-.125.02-.256.035-.385.051zm1.36-1.189c-.513.178.094.439 0 .685-.043.053-.318.12-.22.248l.296.133c.342-.091.532-.216.795-.336.006-.291-.013-.566-.138-.751a9.944 9.944 0 00-.446-.056l-.287.077zm-1.708.033l-.03.073c.097.058.228.12.342.177-.068.177-.114.366-.181.55l.126.075h.18c.446-.17.822-.493.608-.908a2.055 2.055 0 00-.657-.154c-.183.064-.281.058-.388.187zm2.178-3.424c-.118.082-.168.221-.082.37-.232.174-.568.228-.831.388l.043.1c.232.032.47.05.687.083.49-.176.746-.484.507-.859-.119-.029-.217-.05-.324-.082zm-1.652-.541l-.138.083-.04.081c.202.068.44.227.358.377-.08.294-.318.413-.621.551l.132.129c.147-.015.284-.02.44-.02.544-.247.62-.81.213-1.174a13.086 13.086 0 01-.345-.027h.001z" fill="#2C2B2A"/></svg>