<svg width="30" height="31" fill="none" xmlns="http://www.w3.org/2000/svg"><g clip-path="url(#clip0)"><path d="M19.512 16A4.517 4.517 0 0115 20.512 4.517 4.517 0 0110.488 16 4.517 4.517 0 0115 11.488 4.517 4.517 0 0119.512 16zM15 1C6.729 1 0 7.729 0 16s6.729 15 15 15c3.03 0 5.952-.902 8.45-2.609l.042-.03-2.02-2.349-.035.022A11.867 11.867 0 0115 27.925c-6.575 0-11.925-5.35-11.925-11.925C3.075 9.425 8.425 4.075 15 4.075c6.575 0 11.925 5.35 11.925 11.925 0 .852-.095 1.714-.28 2.563-.378 1.548-1.462 2.022-2.275 1.96-.819-.067-1.777-.65-1.783-2.077V16c0-4.184-3.403-7.587-7.587-7.587-4.184 0-7.587 3.403-7.587 7.587 0 4.184 3.403 7.587 7.587 7.587a7.523 7.523 0 005.375-2.24 4.875 4.875 0 003.748 2.24 5.072 5.072 0 003.448-1.01c.899-.683 1.57-1.67 1.942-2.856.058-.192.168-.63.168-.633l.003-.016c.218-.952.316-1.9.316-3.072 0-8.271-6.729-15-15-15z" fill="#FF9E00"/></g><defs><clipPath id="clip0"><path fill="#fff" transform="translate(0 .827)" d="M0 0h30v30H0z"/></clipPath></defs></svg>