<svg width="64" height="64" fill="none" xmlns="http://www.w3.org/2000/svg"><rect x="1" y="10.6" width="62" height="42.8" rx="9" stroke="#A2624A" stroke-width="2"/><path fill-rule="evenodd" clip-rule="evenodd" d="M11.277 35.991c.932-.311.428-1.255-.301-1.04-.724.213-.798 1.035.32 1.265.636.131 1.566.021 2.24-.489.912-.69 1.59-1.439 1.471-2.552l-1.612.01c-.015.876.209 2.229-.972 2.8.302-1.454.19-2.795.13-4.242 1.156-.22.669.383 1.019.692l1.36-.01c-.123-1.233-1.215-1.34-2.39-.904l-.103-2.417c-.03-.691.17-.85.587-.851.754-.003.353 1.925.362 2.432l1.58-.012c.359-2.743-3.253-4.463-4.35-.81-.382 1.274.116 2.657.641 3.689.319.709 1.762 2.272.018 2.44zm43.558-.01c.953-.348.37-1.298-.378-1.056-.742.24-.77 1.083.41 1.284.672.115 1.636-.025 2.309-.567.91-.734 1.652-1.952 1.46-3.088l-1.682.06c.038.896.274 2.705-.924 3.326.232-1.531.07-2.415-.08-3.902l-.32-3.138c-.072-.706.125-.875.562-.888.788-.024.65 2.264.69 2.783l1.647-.06c.209-2.817-3.527-4.636-4.452-.867-.322 1.315-.015 2.46.59 3.617.376.716 1.976 2.271.167 2.495zm-9.033-2.699c-.618-.73-2.536-2.757-1.297-3.78.89 1.15 3.367 3.605 2.316 4.98l-1.019-1.2zm.221 2.755c4.152-3.793 1.566-5.139-.217-8.088-.117-.2-.256-.132-.406-.005-5.092 4.213-1.355 5.17.098 8.054.15.26.151.363.525.039zm-11.088-2.788c-.58-.729-2.39-2.757-1.154-3.78.834 1.15 3.177 3.605 2.113 4.981l-.959-1.2zm.136 2.755c4.156-3.793 1.675-5.138.023-8.087-.108-.2-.246-.133-.396-.005-5.083 4.213-1.47 5.17-.138 8.053.138.26.137.364.51.04zm14.564-.018c.953-.347.37-1.297-.378-1.056-.742.24-.77 1.083.41 1.285.672.115 1.636-.026 2.309-.568.91-.734 1.652-1.951 1.46-3.087l-1.682.058c.038.898.274 2.707-.924 3.327.232-1.531.07-2.415-.08-3.901l-.319-3.138c-.072-.707.125-.875.562-.889.788-.024.65 2.265.69 2.783l1.647-.06c.209-2.816-3.527-4.636-4.452-.867-.322 1.315-.015 2.461.59 3.617.376.716 1.976 2.272.167 2.495zM7.2 28.363l1.076-.03c-.008.56-.01 1.117-.018 1.675-.485.198-.86.452-1.12.676.024-.85-.076-.865.062-2.321zm-1.723 7.553c-.113-.045-.146-.138-.144-.231.04-2.471.024-4.936.065-7.42.002-.115.054-.193.152-.234.04-.016 4.097-.11 4.18-.07.068.036.103.115.1.24-.01.638-.139 1.163-.15 1.708-1.088.22-1.639.574-2.486 1.165.84.577 1.65.954 2.73 1.153-.017 1.183.062 2.28.042 3.44-.002.125-.04.205-.114.241-.028.014-4.373.009-4.375.008zm1.787-.357h1.033l.066-3.403c-.478-.19-.985-.436-1.24-.655-.014 1.451.163 2.707.14 4.058zm14.231-7.52c.052-.064.15-.097.298-.096l.541.005.678.006c.164-.013.265.02.326.078.008 0-.054 3.64-.06 3.975.335-.242.512-.479 1.125-.719.006-.918-.124-1.825-.117-2.662.003-.293.03-.473.08-.538.139-.174 1.249-.088 1.517-.086.557-.042.386.434.384.652l-.058 7.115c-.001.085-.068.147-.205.149-.468.007-.937-.008-1.405-.012-.158-.002-.26-.032-.304-.09-.057-.076.104-3.3.11-4.185-.456.186-.795.508-1.125.798-.011 1.126.06 2.201.05 3.314 0 .085-.069.135-.204.149l-1.406-.013c-.158 0-.26-.032-.304-.09-.007-.008.066-7.733.08-7.75zm7.322.303c.02-.32-.068-.374-.284-.377a16.787 16.787 0 00-1.354.018c-.096.04-.145.116-.144.231.023 2.473.104 4.929.127 7.389.001.092.036.186.149.233 0 0 .625.016 1.399.025.435.005.36-.125.357-.241-.038-1.345-.22-2.489-.242-3.934.256.223.763.476 1.24.673.007.995.061 2.137.067 3.133.022.208.02.35.238.36.743.033 1.392.02 1.401.015.071-.035.108-.114.106-.238-.01-1.155-.256-1.995-.269-3.172-1.072-.217-1.88-.606-2.725-1.196.82-.574 1.355-.917 2.424-1.117-.003-.543.202-1.283.196-1.918 0-.124-.037-.204-.106-.24-.028-.014-.489-.023-1.138-.022-.314 0-.346.083-.334.368.012.284-.026 1.33-.02 1.886-.473.19-.837.436-1.088.655.002-.846-.044-1.85 0-2.53zm10.824-.027l1.082.005c.022.986.045 1.972.066 2.959-.477.185-.982.427-1.233.643-.013-1.256.108-2.398.085-3.607zM38 35.807c-.098-.04-.15-.118-.151-.232-.046-2.429-.076-4.898-.123-7.382-.002-.113.046-.19.142-.227.063-.025 4.321-.028 4.394.007.254.12.07 2.823.077 3.242-1.1.197-1.914.542-2.77 1.132.02 1.14.17 2.15.19 3.254.003.123-.04.202-.125.235-.191.074-1.435.054-1.634-.03zm-19.327-4.982c-.757.483-1.514.846-2.689 1.253 0 1.24-.015 1.531-.39 3.61-.02.114.053.19.152.227.201.074 1.464.04 1.66-.043.095-.04.116-.168.13-.24.298-1.643.209-2.572.196-3.869a5.73 5.73 0 00.94-.513c.007 1.466-.036 2.916-.023 4.373 0 .062.016.113.046.152.16.18 1.516.136 1.764.032.087-.038.131-.118.13-.241-.021-2.428-.084-4.86-.106-7.35-.001-.123-.047-.2-.135-.233-.155-.056-4.402.078-4.428.09-.098.042-.148.12-.147.234.007.7.14 1.175.156 1.795l1.767-.087c-.009-.549.024-1.089.019-1.644l.828-.03c.008.843.087 1.637.13 2.484z" fill="#A2624A"/></svg>