<svg width="32" height="25" fill="none" xmlns="http://www.w3.org/2000/svg"><g clip-path="url(#clip0)"><path d="M6.028 24.774v-1.593c0-.61-.371-1.009-1.009-1.009-.318 0-.663.106-.902.452-.186-.293-.452-.452-.85-.452a.858.858 0 00-.743.372v-.319h-.558v2.549h.558v-1.407c0-.451.239-.664.61-.664.372 0 .558.24.558.664v1.407h.558v-1.407c0-.451.265-.664.61-.664.372 0 .558.24.558.664v1.407h.61zm8.257-2.549h-.903v-.77h-.557v.77h-.505v.505h.505v1.168c0 .584.239.93.876.93.239 0 .504-.08.69-.187l-.16-.478a.873.873 0 01-.477.133c-.266 0-.372-.16-.372-.425V22.73h.903v-.505zm4.726-.053a.749.749 0 00-.664.372v-.319h-.558v2.549h.558V23.34c0-.424.186-.663.53-.663.107 0 .24.026.346.053l.16-.531c-.107-.027-.266-.027-.372-.027zm-7.142.266c-.265-.186-.637-.266-1.035-.266-.638 0-1.062.319-1.062.823 0 .425.318.664.876.744l.265.026c.292.053.451.133.451.266 0 .186-.212.318-.584.318-.371 0-.663-.133-.85-.265l-.265.425c.292.212.69.318 1.089.318.743 0 1.168-.345 1.168-.823 0-.451-.345-.69-.876-.77l-.265-.026c-.24-.027-.425-.08-.425-.24 0-.185.185-.291.478-.291.318 0 .637.132.796.212l.239-.451zm14.814-.266a.748.748 0 00-.664.372v-.319h-.557v2.549h.557V23.34c0-.424.186-.663.531-.663.107 0 .24.026.345.053l.16-.531c-.106-.027-.266-.027-.372-.027zM19.568 23.5c0 .77.531 1.327 1.354 1.327.372 0 .637-.08.903-.292l-.266-.451a1.075 1.075 0 01-.664.239c-.45 0-.77-.319-.77-.823 0-.478.32-.797.77-.823.24 0 .452.08.664.239l.266-.452c-.266-.212-.531-.292-.903-.292-.823 0-1.354.558-1.354 1.328zm5.15 0v-1.275h-.557v.319c-.186-.239-.451-.372-.797-.372-.716 0-1.274.558-1.274 1.328s.558 1.327 1.274 1.327c.372 0 .638-.133.797-.372v.319h.557V23.5zm-2.044 0c0-.452.292-.823.77-.823.451 0 .77.345.77.823 0 .451-.319.823-.77.823-.478-.027-.77-.372-.77-.823zm-6.663-1.328c-.744 0-1.275.531-1.275 1.328 0 .796.531 1.327 1.301 1.327.372 0 .744-.106 1.036-.345l-.266-.398a1.27 1.27 0 01-.743.265c-.345 0-.69-.16-.77-.61h1.885v-.213c.026-.823-.452-1.354-1.168-1.354zm0 .478c.345 0 .584.213.637.61H15.32c.053-.344.292-.61.69-.61zm13.831.85v-2.284h-.557v1.328c-.186-.239-.451-.372-.797-.372-.716 0-1.274.558-1.274 1.328s.558 1.327 1.274 1.327c.372 0 .638-.133.797-.372v.319h.557V23.5zm-2.044 0c0-.452.292-.823.77-.823.451 0 .77.345.77.823 0 .451-.319.823-.77.823-.478-.027-.77-.372-.77-.823zm-18.637 0v-1.275h-.558v.319c-.185-.239-.45-.372-.796-.372-.717 0-1.274.558-1.274 1.328s.557 1.327 1.274 1.327c.372 0 .637-.133.796-.372v.319h.558V23.5zm-2.07 0c0-.452.291-.823.77-.823.45 0 .769.345.769.823 0 .451-.319.823-.77.823-.478-.027-.77-.372-.77-.823z" fill="#000"/><path d="M20.047 2.871h-8.363v15.027h8.363V2.871z" fill="#FF5F00"/><path d="M12.214 10.385a9.583 9.583 0 013.637-7.514A9.499 9.499 0 009.957.827 9.552 9.552 0 00.4 10.385a9.551 9.551 0 009.557 9.557 9.5 9.5 0 005.894-2.044 9.543 9.543 0 01-3.637-7.513z" fill="#EB001B"/><path d="M31.329 10.385a9.551 9.551 0 01-9.558 9.557 9.5 9.5 0 01-5.894-2.044 9.503 9.503 0 003.638-7.513 9.583 9.583 0 00-3.638-7.514A9.499 9.499 0 0121.771.827c5.283 0 9.558 4.301 9.558 9.558z" fill="#F79E1B"/></g><defs><clipPath id="clip0"><path fill="#fff" transform="translate(.4 .827)" d="M0 0h30.929v24H0z"/></clipPath></defs></svg>