<svg width="86" height="25" fill="none" xmlns="http://www.w3.org/2000/svg"><g clip-path="url(#clip0)" fill-rule="evenodd" clip-rule="evenodd"><path d="M8.235 1.071c.755-.004 2.998-.206 3.948 3 .64 2.16 1.66 5.698 3.058 10.615h.57c1.5-5.184 2.53-8.722 3.092-10.615.96-3.24 3.36-3 4.32-3h7.407v23.04h-7.55V10.533h-.506l-4.208 13.578h-5.68L8.478 10.523h-.506v13.588H.422V1.071h7.813zm33.235 0V14.66h.602l5.119-11.173c.994-2.224 3.111-2.415 3.111-2.415h7.306v23.04H49.9V10.523h-.602L44.28 21.697c-.994 2.213-3.212 2.414-3.212 2.414h-7.305V1.071h7.707zM84.245 12.02c-1.075 3.046-4.45 5.228-8.188 5.228h-8.082v6.863h-7.329V12.02h23.6z" fill="#0F754E"/><path d="M76.41 1.071H60.262c.384 5.13 4.801 9.52 9.374 9.52h15.118c.873-4.262-2.13-9.52-8.344-9.52z" fill="url(#paint0_linear)"/></g><defs><linearGradient id="paint0_linear" x1="84.903" y1="7.06" x2="60.262" y2="7.06" gradientUnits="userSpaceOnUse"><stop stop-color="#1F5CD7"/><stop offset="1" stop-color="#02AEFF"/></linearGradient><clipPath id="clip0"><path fill="#fff" transform="translate(.33 .827)" d="M0 0h85.44v24H0z"/></clipPath></defs></svg>