<svg width="25" height="19" fill="none" xmlns="http://www.w3.org/2000/svg"><path clip-rule="evenodd" d="M23.783 6.084l-.996-2.462-3.614.943c-2.095-1.519-4.19-2.776-6.128-3.3-1.99-.524-3.876-.314-5.552.995l-.053.053v.052c0 .629.21.995.472 1.414.157.262.366.576.523.995.472.89.367 1.886.262 2.881-.104.838-.157 1.624.105 2.357.367.681.89.996 1.362 1.258.524.314.995.628 1.257 1.361.21.42.367.838.472 1.31.209.785.47 1.571 1.204 2.147.262.367.576.524.89.629.263.105.472.21.577.471l.052.158.105-.105a11.328 11.328 0 003.562-4.61c.785-1.78 1.257-3.876 1.362-6.18.314-.262.89-.42 1.519-.472.733-.052 1.571 0 2.41.21l.209.052v-.157zm-16.814-2.2c-2.41.89-3.614 2.252-4.452 4.452-.734 1.886-1.362 2.881-.262 5.71.419 1.152 2.252 2.357 3.666 2.619 2.148.419 4.872.052 6.233-.21l.262-.052-.21-.157c-.732-.577-.89-1.048-1.047-1.834-.105-.366-.21-.785-.366-1.257-.158-.471-.577-.733-.996-.995-.576-.367-1.257-.786-1.78-1.99-.262-.839-.21-1.624-.158-2.41.053-.576-.052-4.243-.89-3.876z" stroke="#A2624A" stroke-miterlimit="10"/></svg>