<svg width="30" height="31" fill="none" xmlns="http://www.w3.org/2000/svg"><g clip-path="url(#clip0)" fill="#FFC107"><path d="M15 15.827c4.136 0 7.5-3.364 7.5-7.5s-3.364-7.5-7.5-7.5-7.5 3.364-7.5 7.5 3.364 7.5 7.5 7.5zm0-11.25a3.754 3.754 0 013.75 3.75 3.754 3.754 0 01-3.75 3.75 3.754 3.754 0 01-3.75-3.75A3.754 3.754 0 0115 4.577z"/><path d="M24.945 15.619a1.873 1.873 0 00-2.651 0c-4.02 4.02-10.564 4.02-14.586 0a1.875 1.875 0 10-2.651 2.653 13.977 13.977 0 008.338 4.009L8.05 27.626a1.873 1.873 0 000 2.651 1.873 1.873 0 002.65 0l4.3-4.299 4.3 4.3a1.87 1.87 0 002.65 0 1.873 1.873 0 000-2.652l-5.345-5.345a13.977 13.977 0 008.338-4.01c.733-.732.733-1.92.002-2.652z"/></g><defs><clipPath id="clip0"><path fill="#fff" transform="translate(0 .827)" d="M0 0h30v30H0z"/></clipPath></defs></svg>