<svg width="91" height="25" fill="none" xmlns="http://www.w3.org/2000/svg"><g clip-path="url(#clip0)"><path d="M10.9.829H3.895a.973.973 0 00-.962.821L.1 19.613a.583.583 0 00.577.674h3.345a.972.972 0 00.961-.822l.765-4.845a.972.972 0 01.96-.823h2.218c4.614 0 7.278-2.233 7.973-6.658.314-1.935.014-3.457-.893-4.522C15.01 1.447 13.244.83 10.9.83zm.808 6.56c-.383 2.514-2.304 2.514-4.16 2.514H6.49l.742-4.694a.584.584 0 01.577-.493h.484c1.265 0 2.458 0 3.075.721.368.43.48 1.07.34 1.952zm20.132-.081h-3.355a.585.585 0 00-.577.493l-.148.938-.235-.34c-.726-1.054-2.346-1.406-3.962-1.406-3.707 0-6.873 2.808-7.49 6.746-.32 1.965.136 3.843 1.25 5.153 1.022 1.205 2.485 1.707 4.225 1.707 2.987 0 4.644-1.92 4.644-1.92l-.15.931a.584.584 0 00.576.676h3.021c.48 0 .886-.348.962-.822l1.813-11.482a.581.581 0 00-.575-.674zm-4.677 6.53c-.323 1.916-1.844 3.202-3.784 3.202-.974 0-1.753-.312-2.253-.904-.495-.588-.684-1.425-.526-2.357.302-1.9 1.849-3.229 3.759-3.229.953 0 1.727.317 2.237.914.511.603.714 1.445.567 2.373zm22.542-6.53h-3.371a.977.977 0 00-.806.428l-4.65 6.848-1.97-6.581a.976.976 0 00-.934-.695H34.66a.584.584 0 00-.554.773l3.713 10.896-3.49 4.928a.584.584 0 00.476.922h3.367a.974.974 0 00.8-.418L50.183 8.225a.584.584 0 00-.48-.917z" fill="#283B82"/><path d="M60.866.829H53.86a.973.973 0 00-.96.821l-2.834 17.963a.583.583 0 00.576.674h3.595a.68.68 0 00.672-.575l.804-5.092a.972.972 0 01.96-.823h2.217c4.616 0 7.278-2.233 7.974-6.658.315-1.935.013-3.457-.894-4.522C64.976 1.447 63.21.83 60.866.83zm.808 6.56c-.382 2.514-2.302 2.514-4.16 2.514h-1.056L57.2 5.21a.582.582 0 01.576-.493h.484c1.264 0 2.459 0 3.075.721.368.43.48 1.07.34 1.952zm20.131-.081h-3.353a.581.581 0 00-.575.493l-.149.938-.235-.34c-.727-1.054-2.345-1.406-3.961-1.406-3.707 0-6.872 2.808-7.49 6.746-.319 1.965.135 3.843 1.25 5.153 1.024 1.205 2.484 1.707 4.225 1.707 2.987 0 4.643-1.92 4.643-1.92l-.15.931a.584.584 0 00.578.676h3.02a.973.973 0 00.962-.822l1.814-11.482a.585.585 0 00-.58-.674zm-4.676 6.53c-.322 1.916-1.845 3.202-3.785 3.202-.972 0-1.752-.312-2.252-.904-.496-.588-.683-1.425-.527-2.357.304-1.9 1.85-3.229 3.76-3.229.952 0 1.726.317 2.236.914.514.603.716 1.445.568 2.373zM85.76 1.321l-2.876 18.292a.583.583 0 00.576.674h2.89c.48 0 .889-.348.962-.822l2.836-17.962a.584.584 0 00-.576-.675h-3.237a.585.585 0 00-.575.493z" fill="#469BDB"/></g><defs><clipPath id="clip0"><path fill="#fff" transform="translate(.092 .827)" d="M0 0h90.063v24H0z"/></clipPath></defs></svg>