<svg width="24" height="24" fill="none" xmlns="http://www.w3.org/2000/svg"><path d="M6.873 16.909C1.418 11.564.873 7.091 1.2 5.454 1.527 3.818 3.055.873 4.582 1.091c1.527.218 5.127 4.036 4.69 5.345-.436 1.31-1.854 1.31-1.963 2.51-.109 1.09.437 3.381 2.618 5.563 1.964 1.964 2.946 2.4 4.582 2.727 1.091.218 1.091-1.636 2.837-1.745.981-.11 5.127 2.4 5.454 4.254.327 1.964-1.855 2.837-3.49 3.164-2.292.436-7.092-.764-12.437-6z" stroke="#fff" stroke-width="2" stroke-miterlimit="10" stroke-linejoin="bevel"/></svg>