<svg width="45" height="60" fill="none" xmlns="http://www.w3.org/2000/svg"><g clip-path="url(#clip0)"><path clip-rule="evenodd" d="M26.488 40.281c-2.02-2.645-6.592-.682-9.04 1.042a13.57 13.57 0 01-3.425-12.164c-8.65 4.686-9.81 10.148-5.405 16.142-2.27.791-6.478-.828-7.977.734.213 5.14 1.28 9.222 4.009 11.247 1.562-2.458 2.708-4.973 5.03-6.925 3.827 9.195 9.372 11.846 17.141 6.133-3.645-2.27-6.837-4.8-7.498-8.67.615-2.082 2.849-3.056 4.801-4.633.922-.745 1.614-2.911 2.364-2.916v.01zm-.895-12.299v-.12c-6.051 1.198-9.81-5.17-12.294-8.752 3.692 1.041 6.102 1.317 9.435 3.577 1.442.973 2.431 2.687 3.046 3.645a32.927 32.927 0 011.182-4.369h.057C25 21.552 23.515 19.979 22.552 18a14.382 14.382 0 01-1.297-7.67l.094-.692.448.578c.617.773 1.28 1.508 1.983 2.203 2.042 2.082 3.87 3.775 3.645 8.284a32.597 32.597 0 012.416-5.046 4.768 4.768 0 01-1.307-.864 11.454 11.454 0 01-2.082-2.551c-1.266-2.031-1.484-4.687.359-8.082.281 0 .297 3.52 2 5.468 1.53 1.75 1.64 3.124 1.936 4.441a41.142 41.142 0 012.578-3.817c-1.864-3.18 1.692-9.106 5.727-9.617-2.514 3.754-.88 9.258-5.066 10.149-.661.848-1.593 2.41-2.171 3.275 1.244-.214 1.708-1.255 4.39-2.604 2.16-1.088 4.607-.328 7.289-.255-4.363 2-8.82 5.681-12.773 4.697a33.628 33.628 0 00-2.603 5.41 24.406 24.406 0 011.734-2.083c2.473-2.38 4.42-2.64 7.94-2.968a10.757 10.757 0 001.77-.229l.532-.193-.234.495a8.478 8.478 0 01-2.083 2.463 14.336 14.336 0 01-3.124 2.12 14.52 14.52 0 01-6.947 1.39 23.568 23.568 0 00-1.15 4.858c1.255-1.615 2.119-2.547 4.04-3.5 1.24-.62 3.322-.52 4.874-.744a8.95 8.95 0 002.26-.52 6.248 6.248 0 01-1.953 2.759c-2.03 1.848-5.254 3.02-9.227 2.843v.14a37.724 37.724 0 00-.062 6.723c.151-.703.833-1.443 1.364-1.974 2.255-2.239 8.102-3.369 10.034-4.087l.88-.328-.406.744s-5.983 6.68-10.586 6.832a1.373 1.373 0 01-1.276-.52 32.993 32.993 0 001.48 5.883c.65-2.546 3.524-3.988 5.467-4.733 2.265-.864 4.795-1.12 5.94-.875l.844.198-.562.318c-1.112.73-2.11 1.62-2.963 2.64-1.989 2.124-5.035 4.686-7.998 4.41 1.427 3.645 4.686 6.883 5.915 8.617l-2.338-.13c-3.717-5.321-5.821-10.356-6.66-16.542-1.155.291-5.508-1.65-6.425-2.302a14.34 14.34 0 01-4.29-4.613c2.806.718 5.727 1.161 8.33 2.374a6.046 6.046 0 012.198 1.89 37.79 37.79 0 01.167-4.686l-.01.005z" stroke="#A2624A" stroke-miterlimit="10"/></g><defs><clipPath id="clip0"><path fill="#fff" d="M0 0h44.051v60H0z"/></clipPath></defs></svg>