<svg width="66" height="25" fill="none" xmlns="http://www.w3.org/2000/svg"><g clip-path="url(#clip0)"><path d="M43.778 5.98v11.119a.301.301 0 01-.309.308h-2.267a.301.301 0 01-.309-.308V5.979c0-.176.133-.308.309-.308h2.267c.177.022.309.154.309.308zm17.703-.287h-2.533a.304.304 0 00-.286.22l-2.004 6.584-2.201-6.584c-.044-.132-.154-.198-.287-.198h-1.783a.313.313 0 00-.286.198l-2.202 6.584-2.004-6.584a.304.304 0 00-.286-.22h-2.532c-.088 0-.198.044-.242.132-.066.088-.066.176-.044.265l3.743 11.14c.044.133.154.199.286.199h2.026a.313.313 0 00.286-.198l2.18-6.496 2.18 6.496c.044.132.154.198.286.198h2.026a.313.313 0 00.286-.198L61.833 6.09c.022-.089.022-.199-.044-.265-.11-.088-.198-.132-.309-.132zm3.83 0h-2.267a.301.301 0 00-.308.308v11.12a.3.3 0 00.308.308h2.268a.301.301 0 00.308-.308V6a.315.315 0 00-.308-.308zm-25.717 11.34c.132.154.022.374-.176.374h-2.774a.355.355 0 01-.286-.132l-.463-.573a6.202 6.202 0 01-3.325.991 6.146 6.146 0 01-6.143-6.143 6.146 6.146 0 016.143-6.143 6.146 6.146 0 016.144 6.143 6.182 6.182 0 01-.97 3.325l1.85 2.158zm-5.526-2.466l-1.211-1.476c-.132-.154-.022-.396.176-.396h2.554c.132-.352.198-.749.198-1.145 0-1.827-1.365-3.413-3.237-3.413-1.871 0-3.236 1.586-3.236 3.413 0 1.828 1.365 3.39 3.236 3.39.55.023 1.057-.131 1.52-.373zm-14.664 2.422c.066.462-.089.66-.22.66-.155 0-.353-.198-.595-.55-.242-.375-.33-.793-.198-.991.066-.132.242-.198.44-.132.374.132.528.726.573 1.013zm-2.18.99c.462.397.616.881.374 1.212-.132.176-.352.286-.639.286a1.09 1.09 0 01-.726-.265c-.418-.374-.55-.99-.264-1.32.11-.133.286-.199.506-.199.242 0 .506.11.749.287zm-.793 3.854c2.026 0 4.227.704 6.671 2.862.243.22.573-.044.353-.33-2.4-3.017-4.602-3.59-6.804-4.074-2.708-.594-4.095-2.113-5.064-3.787-.198-.33-.286-.264-.286.154a9.902 9.902 0 00.132 1.894h-.33A7.005 7.005 0 014.1 11.55a7.005 7.005 0 017.001-7.002 6.991 6.991 0 017.002 7.002c0 .264-.022.55-.044.815-.506-.088-1.519-.11-2.223-.044-.265.022-.22.154-.022.176 2.311.418 3.897 1.85 4.271 4.448 0 .066.088.088.11.022a10.547 10.547 0 001.497-5.439c0-5.835-4.734-10.59-10.59-10.59A10.58 10.58 0 00.511 11.527c0 5.835 4.734 10.59 10.59 10.59 1.542.023 3.083-.285 5.329-.285z" fill="#FF8C00"/></g><defs><clipPath id="clip0"><path fill="#fff" transform="translate(.49 .827)" d="M0 0h65.174v24H0z"/></clipPath></defs></svg>