<svg width="16" height="16" fill="none" xmlns="http://www.w3.org/2000/svg"><g clip-path="url(#clip0)" stroke="#FF4600" stroke-width=".5"><path d="M5.035 1.231A1.742 1.742 0 017.073.685a2.242 2.242 0 001.698 0 1.742 1.742 0 012.038.546c.36.465.888.77 1.47.85a1.742 1.742 0 011.492 1.49c.08.583.384 1.112.85 1.472.618.479.842 1.312.545 2.037a2.242 2.242 0 000 1.698 1.742 1.742 0 01-.546 2.038 2.24 2.24 0 00-.849 1.47 1.742 1.742 0 01-1.492 1.492c-.582.08-1.11.384-1.47.85a1.742 1.742 0 01-2.038.545 2.242 2.242 0 00-1.698 0 1.742 1.742 0 01-2.038-.546 2.242 2.242 0 00-1.47-.849 1.742 1.742 0 01-1.492-1.491 2.242 2.242 0 00-.85-1.471 1.742 1.742 0 01-.545-2.038 2.242 2.242 0 000-1.698 1.742 1.742 0 01.546-2.037c.465-.36.77-.889.85-1.471a1.742 1.742 0 011.49-1.492 2.242 2.242 0 001.471-.849z"/><path d="M10.38 4.493L5.448 11.36" stroke-linecap="round"/><circle cx="6.447" cy="5.427" r="1.333"/><circle cx="9.381" cy="10.493" r="1.333"/></g><defs><clipPath id="clip0"><path fill="#fff" d="M0 0h16v16H0z"/></clipPath></defs></svg>