<svg width="16" height="16" fill="none" xmlns="http://www.w3.org/2000/svg"><path d="M12.82 11.317c-.611 0-1.162.237-1.58.619L5.519 8.598c.044-.18.072-.37.072-.562a2.37 2.37 0 00-.072-.562l5.663-3.305c.43.401 1.004.65 1.638.65 1.33 0 2.41-1.08 2.41-2.41a2.411 2.411 0 00-4.82.001c0 .192.029.381.073.562L4.819 6.277a2.392 2.392 0 00-1.638-.65c-1.33 0-2.41 1.08-2.41 2.41a2.412 2.412 0 002.41 2.409c.634 0 1.208-.25 1.638-.65l5.723 3.337c-.04.168-.064.345-.064.526a2.341 2.341 0 102.341-2.342z" fill="#B2A194"/></svg>