<svg width="104" height="16" fill="none" xmlns="http://www.w3.org/2000/svg"><path fill-rule="evenodd" clip-rule="evenodd" d="M9.779.35c-1.23 1.531-2.046 3.18-1.917 5.082.454 1.479 1.479 1.26 1.364 4.435-.077.176-.411.076-.458-.115.111-.75.195-1.478-.04-1.96-1.51-3.046-3.252-4.285-5.19-3.516-.946.472-.987 2.572.465 2.5.513.013.72-.217.768-.474.049-.272-.26-.421-.296-.726-.056-.47.276-1.017 1.341-.73.642.163.992.775 1.059 1.574.032 1.558-1.89 1.918-1.54 3.378.33 1.386 2.13 2.087 4.444 2.057 2.313.03 4.114-.671 4.444-2.057.349-1.46-1.572-1.82-1.54-3.378.067-.8.417-1.411 1.059-1.573 1.065-.288 1.397.258 1.34.73-.036.304-.344.453-.295.725.047.257.255.487.768.473 1.451.073 1.41-2.027.465-2.499-1.939-.769-3.68.47-5.19 3.516-.235.482-.151 1.21-.04 1.96-.047.191-.38.291-.458.115-.115-3.175.909-2.956 1.364-4.435.129-1.901-.688-3.55-1.917-5.082zm-3.15 3.768c-.69-1.363-1.99-2.143-4.431-1.832-.806.102-1.467.989-1.371 1.51.06.333.536.523 1.15.399.945-.192 1.595-.526 2.31-.636.647-.1 1.38-.005 1.877.367.103.077.398.242.466.192zm6.392 0c.69-1.363 1.99-2.143 4.432-1.832.806.102 1.466.989 1.371 1.51-.06.333-.536.523-1.15.399-.946-.192-1.595-.526-2.31-.636-.647-.1-1.38-.005-1.877.367-.103.077-.398.242-.466.192zM9.793 15.532c-.212-.534-1.342-.515-1.571-.754-.38-.394-.428-1.164-.505-.757-.33 1.726-3.279 2.328-3.402.586.492.315 1.044.387 1.187-.17.435-1.7 2.945-1.388 4.291-1.388 1.346 0 3.856-.311 4.291 1.388.143.557.695.485 1.188.17-.124 1.742-3.073 1.14-3.402-.586-.078-.407-.126.363-.506.757-.23.239-1.358.22-1.57.754zm12.171-9.79c.904-.805.067-1.814-1.091-1.781-1.466.002-2.285 1.507-.982 3.5.163.25.034.96.187 1.258-.426-.02-.98-.47-1.634-.475-1.039-.006-2.113.708-1.671 1.987.559.959 1.832.599 1.941-.154.04-.213-.176-.544-.224-.82-.05-.283.073-.507.465-.476.255.026.848.133.923.78.159.166.31-.021.465-.032.109.115-.084.345.048.494.967.85.196 1.8-.248 2.584.407-.345.8-.678 1.026-1.103.174-.326.21-.78.264-1.16.136-.94.204-1.662-1.04-2.724-.33-.28-.356-1.36-.266-1.723.182-.638.393-.837.583-.762.243.097.11.511.285.653.229.184.729.168.969-.046zm-7.645-4.729c1.1-.768 4.663-1.016 7.987.247l.145.067-.006-.003c3.9-2.078 7.818-1.79 11.76 1.437 2.42 2.44 2.521 6.78.876 9.803.917.789 1.777 1.355 2.441 1.622 1.937.592 4.01 1.014 5.407.54 1.635-.554 2.208-2.433 2.993-3.696.418-.672 1.027-1.075 1.779-.944.752.13.945.82.992 1.902.005.114.011.337.134.363.273.01.103-.448.317-.56a.45.45 0 01.43.012c.507-.764.14-1.665.248-1.99.12-.254.184-.07.313-.208.158-.969-1.107-1.518-1.589-2.262-.252-.389-.282-1.193.193-1.378.439.072 1.014.792 1.316.216.247-.47-.245-.543-.354-.921-.156-.543.028-.585-.288-1-.335-.283-.643-.082-1.163-.266-.433-.154-.721-.572-1.136-.693-.185-.054-1.186-.017-1.526.261-.816.669-1.216.712-1.575.26-.274-1.545 1.117-.953 2.079-1.198.162-.041.349-.148.345-.301-.2-.805-1.011-.253-1.468-.448-.249-.072-.29-.411-.603-.452-3.019.09-4.706 2.617-7.662 1.797-2.352-.965-.981-3.57.69-2.738 1.257.625-.754 2.199.434 2.22a5.45 5.45 0 002.096-.414c1.613-.66 3.409-1.807 4.964-1.698 6.757 1.112 8.02 7.434 4.894 11.954-3.363 3.683-7.766 4.341-12.453 2.36-.953-.403-1.843-.956-2.693-1.618a6.485 6.485 0 01-1.614 1.642c-2.328 1.617-6.435 1.413-9.617-.841-.306-.217-1.048-.118-1.17.035.029.14-.03.398.018.569.065.228.21.516.133.746-.15.445-.712.732-1.355.374-1.133-.63-.886-1.711-.115-2.33.604-.484 1.572-.61 2.16-.512 1.062.192 1.83.515 2.636.89 1.19.552 2.491 1.12 5.142.737.12-.017.28-.067.318-.162l-.08-.323c-2.274.205-2.349-1.194-3.523-1.79.074-.174.505-.454.914-.3.944.353 2.429 1.58 3.821 1.49.513-.034 1.06-.447 1.501-.916-1.133-1-2.206-2.18-3.28-3.429l-.144-.586-.497-.177c-.753.413-.51 1.759-.055 2.505.236.386.77.397.744.487-.526 1.443-2.98-.501-2.583-4.033-.004-.224-.345-.255-.41-.556.035-.651-.15-1.063-.577-1.21-.117-.041-.801.01-.942.583-.15.607.375 1.6-.502 1.553-1.436-.077-1.696-1.111-1.765-2.098-.036-.519.103-.98-.113-1.38-.39.168-.548-.766-1.05-1.265C20.442 1.182 18.222.834 16.558.924c-.832.045-1.48.174-2.006.34-.127.039-.179-.166-.234-.25zm8.993.751c1.914 1.046 3.944 2.62 5.639 4.194 1.858 1.725 3.234 3.663 4.652 5.181.251.269.504.524.754.765.168-.249.28-.466.312-.596-.009-.24-.339-.266-.328-.603.006-.302.51-.596.232-1.006-.112-.062-.096-.044-.133-.02-.47.322-.919.593-1.399.16-.873-1.58 1.16-1.889 1.515-3.446.153-.672-.239-2.702-.881-2.385-.225.03-.18.661-.509 1.193-.18.29-.549.409-.823.664-.261.242-.36.8-.59.85-.051-.048-.477-.344-.453-.58.05-.5.025-1.04-.165-1.47-1.434-3.25-5.499-3.958-7.815-2.897l-.008-.004zm17.93 1.657c-2.05 1.344-2.237 3.094-.609 5.257.183.243.414.46.665 1.013.066.105.497 2.481-.846 1.978.103-.892-1.317-1.23-1.69-.498-.642 1.266.535 2.216 2.488 1.975 1.148-.409 1.713-1.185 1.62-2.375-.132-1.46-.778-1.548-1.167-2.322 1.669.722 3.536.461 3.907-1.326.197-.948-.626-1.784-1.496-1.676-1.017.125-1.345 1.164-.654 1.745-.486 1.145-2.413.21-2.846-.937-.385-1.015.168-1.935.672-2.505.045-.05-.027-.313-.044-.33zm52.98 12.229c1.229-1.531 2.046-3.181 1.917-5.082-.454-1.479-1.479-1.26-1.364-4.435.077-.176.411-.077.458.115-.11.75-.195 1.479.04 1.96 1.51 3.045 3.251 4.284 5.19 3.516.946-.472.986-2.572-.465-2.5-.513-.013-.72.217-.768.474-.05.272.26.421.296.726.056.47-.276 1.017-1.341.729-.642-.162-.992-.774-1.059-1.573-.032-1.558 1.89-1.918 1.54-3.378-.33-1.386-2.13-2.087-4.444-2.056-2.313-.03-4.114.67-4.444 2.056-.349 1.46 1.572 1.82 1.54 3.378-.067.8-.417 1.411-1.059 1.573-1.065.288-1.397-.258-1.34-.73.036-.304.344-.453.295-.725-.047-.257-.255-.487-.768-.473-1.451-.073-1.41 2.027-.465 2.499 1.939.768 3.68-.47 5.19-3.517.235-.48.151-1.209.04-1.959.047-.192.38-.291.458-.115.115 3.175-.909 2.956-1.364 4.435-.13 1.901.688 3.55 1.917 5.082zm3.149-3.768c.69 1.363 1.99 2.143 4.432 1.832.806-.102 1.466-.989 1.371-1.51-.06-.333-.536-.523-1.149-.399-.947.192-1.596.526-2.31.636-.648.1-1.38.005-1.878-.368-.102-.076-.398-.24-.466-.19zm-6.39 0c-.691 1.363-1.991 2.143-4.433 1.832-.805-.102-1.466-.989-1.371-1.51.06-.333.536-.523 1.15-.399.946.192 1.595.526 2.31.636.647.1 1.38.005 1.877-.368.102-.076.398-.24.466-.19zM94.207.468c.212.534 1.341.516 1.571.754.38.394.428 1.164.505.758.33-1.727 3.278-2.329 3.402-.587-.492-.314-1.045-.387-1.187.17-.436 1.7-2.945 1.388-4.291 1.388-1.346 0-3.856.312-4.291-1.388-.143-.557-.695-.484-1.188-.17.124-1.742 3.073-1.14 3.402.587.078.406.126-.364.505-.758.23-.238 1.36-.22 1.572-.754zm-12.171 9.79c-.904.805-.067 1.814 1.091 1.781 1.465-.002 2.284-1.507.982-3.5-.163-.25-.034-.96-.188-1.258.427.019.98.471 1.635.474 1.039.006 2.112-.707 1.671-1.986-.559-.96-1.832-.6-1.941.154-.04.212.175.544.224.82.05.283-.073.507-.465.476-.255-.026-.848-.133-.923-.78-.159-.166-.31.022-.465.032-.109-.115.084-.345-.048-.494-.968-.851-.195-1.8.248-2.583-.407.344-.8.677-1.026 1.102-.175.326-.21.78-.264 1.16-.136.94-.204 1.662 1.04 2.724.33.28.356 1.36.266 1.723-.182.639-.393.837-.584.762-.243-.097-.108-.51-.284-.652-.229-.185-.729-.17-.97.045zm7.644 4.729c-1.098.768-4.662 1.016-7.986-.247a14.433 14.433 0 01-.147-.068l.007.004c-3.899 2.078-7.817 1.79-11.76-1.437-2.419-2.44-2.52-6.78-.875-9.802-.917-.79-1.778-1.356-2.441-1.623-1.937-.592-4.01-1.014-5.407-.54-1.635.554-2.208 2.433-2.993 3.697-.418.671-1.027 1.074-1.779.943-.752-.13-.945-.82-.992-1.902-.005-.114-.011-.337-.134-.362-.273-.01-.103.447-.317.559a.45.45 0 01-.43-.012c-.507.764-.14 1.665-.248 1.99-.12.254-.184.07-.313.208-.158.969 1.107 1.518 1.589 2.262.252.389.282 1.193-.193 1.378-.438-.072-1.014-.792-1.316-.216-.247.471.245.543.354.921.156.543-.028.585.288 1 .334.283.643.082 1.163.266.433.154.721.572 1.136.693.185.053 1.186.018 1.526-.261.816-.669 1.216-.712 1.575-.26.274 1.545-1.117.953-2.078 1.198-.163.042-.35.148-.346.302.2.804 1.01.251 1.468.447.249.072.29.411.603.453 3.019-.09 4.706-2.618 7.662-1.798 2.352.965.981 3.57-.69 2.738-1.257-.625.754-2.199-.434-2.22a5.447 5.447 0 00-2.096.414c-1.613.66-3.409 1.807-4.964 1.698-6.757-1.111-8.02-7.434-4.894-11.954 3.363-3.683 7.766-4.341 12.453-2.36.953.403 1.843.956 2.693 1.618a6.476 6.476 0 011.614-1.642c2.328-1.617 6.435-1.413 9.617.84.306.218 1.048.12 1.17-.034-.029-.14.03-.398-.018-.569-.065-.228-.21-.516-.133-.746.15-.445.712-.732 1.355-.374 1.133.63.886 1.712.115 2.33-.604.484-1.572.61-2.16.512-1.062-.192-1.83-.515-2.637-.89-1.19-.552-2.49-1.12-5.141-.737-.12.017-.28.067-.318.162l.08.324c2.274-.206 2.348 1.193 3.523 1.789-.074.174-.505.454-.914.3-.944-.353-2.429-1.581-3.821-1.49-.513.034-1.061.447-1.501.916 1.133 1 2.206 2.18 3.28 3.429l.144.586.497.177c.753-.413.51-1.758.055-2.505-.236-.386-.77-.397-.745-.487.527-1.443 2.98.501 2.584 4.033.004.224.345.255.41.556-.034.651.15 1.063.577 1.21.117.041.801-.01.942-.583.15-.607-.375-1.6.502-1.553 1.436.077 1.696 1.111 1.765 2.098.036.519-.103.98.113 1.38.39-.168.548.766 1.05 1.265 2.188 1.807 4.408 2.156 6.072 2.065.832-.046 1.479-.174 2.006-.339.127-.04.179.165.234.25zm-8.996-.753c-1.913-1.045-3.941-2.618-5.635-4.191-1.858-1.726-3.234-3.664-4.653-5.183a20.192 20.192 0 00-.753-.764c-.168.25-.28.466-.312.596.009.24.339.266.328.603-.007.302-.51.596-.232 1.006.112.063.096.044.133.02.47-.322.919-.593 1.399-.16.873 1.58-1.16 1.89-1.515 3.446-.153.672.239 2.701.881 2.385.225-.03.18-.661.508-1.193.181-.29.55-.409.824-.664.261-.242.36-.8.59-.85.051.048.477.344.453.58-.05.5-.025 1.04.165 1.469 1.433 3.25 5.499 3.96 7.815 2.898l.004.002zM62.76 12.58c2.05-1.344 2.237-3.094.609-5.258-.184-.243-.414-.46-.665-1.013-.066-.105-.497-2.481.846-1.978-.103.892 1.317 1.23 1.69.498.642-1.266-.536-2.217-2.488-1.975-1.148.409-1.713 1.185-1.62 2.375.132 1.46.778 1.548 1.167 2.322-1.669-.722-3.537-.461-3.907 1.326-.197.949.625 1.783 1.496 1.676 1.016-.126 1.345-1.164.654-1.745.486-1.145 2.413-.21 2.846.936.385 1.017-.168 1.936-.672 2.505-.045.051.026.314.044.33z" fill="#2C2B2A"/></svg>