<svg width="30" height="31" fill="none" xmlns="http://www.w3.org/2000/svg"><g clip-path="url(#clip0)"><path d="M30 6.525c-1.116.49-2.304.814-3.544.972a6.116 6.116 0 002.706-3.4 12.292 12.292 0 01-3.9 1.489 6.148 6.148 0 00-10.639 4.206c0 .487.041.956.143 1.402-5.114-.25-9.638-2.7-12.677-6.433a6.192 6.192 0 00-.842 3.109 6.16 6.16 0 002.732 5.11 6.074 6.074 0 01-2.779-.757v.068c0 2.989 2.132 5.471 4.928 6.043a6.14 6.14 0 01-1.613.203c-.394 0-.791-.023-1.164-.105.796 2.435 3.058 4.226 5.747 4.284a12.358 12.358 0 01-7.626 2.623c-.504 0-.988-.022-1.472-.084a17.314 17.314 0 009.435 2.76c11.318 0 17.505-9.375 17.505-17.502 0-.271-.01-.534-.023-.795A12.27 12.27 0 0030 6.525z" fill="#03A9F4"/></g><defs><clipPath id="clip0"><path fill="#fff" transform="translate(0 .827)" d="M0 0h30v30H0z"/></clipPath></defs></svg>