<svg width="30" height="31" fill="none" xmlns="http://www.w3.org/2000/svg"><g clip-path="url(#clip0)"><path d="M12.412 26.679a1 1 0 00-.672.259l-2.596 2.35v-2.37a1 1 0 00-.632-.929 9.873 9.873 0 01-6.224-9.162v-5.148c0-5.431 4.421-9.852 9.854-9.852h5.715c5.433 0 9.854 4.42 9.854 9.852v5.148c0 5.431-4.421 9.852-9.854 9.852h-5.445z" stroke="#fff" stroke-width="2" stroke-linejoin="round"/><path d="M18.494 16.806h0l3.153 2.048-1.01 1.556h-.001s0 0 0 0a1.86 1.86 0 01-2.568.546 1.008 1.008 0 00-.103-.058c.001 0-.065-.033-.197-.104a40.126 40.126 0 01-2.213-1.29c-1.336-.838-2.885-1.925-3.962-3.023h0a25.22 25.22 0 01-3.629-4.776c-.115-.32-.284-.813-.296-1.345-.012-.518.123-1.013.598-1.426 0 0 0 0 0 0l1.401-1.218 2.465 2.836s0 0 0 0a.717.717 0 01-.069 1.008s0 0 0 0l-.415.361a1 1 0 00-.289 1.082c.554 1.603 1.323 2.658 2.227 3.38.886.706 1.836 1.037 2.603 1.29a1 1 0 001.152-.404l.165-.253.001-.002a.711.711 0 01.986-.208z" stroke="#fff" stroke-width="2" stroke-linejoin="round"/><path d="M16.304 10.11a.57.57 0 10-.313 1.098c.851.242 1.53.921 1.77 1.773a.572.572 0 001.1-.31 3.735 3.735 0 00-2.557-2.562z" fill="#fff"/><path d="M20.652 13.521a.571.571 0 00.55-.726 7.255 7.255 0 00-4.964-4.975.57.57 0 10-.313 1.099 6.104 6.104 0 014.177 4.186c.072.252.3.416.55.416z" fill="#fff"/><path d="M15.992 5.159a.571.571 0 10-.313 1.1 10.343 10.343 0 017.077 7.092.572.572 0 001.1-.31 11.494 11.494 0 00-7.864-7.882z" fill="#fff"/></g><defs><clipPath id="clip0"><path fill="#fff" transform="translate(0 .827)" d="M0 0h30v30H0z"/></clipPath></defs></svg>