<svg width="75" height="25" fill="none" xmlns="http://www.w3.org/2000/svg"><path d="M38.435 8.5c-.041 3.342 2.985 5.208 5.257 6.318 2.338 1.137 3.125 1.867 3.116 2.885-.018 1.558-1.867 2.238-3.596 2.273-3.017.046-4.775-.815-6.166-1.467l-1.08 5.085c1.4.645 3.99 1.208 6.678 1.233 6.307 0 10.433-3.114 10.455-7.94.024-6.12-8.473-6.466-8.415-9.204.02-.83.812-1.716 2.547-1.94.86-.113 3.233-.202 5.922 1.045l1.055-4.925A16.095 16.095 0 0048.581.827c-5.936 0-10.111 3.155-10.15 7.673h.003zm25.91-7.249a2.737 2.737 0 00-2.562 1.703l-9.005 21.51h6.303L60.336 21h7.7l.729 3.466h5.554L69.472 1.25h-5.128zm.88 6.268l1.819 8.717h-4.982l3.163-8.717zM30.795 1.25l-4.968 23.214h6.005L36.798 1.25h-6.003zm-8.884 0l-6.252 15.801-2.526-13.436c-.299-1.492-1.469-2.365-2.77-2.365H.149L0 1.926C2.098 2.38 4.477 3.119 5.925 3.9c.883.48 1.135.895 1.426 2.04l4.79 18.524h6.346l9.73-23.213h-6.306z" fill="url(#paint0_linear)"/><defs><linearGradient id="paint0_linear" x1="12.001" y1="9.083" x2="43.978" y2="38.377" gradientUnits="userSpaceOnUse"><stop stop-color="#222357"/><stop offset="1" stop-color="#254AA5"/></linearGradient></defs></svg>