<svg width="30" height="31" fill="none" xmlns="http://www.w3.org/2000/svg"><path d="M15.14 25.831c4.327 0 2.784-2.74 3.118-3.527-.005-.589-.01-1.155.01-1.499.274.078.921.405 2.257 1.704 2.063 2.082 2.59 3.322 4.257 3.322h3.068c.972 0 1.478-.402 1.731-.74.245-.327.484-.9.222-1.793-.684-2.149-4.675-5.86-4.923-6.251.037-.072.097-.168.128-.218h-.002c.787-1.041 3.794-5.546 4.236-7.349a.023.023 0 00.003-.01c.24-.822.02-1.356-.207-1.657-.342-.452-.885-.68-1.62-.68h-3.067c-1.027 0-1.806.518-2.2 1.461-.66 1.677-2.512 5.125-3.9 6.345a79.948 79.948 0 01.008-4.03c.045-1.913.19-3.776-1.796-3.776h-4.822c-1.244 0-2.434 1.359-1.145 2.972 1.127 1.413.405 2.201.648 6.123-.947-1.016-2.633-3.76-3.824-7.266-.334-.949-.84-1.828-2.265-1.828H1.987C.743 7.134 0 7.813 0 8.948c0 2.55 5.646 16.883 15.14 16.883z" fill="#597DA3"/></svg>