<svg width="30" height="31" fill="none" xmlns="http://www.w3.org/2000/svg"><path d="M24.208 16.225c-.032.043-.06.087-.085.133a3.82 3.82 0 00-.132.23 1 1 0 00.044.994c.092.146.258.323.364.436l.006.006c.121.13.277.291.451.472l.08.084c.42.436.952.992 1.497 1.6.546.61 1.091 1.26 1.537 1.876.453.627.753 1.154.877 1.535.087.3.078.502.054.624a.663.663 0 01-.37.482c-.126.064-.337.134-.681.134h-3.068c-.497 0-.811-.148-1.29-.604-.259-.247-.535-.557-.902-.966l-.018-.02c-.366-.41-.8-.895-1.336-1.436l-.014-.013c-1.354-1.317-2.153-1.8-2.683-1.95a1 1 0 00-1.27.905c-.02.352-.017.89-.012 1.415-.05.208-.053.4-.051.531.002.17.017.356.03.508l.006.068c.03.377.038.639-.016.85-.039.156-.109.284-.318.404-.256.147-.773.308-1.769.308-4.221 0-7.745-3.206-10.297-7.04a30.528 30.528 0 01-2.882-5.499 20.513 20.513 0 01-.734-2.149C1.06 9.527 1 9.13 1 8.948c0-.34.104-.506.201-.594.109-.099.339-.22.786-.22h3.068c.48 0 .703.138.843.274.176.172.323.447.477.881 1.22 3.588 2.964 6.47 4.038 7.62a1 1 0 001.73-.743 27.491 27.491 0 01-.018-3.1c.012-.296.024-.567.026-.83.005-.465-.017-.93-.15-1.402-.138-.486-.376-.917-.723-1.352l-.001-.001c-.233-.292-.31-.516-.33-.661a.518.518 0 01.052-.331c.104-.194.36-.356.642-.356h4.822c.34 0 .468.078.514.113.048.037.122.12.186.339.14.48.124 1.156.102 2.09l-.006.21v.001a80.904 80.904 0 00-.008 4.078 1 1 0 001.66.726c.824-.724 1.702-2.015 2.425-3.246.736-1.252 1.387-2.575 1.741-3.473.238-.563.651-.838 1.274-.838h3.068c.52 0 .722.152.82.282a.535.535 0 01.096.222c.02.104.029.282-.05.554a1 1 0 00-.011.042l-.003.009c-.08.33-.304.86-.655 1.543-.342.663-.77 1.405-1.216 2.134-.894 1.463-1.824 2.82-2.192 3.306z" stroke="#fff" stroke-width="2" stroke-linejoin="round"/></svg>