<svg width="30" height="31" fill="none" xmlns="http://www.w3.org/2000/svg"><path d="M3.8 24.228l.894.447.277-.553-.372-.495-.8.601zm2.8 2.8l.6-.8-.495-.372-.553.277.447.895zm-5.6 2.8l-.894-.448a1 1 0 001.341 1.342L1 29.827zm8-20l-.555-.833A1 1 0 008 9.827h1zm12 12v1a1 1 0 00.832-.446L21 21.827zm-8.492-10.95l.987-.164-.986.164zm.28 1.674l-.987.164.986-.164zm-.864 1.992l.555.832-.555-.832zm9.36 6.857l-.832-.555.832.555zm-1.335-3.082l.164-.987-.164.987zm-1.673-.28l-.165.987.165-.986zm-1.993.864l-.832-.555.832.555zM0 15.827c0 3.376 1.117 6.494 3 9.002l1.6-1.202a12.938 12.938 0 01-2.6-7.8H0zm15-15c-8.284 0-15 6.716-15 15h2c0-7.18 5.82-13 13-13v-2zm15 15c0-8.284-6.716-15-15-15v2c7.18 0 13 5.82 13 13h2zm-15 15c8.284 0 15-6.716 15-15h-2c0 7.18-5.82 13-13 13v2zm-9.001-3c2.507 1.884 5.625 3 9.001 3v-2a12.94 12.94 0 01-7.8-2.599l-1.201 1.6zm-4.552 2.895l5.6-2.8-.895-1.789-5.6 2.8.895 1.789zm1.458-6.941l-2.8 5.599 1.79.894 2.799-5.599-1.789-.894zM8 9.827v2h2v-2H8zm11 13h2v-2h-2v2zm-11-11c0 6.075 4.925 11 11 11v-2a9 9 0 01-9-9H8zm1.555-1.168l.426-.284-1.11-1.664-.426.284 1.11 1.664zm1.967.384l.279 1.673 1.973-.329-.28-1.673-1.972.329zm-.153 2.67l-1.924 1.282 1.11 1.664 1.924-1.282-1.11-1.665zm.432-.997a1 1 0 01-.432.996l1.11 1.665a3 3 0 001.295-2.99l-1.973.329zm-1.82-2.341a1 1 0 011.541.668l1.973-.33c-.358-2.147-2.812-3.21-4.623-2.002l1.109 1.664zm11.851 12.007l.284-.427-1.664-1.109-.284.426 1.664 1.11zm-1.719-5.05l-1.673-.279-.329 1.973 1.674.279.328-1.973zm-4.662 1.016l-1.283 1.924 1.664 1.11 1.283-1.924-1.664-1.11zm2.989-1.295a3 3 0 00-2.99 1.295l1.665 1.11a1 1 0 01.996-.432l.329-1.973zm3.676 4.902c1.208-1.81.145-4.265-2.003-4.623l-.328 1.973a1 1 0 01.667 1.541l1.664 1.11z" fill="#fff"/></svg>