<svg width="131" height="32" fill="none" xmlns="http://www.w3.org/2000/svg"><g clip-path="url(#clip0_788_724)" fill="#354934"><path d="M20.985 8.23H4.324V0H0v20.74h4.324v-8.228h16.66v8.229h4.324V0h-4.323v8.23zm54.983.047H59.307V.049h-4.324v20.738h4.324v-8.228h16.661v8.228h4.326V.049h-4.326v8.228zM90.808.05h-6.19v4.28h6.19v16.457h4.324V4.33h6.191V.05H90.808zM126.676 0h-16.705l-4.324 4.281v12.177l4.324 4.281h16.705L131 16.458V4.283L126.676 0zm0 16.458h-16.705V4.283h16.705V16.46v-.002zM50.66 13.302l-3.057-3.027 3.057-3.027V4.284l-.034-.003h.036L46.338 0l-.003.194V0H33.952l-4.32 4.284h16.703v3.947H33.956v4.28h12.379v3.95H33.952l-4.32 4.276h16.703l.003-.052v.056l4.32-4.28h.002v-.001l.002-.002h-.002v-3.156zm-3.855 11.329v1.587h-.27v-.691h-.846v.691h-.27v-1.587h.27v.67h.846v-.67h.27zm1.141 1.373a.753.753 0 01-.26-.58c0-.229.087-.42.26-.579a.923.923 0 01.645-.236c.256 0 .472.078.646.236.173.158.26.35.26.58 0 .23-.087.421-.26.58a.923.923 0 01-.646.235.923.923 0 01-.645-.236zm.194-.996a.547.547 0 00-.185.418c0 .165.061.305.185.418a.643.643 0 00.451.172.64.64 0 00.452-.172.547.547 0 00.185-.418.547.547 0 00-.185-.418.644.644 0 00-.452-.171.641.641 0 00-.451.171zm2.974 1.212h-.734v-1.587h.697c.139 0 .257.042.355.127a.38.38 0 01.148.292.358.358 0 01-.043.175.348.348 0 01-.084.11l-.045.033.027.015a.713.713 0 01.143.123.493.493 0 01.062.109.354.354 0 01.027.139.423.423 0 01-.158.328.577.577 0 01-.393.138l-.002-.002zm-.035-1.373h-.43v.43h.43c.066 0 .121-.02.166-.061a.2.2 0 00.067-.155.202.202 0 00-.067-.155.237.237 0 00-.166-.06zm-.43 1.157h.465a.29.29 0 00.201-.075.238.238 0 00.081-.185.244.244 0 00-.08-.185.28.28 0 00-.202-.075h-.465v.522-.002zm2.062 0a.753.753 0 01-.26-.58c0-.229.087-.42.26-.579a.923.923 0 01.645-.236c.256 0 .472.078.646.236.173.158.26.35.26.58 0 .23-.087.421-.26.58a.923.923 0 01-.646.235.923.923 0 01-.645-.236zm.192-.996a.547.547 0 00-.185.418c0 .165.062.305.185.418a.644.644 0 00.452.172.64.64 0 00.451-.172.547.547 0 00.186-.418.547.547 0 00-.186-.418.644.644 0 00-.451-.171.641.641 0 00-.452.171zm1.947-.377h1.297v.228h-.515v1.361h-.27v-1.361h-.514v-.228h.001zm2.081 0h.685c.163 0 .3.05.41.15.11.1.167.219.167.361a.467.467 0 01-.166.363.588.588 0 01-.41.147h-.418v.568h-.27v-1.587l.002-.002zm.687.228h-.417v.567h.417a.31.31 0 00.216-.081.26.26 0 00.09-.203.26.26 0 00-.09-.202.31.31 0 00-.216-.081zm1.62 1.145a.754.754 0 01-.26-.58c0-.229.087-.42.26-.579a.923.923 0 01.646-.236c.256 0 .472.078.645.236.173.158.261.35.261.58 0 .23-.087.421-.26.58a.923.923 0 01-.646.235.923.923 0 01-.646-.236zm.194-.996a.547.547 0 00-.185.418c0 .165.062.305.185.418a.643.643 0 00.452.172.64.64 0 00.451-.172.547.547 0 00.186-.418.547.547 0 00-.186-.418.644.644 0 00-.451-.171.641.641 0 00-.452.171zm3.698 1.212h-.27v-1.145l-.956 1.145h-.232v-1.587h.27v1.145l.956-1.145h.232v1.587zm2.437 0h-.27v-1.145l-.956 1.145h-.232v-1.587h.27v1.145l.956-1.145h.232v1.587zm-.845-1.997c.033.03.074.046.122.046s.09-.015.122-.046a.15.15 0 00.05-.114h.183c0 .09-.034.167-.101.228a.363.363 0 01-.254.09.37.37 0 01-.254-.09.295.295 0 01-.101-.228h.183c0 .044.017.083.05.114zm2.094.408v.771l.772-.771h.344l-.661.658.71.93h-.33l-.564-.748-.27.271v.476h-.269v-1.587h.27-.002zm3.382 1.589h-.27v-1.145l-.956 1.145h-.232v-1.587h.27v1.145l.956-1.145h.232v1.587zm2.437 0h-.27v-1.145l-.956 1.145h-.231v-1.587h.27v1.145l.955-1.145h.232v1.587zm-.845-1.997c.033.03.074.046.122.046s.09-.015.122-.046a.15.15 0 00.05-.114h.184c0 .09-.035.167-.102.228a.363.363 0 01-.254.09.371.371 0 01-.254-.09.295.295 0 01-.1-.228h.183c0 .044.015.083.05.114zm3.638 1.157c.008.004.02.007.034.012.014.005.04.019.077.04a.358.358 0 01.172.18.356.356 0 01.034.153c0 .13-.06.242-.18.336-.12.094-.28.14-.482.14a.979.979 0 01-.553-.169.594.594 0 01-.082-.064l-.026-.028.172-.158.022.02c.01.01.03.024.062.047.03.022.065.042.1.06.033.016.08.031.135.045a.71.71 0 00.168.02c.124 0 .22-.025.288-.076.069-.051.105-.112.105-.185s-.034-.135-.105-.184a.475.475 0 00-.288-.076h-.208v-.228h.208c.1 0 .178-.02.235-.063.057-.043.084-.094.084-.155 0-.06-.027-.108-.084-.15a.397.397 0 00-.235-.062.538.538 0 00-.211.042.706.706 0 00-.156.084l-.05.042-.172-.158.024-.025a.56.56 0 01.074-.058.713.713 0 01.283-.13.847.847 0 01.208-.025c.182 0 .326.04.43.12a.365.365 0 01.071.536.624.624 0 01-.07.065.354.354 0 01-.062.039l-.026.012.004.001zm.956.84l.71-1.587h.27l.71 1.587h-.281l-.184-.42h-.76l-.184.42h-.281zm.844-1.305l-.281.658h.563l-.282-.658zm2.364 1.305h-.735v-1.587h.697c.139 0 .257.042.355.127a.38.38 0 01.148.292.358.358 0 01-.043.175.35.35 0 01-.084.11l-.045.033.027.015a.713.713 0 01.143.123.497.497 0 01.062.109.354.354 0 01.027.139.423.423 0 01-.158.328.576.576 0 01-.393.138l-.001-.002zm-.037-1.373h-.429v.43h.43c.067 0 .121-.02.166-.061a.2.2 0 00.067-.155.202.202 0 00-.067-.155.237.237 0 00-.166-.06zm-.429 1.157h.466a.288.288 0 00.2-.075.239.239 0 00.081-.185.244.244 0 00-.08-.185.288.288 0 00-.201-.075h-.466v.522-.002zm2.062 0a.753.753 0 01-.261-.58c0-.229.087-.42.26-.579a.923.923 0 01.646-.236c.256 0 .472.078.645.236.174.158.261.35.261.58 0 .23-.087.421-.26.58a.923.923 0 01-.646.235.923.923 0 01-.645-.236zm.192-.996a.547.547 0 00-.185.418c0 .165.061.305.185.418a.643.643 0 00.451.172.64.64 0 00.452-.172.547.547 0 00.185-.418.547.547 0 00-.185-.418.644.644 0 00-.452-.171.641.641 0 00-.451.171zm1.948.984h.098s.02-.015.031-.03c.012-.016.036-.048.07-.099a.98.98 0 00.09-.168 1.29 1.29 0 00.07-.252c.022-.105.033-.217.033-.336v-.476h1.115v1.361h.208v.568h-.271v-.34h-1.176v.34h-.27v-.568h.002zm.661-.884c0 .118-.01.23-.03.334a1.198 1.198 0 01-.234.523l-.03.029h.87V24.86h-.574v.25l-.002-.002zm-51.031 2.244v1.587h-.27v-.692h-.845v.692h-.27v-1.587h.27v.67h.846v-.67h.27zm1.25 1.361h.968v.228h-1.238v-1.587h1.214v.227h-.944v.42h.748v.228h-.748v.488-.004zm2.585-1.383a.938.938 0 01.671.275l.026.03-.172.16s-.012-.013-.02-.025a.715.715 0 00-.168-.13.724.724 0 00-.337-.082.64.64 0 00-.451.171.547.547 0 00-.186.418c0 .165.062.304.186.418a.644.644 0 00.453.172.718.718 0 00.345-.088 1.25 1.25 0 00.106-.073.538.538 0 00.069-.062l.019-.027.171.16-.029.036c-.014.015-.043.039-.087.076a1.062 1.062 0 01-.145.097.97.97 0 01-.451.11.92.92 0 01-.645-.236.754.754 0 01-.261-.58c0-.229.087-.42.26-.579a.923.923 0 01.646-.236v-.005zm1.345.022h1.298v.228h-.515v1.36h-.27v-1.36h-.514v-.228h.001zm1.739 1.588l.711-1.588h.27l.71 1.587h-.281l-.184-.42h-.76l-.184.42h-.282zm.847-1.304l-.282.657h.563l-.281-.657zm3.014-.284v1.587h-.27v-.692h-.846v.692h-.27v-1.587h.27v.67h.846v-.67h.27zm.732 1.361h.098s.02-.015.031-.03c.014-.014.036-.048.07-.099a.98.98 0 00.09-.168c.026-.061.05-.145.07-.252a1.57 1.57 0 00.033-.336v-.476h1.115v1.361h.208v.568h-.271v-.34h-1.176v.34h-.27v-.568h.002zm.663-.885c0 .117-.01.23-.03.333a1.2 1.2 0 01-.16.421.57.57 0 01-.074.102l-.03.03h.87V27.58h-.574v.25l-.002-.002zm1.665 1.112l.71-1.588h.27l.71 1.587h-.281l-.184-.42h-.76l-.184.42h-.281zm.846-1.304l-.281.657h.563l-.282-.657zm1.629-.284h.685c.163 0 .3.05.41.15.11.1.166.219.166.361a.467.467 0 01-.166.362.588.588 0 01-.41.148h-.417v.568h-.27v-1.587l.002-.002zm.686.228h-.417v.567h.417a.31.31 0 00.216-.081.26.26 0 00.09-.203.26.26 0 00-.09-.202.311.311 0 00-.216-.081zm1.262-.228h1.298v.228h-.515v1.36h-.27v-1.36h-.515v-.228h.002zm3.465 0v1.587h-.27v-.692h-.845v.692h-.27v-1.587h.27v.67h.846v-.67h.27zm1.144 1.373a.754.754 0 01-.261-.58c0-.229.087-.421.26-.579a.923.923 0 01.646-.236c.256 0 .472.078.645.236.174.158.261.35.261.58a.753.753 0 01-.26.579.923.923 0 01-.646.236.923.923 0 01-.645-.236zm.192-.998a.547.547 0 00-.185.418c0 .165.061.305.185.419a.643.643 0 00.451.171.64.64 0 00.452-.171.547.547 0 00.185-.419.547.547 0 00-.185-.418.644.644 0 00-.452-.171.64.64 0 00-.451.171zm2.242 1.213v-1.588h1.102v.228h-.833v1.36h-.27zm1.973-.215a.753.753 0 01-.26-.58c0-.229.087-.421.26-.579a.923.923 0 01.646-.236c.256 0 .472.078.645.236.174.158.261.35.261.58a.753.753 0 01-.26.579.923.923 0 01-.646.236.923.923 0 01-.646-.236zm.194-.998a.547.547 0 00-.185.418.55.55 0 00.185.419.643.643 0 00.452.171.64.64 0 00.451-.171.547.547 0 00.186-.419.547.547 0 00-.186-.418.644.644 0 00-.451-.171.641.641 0 00-.452.171zm3.025-.375h1.297v.228h-.514v1.36h-.27v-1.36h-.515v-.228h.002zm2.351 1.361h.968v.228h-1.237v-1.587h1.213v.227h-.944v.42h.748v.228h-.748v.488-.004zm2.425-.805l.43-.556h.317l-.587.76.637.827h-.318l-.477-.623-.479.623h-.317l.636-.828-.587-.76h.318l.429.557h-.002zm2.965-.556v1.587h-.27v-.692h-.846v.692h-.27v-1.587h.27v.67h.846v-.67h.27zm1.141 1.373a.754.754 0 01-.26-.58c0-.229.087-.421.26-.579a.923.923 0 01.645-.236c.256 0 .472.078.646.236.173.158.26.35.26.58a.753.753 0 01-.26.579.923.923 0 01-.646.236.923.923 0 01-.645-.236zm.194-.998a.547.547 0 00-.185.418c0 .165.061.305.185.419a.643.643 0 00.451.171.64.64 0 00.452-.171.547.547 0 00.185-.419.547.547 0 00-.185-.418.644.644 0 00-.452-.171.641.641 0 00-.451.171zm3.538-.375v1.587h-.27v-1.361h-.625v.25c0 .227-.012.418-.036.572a.997.997 0 01-.108.35.426.426 0 01-.16.165.45.45 0 01-.21.046.606.606 0 01-.17-.025l-.026-.007v-.238a.44.44 0 00.134.022c.046 0 .087-.01.122-.032a.312.312 0 00.096-.123.823.823 0 00.067-.271c.013-.123.022-.274.022-.458v-.476h1.164v-.001zm1.145 1.373a.753.753 0 01-.261-.58c0-.229.087-.421.26-.579a.923.923 0 01.646-.236c.256 0 .472.078.645.236.174.158.261.35.261.58a.753.753 0 01-.26.579.923.923 0 01-.646.236.923.923 0 01-.645-.236zm.192-.998a.547.547 0 00-.186.418c0 .165.062.305.186.419a.644.644 0 00.451.171.64.64 0 00.452-.171.547.547 0 00.185-.419.547.547 0 00-.185-.418.644.644 0 00-.452-.171.641.641 0 00-.451.171zm2.241 1.213v-1.588h1.102v.228h-.832v1.36h-.27zm3.318 0h-.27v-1.146l-.956 1.145h-.231v-1.587h.27v1.145l.955-1.145h.232v1.587zm1.226-1.588v.476c0 .114.03.2.094.261.064.062.154.09.273.09a.56.56 0 00.206-.037.56.56 0 00.142-.073l.043-.036v-.681h.272v1.587h-.272v-.646a.411.411 0 01-.055.033 1.097 1.097 0 01-.386.083c-.183 0-.328-.05-.432-.15-.105-.1-.157-.243-.157-.428v-.476h.272v-.003zm2.278 1.361h.967v.228H86.2v-1.587h1.213v.227h-.944v.42h.749v.228h-.749v.488-.004zm2.584-1.383a.938.938 0 01.671.275l.026.03-.172.16s-.012-.013-.02-.025a.63.63 0 00-.064-.058.63.63 0 00-.104-.073.722.722 0 00-.337-.081.641.641 0 00-.451.171.547.547 0 00-.186.418c0 .165.062.304.186.418a.645.645 0 00.453.172.718.718 0 00.345-.088 1.25 1.25 0 00.106-.073.531.531 0 00.069-.062l.019-.027.171.16-.029.036a1.062 1.062 0 01-.232.173.952.952 0 01-.199.076.903.903 0 01-.252.034.92.92 0 01-.645-.236.754.754 0 01-.261-.58c0-.229.088-.42.26-.579a.923.923 0 01.646-.236v-.005zm1.811.022v.771l.772-.771h.344l-.661.657.71.93h-.33l-.564-.748-.27.272v.476h-.269v-1.587h.27-.002zm1.989 1.373a.754.754 0 01-.26-.58c0-.229.087-.421.26-.579a.923.923 0 01.645-.236c.256 0 .473.078.646.236.173.158.26.35.26.58a.753.753 0 01-.26.579.923.923 0 01-.645.236.923.923 0 01-.646-.236zm.192-.998a.547.547 0 00-.185.418.55.55 0 00.185.419.643.643 0 00.452.171.64.64 0 00.451-.171.547.547 0 00.186-.419.547.547 0 00-.186-.418.644.644 0 00-.451-.171.641.641 0 00-.452.171zm2.242 1.213v-1.588h1.102v.228h-.832v1.36h-.27zm1.974-.215a.753.753 0 01-.261-.58c0-.229.087-.421.26-.579a.923.923 0 01.646-.236c.256 0 .472.078.646.236.173.158.26.35.26.58a.753.753 0 01-.26.579.923.923 0 01-.646.236.923.923 0 01-.645-.236zm.194-.998a.547.547 0 00-.186.418c0 .165.062.305.186.419a.643.643 0 00.451.171.64.64 0 00.452-.171.547.547 0 00.185-.419.547.547 0 00-.185-.418.644.644 0 00-.452-.171.641.641 0 00-.451.171zm-45.468 3.719a.754.754 0 01-.26-.58c0-.229.087-.421.26-.58a.923.923 0 01.646-.235c.255 0 .472.078.645.236.173.158.261.35.261.58 0 .229-.087.42-.26.579a.924.924 0 01-.646.236.924.924 0 01-.646-.236zm.194-.998a.547.547 0 00-.185.418.55.55 0 00.185.419.643.643 0 00.452.171.64.64 0 00.451-.171.547.547 0 00.186-.419.547.547 0 00-.186-.418.644.644 0 00-.451-.171.641.641 0 00-.452.171zm2.951 1.212h-.71v-1.587h1.127v.227h-.858v.386h.441c.158 0 .29.048.395.141a.45.45 0 01.156.347.445.445 0 01-.156.347.572.572 0 01-.395.14zm-.441-.226h.441a.29.29 0 00.2-.075.244.244 0 00.081-.185.244.244 0 00-.08-.185.285.285 0 00-.201-.075h-.441v.522-.002zm2.038.012a.754.754 0 01-.262-.58c0-.229.088-.421.261-.58a.923.923 0 01.645-.235c.256 0 .472.078.646.236.173.158.26.35.26.58 0 .229-.087.42-.26.579a.924.924 0 01-.646.236.923.923 0 01-.645-.236zm.191-.998a.547.547 0 00-.185.418.55.55 0 00.185.419.643.643 0 00.452.171.64.64 0 00.451-.171.547.547 0 00.186-.419.547.547 0 00-.186-.418.644.644 0 00-.451-.171.641.641 0 00-.452.171zm2.242-.375h.685c.163 0 .3.049.41.15.11.1.166.219.166.361a.466.466 0 01-.166.362.587.587 0 01-.41.148h-.417v.568h-.27v-1.587l.002-.002zm.685.227h-.417v.568h.417a.311.311 0 00.216-.081.26.26 0 00.09-.203.26.26 0 00-.09-.202.311.311 0 00-.216-.082zm1.519-.227l.465.827.417-.827h.282l-.613 1.201a.892.892 0 01-.233.311.526.526 0 01-.33.097.508.508 0 01-.153-.025l-.02-.007v-.216a.395.395 0 00.147.024.356.356 0 00.189-.044.342.342 0 00.118-.138l.062-.114-.613-1.087h.282v-.002zm1.58 1.361h.098s.02-.015.031-.03c.014-.014.036-.048.07-.1a.986.986 0 00.09-.167c.026-.061.05-.145.07-.252a1.57 1.57 0 00.033-.336v-.476h1.115v1.361h.208v.568h-.271v-.34h-1.176v.34h-.27v-.568h.002zm.661-.885c0 .117-.01.23-.03.333a1.198 1.198 0 01-.234.523l-.03.03h.871V30.3h-.575v.25l-.002-.002zm2.026.897a.754.754 0 01-.261-.58.76.76 0 01.26-.58.923.923 0 01.646-.235c.256 0 .472.078.646.236.173.158.26.35.26.58 0 .229-.087.42-.26.579a.924.924 0 01-.646.236.924.924 0 01-.645-.236zm.192-.998a.547.547 0 00-.185.418.55.55 0 00.185.419.643.643 0 00.452.171.64.64 0 00.451-.171.547.547 0 00.185-.419.547.547 0 00-.185-.418.644.644 0 00-.451-.171.64.64 0 00-.452.171zm2.976 1.212h-.735v-1.587h.697c.14 0 .258.042.356.127a.38.38 0 01.147.293.358.358 0 01-.043.175.348.348 0 01-.084.11l-.044.032.027.016a.713.713 0 01.142.122.496.496 0 01.062.109.354.354 0 01.028.14.422.422 0 01-.158.327.577.577 0 01-.393.138l-.002-.002zm-.038-1.371h-.429v.43h.43c.066 0 .121-.02.166-.062a.2.2 0 00.067-.154.202.202 0 00-.067-.155.236.236 0 00-.167-.061v.002zm-.427 1.155h.465a.287.287 0 00.2-.075.239.239 0 00.082-.185.245.245 0 00-.081-.185.287.287 0 00-.201-.075h-.465v.522-.002zm1.653.216l.71-1.587h.27l.71 1.587h-.28l-.184-.42h-.76l-.184.42h-.281zm.844-1.303l-.281.657h.563l-.282-.657zm3.015-.284v1.587h-.27v-.692h-.846v.692h-.27v-1.587h.27v.67h.846v-.67h.27zm2.435 1.587h-.27v-1.145l-.956 1.145h-.231v-1.587h.27v1.145l.955-1.145h.232v1.587zm2.181-1.587v1.587h-.269v-.612h-.393l-.367.612h-.294l.393-.634a.456.456 0 01-.12-.064.442.442 0 01-.187-.22.46.46 0 01.12-.528.572.572 0 01.395-.141h.722zm-.923.302a.244.244 0 00-.08.186c0 .073.027.136.08.185.053.049.12.075.2.075h.454v-.522h-.453a.29.29 0 00-.201.075v.001z"/></g><defs><clipPath id="clip0_788_724"><path fill="#fff" d="M0 0h131v32H0z"/></clipPath></defs></svg>