<svg width="12" height="12" viewBox="0 0 12 12" fill="none" xmlns="http://www.w3.org/2000/svg">
<path d="M5 11H7C9.5 11 10.5 10 10.5 7.5V4.5C10.5 2 9.5 1 7 1H5C2.5 1 1.5 2 1.5 4.5V7.5C1.5 10 2.5 11 5 11Z" stroke="currentColor" stroke-width="0.5" stroke-linecap="round" stroke-linejoin="round"/>
<path d="M8.25 3.79004V4.29004C8.25 4.70004 7.915 5.04004 7.5 5.04004H4.5C4.09 5.04004 3.75 4.70504 3.75 4.29004V3.79004C3.75 3.38004 4.085 3.04004 4.5 3.04004H7.5C7.915 3.04004 8.25 3.37504 8.25 3.79004Z" stroke="currentColor" stroke-width="0.5" stroke-linecap="round" stroke-linejoin="round"/>
<path d="M4.06806 7H4.07384" stroke="currentColor" stroke-width="0.75" stroke-linecap="round" stroke-linejoin="round"/>
<path d="M5.99761 7H6.00339" stroke="currentColor" stroke-width="0.75" stroke-linecap="round" stroke-linejoin="round"/>
<path d="M7.92717 7H7.93294" stroke="currentColor" stroke-width="0.75" stroke-linecap="round" stroke-linejoin="round"/>
<path d="M4.06806 8.75H4.07384" stroke="currentColor" stroke-width="0.75" stroke-linecap="round" stroke-linejoin="round"/>
<path d="M5.99761 8.75H6.00339" stroke="currentColor" stroke-width="0.75" stroke-linecap="round" stroke-linejoin="round"/>
<path d="M7.92717 8.75H7.93294" stroke="currentColor" stroke-width="0.75" stroke-linecap="round" stroke-linejoin="round"/>
</svg>
