<svg width="14" height="23" viewBox="0 0 14 23" fill="none" xmlns="http://www.w3.org/2000/svg">
<path d="M6.99998 0.255859C3.89173 0.255859 1.37207 2.77555 1.37207 5.88365C1.37207 8.99182 3.89173 11.5117 6.99998 11.5117C10.1082 11.5117 12.6279 8.99182 12.6279 5.88365C12.6279 2.77555 10.1082 0.255859 6.99998 0.255859ZM6.99998 8.21021C5.71514 8.21021 4.67353 7.16854 4.67353 5.88373C4.67353 4.59891 5.71514 3.55732 6.99998 3.55732C8.28482 3.55732 9.32643 4.59891 9.32643 5.88373C9.32643 7.16854 8.28482 8.21021 6.99998 8.21021Z" fill="currentColor"/>
<path d="M9.18528 16.2205C11.5541 15.7183 12.9736 14.551 13.0487 14.4883C13.7419 13.9098 13.8533 12.8561 13.2974 12.1347C12.7415 11.4134 11.7291 11.2975 11.0357 11.8759C11.0211 11.8882 9.50705 13.0969 7.01594 13.0986C4.52492 13.0969 2.97889 11.8882 2.96424 11.8759C2.2709 11.2975 1.25842 11.4134 0.702604 12.1347C0.146701 12.8561 0.258051 13.9098 0.951216 14.4883C1.02734 14.5518 2.50546 15.7496 4.94068 16.24L1.54675 19.931C0.929962 20.5967 0.948506 21.6566 1.58816 22.2984C1.90036 22.6117 2.30274 22.7674 2.70479 22.7674C3.12631 22.7674 3.54741 22.596 3.86308 22.2552L7.01602 18.7601L10.4874 22.2779C11.1164 22.9313 12.1349 22.9303 12.7627 22.276C13.3905 21.6217 13.3897 20.5616 12.7609 19.9083L9.18528 16.2205Z" fill="currentColor"/>
<path d="M7.01657 13.0981C7.01017 13.0981 7.02283 13.0983 7.01657 13.0984C7.01031 13.0983 7.02297 13.0981 7.01657 13.0981Z" fill="currentColor"/>
</svg>
