<svg width="27" height="28" fill="none" xmlns="http://www.w3.org/2000/svg"><path d="M26 17.624a33.238 33.238 0 01-12.5 2.423c-4.42 0-8.639-.86-12.5-2.423M19.056 7.547V4.77a2.778 2.778 0 00-2.778-2.777h-5.556A2.778 2.778 0 007.944 4.77v2.778m5.556 8.334h.014M3.778 26.99h19.444A2.778 2.778 0 0026 24.215v-13.89a2.778 2.778 0 00-2.778-2.778H3.778A2.778 2.778 0 001 10.325v13.889a2.778 2.778 0 002.778 2.778z" stroke="currentColor" stroke-width="2" stroke-linecap="round" stroke-linejoin="round"/></svg>