<svg width="12" height="12" fill="none" xmlns="http://www.w3.org/2000/svg"><path d="M5 11h2c2.5 0 3.5-1 3.5-3.5v-3C10.5 2 9.5 1 7 1H5C2.5 1 1.5 2 1.5 4.5v3C1.5 10 2.5 11 5 11z" stroke="currentColor" stroke-width=".5" stroke-linecap="round" stroke-linejoin="round"/><path d="M8.25 3.79v.5c0 .41-.335.75-.75.75h-3a.752.752 0 01-.75-.75v-.5c0-.41.335-.75.75-.75h3c.415 0 .75.335.75.75z" stroke="currentColor" stroke-width=".5" stroke-linecap="round" stroke-linejoin="round"/><path d="M4.068 7h.006m1.924 0h.005m1.924 0h.006M4.068 8.75h.006m1.924 0h.005m1.924 0h.006" stroke="currentColor" stroke-width=".75" stroke-linecap="round" stroke-linejoin="round"/></svg>