<svg width="27" height="23" fill="none" xmlns="http://www.w3.org/2000/svg"><path d="M14.889 17.228V3.34A1.389 1.389 0 0013.5 1.951H2.389A1.389 1.389 0 001 3.339v13.89a1.389 1.389 0 001.389 1.388h1.389m11.11-1.389a1.389 1.389 0 01-1.388 1.39H9.333m5.556-1.39V6.118a1.389 1.389 0 011.389-1.39h3.591c.369 0 .722.147.982.407l4.742 4.742c.26.26.407.614.407.982v6.37a1.389 1.389 0 01-1.389 1.388h-1.389m-8.333-1.389a1.389 1.389 0 001.389 1.39h1.389m-13.89 0a2.778 2.778 0 105.556 0m-5.555 0a2.778 2.778 0 015.555 0m8.334 0a2.778 2.778 0 105.555 0m-5.555 0a2.778 2.778 0 115.555 0" stroke="currentColor" stroke-width="2" stroke-linecap="round" stroke-linejoin="round"/></svg>