<svg width="22" height="22" fill="none" xmlns="http://www.w3.org/2000/svg"><path d="M11 18.792H6.417c-2.75 0-4.584-1.375-4.584-4.584V7.792c0-3.209 1.834-4.584 4.584-4.584h9.166c2.75 0 4.584 1.375 4.584 4.584v2.75" stroke="#fff" stroke-miterlimit="10" stroke-linecap="round" stroke-linejoin="round"/><path d="M15.583 8.25l-2.869 2.292c-.944.751-2.493.751-3.437 0L6.417 8.25" stroke="#fff" stroke-miterlimit="10" stroke-linecap="round" stroke-linejoin="round"/><path d="M17.61 13.54l-3.246 3.244a1.13 1.13 0 00-.275.541l-.174 1.238c-.064.449.248.76.697.696l1.237-.174a1.09 1.09 0 00.541-.275l3.245-3.245c.56-.56.825-1.21 0-2.035-.816-.816-1.467-.55-2.026.01z" fill="#fff" stroke="#fff" stroke-miterlimit="10" stroke-linecap="round" stroke-linejoin="round"/><path d="M17.142 14.007a2.92 2.92 0 002.035 2.035" stroke="#fff" stroke-miterlimit="10" stroke-linecap="round" stroke-linejoin="round"/></svg>