<svg width="27" height="23" fill="none" xmlns="http://www.w3.org/2000/svg"><path d="M20.26 7.71V4.853a2.91 2.91 0 00-.807-2.02 2.7 2.7 0 00-1.945-.837H3.75a2.7 2.7 0 00-1.945.837A2.914 2.914 0 001 4.853v8.571c0 .758.29 1.485.806 2.02a2.7 2.7 0 001.945.838h2.752m2.751 5.714h13.757a2.7 2.7 0 001.945-.837 2.914 2.914 0 00.806-2.02v-8.572c0-.757-.29-1.484-.806-2.02a2.7 2.7 0 00-1.945-.837H9.254a2.7 2.7 0 00-1.946.837 2.914 2.914 0 00-.805 2.02v8.572c0 .758.29 1.484.805 2.02a2.7 2.7 0 001.946.837zm9.63-7.143c0 .758-.29 1.484-.806 2.02a2.7 2.7 0 01-1.946.837 2.7 2.7 0 01-1.945-.837 2.914 2.914 0 01-.806-2.02c0-.758.29-1.485.806-2.02a2.7 2.7 0 011.945-.837 2.7 2.7 0 011.946.837c.516.535.806 1.262.806 2.02v0z" stroke="currentColor" stroke-width="2" stroke-linecap="round" stroke-linejoin="round"/></svg>