<svg width="18" height="23" fill="none" xmlns="http://www.w3.org/2000/svg"><path d="M5.571 4.218H3.286a2.32 2.32 0 00-1.617.65A2.201 2.201 0 001 6.44v13.334c0 .589.24 1.154.67 1.571a2.32 2.32 0 001.616.65h11.428a2.32 2.32 0 001.617-.65c.428-.417.669-.982.669-1.571V6.44c0-.59-.24-1.154-.67-1.571a2.32 2.32 0 00-1.616-.65H12.43m-6.858 0c0 .588.241 1.154.67 1.57a2.32 2.32 0 001.616.651h2.286a2.32 2.32 0 001.616-.65c.429-.417.67-.983.67-1.572m-6.858 0c0-.59.241-1.155.67-1.571a2.32 2.32 0 011.616-.651h2.286a2.32 2.32 0 011.616.65c.429.417.67.983.67 1.572m-6.858 10l2.286 2.222 4.572-4.444" stroke="currentColor" stroke-width="2" stroke-linecap="round" stroke-linejoin="round"/></svg>