<svg width="48" height="48" fill="none" xmlns="http://www.w3.org/2000/svg"><path d="M36.08 27.1c-.84.82-1.32 2-1.2 3.26.18 2.16 2.16 3.74 4.32 3.74H43v2.38c0 4.14-3.38 7.52-7.52 7.52H12.52C8.38 44 5 40.62 5 36.48V23.02c0-4.14 3.38-7.52 7.52-7.52h22.96c4.14 0 7.52 3.38 7.52 7.52v2.88h-4.04c-1.12 0-2.14.44-2.88 1.2z" stroke="currentColor" stroke-width="2" stroke-linecap="round" stroke-linejoin="round"/><path d="M5 24.82v-9.14c0-2.38 1.46-4.5 3.68-5.34l15.88-6c2.48-.94 5.14.9 5.14 3.56v7.6m15.418 12.44v4.12c0 1.1-.88 2-2 2.04h-3.92c-2.16 0-4.14-1.58-4.32-3.74-.12-1.26.36-2.44 1.2-3.26.74-.76 1.76-1.2 2.88-1.2h4.16c1.12.04 2 .94 2 2.04zM14 24h14" stroke="currentColor" stroke-width="2" stroke-linecap="round" stroke-linejoin="round"/></svg>