<svg width="20" height="20" fill="none" xmlns="http://www.w3.org/2000/svg"><path d="M15.033 11.292c-.35.341-.55.833-.5 1.358.075.9.9 1.558 1.8 1.558h1.584v.992a3.14 3.14 0 01-3.134 3.133H5.217A3.14 3.14 0 012.083 15.2V9.592a3.14 3.14 0 013.134-3.134h9.566a3.14 3.14 0 013.134 3.134v1.2h-1.684a1.66 1.66 0 00-1.2.5z" stroke="currentColor" stroke-linecap="round" stroke-linejoin="round"/><path d="M2.083 10.342V6.533c0-.991.609-1.875 1.534-2.225l6.616-2.5a1.584 1.584 0 012.142 1.484v3.166m6.424 5.184v1.717a.856.856 0 01-.833.85h-1.634c-.9 0-1.725-.659-1.8-1.559-.05-.525.15-1.017.5-1.358.309-.317.734-.5 1.2-.5h1.734a.856.856 0 01.833.85zM5.833 10h5.834" stroke="currentColor" stroke-linecap="round" stroke-linejoin="round"/></svg>