<svg width="48" height="48" fill="none" xmlns="http://www.w3.org/2000/svg"><path d="M22 4h-4C8 4 4 8 4 18v12c0 10 4 14 14 14h12c10 0 14-4 14-14v-4" stroke="currentColor" stroke-width="2" stroke-linecap="round" stroke-linejoin="round"/><path d="M32.08 6.04L16.32 21.8c-.6.6-1.2 1.78-1.32 2.64l-.86 6.02c-.32 2.18 1.22 3.7 3.4 3.4l6.02-.86c.84-.12 2.02-.72 2.64-1.32l15.76-15.76c2.72-2.72 4-5.88 0-9.88-4-4-7.16-2.72-9.88 0zM29.82 8.3c1.34 4.78 5.08 8.52 9.88 9.88" stroke="currentColor" stroke-width="2" stroke-miterlimit="10" stroke-linecap="round" stroke-linejoin="round"/></svg>