<svg width="48" height="48" fill="none" xmlns="http://www.w3.org/2000/svg"><path d="M31.02 5.66H16.98c-4.98 0-6.08 2.48-6.72 5.52L8 22h32l-2.26-10.82C37.1 8.14 36 5.66 31.02 5.66zm12.96 33.98c.22 2.34-1.66 4.36-4.06 4.36h-3.76c-2.16 0-2.46-.92-2.84-2.06l-.4-1.2C32.36 39.1 32 38 29.12 38H18.88c-2.88 0-3.3 1.24-3.8 2.74l-.4 1.2C14.3 43.08 14 44 11.84 44H8.08c-2.4 0-4.28-2.02-4.06-4.36l1.12-12.18c.28-3 .86-5.46 6.1-5.46h25.52c5.24 0 5.82 2.46 6.1 5.46l1.12 12.18zM8 16H6m36 0h-2M24 6v4m-3 0h6M12 30h6m12 0h6" stroke="currentColor" stroke-width="2" stroke-linecap="round" stroke-linejoin="round"/></svg>