<svg width="20" height="20" fill="none" xmlns="http://www.w3.org/2000/svg"><path d="M12.925 2.358h-5.85c-2.075 0-2.533 1.034-2.8 2.3l-.942 4.509h13.334l-.942-4.509c-.267-1.266-.725-2.3-2.8-2.3zm5.4 14.159c.092.975-.692 1.816-1.692 1.816h-1.566c-.9 0-1.025-.383-1.184-.858l-.166-.5c-.234-.683-.384-1.142-1.584-1.142H7.867c-1.2 0-1.375.517-1.584 1.142l-.166.5c-.159.475-.284.858-1.184.858H3.367c-1 0-1.784-.841-1.692-1.816l.467-5.075c.116-1.25.358-2.275 2.541-2.275h10.634c2.183 0 2.425 1.025 2.541 2.275l.467 5.075zM3.333 6.667H2.5m15 0h-.833M10 2.5v1.667m-1.25 0h2.5M5 12.5h2.5m5 0H15" stroke="#fff" stroke-linecap="round" stroke-linejoin="round"/></svg>