<svg width="128" height="28" fill="none" xmlns="http://www.w3.org/2000/svg"><g clip-path="url(#clip0_12_636)" fill="currentColor"><path d="M84.892 12.734l.078-1.265c.156.079.389.079.623.079 1.089 0 1.167-1.66 1.167-6.407h5.135v7.593H90.34V6.407h-2.178c0 4.113-.156 6.407-2.18 6.407-.388.079-.777 0-1.089-.08zm8.793-7.514h1.478v2.77c0 .79-.077 2.214-.077 2.926l3.19-5.695h1.634v7.594h-1.478v-2.769c0-.79.077-2.214.077-2.926l-3.19 5.695h-1.634V5.22zm7.47 7.435l.155-1.344c.545.316 1.245.395 1.868.395.7 0 1.556-.158 1.556-1.107 0-1.029-1.089-1.108-1.79-1.108h-.544V8.305h.389c.7 0 1.867-.158 1.867-1.108 0-.79-.778-.949-1.4-.949-.545 0-1.323.158-1.79.316l-.156-1.186c.623-.158 1.479-.316 2.179-.316 1.478 0 2.646.553 2.646 1.977 0 .791-.545 1.424-1.401 1.661a1.85 1.85 0 011.556 1.82c0 1.66-1.245 2.293-2.957 2.293-.778.159-1.556 0-2.178-.158zm6.614-7.435h1.478v2.77c0 .79-.077 2.214-.077 2.926l3.19-5.695h1.634v7.594h-1.478v-2.769c0-.79.077-2.214.077-2.926l-3.19 5.695h-1.634V5.22zm8.092 0h1.556v3.006h2.957V5.22h1.557v7.594h-1.557V9.49h-2.956v3.323h-1.557V5.22zm7.782 0H128v1.266h-2.879v6.328h-1.556V5.22h.078zM67.54 24.203h3.346c1.245 0 2.023-.316 2.568-1.028.233-.316.623-.95.623-2.136 0-1.186-.39-1.977-1.168-2.61-.467-.316-1.09-.553-2.1-.553h-3.347v6.327h.078zM63.105 28V5.22h14.629l-1.245 3.797H67.54v5.062h3.658c2.879 0 4.435.712 5.447 1.582.778.712 2.178 2.293 2.178 5.379 0 3.084-1.4 4.745-2.645 5.615-1.4.95-2.88 1.266-5.836 1.266h-7.236V28zm-12.917 0V9.017H43.73V5.22h18.052l-1.245 3.797H54.78V28h-4.59zM32.136 14.316h2.49c.778 0 1.167 0 1.556-.079 1.012-.316 1.712-1.265 1.712-2.53 0-1.503-.7-2.215-1.712-2.532-.389-.158-.778-.237-1.634-.237h-2.334v5.378h-.078zm.078 3.955v6.011h3.112c.934 0 1.79-.079 2.413-.633.622-.553.855-1.344.855-2.293 0-.712-.233-1.424-.544-1.978-.623-.79-1.478-1.028-2.88-1.028h-2.956v-.079zm7.159-2.373c.855.396 1.634.95 2.1 1.266 1.324 1.107 1.868 2.53 1.868 4.43 0 3.084-1.634 5.378-4.28 6.09-.778.237-1.634.316-3.268.316h-8.092V5.22h7.159c1.478 0 2.49.08 3.346.317 2.567.712 4.28 2.53 4.28 5.378 0 1.503-.545 2.848-1.401 3.718-.312.395-.857.87-1.712 1.265zM23.11 3.48H4.124L5.524 0h18.987l-1.4 3.48zm-.7 1.74H3.424l-1.4 3.48h18.985l1.4-3.48zm-2.023 5.141H1.4L0 13.841h18.985l1.4-3.48z"/></g><defs><clipPath id="clip0_12_636"><path fill="currentColor" d="M0 0h128v28H0z"/></clipPath></defs></svg>