<svg width="14" height="23" fill="none" xmlns="http://www.w3.org/2000/svg"><path d="M7 .256a5.628 5.628 0 100 11.256A5.628 5.628 0 007 .256zM7 8.21a2.327 2.327 0 110-4.653A2.327 2.327 0 017 8.21z" fill="currentColor"/><path d="M9.185 16.22c2.37-.502 3.789-1.669 3.864-1.732.693-.578.804-1.632.248-2.353a1.567 1.567 0 00-2.261-.26c-.015.013-1.529 1.222-4.02 1.224-2.491-.002-4.037-1.21-4.052-1.223a1.567 1.567 0 00-2.261.259c-.556.721-.445 1.775.248 2.353.076.064 1.554 1.262 3.99 1.752l-3.394 3.691a1.723 1.723 0 00.041 2.367 1.57 1.57 0 001.117.47c.421 0 .842-.172 1.158-.513l3.153-3.495 3.471 3.518a1.565 1.565 0 002.276-.002 1.723 1.723 0 00-.002-2.368L9.185 16.22zm-2.168-3.122c-.007 0 .006 0 0 0-.007 0 .006 0 0 0z" fill="currentColor"/></svg>