<svg width="20" height="20" fill="none" xmlns="http://www.w3.org/2000/svg"><path d="M19.14 15.803c0 .33-.074.669-.23.999-.156.33-.358.642-.623.935-.45.495-.944.852-1.504 1.082a4.606 4.606 0 01-1.787.348c-.935 0-1.934-.22-2.989-.67a16.106 16.106 0 01-3.153-1.814 26.35 26.35 0 01-3.006-2.567 26.042 26.042 0 01-2.558-2.998c-.752-1.045-1.357-2.09-1.797-3.125-.44-1.045-.66-2.045-.66-2.998 0-.623.11-1.219.33-1.769a4.22 4.22 0 011.055-1.53c.586-.578 1.228-.863 1.906-.863.257 0 .514.055.743.165a1.5 1.5 0 01.614.514l2.127 2.997c.165.23.284.44.366.642.083.192.129.385.129.56 0 .22-.065.44-.193.65-.12.21-.293.43-.513.65l-.697.725a.49.49 0 00-.147.367c0 .073.01.137.028.21.027.074.055.129.073.184.165.302.45.697.853 1.173.412.477.852.963 1.329 1.448.495.486.972.935 1.457 1.348.477.403.871.678 1.183.843.046.019.1.046.165.074a.632.632 0 00.229.036.505.505 0 00.376-.155l.697-.688c.229-.23.449-.403.66-.513a1.22 1.22 0 01.65-.193c.175 0 .358.037.56.12.201.082.412.201.641.357l3.034 2.154c.239.165.404.357.505.587.091.229.146.458.146.715z" fill="currentColor"/></svg>