<?xml version="1.0" encoding="utf-8"?><svg viewBox="0 0 128 28" xmlns="http://www.w3.org/2000/svg" xmlns:xlink="http://www.w3.org/1999/xlink"><style>:root>svg{display:none}:root>svg:target{display:block}</style><svg fill="none" viewBox="0 0 22 11" id="arrow-up" xmlns="http://www.w3.org/2000/svg"><path d="M21.115 9.5a.865.865 0 00-.257-.618l-7.606-7.607a3.197 3.197 0 00-4.504 0L1.142 8.882a.88.88 0 000 1.236.88.88 0 001.236 0l7.607-7.606c.56-.56 1.47-.56 2.03 0l7.607 7.606a.88.88 0 001.236 0 .917.917 0 00.257-.618z" fill="#11257A"/></svg><svg fill="none" viewBox="0 0 12 12" id="calculator-ico" xmlns="http://www.w3.org/2000/svg"><path d="M5 11h2c2.5 0 3.5-1 3.5-3.5v-3C10.5 2 9.5 1 7 1H5C2.5 1 1.5 2 1.5 4.5v3C1.5 10 2.5 11 5 11z" stroke="#fff" stroke-width=".5" stroke-linecap="round" stroke-linejoin="round"/><path d="M8.25 3.79v.5c0 .41-.335.75-.75.75h-3a.752.752 0 01-.75-.75v-.5c0-.41.335-.75.75-.75h3c.415 0 .75.335.75.75z" stroke="#fff" stroke-width=".5" stroke-linecap="round" stroke-linejoin="round"/><path d="M4.068 7h.006M5.998 7h.005M7.927 7h.006M4.068 8.75h.006M5.998 8.75h.005M7.927 8.75h.006" stroke="#fff" stroke-width=".75" stroke-linecap="round" stroke-linejoin="round"/></svg><svg fill="none" viewBox="0 0 22 22" id="email-ico" xmlns="http://www.w3.org/2000/svg"><path d="M11 18.792H6.417c-2.75 0-4.584-1.375-4.584-4.584V7.792c0-3.209 1.834-4.584 4.584-4.584h9.166c2.75 0 4.584 1.375 4.584 4.584v2.75" stroke="#fff" stroke-miterlimit="10" stroke-linecap="round" stroke-linejoin="round"/><path d="M15.583 8.25l-2.869 2.292c-.944.751-2.493.751-3.437 0L6.417 8.25" stroke="#fff" stroke-miterlimit="10" stroke-linecap="round" stroke-linejoin="round"/><path d="M17.61 13.54l-3.246 3.244a1.13 1.13 0 00-.275.541l-.174 1.238c-.064.449.248.76.697.696l1.237-.174a1.09 1.09 0 00.541-.275l3.245-3.245c.56-.56.825-1.21 0-2.035-.816-.816-1.467-.55-2.026.01z" fill="#fff" stroke="#fff" stroke-miterlimit="10" stroke-linecap="round" stroke-linejoin="round"/><path d="M17.142 14.007a2.92 2.92 0 002.035 2.035" stroke="#fff" stroke-miterlimit="10" stroke-linecap="round" stroke-linejoin="round"/></svg><svg fill="none" viewBox="0 0 20 20" id="leasing-car" xmlns="http://www.w3.org/2000/svg"><path d="M12.925 2.358h-5.85c-2.075 0-2.533 1.034-2.8 2.3l-.942 4.509h13.334l-.942-4.509c-.267-1.266-.725-2.3-2.8-2.3zM18.325 16.517c.092.975-.692 1.816-1.692 1.816h-1.566c-.9 0-1.025-.383-1.184-.858l-.166-.5c-.234-.683-.384-1.142-1.584-1.142H7.867c-1.2 0-1.375.517-1.584 1.142l-.166.5c-.159.475-.284.858-1.184.858H3.367c-1 0-1.784-.841-1.692-1.816l.467-5.075c.116-1.25.358-2.275 2.541-2.275h10.634c2.183 0 2.425 1.025 2.541 2.275l.467 5.075zM3.333 6.667H2.5M17.5 6.667h-.833M10 2.5v1.667M8.75 4.167h2.5M5 12.5h2.5M12.5 12.5H15" stroke="#fff" stroke-linecap="round" stroke-linejoin="round"/></svg><svg fill="none" viewBox="0 0 20 20" id="leasing-document" xmlns="http://www.w3.org/2000/svg"><path d="M18.333 8.333V12.5c0 4.167-1.666 5.833-5.833 5.833h-5c-4.167 0-5.833-1.666-5.833-5.833v-5c0-4.167 1.666-5.833 5.833-5.833h4.167" stroke="#fff" stroke-linecap="round" stroke-linejoin="round"/><path d="M18.333 8.333H15c-2.5 0-3.333-.833-3.333-3.333V1.667l6.666 6.666zM5.833 10.833h5M5.833 14.167h3.334" stroke="#fff" stroke-linecap="round" stroke-linejoin="round"/></svg><svg fill="none" viewBox="0 0 20 20" id="leasing-edit" xmlns="http://www.w3.org/2000/svg"><path d="M9.167 1.667H7.5c-4.167 0-5.833 1.666-5.833 5.833v5c0 4.167 1.666 5.833 5.833 5.833h5c4.167 0 5.833-1.666 5.833-5.833v-1.667" stroke="#fff" stroke-linecap="round" stroke-linejoin="round"/><path d="M13.367 2.517L6.8 9.083c-.25.25-.5.742-.55 1.1l-.358 2.509c-.134.908.508 1.541 1.416 1.416l2.509-.358c.35-.05.841-.3 1.1-.55l6.566-6.567c1.134-1.133 1.667-2.45 0-4.116-1.666-1.667-2.983-1.134-4.116 0zM12.425 3.458a5.954 5.954 0 004.117 4.117" stroke="#fff" stroke-miterlimit="10" stroke-linecap="round" stroke-linejoin="round"/></svg><svg fill="none" viewBox="0 0 20 20" id="leasing-medal" xmlns="http://www.w3.org/2000/svg"><path d="M10 12.5c3.107 0 5.625-2.425 5.625-5.417 0-2.991-2.518-5.416-5.625-5.416S4.375 4.092 4.375 7.083c0 2.992 2.518 5.417 5.625 5.417z" stroke="currentColor" stroke-linecap="round" stroke-linejoin="round"/><path d="M6.267 11.267l-.009 6.15c0 .75.525 1.116 1.175.808l2.234-1.058a.863.863 0 01.675 0l2.241 1.058c.642.3 1.175-.058 1.175-.808v-6.3" stroke="currentColor" stroke-linecap="round" stroke-linejoin="round"/></svg><svg fill="none" viewBox="0 0 20 20" id="leasing-verify" xmlns="http://www.w3.org/2000/svg"><path d="M6.983 10l2.009 2.017 4.025-4.034" stroke="currentColor" stroke-linecap="round" stroke-linejoin="round"/><path d="M8.958 2.042c.575-.492 1.517-.492 2.1 0l1.317 1.133c.25.217.717.392 1.05.392h1.417c.883 0 1.608.725 1.608 1.608v1.417c0 .325.175.8.392 1.05l1.133 1.316c.492.575.492 1.517 0 2.1l-1.133 1.317c-.217.25-.392.717-.392 1.05v1.417c0 .883-.725 1.608-1.608 1.608h-1.417c-.325 0-.8.175-1.05.392l-1.317 1.133c-.575.492-1.516.492-2.1 0l-1.316-1.133a1.847 1.847 0 00-1.05-.392H5.15a1.615 1.615 0 01-1.608-1.608v-1.425c0-.325-.175-.792-.384-1.042L2.033 11.05c-.483-.575-.483-1.508 0-2.083l1.125-1.325c.209-.25.384-.717.384-1.042V5.167c0-.884.725-1.609 1.608-1.609h1.442c.325 0 .8-.175 1.05-.391l1.316-1.125z" stroke="currentColor" stroke-linecap="round" stroke-linejoin="round"/></svg><svg fill="none" viewBox="0 0 20 20" id="leasing-wallet" xmlns="http://www.w3.org/2000/svg"><path d="M15.033 11.292c-.35.341-.55.833-.5 1.358.075.9.9 1.558 1.8 1.558h1.584v.992a3.14 3.14 0 01-3.134 3.133H5.217A3.14 3.14 0 012.083 15.2V9.592a3.14 3.14 0 013.134-3.134h9.566a3.14 3.14 0 013.134 3.134v1.2h-1.684a1.66 1.66 0 00-1.2.5z" stroke="currentColor" stroke-linecap="round" stroke-linejoin="round"/><path d="M2.083 10.342V6.533c0-.991.609-1.875 1.534-2.225l6.616-2.5a1.584 1.584 0 012.142 1.484v3.166M18.799 11.642v1.717a.856.856 0 01-.833.85h-1.634c-.9 0-1.725-.659-1.8-1.559-.05-.525.15-1.017.5-1.358.309-.317.734-.5 1.2-.5h1.734a.856.856 0 01.833.85zM5.833 10h5.834" stroke="currentColor" stroke-linecap="round" stroke-linejoin="round"/></svg><svg fill="none" viewBox="0 0 128 28" id="logo" xmlns="http://www.w3.org/2000/svg"><g clip-path="url(#jclip0_12_636)" fill="currentColor"><path d="M84.892 12.734l.078-1.265c.156.079.389.079.623.079 1.089 0 1.167-1.66 1.167-6.407h5.135v7.593H90.34V6.407h-2.178c0 4.113-.156 6.407-2.18 6.407-.388.079-.777 0-1.089-.08zm8.793-7.514h1.478V7.99c0 .79-.077 2.214-.077 2.926l3.19-5.695h1.634v7.594h-1.478v-2.769c0-.79.077-2.214.077-2.926l-3.19 5.695h-1.634V5.22zm7.47 7.435l.155-1.344c.545.316 1.245.395 1.868.395.7 0 1.556-.158 1.556-1.107 0-1.029-1.089-1.108-1.79-1.108h-.544V8.305h.389c.7 0 1.867-.158 1.867-1.108 0-.79-.778-.949-1.4-.949-.545 0-1.323.158-1.79.316l-.156-1.186c.623-.158 1.479-.316 2.179-.316 1.478 0 2.646.553 2.646 1.977 0 .791-.545 1.424-1.401 1.661.934.158 1.556.95 1.556 1.82 0 1.66-1.245 2.293-2.957 2.293-.778.159-1.556 0-2.178-.158zm6.614-7.435h1.478V7.99c0 .79-.077 2.214-.077 2.926l3.19-5.695h1.634v7.594h-1.478v-2.769c0-.79.077-2.214.077-2.926l-3.19 5.695h-1.634V5.22zm8.092 0h1.556v3.006h2.957V5.22h1.557v7.594h-1.557V9.49h-2.956v3.323h-1.557V5.22zm7.782 0H128v1.266h-2.879v6.328h-1.556V5.22h.078zM67.54 24.203h3.346c1.245 0 2.023-.316 2.568-1.028.233-.316.623-.95.623-2.136 0-1.186-.39-1.977-1.168-2.61-.467-.316-1.09-.553-2.1-.553h-3.347v6.327h.078zM63.105 28V5.22h14.629l-1.245 3.797H67.54v5.062h3.658c2.879 0 4.435.712 5.447 1.582.778.712 2.178 2.293 2.178 5.379 0 3.084-1.4 4.745-2.645 5.615-1.4.95-2.88 1.266-5.836 1.266h-7.236V28zm-12.917 0V9.017H43.73V5.22h18.052l-1.245 3.797H54.78V28h-4.59zM32.136 14.316h2.49c.778 0 1.167 0 1.556-.079 1.012-.316 1.712-1.265 1.712-2.53 0-1.503-.7-2.215-1.712-2.532-.389-.158-.778-.237-1.634-.237h-2.334v5.378h-.078zm.078 3.955v6.011h3.112c.934 0 1.79-.079 2.413-.633.622-.553.855-1.344.855-2.293 0-.712-.233-1.424-.544-1.978-.623-.79-1.478-1.028-2.88-1.028h-2.956v-.079zm7.159-2.373c.855.396 1.634.95 2.1 1.266 1.324 1.107 1.868 2.53 1.868 4.43 0 3.084-1.634 5.378-4.28 6.09-.778.237-1.634.316-3.268.316h-8.092V5.22h7.159c1.478 0 2.49.08 3.346.317 2.567.712 4.28 2.53 4.28 5.378 0 1.503-.545 2.848-1.401 3.718-.312.395-.857.87-1.712 1.265zM23.11 3.48H4.124L5.524 0h18.987l-1.4 3.48zm-.7 1.74H3.424l-1.4 3.48h18.985l1.4-3.48zm-2.023 5.141H1.4L0 13.841h18.985l1.4-3.48z"/></g><defs><clipPath id="jclip0_12_636"><path fill="currentColor" d="M0 0h128v28H0z"/></clipPath></defs></svg><svg fill="none" viewBox="0 0 14 23" id="odnoklassniki-ico" xmlns="http://www.w3.org/2000/svg"><path d="M7 .256a5.628 5.628 0 100 11.256A5.628 5.628 0 007 .256zM7 8.21a2.327 2.327 0 110-4.653A2.327 2.327 0 017 8.21z" fill="currentColor"/><path d="M9.185 16.22c2.37-.502 3.789-1.669 3.864-1.732.693-.578.804-1.632.248-2.353a1.567 1.567 0 00-2.261-.26c-.015.013-1.529 1.222-4.02 1.224-2.491-.002-4.037-1.21-4.052-1.223a1.567 1.567 0 00-2.261.259c-.556.721-.445 1.775.248 2.353.076.064 1.554 1.262 3.99 1.752l-3.394 3.691a1.723 1.723 0 00.041 2.367 1.57 1.57 0 001.117.47c.421 0 .842-.172 1.158-.513l3.153-3.495 3.471 3.518a1.565 1.565 0 002.276-.002 1.723 1.723 0 00-.002-2.368L9.185 16.22zM7.017 13.098c-.007 0 .006 0 0 0-.007 0 .006 0 0 0z" fill="currentColor"/></svg><svg fill="none" viewBox="0 0 20 20" id="phone-ico" xmlns="http://www.w3.org/2000/svg"><path d="M19.14 15.803c0 .33-.074.669-.23.999-.156.33-.358.642-.623.935-.45.495-.944.852-1.504 1.082-.55.229-1.146.348-1.787.348-.935 0-1.934-.22-2.989-.67a16.106 16.106 0 01-3.153-1.814 26.35 26.35 0 01-3.006-2.567 26.042 26.042 0 01-2.558-2.998c-.752-1.045-1.357-2.09-1.797-3.125-.44-1.045-.66-2.045-.66-2.998 0-.623.11-1.219.33-1.769a4.22 4.22 0 011.055-1.53c.586-.578 1.228-.863 1.906-.863.257 0 .514.055.743.165.238.11.449.276.614.514l2.127 2.997c.165.23.284.44.366.642.083.192.129.385.129.56 0 .22-.065.44-.193.65-.12.21-.293.43-.513.65l-.697.725a.49.49 0 00-.147.367c0 .073.01.137.028.21.027.074.055.129.073.184.165.302.45.697.853 1.173.412.477.852.963 1.329 1.448.495.486.972.935 1.457 1.348.477.403.871.678 1.183.843.046.019.1.046.165.074a.632.632 0 00.229.036.505.505 0 00.376-.155l.697-.688c.229-.23.449-.403.66-.513a1.22 1.22 0 01.65-.193c.175 0 .358.037.56.12.201.082.412.201.641.357l3.034 2.154c.239.165.404.357.505.587.091.229.146.458.146.715z" fill="currentColor"/></svg><svg fill="none" viewBox="0 0 8 5" id="select-arrow" xmlns="http://www.w3.org/2000/svg"><path d="M7.3.73L4.583 3.445a.827.827 0 01-1.166 0L.7.729" stroke="currentColor" stroke-miterlimit="10" stroke-linecap="round" stroke-linejoin="round"/></svg><svg fill="none" viewBox="0 0 17 10" id="select-arrow2" xmlns="http://www.w3.org/2000/svg"><path d="M1 1l7.5 7.5L16 1" stroke="#11257A" stroke-width="2" stroke-linecap="round"/></svg><svg fill="none" viewBox="0 0 11 22" id="slider-arrow-left" xmlns="http://www.w3.org/2000/svg"><path d="M9.5.885a.865.865 0 00-.618.257L1.275 8.748a3.197 3.197 0 000 4.504l7.607 7.606a.88.88 0 001.236 0 .88.88 0 000-1.236l-7.606-7.607c-.56-.56-.56-1.47 0-2.03l7.606-7.607a.88.88 0 000-1.236A.916.916 0 009.5.885z" fill="currentColor"/></svg><svg fill="none" viewBox="0 0 11 22" id="slider-arrow-right" xmlns="http://www.w3.org/2000/svg"><path d="M1.5.885c.222 0 .443.082.618.257l7.607 7.606a3.197 3.197 0 010 4.504l-7.607 7.606a.88.88 0 01-1.236 0 .88.88 0 010-1.236l7.606-7.607c.56-.56.56-1.47 0-2.03L.882 2.378a.88.88 0 010-1.236A.917.917 0 011.5.885z" fill="currentColor"/></svg><svg fill="none" viewBox="0 0 23 13" id="vk-ico" xmlns="http://www.w3.org/2000/svg"><path fill-rule="evenodd" clip-rule="evenodd" d="M11.247 12.623h1.345s.407-.043.614-.257c.191-.196.185-.565.185-.565s-.026-1.726.812-1.98c.826-.25 1.887 1.668 3.011 2.406.85.558 1.496.436 1.496.436l3.006-.04s1.573-.093.828-1.275c-.062-.097-.435-.875-2.236-2.473-1.885-1.673-1.632-1.402.638-4.296 1.383-1.762 1.936-2.838 1.763-3.299-.164-.439-1.181-.323-1.181-.323l-3.385.02s-.251-.032-.437.074c-.182.104-.3.348-.3.348s-.535 1.363-1.25 2.523c-1.507 2.447-2.11 2.576-2.356 2.424-.573-.354-.43-1.422-.43-2.181 0-2.372.377-3.36-.732-3.617-.368-.085-.639-.14-1.58-.15C9.85.386 8.828.402 8.249.673c-.385.18-.682.582-.501.605.224.029.73.13.999.48.347.451.335 1.465.335 1.465s.199 2.791-.466 3.138C8.16 6.6 7.534 6.114 6.19 3.893 5.502 2.756 4.982 1.5 4.982 1.5s-.1-.235-.28-.36c-.216-.153-.52-.201-.52-.201L.967.958s-.483.013-.66.214c-.158.178-.012.547-.012.547s2.518 5.633 5.37 8.472c2.614 2.603 5.583 2.432 5.583 2.432z" fill="currentColor"/></svg></svg>