<?xml version="1.0" encoding="utf-8"?><svg viewBox="0 0 337 337" xmlns="http://www.w3.org/2000/svg" xmlns:xlink="http://www.w3.org/1999/xlink"><style>:root>svg{display:none}:root>svg:target{display:block}</style><svg fill="none" viewBox="0 0 22 11" id="arrow-up" xmlns="http://www.w3.org/2000/svg"><path d="M21.115 9.5a.865.865 0 00-.257-.618l-7.606-7.607a3.197 3.197 0 00-4.504 0L1.142 8.882a.88.88 0 000 1.236.88.88 0 001.236 0l7.607-7.606c.56-.56 1.47-.56 2.03 0l7.607 7.606a.88.88 0 001.236 0 .917.917 0 00.257-.618z" fill="#11257A"/></svg><svg fill="none" viewBox="0 0 27 28" id="briefcase" xmlns="http://www.w3.org/2000/svg"><path d="M26 17.624a33.238 33.238 0 01-12.5 2.423c-4.42 0-8.639-.86-12.5-2.423M19.056 7.547V4.77a2.778 2.778 0 00-2.778-2.777h-5.556a2.778 2.778 0 00-2.778 2.777v2.778m5.556 8.334h.014M3.778 26.99h19.444A2.778 2.778 0 0026 24.215V10.325a2.778 2.778 0 00-2.778-2.778H3.778A2.778 2.778 0 001 10.325v13.889a2.778 2.778 0 002.778 2.778z" stroke="currentColor" stroke-width="2" stroke-linecap="round" stroke-linejoin="round"/></svg><svg fill="none" viewBox="0 0 12 12" id="calculator-ico" xmlns="http://www.w3.org/2000/svg"><path d="M5 11h2c2.5 0 3.5-1 3.5-3.5v-3C10.5 2 9.5 1 7 1H5C2.5 1 1.5 2 1.5 4.5v3C1.5 10 2.5 11 5 11z" stroke="currentColor" stroke-width=".5" stroke-linecap="round" stroke-linejoin="round"/><path d="M8.25 3.79v.5c0 .41-.335.75-.75.75h-3a.752.752 0 01-.75-.75v-.5c0-.41.335-.75.75-.75h3c.415 0 .75.335.75.75z" stroke="currentColor" stroke-width=".5" stroke-linecap="round" stroke-linejoin="round"/><path d="M4.068 7h.006M5.998 7h.005M7.927 7h.006M4.068 8.75h.006M5.998 8.75h.005M7.927 8.75h.006" stroke="currentColor" stroke-width=".75" stroke-linecap="round" stroke-linejoin="round"/></svg><svg fill="none" viewBox="0 0 27 23" id="car" xmlns="http://www.w3.org/2000/svg"><path d="M14.889 17.228V3.34A1.389 1.389 0 0013.5 1.951H2.389A1.389 1.389 0 001 3.339v13.89a1.389 1.389 0 001.389 1.388h1.389m11.11-1.389a1.389 1.389 0 01-1.388 1.39H9.333m5.556-1.39V6.118a1.389 1.389 0 011.389-1.39h3.591c.369 0 .722.147.982.407l4.742 4.742c.26.26.407.614.407.982v6.37a1.389 1.389 0 01-1.389 1.388h-1.389m-8.333-1.389a1.389 1.389 0 001.389 1.39h1.389m-13.89 0a2.778 2.778 0 105.556 0m-5.555 0a2.778 2.778 0 015.555 0m8.334 0a2.778 2.778 0 105.555 0m-5.555 0a2.778 2.778 0 115.555 0" stroke="currentColor" stroke-width="2" stroke-linecap="round" stroke-linejoin="round"/></svg><svg fill="none" viewBox="0 0 15 15" id="check-circle" xmlns="http://www.w3.org/2000/svg"><path d="M4.575 6.82L6.44 8.684l3.532-3.532m3.878 1.885a6.5 6.5 0 11-13 0 6.5 6.5 0 0113 0z" stroke="currentColor"/></svg><svg fill="none" viewBox="0 0 22 22" id="email-ico" xmlns="http://www.w3.org/2000/svg"><path d="M11 18.792H6.417c-2.75 0-4.584-1.375-4.584-4.584V7.792c0-3.209 1.834-4.584 4.584-4.584h9.166c2.75 0 4.584 1.375 4.584 4.584v2.75" stroke="#fff" stroke-miterlimit="10" stroke-linecap="round" stroke-linejoin="round"/><path d="M15.583 8.25l-2.869 2.292c-.944.751-2.493.751-3.437 0L6.417 8.25" stroke="#fff" stroke-miterlimit="10" stroke-linecap="round" stroke-linejoin="round"/><path d="M17.61 13.54l-3.246 3.244a1.13 1.13 0 00-.275.541l-.174 1.238c-.064.449.248.76.697.696l1.237-.174a1.09 1.09 0 00.541-.275l3.245-3.245c.56-.56.825-1.21 0-2.035-.816-.816-1.467-.55-2.026.01z" fill="#fff" stroke="#fff" stroke-miterlimit="10" stroke-linecap="round" stroke-linejoin="round"/><path d="M17.142 14.007a2.92 2.92 0 002.035 2.035" stroke="#fff" stroke-miterlimit="10" stroke-linecap="round" stroke-linejoin="round"/></svg><svg fill="none" viewBox="0 0 27 23" id="hero-1" xmlns="http://www.w3.org/2000/svg"><path d="M20.26 7.71V4.853c0-.758-.29-1.484-.807-2.02a2.7 2.7 0 00-1.945-.837H3.75a2.7 2.7 0 00-1.945.837A2.914 2.914 0 001 4.853v8.571c0 .758.29 1.485.806 2.02a2.7 2.7 0 001.945.838h2.752m2.751 5.714h13.757a2.7 2.7 0 001.945-.837 2.914 2.914 0 00.806-2.02v-8.572c0-.757-.29-1.484-.806-2.02a2.7 2.7 0 00-1.945-.837H9.254a2.7 2.7 0 00-1.946.837 2.914 2.914 0 00-.805 2.02v8.572c0 .758.29 1.484.805 2.02a2.7 2.7 0 001.946.837zm9.63-7.143c0 .758-.29 1.484-.806 2.02a2.7 2.7 0 01-1.946.837 2.7 2.7 0 01-1.945-.837 2.914 2.914 0 01-.806-2.02c0-.758.29-1.485.806-2.02a2.7 2.7 0 011.945-.837 2.7 2.7 0 011.946.837c.516.535.806 1.262.806 2.02v0z" stroke="currentColor" stroke-width="2" stroke-linecap="round" stroke-linejoin="round"/></svg><svg fill="none" viewBox="0 0 18 23" id="hero-2" xmlns="http://www.w3.org/2000/svg"><path d="M5.571 4.218H3.286a2.32 2.32 0 00-1.617.65C1.241 5.287 1 5.852 1 6.44v13.334c0 .589.24 1.154.67 1.571a2.32 2.32 0 001.616.65h11.428a2.32 2.32 0 001.617-.65c.428-.417.669-.982.669-1.571V6.44c0-.59-.24-1.154-.67-1.571a2.32 2.32 0 00-1.616-.65H12.43m-6.858 0c0 .588.241 1.154.67 1.57a2.32 2.32 0 001.616.651h2.286a2.32 2.32 0 001.616-.65c.429-.417.67-.983.67-1.572m-6.858 0c0-.59.241-1.155.67-1.571a2.32 2.32 0 011.616-.651h2.286a2.32 2.32 0 011.616.65c.429.417.67.983.67 1.572m-6.858 10l2.286 2.222 4.572-4.444" stroke="currentColor" stroke-width="2" stroke-linecap="round" stroke-linejoin="round"/></svg><svg fill="none" viewBox="0 0 19 23" id="hero-3" xmlns="http://www.w3.org/2000/svg"><path d="M5.615 17.551V15.33m3.462 2.222v-4.444m3.462 4.444v-6.666m2.307 11.11H3.308a2.354 2.354 0 01-1.632-.65A2.181 2.181 0 011 19.774V4.218c0-.59.243-1.155.676-1.571a2.354 2.354 0 011.632-.651h6.445c.306 0 .6.117.816.325l6.247 6.016c.216.208.338.49.338.786v10.65c0 .59-.243 1.155-.676 1.572-.433.417-1.02.65-1.632.65z" stroke="currentColor" stroke-width="2" stroke-linecap="round" stroke-linejoin="round"/></svg><svg fill="none" viewBox="0 0 22 23" id="hero-4" xmlns="http://www.w3.org/2000/svg"><path d="M7.429 12.241l2.142 2.263 4.286-4.525m6.02-4.544c-3.388.19-6.71-1.047-9.234-3.44-2.525 2.393-5.846 3.63-9.234 3.44A14.319 14.319 0 001 8.847c0 6.326 4.097 11.642 9.643 13.149 5.546-1.507 9.643-6.822 9.643-13.149 0-1.179-.143-2.321-.41-3.412z" stroke="currentColor" stroke-width="2" stroke-linecap="round" stroke-linejoin="round"/></svg><svg fill="none" viewBox="0 0 2 9" id="information" xmlns="http://www.w3.org/2000/svg"><path d="M.216 8.037v-5.38h1.56v5.38H.216zm.78-6.13c-.287 0-.52-.083-.7-.25a.81.81 0 01-.27-.62.81.81 0 01.27-.62c.18-.167.413-.25.7-.25s.52.08.7.24a.75.75 0 01.27.6c0 .26-.09.477-.27.65-.173.167-.407.25-.7.25z" fill="currentColor"/></svg><svg fill="none" viewBox="0 0 27 27" id="label" xmlns="http://www.w3.org/2000/svg"><path d="M6.48 6.922h.013m-.013-5.4h6.75c.691 0 1.382.264 1.909.791l9.45 9.45a2.7 2.7 0 010 3.818l-9.45 9.45a2.7 2.7 0 01-3.818 0l-9.45-9.45a2.692 2.692 0 01-.791-1.909v-6.75a5.4 5.4 0 015.4-5.4v0z" stroke="currentColor" stroke-width="2" stroke-linecap="round" stroke-linejoin="round"/></svg><svg fill="none" viewBox="0 0 48 48" id="leasing-car" xmlns="http://www.w3.org/2000/svg"><path d="M31.02 5.66H16.98c-4.98 0-6.08 2.48-6.72 5.52L8 22h32l-2.26-10.82C37.1 8.14 36 5.66 31.02 5.66zM43.98 39.64c.22 2.34-1.66 4.36-4.06 4.36h-3.76c-2.16 0-2.46-.92-2.84-2.06l-.4-1.2C32.36 39.1 32 38 29.12 38H18.88c-2.88 0-3.3 1.24-3.8 2.74l-.4 1.2C14.3 43.08 14 44 11.84 44H8.08c-2.4 0-4.28-2.02-4.06-4.36l1.12-12.18c.28-3 .86-5.46 6.1-5.46h25.52c5.24 0 5.82 2.46 6.1 5.46l1.12 12.18zM8 16H6M42 16h-2M24 6v4M21 10h6M12 30h6M30 30h6" stroke="currentColor" stroke-width="2" stroke-linecap="round" stroke-linejoin="round"/></svg><svg fill="none" viewBox="0 0 48 48" id="leasing-document" xmlns="http://www.w3.org/2000/svg"><path d="M44 20v10c0 10-4 14-14 14H18C8 44 4 40 4 30V18C4 8 8 4 18 4h10" stroke="currentColor" stroke-width="2" stroke-linecap="round" stroke-linejoin="round"/><path d="M44 20h-8c-6 0-8-2-8-8V4l16 16zM14 26h12M14 34h8" stroke="currentColor" stroke-width="2" stroke-linecap="round" stroke-linejoin="round"/></svg><svg fill="none" viewBox="0 0 48 48" id="leasing-edit" xmlns="http://www.w3.org/2000/svg"><path d="M22 4h-4C8 4 4 8 4 18v12c0 10 4 14 14 14h12c10 0 14-4 14-14v-4" stroke="currentColor" stroke-width="2" stroke-linecap="round" stroke-linejoin="round"/><path d="M32.08 6.04L16.32 21.8c-.6.6-1.2 1.78-1.32 2.64l-.86 6.02c-.32 2.18 1.22 3.7 3.4 3.4l6.02-.86c.84-.12 2.02-.72 2.64-1.32l15.76-15.76c2.72-2.72 4-5.88 0-9.88-4-4-7.16-2.72-9.88 0zM29.82 8.3c1.34 4.78 5.08 8.52 9.88 9.88" stroke="currentColor" stroke-width="2" stroke-miterlimit="10" stroke-linecap="round" stroke-linejoin="round"/></svg><svg fill="none" viewBox="0 0 48 48" id="leasing-medal" xmlns="http://www.w3.org/2000/svg"><path d="M24 30c7.456 0 13.5-5.82 13.5-13S31.456 4 24 4 10.5 9.82 10.5 17 16.544 30 24 30z" stroke="currentColor" stroke-width="2" stroke-linecap="round" stroke-linejoin="round"/><path d="M15.04 27.04l-.02 14.76c0 1.8 1.26 2.68 2.82 1.94l5.36-2.54c.44-.22 1.18-.22 1.62 0l5.38 2.54c1.54.72 2.82-.14 2.82-1.94V26.68" stroke="currentColor" stroke-width="2" stroke-linecap="round" stroke-linejoin="round"/></svg><svg fill="none" viewBox="0 0 48 48" id="leasing-verify" xmlns="http://www.w3.org/2000/svg"><path d="M16.76 24l4.82 4.84 9.66-9.68" stroke="currentColor" stroke-width="2" stroke-linecap="round" stroke-linejoin="round"/><path d="M21.5 4.9c1.38-1.18 3.64-1.18 5.04 0l3.16 2.72c.6.52 1.72.94 2.52.94h3.4c2.12 0 3.86 1.74 3.86 3.86v3.4c0 .78.42 1.92.94 2.52l2.72 3.16c1.18 1.38 1.18 3.64 0 5.04l-2.72 3.16c-.52.6-.94 1.72-.94 2.52v3.4c0 2.12-1.74 3.86-3.86 3.86h-3.4c-.78 0-1.92.42-2.52.94l-3.16 2.72c-1.38 1.18-3.64 1.18-5.04 0l-3.16-2.72c-.6-.52-1.72-.94-2.52-.94h-3.46c-2.12 0-3.86-1.74-3.86-3.86V32.2c0-.78-.42-1.9-.92-2.5l-2.7-3.18c-1.16-1.38-1.16-3.62 0-5l2.7-3.18c.5-.6.92-1.72.92-2.5V12.4c0-2.12 1.74-3.86 3.86-3.86h3.46c.78 0 1.92-.42 2.52-.94l3.16-2.7z" stroke="currentColor" stroke-width="2" stroke-linecap="round" stroke-linejoin="round"/></svg><svg fill="none" viewBox="0 0 48 48" id="leasing-wallet" xmlns="http://www.w3.org/2000/svg"><path d="M36.08 27.1c-.84.82-1.32 2-1.2 3.26.18 2.16 2.16 3.74 4.32 3.74H43v2.38c0 4.14-3.38 7.52-7.52 7.52H12.52C8.38 44 5 40.62 5 36.48V23.02c0-4.14 3.38-7.52 7.52-7.52h22.96c4.14 0 7.52 3.38 7.52 7.52v2.88h-4.04c-1.12 0-2.14.44-2.88 1.2z" stroke="currentColor" stroke-width="2" stroke-linecap="round" stroke-linejoin="round"/><path d="M5 24.82v-9.14c0-2.38 1.46-4.5 3.68-5.34l15.88-6c2.48-.94 5.14.9 5.14 3.56v7.6M45.118 27.94v4.12c0 1.1-.88 2-2 2.04h-3.92c-2.16 0-4.14-1.58-4.32-3.74-.12-1.26.36-2.44 1.2-3.26.74-.76 1.76-1.2 2.88-1.2h4.16c1.12.04 2 .94 2 2.04zM14 24h14" stroke="currentColor" stroke-width="2" stroke-linecap="round" stroke-linejoin="round"/></svg><svg fill="none" viewBox="0 0 128 28" id="logo" xmlns="http://www.w3.org/2000/svg"><g clip-path="url(#asclip0_12_636)" fill="currentColor"><path d="M84.892 12.734l.078-1.265c.156.079.389.079.623.079 1.089 0 1.167-1.66 1.167-6.407h5.135v7.593H90.34V6.407h-2.178c0 4.113-.156 6.407-2.18 6.407-.388.079-.777 0-1.089-.08zm8.793-7.514h1.478V7.99c0 .79-.077 2.214-.077 2.926l3.19-5.695h1.634v7.594h-1.478v-2.769c0-.79.077-2.214.077-2.926l-3.19 5.695h-1.634V5.22zm7.47 7.435l.155-1.344c.545.316 1.245.395 1.868.395.7 0 1.556-.158 1.556-1.107 0-1.029-1.089-1.108-1.79-1.108h-.544V8.305h.389c.7 0 1.867-.158 1.867-1.108 0-.79-.778-.949-1.4-.949-.545 0-1.323.158-1.79.316l-.156-1.186c.623-.158 1.479-.316 2.179-.316 1.478 0 2.646.553 2.646 1.977 0 .791-.545 1.424-1.401 1.661.934.158 1.556.95 1.556 1.82 0 1.66-1.245 2.293-2.957 2.293-.778.159-1.556 0-2.178-.158zm6.614-7.435h1.478V7.99c0 .79-.077 2.214-.077 2.926l3.19-5.695h1.634v7.594h-1.478v-2.769c0-.79.077-2.214.077-2.926l-3.19 5.695h-1.634V5.22zm8.092 0h1.556v3.006h2.957V5.22h1.557v7.594h-1.557V9.49h-2.956v3.323h-1.557V5.22zm7.782 0H128v1.266h-2.879v6.328h-1.556V5.22h.078zM67.54 24.203h3.346c1.245 0 2.023-.316 2.568-1.028.233-.316.623-.95.623-2.136 0-1.186-.39-1.977-1.168-2.61-.467-.316-1.09-.553-2.1-.553h-3.347v6.327h.078zM63.105 28V5.22h14.629l-1.245 3.797H67.54v5.062h3.658c2.879 0 4.435.712 5.447 1.582.778.712 2.178 2.293 2.178 5.379 0 3.084-1.4 4.745-2.645 5.615-1.4.95-2.88 1.266-5.836 1.266h-7.236V28zm-12.917 0V9.017H43.73V5.22h18.052l-1.245 3.797H54.78V28h-4.59zM32.136 14.316h2.49c.778 0 1.167 0 1.556-.079 1.012-.316 1.712-1.265 1.712-2.53 0-1.503-.7-2.215-1.712-2.532-.389-.158-.778-.237-1.634-.237h-2.334v5.378h-.078zm.078 3.955v6.011h3.112c.934 0 1.79-.079 2.413-.633.622-.553.855-1.344.855-2.293 0-.712-.233-1.424-.544-1.978-.623-.79-1.478-1.028-2.88-1.028h-2.956v-.079zm7.159-2.373c.855.396 1.634.95 2.1 1.266 1.324 1.107 1.868 2.53 1.868 4.43 0 3.084-1.634 5.378-4.28 6.09-.778.237-1.634.316-3.268.316h-8.092V5.22h7.159c1.478 0 2.49.08 3.346.317 2.567.712 4.28 2.53 4.28 5.378 0 1.503-.545 2.848-1.401 3.718-.312.395-.857.87-1.712 1.265zM23.11 3.48H4.124L5.524 0h18.987l-1.4 3.48zm-.7 1.74H3.424l-1.4 3.48h18.985l1.4-3.48zm-2.023 5.141H1.4L0 13.841h18.985l1.4-3.48z"/></g><defs><clipPath id="asclip0_12_636"><path fill="currentColor" d="M0 0h128v28H0z"/></clipPath></defs></svg><svg fill="none" viewBox="0 0 14 23" id="odnoklassniki-ico" xmlns="http://www.w3.org/2000/svg"><path d="M7 .256a5.628 5.628 0 100 11.256A5.628 5.628 0 007 .256zM7 8.21a2.327 2.327 0 110-4.653A2.327 2.327 0 017 8.21z" fill="currentColor"/><path d="M9.185 16.22c2.37-.502 3.789-1.669 3.864-1.732.693-.578.804-1.632.248-2.353a1.567 1.567 0 00-2.261-.26c-.015.013-1.529 1.222-4.02 1.224-2.491-.002-4.037-1.21-4.052-1.223a1.567 1.567 0 00-2.261.259c-.556.721-.445 1.775.248 2.353.076.064 1.554 1.262 3.99 1.752l-3.394 3.691a1.723 1.723 0 00.041 2.367 1.57 1.57 0 001.117.47c.421 0 .842-.172 1.158-.513l3.153-3.495 3.471 3.518a1.565 1.565 0 002.276-.002 1.723 1.723 0 00-.002-2.368L9.185 16.22zM7.017 13.098c-.007 0 .006 0 0 0-.007 0 .006 0 0 0z" fill="currentColor"/></svg><svg fill="none" viewBox="0 0 20 20" id="phone-ico" xmlns="http://www.w3.org/2000/svg"><path d="M19.14 15.803c0 .33-.074.669-.23.999-.156.33-.358.642-.623.935-.45.495-.944.852-1.504 1.082-.55.229-1.146.348-1.787.348-.935 0-1.934-.22-2.989-.67a16.106 16.106 0 01-3.153-1.814 26.35 26.35 0 01-3.006-2.567 26.042 26.042 0 01-2.558-2.998c-.752-1.045-1.357-2.09-1.797-3.125-.44-1.045-.66-2.045-.66-2.998 0-.623.11-1.219.33-1.769a4.22 4.22 0 011.055-1.53c.586-.578 1.228-.863 1.906-.863.257 0 .514.055.743.165.238.11.449.276.614.514l2.127 2.997c.165.23.284.44.366.642.083.192.129.385.129.56 0 .22-.065.44-.193.65-.12.21-.293.43-.513.65l-.697.725a.49.49 0 00-.147.367c0 .073.01.137.028.21.027.074.055.129.073.184.165.302.45.697.853 1.173.412.477.852.963 1.329 1.448.495.486.972.935 1.457 1.348.477.403.871.678 1.183.843.046.019.1.046.165.074a.632.632 0 00.229.036.505.505 0 00.376-.155l.697-.688c.229-.23.449-.403.66-.513a1.22 1.22 0 01.65-.193c.175 0 .358.037.56.12.201.082.412.201.641.357l3.034 2.154c.239.165.404.357.505.587.091.229.146.458.146.715z" fill="currentColor"/></svg><svg fill="none" viewBox="0 0 20 20" id="plus-ico" xmlns="http://www.w3.org/2000/svg"><path d="M17.92 10H2.08M10 2.08v15.84" stroke="#fff" stroke-width="2" stroke-miterlimit="10" stroke-linecap="round" stroke-linejoin="round"/></svg><svg fill="none" viewBox="0 0 8 5" id="select-arrow" xmlns="http://www.w3.org/2000/svg"><path d="M7.3.73L4.583 3.445a.827.827 0 01-1.166 0L.7.729" stroke="currentColor" stroke-miterlimit="10" stroke-linecap="round" stroke-linejoin="round"/></svg><svg fill="none" viewBox="0 0 17 10" id="select-arrow2" xmlns="http://www.w3.org/2000/svg"><path d="M1 1l7.5 7.5L16 1" stroke="#11257A" stroke-width="2" stroke-linecap="round"/></svg><svg fill="none" viewBox="0 0 11 22" id="slider-arrow-left" xmlns="http://www.w3.org/2000/svg"><path d="M9.5.885a.865.865 0 00-.618.257L1.275 8.748a3.197 3.197 0 000 4.504l7.607 7.606a.88.88 0 001.236 0 .88.88 0 000-1.236l-7.606-7.607c-.56-.56-.56-1.47 0-2.03l7.606-7.607a.88.88 0 000-1.236A.916.916 0 009.5.885z" fill="currentColor"/></svg><svg fill="none" viewBox="0 0 11 22" id="slider-arrow-right" xmlns="http://www.w3.org/2000/svg"><path d="M1.5.885c.222 0 .443.082.618.257l7.607 7.606a3.197 3.197 0 010 4.504l-7.607 7.606a.88.88 0 01-1.236 0 .88.88 0 010-1.236l7.606-7.607c.56-.56.56-1.47 0-2.03L.882 2.378a.88.88 0 010-1.236A.917.917 0 011.5.885z" fill="currentColor"/></svg><svg style="margin:auto;background:0 0" viewBox="0 0 100 100" preserveAspectRatio="xMidYMid" display="block" id="spinner" xmlns="http://www.w3.org/2000/svg"><rect x="44.5" y="17" rx="5.5" ry="6" width="11" height="12" fill="#11257A"><animate attributeName="opacity" values="1;0" keyTimes="0;1" dur="1s" begin="-0.9285714285714286s" repeatCount="indefinite"/></rect><rect x="44.5" y="17" rx="5.5" ry="6" width="11" height="12" fill="#11257A" transform="rotate(25.714 50 50)"><animate attributeName="opacity" values="1;0" keyTimes="0;1" dur="1s" begin="-0.8571428571428571s" repeatCount="indefinite"/></rect><rect x="44.5" y="17" rx="5.5" ry="6" width="11" height="12" fill="#11257A" transform="rotate(51.429 50 50)"><animate attributeName="opacity" values="1;0" keyTimes="0;1" dur="1s" begin="-0.7857142857142857s" repeatCount="indefinite"/></rect><rect x="44.5" y="17" rx="5.5" ry="6" width="11" height="12" fill="#11257A" transform="rotate(77.143 50 50)"><animate attributeName="opacity" values="1;0" keyTimes="0;1" dur="1s" begin="-0.7142857142857143s" repeatCount="indefinite"/></rect><rect x="44.5" y="17" rx="5.5" ry="6" width="11" height="12" fill="#11257A" transform="rotate(102.857 50 50)"><animate attributeName="opacity" values="1;0" keyTimes="0;1" dur="1s" begin="-0.6428571428571429s" repeatCount="indefinite"/></rect><rect x="44.5" y="17" rx="5.5" ry="6" width="11" height="12" fill="#11257A" transform="rotate(128.571 50 50)"><animate attributeName="opacity" values="1;0" keyTimes="0;1" dur="1s" begin="-0.5714285714285714s" repeatCount="indefinite"/></rect><rect x="44.5" y="17" rx="5.5" ry="6" width="11" height="12" fill="#11257A" transform="rotate(154.286 50 50)"><animate attributeName="opacity" values="1;0" keyTimes="0;1" dur="1s" begin="-0.5s" repeatCount="indefinite"/></rect><rect x="44.5" y="17" rx="5.5" ry="6" width="11" height="12" fill="#11257A" transform="rotate(180 50 50)"><animate attributeName="opacity" values="1;0" keyTimes="0;1" dur="1s" begin="-0.42857142857142855s" repeatCount="indefinite"/></rect><rect x="44.5" y="17" rx="5.5" ry="6" width="11" height="12" fill="#11257A" transform="rotate(205.714 50 50)"><animate attributeName="opacity" values="1;0" keyTimes="0;1" dur="1s" begin="-0.35714285714285715s" repeatCount="indefinite"/></rect><rect x="44.5" y="17" rx="5.5" ry="6" width="11" height="12" fill="#11257A" transform="rotate(231.429 50 50)"><animate attributeName="opacity" values="1;0" keyTimes="0;1" dur="1s" begin="-0.2857142857142857s" repeatCount="indefinite"/></rect><rect x="44.5" y="17" rx="5.5" ry="6" width="11" height="12" fill="#11257A" transform="rotate(257.143 50 50)"><animate attributeName="opacity" values="1;0" keyTimes="0;1" dur="1s" begin="-0.21428571428571427s" repeatCount="indefinite"/></rect><rect x="44.5" y="17" rx="5.5" ry="6" width="11" height="12" fill="#11257A" transform="rotate(282.857 50 50)"><animate attributeName="opacity" values="1;0" keyTimes="0;1" dur="1s" begin="-0.14285714285714285s" repeatCount="indefinite"/></rect><rect x="44.5" y="17" rx="5.5" ry="6" width="11" height="12" fill="#11257A" transform="rotate(308.571 50 50)"><animate attributeName="opacity" values="1;0" keyTimes="0;1" dur="1s" begin="-0.07142857142857142s" repeatCount="indefinite"/></rect><rect x="44.5" y="17" rx="5.5" ry="6" width="11" height="12" fill="#11257A" transform="rotate(334.286 50 50)"><animate attributeName="opacity" values="1;0" keyTimes="0;1" dur="1s" begin="0s" repeatCount="indefinite"/></rect></svg><svg fill="none" viewBox="0 0 56 31" id="truck" xmlns="http://www.w3.org/2000/svg"><path d="M10.473 25.085h-.008a.817.817 0 00-.816.82c0 .453.372.82.825.82a.82.82 0 000-1.64zM17.488 25.085h-.01a.817.817 0 00-.815.82c0 .453.372.82.825.82a.82.82 0 000-1.64zM46.42 25.085h-.008a.817.817 0 00-.816.82c0 .453.372.82.825.82a.82.82 0 000-1.64z" fill="currentColor"/><path d="M55.246 15.167l-1.103-1.103-2.222-6.666a.82.82 0 00-.248-1.602h-7.948V2.233c0-.936-.76-1.697-1.697-1.697H1.698C.76.536 0 1.297 0 2.233v19.289c0 .936.761 1.697 1.697 1.697h.933v1.81c0 .935.762 1.696 1.697 1.696h1.89a4.323 4.323 0 007.755 1.71 4.324 4.324 0 007.755-1.71h20.437a4.334 4.334 0 004.248 3.507 4.332 4.332 0 004.327-4.327l-.001-.056h3.565c.936 0 1.697-.761 1.697-1.697v-7.165c0-.687-.268-1.334-.754-1.82zm-49.03 9.918H4.327a.056.056 0 01-.056-.057v-1.81h2.805a4.31 4.31 0 00-.86 1.867zm4.249 3.507a2.69 2.69 0 01-2.687-2.687 2.69 2.69 0 012.67-2.686h.034a2.69 2.69 0 012.67 2.686 2.69 2.69 0 01-2.687 2.687zm7.014 0a2.69 2.69 0 01-2.687-2.687 2.69 2.69 0 012.67-2.686h.034a2.69 2.69 0 012.67 2.686 2.69 2.69 0 01-2.687 2.687zm24.685-3.507H21.727a4.31 4.31 0 00-.86-1.866h15.9a.82.82 0 000-1.64H1.698a.056.056 0 01-.056-.057V2.232c0-.03.025-.055.056-.055h40.331c.032 0 .057.025.057.056v19.345h-1.81a.82.82 0 100 1.64h2.748a4.31 4.31 0 00-.86 1.867zM52.58 14.564H47.29a.056.056 0 01-.056-.057v-3.563h4.14l1.207 3.62zm-6.168 14.028a2.69 2.69 0 01-2.687-2.687 2.69 2.69 0 012.67-2.686h.023a2.69 2.69 0 012.681 2.686 2.69 2.69 0 01-2.687 2.687zm7.947-4.44a.056.056 0 01-.056.057h-3.91a4.334 4.334 0 00-3.98-2.631H43.724V7.494c0-.032.026-.057.057-.057h6.423l.622 1.866h-4.415a.82.82 0 00-.82.82v4.384c0 .936.761 1.697 1.697 1.697h6.674l.123.123c.176.177.273.41.273.66v1.961h-.933a.82.82 0 000 1.64h.933v3.564z" fill="currentColor"/><path d="M39.398 18.071H4.328a.82.82 0 000 1.64h35.07a.82.82 0 000-1.64z" fill="currentColor"/></svg><svg fill="none" viewBox="0 0 22 28" id="user" xmlns="http://www.w3.org/2000/svg"><path d="M16.278 7.089a5.555 5.555 0 11-11.111 0 5.555 5.555 0 0111.11 0v0zm-5.556 9.722A9.722 9.722 0 001 26.533h19.444a9.723 9.723 0 00-9.722-9.722v0z" stroke="currentColor" stroke-width="2" stroke-linecap="round" stroke-linejoin="round"/></svg><svg fill="none" viewBox="0 0 23 13" id="vk-ico" xmlns="http://www.w3.org/2000/svg"><path fill-rule="evenodd" clip-rule="evenodd" d="M11.247 12.623h1.345s.407-.043.614-.257c.191-.196.185-.565.185-.565s-.026-1.726.812-1.98c.826-.25 1.887 1.668 3.011 2.406.85.558 1.496.436 1.496.436l3.006-.04s1.573-.093.828-1.275c-.062-.097-.435-.875-2.236-2.473-1.885-1.673-1.632-1.402.638-4.296 1.383-1.762 1.936-2.838 1.763-3.299-.164-.439-1.181-.323-1.181-.323l-3.385.02s-.251-.032-.437.074c-.182.104-.3.348-.3.348s-.535 1.363-1.25 2.523c-1.507 2.447-2.11 2.576-2.356 2.424-.573-.354-.43-1.422-.43-2.181 0-2.372.377-3.36-.732-3.617-.368-.085-.639-.14-1.58-.15C9.85.386 8.828.402 8.249.673c-.385.18-.682.582-.501.605.224.029.73.13.999.48.347.451.335 1.465.335 1.465s.199 2.791-.466 3.138C8.16 6.6 7.534 6.114 6.19 3.893 5.502 2.756 4.982 1.5 4.982 1.5s-.1-.235-.28-.36c-.216-.153-.52-.201-.52-.201L.967.958s-.483.013-.66.214c-.158.178-.012.547-.012.547s2.518 5.633 5.37 8.472c2.614 2.603 5.583 2.432 5.583 2.432z" fill="currentColor"/></svg><svg fill="none" viewBox="0 0 48 49" id="watch" xmlns="http://www.w3.org/2000/svg"><path d="M38.7 6.536h1.8v-1.5h-3.75a.75.75 0 00-.75.75v3.75h1.5v-2.04A21.75 21.75 0 0113.852 43.78l-.704 1.32A23.25 23.25 0 0038.7 6.536zM10.5 41.583A21.75 21.75 0 0134.147 5.291l.705-1.32A23.25 23.25 0 009.3 42.536H7.5v1.5h3.75a.75.75 0 00.75-.75v-3.75h-1.5v2.047z" fill="currentColor"/><path d="M6.75 24.536a17.25 17.25 0 1034.5 0 17.25 17.25 0 00-34.5 0zm33 0a15.75 15.75 0 11-31.5 0 15.75 15.75 0 0131.5 0z" fill="currentColor"/><path d="M9.75 24.536a14.25 14.25 0 1028.5 0 14.25 14.25 0 00-28.5 0zm22.282-6.968l1.5-1.5a12.69 12.69 0 013.218 7.718H34.5v1.5h2.25a12.69 12.69 0 01-3.195 7.702l-1.5-1.5-1.065 1.065 1.5 1.5a12.69 12.69 0 01-7.74 3.233v-2.25h-1.5v2.25a12.69 12.69 0 01-7.703-3.195l1.5-1.5-1.065-1.065-1.5 1.5a12.69 12.69 0 01-3.195-7.74H13.5v-1.5h-2.213a12.69 12.69 0 013.195-7.703l1.5 1.5 1.065-1.065-1.5-1.5a12.69 12.69 0 017.703-3.195v2.213h1.5v-2.213a12.69 12.69 0 017.702 3.195l-1.5 1.5 1.08 1.05z" fill="currentColor"/><path d="M24.75 15.536h-1.5v9a.748.748 0 00.217.532l4.5 4.5 1.065-1.065-4.282-4.275v-8.692z" fill="currentColor"/></svg></svg>