<svg width="56" height="31" fill="none" xmlns="http://www.w3.org/2000/svg"><path d="M10.473 25.085h-.008a.817.817 0 00-.816.82c0 .453.372.82.825.82a.82.82 0 000-1.64zm7.015 0h-.01a.817.817 0 00-.815.82c0 .453.372.82.825.82a.82.82 0 000-1.64zm28.932 0h-.008a.817.817 0 00-.816.82c0 .453.372.82.825.82a.82.82 0 000-1.64z" fill="currentColor"/><path d="M55.246 15.167l-1.103-1.103-2.222-6.666a.82.82 0 00-.248-1.602h-7.948V2.233c0-.936-.76-1.697-1.697-1.697H1.698C.76.536 0 1.297 0 2.233v19.289c0 .936.761 1.697 1.697 1.697h.933v1.81c0 .935.762 1.696 1.697 1.696h1.89a4.323 4.323 0 007.755 1.71 4.324 4.324 0 007.755-1.71h20.437a4.334 4.334 0 004.248 3.507 4.332 4.332 0 004.327-4.327l-.001-.056h3.565c.936 0 1.697-.761 1.697-1.697v-7.165c0-.687-.268-1.334-.754-1.82zm-49.03 9.918H4.327a.056.056 0 01-.056-.057v-1.81h2.805a4.31 4.31 0 00-.86 1.867zm4.249 3.507a2.69 2.69 0 01-2.687-2.687 2.69 2.69 0 012.67-2.686h.034a2.69 2.69 0 012.67 2.686 2.69 2.69 0 01-2.687 2.687zm7.014 0a2.69 2.69 0 01-2.687-2.687 2.69 2.69 0 012.67-2.686h.034a2.69 2.69 0 012.67 2.686 2.69 2.69 0 01-2.687 2.687zm24.685-3.507H21.727a4.31 4.31 0 00-.86-1.866h15.9a.82.82 0 000-1.64H1.698a.056.056 0 01-.056-.057V2.232c0-.03.025-.055.056-.055h40.331c.032 0 .057.025.057.056v19.345h-1.81a.82.82 0 100 1.64h2.748a4.31 4.31 0 00-.86 1.867zM52.58 14.564h-5.29a.056.056 0 01-.056-.057v-3.563h4.14l1.207 3.62zm-6.168 14.028a2.69 2.69 0 01-2.687-2.687 2.69 2.69 0 012.67-2.686h.023a2.69 2.69 0 012.681 2.686 2.69 2.69 0 01-2.687 2.687zm7.947-4.44a.056.056 0 01-.056.057h-3.91a4.334 4.334 0 00-3.98-2.631h-2.689V7.494c0-.032.026-.057.057-.057h6.423l.622 1.866h-4.415a.82.82 0 00-.82.82v4.384c0 .936.761 1.697 1.697 1.697h6.674l.123.123c.176.177.273.41.273.66v1.961h-.933a.82.82 0 000 1.64h.933v3.564z" fill="currentColor"/><path d="M39.398 18.071H4.328a.82.82 0 000 1.64h35.07a.82.82 0 000-1.64z" fill="currentColor"/></svg>