<svg width="23" height="13" fill="none" xmlns="http://www.w3.org/2000/svg"><path fill-rule="evenodd" clip-rule="evenodd" d="M11.247 12.623h1.345s.407-.043.614-.257c.191-.196.185-.565.185-.565s-.026-1.726.812-1.98c.826-.25 1.887 1.668 3.011 2.406.85.558 1.496.436 1.496.436l3.006-.04s1.573-.093.828-1.275c-.062-.097-.435-.875-2.236-2.473-1.885-1.673-1.632-1.402.638-4.296 1.383-1.762 1.936-2.838 1.763-3.299-.164-.439-1.181-.323-1.181-.323l-3.385.02s-.251-.032-.437.074c-.182.104-.3.348-.3.348s-.535 1.363-1.25 2.523c-1.507 2.447-2.11 2.576-2.356 2.424-.573-.354-.43-1.422-.43-2.181 0-2.372.377-3.36-.732-3.617-.368-.085-.639-.14-1.58-.15C9.85.386 8.828.402 8.249.673c-.385.18-.682.582-.501.605.224.029.73.13.999.48.347.451.335 1.465.335 1.465s.199 2.791-.466 3.138C8.16 6.6 7.534 6.114 6.19 3.893 5.502 2.756 4.982 1.5 4.982 1.5s-.1-.235-.28-.36c-.216-.153-.52-.201-.52-.201L.967.958s-.483.013-.66.214c-.158.178-.012.547-.012.547s2.518 5.633 5.37 8.472c2.614 2.603 5.583 2.432 5.583 2.432z" fill="currentColor"/></svg>