<svg width="48" height="49" fill="none" xmlns="http://www.w3.org/2000/svg"><path d="M38.7 6.536h1.8v-1.5h-3.75a.75.75 0 00-.75.75v3.75h1.5v-2.04A21.75 21.75 0 0113.852 43.78l-.704 1.32A23.25 23.25 0 0038.7 6.536zM10.5 41.583A21.75 21.75 0 0134.147 5.291l.705-1.32A23.25 23.25 0 009.3 42.536H7.5v1.5h3.75a.75.75 0 00.75-.75v-3.75h-1.5v2.047z" fill="currentColor"/><path d="M6.75 24.536a17.25 17.25 0 1034.5 0 17.25 17.25 0 00-34.5 0zm33 0a15.75 15.75 0 11-31.5 0 15.75 15.75 0 0131.5 0z" fill="currentColor"/><path d="M9.75 24.536a14.25 14.25 0 1028.5 0 14.25 14.25 0 00-28.5 0zm22.282-6.968l1.5-1.5a12.69 12.69 0 013.218 7.718H34.5v1.5h2.25a12.69 12.69 0 01-3.195 7.702l-1.5-1.5-1.065 1.065 1.5 1.5a12.69 12.69 0 01-7.74 3.233v-2.25h-1.5v2.25a12.69 12.69 0 01-7.703-3.195l1.5-1.5-1.065-1.065-1.5 1.5a12.69 12.69 0 01-3.195-7.74H13.5v-1.5h-2.213a12.69 12.69 0 013.195-7.703l1.5 1.5 1.065-1.065-1.5-1.5a12.69 12.69 0 017.703-3.195v2.213h1.5v-2.213a12.69 12.69 0 017.702 3.195l-1.5 1.5 1.08 1.05z" fill="currentColor"/><path d="M24.75 15.536h-1.5v9a.748.748 0 00.217.532l4.5 4.5 1.065-1.065-4.282-4.275v-8.692z" fill="currentColor"/></svg>