<svg width="18" height="18" fill="none" xmlns="http://www.w3.org/2000/svg"><path d="M6.502 1.257A2 2 0 004.646 0H1.895A1.895 1.895 0 000 1.895C0 10.789 7.21 18 16.105 18A1.895 1.895 0 0018 16.105v-2.751a2 2 0 00-1.257-1.857l-2.636-1.054a2 2 0 00-2.023.32l-.68.568a2.001 2.001 0 01-2.696-.122L6.792 9.29a2 2 0 01-.123-2.694l.567-.68a2 2 0 00.322-2.024L6.502 1.257z" fill="url(#paint0_linear_2006_264)"/><defs><linearGradient id="paint0_linear_2006_264" x1="15.415" y1="18" x2="-.837" y2="17.382" gradientUnits="userSpaceOnUse"><stop class="svg-hover" stop-color="#01524D"/><stop class="svg-hover" offset="1" stop-color="#38DBD2"/></linearGradient></defs></svg>