<svg width="40" height="41" fill="none" xmlns="http://www.w3.org/2000/svg"><path d="M3.333 3.833H5.51c.41 0 .615 0 .78.076a.833.833 0 01.355.307c.098.153.127.356.185.762l.79 5.522m0 0l1.752 12.886c.223 1.635.334 2.452.725 3.068.345.542.838.973 1.422 1.241.663.305 1.488.305 3.138.305H28.92c1.571 0 2.356 0 2.998-.283a3.333 3.333 0 001.403-1.16c.397-.578.544-1.35.838-2.892l2.206-11.582c.104-.543.155-.815.08-1.027a.833.833 0 00-.366-.443c-.194-.113-.47-.113-1.023-.113H7.619zm9.047 25a1.667 1.667 0 11-3.334 0 1.667 1.667 0 013.334 0zM30 35.5a1.667 1.667 0 11-3.333 0 1.667 1.667 0 013.333 0z" stroke="currentColor" stroke-width="2" stroke-linecap="round" stroke-linejoin="round"/></svg>