<svg width="21" height="21" fill="none" xmlns="http://www.w3.org/2000/svg"><mask id="a" fill="#fff"><path fill-rule="evenodd" clip-rule="evenodd" d="M3.182 1.06a1.5 1.5 0 00-2.121 2.122l7.424 7.424-7.531 7.531a1.5 1.5 0 102.121 2.121l7.531-7.53 7.425 7.424a1.5 1.5 0 102.122-2.121l-7.425-7.425 7.318-7.318a1.5 1.5 0 10-2.121-2.121l-7.319 7.318L3.182 1.06z"/></mask><path d="M1.06 1.06l3.536 3.536L1.061 1.06zm2.122 0L-.354 4.596 3.182 1.06zM1.061 3.182l-3.536 3.535 3.536-3.535zm7.424 7.424l3.536 3.536a5 5 0 000-7.071l-3.536 3.535zM.954 18.137l3.536 3.536-3.536-3.536zm0 2.121l3.536-3.535-3.536 3.535zm2.121 0L-.46 16.723l3.535 3.535zm7.531-7.53l3.536-3.536a5 5 0 00-7.071 0l3.535 3.535zm9.546 5.303l-3.535 3.536 3.535-3.536zm-7.424-7.425L9.192 7.071a5 5 0 000 7.07l3.536-3.535zm7.318-7.318l3.535 3.535-3.535-3.535zm0-2.121L23.58-2.37l-3.535 3.536zm-2.121 0l3.535 3.535-3.535-3.535zm-7.319 7.318L7.071 12.02a5 5 0 007.07 0l-3.535-3.535zm-6.01-3.889a3.5 3.5 0 01-4.95 0l7.072-7.071a6.5 6.5 0 00-9.193 0l7.071 7.071zm0-4.95a3.5 3.5 0 010 4.95l-7.07-7.071a6.5 6.5 0 000 9.192l7.07-7.07zm7.425 7.425L4.596-.354l-7.07 7.071 7.423 7.425 7.072-7.071zM4.49 21.673l7.53-7.531L4.95 7.07l-7.532 7.53 7.072 7.072zm0-4.95a3.5 3.5 0 010 4.95l-7.072-7.071a6.5 6.5 0 000 9.192l7.072-7.071zm-4.95 0a3.5 3.5 0 014.95 0l-7.072 7.071a6.5 6.5 0 009.193 0L-.46 16.723zm7.53-7.531l-7.53 7.53 7.07 7.072 7.532-7.531L7.07 9.192zm14.497 7.425l-7.425-7.425-7.071 7.071 7.425 7.425 7.07-7.071zm-4.95 0a3.5 3.5 0 014.95 0l-7.071 7.07a6.5 6.5 0 009.192 0l-7.071-7.07zm0 4.95a3.5 3.5 0 010-4.95l7.071 7.07a6.5 6.5 0 000-9.192l-7.071 7.072zm-7.425-7.425l7.425 7.425 7.071-7.072-7.425-7.424-7.07 7.07zM16.51-.248L9.192 7.071l7.071 7.07 7.318-7.318-7.07-7.07zm0 4.95a3.5 3.5 0 010-4.95l7.071 7.071a6.5 6.5 0 000-9.192l-7.07 7.071zm4.95 0a3.5 3.5 0 01-4.95 0l7.071-7.071a6.5 6.5 0 00-9.192 0l7.071 7.071zm-7.318 7.318l7.318-7.318-7.071-7.071-7.318 7.318 7.07 7.071zM-.354 4.596l7.425 7.424 7.07-7.07-7.423-7.425-7.072 7.071z" fill="url(#paint0_linear_243_1570)" mask="url(#a)"/><defs><linearGradient id="paint0_linear_243_1570" x1="17.708" y1="20.698" x2="-.418" y2="20.009" gradientUnits="userSpaceOnUse"><stop stop-color="#01524D"/><stop offset="1" stop-color="#38DBD2"/></linearGradient></defs></svg>