<svg width="37" height="37" fill="none" xmlns="http://www.w3.org/2000/svg"><g clip-path="url(#clip0_243_1944)" stroke-width="2" stroke-linecap="round" stroke-linejoin="round"><path d="M29.802 12.388c-3.325 0-1.33-3.964-8.643-3.964-7.314 0-7.314-5.946-7.314-5.946" stroke="url(#paint0_linear_243_1944)"/><path d="M7.864 18.996c1.33 5.946 4.654 10.489 10.637 10.489 5.984 0 9.308-4.543 10.638-10.49 0 0 2.66-1.32 2.66-3.964 0-2.642-1.995-2.642-1.995-2.642" stroke="url(#paint1_linear_243_1944)"/><path d="M7.862 18.995s-2.659-1.321-2.659-3.964 1.995-2.643 1.995-2.643c1.994 0 4.654-3.304 4.654-5.285" stroke="url(#paint2_linear_243_1944)"/><path d="M26.475 1.156S31.13 4.46 31.13 9.085a11.08 11.08 0 01-.499 3.535" stroke="url(#paint3_linear_243_1944)"/><path d="M15.18 22.96a5.1 5.1 0 003.324 1.322 5.1 5.1 0 003.324-1.322" stroke="url(#paint4_linear_243_1944)"/><path d="M21.82 15.692a4.855 4.855 0 001.995.33 2.497 2.497 0 001.994-.99l.665.266" stroke="url(#paint5_linear_243_1944)"/><path d="M15.179 15.692a4.855 4.855 0 01-1.995.33 2.497 2.497 0 01-1.994-.99l-.665.266" stroke="url(#paint6_linear_243_1944)"/><path d="M1.156 30.352a5.098 5.098 0 002.449-1.118c.623-.609 1.036-1.562 1.31-3.218.267 1.625.67 2.574 1.274 3.184a5.018 5.018 0 002.483 1.152c-1.223.308-2.098.617-2.724 1.427a6.39 6.39 0 00-1.034 2.909c-.268-1.626-.671-2.575-1.272-3.185a5.017 5.017 0 00-2.486-1.151z" stroke="url(#paint7_linear_243_1944)"/><path d="M30.063 26.594c.71-.12 1.372-.44 1.907-.921.463-.488.774-1.247.983-2.548.206 1.301.516 2.06.983 2.548a3.794 3.794 0 001.908.921c-.71.12-1.373.44-1.908.922-.463.487-.774 1.247-.983 2.548a4.973 4.973 0 00-.867-2.422 3.55 3.55 0 00-2.023-1.048z" stroke="url(#paint8_linear_243_1944)"/><path d="M24.86 27.154v2.908a7.804 7.804 0 002.89 5.781" stroke="url(#paint9_linear_243_1944)"/><path d="M12.14 27.154v2.908a7.804 7.804 0 01-2.89 5.781" stroke="url(#paint10_linear_243_1944)"/></g><defs><linearGradient id="paint0_linear_243_1944" x1="13.173" y1=".092" x2="35.54" y2="2.931" gradientUnits="userSpaceOnUse"><stop stop-color="#01524D"/><stop offset="1" stop-color="#38DBD2"/></linearGradient><linearGradient id="paint1_linear_243_1944" x1="6.856" y1="8.273" x2="40.536" y2="11.992" gradientUnits="userSpaceOnUse"><stop stop-color="#01524D"/><stop offset="1" stop-color="#38DBD2"/></linearGradient><linearGradient id="paint2_linear_243_1944" x1="4.923" y1="4.239" x2="14.374" y2="4.656" gradientUnits="userSpaceOnUse"><stop stop-color="#01524D"/><stop offset="1" stop-color="#38DBD2"/></linearGradient><linearGradient id="paint3_linear_243_1944" x1="26.279" y1="-1.603" x2="32.905" y2="-1.391" gradientUnits="userSpaceOnUse"><stop stop-color="#01524D"/><stop offset="1" stop-color="#38DBD2"/></linearGradient><linearGradient id="paint4_linear_243_1944" x1="14.9" y1="22.642" x2="23.082" y2="25.887" gradientUnits="userSpaceOnUse"><stop stop-color="#01524D"/><stop offset="1" stop-color="#38DBD2"/></linearGradient><linearGradient id="paint5_linear_243_1944" x1="21.624" y1="14.791" x2="27.461" y2="16.942" gradientUnits="userSpaceOnUse"><stop stop-color="#01524D"/><stop offset="1" stop-color="#38DBD2"/></linearGradient><linearGradient id="paint6_linear_243_1944" x1="10.329" y1="14.791" x2="16.165" y2="16.942" gradientUnits="userSpaceOnUse"><stop stop-color="#01524D"/><stop offset="1" stop-color="#38DBD2"/></linearGradient><linearGradient id="paint7_linear_243_1944" x1=".84" y1="23.928" x2="11.495" y2="24.656" gradientUnits="userSpaceOnUse"><stop stop-color="#01524D"/><stop offset="1" stop-color="#38DBD2"/></linearGradient><linearGradient id="paint8_linear_243_1944" x1="29.819" y1="21.455" x2="38.018" y2="21.993" gradientUnits="userSpaceOnUse"><stop stop-color="#01524D"/><stop offset="1" stop-color="#38DBD2"/></linearGradient><linearGradient id="paint9_linear_243_1944" x1="24.738" y1="25.062" x2="28.852" y2="25.17" gradientUnits="userSpaceOnUse"><stop stop-color="#01524D"/><stop offset="1" stop-color="#38DBD2"/></linearGradient><linearGradient id="paint10_linear_243_1944" x1="9.128" y1="25.062" x2="13.243" y2="25.17" gradientUnits="userSpaceOnUse"><stop stop-color="#01524D"/><stop offset="1" stop-color="#38DBD2"/></linearGradient><clipPath id="clip0_243_1944"><path fill="#fff" d="M0 0h37v37H0z"/></clipPath></defs></svg>