<svg width="38" height="38" fill="none" xmlns="http://www.w3.org/2000/svg"><path d="M13.928 5.066c-2.85 0-5.149 1.115-6.647 2.8-1.5 1.687-2.22 3.886-2.22 6.067 0 3.267.584 5.348 1.213 6.868.628 1.52 1.176 2.375 1.333 3.449v.002c.221 1.504.508 3.464 1.143 5.178.318.857.718 1.666 1.339 2.333.62.666 1.544 1.17 2.572 1.17 1.596 0 2.89-.87 3.618-1.942.727-1.072 1.065-2.302 1.358-3.444.293-1.142.54-2.215.821-2.847.14-.316.283-.502.359-.57.075-.066.052-.064.178-.064.125 0 .102-.002.178.065s.218.253.359.569c.28.632.528 1.705.821 2.847.293 1.142.63 2.372 1.358 3.444.728 1.072 2.021 1.942 3.617 1.942 1.028 0 1.952-.504 2.573-1.17.62-.667 1.021-1.476 1.338-2.333.635-1.714.922-3.674 1.143-5.178v-.002c.158-1.074.706-1.929 1.334-3.45.628-1.52 1.212-3.6 1.212-6.867 0-2.181-.72-4.38-2.219-6.066-1.499-1.686-3.797-2.8-6.648-2.8-2.04 0-3.474.343-4.428.724-.421.169-.42.235-.678.404-.777-.411-2.345-1.129-5.027-1.129zm0 2.534c2.856 0 4.357 1.049 4.357 1.049a1.267 1.267 0 001.605-.154s.054-.102.683-.353c.63-.252 1.73-.542 3.488-.542 2.217 0 3.718.785 4.753 1.95 1.035 1.163 1.58 2.765 1.58 4.383 0 1.619-.147 2.817-.363 3.8h-4.96c-.578-2.161-2.474-3.8-4.81-3.8h-2.533c-2.335 0-4.231 1.639-4.81 3.8h-4.96c-.216-.983-.363-2.181-.363-3.8 0-1.618.546-3.22 1.58-4.384 1.035-1.164 2.536-1.95 4.753-1.95zm3.8 8.866h2.534A2.514 2.514 0 0122.795 19a1.267 1.267 0 001.266 1.266h5.117c-.506 1.118-1.088 2.147-1.304 3.617-.22 1.493-.515 3.33-1.01 4.666-.247.669-.548 1.197-.818 1.487-.27.29-.426.364-.718.364-.821 0-1.119-.24-1.519-.829-.4-.59-.726-1.577-1.002-2.652-.275-1.075-.501-2.218-.96-3.248-.229-.516-.523-1.022-.997-1.44-.253-.224-.648-.251-.992-.374a1.267 1.267 0 00-.863-.324 1.267 1.267 0 00-.861.324c-.344.123-.74.15-.995.374-.473.418-.767.924-.997 1.44-.458 1.03-.684 2.173-.96 3.248-.275 1.075-.601 2.062-1.002 2.652-.4.59-.697.829-1.518.829-.292 0-.448-.074-.718-.364-.27-.29-.571-.819-.819-1.487-.495-1.336-.79-3.173-1.01-4.666v-.002c-.215-1.47-.798-2.497-1.303-3.615h5.116A1.267 1.267 0 0015.195 19a2.514 2.514 0 012.533-2.534z" fill="url(#paint0_linear_243_1934)"/><defs><linearGradient id="paint0_linear_243_1934" x1="3.888" y1="-1.642" x2="43.334" y2="1.468" gradientUnits="userSpaceOnUse"><stop stop-color="#01524D"/><stop offset="1" stop-color="#38DBD2"/></linearGradient></defs></svg>