<svg width="36" height="36" fill="none" xmlns="http://www.w3.org/2000/svg"><path d="M20.255 4.5A13.5 13.5 0 009.837 9.405a1.13 1.13 0 001.744 1.44 11.25 11.25 0 110 14.31 1.13 1.13 0 10-1.744 1.44A13.501 13.501 0 1020.255 4.5z" fill="url(#paint0_linear_243_1715)"/><path d="M5.625 14.625h4.5a1.125 1.125 0 100-2.25h-4.5a1.125 1.125 0 100 2.25z" fill="url(#paint1_linear_243_1715)"/><path d="M10.125 18A1.125 1.125 0 009 16.875H3.375a1.125 1.125 0 100 2.25H9A1.125 1.125 0 0010.125 18z" fill="url(#paint2_linear_243_1715)"/><path d="M13.5 22.5a1.125 1.125 0 00-1.125-1.125h-6.75a1.125 1.125 0 100 2.25h6.75A1.125 1.125 0 0013.5 22.5z" fill="url(#paint3_linear_243_1715)"/><path d="M21.645 11.25h-2.79a1.98 1.98 0 00-1.98 1.98v1.395H15.48a1.98 1.98 0 00-1.98 1.98v2.79a1.98 1.98 0 001.98 1.98h1.395v1.395a1.98 1.98 0 001.98 1.98h2.79a1.98 1.98 0 001.98-1.98v-1.395h1.395a1.98 1.98 0 001.98-1.98v-2.79a1.98 1.98 0 00-1.98-1.98h-1.395V13.23a1.98 1.98 0 00-1.98-1.98zm3.105 5.625v2.25H22.5a1.125 1.125 0 00-1.125 1.125v2.25h-2.25v-2.25A1.125 1.125 0 0018 19.125h-2.25v-2.25H18a1.125 1.125 0 001.125-1.125V13.5h2.25v2.25a1.125 1.125 0 001.125 1.125h2.25z" fill="url(#paint4_linear_243_1715)"/><defs><linearGradient id="paint0_linear_243_1715" x1="8.56" y1="-2" x2="42.815" y2=".418" gradientUnits="userSpaceOnUse"><stop stop-color="#01524D"/><stop offset="1" stop-color="#38DBD2"/></linearGradient><linearGradient id="paint1_linear_243_1715" x1="4.216" y1="11.833" x2="13.32" y2="13.987" gradientUnits="userSpaceOnUse"><stop stop-color="#01524D"/><stop offset="1" stop-color="#38DBD2"/></linearGradient><linearGradient id="paint2_linear_243_1715" x1="1.918" y1="16.333" x2="12.341" y2="19.21" gradientUnits="userSpaceOnUse"><stop stop-color="#01524D"/><stop offset="1" stop-color="#38DBD2"/></linearGradient><linearGradient id="paint3_linear_243_1715" x1="4.121" y1="20.833" x2="15.78" y2="24.511" gradientUnits="userSpaceOnUse"><stop stop-color="#01524D"/><stop offset="1" stop-color="#38DBD2"/></linearGradient><linearGradient id="paint4_linear_243_1715" x1="12.932" y1="8" x2="32.041" y2="9.507" gradientUnits="userSpaceOnUse"><stop stop-color="#01524D"/><stop offset="1" stop-color="#38DBD2"/></linearGradient></defs></svg>