<svg width="34" height="34" fill="none" xmlns="http://www.w3.org/2000/svg"><path d="M16.5 3.75A21.037 21.037 0 0122 17.5a21.037 21.037 0 01-5.5 13.75m0-27.5A21.037 21.037 0 0011 17.5a21.037 21.037 0 005.5 13.75m0-27.5C8.906 3.75 2.75 9.906 2.75 17.5S8.906 31.25 16.5 31.25m0-27.5c7.594 0 13.75 6.156 13.75 13.75S24.094 31.25 16.5 31.25M3.438 13.375h26.124m-26.125 8.25h26.125" stroke="url(#paint0_linear_289_12086)" stroke-width="2" stroke-linecap="round" stroke-linejoin="round"/><defs><linearGradient id="paint0_linear_289_12086" x1="1.592" y1="-2.87" x2="40.519" y2=".199" gradientUnits="userSpaceOnUse"><stop stop-color="#01524D"/><stop offset="1" stop-color="#38DBD2"/></linearGradient></defs></svg>