<svg width="27" height="17" fill="none" xmlns="http://www.w3.org/2000/svg"><mask id="a" fill="#fff"><path fill-rule="evenodd" clip-rule="evenodd" d="M0 1.5A1.5 1.5 0 011.5 0h24a1.5 1.5 0 010 3h-24A1.5 1.5 0 010 1.5zm0 7A1.5 1.5 0 011.5 7h24a1.5 1.5 0 010 3h-24A1.5 1.5 0 010 8.5zM1.5 14a1.5 1.5 0 000 3h24a1.5 1.5 0 000-3h-24z"/></mask><path d="M1.5-5A6.5 6.5 0 00-5 1.5H5A3.5 3.5 0 011.5 5V-5zm24 0h-24V5h24V-5zM32 1.5A6.5 6.5 0 0025.5-5V5A3.5 3.5 0 0122 1.5h10zM25.5 8A6.5 6.5 0 0032 1.5H22A3.5 3.5 0 0125.5-2V8zm-24 0h24V-2h-24V8zM-5 1.5A6.5 6.5 0 001.5 8V-2A3.5 3.5 0 015 1.5H-5zm6.5.5A6.5 6.5 0 00-5 8.5H5A3.5 3.5 0 011.5 12V2zm24 0h-24v10h24V2zM32 8.5A6.5 6.5 0 0025.5 2v10A3.5 3.5 0 0122 8.5h10zM25.5 15A6.5 6.5 0 0032 8.5H22A3.5 3.5 0 0125.5 5v10zm-24 0h24V5h-24v10zM-5 8.5A6.5 6.5 0 001.5 15V5A3.5 3.5 0 015 8.5H-5zm10 7A3.5 3.5 0 011.5 19V9A6.5 6.5 0 00-5 15.5H5zM1.5 12A3.5 3.5 0 015 15.5H-5A6.5 6.5 0 001.5 22V12zm24 0h-24v10h24V12zM22 15.5a3.5 3.5 0 013.5-3.5v10a6.5 6.5 0 006.5-6.5H22zm3.5 3.5a3.5 3.5 0 01-3.5-3.5h10A6.5 6.5 0 0025.5 9v10zm-24 0h24V9h-24v10z" fill="url(#paint0_linear_243_749)" mask="url(#a)"/><defs><linearGradient id="paint0_linear_243_749" x1="23.122" y1="17" x2="-1.201" y2="15.532" gradientUnits="userSpaceOnUse"><stop stop-color="#01524D"/><stop offset="1" stop-color="#38DBD2"/></linearGradient></defs></svg>