<svg width="34" height="34" fill="none" xmlns="http://www.w3.org/2000/svg"><mask id="a" style="mask-type:luminance" maskUnits="userSpaceOnUse" x="0" y="0" width="34" height="34"><path d="M0 0h34v34H0V0z" fill="#fff"/></mask><g mask="url(#a)" stroke-width="2" stroke-miterlimit="10" stroke-linecap="round" stroke-linejoin="round"><path d="M11.463 21.6a1.569 1.569 0 00.246-2.202 1.575 1.575 0 00-2.206-.246L7.017 21.14a1.571 1.571 0 00-.247 2.203 1.574 1.574 0 002.206.245" stroke="url(#paint0_linear_243_2028)"/><path d="M10.94 26.036a1.571 1.571 0 00-.246 2.204 1.575 1.575 0 002.206.246l2.487-1.987c.676-.538.785-1.53.247-2.204a1.575 1.575 0 00-2.207-.245" stroke="url(#paint1_linear_243_2028)"/><path d="M12.899 28.487a1.57 1.57 0 00-.245 2.204c.539.673 1.53.784 2.206.244l1.391-1.113a1.57 1.57 0 00.247-2.202 1.575 1.575 0 00-2.206-.247" stroke="url(#paint2_linear_243_2028)"/><path d="M23.24 22.169l1.777 1.42c.674.54.785 1.53.247 2.203a1.575 1.575 0 01-2.206.245l-1.928-1.538" stroke="url(#paint3_linear_243_2028)"/><path d="M21.131 24.498l1.927 1.538c.674.54.785 1.53.245 2.204a1.575 1.575 0 01-2.206.246l-1.926-1.54" stroke="url(#paint4_linear_243_2028)"/><path d="M19.172 26.946l.962.77c.674.539.785 1.53.247 2.203a1.575 1.575 0 01-2.206.247l-1.4-1.12" stroke="url(#paint5_linear_243_2028)"/><path d="M32.058 15.982l1.154 2.038a.99.99 0 01-.377 1.349l-1.779.985a.999.999 0 01-1.35-.374l-5.127-9.07a.986.986 0 01.375-1.346l1.78-.986a.995.995 0 011.348.375l1.041 1.839" stroke="url(#paint6_linear_243_2028)"/><path d="M26.855 21.038c.42-.906 1.334-1.577 2.384-1.878" stroke="url(#paint7_linear_243_2028)"/><path d="M25.02 23.588c.675.54 1.669.429 2.207-.245a1.57 1.57 0 00-.245-2.203l-2.155-1.723a85.343 85.343 0 00-3.35-2.565c-2.03-1.453-3.03-2.42-5.572-1.909-1.922.388-3.477-.199-3.882-1.863-.26-1.07.651-1.568 2.457-1.728l2.88-.258c.568-.05.907-.103 1.827.219l1.738.607c1.174.41 1.016.519 2.238.165l1.785-.517" stroke="url(#paint8_linear_243_2028)"/><path d="M9.049 9.564l-1.78-.986a.997.997 0 00-1.349.375L.793 18.02a.988.988 0 00.374 1.348l1.779.986a.999.999 0 001.35-.374l5.127-9.07a.986.986 0 00-.374-1.346z" stroke="url(#paint9_linear_243_2028)"/><path d="M12.03 12.42l-2.972-.86" stroke="url(#paint10_linear_243_2028)"/><path d="M7.148 21.038c-.422-.906-1.336-1.577-2.387-1.878" stroke="url(#paint11_linear_243_2028)"/><path d="M17 6.105V2.722" stroke="url(#paint12_linear_243_2028)"/><path d="M12.567 7.506L10.797 4.7" stroke="url(#paint13_linear_243_2028)"/><path d="M21.436 7.506L23.204 4.7" stroke="url(#paint14_linear_243_2028)"/><path d="M8.98 23.588l3.583-2.862a1.577 1.577 0 012.206.247c.539.673.43 1.664-.246 2.204l-3.58 2.86a1.574 1.574 0 01-2.207-.245 1.571 1.571 0 01.245-2.204z" stroke="url(#paint15_linear_243_2028)"/><path d="M30.587 13.388v-.002" stroke="url(#paint16_linear_243_2028)"/></g><defs><linearGradient id="paint0_linear_243_2028" x1="6.191" y1="25.163" x2="14.14" y2="24.474" gradientUnits="userSpaceOnUse"><stop stop-color="#01524D"/><stop offset="1" stop-color="#38DBD2"/></linearGradient><linearGradient id="paint1_linear_243_2028" x1="10.116" y1="30.06" x2="18.065" y2="29.372" gradientUnits="userSpaceOnUse"><stop stop-color="#01524D"/><stop offset="1" stop-color="#38DBD2"/></linearGradient><linearGradient id="paint2_linear_243_2028" x1="12.121" y1="32.299" x2="18.524" y2="31.761" gradientUnits="userSpaceOnUse"><stop stop-color="#01524D"/><stop offset="1" stop-color="#38DBD2"/></linearGradient><linearGradient id="paint3_linear_243_2028" x1="20.942" y1="27.393" x2="27.271" y2="26.862" gradientUnits="userSpaceOnUse"><stop stop-color="#01524D"/><stop offset="1" stop-color="#38DBD2"/></linearGradient><linearGradient id="paint4_linear_243_2028" x1="18.983" y1="29.87" x2="25.314" y2="29.354" gradientUnits="userSpaceOnUse"><stop stop-color="#01524D"/><stop offset="1" stop-color="#38DBD2"/></linearGradient><linearGradient id="paint5_linear_243_2028" x1="16.608" y1="31.364" x2="22.188" y2="30.876" gradientUnits="userSpaceOnUse"><stop stop-color="#01524D"/><stop offset="1" stop-color="#38DBD2"/></linearGradient><linearGradient id="paint6_linear_243_2028" x1="24.076" y1="23.374" x2="36.693" y2="22.639" gradientUnits="userSpaceOnUse"><stop stop-color="#01524D"/><stop offset="1" stop-color="#38DBD2"/></linearGradient><linearGradient id="paint7_linear_243_2028" x1="26.754" y1="21.491" x2="30.117" y2="21.154" gradientUnits="userSpaceOnUse"><stop stop-color="#01524D"/><stop offset="1" stop-color="#38DBD2"/></linearGradient><linearGradient id="paint8_linear_243_2028" x1="11.323" y1="27.03" x2="33.328" y2="24.928" gradientUnits="userSpaceOnUse"><stop stop-color="#01524D"/><stop offset="1" stop-color="#38DBD2"/></linearGradient><linearGradient id="paint9_linear_243_2028" x1=".29" y1="23.374" x2="12.906" y2="22.639" gradientUnits="userSpaceOnUse"><stop stop-color="#01524D"/><stop offset="1" stop-color="#38DBD2"/></linearGradient><linearGradient id="paint10_linear_243_2028" x1="8.932" y1="12.628" x2="12.874" y2="11.555" gradientUnits="userSpaceOnUse"><stop stop-color="#01524D"/><stop offset="1" stop-color="#38DBD2"/></linearGradient><linearGradient id="paint11_linear_243_2028" x1="4.661" y1="21.491" x2="8.027" y2="21.153" gradientUnits="userSpaceOnUse"><stop stop-color="#01524D"/><stop offset="1" stop-color="#38DBD2"/></linearGradient><linearGradient id="paint12_linear_243_2028" x1="16.958" y1="6.92" x2="18.381" y2="6.886" gradientUnits="userSpaceOnUse"><stop stop-color="#01524D"/><stop offset="1" stop-color="#38DBD2"/></linearGradient><linearGradient id="paint13_linear_243_2028" x1="10.723" y1="8.182" x2="13.237" y2="8.057" gradientUnits="userSpaceOnUse"><stop stop-color="#01524D"/><stop offset="1" stop-color="#38DBD2"/></linearGradient><linearGradient id="paint14_linear_243_2028" x1="21.362" y1="8.182" x2="23.873" y2="8.058" gradientUnits="userSpaceOnUse"><stop stop-color="#01524D"/><stop offset="1" stop-color="#38DBD2"/></linearGradient><linearGradient id="paint15_linear_243_2028" x1="8.111" y1="27.822" x2="17.604" y2="26.983" gradientUnits="userSpaceOnUse"><stop stop-color="#01524D"/><stop offset="1" stop-color="#38DBD2"/></linearGradient><linearGradient id="paint16_linear_243_2028" x1="30.545" y1="13.389" x2="30.546" y2="13.353" gradientUnits="userSpaceOnUse"><stop stop-color="#01524D"/><stop offset="1" stop-color="#38DBD2"/></linearGradient></defs></svg>