<svg width="34" height="34" fill="none" xmlns="http://www.w3.org/2000/svg"><g clip-path="url(#clip0_243_2083)"><mask id="a" style="mask-type:luminance" maskUnits="userSpaceOnUse" x="0" y="0" width="34" height="34"><path d="M0 0h34v34H0V0z" fill="#fff"/></mask><g mask="url(#a)" stroke-width="2" stroke-miterlimit="10" stroke-linecap="round" stroke-linejoin="round"><path d="M23.759 25.872l6.175-3.17c.905-.467 2.012-.267 2.547.6.535.866.23 1.958-.6 2.549l-9.068 6.457c-2.456 1.638-3.494.993-6.079.292l-7.356-1.967c-.443-.118-.414-.133-.714-.133H6.448" stroke="url(#paint0_linear_243_2083)"/><path d="M2.43 21.985h2.843c.644 0 1.174.53 1.174 1.176v7.458c0 .645-.53 1.175-1.174 1.175H2.429c-.645 0-1.174-.53-1.174-1.175v-7.458c0-.646.53-1.176 1.174-1.176z" stroke="url(#paint1_linear_243_2083)"/><path d="M6.448 23.279h1.479c.562-.025.643-.021 1.255-.264 2.849-1.122 5.176-1.255 8.026 1.428.356.335.435.43 1.005.43h3.865c1.053 0 1.916.862 1.916 1.917a1.922 1.922 0 01-1.916 1.916h-6.264" stroke="url(#paint2_linear_243_2083)"/><path d="M17.571 8.52h2.87V5.653h3.668v2.869h2.868v3.667H24.11v2.87h-3.667v-2.87h-2.87V8.521z" stroke="url(#paint3_linear_243_2083)"/><path d="M15.125 14.875c-.668-.99-1.188-1.956-1.453-2.793-.139-.43-.11-.62-.11-1.057V5.71c.027-1.185-.133-.918.903-1.497l7.806-3.55 7.806 3.55c1.038.58.876.312.903 1.497v5.314c0 .437.03.627-.11 1.057-.931 2.922-4.953 7.44-7.575 9.006-.352.211-.689.317-1.024.317-.335 0-.672-.106-1.024-.317-.647-.385-1.378-.951-2.127-1.63" stroke="url(#paint4_linear_243_2083)"/><path d="M16.988 17.28l-.002-.002" stroke="url(#paint5_linear_243_2083)"/></g></g><defs><linearGradient id="paint0_linear_243_2083" x1="5.341" y1="35.955" x2="41.486" y2="29.065" gradientUnits="userSpaceOnUse"><stop stop-color="#01524D"/><stop offset="1" stop-color="#38DBD2"/></linearGradient><linearGradient id="paint1_linear_243_2083" x1="1.036" y1="34.155" x2="8.418" y2="33.847" gradientUnits="userSpaceOnUse"><stop stop-color="#01524D"/><stop offset="1" stop-color="#38DBD2"/></linearGradient><linearGradient id="paint2_linear_243_2083" x1="5.709" y1="30.258" x2="29.599" y2="25.13" gradientUnits="userSpaceOnUse"><stop stop-color="#01524D"/><stop offset="1" stop-color="#38DBD2"/></linearGradient><linearGradient id="paint3_linear_243_2083" x1="17.175" y1="17.323" x2="30.49" y2="16.273" gradientUnits="userSpaceOnUse"><stop stop-color="#01524D"/><stop offset="1" stop-color="#38DBD2"/></linearGradient><linearGradient id="paint4_linear_243_2083" x1="12.826" y1="26.398" x2="37.534" y2="24.762" gradientUnits="userSpaceOnUse"><stop stop-color="#01524D"/><stop offset="1" stop-color="#38DBD2"/></linearGradient><linearGradient id="paint5_linear_243_2083" x1="16.986" y1="17.28" x2="16.989" y2="17.28" gradientUnits="userSpaceOnUse"><stop stop-color="#01524D"/><stop offset="1" stop-color="#38DBD2"/></linearGradient><clipPath id="clip0_243_2083"><path fill="#fff" d="M0 0h34v34H0z"/></clipPath></defs></svg>