<svg width="36" height="36" fill="none" xmlns="http://www.w3.org/2000/svg"><path d="M31.163 12.173L20.936 3.375a4.5 4.5 0 00-5.872 0L4.838 12.173a4.185 4.185 0 00-1.463 3.16V29.51a4.32 4.32 0 004.399 4.241h4.601a1.125 1.125 0 100-2.25H7.774a2.081 2.081 0 01-2.149-1.991V15.334a1.947 1.947 0 01.686-1.463l10.227-8.83a2.25 2.25 0 012.924 0l10.227 8.83a1.945 1.945 0 01.686 1.463v14.175a2.081 2.081 0 01-2.149 1.991H18a1.125 1.125 0 100 2.25h10.226a4.32 4.32 0 004.399-4.241V15.334a4.187 4.187 0 00-1.462-3.161z" fill="url(#paint0_linear_243_1677)"/><path d="M21.375 26.201v-2.576h2.576a1.935 1.935 0 001.924-1.924V18.8a1.935 1.935 0 00-1.924-1.924h-2.576v-2.576a1.936 1.936 0 00-1.924-1.924H16.55a1.936 1.936 0 00-1.924 1.924v2.576h-2.576a1.936 1.936 0 00-1.924 1.924V21.7a1.935 1.935 0 001.924 1.924h2.576v2.576a1.935 1.935 0 001.924 1.924h2.902a1.935 1.935 0 001.924-1.924zm-2.25-.326h-2.25V22.5a1.125 1.125 0 00-1.125-1.125h-3.375v-2.25h3.375A1.125 1.125 0 0016.875 18v-3.375h2.25V18a1.125 1.125 0 001.125 1.125h3.375v2.25H20.25a1.125 1.125 0 00-1.125 1.125v3.375z" fill="url(#paint1_linear_243_1677)"/><defs><linearGradient id="paint0_linear_243_1677" x1="2.143" y1="-5.29" x2="43.582" y2="-2.252" gradientUnits="userSpaceOnUse"><stop stop-color="#01524D"/><stop offset="1" stop-color="#38DBD2"/></linearGradient><linearGradient id="paint1_linear_243_1677" x1="9.462" y1="8.583" x2="31.756" y2="10.341" gradientUnits="userSpaceOnUse"><stop stop-color="#01524D"/><stop offset="1" stop-color="#38DBD2"/></linearGradient></defs></svg>