<svg width="36" height="36" fill="none" xmlns="http://www.w3.org/2000/svg"><path d="M8.324 31.7h-.457a3.268 3.268 0 01-3.265-3.265 1.3 1.3 0 011.3-1.3h4.388a1.3 1.3 0 011.3 1.3A3.263 3.263 0 018.323 31.7zM5.91 28.346a.098.098 0 00-.096.096c0 1.132.923 2.062 2.062 2.062h.457a2.066 2.066 0 002.062-2.062.098.098 0 00-.096-.096H5.909z" fill="url(#paint0_linear_243_1686)"/><path d="M28.379 31.7h-.457a3.268 3.268 0 01-3.266-3.265 1.3 1.3 0 011.3-1.3h4.389a1.3 1.3 0 011.3 1.3 3.263 3.263 0 01-3.266 3.265zm-2.415-3.354a.098.098 0 00-.096.096c0 1.132.922 2.062 2.062 2.062h.457a2.066 2.066 0 002.062-2.062.098.098 0 00-.097-.096h-4.388z" fill="url(#paint1_linear_243_1686)"/><path d="M31.399 28.346H4.859A3.866 3.866 0 011 24.488V8.859A3.866 3.866 0 014.859 5h26.54a3.866 3.866 0 013.859 3.859v15.629a3.866 3.866 0 01-3.86 3.858zM4.859 6.203A2.659 2.659 0 002.203 8.86v15.629a2.659 2.659 0 002.656 2.655h26.54a2.659 2.659 0 002.655-2.655V8.859A2.659 2.659 0 0031.4 6.203H4.859z" fill="url(#paint2_linear_243_1686)"/><path d="M8.902 25.057H7.875a3.866 3.866 0 01-3.86-3.86v-9.049a3.866 3.866 0 013.86-3.859h10.197c.329 0 .601.273.601.602a.606.606 0 01-.601.601H7.875a2.659 2.659 0 00-2.656 2.656v9.05a2.659 2.659 0 002.656 2.655h1.027c.328 0 .601.273.601.602a.606.606 0 01-.601.602z" fill="url(#paint3_linear_243_1686)"/><path d="M22.11 25.057H11.634a.606.606 0 01-.602-.602c0-.329.273-.602.602-.602h10.478a2.659 2.659 0 002.655-2.655v-9.05a2.659 2.659 0 00-2.655-2.656h-1.172a.606.606 0 01-.601-.601c0-.33.272-.602.601-.602h1.172a3.866 3.866 0 013.859 3.86v9.049a3.866 3.866 0 01-3.86 3.859z" fill="url(#paint4_linear_243_1686)"/><path d="M31.682 13.063h-3.37a.606.606 0 01-.601-.602c0-.329.273-.602.602-.602h3.37c.328 0 .601.273.601.602a.606.606 0 01-.602.602z" fill="url(#paint5_linear_243_1686)"/><path d="M31.682 15.871h-3.37a.606.606 0 01-.601-.601c0-.33.273-.602.602-.602h3.37c.328 0 .601.273.601.602a.606.606 0 01-.602.601z" fill="url(#paint6_linear_243_1686)"/><path d="M31.682 18.679h-3.37a.606.606 0 01-.601-.602c0-.329.273-.602.602-.602h3.37c.328 0 .601.273.601.602a.606.606 0 01-.602.602z" fill="url(#paint7_linear_243_1686)"/><path d="M31.682 21.487h-3.37a.606.606 0 01-.601-.602c0-.329.273-.602.602-.602h3.37c.328 0 .601.273.601.602a.606.606 0 01-.602.602z" fill="url(#paint8_linear_243_1686)"/><path d="M16.844 21.487h-.008a.599.599 0 01-.545-.385l-2.832-7.245-1.942 3.418a.604.604 0 01-.521.305H4.617a.606.606 0 01-.601-.602c0-.329.272-.601.601-.601h6.017l2.391-4.212c.113-.2.337-.321.57-.305a.592.592 0 01.513.385l2.76 7.06 1.348-3.097a.608.608 0 01.554-.36h6.498c.33 0 .602.272.602.6a.606.606 0 01-.602.603h-6.105l-1.765 4.075a.608.608 0 01-.554.361z" fill="url(#paint9_linear_243_1686)"/><defs><linearGradient id="paint0_linear_243_1686" x1="4.307" y1="26.036" x2="14.117" y2="27.22" gradientUnits="userSpaceOnUse"><stop stop-color="#01524D"/><stop offset="1" stop-color="#38DBD2"/></linearGradient><linearGradient id="paint1_linear_243_1686" x1="24.362" y1="26.036" x2="34.172" y2="27.22" gradientUnits="userSpaceOnUse"><stop stop-color="#01524D"/><stop offset="1" stop-color="#38DBD2"/></linearGradient><linearGradient id="paint2_linear_243_1686" x1="-.442" y1="-.62" x2="47.707" y2="4.951" gradientUnits="userSpaceOnUse"><stop stop-color="#01524D"/><stop offset="1" stop-color="#38DBD2"/></linearGradient><linearGradient id="paint3_linear_243_1686" x1="3.398" y1="4.252" x2="24.177" y2="5.685" gradientUnits="userSpaceOnUse"><stop stop-color="#01524D"/><stop offset="1" stop-color="#38DBD2"/></linearGradient><linearGradient id="paint4_linear_243_1686" x1="10.402" y1="4.252" x2="31.575" y2="5.74" gradientUnits="userSpaceOnUse"><stop stop-color="#01524D"/><stop offset="1" stop-color="#38DBD2"/></linearGradient><linearGradient id="paint5_linear_243_1686" x1="27.518" y1="11.57" x2="33.495" y2="13.361" gradientUnits="userSpaceOnUse"><stop stop-color="#01524D"/><stop offset="1" stop-color="#38DBD2"/></linearGradient><linearGradient id="paint6_linear_243_1686" x1="27.518" y1="14.378" x2="33.495" y2="16.169" gradientUnits="userSpaceOnUse"><stop stop-color="#01524D"/><stop offset="1" stop-color="#38DBD2"/></linearGradient><linearGradient id="paint7_linear_243_1686" x1="27.518" y1="17.186" x2="33.495" y2="18.977" gradientUnits="userSpaceOnUse"><stop stop-color="#01524D"/><stop offset="1" stop-color="#38DBD2"/></linearGradient><linearGradient id="paint8_linear_243_1686" x1="27.518" y1="19.994" x2="33.495" y2="21.785" gradientUnits="userSpaceOnUse"><stop stop-color="#01524D"/><stop offset="1" stop-color="#38DBD2"/></linearGradient><linearGradient id="paint9_linear_243_1686" x1="3.095" y1="9.54" x2="33.257" y2="14.938" gradientUnits="userSpaceOnUse"><stop stop-color="#01524D"/><stop offset="1" stop-color="#38DBD2"/></linearGradient></defs></svg>