<svg width="34" height="34" fill="none" xmlns="http://www.w3.org/2000/svg"><path d="M30.811 8.5v7.084a1.063 1.063 0 01-2.125 0V8.5c0-2.234-.953-3.187-3.187-3.187h-17c-2.234 0-3.188.953-3.188 3.187v18.685l2.437-2.435a1.058 1.058 0 01.75-.312h8.5a1.063 1.063 0 010 2.125H8.94L5 30.5a1.058 1.058 0 01-1.502 0c-.199-.199-.31-.469-.31-.75V8.5a4.793 4.793 0 015.312-5.313h17A4.792 4.792 0 0130.81 8.5zm-1.813 11.526l-3.967 3.967-1.615-1.61a1.064 1.064 0 10-1.502 1.504l2.362 2.36a1.057 1.057 0 001.502 0l4.722-4.713a1.062 1.062 0 00-1.502-1.503v-.005zM17.013 13.46a1.424 1.424 0 10.014 0h-.014zm5.68 2.833a1.417 1.417 0 000-2.833h-.014a1.417 1.417 0 00.015 2.833zm-11.347-2.833a1.424 1.424 0 10.014 0h-.014z" fill="url(#paint0_linear_243_2075)"/><defs><linearGradient id="paint0_linear_243_2075" x1="1.988" y1="-3.502" x2="41.182" y2="-.408" gradientUnits="userSpaceOnUse"><stop stop-color="#01524D"/><stop offset="1" stop-color="#38DBD2"/></linearGradient></defs></svg>