<svg width="37" height="37" fill="none" xmlns="http://www.w3.org/2000/svg"><path d="M26.5 22.494c-1.296-2.603-4.086-4.405-7.32-4.405-3.236 0-6.026 1.802-7.322 4.405-2.316 1.26-3.779 3.107-3.779 5.166 0 3.796 4.97 6.874 11.1 6.874 6.131 0 11.1-3.078 11.1-6.874 0-2.06-1.463-3.906-3.779-5.166z" stroke="url(#paint0_linear_243_1918)" stroke-width="2.2" stroke-miterlimit="10"/><path d="M26.775 9.217c.576-2.733-.467-5.352-2.33-5.849-1.864-.497-3.841 1.316-4.418 4.049-.576 2.733.468 5.351 2.331 5.848 1.863.497 3.84-1.315 4.417-4.048z" stroke="url(#paint1_linear_243_1918)" stroke-width="2.2" stroke-miterlimit="10"/><path d="M14.782 13.265c1.863-.497 2.907-3.116 2.33-5.849-.575-2.733-2.553-4.546-4.416-4.049-1.863.497-2.907 3.116-2.33 5.849.575 2.733 2.553 4.546 4.416 4.049z" stroke="url(#paint2_linear_243_1918)" stroke-width="2.2" stroke-miterlimit="10"/><path d="M8.26 20.527c1.457-.946 1.75-3.447.652-5.585-1.097-2.137-3.168-3.103-4.625-2.156-1.458.947-1.75 3.447-.653 5.585s3.168 3.103 4.626 2.156z" stroke="url(#paint3_linear_243_1918)" stroke-width="2.2" stroke-miterlimit="10"/><path d="M33.902 17.215c1.097-2.138.805-4.638-.653-5.585-1.457-.947-3.528.019-4.625 2.156-1.097 2.138-.805 4.639.652 5.585 1.458.947 3.529-.018 4.626-2.156z" stroke="url(#paint4_linear_243_1918)" stroke-width="2.2" stroke-miterlimit="10"/><defs><linearGradient id="paint0_linear_243_1918" x1="27.09" y1="34.534" x2="7.071" y2="33.507" gradientUnits="userSpaceOnUse"><stop stop-color="#01524D"/><stop offset="1" stop-color="#38DBD2"/></linearGradient><linearGradient id="paint1_linear_243_1918" x1="27.518" y1="5.69" x2="24.698" y2="14.333" gradientUnits="userSpaceOnUse"><stop stop-color="#01524D"/><stop offset="1" stop-color="#38DBD2"/></linearGradient><linearGradient id="paint2_linear_243_1918" x1="17.187" y1="12.623" x2="10.996" y2="13.76" gradientUnits="userSpaceOnUse"><stop stop-color="#01524D"/><stop offset="1" stop-color="#38DBD2"/></linearGradient><linearGradient id="paint3_linear_243_1918" x1="10.14" y1="19.305" x2="5.051" y2="21.744" gradientUnits="userSpaceOnUse"><stop stop-color="#01524D"/><stop offset="1" stop-color="#38DBD2"/></linearGradient><linearGradient id="paint4_linear_243_1918" x1="35.318" y1="14.456" x2="30.75" y2="20.747" gradientUnits="userSpaceOnUse"><stop stop-color="#01524D"/><stop offset="1" stop-color="#38DBD2"/></linearGradient></defs></svg>