<svg width="24" height="24" fill="none" xmlns="http://www.w3.org/2000/svg"><g clip-path="url(#clip0_263_2937)" fill="#2B7F77"><path d="M9.95 14.052c-2.293-2.293-2.811-4.586-2.928-5.505a.823.823 0 01.237-.69l1.855-1.854a.828.828 0 00.117-1.025L6.277.39A.828.828 0 005.203.088L.46 2.322a.824.824 0 00-.456.823c.249 2.36 1.278 8.165 6.982 13.869 5.704 5.704 11.507 6.733 13.87 6.982a.824.824 0 00.823-.456l2.234-4.743a.829.829 0 00-.3-1.072l-4.589-2.954a.828.828 0 00-1.025.116l-1.855 1.856a.824.824 0 01-.69.237c-.918-.117-3.211-.635-5.504-2.928zM19.143 11c-.474 0-.857-.299-.857-.667-.004-2.76-2.88-4.997-6.429-5-.473 0-.857-.298-.857-.666 0-.369.384-.667.857-.667 4.495.004 8.138 2.837 8.143 6.333 0 .368-.384.667-.857.667z"/><path d="M23.161 11c-.463 0-.838-.318-.838-.71-.007-4.897-4.697-8.865-10.484-8.87-.463 0-.839-.318-.839-.71 0-.392.376-.71.839-.71C18.552.006 23.993 4.61 24 10.29a.66.66 0 01-.246.502.922.922 0 01-.593.208z"/></g><defs><clipPath id="clip0_263_2937"><path fill="#fff" d="M0 0h24v24H0z"/></clipPath></defs></svg>