<svg width="95" height="20" fill="none" xmlns="http://www.w3.org/2000/svg"><path d="M10.217 2.13l1.848 5.98h5.978l-4.838 3.694 1.848 5.978-4.836-3.697-4.838 3.697 1.848-5.979L2.391 8.11H8.37l1.848-5.979zM29 2.13l1.848 5.98h5.978l-4.838 3.694 1.848 5.978L29 14.085l-4.838 3.697 1.848-5.979-4.836-3.694h5.978L29 2.13zM47.782 2.13l1.849 5.98h5.978l-4.839 3.694 1.848 5.978-4.836-3.697-4.838 3.697 1.848-5.979-4.836-3.694h5.978l1.849-5.979zM66.565 2.13l1.848 5.98h5.978l-4.838 3.694 1.848 5.978-4.836-3.697-4.838 3.697 1.848-5.979-4.836-3.694h5.978l1.848-5.979zM85.348 2.13l1.848 5.98h5.978l-4.838 3.694 1.848 5.978-4.836-3.697-4.838 3.697 1.848-5.979-4.836-3.694H83.5l1.848-5.979z" fill="#000"/></svg>