<svg width="26" height="33" fill="none" xmlns="http://www.w3.org/2000/svg"><path d="M25.531 23.438a3.468 3.468 0 00-6.475-1.735 1.157 1.157 0 001.3 1.688c.294-.078.546-.27.7-.532a1.155 1.155 0 012.002-.002 1.157 1.157 0 01-.995 1.737 1.156 1.156 0 00-1.157 1.156 4.625 4.625 0 01-4.625 4.625h-1.156A4.625 4.625 0 0110.5 25.75v-9.33a9.25 9.25 0 008.094-9.17V5.412a3.931 3.931 0 00-3.469-3.943 1.156 1.156 0 10-2.312 0V3.78a1.157 1.157 0 002.312.07 1.63 1.63 0 011.156 1.56V7.25a6.938 6.938 0 01-13.875 0V5.412A1.63 1.63 0 013.563 3.85a1.157 1.157 0 002.312-.07V1.47a1.156 1.156 0 10-2.312 0 3.931 3.931 0 00-3.47 3.943V7.25a9.25 9.25 0 008.095 9.17v9.33a6.938 6.938 0 006.937 6.938h1.156a6.937 6.937 0 006.857-5.967 3.469 3.469 0 002.393-3.284z" fill="url(#paint0_linear_243_1912)"/><defs><linearGradient id="paint0_linear_243_1912" x1="21.878" y1="32.688" x2="-1.101" y2="32.001" gradientUnits="userSpaceOnUse"><stop stop-color="#01524D"/><stop offset="1" stop-color="#38DBD2"/></linearGradient></defs></svg>