<svg width="34" height="34" fill="none" xmlns="http://www.w3.org/2000/svg"><g clip-path="url(#clip0_243_2108)" stroke-width="2" stroke-miterlimit="10" stroke-linecap="round" stroke-linejoin="round"><path d="M8.75 23.4v9.9c-.182 0-.363-.043-.53-.128l-7.053-3.596a1.245 1.245 0 01-.669-1.113v-8.515c0-.238.066-.466.184-.66L8.749 23.4z" stroke="url(#paint0_linear_243_2108)"/><path d="M13.978 30.777l3.024-1.542V19.194L8.752 23.4V33.3c.18 0 .362-.043.528-.128l2.583-1.316" stroke="url(#paint1_linear_243_2108)"/><path d="M17.002 19.194L8.752 23.4.684 19.287c.111-.183.27-.337.462-.44l7.606-4.087 8.25 4.434z" stroke="url(#paint2_linear_243_2108)"/><path d="M25.248 23.4v9.9c.181 0 .362-.043.53-.128l7.053-3.596c.409-.209.668-.64.668-1.113v-8.515c0-.238-.066-.466-.183-.66L25.248 23.4z" stroke="url(#paint3_linear_243_2108)"/><path d="M25.25 23.4V33.3a1.16 1.16 0 01-.528-.128L17 29.236V19.194l8.25 4.206z" stroke="url(#paint4_linear_243_2108)"/><path d="M20.991 17.049L17 19.194l8.25 4.206 8.068-4.113a1.213 1.213 0 00-.462-.44L29.51 17.05" stroke="url(#paint5_linear_243_2108)"/><path d="M17.003 9.182v10.012l-8.25-4.435-.001-9.03c0-.238.066-.465.184-.66l8.067 4.113z" stroke="url(#paint6_linear_243_2108)"/><path d="M17 19.194V9.182l8.066-4.113c.118.195.184.422.184.66v1.82" stroke="url(#paint7_linear_243_2108)"/><path d="M25.07 5.07l-8.066 4.112-8.067-4.113c.112-.183.27-.337.463-.44L16.452.84l.006-.003a1.16 1.16 0 011.098.003l7.052 3.789c.193.103.351.257.463.44z" stroke="url(#paint8_linear_243_2108)"/><path d="M28.818 11.498a4.835 4.835 0 101.118 2.073" stroke="url(#paint9_linear_243_2108)"/><path d="M22.983 14.963l1.611 1.493 2.84-2.986" stroke="url(#paint10_linear_243_2108)"/></g><defs><linearGradient id="paint0_linear_243_2108" x1=".151" y1="15.915" x2="11.878" y2="16.459" gradientUnits="userSpaceOnUse"><stop stop-color="#01524D"/><stop offset="1" stop-color="#38DBD2"/></linearGradient><linearGradient id="paint1_linear_243_2108" x1="8.405" y1="15.798" x2="20.131" y2="16.339" gradientUnits="userSpaceOnUse"><stop stop-color="#01524D"/><stop offset="1" stop-color="#38DBD2"/></linearGradient><linearGradient id="paint2_linear_243_2108" x1="-.003" y1="12.679" x2="22.735" y2="16.066" gradientUnits="userSpaceOnUse"><stop stop-color="#01524D"/><stop offset="1" stop-color="#38DBD2"/></linearGradient><linearGradient id="paint3_linear_243_2108" x1="24.901" y1="15.915" x2="36.628" y2="16.459" gradientUnits="userSpaceOnUse"><stop stop-color="#01524D"/><stop offset="1" stop-color="#38DBD2"/></linearGradient><linearGradient id="paint4_linear_243_2108" x1="16.653" y1="15.799" x2="28.379" y2="16.339" gradientUnits="userSpaceOnUse"><stop stop-color="#01524D"/><stop offset="1" stop-color="#38DBD2"/></linearGradient><linearGradient id="paint5_linear_243_2108" x1="16.313" y1="15.52" x2="38.639" y2="20.043" gradientUnits="userSpaceOnUse"><stop stop-color="#01524D"/><stop offset="1" stop-color="#38DBD2"/></linearGradient><linearGradient id="paint6_linear_243_2108" x1="8.405" y1="1.669" x2="20.131" y2="2.209" gradientUnits="userSpaceOnUse"><stop stop-color="#01524D"/><stop offset="1" stop-color="#38DBD2"/></linearGradient><linearGradient id="paint7_linear_243_2108" x1="16.653" y1="1.669" x2="28.379" y2="2.209" gradientUnits="userSpaceOnUse"><stop stop-color="#01524D"/><stop offset="1" stop-color="#38DBD2"/></linearGradient><linearGradient id="paint8_linear_243_2108" x1="8.258" y1="-1.341" x2="30.731" y2="2.03" gradientUnits="userSpaceOnUse"><stop stop-color="#01524D"/><stop offset="1" stop-color="#38DBD2"/></linearGradient><linearGradient id="paint9_linear_243_2108" x1="20.006" y1="7.596" x2="33.694" y2="8.676" gradientUnits="userSpaceOnUse"><stop stop-color="#01524D"/><stop offset="1" stop-color="#38DBD2"/></linearGradient><linearGradient id="paint10_linear_243_2108" x1="22.796" y1="12.752" x2="29.048" y2="13.487" gradientUnits="userSpaceOnUse"><stop stop-color="#01524D"/><stop offset="1" stop-color="#38DBD2"/></linearGradient><clipPath id="clip0_243_2108"><path fill="#fff" d="M0 0h34v34H0z"/></clipPath></defs></svg>