<svg width="26" height="26" fill="none" xmlns="http://www.w3.org/2000/svg"><g clip-path="url(#clip0_289_12184)"><circle cx="14.508" cy="13.5" r="9.5" fill="#fff"/><path d="M13 .406C5.819.406 0 6.043 0 13s5.819 12.594 13 12.594S26 19.957 26 13 20.181.406 13 .406zm6.385 8.628l-2.134 9.74c-.157.69-.582.858-1.174.533l-3.25-2.32-1.567 1.462c-.173.167-.32.31-.656.31l.231-3.205 6.023-5.27c.262-.224-.058-.351-.404-.128l-7.443 4.54-3.208-.97c-.697-.213-.713-.675.147-1l12.533-4.682c.582-.203 1.09.137.902.99z" fill="url(#paint0_linear_289_12184)"/></g><defs><linearGradient id="paint0_linear_289_12184" x1="22.265" y1="25.594" x2="-1.206" y2="24.673" gradientUnits="userSpaceOnUse"><stop stop-color="#01524D"/><stop offset="1" stop-color="#38DBD2"/></linearGradient><clipPath id="clip0_289_12184"><path fill="#fff" d="M0 0h26v26H0z"/></clipPath></defs></svg>