<svg width="26" height="26" fill="none" xmlns="http://www.w3.org/2000/svg"><g clip-path="url(#clip0_289_12180)"><path d="M2.005 24l1.622-5.962A11.945 11.945 0 012 12C2 5.372 7.372 0 14 0s12 5.372 12 12-5.372 12-12 12a11.945 11.945 0 01-6.036-1.626L2.004 24zM9.669 6.37c-.155.01-.306.05-.445.12-.13.073-.249.165-.353.273-.144.136-.225.253-.313.367a3.275 3.275 0 00-.678 2.014c.002.588.156 1.16.396 1.696.49 1.082 1.298 2.228 2.365 3.29.257.256.508.512.778.751a11.339 11.339 0 004.608 2.455l.683.105c.222.012.444-.005.667-.016.35-.018.69-.113 1-.277.199-.106.292-.158.459-.264 0 0 .052-.034.15-.108.162-.12.262-.205.396-.346.1-.103.186-.224.252-.362.094-.196.187-.569.226-.88.028-.237.02-.367.016-.447-.004-.129-.111-.262-.228-.318l-.698-.313s-1.044-.455-1.681-.746a.597.597 0 00-.213-.049.579.579 0 00-.453.153v-.003c-.006 0-.087.069-.954 1.12a.42.42 0 01-.442.156 1.7 1.7 0 01-.229-.08c-.149-.062-.2-.086-.302-.13l-.006-.003a7.212 7.212 0 01-1.884-1.2c-.152-.132-.292-.276-.436-.415a7.557 7.557 0 01-1.224-1.521l-.07-.114a1.108 1.108 0 01-.123-.246c-.046-.177.073-.318.073-.318s.292-.32.427-.492c.113-.144.219-.293.316-.448.141-.228.186-.462.111-.643a99.91 99.91 0 00-1.041-2.45c-.071-.16-.281-.275-.472-.298-.065-.007-.13-.015-.194-.02a4.06 4.06 0 00-.484.007z" fill="url(#paint0_linear_289_12180)"/></g><defs><linearGradient id="paint0_linear_289_12180" x1="22.553" y1="24" x2=".885" y2="23.177" gradientUnits="userSpaceOnUse"><stop stop-color="#01524D"/><stop offset="1" stop-color="#38DBD2"/></linearGradient><clipPath id="clip0_289_12180"><path fill="#fff" d="M0 0h26v26H0z"/></clipPath></defs></svg>