<svg width="34" height="34" viewBox="0 0 34 34" fill="none" xmlns="http://www.w3.org/2000/svg">
<g clip-path="url(#clip0)">
<path d="M22.7768 13.9172C22.654 11.8213 20.8773 11.0539 18.6087 10.7696L18.7167 7.87284L16.9535 7.80724L16.8484 10.6277C16.3848 10.6104 15.9107 10.6019 15.4396 10.5938L15.5457 7.75466L13.7835 7.68887L13.6748 10.5848C13.2927 10.5783 12.9176 10.5715 12.552 10.5581L12.5521 10.5491L10.1202 10.4575L10.0504 12.3407C10.0504 12.3407 11.3534 12.3645 11.3309 12.3877C12.0451 12.4145 12.2621 12.8378 12.3163 13.1981L12.1934 16.4982C12.2426 16.5003 12.3069 16.5047 12.3793 16.5174C12.3205 16.5153 12.2577 16.5126 12.193 16.5107L12.0201 21.1337C11.9804 21.3573 11.8349 21.7108 11.3359 21.693C11.3577 21.7138 10.0541 21.6449 10.0541 21.6449L9.62524 23.7376L11.9198 23.8231C12.3468 23.8395 12.7667 23.8624 13.1791 23.8804L13.0705 26.8102L14.8319 26.8762L14.94 23.9774C15.4232 24.0055 15.8911 24.0268 16.348 24.0434L16.2396 26.9288L18.0029 26.9944L18.1125 24.0699C21.0832 24.0104 23.1859 23.3409 23.5474 20.5668C23.839 18.333 22.8219 17.2935 21.1542 16.8267C22.1959 16.3442 22.8693 15.4509 22.7768 13.9172ZM20.0762 20.0896C19.9955 22.2791 16.256 21.8902 15.0609 21.8468L15.2062 17.965C16.4015 18.0099 20.1616 17.806 20.0762 20.0896ZM19.4605 14.5824C19.3856 16.5743 16.2678 16.2253 15.2724 16.1882L15.4039 12.6676C16.3992 12.7047 19.5378 12.5048 19.4605 14.5824Z" fill="white"/>
</g>
<defs>
<clipPath id="clip0">
<rect width="32.5714" height="32.5714" fill="white" transform="translate(0.785706 0.714294)"/>
</clipPath>
</defs>
</svg>
