<svg width="25" height="25" viewBox="0 0 25 25" fill="none" xmlns="http://www.w3.org/2000/svg">
<path d="M12.5001 8.854C10.4902 8.854 8.85425 10.4894 8.85425 12.4998C8.85425 14.5103 10.4902 16.1457 12.5001 16.1457C14.51 16.1457 16.1459 14.5103 16.1459 12.4998C16.1459 10.4894 14.51 8.854 12.5001 8.854ZM12.5001 14.0623C11.6386 14.0623 10.9376 13.3613 10.9376 12.4998C10.9376 11.6384 11.6386 10.9373 12.5001 10.9373C13.3615 10.9373 14.0626 11.6384 14.0626 12.4998C14.0626 13.3613 13.3615 14.0623 12.5001 14.0623Z" fill="#00ABED"/>
<path d="M23.9583 11.4583H21.8135C21.3312 7.12031 17.8797 3.66875 13.5417 3.18646V1.04167C13.5417 0.466667 13.075 0 12.5 0C11.925 0 11.4583 0.466667 11.4583 1.04167V3.18646C7.12031 3.66875 3.66875 7.12031 3.18646 11.4583H1.04167C0.466667 11.4583 0 11.925 0 12.5C0 13.075 0.466667 13.5417 1.04167 13.5417H3.18646C3.66875 17.8797 7.12031 21.3312 11.4583 21.8135V23.9583C11.4583 24.5333 11.925 25 12.5 25C13.075 25 13.5417 24.5333 13.5417 23.9583V21.8135C17.8797 21.3312 21.3312 17.8797 21.8135 13.5417H23.9583C24.5333 13.5417 25 13.075 25 12.5C25 11.925 24.5333 11.4583 23.9583 11.4583ZM12.5 19.7917C8.47917 19.7917 5.20833 16.5208 5.20833 12.5C5.20833 8.47917 8.47917 5.20833 12.5 5.20833C16.5208 5.20833 19.7917 8.47917 19.7917 12.5C19.7917 16.5208 16.5208 19.7917 12.5 19.7917Z" fill="#00ABED"/>
</svg>
