<svg width="33" height="33" viewBox="0 0 33 33" fill="none" xmlns="http://www.w3.org/2000/svg">
<rect width="33" height="33" rx="3" fill="white"/>
<path fill-rule="evenodd" clip-rule="evenodd" d="M9.51042 23.375C9.51042 23.375 8.25 23.375 8.25 22.1146C8.25 20.8542 9.51042 17.0729 15.8125 17.0729C22.1146 17.0729 23.375 20.8542 23.375 22.1146C23.375 23.375 22.1146 23.375 22.1146 23.375H9.51042ZM15.8125 15.8125C16.8153 15.8125 17.7771 15.4141 18.4862 14.705C19.1954 13.9959 19.5938 13.0341 19.5938 12.0312C19.5938 11.0284 19.1954 10.0666 18.4862 9.3575C17.7771 8.64838 16.8153 8.25 15.8125 8.25C14.8096 8.25 13.8479 8.64838 13.1388 9.3575C12.4296 10.0666 12.0312 11.0284 12.0312 12.0312C12.0312 13.0341 12.4296 13.9959 13.1388 14.705C13.8479 15.4141 14.8096 15.8125 15.8125 15.8125Z" fill="#3C9FD3"/>
</svg>
