<svg width="34" height="34" viewBox="0 0 34 34" fill="none" xmlns="http://www.w3.org/2000/svg">
<path d="M19.2474 13.2912V10.6668H25.2487V6.66809H8.90681V10.6668H14.9089V13.2891C10.0309 13.5131 6.36322 14.4792 6.36322 15.6365C6.36322 16.7938 10.0327 17.7598 14.9089 17.9853V26.3916H19.2488V17.9846C24.1179 17.7598 27.7782 16.7945 27.7782 15.6382C27.7782 14.482 24.1179 13.5166 19.2488 13.2919L19.2474 13.2912ZM19.2488 17.2726V17.2704C19.1263 17.2782 18.4972 17.316 17.0965 17.316C15.9766 17.316 15.1887 17.2842 14.911 17.2697V17.2733C10.6015 17.0824 7.38468 16.3319 7.38468 15.4339C7.38468 14.536 10.6018 13.7865 14.911 13.5953V16.5256C15.1933 16.545 16.0006 16.5927 17.1148 16.5927C18.4531 16.5927 19.126 16.5369 19.2495 16.5256V13.5953C23.5505 13.7869 26.7599 14.5381 26.7599 15.4329C26.7599 16.3277 23.5491 17.0792 19.2495 17.2708" fill="white"/>
</svg>
