<svg width="44" height="14" viewBox="0 0 44 14" fill="none" xmlns="http://www.w3.org/2000/svg">
<path fill-rule="evenodd" clip-rule="evenodd" d="M10.9665 13.8912H7.17019L4.32339 3.03046C4.18827 2.53087 3.90137 2.0892 3.47935 1.88104C2.42614 1.35791 1.26558 0.941588 -0.000488281 0.731614V0.313477H6.11514C6.95918 0.313477 7.59222 0.941588 7.69772 1.67107L9.1748 9.50526L12.9693 0.313477H16.6602L10.9665 13.8912ZM18.7702 13.8912H15.1849L18.1372 0.313477H21.7225L18.7702 13.8912ZM26.3611 4.07458C26.4666 3.34329 27.0996 2.92515 27.8381 2.92515C28.9987 2.82016 30.2629 3.03014 31.318 3.55145L31.951 0.628111C30.896 0.209974 29.7354 0 28.6822 0C25.2024 0 22.6702 1.88071 22.6702 4.4909C22.6702 6.4766 24.4638 7.51923 25.7299 8.14734C27.0996 8.77364 27.6271 9.19178 27.5216 9.81808C27.5216 10.7575 26.4666 11.1757 25.4134 11.1757C24.1473 11.1757 22.8812 10.8625 21.7225 10.3394L21.0895 13.2645C22.3555 13.7859 23.7253 13.9958 24.9913 13.9958C28.8932 14.099 31.318 12.2201 31.318 9.39994C31.318 5.84849 26.3611 5.64033 26.3611 4.07458ZM43.8658 13.8912L41.019 0.313477H37.9612C37.3281 0.313477 36.6951 0.731614 36.4841 1.35791L31.2125 13.8912H34.9034L35.64 11.9073H40.1749L40.597 13.8912H43.8658ZM38.4887 3.96973L39.5419 9.08692H36.5896L38.4887 3.96973Z" fill="#016AE6"/>
</svg>
