<svg width="23" height="14" viewBox="0 0 23 14" fill="none" xmlns="http://www.w3.org/2000/svg">
<path fill-rule="evenodd" clip-rule="evenodd" d="M11.3934 12.3274C10.1865 13.3701 8.62104 13.9995 6.91037 13.9995C3.09334 13.9995 -0.000976562 10.8656 -0.000976562 6.99977C-0.000976562 3.13391 3.09334 0 6.91037 0C8.62104 0 10.1865 0.629456 11.3934 1.67215C12.6003 0.629456 14.1658 0 15.8764 0C19.6935 0 22.7878 3.13391 22.7878 6.99977C22.7878 10.8656 19.6935 13.9995 15.8764 13.9995C14.1658 13.9995 12.6003 13.3701 11.3934 12.3274Z" fill="#ED0006"/>
<path fill-rule="evenodd" clip-rule="evenodd" d="M11.3935 12.3284C12.8795 11.0445 13.8218 9.13406 13.8218 7.00075C13.8218 4.86743 12.8795 2.95702 11.3935 1.67313C12.6004 0.630432 14.1659 0.000976562 15.8765 0.000976562C19.6936 0.000976562 22.7879 3.13489 22.7879 7.00075C22.7879 10.8666 19.6936 14.0005 15.8765 14.0005C14.1659 14.0005 12.6004 13.3711 11.3935 12.3284Z" fill="#F9A000"/>
<path fill-rule="evenodd" clip-rule="evenodd" d="M11.3935 12.3274C12.8795 11.0435 13.8218 9.13306 13.8218 6.99974C13.8218 4.86642 12.8795 2.95601 11.3935 1.67212C9.90743 2.95601 8.96515 4.86642 8.96515 6.99974C8.96515 9.13306 9.90743 11.0435 11.3935 12.3274Z" fill="#FF5E00"/>
</svg>
