<svg width="20" height="21" viewBox="0 0 20 21" fill="none" xmlns="http://www.w3.org/2000/svg">
<path d="M4.00831 19.5194L5.04535 10.1861C5.12038 9.51085 5.69113 9 6.37053 9H17.3171C17.9965 9 18.5672 9.51085 18.6423 10.1861L19.6793 19.5194C19.7671 20.3092 19.1488 21 18.3541 21H5.33349C4.53881 21 3.92056 20.3092 4.00831 19.5194Z" fill="#E65497"/>
<path d="M3.20154 8.51941L2.7046 8.4642L3.20154 8.51941ZM2.1645 17.8527L2.66144 17.908L2.1645 17.8527ZM17.8355 17.8527L17.3385 17.908L17.8355 17.8527ZM16.7984 8.51941L17.2954 8.4642L16.7984 8.51941ZM2.7046 8.4642L1.66756 17.7975L2.66144 17.908L3.69848 8.57463L2.7046 8.4642ZM3.48968 19.8333H16.5103V18.8333H3.48968V19.8333ZM18.3324 17.7975L17.2954 8.4642L16.3015 8.57463L17.3385 17.908L18.3324 17.7975ZM15.4733 6.83332H4.52672V7.83332H15.4733V6.83332ZM17.2954 8.4642C17.1922 7.53574 16.4074 6.83332 15.4733 6.83332V7.83332C15.8979 7.83332 16.2546 8.1526 16.3015 8.57463L17.2954 8.4642ZM16.5103 19.8333C17.603 19.8333 18.4531 18.8835 18.3324 17.7975L17.3385 17.908C17.3934 18.4016 17.007 18.8333 16.5103 18.8333V19.8333ZM1.66756 17.7975C1.54689 18.8835 2.39699 19.8333 3.48968 19.8333V18.8333C2.993 18.8333 2.6066 18.4016 2.66144 17.908L1.66756 17.7975ZM3.69848 8.57463C3.74537 8.1526 4.10209 7.83332 4.52672 7.83332V6.83332C3.59254 6.83332 2.80776 7.53574 2.7046 8.4642L3.69848 8.57463ZM6.49999 5.33332V4.66666H5.49999V5.33332H6.49999ZM13.5 4.66666V5.33332H14.5V4.66666H13.5ZM9.99999 1.16666C11.933 1.16666 13.5 2.73366 13.5 4.66666H14.5C14.5 2.18138 12.4853 0.166656 9.99999 0.166656V1.16666ZM6.49999 4.66666C6.49999 2.73366 8.067 1.16666 9.99999 1.16666V0.166656C7.51471 0.166656 5.49999 2.18137 5.49999 4.66666H6.49999Z" fill="black"/>
</svg>
