<svg width="7" height="7" viewBox="0 0 7 7" fill="none" xmlns="http://www.w3.org/2000/svg">
<path d="M5.96779 0.5H1.40721C0.892307 0.5 0.5 0.892308 0.5 1.40721V5.96779C0.5 6.48269 0.892307 6.875 1.40721 6.875H5.96779C6.48269 6.875 6.875 6.48269 6.875 5.96779V1.40721C6.875 0.892308 6.48269 0.5 5.96779 0.5ZM3.6875 5.6C4.74183 5.6 5.6 4.76635 5.6 3.76106C5.6 3.58942 5.57548 3.39327 5.52644 3.24615H6.06586V5.84519C6.06586 5.96779 5.96779 6.09038 5.82067 6.09038H1.55433C1.43173 6.09038 1.30914 5.99231 1.30914 5.84519V3.22163H1.87308C1.82404 3.39327 1.79952 3.5649 1.79952 3.73654C1.775 4.76635 2.63317 5.6 3.6875 5.6ZM3.6875 4.86442C3.00096 4.86442 2.46154 4.325 2.46154 3.66298C2.46154 3.00096 3.00096 2.46154 3.6875 2.46154C4.37404 2.46154 4.91346 3.00096 4.91346 3.66298C4.91346 4.34952 4.37404 4.86442 3.6875 4.86442ZM6.04135 2.24086C6.04135 2.38798 5.91875 2.51058 5.77163 2.51058H5.0851C4.93798 2.51058 4.81539 2.38798 4.81539 2.24086V1.57885C4.81539 1.43173 4.93798 1.30913 5.0851 1.30913H5.77163C5.91875 1.30913 6.04135 1.43173 6.04135 1.57885V2.24086Z" fill="white"/>
</svg>
