<svg width="82" height="82" xmlns="http://www.w3.org/2000/svg" viewBox="0 0 890.54 663.86">
    <path class="cls-1" d="M891.9,402c-2.54,5.82-2.38,12.2-3.91,18.24-11.71,46.26-32.08,88-64.32,123.54a92.2,92.2,0,0,1-15,13.15c-8.94,6.36-18.57,9.7-29.87,9.06C707.6,561.9,636.63,556.13,567,539.9c-10-2.34-19.89-5.39-29.81-8.21-2.85-.82-5.6-2-9.32-3.36,8.23-2,15.63-3.39,22.86-5.46C640.23,497.2,709,445.5,751.42,361.4,769.75,325.1,780,286.31,785,246.05c.39-3.14.87-6.28,1-9.43.19-3.85,1.54-4,4.52-2.09A131.63,131.63,0,0,1,816.16,256a372,372,0,0,1,69.33,104.3c3,6.66,4.45,13.75,6.41,20.71Z" transform="translate(-1.36 -0.1)" fill="#ea018b"></path>
    <path class="cls-2" d="M836.92.1c.83,12.22.14,24.32-3.41,36.1-7.87,26.14-26.73,39.6-52.5,44.63-16.67,3.26-33.45,2.7-50.24.55-2.71-.35-3.32-1.26-2.81-3.74,2.77-13.4,6.35-26.51,13.24-38.5,11.26-19.6,29.53-28.44,50.59-33,10.75-2.35,21.65-3.64,32.56-4.93,1.22-.15,2.74.49,3.57-1.06Z" transform="translate(-1.36 -0.1)" fill="#017a6a"></path>
    <path class="cls-1" d="M411.85,107.49c-22.69,8.08-38.76,23.69-52.9,41.41-29.09,36.45-47.83,77.68-52.6,124.23-6.91,67.49,20.35,118,78.82,151.88,29.43,17,61.58,26.48,94.73,32.94a396.92,396.92,0,0,0,76.41,7.52c15.82,0,31.63-.72,47.29-3.29a4.6,4.6,0,0,1,3,.59c-4,1.55-7.91,3.13-11.89,4.63-41.08,15.43-81.94,31.51-124.08,43.91a236.84,236.84,0,0,1-57.93,9.7c-27.9,1.07-53.68-5.9-77.83-19.63-16.08-9.15-31.23-19.73-46.67-29.86-25.55-16.76-52.36-31-81.21-41.26-8.18-2.9-13.5-9-17.9-16-9.64-15.39-14.28-32.6-16.79-50.29-7.57-53.43-.9-105,23-153.64,22.1-45,56.77-78.61,100.17-102.94,35.52-19.92,72.34-18.33,109.21-3C406.81,105.25,408.92,106.21,411.85,107.49Z" transform="translate(-1.36 -0.1)" fill="#ea018b"></path>
    <path class="cls-1" d="M247.16,467.83c15,10.54,29.51,21.65,44.94,31.51,22.32,14.26,45.17,27.39,70.16,36.66,16.25,6,32.24,4.62,48.62,1.51,17.32-3.29,34.6-6.89,52.28-7.88a52.43,52.43,0,0,1,22.92,3.54C526,549,567.46,559,609.52,566.9a1050.21,1050.21,0,0,0,104.37,14,13.13,13.13,0,0,1,1.77.49A228.12,228.12,0,0,1,694.83,607c-19.37,21-40.61,39.48-67.48,50.35-22.75,9.2-45.13,9-67.62-1.81-46.16-22.12-95.19-31.25-146.18-30.94-17.48.11-35,.31-52.4-1.63-13.93-1.54-25.84-6.91-35.28-17.61-14.2-16.08-25.38-34.18-36.05-52.65q-23.71-41.07-43.31-84.27A6.35,6.35,0,0,0,247.16,467.83Z" transform="translate(-1.36 -0.1)" fill="#ea018b"></path>
    <path class="cls-2" d="M91.32,506.3c-22.13-3.66-42.07-10.53-60-22.71a104.89,104.89,0,0,1-17.48-14.84c-1.89-2-2-3.25.22-5.14,30.24-25.11,64.74-38.39,104.3-37,37.12,1.32,69.19,16.23,98.68,37.71a6.42,6.42,0,0,1,2.76,3.41c6.59,23.44,9.5,47,1.91,70.79-7.48,23.39-23.4,39.88-44,52.28-21.67,13-45.5,20.2-70.09,25-33.84,6.64-68.05,8.13-102.43,7-1.75-.06-4.82,1.11-3.56-3.08C13.43,580.59,32.4,546.14,65.71,521a118.85,118.85,0,0,1,12.16-7.84C81.88,510.86,86.12,508.94,91.32,506.3Z" transform="translate(-1.36 -0.1)" fill="#017a6a"></path>
    <path class="cls-1" d="M381.31,146.14c-.63,9.82-1.2,18.11-1.71,26.4a151.45,151.45,0,0,0,2.54,39.76,67.47,67.47,0,0,0,17.66,34.12c4.75,4.91,9.67,9.66,14.63,14.34a142.51,142.51,0,0,1,24.86,31.72c37.82,64.12,91.52,109.2,162,133.91a259.91,259.91,0,0,0,54.89,13c-1.47,1.64-3.39,1.32-5.1,1.4-55.19,2.78-110.25,2-164.92-6.95-32.62-5.36-64.54-13.3-93.73-29.59-40.49-22.59-60.79-58.57-66.27-103.35-5-40.62,7.51-77.61,26.63-112.77A254.53,254.53,0,0,1,381.31,146.14Z" transform="translate(-1.36 -0.1)" fill="#ea018b"></path>
    <path class="cls-1" d="M878.46,296.69A421.78,421.78,0,0,0,838.89,245c-21.57-23.86-45-45.44-74.37-59.59-17.19-8.29-35.84-12.21-54.08-17.27-38.62-10.73-77.53-20.38-117.18-26.53-9.56-1.49-18.23-4.88-27-8.45-15.19-6.19-30.39-12.36-45.6-19.78,7.29-1.73,14.55-3.63,21.89-5.16C594.12,97.5,646.18,92.32,698.86,94.19a384.7,384.7,0,0,1,57.57,6c18,3.38,33,12.79,47.1,24,15.67,12.51,29.08,27.4,43.67,41.05A155.75,155.75,0,0,0,865.43,180c13.55,9.32,19.83,23.07,22.21,38.69C891.66,245.1,886.52,270.57,878.46,296.69Z" transform="translate(-1.36 -0.1)" fill="#ea018b"></path>
    <path class="cls-1" d="M697.9,79.09c-18.59,1.34-37.2,2.44-55.76,4-45.93,4-91.87,7.89-136.82,18.89a5,5,0,0,0-1,.21c-11.3,5.72-22.14,3.72-33.85,0-31.43-9.92-63.85-16-96.21-22-3.82-.72-5.08-1.62-3.87-5.67,4.46-15,9.27-29.8,15.64-44.13C391.56,18,400.94,10.8,413.62,7.15c19.18-5.53,38.74-5.46,58.45-4.62,41.16,1.75,78.94,16,116.62,30.82q53.14,20.88,105.62,43.42l3.59,1.56Z" transform="translate(-1.36 -0.1)" fill="#ea018b"></path>
    <path class="cls-1" d="M624.65,176.19c34.55,1.71,68.48,4.85,101.14,15.92,10.93,3.7,21.38,8.46,30.24,16.06,10.27,8.81,15,19.62,12,33.33-9.67,44.6-20.85,88.73-41.19,129.93-7.32,14.84-16,28.84-28.08,40.4-7.59,7.26-16.1,12.9-26.73,14.62a28.17,28.17,0,0,1-4,.43c-3.85,0-8.63.45-10.76-2.49-1.52-2.07,2.28-5.36,3.7-8.09,24.91-47.8,35.87-98.47,31.84-152.34-2.17-29-17.24-50.43-39-68.12a153.07,153.07,0,0,0-25.84-17C626.89,178.3,625.4,178.15,624.65,176.19Z" transform="translate(-1.36 -0.1)" fill="#ea018b"></path>
    <path class="cls-1" d="M453.12,274.61c-28.73-19.73-52-42.31-58.46-77-5.71-30.85,3.77-57.14,27.11-78.27,9.82-8.89,21.74-9.29,33.88-7.72,23.39,3,44.86,12.08,66,22,33.47,15.79,65.15,34.73,96,55.13.78.52,1.82.81,2,2-2,.58-3.47-.84-5.07-1.53-24.52-10.64-49.66-19.12-76.44-21.74-12-1.17-24-1-35.73,2-27.13,6.86-41.47,25.51-47.28,51.79-3.3,14.91-3.75,30-2.47,45.2C452.78,268.8,452.89,271.12,453.12,274.61Z" transform="translate(-1.36 -0.1)" fill="#ea018b"></path>
    <path class="cls-3" d="M475.09,309.31c2.54-.91,4.13.56,5.86,1.43,28.42,14.34,57.35,27.37,88.48,34.78,18.29,4.35,36.5,5.85,54.24-2.54,14.88-7,26.15-18.12,35.49-31.41a148.11,148.11,0,0,0,14.44-26.31c.95,6.1-.16,10.89-.66,15.66-2.68,25.68-6.37,51.18-15,75.69a86.06,86.06,0,0,1-4.22,10.12c-9.8,19.46-16.29,21.53-37.09,20.68-18.71-.77-35.69-7.57-51.75-16.73-28.85-16.47-52.73-38.86-74.66-63.47C485.07,321.4,480.18,315.34,475.09,309.31Z" transform="translate(-1.36 -0.1)" fill="#ea018b"></path>
    <path class="cls-3" d="M510.28,304.27c20.19-.4,39.68-2.53,58.33-9.41,21.48-7.92,38.14-21,44.81-44,4.2-14.5,3.1-29-.67-43.39-.25-1-.57-1.91-.81-2.88a3.55,3.55,0,0,1,0-.92,1.35,1.35,0,0,1,1.77-.45c14.38,5,28.14,11.21,40.13,20.77a64.1,64.1,0,0,1,8.31,7.91c9,10.31,11.4,21.92,4.57,34.1-14.16,25.24-34.76,43.94-60.23,57.39-4.33,2.28-9.24,2.91-14,3.27-22.13,1.64-43.9-.16-64.91-7.88a40.12,40.12,0,0,1-11-5.88C513.85,310.73,511.15,308.48,510.28,304.27Z" transform="translate(-1.36 -0.1)" fill="#ea018b"></path>
    <path class="cls-4" d="M541,188.36c-3.12,3.88-5.86,7.14-8.45,10.51-6.5,8.48-12.55,17.23-16,27.47-4.41,13.09-.37,22.81,12.13,28.87,10.17,4.93,21.14,5.63,32.17,5.35a156.68,156.68,0,0,0,29.34-3.5c-.17,1.92-1.7,2.45-2.73,3.28-18.77,15.3-39.9,24.61-64.44,24.43-13.18-.09-25.82-2.79-36.5-11.32-11.11-8.87-14.83-20.5-11-34.19,3.57-12.82,8.84-24.77,18.16-34.52C506.41,191.45,522.08,186.48,541,188.36Z" transform="translate(-1.36 -0.1)" fill="#ea038c"></path>
    <path class="cls-3" d="M540.67,246.05c5.45-6.34,10.08-12,13.14-18.67,3.55-7.76,5.29-15.54-1.13-22.82-1.67-1.89-.24-2.65,1.06-3.35,8.29-4.44,17.12-6.53,26.45-5,6.3,1,13.7,11,14.7,19.25a62.72,62.72,0,0,1-.33,13.41c-.86,9.16-6.47,13.22-14.69,15.1C567.25,246.87,554.49,246.39,540.67,246.05Z" transform="translate(-1.36 -0.1)" fill="#ea018b"></path>
    <path class="cls-1" d="M246.51,468.45c-.07-.38-.32-1-.18-1.11.47-.37.69.08.83.49A6.35,6.35,0,0,1,246.51,468.45Z" transform="translate(-1.36 -0.1)" fill="#ea018b"></path>
</svg>