<svg width="12" height="11" viewBox="0 0 12 11" fill="none" xmlns="http://www.w3.org/2000/svg">
<path d="M11 2H3.00004C2.63185 2 2.33337 2.29848 2.33337 2.66667V9.33333C2.33337 9.70152 2.63185 10 3.00004 10H11C11.3682 10 11.6667 9.70152 11.6667 9.33333V2.66667C11.6667 2.29848 11.3682 2 11 2Z" fill="#E65497"/>
<path d="M1.33337 3L6.00004 5.66667L10.6667 3M2.00004 1H10C10.3682 1 10.6667 1.29848 10.6667 1.66667V8.33333C10.6667 8.70152 10.3682 9 10 9H2.00004C1.63185 9 1.33337 8.70152 1.33337 8.33333V1.66667C1.33337 1.29848 1.63185 1 2.00004 1Z" stroke="#0F0F0F"/>
</svg>
