<svg width="14" height="14" viewBox="0 0 14 14" fill="none" xmlns="http://www.w3.org/2000/svg">
<path d="M9.40039 7.00002C9.40039 8.32551 8.32587 9.40002 7.00039 9.40002C5.67491 9.40002 4.60039 8.32551 4.60039 7.00002C4.60039 5.67454 5.67491 4.60002 7.00039 4.60002C8.32587 4.60002 9.40039 5.67454 9.40039 7.00002ZM9.40039 7.00002V7.80002C9.40039 8.68368 10.1167 9.40002 11.0004 9.40002C11.568 9.40002 12.0666 9.10443 12.3507 8.65877C12.5088 8.41066 12.6004 8.11604 12.6004 7.80002V7.00002C12.6004 3.90723 10.0932 1.40002 7.00039 1.40002C3.9076 1.40002 1.40039 3.90723 1.40039 7.00002C1.40039 10.0928 3.9076 12.6 7.00039 12.6C8.19019 12.6 9.29332 12.229 10.2004 11.5963" stroke="white"/>
</svg>
