<svg width="40" height="40" viewBox="0 0 40 40" fill="none" xmlns="http://www.w3.org/2000/svg">
<path d="M17.6676 15.6672L13 20.3336H22.3336L17.6676 15.6672Z" stroke="#0F0F0F" stroke-miterlimit="10" stroke-linecap="round" stroke-linejoin="round"/>
<path d="M22.3336 11C22.3336 13.5768 24.4212 15.6672 26.9996 15.6672V11H22.3336Z" stroke="#E65497" stroke-miterlimit="10" stroke-linecap="round" stroke-linejoin="round"/>
<path d="M23.7003 14.3004L22.0511 15.95L23.7003 14.3004Z" stroke="#E65497" stroke-miterlimit="10" stroke-linecap="round" stroke-linejoin="round"/>
<path d="M25.4039 15.3864L24.6075 17.5776L25.4039 15.3864Z" stroke="#E65497" stroke-miterlimit="10" stroke-linecap="round" stroke-linejoin="round"/>
<path d="M22.6148 12.596L20.4232 13.394L22.6148 12.596Z" stroke="#E65497" stroke-miterlimit="10" stroke-linecap="round" stroke-linejoin="round"/>
<path d="M20 27.7048L5.77722 17.0384V36H34.2228V17.0384L20 27.7048Z" stroke="#0F0F0F" stroke-miterlimit="10" stroke-linecap="round" stroke-linejoin="round"/>
<path d="M25.3315 8L19.9999 4L14.6667 8H25.3315Z" stroke="#0F0F0F" stroke-miterlimit="10" stroke-linecap="round" stroke-linejoin="round"/>
<path d="M30.0004 14.6668H34.2192L30.0004 11.5016V14.6668Z" stroke="#0F0F0F" stroke-miterlimit="10" stroke-linecap="round" stroke-linejoin="round"/>
<path d="M10.0007 11.5L5.77832 14.6668H10.0007V11.5Z" stroke="#0F0F0F" stroke-miterlimit="10" stroke-linecap="round" stroke-linejoin="round"/>
<path d="M30.0005 20.2056V8H10.0009V20.2056L20.0001 27.7048L30.0005 20.2056Z" stroke="#0F0F0F" stroke-miterlimit="10" stroke-linecap="round" stroke-linejoin="round"/>
<path d="M34.22 17.04V14.6668H30.0004V20.2056L34.22 17.04Z" stroke="#0F0F0F" stroke-miterlimit="10" stroke-linecap="round" stroke-linejoin="round"/>
<path d="M26.9996 11H13V20.3332H26.9996V11Z" stroke="#0F0F0F" stroke-miterlimit="10" stroke-linecap="round" stroke-linejoin="round"/>
<path d="M5.77722 17.04V14.6668H9.99682V20.2056L5.77722 17.04Z" stroke="#0F0F0F" stroke-miterlimit="10" stroke-linecap="round" stroke-linejoin="round"/>
</svg>
