<svg width="40" height="40" viewBox="0 0 40 40" fill="none" xmlns="http://www.w3.org/2000/svg">
<path d="M17.5595 11.3638C19.271 13.0746 19.271 15.8492 17.5595 17.5601C16.9945 18.1244 16.3138 18.4992 15.5944 18.6908C15.9831 17.23 15.6082 15.6067 14.4631 14.4616C12.753 12.7515 12.753 9.9768 14.4631 8.2667L15.7447 6.98445C15.746 8.57054 16.3497 10.156 17.5596 11.3652V11.3638H17.5595Z" stroke="#0F0F0F" stroke-miterlimit="10" stroke-linecap="round" stroke-linejoin="round"/>
<path d="M11.3639 17.5601C10.1561 16.3509 8.57132 15.7459 6.98523 15.7445L8.2668 14.4629C9.97696 12.7528 12.7516 12.7528 14.4617 14.4629L14.4631 14.4616C15.6082 15.6067 15.983 17.23 15.5944 18.6907C14.1324 19.0807 12.5104 18.7059 11.3639 17.5601Z" stroke="#0F0F0F" stroke-miterlimit="10" stroke-linecap="round" stroke-linejoin="round"/>
<path d="M8.95575 13.9006C7.87952 11.8529 7.3407 9.59641 7.3407 7.33987C9.59656 7.33987 11.853 7.87869 13.9009 8.95492C12.7791 10.6554 12.9665 12.965 14.463 14.4615L14.4617 14.4629C12.9651 12.9664 10.6562 12.779 8.95575 13.9006Z" stroke="#0F0F0F" stroke-miterlimit="10" stroke-linecap="round" stroke-linejoin="round"/>
<path d="M17.5594 17.5593L24.4951 24.4936L17.5594 17.5593Z" stroke="#0F0F0F" stroke-miterlimit="10" stroke-linecap="round" stroke-linejoin="round"/>
<path d="M12.0721 20.4808C14.4919 20.4801 16.4529 22.4417 16.4529 24.8616C16.4529 25.6602 16.2365 26.4071 15.8616 27.0512C15.1037 25.7428 13.6926 24.8609 12.072 24.8602C9.6543 24.8616 7.69336 22.8993 7.69336 20.4808V18.668C8.81508 19.7877 10.364 20.4808 12.072 20.4822V20.4808H12.0721Z" stroke="#0F0F0F" stroke-miterlimit="10" stroke-linecap="round" stroke-linejoin="round"/>
<path d="M12.0721 29.2423C10.3627 29.243 8.81374 29.9369 7.69202 31.0558L7.69337 29.2437C7.69337 26.8239 9.65431 24.8622 12.0735 24.8622L12.0721 24.8602C13.6927 24.8609 15.1038 25.7428 15.8617 27.0512C15.1065 28.3611 13.6927 29.2423 12.0721 29.2423Z" stroke="#0F0F0F" stroke-miterlimit="10" stroke-linecap="round" stroke-linejoin="round"/>
<path d="M7.78304 28.359C5.57267 27.6713 3.5966 26.4559 2.00085 24.8616V24.8609C3.5966 23.2658 5.57272 22.0511 7.78168 21.3634C8.19096 23.3595 9.95762 24.8609 12.0722 24.8601L12.0736 24.8622C9.95762 24.8616 8.19096 26.363 7.78304 28.359Z" stroke="#0F0F0F" stroke-miterlimit="10" stroke-linecap="round" stroke-linejoin="round"/>
<path d="M20.481 12.0721C20.481 14.4912 22.4433 16.4528 24.8617 16.4528C25.661 16.4514 26.4079 16.2358 27.0514 15.861C25.7436 15.1037 24.8617 13.6912 24.8603 12.0721C24.8617 9.65359 22.9008 7.6913 20.481 7.6913H18.6688C19.7878 8.81438 20.4823 10.3626 20.4823 12.0721H20.481V12.0721Z" stroke="#0F0F0F" stroke-miterlimit="10" stroke-linecap="round" stroke-linejoin="round"/>
<path d="M29.2439 12.0721C29.2439 10.3619 29.937 8.81302 31.0574 7.6913H29.2439C26.8254 7.6913 24.8631 9.65359 24.8631 12.0728L24.8604 12.0721C24.8617 13.6912 25.7437 15.1037 27.0514 15.861C28.362 15.1058 29.2424 13.6919 29.2439 12.0721Z" stroke="#0F0F0F" stroke-miterlimit="10" stroke-linecap="round" stroke-linejoin="round"/>
<path d="M28.3605 7.78088C27.6715 5.57192 26.4575 3.59512 24.8617 1.99937C23.2674 3.5958 22.052 5.57192 21.3643 7.7802C23.3611 8.19016 24.8617 9.95681 24.8603 12.0721L24.8631 12.0728C24.8617 9.9554 26.3638 8.19016 28.3605 7.78088Z" stroke="#0F0F0F" stroke-miterlimit="10" stroke-linecap="round" stroke-linejoin="round"/>
<path d="M24.8617 16.4514V20.5813C24.8617 21.6452 25.0243 22.6705 25.322 23.6357C25.056 23.9203 24.7831 24.2069 24.4952 24.495C24.2085 24.7823 23.9219 25.0559 23.6367 25.3211C22.6721 25.0228 21.6468 24.8615 20.5829 24.8615H16.453H20.5829C21.6468 24.8615 22.6721 25.0227 23.6367 25.3211C23.9219 25.0559 24.2085 24.7823 24.4952 24.495C24.7832 24.2069 25.0561 23.9203 25.322 23.6357C25.0243 22.6704 24.8617 21.6451 24.8617 20.5813V16.4514Z" stroke="#0F0F0F" stroke-miterlimit="10" stroke-linecap="round" stroke-linejoin="round"/>
<path d="M28.5107 18.2897C29.1156 18.8947 27.3172 21.6728 24.495 24.495C21.6728 27.3165 18.8947 29.1149 18.2897 28.5107C17.6848 27.9056 19.4831 25.1269 22.3054 22.3054C25.1276 19.4831 27.9057 17.6854 28.5107 18.2897Z" stroke="#0F0F0F" stroke-miterlimit="10" stroke-linecap="round" stroke-linejoin="round"/>
<path d="M33.6205 37.1753V27.3317V37.1753Z" stroke="#E65497" stroke-miterlimit="10" stroke-linecap="round" stroke-linejoin="round"/>
<path d="M22.1649 30.6996H33.6205H22.1649Z" stroke="#E65497" stroke-miterlimit="10" stroke-linecap="round" stroke-linejoin="round"/>
<path d="M35.0811 38.0007L18.2899 28.5106C17.6849 27.9056 19.4833 25.1268 22.3055 22.3053C25.1277 19.4831 27.9058 17.6854 28.5108 18.2897L37.9998 35.081L35.0811 38.0007Z" stroke="#0F0F0F" stroke-miterlimit="10" stroke-linecap="round" stroke-linejoin="round"/>
</svg>
