<svg width="40" height="40" viewBox="0 0 40 40" fill="none" xmlns="http://www.w3.org/2000/svg">
<path d="M8.99996 27.9998H4.99951V30.0007H8.99996V27.9998Z" stroke="#0F0F0F" stroke-miterlimit="10" stroke-linecap="round" stroke-linejoin="round"/>
<path d="M8.99996 24C8.99996 24.5506 8.54937 25.0005 7.99948 25.0005H5.99999C5.45016 25.0005 4.99951 24.5506 4.99951 24V22.0005C4.99951 21.45 5.45011 20.9994 5.99999 20.9994H7.99948C8.54931 20.9994 8.99996 21.45 8.99996 22.0005V24Z" stroke="#0F0F0F" stroke-miterlimit="10" stroke-linecap="round" stroke-linejoin="round"/>
<path d="M14.9999 27.9998H10.9995V30.0007H14.9999V27.9998Z" stroke="#0F0F0F" stroke-miterlimit="10" stroke-linecap="round" stroke-linejoin="round"/>
<path d="M20.9998 27.9998H16.9994V30.0007H20.9998V27.9998Z" stroke="#0F0F0F" stroke-miterlimit="10" stroke-linecap="round" stroke-linejoin="round"/>
<path d="M26.9998 27.9998H22.9994V30.0007H26.9998V27.9998Z" stroke="#0F0F0F" stroke-miterlimit="10" stroke-linecap="round" stroke-linejoin="round"/>
<path d="M26.9997 32.9993H18.9989V33.9998H26.9997V32.9993Z" stroke="#0F0F0F" stroke-miterlimit="10" stroke-linecap="round" stroke-linejoin="round"/>
<path d="M28.9993 35.0009C28.9993 36.1006 28.0995 37.0005 26.9998 37.0005H4.99955C3.8999 37.0005 3 36.1006 3 35.0009V20.9994C3 19.8998 3.89984 18.9999 4.99955 18.9999H26.9998C28.0994 18.9999 28.9993 19.8997 28.9993 20.9994V35.0009Z" stroke="#0F0F0F" stroke-miterlimit="10" stroke-linecap="round" stroke-linejoin="round"/>
<path d="M23.9999 21.0001C25.6563 21.0001 26.9998 21.8062 26.9998 22.8012C26.9998 23.7948 25.6562 24.6002 23.9999 24.6002C22.3421 24.6002 20.9999 23.7947 20.9999 22.8012C20.9999 21.8062 22.3421 21.0001 23.9999 21.0001Z" stroke="#0F0F0F" stroke-miterlimit="10" stroke-linecap="round" stroke-linejoin="round"/>
<path d="M4.99951 32.0002H16.9993H4.99951Z" stroke="#0F0F0F" stroke-miterlimit="10" stroke-linecap="round" stroke-linejoin="round"/>
<path d="M4.99951 33.9997H13.0004H4.99951Z" stroke="#0F0F0F" stroke-miterlimit="10" stroke-linecap="round" stroke-linejoin="round"/>
<path d="M15.3086 13.9212L11.6127 12.3909L12.3789 10.5422L16.0734 12.0739L15.3086 13.9212Z" stroke="#0F0F0F" stroke-miterlimit="10" stroke-linecap="round" stroke-linejoin="round"/>
<path d="M20.851 16.217L17.1565 14.6874L17.9214 12.8387L21.6172 14.3697L20.851 16.217Z" stroke="#0F0F0F" stroke-miterlimit="10" stroke-linecap="round" stroke-linejoin="round"/>
<path d="M10.848 14.2375L18.9357 17.5881L10.848 14.2375Z" stroke="#0F0F0F" stroke-miterlimit="10" stroke-linecap="round" stroke-linejoin="round"/>
<path d="M10.0817 16.0861L13.6259 17.5536L10.0817 16.0861Z" stroke="#0F0F0F" stroke-miterlimit="10" stroke-linecap="round" stroke-linejoin="round"/>
<path d="M35.3175 17.8796L11.2957 7.92881L12.8267 4.23361L36.8485 14.183L35.3175 17.8796Z" stroke="#E65497" stroke-miterlimit="10" stroke-linecap="round" stroke-linejoin="round"/>
<path d="M29.9323 17.8134C28.4013 17.1788 26.8525 17.4097 26.4721 18.3282C26.3852 18.539 26.3742 18.7664 26.4155 19H26.9998C28.0995 19 28.9994 19.8998 28.9994 20.9995V21.293C30.3746 21.7161 31.6714 21.4549 32.0145 20.6253C32.3948 19.7062 31.4632 18.4473 29.9323 17.8134Z" stroke="#0F0F0F" stroke-miterlimit="10" stroke-linecap="round" stroke-linejoin="round"/>
<path d="M35.7654 11.5703L15.4394 3.1519C14.4238 2.73161 13.2484 3.21732 12.8267 4.2336L7.46891 17.1685C7.2126 17.7893 7.29664 18.468 7.63153 18.9999H26.9997C28.0994 18.9999 28.9993 19.8997 28.9993 20.9994V28.2361C29.9859 28.5724 31.0856 28.0935 31.4908 27.1179L36.8486 14.183C37.2688 13.1674 36.7824 11.992 35.7654 11.5703Z" stroke="#0F0F0F" stroke-miterlimit="10" stroke-linecap="round" stroke-linejoin="round"/>
</svg>
