<svg width="44" height="30" viewBox="0 0 44 30" fill="none" xmlns="http://www.w3.org/2000/svg">
<rect width="43.75" height="30" fill="white"/>
<path fill-rule="evenodd" clip-rule="evenodd" d="M18.805 23.0603L19.089 21.2489L18.4563 21.2341H15.4351L17.5347 7.86709C17.5413 7.82662 17.5624 7.78904 17.5933 7.76231C17.6243 7.73558 17.6639 7.72092 17.7052 7.72092H22.7995C24.4909 7.72092 25.658 8.07421 26.2673 8.77164C26.553 9.09881 26.7349 9.44081 26.823 9.81701C26.9153 10.2119 26.9168 10.6835 26.8268 11.2589L26.8202 11.3008V11.6695L27.1059 11.832C27.3464 11.9602 27.5377 12.1068 27.6843 12.2747C27.9286 12.5545 28.0867 12.9101 28.1535 13.3315C28.2225 13.765 28.1997 14.2809 28.0867 14.865C27.9563 15.5368 27.7456 16.122 27.461 16.6007C27.1993 17.0418 26.8659 17.4077 26.4699 17.6912C26.0919 17.9607 25.6428 18.1652 25.135 18.2961C24.6428 18.4247 24.0818 18.4896 23.4664 18.4896H23.07C22.7866 18.4896 22.5112 18.5921 22.2951 18.7759C22.0783 18.9634 21.935 19.2197 21.891 19.5L21.8611 19.6632L21.3592 22.856L21.3365 22.9731C21.3304 23.0102 21.3201 23.0287 21.3049 23.0412C21.2913 23.0527 21.2719 23.0603 21.2529 23.0603H18.805Z" fill="#28356A"/>
<path fill-rule="evenodd" clip-rule="evenodd" d="M27.3767 11.3433C27.3617 11.4409 27.3442 11.5407 27.3247 11.6432C26.6529 15.1065 24.3544 16.3029 21.419 16.3029H19.9243C19.5653 16.3029 19.2627 16.5645 19.2069 16.9201L18.2249 23.1742C18.1886 23.4078 18.3678 23.6181 18.6023 23.6181H21.2533C21.5671 23.6181 21.8338 23.3891 21.8833 23.0783L21.9093 22.9431L22.4084 19.7628L22.4405 19.5884C22.4893 19.2765 22.7566 19.0474 23.0705 19.0474H23.4669C26.0353 19.0474 28.0459 18.0005 28.6336 14.9707C28.879 13.705 28.752 12.6482 28.1024 11.905C27.9058 11.6809 27.662 11.4948 27.3767 11.3433Z" fill="#298FC2"/>
<path fill-rule="evenodd" clip-rule="evenodd" d="M26.6737 11.062C26.571 11.032 26.4651 11.0048 26.3565 10.9802C26.2473 10.9562 26.1355 10.935 26.0203 10.9163C25.6173 10.851 25.1757 10.8199 24.7027 10.8199H20.7099C20.6114 10.8199 20.518 10.8422 20.4345 10.8826C20.2503 10.9715 20.1135 11.1465 20.0804 11.3608L19.2309 16.7627L19.2065 16.9202C19.2624 16.5646 19.565 16.303 19.924 16.303H21.4186C24.3541 16.303 26.6525 15.1059 27.3243 11.6432C27.3444 11.5407 27.3613 11.441 27.3764 11.3434C27.2064 11.2528 27.0224 11.1754 26.8241 11.1094C26.7752 11.0931 26.7247 11.0773 26.6737 11.062Z" fill="#22284F"/>
<path fill-rule="evenodd" clip-rule="evenodd" d="M20.0805 11.3608C20.1137 11.1465 20.2505 10.9715 20.4347 10.8832C20.5188 10.8427 20.6116 10.8204 20.71 10.8204H24.7029C25.1759 10.8204 25.6175 10.8516 26.0205 10.9169C26.1356 10.9354 26.2475 10.9568 26.3567 10.9808C26.4653 11.0052 26.5712 11.0326 26.6739 11.0625C26.7248 11.0778 26.7753 11.0937 26.8248 11.1094C27.023 11.1754 27.2072 11.2534 27.3772 11.3434C27.577 10.0636 27.3755 9.19216 26.6863 8.40309C25.9265 7.53428 24.5552 7.16251 22.8004 7.16251H17.706C17.3476 7.16251 17.0418 7.42416 16.9864 7.78035L14.8646 21.2848C14.8227 21.552 15.0279 21.793 15.2963 21.793H18.4414L20.0805 11.3608Z" fill="#28356A"/>
</svg>
