<svg width="45" height="30" viewBox="0 0 45 30" fill="none" xmlns="http://www.w3.org/2000/svg">
<rect x="0.5" width="43.75" height="30" fill="white"/>
<path fill-rule="evenodd" clip-rule="evenodd" d="M13 14.4592C13 19.2992 16.9472 23.2464 21.8342 23.2464C22.434 23.2464 23.0338 23.1938 23.723 23.1335C24.4916 23.0662 25.3714 22.9892 26.4862 22.9644C28.1779 22.9644 30.0105 23.5753 32.0311 25.3609C32.219 25.5489 32.501 25.3139 32.313 25.079C30.2924 22.5885 28.4598 22.1186 26.6272 21.6957C24.3717 21.1788 23.1969 19.957 22.3981 18.5473C22.2571 18.2654 22.1631 18.3124 22.1631 18.6883C22.1161 19.2522 22.1631 19.7691 22.2571 20.286H21.9751C18.7798 20.286 16.1484 17.6545 16.1484 14.4592C16.1484 11.2638 18.7798 8.63238 21.9751 8.63238C25.1705 8.63238 27.8019 11.2638 27.8019 14.4592C27.8019 14.6471 27.8019 14.8821 27.755 15.117C27.2851 15.0231 26.4862 15.0231 25.8753 15.0701C25.6404 15.0701 25.6404 15.164 25.8284 15.211C27.708 15.5869 29.0237 16.7617 29.3526 18.9233C29.3526 19.0172 29.3996 19.0172 29.4466 18.9702C30.1985 17.6545 30.6684 16.1038 30.6684 14.4592C30.6684 9.57219 26.7212 5.625 21.8342 5.625C16.9472 5.625 13 9.61918 13 14.4592ZM28.2248 18.0774C28.5537 18.2184 28.6947 18.6883 28.6947 18.9233C28.7417 19.2992 28.6477 19.4872 28.5067 19.4872C28.3658 19.4872 28.1778 19.3462 27.9898 19.0172C27.8019 18.6883 27.7079 18.3594 27.8019 18.1714C27.9429 18.0774 28.0838 18.0304 28.2248 18.0774ZM26.2982 19.5341C26.4862 19.5341 26.7211 19.6281 26.9561 19.8161C27.332 20.145 27.473 20.5209 27.285 20.8029C27.191 20.9439 26.9561 21.0378 26.7681 21.0378C26.5332 21.0378 26.2982 20.9439 26.1572 20.8029C25.7813 20.474 25.6873 20.0041 25.9223 19.7221C25.9693 19.6281 26.1102 19.5341 26.2982 19.5341Z" fill="#F28A1A"/>
</svg>
