<svg width="0" height="0" class="hidden">
    <symbol id="icon-arrow_left-green" width="15" height="15" viewBox="0 0 15 15" fill="none" xmlns="http://www.w3.org/2000/svg">
        <path d="M1.5 7.5L5.5 11.5M1.5 7.5L5.5 3.5M1.5 7.5L14 7.5" stroke="#448370" />
    </symbol>
    <symbol id="icon-return" width="9" height="11" viewBox="0 0 9 11" fill="none" xmlns="http://www.w3.org/2000/svg">
        <path d="M3.5 3.07693L3.0854 2.79746L2.89701 3.07693L3.0854 3.35641L3.5 3.07693ZM4.5 2.57693H4V3.57693H4.5V2.57693ZM1.5 6.51652V6.01652H0.5V6.51652H1.5ZM4.4854 0.720543L3.0854 2.79746L3.9146 3.35641L5.3146 1.27949L4.4854 0.720543ZM3.0854 3.35641L4.4854 5.43333L5.3146 4.87438L3.9146 2.79746L3.0854 3.35641ZM4.5 3.57693C6.17112 3.57693 7.5 4.84117 7.5 6.51652H8.5C8.5 4.25999 6.69405 2.57693 4.5 2.57693V3.57693ZM7.5 6.51652C7.5 8.21442 6.14841 9.57693 4.5 9.57693V10.5769C6.71676 10.5769 8.5 8.7505 8.5 6.51652H7.5ZM4.5 9.57693C2.85159 9.57693 1.5 8.21442 1.5 6.51652H0.5C0.5 8.7505 2.28324 10.5769 4.5 10.5769V9.57693Z" fill="#448370"/>
    </symbol>
    <symbol id="icon-delete" width="15" height="15" viewBox="0 0 15 15" fill="none" xmlns="http://www.w3.org/2000/svg">
        <path d="M4.5 4.5L10.5 10.5M4.5 10.5L10.5 4.5" stroke="#0F0F0F"/>
    </symbol>
    <symbol id="icon-present" width="30" height="30" viewBox="0 0 30 30" fill="none" xmlns="http://www.w3.org/2000/svg">
        <path d="M15.0002 5.4C15.0002 3.24486 13.2545 1.5 11.1004 1.5C8.94553 1.5 7.2002 3.24681 7.2002 5.40039C7.2002 7.55358 8.94631 9.29922 11.1004 9.29922L15.0002 9.3V5.4Z" stroke="#E65497" stroke-miterlimit="10" stroke-linecap="round" stroke-linejoin="round"/>
        <path d="M18.9002 9.3C21.0547 9.3 22.8 7.55419 22.8 5.39922C22.8 3.24503 21.0535 1.5 18.9002 1.5C16.7469 1.5 15 3.24542 15 5.39922V9.3H18.9002Z" stroke="#E65497" stroke-miterlimit="10" stroke-linecap="round" stroke-linejoin="round"/>
        <path d="M24.5999 13.2H5.3999V28.5H24.5999V13.2Z" stroke="#0F0F0F" stroke-miterlimit="10" stroke-linecap="round" stroke-linejoin="round"/>
        <path d="M26.6998 9.3H3.2998V13.2H26.6998V9.3Z" stroke="#0F0F0F" stroke-miterlimit="10" stroke-linecap="round" stroke-linejoin="round"/>
        <path d="M18 13.2H12V28.5H18V13.2Z" stroke="#0F0F0F" stroke-miterlimit="10" stroke-linecap="round" stroke-linejoin="round"/>
    </symbol>
    <symbol id="icon-calendar" width="15" height="15" viewBox="0 0 15 15" fill="none" xmlns="http://www.w3.org/2000/svg">
        <path d="M3.5 0V5M11.5 0V5M3 7.5H6M12 7.5H9M3 10.5H6M9 10.5H12M1.5 2.5H13.5C14.0523 2.5 14.5 2.94772 14.5 3.5V13.5C14.5 14.0523 14.0523 14.5 13.5 14.5H1.5C0.947716 14.5 0.5 14.0523 0.5 13.5V3.5C0.5 2.94772 0.947715 2.5 1.5 2.5Z" stroke="#448370"/>
    </symbol>
    <symbol id="icon-image" width="15" height="15" viewBox="0 0 15 15" fill="none" xmlns="http://www.w3.org/2000/svg">
        <path d="M4.5 3.5L4.85355 3.14645C4.65829 2.95118 4.34171 2.95118 4.14645 3.14645L4.5 3.5ZM1.5 1H13.5V0H1.5V1ZM14 1.5V13.5H15V1.5H14ZM13.5 14H1.5V15H13.5V14ZM1 13.5V1.5H0V13.5H1ZM1.5 14C1.22386 14 1 13.7761 1 13.5H0C0 14.3284 0.671573 15 1.5 15V14ZM14 13.5C14 13.7761 13.7761 14 13.5 14V15C14.3284 15 15 14.3284 15 13.5H14ZM13.5 1C13.7761 1 14 1.22386 14 1.5H15C15 0.671573 14.3284 0 13.5 0V1ZM1.5 0C0.671573 0 0 0.671574 0 1.5H1C1 1.22386 1.22386 1 1.5 1V0ZM0.5 11H14.5V10H0.5V11ZM0.853553 7.85355L4.85355 3.85355L4.14645 3.14645L0.146447 7.14645L0.853553 7.85355ZM4.14645 3.85355L11.1464 10.8536L11.8536 10.1464L4.85355 3.14645L4.14645 3.85355ZM10.5 5C10.2239 5 10 4.77614 10 4.5H9C9 5.32843 9.67157 6 10.5 6V5ZM11 4.5C11 4.77614 10.7761 5 10.5 5V6C11.3284 6 12 5.32843 12 4.5H11ZM10.5 4C10.7761 4 11 4.22386 11 4.5H12C12 3.67157 11.3284 3 10.5 3V4ZM10.5 3C9.67157 3 9 3.67157 9 4.5H10C10 4.22386 10.2239 4 10.5 4V3Z" fill="#AEAEAE"/>
    </symbol>
    <symbol id="icon-inst_footer" width="17" height="17" viewBox="0 0 17 17" fill="none" xmlns="http://www.w3.org/2000/svg">
        <path d="M14.5808 0H2.41923C1.04615 0 0 1.04615 0 2.41923V14.5808C0 15.9538 1.04615 17 2.41923 17H14.5808C15.9538 17 17 15.9538 17 14.5808V2.41923C17 1.04615 15.9538 0 14.5808 0ZM8.5 13.6C11.3115 13.6 13.6 11.3769 13.6 8.69615C13.6 8.23846 13.5346 7.71538 13.4038 7.32308H14.8423V14.2538C14.8423 14.5808 14.5808 14.9077 14.1885 14.9077H2.81154C2.48462 14.9077 2.15769 14.6462 2.15769 14.2538V7.25769H3.66154C3.53077 7.71538 3.46539 8.17308 3.46539 8.63077C3.4 11.3769 5.68846 13.6 8.5 13.6ZM8.5 11.6385C6.66923 11.6385 5.23077 10.2 5.23077 8.43462C5.23077 6.66923 6.66923 5.23077 8.5 5.23077C10.3308 5.23077 11.7692 6.66923 11.7692 8.43462C11.7692 10.2654 10.3308 11.6385 8.5 11.6385ZM14.7769 4.64231C14.7769 5.03461 14.45 5.36154 14.0577 5.36154H12.2269C11.8346 5.36154 11.5077 5.03461 11.5077 4.64231V2.87692C11.5077 2.48462 11.8346 2.15769 12.2269 2.15769H14.0577C14.45 2.15769 14.7769 2.48462 14.7769 2.87692V4.64231Z" fill="url(#paint0_linear)"/>
        <defs>
            <linearGradient id="paint0_linear" x1="3.6125" y1="15.0875" x2="14.875" y2="3.4" gradientUnits="userSpaceOnUse">
            <stop stop-color="#EEA054"/>
            <stop offset="0.502762" stop-color="#D64763"/>
            <stop offset="1" stop-color="#B62A99"/>
            </linearGradient>
        </defs>
    </symbol>
    <symbol id="icon-vk_footer" width="21" height="13" viewBox="0 0 21 13" fill="none" xmlns="http://www.w3.org/2000/svg">
        <path d="M20.8061 11.1153C20.8061 11.0322 20.7231 11.0322 20.7231 10.9492C20.391 10.285 19.6438 9.4548 18.6475 8.54155C18.1494 8.12644 17.9003 7.79434 17.7343 7.62829C17.4852 7.2962 17.4852 7.04714 17.5683 6.71505C17.6513 6.46598 17.9834 6.05086 18.5645 5.30365C18.8966 4.88853 19.0626 4.63947 19.3117 4.3904C20.5571 2.72995 21.1382 1.65064 20.9722 1.1525L20.8892 1.06949C20.8061 0.986464 20.7231 0.903444 20.5571 0.903444C20.391 0.820421 20.142 0.820421 19.8929 0.903444H16.738C16.655 0.903444 16.655 0.903444 16.4889 0.903444C16.4059 0.903444 16.3229 0.903444 16.3229 0.903444H16.2399H16.1569L16.0738 0.986459C15.9908 1.06948 15.9908 1.06948 15.9908 1.1525C15.6587 2.06575 15.2436 2.81296 14.8285 3.64319C14.5794 4.05831 14.3303 4.47343 14.0813 4.80552C13.8322 5.13761 13.6662 5.38667 13.5001 5.55272C13.3341 5.71877 13.168 5.80179 13.085 5.96783C13.002 6.05086 12.8359 6.13389 12.8359 6.05086C12.7529 6.05086 12.6699 6.05086 12.6699 5.96783C12.5869 5.88481 12.5038 5.80179 12.4208 5.71876C12.3378 5.63574 12.3378 5.46969 12.2548 5.30365C12.2548 5.1376 12.2548 4.97156 12.2548 4.88853C12.2548 4.80551 12.2548 4.55645 12.2548 4.3904C12.2548 4.14134 12.2548 3.97528 12.2548 3.89226C12.2548 3.64319 12.2548 3.31111 12.2548 2.97902C12.2548 2.64693 12.2548 2.39785 12.2548 2.2318C12.2548 2.06576 12.2548 1.81669 12.2548 1.65065C12.2548 1.40158 12.2548 1.23553 12.2548 1.1525C12.2548 1.06948 12.1718 0.903439 12.1718 0.820416C12.0887 0.737393 12.0057 0.654367 11.9227 0.571344C11.8397 0.488322 11.6736 0.488324 11.5906 0.405301C11.1755 0.322278 10.6773 0.239258 10.0962 0.239258C8.76782 0.239258 7.85456 0.322283 7.52247 0.488329C7.35643 0.571352 7.19038 0.65437 7.10736 0.820416C6.94131 0.986462 6.94131 1.06949 7.02433 1.06949C7.43944 1.15251 7.77154 1.31855 7.93759 1.56762L8.02061 1.73367C8.10364 1.8167 8.10362 1.98273 8.18664 2.2318C8.26967 2.48087 8.26967 2.72994 8.26967 3.06203C8.26967 3.56017 8.26967 4.05831 8.26967 4.3904C8.26967 4.80552 8.18664 5.05458 8.18664 5.30365C8.18664 5.55272 8.10364 5.71877 8.02061 5.80179C7.93759 5.96784 7.93758 6.05086 7.85456 6.05086C7.85456 6.05086 7.85455 6.13388 7.77153 6.13388C7.68851 6.13388 7.60549 6.21691 7.43944 6.21691C7.35642 6.21691 7.19038 6.13389 7.10736 6.05086C6.94131 5.96784 6.77526 5.80179 6.69224 5.63575C6.5262 5.4697 6.36015 5.22063 6.1941 4.88853C6.02805 4.55644 5.77897 4.22436 5.61293 3.72622L5.4469 3.39413C5.36387 3.22809 5.19783 2.89599 5.03178 2.48087C4.86574 2.06576 4.69969 1.73367 4.53364 1.31856C4.45062 1.15251 4.3676 1.06948 4.28458 0.986459H4.20155C4.20155 0.986459 4.11852 0.903444 4.0355 0.903444C3.95248 0.903444 3.86946 0.820416 3.78644 0.820416H0.797609C0.465517 0.820416 0.299474 0.903436 0.216451 0.986459L0.133423 1.06949C0.133423 1.06949 0.133423 1.15251 0.133423 1.23553C0.133423 1.31855 0.133428 1.40157 0.216451 1.56762C0.631565 2.56389 1.1297 3.56017 1.62784 4.55645C2.12598 5.4697 2.62412 6.29993 2.95621 6.88109C3.37132 7.46225 3.70341 8.04341 4.11853 8.54155C4.53364 9.03969 4.7827 9.37178 4.86573 9.53782C5.03177 9.70387 5.11479 9.78689 5.19781 9.86991L5.4469 10.119C5.61294 10.285 5.86201 10.5341 6.1941 10.7832C6.52619 11.0322 6.9413 11.2813 7.35642 11.5304C7.77153 11.7794 8.26968 11.9455 8.76781 12.1115C9.34898 12.2776 9.84711 12.3606 10.3452 12.2776H11.5906C11.8397 12.2776 12.0057 12.1946 12.1718 12.0285L12.2548 11.9455C12.2548 11.8625 12.3378 11.8625 12.3378 11.7794C12.3378 11.6964 12.3378 11.6134 12.3378 11.4474C12.3378 11.1153 12.3378 10.8662 12.4208 10.6171C12.5038 10.3681 12.5039 10.202 12.5869 10.036C12.6699 9.86992 12.7529 9.78689 12.8359 9.70387C12.919 9.62084 13.002 9.53782 13.002 9.53782H13.085C13.251 9.4548 13.5001 9.53782 13.6662 9.70387C13.9152 9.86991 14.1643 10.119 14.3303 10.3681C14.4964 10.6171 14.7455 10.8662 15.0776 11.1983C15.4097 11.5304 15.6587 11.7794 15.8248 11.8625L16.0738 12.0285C16.2399 12.1115 16.4059 12.1946 16.655 12.2776C16.9041 12.3606 17.0701 12.3606 17.2361 12.3606L20.0589 12.2776C20.308 12.2776 20.5571 12.1946 20.7231 12.1115C20.8892 12.0285 20.9722 11.9455 20.9722 11.7794C20.9722 11.6964 20.9722 11.5304 20.9722 11.4474C20.8061 11.2813 20.8061 11.1983 20.8061 11.1153Z" fill="#7294C7"/>
    </symbol>
    <symbol id="icon-vk_header" viewBox="0 0 8 5" fill="none" xmlns="http://www.w3.org/2000/svg">
        <path d="M7.86482 4.41828C7.86482 4.38715 7.83368 4.38715 7.83368 4.35602C7.70915 4.10695 7.42895 3.79561 7.05534 3.45314C6.86854 3.29747 6.77514 3.17294 6.71287 3.11067C6.61947 2.98614 6.61948 2.89274 6.65061 2.7682C6.68174 2.6748 6.80627 2.51913 7.02421 2.23893C7.14874 2.08326 7.21101 1.98986 7.30441 1.89646C7.77141 1.27379 7.98935 0.869051 7.92708 0.682249L7.89595 0.651119C7.86482 0.619985 7.83368 0.588852 7.77141 0.588852C7.70914 0.557719 7.61575 0.557719 7.52235 0.588852H6.33927C6.30814 0.588852 6.30813 0.588852 6.24587 0.588852C6.21473 0.588852 6.18361 0.588852 6.18361 0.588852H6.15247H6.12133L6.0902 0.619983C6.05907 0.651117 6.05906 0.651116 6.05906 0.682249C5.93453 1.02472 5.77886 1.30492 5.62319 1.61626C5.52979 1.77193 5.4364 1.9276 5.34299 2.05213C5.24959 2.17666 5.18732 2.27006 5.12506 2.33233C5.06279 2.3946 5.00052 2.42573 4.96939 2.488C4.93825 2.51913 4.87599 2.55027 4.87599 2.51913C4.84486 2.51913 4.81372 2.51913 4.81372 2.488C4.78259 2.45687 4.75146 2.42573 4.72032 2.3946C4.68919 2.36346 4.68918 2.3012 4.65805 2.23893C4.65805 2.17666 4.65805 2.11439 4.65805 2.08326C4.65805 2.05213 4.65805 1.95873 4.65805 1.89646C4.65805 1.80306 4.65805 1.74079 4.65805 1.70966C4.65805 1.61626 4.65805 1.49173 4.65805 1.36719C4.65805 1.24266 4.65805 1.14925 4.65805 1.08699C4.65805 1.02472 4.65805 0.93132 4.65805 0.869053C4.65805 0.775652 4.65805 0.713383 4.65805 0.682249C4.65805 0.651116 4.62693 0.588851 4.62693 0.557717C4.59579 0.526583 4.56465 0.495449 4.53352 0.464315C4.50239 0.433182 4.44012 0.433183 4.40899 0.402049C4.25332 0.370915 4.06652 0.339783 3.84859 0.339783C3.35045 0.339783 3.00798 0.370917 2.88344 0.433184C2.82117 0.464318 2.75891 0.49545 2.72777 0.557717C2.66551 0.619984 2.6655 0.651119 2.69664 0.651119C2.85231 0.682252 2.97684 0.744517 3.03911 0.837917L3.07025 0.900188C3.10138 0.931322 3.10137 0.993586 3.13251 1.08699C3.16364 1.18039 3.16364 1.27379 3.16364 1.39832C3.16364 1.58512 3.16364 1.77193 3.16364 1.89646C3.16364 2.05213 3.13251 2.14553 3.13251 2.23893C3.13251 2.33233 3.10138 2.3946 3.07025 2.42573C3.03911 2.488 3.03911 2.51913 3.00797 2.51913C3.00797 2.51913 3.00797 2.55027 2.97684 2.55027C2.94571 2.55027 2.91457 2.5814 2.85231 2.5814C2.82117 2.5814 2.75891 2.55027 2.72777 2.51913C2.66551 2.488 2.60324 2.42573 2.57211 2.36347C2.50984 2.3012 2.44757 2.2078 2.3853 2.08326C2.32304 1.95873 2.22963 1.83419 2.16736 1.64739L2.1051 1.52286C2.07397 1.46059 2.0117 1.33606 1.94943 1.18039C1.88717 1.02472 1.8249 0.900188 1.76263 0.74452C1.7315 0.682253 1.70037 0.651117 1.66923 0.619983H1.6381C1.6381 0.619983 1.60696 0.588852 1.57583 0.588852C1.54469 0.588852 1.51356 0.557717 1.48243 0.557717H0.361619C0.237084 0.557717 0.174818 0.58885 0.143684 0.619983L0.112549 0.651119C0.112549 0.651119 0.112549 0.682251 0.112549 0.713385C0.112549 0.744519 0.112551 0.77565 0.143684 0.837917C0.299352 1.21152 0.486153 1.58513 0.672955 1.95873C0.859756 2.3012 1.04656 2.61254 1.17109 2.83047C1.32676 3.04841 1.45129 3.26634 1.60696 3.45314C1.76263 3.63994 1.85603 3.76448 1.88716 3.82674C1.94943 3.88901 1.98056 3.92014 2.0117 3.95128L2.1051 4.04468C2.16737 4.10695 2.26077 4.20035 2.3853 4.29375C2.50984 4.38715 2.6655 4.48055 2.82117 4.57395C2.97684 4.66735 3.16364 4.72962 3.35045 4.79189C3.56838 4.85416 3.75518 4.88529 3.94198 4.85415H4.40899C4.50239 4.85415 4.56466 4.82302 4.62693 4.76075L4.65805 4.72962C4.65805 4.69848 4.68919 4.69848 4.68919 4.66735C4.68919 4.63622 4.68919 4.60509 4.68919 4.54282C4.68919 4.41828 4.68919 4.32488 4.72032 4.23148C4.75146 4.13808 4.75146 4.07582 4.78259 4.01355C4.81373 3.95128 4.84486 3.92014 4.87599 3.88901C4.90712 3.85788 4.93826 3.82674 4.93826 3.82674H4.96939C5.03165 3.79561 5.12506 3.82674 5.18733 3.88901C5.28073 3.95128 5.37412 4.04468 5.43639 4.13808C5.49866 4.23148 5.59207 4.32488 5.7166 4.44942C5.84114 4.57395 5.93453 4.66735 5.9968 4.69849L6.0902 4.76075C6.15247 4.79189 6.21474 4.82302 6.30814 4.85415C6.40154 4.88529 6.4638 4.88529 6.52607 4.88529L7.58462 4.85415C7.67802 4.85415 7.77141 4.82302 7.83368 4.79189C7.89595 4.76075 7.92708 4.72962 7.92708 4.66735C7.92708 4.63622 7.92708 4.57395 7.92708 4.54282C7.86481 4.48055 7.86482 4.44941 7.86482 4.41828Z" fill="white"/>
    </symbol>
    <symbol id="icon-inst_header" viewBox="0 0 7 7" fill="none" xmlns="http://www.w3.org/2000/svg">
        <path d="M5.96779 0.5H1.40721C0.892307 0.5 0.5 0.892308 0.5 1.40721V5.96779C0.5 6.48269 0.892307 6.875 1.40721 6.875H5.96779C6.48269 6.875 6.875 6.48269 6.875 5.96779V1.40721C6.875 0.892308 6.48269 0.5 5.96779 0.5ZM3.6875 5.6C4.74183 5.6 5.6 4.76635 5.6 3.76106C5.6 3.58942 5.57548 3.39327 5.52644 3.24615H6.06586V5.84519C6.06586 5.96779 5.96779 6.09038 5.82067 6.09038H1.55433C1.43173 6.09038 1.30914 5.99231 1.30914 5.84519V3.22163H1.87308C1.82404 3.39327 1.79952 3.5649 1.79952 3.73654C1.775 4.76635 2.63317 5.6 3.6875 5.6ZM3.6875 4.86442C3.00096 4.86442 2.46154 4.325 2.46154 3.66298C2.46154 3.00096 3.00096 2.46154 3.6875 2.46154C4.37404 2.46154 4.91346 3.00096 4.91346 3.66298C4.91346 4.34952 4.37404 4.86442 3.6875 4.86442ZM6.04135 2.24086C6.04135 2.38798 5.91875 2.51058 5.77163 2.51058H5.0851C4.93798 2.51058 4.81539 2.38798 4.81539 2.24086V1.57885C4.81539 1.43173 4.93798 1.30913 5.0851 1.30913H5.77163C5.91875 1.30913 6.04135 1.43173 6.04135 1.57885V2.24086Z" fill="white"/>
    </symbol>
    <symbol id="icon-bouquet" viewbox="0 0 40 40" fill="none" xmlns="http://www.w3.org/2000/svg">
        <path
            d="M17.5595 11.3638C19.271 13.0746 19.271 15.8492 17.5595 17.5601C16.9945 18.1244 16.3138 18.4992 15.5944 18.6908C15.9831 17.23 15.6082 15.6067 14.4631 14.4616C12.753 12.7515 12.753 9.9768 14.4631 8.2667L15.7447 6.98445C15.746 8.57054 16.3497 10.156 17.5596 11.3652V11.3638H17.5595Z"
            stroke="#0F0F0F" stroke-miterlimit="10" stroke-linecap="round"
            stroke-linejoin="round" />
        <path
            d="M11.3639 17.5601C10.1561 16.3509 8.57132 15.7459 6.98523 15.7445L8.2668 14.4629C9.97696 12.7528 12.7516 12.7528 14.4617 14.4629L14.4631 14.4616C15.6082 15.6067 15.983 17.23 15.5944 18.6907C14.1324 19.0807 12.5104 18.7059 11.3639 17.5601Z"
            stroke="#0F0F0F" stroke-miterlimit="10" stroke-linecap="round"
            stroke-linejoin="round" />
        <path
            d="M8.95575 13.9006C7.87952 11.8529 7.3407 9.59641 7.3407 7.33987C9.59656 7.33987 11.853 7.87869 13.9009 8.95492C12.7791 10.6554 12.9665 12.965 14.463 14.4615L14.4617 14.4629C12.9651 12.9664 10.6562 12.779 8.95575 13.9006Z"
            stroke="#0F0F0F" stroke-miterlimit="10" stroke-linecap="round"
            stroke-linejoin="round" />
        <path d="M17.5594 17.5593L24.4951 24.4936L17.5594 17.5593Z" stroke="#0F0F0F"
            stroke-miterlimit="10" stroke-linecap="round" stroke-linejoin="round" />
        <path
            d="M12.0721 20.4808C14.4919 20.4801 16.4529 22.4417 16.4529 24.8616C16.4529 25.6602 16.2365 26.4071 15.8616 27.0512C15.1037 25.7428 13.6926 24.8609 12.072 24.8602C9.6543 24.8616 7.69336 22.8993 7.69336 20.4808V18.668C8.81508 19.7877 10.364 20.4808 12.072 20.4822V20.4808H12.0721Z"
            stroke="#0F0F0F" stroke-miterlimit="10" stroke-linecap="round"
            stroke-linejoin="round" />
        <path
            d="M12.0721 29.2423C10.3627 29.243 8.81374 29.9369 7.69202 31.0558L7.69337 29.2437C7.69337 26.8239 9.65431 24.8622 12.0735 24.8622L12.0721 24.8602C13.6927 24.8609 15.1038 25.7428 15.8617 27.0512C15.1065 28.3611 13.6927 29.2423 12.0721 29.2423Z"
            stroke="#0F0F0F" stroke-miterlimit="10" stroke-linecap="round"
            stroke-linejoin="round" />
        <path
            d="M7.78304 28.359C5.57267 27.6713 3.5966 26.4559 2.00085 24.8616V24.8609C3.5966 23.2658 5.57272 22.0511 7.78168 21.3634C8.19096 23.3595 9.95762 24.8609 12.0722 24.8601L12.0736 24.8622C9.95762 24.8616 8.19096 26.363 7.78304 28.359Z"
            stroke="#0F0F0F" stroke-miterlimit="10" stroke-linecap="round"
            stroke-linejoin="round" />
        <path
            d="M20.481 12.0721C20.481 14.4912 22.4433 16.4528 24.8617 16.4528C25.661 16.4514 26.4079 16.2358 27.0514 15.861C25.7436 15.1037 24.8617 13.6912 24.8603 12.0721C24.8617 9.65359 22.9008 7.6913 20.481 7.6913H18.6688C19.7878 8.81438 20.4823 10.3626 20.4823 12.0721H20.481V12.0721Z"
            stroke="#0F0F0F" stroke-miterlimit="10" stroke-linecap="round"
            stroke-linejoin="round" />
        <path
            d="M29.2439 12.0721C29.2439 10.3619 29.937 8.81302 31.0574 7.6913H29.2439C26.8254 7.6913 24.8631 9.65359 24.8631 12.0728L24.8604 12.0721C24.8617 13.6912 25.7437 15.1037 27.0514 15.861C28.362 15.1058 29.2424 13.6919 29.2439 12.0721Z"
            stroke="#0F0F0F" stroke-miterlimit="10" stroke-linecap="round"
            stroke-linejoin="round" />
        <path
            d="M28.3605 7.78088C27.6715 5.57192 26.4575 3.59512 24.8617 1.99937C23.2674 3.5958 22.052 5.57192 21.3643 7.7802C23.3611 8.19016 24.8617 9.95681 24.8603 12.0721L24.8631 12.0728C24.8617 9.9554 26.3638 8.19016 28.3605 7.78088Z"
            stroke="#0F0F0F" stroke-miterlimit="10" stroke-linecap="round"
            stroke-linejoin="round" />
        <path
            d="M24.8617 16.4514V20.5813C24.8617 21.6452 25.0243 22.6705 25.322 23.6357C25.056 23.9203 24.7831 24.2069 24.4952 24.495C24.2085 24.7823 23.9219 25.0559 23.6367 25.3211C22.6721 25.0228 21.6468 24.8615 20.5829 24.8615H16.453H20.5829C21.6468 24.8615 22.6721 25.0227 23.6367 25.3211C23.9219 25.0559 24.2085 24.7823 24.4952 24.495C24.7832 24.2069 25.0561 23.9203 25.322 23.6357C25.0243 22.6704 24.8617 21.6451 24.8617 20.5813V16.4514Z"
            stroke="#0F0F0F" stroke-miterlimit="10" stroke-linecap="round"
            stroke-linejoin="round" />
        <path
            d="M28.5107 18.2897C29.1156 18.8947 27.3172 21.6728 24.495 24.495C21.6728 27.3165 18.8947 29.1149 18.2897 28.5107C17.6848 27.9056 19.4831 25.1269 22.3054 22.3054C25.1276 19.4831 27.9057 17.6854 28.5107 18.2897Z"
            stroke="#0F0F0F" stroke-miterlimit="10" stroke-linecap="round"
            stroke-linejoin="round" />
        <path d="M33.6205 37.1753V27.3317V37.1753Z" stroke="#E65497" stroke-miterlimit="10"
            stroke-linecap="round" stroke-linejoin="round" />
        <path d="M22.1649 30.6996H33.6205H22.1649Z" stroke="#E65497" stroke-miterlimit="10"
            stroke-linecap="round" stroke-linejoin="round" />
        <path
            d="M35.0811 38.0007L18.2899 28.5106C17.6849 27.9056 19.4833 25.1268 22.3055 22.3053C25.1277 19.4831 27.9058 17.6854 28.5108 18.2897L37.9998 35.081L35.0811 38.0007Z"
            stroke="#0F0F0F" stroke-miterlimit="10" stroke-linecap="round"
            stroke-linejoin="round" />
    </symbol>
    <symbol id="icon-cards" viewbox="0 0 40 40" fill="none" xmlns="http://www.w3.org/2000/svg">
        <path d="M8.99996 27.9998H4.99951V30.0007H8.99996V27.9998Z" stroke="#0F0F0F"
            stroke-miterlimit="10" stroke-linecap="round" stroke-linejoin="round" />
        <path
            d="M8.99996 24C8.99996 24.5506 8.54937 25.0005 7.99948 25.0005H5.99999C5.45016 25.0005 4.99951 24.5506 4.99951 24V22.0005C4.99951 21.45 5.45011 20.9994 5.99999 20.9994H7.99948C8.54931 20.9994 8.99996 21.45 8.99996 22.0005V24Z"
            stroke="#0F0F0F" stroke-miterlimit="10" stroke-linecap="round"
            stroke-linejoin="round" />
        <path d="M14.9999 27.9998H10.9995V30.0007H14.9999V27.9998Z" stroke="#0F0F0F"
            stroke-miterlimit="10" stroke-linecap="round" stroke-linejoin="round" />
        <path d="M20.9998 27.9998H16.9994V30.0007H20.9998V27.9998Z" stroke="#0F0F0F"
            stroke-miterlimit="10" stroke-linecap="round" stroke-linejoin="round" />
        <path d="M26.9998 27.9998H22.9994V30.0007H26.9998V27.9998Z" stroke="#0F0F0F"
            stroke-miterlimit="10" stroke-linecap="round" stroke-linejoin="round" />
        <path d="M26.9997 32.9993H18.9989V33.9998H26.9997V32.9993Z" stroke="#0F0F0F"
            stroke-miterlimit="10" stroke-linecap="round" stroke-linejoin="round" />
        <path
            d="M28.9993 35.0009C28.9993 36.1006 28.0995 37.0005 26.9998 37.0005H4.99955C3.8999 37.0005 3 36.1006 3 35.0009V20.9994C3 19.8998 3.89984 18.9999 4.99955 18.9999H26.9998C28.0994 18.9999 28.9993 19.8997 28.9993 20.9994V35.0009Z"
            stroke="#0F0F0F" stroke-miterlimit="10" stroke-linecap="round"
            stroke-linejoin="round" />
        <path
            d="M23.9999 21.0001C25.6563 21.0001 26.9998 21.8062 26.9998 22.8012C26.9998 23.7948 25.6562 24.6002 23.9999 24.6002C22.3421 24.6002 20.9999 23.7947 20.9999 22.8012C20.9999 21.8062 22.3421 21.0001 23.9999 21.0001Z"
            stroke="#0F0F0F" stroke-miterlimit="10" stroke-linecap="round"
            stroke-linejoin="round" />
        <path d="M4.99951 32.0002H16.9993H4.99951Z" stroke="#0F0F0F" stroke-miterlimit="10"
            stroke-linecap="round" stroke-linejoin="round" />
        <path d="M4.99951 33.9997H13.0004H4.99951Z" stroke="#0F0F0F" stroke-miterlimit="10"
            stroke-linecap="round" stroke-linejoin="round" />
        <path d="M15.3086 13.9212L11.6127 12.3909L12.3789 10.5422L16.0734 12.0739L15.3086 13.9212Z"
            stroke="#0F0F0F" stroke-miterlimit="10" stroke-linecap="round"
            stroke-linejoin="round" />
        <path d="M20.851 16.217L17.1565 14.6874L17.9214 12.8387L21.6172 14.3697L20.851 16.217Z"
            stroke="#0F0F0F" stroke-miterlimit="10" stroke-linecap="round"
            stroke-linejoin="round" />
        <path d="M10.848 14.2375L18.9357 17.5881L10.848 14.2375Z" stroke="#0F0F0F"
            stroke-miterlimit="10" stroke-linecap="round" stroke-linejoin="round" />
        <path d="M10.0817 16.0861L13.6259 17.5536L10.0817 16.0861Z" stroke="#0F0F0F"
            stroke-miterlimit="10" stroke-linecap="round" stroke-linejoin="round" />
        <path d="M35.3175 17.8796L11.2957 7.92881L12.8267 4.23361L36.8485 14.183L35.3175 17.8796Z"
            stroke="#E65497" stroke-miterlimit="10" stroke-linecap="round"
            stroke-linejoin="round" />
        <path
            d="M29.9323 17.8134C28.4013 17.1788 26.8525 17.4097 26.4721 18.3282C26.3852 18.539 26.3742 18.7664 26.4155 19H26.9998C28.0995 19 28.9994 19.8998 28.9994 20.9995V21.293C30.3746 21.7161 31.6714 21.4549 32.0145 20.6253C32.3948 19.7062 31.4632 18.4473 29.9323 17.8134Z"
            stroke="#0F0F0F" stroke-miterlimit="10" stroke-linecap="round"
            stroke-linejoin="round" />
        <path
            d="M35.7654 11.5703L15.4394 3.1519C14.4238 2.73161 13.2484 3.21732 12.8267 4.2336L7.46891 17.1685C7.2126 17.7893 7.29664 18.468 7.63153 18.9999H26.9997C28.0994 18.9999 28.9993 19.8997 28.9993 20.9994V28.2361C29.9859 28.5724 31.0856 28.0935 31.4908 27.1179L36.8486 14.183C37.2688 13.1674 36.7824 11.992 35.7654 11.5703Z"
            stroke="#0F0F0F" stroke-miterlimit="10" stroke-linecap="round"
            stroke-linejoin="round" />
    </symbol>
    <symbol id="icon-postcard" viewbox="0 0 40 40" fill="none" xmlns="http://www.w3.org/2000/svg">
        <path d="M17.6676 15.6672L13 20.3336H22.3336L17.6676 15.6672Z" stroke="#0F0F0F"
            stroke-miterlimit="10" stroke-linecap="round" stroke-linejoin="round" />
        <path d="M22.3336 11C22.3336 13.5768 24.4212 15.6672 26.9996 15.6672V11H22.3336Z"
            stroke="#E65497" stroke-miterlimit="10" stroke-linecap="round"
            stroke-linejoin="round" />
        <path d="M23.7003 14.3004L22.0511 15.95L23.7003 14.3004Z" stroke="#E65497"
            stroke-miterlimit="10" stroke-linecap="round" stroke-linejoin="round" />
        <path d="M25.4039 15.3864L24.6075 17.5776L25.4039 15.3864Z" stroke="#E65497"
            stroke-miterlimit="10" stroke-linecap="round" stroke-linejoin="round" />
        <path d="M22.6148 12.596L20.4232 13.394L22.6148 12.596Z" stroke="#E65497"
            stroke-miterlimit="10" stroke-linecap="round" stroke-linejoin="round" />
        <path d="M20 27.7048L5.77722 17.0384V36H34.2228V17.0384L20 27.7048Z" stroke="#0F0F0F"
            stroke-miterlimit="10" stroke-linecap="round" stroke-linejoin="round" />
        <path d="M25.3315 8L19.9999 4L14.6667 8H25.3315Z" stroke="#0F0F0F" stroke-miterlimit="10"
            stroke-linecap="round" stroke-linejoin="round" />
        <path d="M30.0004 14.6668H34.2192L30.0004 11.5016V14.6668Z" stroke="#0F0F0F"
            stroke-miterlimit="10" stroke-linecap="round" stroke-linejoin="round" />
        <path d="M10.0007 11.5L5.77832 14.6668H10.0007V11.5Z" stroke="#0F0F0F"
            stroke-miterlimit="10" stroke-linecap="round" stroke-linejoin="round" />
        <path d="M30.0005 20.2056V8H10.0009V20.2056L20.0001 27.7048L30.0005 20.2056Z"
            stroke="#0F0F0F" stroke-miterlimit="10" stroke-linecap="round"
            stroke-linejoin="round" />
        <path d="M34.22 17.04V14.6668H30.0004V20.2056L34.22 17.04Z" stroke="#0F0F0F"
            stroke-miterlimit="10" stroke-linecap="round" stroke-linejoin="round" />
        <path d="M26.9996 11H13V20.3332H26.9996V11Z" stroke="#0F0F0F" stroke-miterlimit="10"
            stroke-linecap="round" stroke-linejoin="round" />
        <path d="M5.77722 17.04V14.6668H9.99682V20.2056L5.77722 17.04Z" stroke="#0F0F0F"
            stroke-miterlimit="10" stroke-linecap="round" stroke-linejoin="round" />
    </symbol>
    <symbol id="icon-delivery" viewbox="0 0 40 37" fill="none" xmlns="http://www.w3.org/2000/svg">
        <path
            d="M29 25.9821C29 27.2412 30.1174 28.2615 31.5 28.2615C32.8816 28.2615 34 27.2412 34 25.9821C34 24.7234 32.8816 23.7032 31.5 23.7032C30.1174 23.7032 29 24.7234 29 25.9821Z"
            stroke="black" stroke-miterlimit="10" stroke-linecap="round" stroke-linejoin="round" />
        <path
            d="M16.5 28.2615C17.8807 28.2615 19 27.241 19 25.9823C19 24.7236 17.8807 23.7032 16.5 23.7032C15.1193 23.7032 14 24.7236 14 25.9823C14 27.241 15.1193 28.2615 16.5 28.2615Z"
            stroke="black" stroke-miterlimit="10" stroke-linecap="round" stroke-linejoin="round" />
        <path
            d="M9.5 28.2615C10.8807 28.2615 12 27.241 12 25.9823C12 24.7236 10.8807 23.7032 9.5 23.7032C8.11929 23.7032 7 24.7236 7 25.9823C7 27.241 8.11929 28.2615 9.5 28.2615Z"
            stroke="black" stroke-miterlimit="10" stroke-linecap="round" stroke-linejoin="round" />
        <path d="M31 23.7032H39V26.4381H33.6656C33.6656 24.9276 32.4731 23.7032 31 23.7032Z"
            stroke="black" stroke-miterlimit="10" stroke-linecap="round" stroke-linejoin="round" />
        <path
            d="M17 23.7032H31C29.7101 23.7032 28.6676 24.9276 28.6676 26.4381H19.3333C19.3333 24.9276 18.288 23.7032 17 23.7032Z"
            stroke="black" stroke-miterlimit="10" stroke-linecap="round" stroke-linejoin="round" />
        <path
            d="M10 23.7032H17C15.7105 23.7032 14.6674 24.9276 14.6674 26.4381H12.333C12.333 24.9276 11.2876 23.7032 10 23.7032Z"
            stroke="black" stroke-miterlimit="10" stroke-linecap="round" stroke-linejoin="round" />
        <path d="M5 23.7032H10C8.61864 23.7032 7.50075 24.9276 7.50075 26.4381H5V23.7032Z"
            stroke="black" stroke-miterlimit="10" stroke-linecap="round" stroke-linejoin="round" />
        <path d="M33 19.1449H29V14.5866H31.8571L33 19.1449Z" stroke="black" stroke-miterlimit="10"
            stroke-linecap="round" stroke-linejoin="round" />
        <path d="M33.2002 19.1444H28.9995V14.5866H26V23.7032H38V20.284L33.2002 19.1444Z"
            stroke="black" stroke-miterlimit="10" stroke-linecap="round" stroke-linejoin="round" />
        <path d="M26 8.20494H1V23.7032H26V8.20494Z" stroke="black" stroke-miterlimit="10"
            stroke-linecap="round" stroke-linejoin="round" />
        <path d="M18.9196 18.3783L21 14.5866H18.9196H21L18.9196 18.3783Z" stroke="#E65497"
            stroke-miterlimit="10" stroke-linecap="round" stroke-linejoin="round" />
        <path
            d="M10.0811 18.378H8V18.216C8 17.9547 8.11715 17.7166 8.30619 17.546L9.77622 16.2037C9.96526 16.0329 10.0814 15.796 10.0814 15.5338C10.0814 15.0107 9.6158 14.5866 9.04137 14.5866C8.46694 14.5866 8.00033 15.0107 8.00033 15.5338C8.00033 15.0107 8.46694 14.5866 9.04137 14.5866C9.6158 14.5866 10.0814 15.0107 10.0814 15.5338C10.0814 15.796 9.96526 16.0329 9.77622 16.2037L8.30619 17.546C8.11715 17.7169 8 17.9547 8 18.216V18.378H10.0811Z"
            stroke="#E65497" stroke-miterlimit="10" stroke-linecap="round"
            stroke-linejoin="round" />
        <path
            d="M13.7201 14.5866V18.3783V16.4823H11.6393L12.1595 14.5866L11.6393 16.4823H13.7201V18.3783V14.5866Z"
            stroke="#E65497" stroke-miterlimit="10" stroke-linecap="round"
            stroke-linejoin="round" />
        <path d="M17.3593 14.5866L15.2796 18.3789L17.3593 14.5866Z" stroke="#E65497"
            stroke-miterlimit="10" stroke-linecap="round" stroke-linejoin="round" />
    </symbol>
    <symbol id="icon-whatsup" viewBox="0 0 13 13" fill="none" xmlns="http://www.w3.org/2000/svg">
        <path d="M10.3598 2.63439C9.27317 1.55157 7.82439 0.950012 6.29512 0.950012C3.11585 0.950012 0.540243 3.51668 0.540243 6.68491C0.540243 7.68751 0.821951 8.69012 1.30488 9.5323L0.5 12.5L3.55854 11.6979C4.40366 12.1391 5.32927 12.3797 6.29512 12.3797C9.47439 12.3797 12.05 9.81303 12.05 6.6448C12.0098 5.16095 11.4463 3.7172 10.3598 2.63439ZM9.07195 8.73022C8.95122 9.05105 8.3878 9.37189 8.1061 9.41199C7.86463 9.4521 7.54268 9.4521 7.22073 9.37189C7.01951 9.29168 6.73781 9.21147 6.41585 9.05105C4.96707 8.44949 4.04146 7.00574 3.96098 6.88543C3.88049 6.80522 3.35732 6.12345 3.35732 5.40157C3.35732 4.6797 3.71951 4.35887 3.84024 4.19845C3.96098 4.03803 4.12195 4.03803 4.24268 4.03803C4.32317 4.03803 4.4439 4.03803 4.52439 4.03803C4.60488 4.03803 4.72561 3.99793 4.84634 4.27866C4.96707 4.55939 5.24878 5.28126 5.28902 5.32137C5.32927 5.40157 5.32927 5.48178 5.28902 5.56199C5.24878 5.6422 5.20854 5.72241 5.12805 5.80262C5.04756 5.88282 4.96707 6.00314 4.92683 6.04324C4.84634 6.12345 4.76585 6.20366 4.84634 6.32397C4.92683 6.48439 5.20854 6.92553 5.65122 7.32657C6.21463 7.80782 6.65732 7.96824 6.81829 8.04845C6.97927 8.12866 7.05975 8.08855 7.14024 8.00835C7.22073 7.92814 7.50244 7.6073 7.58293 7.44689C7.66342 7.28647 7.78415 7.32658 7.90488 7.36668C8.02561 7.40678 8.75 7.76772 8.87073 7.84793C9.03171 7.92814 9.11219 7.96824 9.15244 8.00835C9.19268 8.12866 9.19268 8.40939 9.07195 8.73022Z" fill="white"/>
    </symbol>
    <symbol id="icon-telegram" viewBox="0 0 12 11" fill="none" xmlns="http://www.w3.org/2000/svg">
        <path d="M1.14308 5.20572L3.67204 6.14872L4.65789 9.32061C4.70075 9.53493 4.95794 9.57779 5.12939 9.4492L6.54388 8.29189C6.67247 8.1633 6.88679 8.1633 7.05825 8.29189L9.58719 10.135C9.75864 10.2636 10.0158 10.1779 10.0587 9.96356L11.9447 0.962236C11.9875 0.747919 11.7732 0.533603 11.5589 0.61933L1.14308 4.6485C0.8859 4.73422 0.8859 5.11999 1.14308 5.20572ZM4.5293 5.67722L9.50146 2.63391C9.58718 2.59105 9.67292 2.71964 9.58719 2.7625L5.51516 6.57735C5.38657 6.70594 5.25798 6.8774 5.25798 7.09171L5.12939 8.12044C5.12939 8.24903 4.91507 8.29189 4.87221 8.12044L4.35784 6.23444C4.22925 6.02013 4.31499 5.76294 4.5293 5.67722Z" fill="white"/>
    </symbol>
    <symbol id="icon-viber" viewBox="0 0 13 14" fill="none" xmlns="http://www.w3.org/2000/svg">
        <path d="M9.43966 0.800253C7.34333 0.399916 5.16636 0.399916 3.07003 0.800253C2.1428 1.00042 0.973691 2.12136 0.77212 3.0021C0.409293 4.72355 0.409293 6.48503 0.77212 8.20648C1.01401 9.08722 2.18311 10.2082 3.07003 10.4083C3.11034 10.4083 3.15065 10.4484 3.15065 10.4884V13.0105C3.15065 13.1306 3.31191 13.2107 3.39254 13.0906L4.60196 11.8495C4.60196 11.8495 5.5695 10.8487 5.73076 10.6886C5.73076 10.6886 5.77107 10.6485 5.81139 10.6485C7.02081 10.6886 8.27055 10.5685 9.47997 10.3683C10.4072 10.1681 11.5763 9.04719 11.7779 8.16645C12.1407 6.445 12.1407 4.68352 11.7779 2.96207C11.536 2.12136 10.3669 1.00042 9.43966 0.800253ZM9.47997 8.32658C9.2784 8.72692 9.03652 9.04719 8.63338 9.24736C8.51244 9.28739 8.39149 9.32742 8.27055 9.36746C8.10929 9.32742 7.98835 9.28739 7.86741 9.24736C6.57736 8.72692 5.36793 8.00631 4.40039 6.96544C3.87631 6.36493 3.43285 5.68436 3.07003 4.96375C2.90877 4.60345 2.74751 4.28318 2.62657 3.92288C2.50563 3.60261 2.7072 3.28234 2.90877 3.04214C3.11034 2.80194 3.35223 2.6418 3.63442 2.5217C3.83599 2.4016 4.03757 2.48167 4.19882 2.6418C4.52134 3.04214 4.84385 3.44247 5.08573 3.88284C5.24699 4.16308 5.20667 4.48335 4.92448 4.68352C4.84385 4.72355 4.80353 4.76359 4.7229 4.84365C4.68259 4.88369 4.60196 4.92372 4.56165 5.00379C4.48102 5.12389 4.48102 5.24399 4.52133 5.36409C4.84385 6.28487 5.44856 7.00547 6.37578 7.40581C6.53704 7.48587 6.65798 7.52591 6.85956 7.52591C7.14175 7.48588 7.2627 7.16561 7.46427 7.00547C7.66584 6.84534 7.90772 6.84534 8.14961 6.96544C8.35118 7.08554 8.55275 7.24567 8.79463 7.40581C8.9962 7.56594 9.19777 7.68604 9.39934 7.84618C9.52029 7.92625 9.5606 8.12641 9.47997 8.32658ZM7.78678 5.32406C7.70615 5.32406 7.74646 5.32406 7.78678 5.32406C7.62552 5.32406 7.58521 5.24399 7.54489 5.12389C7.54489 5.04382 7.5449 4.92372 7.50458 4.84365C7.46427 4.68352 7.38364 4.52338 7.22238 4.40328C7.14176 4.36325 7.06112 4.32322 6.9805 4.28318C6.85955 4.24315 6.77893 4.24315 6.65798 4.24315C6.53704 4.20311 6.49673 4.12305 6.49673 4.00295C6.49673 3.92288 6.61767 3.84281 6.6983 3.84281C7.34332 3.88285 7.82709 4.24315 7.90772 5.00379C7.90772 5.04382 7.90772 5.12389 7.90772 5.16392C7.90772 5.24399 7.86741 5.32406 7.78678 5.32406ZM7.38364 3.56258C7.18207 3.48251 6.9805 3.40244 6.73861 3.36241C6.65798 3.36241 6.53704 3.32237 6.45641 3.32237C6.33547 3.32237 6.25484 3.24231 6.29516 3.12221C6.29516 3.0021 6.37579 2.92204 6.49673 2.96207C6.89987 3.0021 7.2627 3.08217 7.62552 3.24231C8.35118 3.60261 8.75432 4.20311 8.87526 5.00379C8.87526 5.04382 8.87526 5.08386 8.87526 5.12389C8.87526 5.20396 8.87526 5.28402 8.87526 5.40412C8.87526 5.44416 8.87526 5.48419 8.87526 5.52423C8.83495 5.68436 8.55275 5.72439 8.51243 5.52423C8.51243 5.48419 8.47212 5.40412 8.47212 5.36409C8.47212 5.00379 8.39149 4.64348 8.23024 4.32322C7.98835 3.96291 7.70615 3.72271 7.38364 3.56258ZM9.5606 5.9646C9.43966 5.9646 9.35903 5.8445 9.35903 5.72439C9.35903 5.48419 9.31872 5.24399 9.2784 5.00379C9.11715 3.72271 8.06898 2.68183 6.81924 2.48167C6.61767 2.44163 6.4161 2.44163 6.25484 2.4016C6.1339 2.4016 5.97264 2.4016 5.93233 2.24146C5.89201 2.12136 6.01296 2.00126 6.1339 2.00126C6.17421 2.00126 6.21453 2.00126 6.21453 2.00126C7.86741 2.0413 6.29516 2.00126 6.21453 2.00126C7.90772 2.0413 9.31872 3.16224 9.60091 4.84365C9.64123 5.12389 9.68155 5.40413 9.68155 5.72439C9.76217 5.8445 9.68154 5.9646 9.5606 5.9646Z" fill="white"/>
    </symbol>
    <symbol id="icon-mail_about" viewBox="0 0 14 14" fill="none" xmlns="http://www.w3.org/2000/svg">
        <path d="M9.40039 7.00002C9.40039 8.32551 8.32587 9.40002 7.00039 9.40002C5.67491 9.40002 4.60039 8.32551 4.60039 7.00002C4.60039 5.67454 5.67491 4.60002 7.00039 4.60002C8.32587 4.60002 9.40039 5.67454 9.40039 7.00002ZM9.40039 7.00002V7.80002C9.40039 8.68368 10.1167 9.40002 11.0004 9.40002C11.568 9.40002 12.0666 9.10443 12.3507 8.65877C12.5088 8.41066 12.6004 8.11604 12.6004 7.80002V7.00002C12.6004 3.90723 10.0932 1.40002 7.00039 1.40002C3.9076 1.40002 1.40039 3.90723 1.40039 7.00002C1.40039 10.0928 3.9076 12.6 7.00039 12.6C8.19019 12.6 9.29332 12.229 10.2004 11.5963" stroke="white"/>
    </symbol>
    <symbol id="icon-masterCard" viewBox="0 0 23 14" fill="none" xmlns="http://www.w3.org/2000/svg">
        <path fill-rule="evenodd" clip-rule="evenodd" d="M11.3934 12.3274C10.1865 13.3701 8.62104 13.9995 6.91037 13.9995C3.09334 13.9995 -0.000976562 10.8656 -0.000976562 6.99977C-0.000976562 3.13391 3.09334 0 6.91037 0C8.62104 0 10.1865 0.629456 11.3934 1.67215C12.6003 0.629456 14.1658 0 15.8764 0C19.6935 0 22.7878 3.13391 22.7878 6.99977C22.7878 10.8656 19.6935 13.9995 15.8764 13.9995C14.1658 13.9995 12.6003 13.3701 11.3934 12.3274Z" fill="#ED0006"/>
        <path fill-rule="evenodd" clip-rule="evenodd" d="M11.3935 12.3284C12.8795 11.0445 13.8218 9.13406 13.8218 7.00075C13.8218 4.86743 12.8795 2.95702 11.3935 1.67313C12.6004 0.630432 14.1659 0.000976562 15.8765 0.000976562C19.6936 0.000976562 22.7879 3.13489 22.7879 7.00075C22.7879 10.8666 19.6936 14.0005 15.8765 14.0005C14.1659 14.0005 12.6004 13.3711 11.3935 12.3284Z" fill="#F9A000"/>
        <path fill-rule="evenodd" clip-rule="evenodd" d="M11.3935 12.3274C12.8795 11.0435 13.8218 9.13306 13.8218 6.99974C13.8218 4.86642 12.8795 2.95601 11.3935 1.67212C9.90743 2.95601 8.96515 4.86642 8.96515 6.99974C8.96515 9.13306 9.90743 11.0435 11.3935 12.3274Z" fill="#FF5E00"/>
    </symbol>
    <symbol id="icon-mirCard" viewBox="0 0 48 14" fill="none" xmlns="http://www.w3.org/2000/svg">
        <g clip-path="url(#clip0)">
        <path fill-rule="evenodd" clip-rule="evenodd" d="M12.8266 2.6636e-07V0.00611375C12.8207 0.00611375 10.9673 2.33211e-07 10.4731 1.84016C10.02 3.52748 8.74326 8.18596 8.70796 8.31434H8.35493C8.35493 8.31434 7.04874 3.55194 6.58981 1.83405C6.09557 -0.00611328 4.2363 2.6636e-07 4.2363 2.6636e-07H0V13.9999H4.2363V5.68554H4.41282H4.58933L7.06051 13.9999H10.0024L12.4736 5.69166H12.8266V13.9999H17.0629V2.6636e-07H12.8266Z" fill="#4DB45E"/>
        <path fill-rule="evenodd" clip-rule="evenodd" d="M28.3008 0C28.3008 0 27.0594 0.116156 26.4769 1.46724L23.4762 8.31434H23.1231V0H18.8868V13.9999H22.8878C22.8878 13.9999 24.1881 13.8776 24.7706 12.5326L27.7125 5.68554H28.0655V13.9999H32.3018V0H28.3008Z" fill="#4DB45E"/>
        <path fill-rule="evenodd" clip-rule="evenodd" d="M34.1846 6.35815V14H38.4209V9.53717H43.0103C45.0107 9.53717 46.7053 8.21054 47.3348 6.35815H34.1846Z" fill="#4DB45E"/>
        <path fill-rule="evenodd" clip-rule="evenodd" d="M43.0103 0H33.5904C34.0611 2.66548 35.9851 4.8052 38.4739 5.50214C39.0388 5.66109 39.633 5.74668 40.2449 5.74668H47.5055C47.5702 5.42877 47.5996 5.10476 47.5996 4.76852C47.5996 2.13361 45.5462 0 43.0103 0Z" fill="url(#paint0_linear)"/>
        </g>
        <defs>
        <linearGradient id="paint0_linear" x1="33.5915" y1="2.87334" x2="47.5996" y2="2.87334" gradientUnits="userSpaceOnUse">
        <stop offset="0.3" stop-color="#00B4E6"/>
        <stop offset="1" stop-color="#088CCB"/>
        </linearGradient>
        <clipPath id="clip0">
        <rect width="47.5996" height="13.9999" fill="white"/>
        </clipPath>
        </defs>
    </symbol>
    <symbol id="icon-visaCard" viewBox="0 0 44 14" fill="none" xmlns="http://www.w3.org/2000/svg">
        <path fill-rule="evenodd" clip-rule="evenodd" d="M10.9665 13.8912H7.17019L4.32339 3.03046C4.18827 2.53087 3.90137 2.0892 3.47935 1.88104C2.42614 1.35791 1.26558 0.941588 -0.000488281 0.731614V0.313477H6.11514C6.95918 0.313477 7.59222 0.941588 7.69772 1.67107L9.1748 9.50526L12.9693 0.313477H16.6602L10.9665 13.8912ZM18.7702 13.8912H15.1849L18.1372 0.313477H21.7225L18.7702 13.8912ZM26.3611 4.07458C26.4666 3.34329 27.0996 2.92515 27.8381 2.92515C28.9987 2.82016 30.2629 3.03014 31.318 3.55145L31.951 0.628111C30.896 0.209974 29.7354 0 28.6822 0C25.2024 0 22.6702 1.88071 22.6702 4.4909C22.6702 6.4766 24.4638 7.51923 25.7299 8.14734C27.0996 8.77364 27.6271 9.19178 27.5216 9.81808C27.5216 10.7575 26.4666 11.1757 25.4134 11.1757C24.1473 11.1757 22.8812 10.8625 21.7225 10.3394L21.0895 13.2645C22.3555 13.7859 23.7253 13.9958 24.9913 13.9958C28.8932 14.099 31.318 12.2201 31.318 9.39994C31.318 5.84849 26.3611 5.64033 26.3611 4.07458ZM43.8658 13.8912L41.019 0.313477H37.9612C37.3281 0.313477 36.6951 0.731614 36.4841 1.35791L31.2125 13.8912H34.9034L35.64 11.9073H40.1749L40.597 13.8912H43.8658ZM38.4887 3.96973L39.5419 9.08692H36.5896L38.4887 3.96973Z" fill="#016AE6"/>
    </symbol>
    <symbol id="icon-visaCard2" viewBox="0 0 50 16" fill="none" xmlns="http://www.w3.org/2000/svg">
        <path d="M21.38 15.7333H17.3558L19.8709 0.276197H23.8956L21.38 15.7333ZM13.9703 0.276197L10.1337 10.9077L9.67971 8.61834L9.68013 8.61917L8.32602 1.66793C8.32602 1.66793 8.16228 0.276197 6.41703 0.276197H0.0744245L0 0.537922C0 0.537922 1.93958 0.941467 4.20952 2.30467L7.70581 15.7337H11.8988L18.3014 0.276197H13.9703ZM45.6234 15.7333H49.3185L46.0968 0.275784H42.8618C41.3679 0.275784 41.0041 1.42771 41.0041 1.42771L35.0022 15.7333H39.1972L40.0362 13.4373H45.152L45.6234 15.7333ZM41.1951 10.2656L43.3096 4.48117L44.4991 10.2656H41.1951ZM35.3168 3.99328L35.8911 0.673953C35.8911 0.673953 34.119 0 32.2716 0C30.2746 0 25.5321 0.872832 25.5321 5.11709C25.5321 9.11037 31.0982 9.15999 31.0982 11.2575C31.0982 13.355 26.1056 12.9792 24.4579 11.6565L23.8596 15.1272C23.8596 15.1272 25.6566 16 28.402 16C31.1482 16 35.2912 14.5781 35.2912 10.708C35.2912 6.6891 29.6751 6.31491 29.6751 4.56759C29.6755 2.81986 33.5947 3.04437 35.3168 3.99328Z" fill="#2566AF"/>
        <path d="M9.68012 8.61873L8.32601 1.66749C8.32601 1.66749 8.16228 0.275757 6.41703 0.275757H0.0744244L0 0.537482C0 0.537482 3.0485 1.16926 5.97255 3.53637C8.76842 5.79887 9.68012 8.61873 9.68012 8.61873Z" fill="#E6A540"/>
    </symbol>
    <symbol id="icon-logoSmall" width="82" height="82" xmlns="http://www.w3.org/2000/svg" viewBox="0 0 890.54 663.86">
        <path class="cls-1" d="M891.9,402c-2.54,5.82-2.38,12.2-3.91,18.24-11.71,46.26-32.08,88-64.32,123.54a92.2,92.2,0,0,1-15,13.15c-8.94,6.36-18.57,9.7-29.87,9.06C707.6,561.9,636.63,556.13,567,539.9c-10-2.34-19.89-5.39-29.81-8.21-2.85-.82-5.6-2-9.32-3.36,8.23-2,15.63-3.39,22.86-5.46C640.23,497.2,709,445.5,751.42,361.4,769.75,325.1,780,286.31,785,246.05c.39-3.14.87-6.28,1-9.43.19-3.85,1.54-4,4.52-2.09A131.63,131.63,0,0,1,816.16,256a372,372,0,0,1,69.33,104.3c3,6.66,4.45,13.75,6.41,20.71Z" transform="translate(-1.36 -0.1)" fill="#ea018b"></path>
        <path class="cls-2" d="M836.92.1c.83,12.22.14,24.32-3.41,36.1-7.87,26.14-26.73,39.6-52.5,44.63-16.67,3.26-33.45,2.7-50.24.55-2.71-.35-3.32-1.26-2.81-3.74,2.77-13.4,6.35-26.51,13.24-38.5,11.26-19.6,29.53-28.44,50.59-33,10.75-2.35,21.65-3.64,32.56-4.93,1.22-.15,2.74.49,3.57-1.06Z" transform="translate(-1.36 -0.1)" fill="#017a6a"></path>
        <path class="cls-1" d="M411.85,107.49c-22.69,8.08-38.76,23.69-52.9,41.41-29.09,36.45-47.83,77.68-52.6,124.23-6.91,67.49,20.35,118,78.82,151.88,29.43,17,61.58,26.48,94.73,32.94a396.92,396.92,0,0,0,76.41,7.52c15.82,0,31.63-.72,47.29-3.29a4.6,4.6,0,0,1,3,.59c-4,1.55-7.91,3.13-11.89,4.63-41.08,15.43-81.94,31.51-124.08,43.91a236.84,236.84,0,0,1-57.93,9.7c-27.9,1.07-53.68-5.9-77.83-19.63-16.08-9.15-31.23-19.73-46.67-29.86-25.55-16.76-52.36-31-81.21-41.26-8.18-2.9-13.5-9-17.9-16-9.64-15.39-14.28-32.6-16.79-50.29-7.57-53.43-.9-105,23-153.64,22.1-45,56.77-78.61,100.17-102.94,35.52-19.92,72.34-18.33,109.21-3C406.81,105.25,408.92,106.21,411.85,107.49Z" transform="translate(-1.36 -0.1)" fill="#ea018b"></path>
        <path class="cls-1" d="M247.16,467.83c15,10.54,29.51,21.65,44.94,31.51,22.32,14.26,45.17,27.39,70.16,36.66,16.25,6,32.24,4.62,48.62,1.51,17.32-3.29,34.6-6.89,52.28-7.88a52.43,52.43,0,0,1,22.92,3.54C526,549,567.46,559,609.52,566.9a1050.21,1050.21,0,0,0,104.37,14,13.13,13.13,0,0,1,1.77.49A228.12,228.12,0,0,1,694.83,607c-19.37,21-40.61,39.48-67.48,50.35-22.75,9.2-45.13,9-67.62-1.81-46.16-22.12-95.19-31.25-146.18-30.94-17.48.11-35,.31-52.4-1.63-13.93-1.54-25.84-6.91-35.28-17.61-14.2-16.08-25.38-34.18-36.05-52.65q-23.71-41.07-43.31-84.27A6.35,6.35,0,0,0,247.16,467.83Z" transform="translate(-1.36 -0.1)" fill="#ea018b"></path>
        <path class="cls-2" d="M91.32,506.3c-22.13-3.66-42.07-10.53-60-22.71a104.89,104.89,0,0,1-17.48-14.84c-1.89-2-2-3.25.22-5.14,30.24-25.11,64.74-38.39,104.3-37,37.12,1.32,69.19,16.23,98.68,37.71a6.42,6.42,0,0,1,2.76,3.41c6.59,23.44,9.5,47,1.91,70.79-7.48,23.39-23.4,39.88-44,52.28-21.67,13-45.5,20.2-70.09,25-33.84,6.64-68.05,8.13-102.43,7-1.75-.06-4.82,1.11-3.56-3.08C13.43,580.59,32.4,546.14,65.71,521a118.85,118.85,0,0,1,12.16-7.84C81.88,510.86,86.12,508.94,91.32,506.3Z" transform="translate(-1.36 -0.1)" fill="#017a6a"></path>
        <path class="cls-1" d="M381.31,146.14c-.63,9.82-1.2,18.11-1.71,26.4a151.45,151.45,0,0,0,2.54,39.76,67.47,67.47,0,0,0,17.66,34.12c4.75,4.91,9.67,9.66,14.63,14.34a142.51,142.51,0,0,1,24.86,31.72c37.82,64.12,91.52,109.2,162,133.91a259.91,259.91,0,0,0,54.89,13c-1.47,1.64-3.39,1.32-5.1,1.4-55.19,2.78-110.25,2-164.92-6.95-32.62-5.36-64.54-13.3-93.73-29.59-40.49-22.59-60.79-58.57-66.27-103.35-5-40.62,7.51-77.61,26.63-112.77A254.53,254.53,0,0,1,381.31,146.14Z" transform="translate(-1.36 -0.1)" fill="#ea018b"></path>
        <path class="cls-1" d="M878.46,296.69A421.78,421.78,0,0,0,838.89,245c-21.57-23.86-45-45.44-74.37-59.59-17.19-8.29-35.84-12.21-54.08-17.27-38.62-10.73-77.53-20.38-117.18-26.53-9.56-1.49-18.23-4.88-27-8.45-15.19-6.19-30.39-12.36-45.6-19.78,7.29-1.73,14.55-3.63,21.89-5.16C594.12,97.5,646.18,92.32,698.86,94.19a384.7,384.7,0,0,1,57.57,6c18,3.38,33,12.79,47.1,24,15.67,12.51,29.08,27.4,43.67,41.05A155.75,155.75,0,0,0,865.43,180c13.55,9.32,19.83,23.07,22.21,38.69C891.66,245.1,886.52,270.57,878.46,296.69Z" transform="translate(-1.36 -0.1)" fill="#ea018b"></path>
        <path class="cls-1" d="M697.9,79.09c-18.59,1.34-37.2,2.44-55.76,4-45.93,4-91.87,7.89-136.82,18.89a5,5,0,0,0-1,.21c-11.3,5.72-22.14,3.72-33.85,0-31.43-9.92-63.85-16-96.21-22-3.82-.72-5.08-1.62-3.87-5.67,4.46-15,9.27-29.8,15.64-44.13C391.56,18,400.94,10.8,413.62,7.15c19.18-5.53,38.74-5.46,58.45-4.62,41.16,1.75,78.94,16,116.62,30.82q53.14,20.88,105.62,43.42l3.59,1.56Z" transform="translate(-1.36 -0.1)" fill="#ea018b"></path>
        <path class="cls-1" d="M624.65,176.19c34.55,1.71,68.48,4.85,101.14,15.92,10.93,3.7,21.38,8.46,30.24,16.06,10.27,8.81,15,19.62,12,33.33-9.67,44.6-20.85,88.73-41.19,129.93-7.32,14.84-16,28.84-28.08,40.4-7.59,7.26-16.1,12.9-26.73,14.62a28.17,28.17,0,0,1-4,.43c-3.85,0-8.63.45-10.76-2.49-1.52-2.07,2.28-5.36,3.7-8.09,24.91-47.8,35.87-98.47,31.84-152.34-2.17-29-17.24-50.43-39-68.12a153.07,153.07,0,0,0-25.84-17C626.89,178.3,625.4,178.15,624.65,176.19Z" transform="translate(-1.36 -0.1)" fill="#ea018b"></path>
        <path class="cls-1" d="M453.12,274.61c-28.73-19.73-52-42.31-58.46-77-5.71-30.85,3.77-57.14,27.11-78.27,9.82-8.89,21.74-9.29,33.88-7.72,23.39,3,44.86,12.08,66,22,33.47,15.79,65.15,34.73,96,55.13.78.52,1.82.81,2,2-2,.58-3.47-.84-5.07-1.53-24.52-10.64-49.66-19.12-76.44-21.74-12-1.17-24-1-35.73,2-27.13,6.86-41.47,25.51-47.28,51.79-3.3,14.91-3.75,30-2.47,45.2C452.78,268.8,452.89,271.12,453.12,274.61Z" transform="translate(-1.36 -0.1)" fill="#ea018b"></path>
        <path class="cls-3" d="M475.09,309.31c2.54-.91,4.13.56,5.86,1.43,28.42,14.34,57.35,27.37,88.48,34.78,18.29,4.35,36.5,5.85,54.24-2.54,14.88-7,26.15-18.12,35.49-31.41a148.11,148.11,0,0,0,14.44-26.31c.95,6.1-.16,10.89-.66,15.66-2.68,25.68-6.37,51.18-15,75.69a86.06,86.06,0,0,1-4.22,10.12c-9.8,19.46-16.29,21.53-37.09,20.68-18.71-.77-35.69-7.57-51.75-16.73-28.85-16.47-52.73-38.86-74.66-63.47C485.07,321.4,480.18,315.34,475.09,309.31Z" transform="translate(-1.36 -0.1)" fill="#ea018b"></path>
        <path class="cls-3" d="M510.28,304.27c20.19-.4,39.68-2.53,58.33-9.41,21.48-7.92,38.14-21,44.81-44,4.2-14.5,3.1-29-.67-43.39-.25-1-.57-1.91-.81-2.88a3.55,3.55,0,0,1,0-.92,1.35,1.35,0,0,1,1.77-.45c14.38,5,28.14,11.21,40.13,20.77a64.1,64.1,0,0,1,8.31,7.91c9,10.31,11.4,21.92,4.57,34.1-14.16,25.24-34.76,43.94-60.23,57.39-4.33,2.28-9.24,2.91-14,3.27-22.13,1.64-43.9-.16-64.91-7.88a40.12,40.12,0,0,1-11-5.88C513.85,310.73,511.15,308.48,510.28,304.27Z" transform="translate(-1.36 -0.1)" fill="#ea018b"></path>
        <path class="cls-4" d="M541,188.36c-3.12,3.88-5.86,7.14-8.45,10.51-6.5,8.48-12.55,17.23-16,27.47-4.41,13.09-.37,22.81,12.13,28.87,10.17,4.93,21.14,5.63,32.17,5.35a156.68,156.68,0,0,0,29.34-3.5c-.17,1.92-1.7,2.45-2.73,3.28-18.77,15.3-39.9,24.61-64.44,24.43-13.18-.09-25.82-2.79-36.5-11.32-11.11-8.87-14.83-20.5-11-34.19,3.57-12.82,8.84-24.77,18.16-34.52C506.41,191.45,522.08,186.48,541,188.36Z" transform="translate(-1.36 -0.1)" fill="#ea038c"></path>
        <path class="cls-3" d="M540.67,246.05c5.45-6.34,10.08-12,13.14-18.67,3.55-7.76,5.29-15.54-1.13-22.82-1.67-1.89-.24-2.65,1.06-3.35,8.29-4.44,17.12-6.53,26.45-5,6.3,1,13.7,11,14.7,19.25a62.72,62.72,0,0,1-.33,13.41c-.86,9.16-6.47,13.22-14.69,15.1C567.25,246.87,554.49,246.39,540.67,246.05Z" transform="translate(-1.36 -0.1)" fill="#ea018b"></path>
        <path class="cls-1" d="M246.51,468.45c-.07-.38-.32-1-.18-1.11.47-.37.69.08.83.49A6.35,6.35,0,0,1,246.51,468.45Z" transform="translate(-1.36 -0.1)" fill="#ea018b"></path>
    </symbol>
    <symbol id="icon-arrow_pagination" viewBox="0 0 15 15" fill="none" xmlns="http://www.w3.org/2000/svg">
        <path d="M1.5 7.5L5.5 11.5M1.5 7.5L5.5 3.5M1.5 7.5L14 7.5" stroke="#E65497"></path>
    </symbol>
    <symbol id="icon-check_white" viewBox="0 0 14 10" fill="none" xmlns="http://www.w3.org/2000/svg">
        <path d="M0.933594 4.53338L5.13359 8.73338L13.0669 0.800049" stroke="white" stroke-linecap="square"/>
    </symbol>
</svg>