<svg width="12" height="11" viewBox="0 0 12 11" fill="none" xmlns="http://www.w3.org/2000/svg">
<path d="M1.14308 5.20572L3.67204 6.14872L4.65789 9.32061C4.70075 9.53493 4.95794 9.57779 5.12939 9.4492L6.54388 8.29189C6.67247 8.1633 6.88679 8.1633 7.05825 8.29189L9.58719 10.135C9.75864 10.2636 10.0158 10.1779 10.0587 9.96356L11.9447 0.962236C11.9875 0.747919 11.7732 0.533603 11.5589 0.61933L1.14308 4.6485C0.8859 4.73422 0.8859 5.11999 1.14308 5.20572ZM4.5293 5.67722L9.50146 2.63391C9.58718 2.59105 9.67292 2.71964 9.58719 2.7625L5.51516 6.57735C5.38657 6.70594 5.25798 6.8774 5.25798 7.09171L5.12939 8.12044C5.12939 8.24903 4.91507 8.29189 4.87221 8.12044L4.35784 6.23444C4.22925 6.02013 4.31499 5.76294 4.5293 5.67722Z" fill="white"/>
</svg>
