<svg width="13" height="14" viewBox="0 0 13 14" fill="none" xmlns="http://www.w3.org/2000/svg">
<path d="M9.43966 0.800253C7.34333 0.399916 5.16636 0.399916 3.07003 0.800253C2.1428 1.00042 0.973691 2.12136 0.77212 3.0021C0.409293 4.72355 0.409293 6.48503 0.77212 8.20648C1.01401 9.08722 2.18311 10.2082 3.07003 10.4083C3.11034 10.4083 3.15065 10.4484 3.15065 10.4884V13.0105C3.15065 13.1306 3.31191 13.2107 3.39254 13.0906L4.60196 11.8495C4.60196 11.8495 5.5695 10.8487 5.73076 10.6886C5.73076 10.6886 5.77107 10.6485 5.81139 10.6485C7.02081 10.6886 8.27055 10.5685 9.47997 10.3683C10.4072 10.1681 11.5763 9.04719 11.7779 8.16645C12.1407 6.445 12.1407 4.68352 11.7779 2.96207C11.536 2.12136 10.3669 1.00042 9.43966 0.800253ZM9.47997 8.32658C9.2784 8.72692 9.03652 9.04719 8.63338 9.24736C8.51244 9.28739 8.39149 9.32742 8.27055 9.36746C8.10929 9.32742 7.98835 9.28739 7.86741 9.24736C6.57736 8.72692 5.36793 8.00631 4.40039 6.96544C3.87631 6.36493 3.43285 5.68436 3.07003 4.96375C2.90877 4.60345 2.74751 4.28318 2.62657 3.92288C2.50563 3.60261 2.7072 3.28234 2.90877 3.04214C3.11034 2.80194 3.35223 2.6418 3.63442 2.5217C3.83599 2.4016 4.03757 2.48167 4.19882 2.6418C4.52134 3.04214 4.84385 3.44247 5.08573 3.88284C5.24699 4.16308 5.20667 4.48335 4.92448 4.68352C4.84385 4.72355 4.80353 4.76359 4.7229 4.84365C4.68259 4.88369 4.60196 4.92372 4.56165 5.00379C4.48102 5.12389 4.48102 5.24399 4.52133 5.36409C4.84385 6.28487 5.44856 7.00547 6.37578 7.40581C6.53704 7.48587 6.65798 7.52591 6.85956 7.52591C7.14175 7.48588 7.2627 7.16561 7.46427 7.00547C7.66584 6.84534 7.90772 6.84534 8.14961 6.96544C8.35118 7.08554 8.55275 7.24567 8.79463 7.40581C8.9962 7.56594 9.19777 7.68604 9.39934 7.84618C9.52029 7.92625 9.5606 8.12641 9.47997 8.32658ZM7.78678 5.32406C7.70615 5.32406 7.74646 5.32406 7.78678 5.32406C7.62552 5.32406 7.58521 5.24399 7.54489 5.12389C7.54489 5.04382 7.5449 4.92372 7.50458 4.84365C7.46427 4.68352 7.38364 4.52338 7.22238 4.40328C7.14176 4.36325 7.06112 4.32322 6.9805 4.28318C6.85955 4.24315 6.77893 4.24315 6.65798 4.24315C6.53704 4.20311 6.49673 4.12305 6.49673 4.00295C6.49673 3.92288 6.61767 3.84281 6.6983 3.84281C7.34332 3.88285 7.82709 4.24315 7.90772 5.00379C7.90772 5.04382 7.90772 5.12389 7.90772 5.16392C7.90772 5.24399 7.86741 5.32406 7.78678 5.32406ZM7.38364 3.56258C7.18207 3.48251 6.9805 3.40244 6.73861 3.36241C6.65798 3.36241 6.53704 3.32237 6.45641 3.32237C6.33547 3.32237 6.25484 3.24231 6.29516 3.12221C6.29516 3.0021 6.37579 2.92204 6.49673 2.96207C6.89987 3.0021 7.2627 3.08217 7.62552 3.24231C8.35118 3.60261 8.75432 4.20311 8.87526 5.00379C8.87526 5.04382 8.87526 5.08386 8.87526 5.12389C8.87526 5.20396 8.87526 5.28402 8.87526 5.40412C8.87526 5.44416 8.87526 5.48419 8.87526 5.52423C8.83495 5.68436 8.55275 5.72439 8.51243 5.52423C8.51243 5.48419 8.47212 5.40412 8.47212 5.36409C8.47212 5.00379 8.39149 4.64348 8.23024 4.32322C7.98835 3.96291 7.70615 3.72271 7.38364 3.56258ZM9.5606 5.9646C9.43966 5.9646 9.35903 5.8445 9.35903 5.72439C9.35903 5.48419 9.31872 5.24399 9.2784 5.00379C9.11715 3.72271 8.06898 2.68183 6.81924 2.48167C6.61767 2.44163 6.4161 2.44163 6.25484 2.4016C6.1339 2.4016 5.97264 2.4016 5.93233 2.24146C5.89201 2.12136 6.01296 2.00126 6.1339 2.00126C6.17421 2.00126 6.21453 2.00126 6.21453 2.00126C7.86741 2.0413 6.29516 2.00126 6.21453 2.00126C7.90772 2.0413 9.31872 3.16224 9.60091 4.84365C9.64123 5.12389 9.68155 5.40413 9.68155 5.72439C9.76217 5.8445 9.68154 5.9646 9.5606 5.9646Z" fill="white"/>
</svg>
