<svg width="8" height="5" viewBox="0 0 8 5" fill="none" xmlns="http://www.w3.org/2000/svg">
<path d="M7.86482 4.41828C7.86482 4.38715 7.83368 4.38715 7.83368 4.35602C7.70915 4.10695 7.42895 3.79561 7.05534 3.45314C6.86854 3.29747 6.77514 3.17294 6.71287 3.11067C6.61947 2.98614 6.61948 2.89274 6.65061 2.7682C6.68174 2.6748 6.80627 2.51913 7.02421 2.23893C7.14874 2.08326 7.21101 1.98986 7.30441 1.89646C7.77141 1.27379 7.98935 0.869051 7.92708 0.682249L7.89595 0.651119C7.86482 0.619985 7.83368 0.588852 7.77141 0.588852C7.70914 0.557719 7.61575 0.557719 7.52235 0.588852H6.33927C6.30814 0.588852 6.30813 0.588852 6.24587 0.588852C6.21473 0.588852 6.18361 0.588852 6.18361 0.588852H6.15247H6.12133L6.0902 0.619983C6.05907 0.651117 6.05906 0.651116 6.05906 0.682249C5.93453 1.02472 5.77886 1.30492 5.62319 1.61626C5.52979 1.77193 5.4364 1.9276 5.34299 2.05213C5.24959 2.17666 5.18732 2.27006 5.12506 2.33233C5.06279 2.3946 5.00052 2.42573 4.96939 2.488C4.93825 2.51913 4.87599 2.55027 4.87599 2.51913C4.84486 2.51913 4.81372 2.51913 4.81372 2.488C4.78259 2.45687 4.75146 2.42573 4.72032 2.3946C4.68919 2.36346 4.68918 2.3012 4.65805 2.23893C4.65805 2.17666 4.65805 2.11439 4.65805 2.08326C4.65805 2.05213 4.65805 1.95873 4.65805 1.89646C4.65805 1.80306 4.65805 1.74079 4.65805 1.70966C4.65805 1.61626 4.65805 1.49173 4.65805 1.36719C4.65805 1.24266 4.65805 1.14925 4.65805 1.08699C4.65805 1.02472 4.65805 0.93132 4.65805 0.869053C4.65805 0.775652 4.65805 0.713383 4.65805 0.682249C4.65805 0.651116 4.62693 0.588851 4.62693 0.557717C4.59579 0.526583 4.56465 0.495449 4.53352 0.464315C4.50239 0.433182 4.44012 0.433183 4.40899 0.402049C4.25332 0.370915 4.06652 0.339783 3.84859 0.339783C3.35045 0.339783 3.00798 0.370917 2.88344 0.433184C2.82117 0.464318 2.75891 0.49545 2.72777 0.557717C2.66551 0.619984 2.6655 0.651119 2.69664 0.651119C2.85231 0.682252 2.97684 0.744517 3.03911 0.837917L3.07025 0.900188C3.10138 0.931322 3.10137 0.993586 3.13251 1.08699C3.16364 1.18039 3.16364 1.27379 3.16364 1.39832C3.16364 1.58512 3.16364 1.77193 3.16364 1.89646C3.16364 2.05213 3.13251 2.14553 3.13251 2.23893C3.13251 2.33233 3.10138 2.3946 3.07025 2.42573C3.03911 2.488 3.03911 2.51913 3.00797 2.51913C3.00797 2.51913 3.00797 2.55027 2.97684 2.55027C2.94571 2.55027 2.91457 2.5814 2.85231 2.5814C2.82117 2.5814 2.75891 2.55027 2.72777 2.51913C2.66551 2.488 2.60324 2.42573 2.57211 2.36347C2.50984 2.3012 2.44757 2.2078 2.3853 2.08326C2.32304 1.95873 2.22963 1.83419 2.16736 1.64739L2.1051 1.52286C2.07397 1.46059 2.0117 1.33606 1.94943 1.18039C1.88717 1.02472 1.8249 0.900188 1.76263 0.74452C1.7315 0.682253 1.70037 0.651117 1.66923 0.619983H1.6381C1.6381 0.619983 1.60696 0.588852 1.57583 0.588852C1.54469 0.588852 1.51356 0.557717 1.48243 0.557717H0.361619C0.237084 0.557717 0.174818 0.58885 0.143684 0.619983L0.112549 0.651119C0.112549 0.651119 0.112549 0.682251 0.112549 0.713385C0.112549 0.744519 0.112551 0.77565 0.143684 0.837917C0.299352 1.21152 0.486153 1.58513 0.672955 1.95873C0.859756 2.3012 1.04656 2.61254 1.17109 2.83047C1.32676 3.04841 1.45129 3.26634 1.60696 3.45314C1.76263 3.63994 1.85603 3.76448 1.88716 3.82674C1.94943 3.88901 1.98056 3.92014 2.0117 3.95128L2.1051 4.04468C2.16737 4.10695 2.26077 4.20035 2.3853 4.29375C2.50984 4.38715 2.6655 4.48055 2.82117 4.57395C2.97684 4.66735 3.16364 4.72962 3.35045 4.79189C3.56838 4.85416 3.75518 4.88529 3.94198 4.85415H4.40899C4.50239 4.85415 4.56466 4.82302 4.62693 4.76075L4.65805 4.72962C4.65805 4.69848 4.68919 4.69848 4.68919 4.66735C4.68919 4.63622 4.68919 4.60509 4.68919 4.54282C4.68919 4.41828 4.68919 4.32488 4.72032 4.23148C4.75146 4.13808 4.75146 4.07582 4.78259 4.01355C4.81373 3.95128 4.84486 3.92014 4.87599 3.88901C4.90712 3.85788 4.93826 3.82674 4.93826 3.82674H4.96939C5.03165 3.79561 5.12506 3.82674 5.18733 3.88901C5.28073 3.95128 5.37412 4.04468 5.43639 4.13808C5.49866 4.23148 5.59207 4.32488 5.7166 4.44942C5.84114 4.57395 5.93453 4.66735 5.9968 4.69849L6.0902 4.76075C6.15247 4.79189 6.21474 4.82302 6.30814 4.85415C6.40154 4.88529 6.4638 4.88529 6.52607 4.88529L7.58462 4.85415C7.67802 4.85415 7.77141 4.82302 7.83368 4.79189C7.89595 4.76075 7.92708 4.72962 7.92708 4.66735C7.92708 4.63622 7.92708 4.57395 7.92708 4.54282C7.86481 4.48055 7.86482 4.44941 7.86482 4.41828Z" fill="white"/>
</svg>
