<svg width="44" height="30" viewBox="0 0 44 30" fill="none" xmlns="http://www.w3.org/2000/svg">
<rect x="0.25" width="43.75" height="30" fill="white"/>
<path fill-rule="evenodd" clip-rule="evenodd" d="M16.7091 20.1983C16.905 20.0966 17.2378 19.9631 17.5904 19.9631C18.3998 19.9631 18.8373 20.5096 18.8373 21.5266C18.8373 22.7146 18.25 23.293 17.3033 23.293C16.9571 23.293 16.4219 23.185 16.0301 22.9813V18.5461L16.7091 18.3872V20.1983ZM16.7027 22.7463C16.9114 22.8353 17.1401 22.8479 17.3033 22.8479C17.7864 22.8479 18.152 22.5557 18.152 21.5266C18.152 20.7193 17.8516 20.4588 17.4143 20.4588C17.153 20.4588 16.9639 20.5287 16.7027 20.6685V22.7463ZM9.74943 20.0455H9.79515L10.6828 23.2167H11.3878L12.4456 18.7111H11.6817L11.0158 22.0728H10.9703L10.0627 18.7111H9.48167L8.63304 22.0728H8.58731L7.8561 18.7111H7.125L8.18262 23.2167H8.88751L9.74943 20.0455ZM15.3384 23.0004V22.5175C14.9793 22.7272 14.6531 22.8479 14.3006 22.8479C13.6281 22.8479 13.3083 22.511 13.3083 21.7486H15.4363V21.5135C15.4363 20.4779 14.9336 19.9631 14.1178 19.9631C13.1386 19.9631 12.6358 20.6621 12.6358 21.6278C12.6358 22.632 13.0862 23.293 14.1829 23.293C14.6531 23.293 15.0447 23.1659 15.3384 23.0004ZM14.8161 21.3229H13.3215C13.3931 20.6876 13.6997 20.3889 14.0982 20.3889C14.4507 20.3889 14.7838 20.6556 14.8161 21.3229ZM21.8404 22.2634H21.8076L20.3453 18.7111H19.5554V23.2167H20.143V20.0267H20.2017L21.5336 23.2167H21.9513L23.2831 19.9504H23.342V23.2167H24.047V18.7111H23.2374L21.8404 22.2634ZM24.7652 21.6278C24.7652 20.5158 25.3919 19.9631 26.2536 19.9631C27.1154 19.9631 27.7422 20.5158 27.7422 21.6278C27.7422 22.7146 27.1481 23.293 26.2536 23.293C25.3591 23.293 24.7652 22.7146 24.7652 21.6278ZM27.0566 21.6278C27.0566 20.7701 26.6974 20.408 26.2536 20.408C25.8227 20.408 25.4505 20.7701 25.4505 21.6278C25.4505 22.4987 25.7902 22.8479 26.2536 22.8479C26.717 22.8479 27.0566 22.4987 27.0566 21.6278ZM30.0266 19.9631C29.2762 19.9631 28.6558 20.2617 28.3621 20.4333V23.2167H29.0411V20.7002C29.2434 20.586 29.5764 20.4714 29.8377 20.4714C30.1706 20.4714 30.4249 20.5604 30.4249 21.0624V23.2167H31.1038V20.9161C31.1038 20.2617 30.8103 19.9631 30.0266 19.9631ZM34.4135 22.5175V23.0004C34.1199 23.1659 33.7284 23.293 33.2581 23.293C32.1616 23.293 31.7111 22.632 31.7111 21.6278C31.7111 20.6621 32.2139 19.9631 33.193 19.9631C34.0092 19.9631 34.512 20.4779 34.512 21.5135V21.7486H32.3837C32.3837 22.511 32.7036 22.8479 33.3759 22.8479C33.7284 22.8479 34.0548 22.7272 34.4135 22.5175ZM32.3967 21.3229H33.8916C33.8591 20.6556 33.5259 20.3889 33.1734 20.3889C32.7751 20.3889 32.4686 20.6876 32.3967 21.3229ZM37.75 20.0711H37.0515L36.307 22.4094H36.2681L35.4325 20.0711H34.7143L35.9678 23.2484C35.8109 23.7185 35.537 24.0619 35.093 24.0619V24.5827C35.8434 24.5827 36.2418 24.1254 36.5683 23.2484L37.75 20.0711Z" fill="#0068A3"/>
<path fill-rule="evenodd" clip-rule="evenodd" d="M21.9997 5.39166C22.8981 5.39166 23.749 5.59531 24.5067 5.95686C24.6258 6.01181 24.7445 6.07228 24.8635 6.13904L24.3368 6.59791L23.5454 5.80143L22.2098 6.96104L21.4164 6.11825L18.9284 8.30125L20.5235 10.0123L19.8966 10.549L21.4677 12.2627L20.8446 12.7981L23.0896 15.2305L24.4222 14.0363L25.5744 15.316C25.3452 15.4894 25.0956 15.6526 24.8206 15.8034C23.9874 16.2659 23.0245 16.5307 21.9997 16.5307C18.8484 16.5307 16.2781 14.0285 16.2781 10.9613C16.2781 7.89351 18.8484 5.39166 21.9997 5.39166ZM20.9569 10.6092L22.3175 9.41658L23.5427 10.7413L22.1822 11.9335L20.9569 10.6092ZM23.2852 11.7053L21.9245 12.8976L23.1499 14.2224L24.5105 13.0297L23.2852 11.7053ZM19.9835 8.34755L21.3441 7.15524L22.5689 8.4796L21.2083 9.67192L19.9835 8.34755ZM23.5007 6.81156L22.4803 7.70572L23.399 8.69933L24.4194 7.80484L23.5007 6.81156ZM24.2933 11.8021L25.3141 10.9076L26.2328 11.9011L25.2124 12.7954L24.2933 11.8021ZM26.2112 12.9138L25.191 13.8084L26.1097 14.8014L27.1302 13.9071L26.2112 12.9138ZM25.602 9.21012L26.2823 8.6139L26.8947 9.27609L26.2147 9.87219L25.602 9.21012ZM25.4131 6.64646L24.7328 7.24256L25.3452 7.90474L26.0257 7.30864L25.4131 6.64646ZM26.4716 11.1776L27.1519 10.5814L27.7645 11.2434L27.0842 11.8396L26.4716 11.1776ZM24.4411 8.80867L23.4208 9.70327L24.3398 10.6962L25.3598 9.80195L24.4411 8.80867Z" fill="#0068A3"/>
</svg>
