<svg width="13" height="13" viewBox="0 0 13 13" fill="none" xmlns="http://www.w3.org/2000/svg">
<path d="M10.3598 2.63439C9.27317 1.55157 7.82439 0.950012 6.29512 0.950012C3.11585 0.950012 0.540243 3.51668 0.540243 6.68491C0.540243 7.68751 0.821951 8.69012 1.30488 9.5323L0.5 12.5L3.55854 11.6979C4.40366 12.1391 5.32927 12.3797 6.29512 12.3797C9.47439 12.3797 12.05 9.81303 12.05 6.6448C12.0098 5.16095 11.4463 3.7172 10.3598 2.63439ZM9.07195 8.73022C8.95122 9.05105 8.3878 9.37189 8.1061 9.41199C7.86463 9.4521 7.54268 9.4521 7.22073 9.37189C7.01951 9.29168 6.73781 9.21147 6.41585 9.05105C4.96707 8.44949 4.04146 7.00574 3.96098 6.88543C3.88049 6.80522 3.35732 6.12345 3.35732 5.40157C3.35732 4.6797 3.71951 4.35887 3.84024 4.19845C3.96098 4.03803 4.12195 4.03803 4.24268 4.03803C4.32317 4.03803 4.4439 4.03803 4.52439 4.03803C4.60488 4.03803 4.72561 3.99793 4.84634 4.27866C4.96707 4.55939 5.24878 5.28126 5.28902 5.32137C5.32927 5.40157 5.32927 5.48178 5.28902 5.56199C5.24878 5.6422 5.20854 5.72241 5.12805 5.80262C5.04756 5.88282 4.96707 6.00314 4.92683 6.04324C4.84634 6.12345 4.76585 6.20366 4.84634 6.32397C4.92683 6.48439 5.20854 6.92553 5.65122 7.32657C6.21463 7.80782 6.65732 7.96824 6.81829 8.04845C6.97927 8.12866 7.05975 8.08855 7.14024 8.00835C7.22073 7.92814 7.50244 7.6073 7.58293 7.44689C7.66342 7.28647 7.78415 7.32658 7.90488 7.36668C8.02561 7.40678 8.75 7.76772 8.87073 7.84793C9.03171 7.92814 9.11219 7.96824 9.15244 8.00835C9.19268 8.12866 9.19268 8.40939 9.07195 8.73022Z" fill="white"/>
</svg>
