<svg width="20" height="20" fill="none" xmlns="http://www.w3.org/2000/svg"><path fill-rule="evenodd" clip-rule="evenodd" d="M11.5 0H.5a.5.5 0 00-.5.5v9a.5.5 0 00.5.5h11a.5.5 0 00.5-.5v-9a.5.5 0 00-.5-.5zM10 8H2V2h8v6zm9.5-8h-5a.5.5 0 00-.5.5v9a.5.5 0 00.5.5h5a.5.5 0 00.5-.5v-9a.5.5 0 00-.5-.5zM16 8h2V2h-2v6zM.5 12h6a.5.5 0 01.5.5v7a.5.5 0 01-.5.5h-6a.5.5 0 01-.5-.5v-7a.5.5 0 01.5-.5zM5 18H2v-4h3v4zm15-5.5a.5.5 0 00-.5-.5h-10a.5.5 0 00-.5.5v7a.5.5 0 00.5.5h10a.5.5 0 00.5-.5v-7zM11 18h7v-4h-7v4z" fill="currentColor"/></svg>