<svg width="18" height="16" fill="none" xmlns="http://www.w3.org/2000/svg"><path fill-rule="evenodd" clip-rule="evenodd" d="M4 .667A.666.666 0 003.333 0H.667A.667.667 0 000 .667v2.666C0 3.702.299 4 .667 4h2.666A.666.666 0 004 3.333V.667zm0 6A.666.666 0 003.333 6H.667A.667.667 0 000 6.667v2.666c0 .369.299.667.667.667h2.666A.666.666 0 004 9.333V6.667zM3.333 12c.369 0 .667.299.667.667v2.666a.666.666 0 01-.667.667H.667A.667.667 0 010 15.333v-2.666C0 12.299.299 12 .667 12h2.666zM17.5 1h-11a.5.5 0 00-.5.5v1a.5.5 0 00.5.5h11a.5.5 0 00.5-.5v-1a.5.5 0 00-.5-.5zm-11 6h11a.5.5 0 01.5.5v1a.5.5 0 01-.5.5h-11a.5.5 0 01-.5-.5v-1a.5.5 0 01.5-.5zm11 6h-11a.5.5 0 00-.5.5v1a.5.5 0 00.5.5h11a.5.5 0 00.5-.5v-1a.5.5 0 00-.5-.5z" fill="currentColor"/></svg>