<svg width="316" height="80" fill="none" xmlns="http://www.w3.org/2000/svg"><g clip-path="url(#clip0_13873_34659)"><path d="M182.949 41.527h14.274v-5.054h-14.274v-6.065h15.567v-5.054h-10.515l-11.153 11.077v18.282h22.312V49.66h-16.211v-8.133zm23.084 4.128c0 1.662.89 4.771 6.224 4.771 2.912 0 6.131-.723 6.131-3.796 0-2.306-2.225-2.877-5.34-3.643l-5.905-1.454c-4.163-1.012-6.548-3.477-6.548-7.93 0-3.232 1.778-9.015 11.282-9.015 8.976 0 11.398 5.906 11.398 9.5h-5.862c-.159-1.331-.643-4.447-5.984-4.447-2.342 0-5.132.89-5.132 3.52 0 2.307 1.901 2.791 3.115 3.067l7.155 1.736c4.022 1.018 7.701 2.637 7.701 7.893 0 8.856-8.976 9.623-11.564 9.623-10.674 0-12.532-6.182-12.532-9.813l5.861-.012zm32.828 9.058h-6.131V30.408h-8.83v-5.054h23.815v5.054h-8.854v24.305zm22.238-29.359l10.307 29.36h-6.628l-1.901-6.066H252.08l-2.06 6.065h-6.432l10.424-29.359h7.087zm-7.4 18.24h7.842l-4.004-11.604h-.08l-3.758 11.604zm29.351 11.119h-6.131V30.408h-8.83v-5.054h23.815v5.054h-8.854v24.305zm32.3-29.359v5.054h-15.562v6.065h14.268v5.06h-14.268v8.127H316v5.053h-22.318V25.354h21.668z" fill="#B3B3B3"/><path d="M24.102 45.906a8.784 8.784 0 01-1.348 5.03 10.332 10.332 0 01-4.25 3.434 13.234 13.234 0 01-5.432 1.14C4.574 55.463.217 52.179 0 45.66h5.923a4.374 4.374 0 002.042 3.68 7.356 7.356 0 004.292 1.19 8.177 8.177 0 004.144-1.024 3.066 3.066 0 001.779-2.698c.032-1.742-1.494-2.98-4.58-3.717-5.09-1.227-7.95-1.99-8.585-2.288-3.028-1.43-4.543-3.884-4.543-7.36a8.821 8.821 0 011.374-4.716 8.584 8.584 0 014.022-3.213 14.05 14.05 0 015.598-1.104 13.033 13.033 0 017.842 2.33 8.941 8.941 0 013.887 7.274H17.31a4.331 4.331 0 00-2.005-3.392 6.744 6.744 0 00-3.838-1.06 7.437 7.437 0 00-3.47.778 3.114 3.114 0 00-1.883 2.779c0 1.66 1.553 2.858 4.66 3.594 5.232 1.25 8.12 2.001 8.663 2.25 3.103 1.387 4.654 3.7 4.654 6.943m29.553-5.716c0 4.984-1.267 8.852-3.802 11.604-2.42 2.613-5.714 3.921-9.884 3.925-4.66 0-8.236-1.458-10.73-4.373-2.493-2.915-3.738-6.94-3.734-12.076 0-4.359 1.253-7.901 3.759-10.629 2.587-2.829 6.045-4.26 10.374-4.293a13.235 13.235 0 019.645 3.797c2.914 2.89 4.372 6.897 4.372 12.02v.025zm-6.089.343c0-7.138-2.71-10.722-8.13-10.75a6.792 6.792 0 00-5.966 3.145 12.02 12.02 0 00-1.882 6.704 12.533 12.533 0 002.084 7.274 7.426 7.426 0 006.42 3.514 6.51 6.51 0 005.23-2.533c1.496-1.828 2.244-4.28 2.244-7.36m28.241 14.168H55.041v-29.39h6.169v24.036h14.586v5.354zm18.959-29.39l-9.97 29.39h-5.8L69.1 25.305h6.536l6.377 20.644 6.37-20.644h6.37zm23.581 29.39H96.024v-29.39h21.619V30.5h-15.61v6.25h14.341v5.15h-14.341v7.6h16.303v5.194zm24.918 0h-6.003v-7.562c0-1.497-.396-2.531-1.189-3.104-.683-.543-1.825-.815-3.428-.815h-6.542v11.48h-6.002V25.312h14.911c2.915 0 5.23.9 6.947 2.699a8.105 8.105 0 012.287 5.802 7.538 7.538 0 01-1.14 4.127 6.52 6.52 0 01-3.434 2.699 4.838 4.838 0 012.943 2.208 7.723 7.723 0 01.65 3.55v8.299zm-9.357-24.275h-7.805v7.844h7.64a4.507 4.507 0 003.354-1.226 3.687 3.687 0 001.103-2.693 3.736 3.736 0 00-1.06-2.698 4.36 4.36 0 00-3.232-1.227z" fill="#1F2639"/><path d="M213.072.018L170.103 43l-.447.46c-.613-1.975-2.048-3.471-4.292-4.477-.54-.252-3.428-.994-8.658-2.25-3.106-.737-4.66-1.935-4.66-3.595a3.117 3.117 0 011.877-2.778 7.463 7.463 0 013.476-.78 6.741 6.741 0 013.838 1.062 4.284 4.284 0 011.999 3.392h5.886a8.922 8.922 0 00-3.875-7.274 13.08 13.08 0 00-7.848-2.33 14.05 14.05 0 00-5.598 1.103 8.628 8.628 0 00-4.022 3.208 8.75 8.75 0 00-1.373 4.722c-.025 3.46 1.487 5.912 4.537 7.36.625.294 3.486 1.057 8.584 2.287 3.078.736 4.604 1.975 4.58 3.717a3.07 3.07 0 01-1.778 2.699 8.179 8.179 0 01-4.145 1.024 7.355 7.355 0 01-4.292-1.19 4.36 4.36 0 01-2.042-3.68h-5.941c.208 6.158 4.112 9.429 11.711 9.813l-24.526 24.533h.356L213.434.018h-.362z" fill="#1F2639"/></g><defs><clipPath id="clip0_13873_34659"><path fill="#fff" d="M0 0h316v80H0z"/></clipPath></defs></svg>