<svg width="175" height="40" fill="none" xmlns="http://www.w3.org/2000/svg"><g clip-path="url(#clip0_13869_35895)"><path d="M100.053 20.764h7.182v-2.527h-7.182v-3.033h7.833v-2.527h-5.291l-5.611 5.538v9.142h11.226V24.83h-8.157v-4.066zm11.616 2.063c0 .831.447 2.386 3.131 2.386 1.465 0 3.085-.362 3.085-1.898 0-1.153-1.12-1.438-2.687-1.822l-2.971-.726c-2.095-.506-3.295-1.739-3.295-3.965 0-1.616.895-4.508 5.677-4.508 4.516 0 5.735 2.953 5.735 4.75h-2.949c-.081-.666-.324-2.223-3.012-2.223-1.178 0-2.582.444-2.582 1.76 0 1.153.957 1.395 1.567 1.533l3.601.868c2.024.509 3.875 1.319 3.875 3.947 0 4.428-4.517 4.811-5.819 4.811-5.371 0-6.306-3.091-6.306-4.906l2.95-.007zm16.517 4.53h-3.085V15.204h-4.442v-2.527h11.982v2.527h-4.455v12.153zm11.19-14.68l5.186 14.68h-3.335l-.956-3.033h-5.433l-1.037 3.033h-3.236l5.245-14.68h3.566zm-3.724 9.12h3.946l-2.014-5.802h-.041l-1.891 5.802zm14.769 5.56h-3.085V15.204h-4.443v-2.527h11.983v2.527h-4.455v12.153zm16.252-14.68v2.527h-7.83v3.033h7.179v2.53h-7.179v4.063H167v2.527h-11.23v-14.68h10.903z" fill="#fff" fill-opacity=".7"/><path d="M20.128 22.953a4.37 4.37 0 01-.68 2.515 5.193 5.193 0 01-2.137 1.717c-.86.38-1.792.574-2.734.57C10.302 27.731 8.11 26.09 8 22.83h2.98a2.177 2.177 0 001.027 1.84 3.72 3.72 0 002.16.595 4.136 4.136 0 002.086-.512 1.54 1.54 0 00.894-1.35c.017-.87-.751-1.49-2.304-1.857-2.56-.614-4-.995-4.32-1.144-1.523-.716-2.285-1.943-2.285-3.68a4.39 4.39 0 01.69-2.358 4.314 4.314 0 012.024-1.607 7.108 7.108 0 012.817-.552 6.587 6.587 0 013.946 1.165 4.48 4.48 0 011.425 1.581c.34.633.523 1.338.53 2.056h-2.96a2.155 2.155 0 00-1.01-1.696 3.41 3.41 0 00-1.93-.53 3.761 3.761 0 00-1.747.39 1.552 1.552 0 00-.947 1.39c0 .828.781 1.427 2.345 1.795 2.632.626 4.085 1.001 4.359 1.126 1.56.693 2.341 1.85 2.341 3.471m14.871-2.858c0 2.492-.638 4.426-1.913 5.802-1.218 1.306-2.876 1.96-4.973 1.963-2.345 0-4.145-.73-5.4-2.187-1.254-1.457-1.88-3.47-1.878-6.038 0-2.18.63-3.95 1.891-5.314 1.302-1.415 3.042-2.13 5.22-2.147a6.696 6.696 0 014.853 1.898c1.466 1.446 2.2 3.45 2.2 6.01v.013zm-3.064.172c0-3.57-1.364-5.361-4.09-5.376a3.435 3.435 0 00-1.712.39 3.411 3.411 0 00-1.29 1.183 5.978 5.978 0 00-.948 3.352 6.238 6.238 0 001.05 3.637c.34.545.815.994 1.381 1.302a3.754 3.754 0 001.848.455 3.292 3.292 0 002.632-1.266c.753-.914 1.13-2.14 1.13-3.68m14.209 7.084H35.695V12.652H38.8V24.67h7.34v2.677zm9.539-14.695l-5.016 14.694h-2.919L42.77 12.653h3.289l3.208 10.322 3.206-10.322h3.205zm11.865 14.695H56.316V12.652h10.878v2.597h-7.855v3.125h7.216v2.576H59.34v3.8h8.203v2.596zm12.538 0h-3.02v-3.782c0-.748-.2-1.265-.599-1.551-.343-.272-.918-.408-1.724-.408h-3.292v5.74h-3.02V12.656h7.503c1.466 0 2.631.45 3.495 1.349a4.055 4.055 0 011.15 2.9A3.752 3.752 0 0180 18.97a3.276 3.276 0 01-1.728 1.349 2.43 2.43 0 011.481 1.104 3.83 3.83 0 01.327 1.775v4.15zM75.372 15.21h-3.927v3.922h3.844a2.282 2.282 0 001.688-.613 1.84 1.84 0 00.555-1.346 1.864 1.864 0 00-.534-1.35 2.196 2.196 0 00-1.626-.613z" fill="#fff" fill-opacity=".95"/><path d="M115.21.01L93.59 21.5l-.225.23c-.309-.988-1.03-1.736-2.16-2.24-.271-.125-1.724-.496-4.356-1.124-1.563-.369-2.345-.968-2.345-1.797a1.554 1.554 0 01.944-1.39 3.777 3.777 0 011.75-.39 3.41 3.41 0 011.93.531 2.153 2.153 0 011.007 1.696h2.961a4.443 4.443 0 00-.527-2.055 4.473 4.473 0 00-1.422-1.582 6.612 6.612 0 00-3.95-1.165 7.108 7.108 0 00-2.816.552 4.336 4.336 0 00-2.024 1.604 4.357 4.357 0 00-.691 2.361c-.012 1.73.749 2.956 2.283 3.68.315.147 1.754.528 4.32 1.144 1.548.368 2.316.987 2.304 1.858a1.526 1.526 0 01-.895 1.35 4.136 4.136 0 01-2.085.511 3.72 3.72 0 01-2.16-.595 2.186 2.186 0 01-1.027-1.84h-2.99c.105 3.08 2.07 4.715 5.893 4.907l-12.34 12.266h.178L115.392.01h-.182z" fill="#fff" fill-opacity=".95"/><path d="M116.5-1l-42 42" stroke="#fff" stroke-opacity=".95" stroke-width=".5"/></g><defs><clipPath id="clip0_13869_35895"><path fill="#fff" transform="translate(8)" d="M0 0h159v40H0z"/></clipPath></defs></svg>