<svg width="43" height="40" fill="none" xmlns="http://www.w3.org/2000/svg"><path d="M26.444 20.764h7.283v-2.527h-7.283v-3.034h7.942v-2.527H29.02l-5.69 5.538v9.141h11.388v-2.527h-8.273v-4.064z" fill="#fff" fill-opacity=".7"/><path d="M41.818 0l-21.93 21.49-.23.228c-.318-.988-1.045-1.736-2.192-2.24-.276-.123-1.75-.497-4.42-1.124-1.584-.367-2.378-.968-2.378-1.798.014-.6.334-1.062.959-1.39.513-.259 1.105-.388 1.773-.388.765 0 1.416.177 1.96.532.612.394.952.96 1.02 1.695h3.004c-.071-1.553-.73-2.765-1.98-3.637-1.101-.777-2.435-1.165-4.004-1.165-1.031 0-1.982.184-2.857.551-.918.381-1.604.917-2.053 1.605-.453.687-.686 1.474-.7 2.358-.014 1.73.757 2.957 2.315 3.68.32.15 1.78.53 4.378 1.145 1.571.367 2.35.987 2.336 1.858 0 .559-.3 1.008-.906 1.348-.605.342-1.31.512-2.117.512-.875 0-1.607-.198-2.19-.592-.666-.435-1.015-1.05-1.042-1.84H7.539c.104 3.077 2.1 4.709 5.975 4.904L1 40h.182L42 0h-.182z" fill="#fff" fill-opacity=".95"/><path d="M42 0L1 40" stroke="#fff" stroke-opacity=".95" stroke-width=".5"/></svg>