<svg width="14" height="14" fill="none" xmlns="http://www.w3.org/2000/svg"><path fill-rule="evenodd" clip-rule="evenodd" d="M.333 7A6.67 6.67 0 017 .333 6.67 6.67 0 0113.667 7 6.67 6.67 0 017 13.667 6.669 6.669 0 01.333 7zm1.334 0A5.34 5.34 0 007 12.333 5.34 5.34 0 0012.333 7 5.34 5.34 0 007 1.667 5.34 5.34 0 001.667 7zm5.762-2.667H5.333v5.334h1.123v-1.73h.945c.408 0 .755-.075 1.043-.226.288-.151.509-.362.661-.633a1.88 1.88 0 00.228-.937c0-.355-.075-.667-.225-.938a1.566 1.566 0 00-.649-.638c-.284-.154-.627-.232-1.03-.232zm-.973 2.7h.763c.216 0 .394-.036.534-.111a.74.74 0 00.317-.315.99.99 0 00.106-.466.965.965 0 00-.106-.464.711.711 0 00-.317-.31 1.152 1.152 0 00-.54-.112h-.757v1.779z" fill="#000" fill-opacity=".9"/></svg>