<svg width="20" height="20" fill="none" xmlns="http://www.w3.org/2000/svg"><path fill-rule="evenodd" clip-rule="evenodd" d="M0 10C0 4.48 4.48 0 10 0s10 4.48 10 10-4.48 10-10 10S0 15.52 0 10zm7.42-1.59h.93a.476.476 0 00.471-.411c.013-.094.031-.185.054-.273.054-.212.137-.397.25-.555a1.26 1.26 0 01.433-.38 1.31 1.31 0 01.63-.142c.36 0 .643.1.846.298.203.199.304.506.304.92.01.244-.033.447-.128.61a1.816 1.816 0 01-.372.447 8.15 8.15 0 01-.501.406c-.18.135-.352.295-.515.48a2.797 2.797 0 00-.426.67c-.019.04-.041.083-.066.13a2.47 2.47 0 00-.297.886.442.442 0 00.438.504h1.094a.447.447 0 00.447-.417c.03-.441.113-.541.21-.658l.042-.052c.14-.18.3-.34.48-.48.181-.14.373-.28.576-.42a2.636 2.636 0 00.975-1.225c.112-.28.169-.637.169-1.07a2.43 2.43 0 00-.731-1.692c-.262-.262-.607-.48-1.036-.656-.428-.176-.963-.264-1.604-.264a3.48 3.48 0 00-1.347.25 5.4 5.4 0 01-.164.065c-.23.087-.266.1-.865.632-.556.494-.676 1.37-.705 1.966a.41.41 0 00.409.43zM9.5 13h1a.5.5 0 01.5.5v1a.5.5 0 01-.5.5h-1a.5.5 0 01-.5-.5v-1a.5.5 0 01.5-.5z" fill="#000" fill-opacity=".65"/></svg>