<svg width="12" height="12" fill="none" xmlns="http://www.w3.org/2000/svg"><path fill-rule="evenodd" clip-rule="evenodd" d="M3.333 3.333A2.67 2.67 0 006 6a2.67 2.67 0 002.667-2.667A2.67 2.67 0 006 .667a2.67 2.67 0 00-2.667 2.666zm1.334 0a1.334 1.334 0 012.666 0c0 .736-.598 1.334-1.333 1.334a1.335 1.335 0 01-1.333-1.334zm-3.667 8A.333.333 0 01.667 11v-.333c0-2.356 2.193-4 5.333-4s5.333 1.644 5.333 4V11a.333.333 0 01-.333.333H1zM9.895 10H2.106c.399-1.205 1.89-2 3.895-2s3.495.795 3.894 2z" fill="#000" fill-opacity=".9"/></svg>