<svg width="24" height="24" fill="none" xmlns="http://www.w3.org/2000/svg"><path d="M23.95 2.43a.518.518 0 00-.35-.385c-.35-.135-.944.067-.944.067C22.658 2.114 1.63 9.75.43 10.595c-.259.181-.346.288-.388.411-.21.602.438.868.438.868l5.42 1.784c.092.016.186.01.275-.017 1.232-.787 12.403-7.915 13.05-8.154.101-.032.177.004.157.075-.26.914-9.961 9.627-9.961 9.627s-.037.046-.061.1l-.011-.007-.505 5.432s-.211 1.664 1.434 0a47.049 47.049 0 012.848-2.635c1.864 1.3 3.87 2.738 4.734 3.49.293.287.689.44 1.096.427.822-.031 1.051-.942 1.051-.942s3.833-15.58 3.96-17.667c.014-.203.03-.334.032-.475a1.758 1.758 0 00-.046-.482h-.002z" fill="#000" fill-opacity=".9"/></svg>