<svg width="27" height="28" viewBox="0 0 27 28" fill="none" xmlns="http://www.w3.org/2000/svg">
<path d="M26 17.6236C22.0285 19.2295 17.7839 20.0525 13.5 20.0473C9.07917 20.0473 4.86111 19.1861 1 17.6236M19.0556 7.54725V4.76948C19.0556 4.03276 18.7629 3.32623 18.242 2.80529C17.721 2.28436 17.0145 1.9917 16.2778 1.9917H10.7222C9.98551 1.9917 9.27897 2.28436 8.75804 2.80529C8.2371 3.32623 7.94444 4.03276 7.94444 4.76948V7.54725M13.5 15.8806H13.5139M3.77778 26.9917H23.2222C23.9589 26.9917 24.6655 26.699 25.1864 26.1781C25.7073 25.6572 26 24.9506 26 24.2139V10.325C26 9.58832 25.7073 8.88178 25.1864 8.36085C24.6655 7.83991 23.9589 7.54725 23.2222 7.54725H3.77778C3.04107 7.54725 2.33453 7.83991 1.81359 8.36085C1.29266 8.88178 1 9.58832 1 10.325V24.2139C1 24.9506 1.29266 25.6572 1.81359 26.1781C2.33453 26.699 3.04107 26.9917 3.77778 26.9917Z" stroke="currentColor" stroke-width="2" stroke-linecap="round" stroke-linejoin="round"/>
</svg>
