<svg width="27" height="23" viewBox="0 0 27 23" fill="none" xmlns="http://www.w3.org/2000/svg">
<path d="M14.8889 17.2283V3.33945C14.8889 2.97109 14.7426 2.61783 14.4821 2.35736C14.2216 2.09689 13.8684 1.95056 13.5 1.95056H2.38889C2.02053 1.95056 1.66726 2.09689 1.4068 2.35736C1.14633 2.61783 1 2.97109 1 3.33945V17.2283C1 17.5967 1.14633 17.95 1.4068 18.2104C1.66726 18.4709 2.02053 18.6172 2.38889 18.6172H3.77778M14.8889 17.2283C14.8889 17.5967 14.7426 17.95 14.4821 18.2104C14.2216 18.4709 13.8684 18.6172 13.5 18.6172H9.33333M14.8889 17.2283V6.11723C14.8889 5.74887 15.0352 5.3956 15.2957 5.13514C15.5562 4.87467 15.9094 4.72834 16.2778 4.72834H19.8694C20.2378 4.72842 20.591 4.8748 20.8514 5.13528L25.5931 9.87695C25.8535 10.1374 25.9999 10.4906 26 10.8589V17.2283C26 17.5967 25.8537 17.95 25.5932 18.2104C25.3327 18.4709 24.9795 18.6172 24.6111 18.6172H23.2222M14.8889 17.2283C14.8889 17.5967 15.0352 17.95 15.2957 18.2104C15.5562 18.4709 15.9094 18.6172 16.2778 18.6172H17.6667M3.77778 18.6172C3.77778 19.3539 4.07044 20.0605 4.59137 20.5814C5.1123 21.1023 5.81884 21.395 6.55556 21.395C7.29227 21.395 7.99881 21.1023 8.51974 20.5814C9.04067 20.0605 9.33333 19.3539 9.33333 18.6172M3.77778 18.6172C3.77778 17.8805 4.07044 17.174 4.59137 16.653C5.1123 16.1321 5.81884 15.8395 6.55556 15.8395C7.29227 15.8395 7.99881 16.1321 8.51974 16.653C9.04067 17.174 9.33333 17.8805 9.33333 18.6172M17.6667 18.6172C17.6667 19.3539 17.9593 20.0605 18.4803 20.5814C19.0012 21.1023 19.7077 21.395 20.4444 21.395C21.1812 21.395 21.8877 21.1023 22.4086 20.5814C22.9296 20.0605 23.2222 19.3539 23.2222 18.6172M17.6667 18.6172C17.6667 17.8805 17.9593 17.174 18.4803 16.653C19.0012 16.1321 19.7077 15.8395 20.4444 15.8395C21.1812 15.8395 21.8877 16.1321 22.4086 16.653C22.9296 17.174 23.2222 17.8805 23.2222 18.6172" stroke="currentColor" stroke-width="2" stroke-linecap="round" stroke-linejoin="round"/>
</svg>
