<svg width="18" height="23" viewBox="0 0 18 23" fill="none" xmlns="http://www.w3.org/2000/svg">
<path d="M5.57143 4.21807H3.28571C2.67951 4.21807 2.09812 4.4522 1.66947 4.86895C1.24082 5.28569 1 5.85092 1 6.44029V19.7736C1 20.363 1.24082 20.9282 1.66947 21.345C2.09812 21.7617 2.67951 21.9958 3.28571 21.9958H14.7143C15.3205 21.9958 15.9019 21.7617 16.3305 21.345C16.7592 20.9282 17 20.363 17 19.7736V6.44029C17 5.85092 16.7592 5.28569 16.3305 4.86895C15.9019 4.4522 15.3205 4.21807 14.7143 4.21807H12.4286M5.57143 4.21807C5.57143 4.80744 5.81224 5.37267 6.2409 5.78942C6.66955 6.20617 7.25093 6.44029 7.85714 6.44029H10.1429C10.7491 6.44029 11.3304 6.20617 11.7591 5.78942C12.1878 5.37267 12.4286 4.80744 12.4286 4.21807M5.57143 4.21807C5.57143 3.6287 5.81224 3.06347 6.2409 2.64672C6.66955 2.22998 7.25093 1.99585 7.85714 1.99585H10.1429C10.7491 1.99585 11.3304 2.22998 11.7591 2.64672C12.1878 3.06347 12.4286 3.6287 12.4286 4.21807M5.57143 14.2181L7.85714 16.4403L12.4286 11.9958" stroke="currentColor" stroke-width="2" stroke-linecap="round" stroke-linejoin="round"/>
</svg>
