<svg width="19" height="23" viewBox="0 0 19 23" fill="none" xmlns="http://www.w3.org/2000/svg">
<path d="M5.61538 17.5514V15.3292M9.07692 17.5514V13.107M12.5385 17.5514V10.8847M14.8462 21.9959H3.30769C2.69565 21.9959 2.10868 21.7617 1.67591 21.345C1.24313 20.9282 1 20.363 1 19.7736V4.21807C1 3.6287 1.24313 3.06347 1.67591 2.64672C2.10868 2.22998 2.69565 1.99585 3.30769 1.99585H9.75308C10.0591 1.99591 10.3525 2.11302 10.5688 2.32141L16.8158 8.33696C17.0322 8.54529 17.1538 8.82786 17.1538 9.12252V19.7736C17.1538 20.363 16.9107 20.9282 16.4779 21.345C16.0452 21.7617 15.4582 21.9959 14.8462 21.9959Z" stroke="currentColor" stroke-width="2" stroke-linecap="round" stroke-linejoin="round"/>
</svg>
