<svg width="27" height="27" viewBox="0 0 27 27" fill="none" xmlns="http://www.w3.org/2000/svg">
<path d="M6.47999 6.92234H6.49349M6.47999 1.52234H13.23C13.9212 1.52234 14.6124 1.78559 15.1389 2.31344L24.5889 11.7634C25.0951 12.2698 25.3794 12.9564 25.3794 13.6723C25.3794 14.3883 25.0951 15.0749 24.5889 15.5812L15.1389 25.0312C14.6326 25.5374 13.9459 25.8218 13.23 25.8218C12.514 25.8218 11.8274 25.5374 11.3211 25.0312L1.87109 15.5812C1.61999 15.3308 1.42084 15.0333 1.28508 14.7057C1.14932 14.3781 1.07962 14.0269 1.07999 13.6723V6.92234C1.07999 5.49017 1.64891 4.11666 2.66161 3.10396C3.67431 2.09127 5.04782 1.52234 6.47999 1.52234V1.52234Z" stroke="currentColor" stroke-width="2" stroke-linecap="round" stroke-linejoin="round"/>
</svg>
