<svg width="48" height="48" viewBox="0 0 48 48" fill="none" xmlns="http://www.w3.org/2000/svg">
<path d="M31.02 5.66003H16.98C12 5.66003 10.9 8.14003 10.26 11.18L8 22H40L37.74 11.18C37.1 8.14003 36 5.66003 31.02 5.66003Z" stroke="currentColor" stroke-width="2" stroke-linecap="round" stroke-linejoin="round"/>
<path d="M43.98 39.64C44.2 41.98 42.32 44 39.92 44H36.16C34 44 33.7 43.08 33.32 41.94L32.92 40.74C32.36 39.1 32 38 29.12 38H18.88C16 38 15.58 39.24 15.08 40.74L14.68 41.94C14.3 43.08 14 44 11.84 44H8.07996C5.67996 44 3.79996 41.98 4.01996 39.64L5.13996 27.46C5.41996 24.46 5.99996 22 11.24 22H36.76C42 22 42.58 24.46 42.86 27.46L43.98 39.64Z" stroke="currentColor" stroke-width="2" stroke-linecap="round" stroke-linejoin="round"/>
<path d="M8 16H6" stroke="currentColor" stroke-width="2" stroke-linecap="round" stroke-linejoin="round"/>
<path d="M42 16H40" stroke="currentColor" stroke-width="2" stroke-linecap="round" stroke-linejoin="round"/>
<path d="M24 6V10" stroke="currentColor" stroke-width="2" stroke-linecap="round" stroke-linejoin="round"/>
<path d="M21 10H27" stroke="currentColor" stroke-width="2" stroke-linecap="round" stroke-linejoin="round"/>
<path d="M12 30H18" stroke="currentColor" stroke-width="2" stroke-linecap="round" stroke-linejoin="round"/>
<path d="M30 30H36" stroke="currentColor" stroke-width="2" stroke-linecap="round" stroke-linejoin="round"/>
</svg>
