<svg width="48" height="48" viewBox="0 0 48 48" fill="none" xmlns="http://www.w3.org/2000/svg">
<path d="M16.76 24L21.58 28.84L31.24 19.16" stroke="currentColor" stroke-width="2" stroke-linecap="round" stroke-linejoin="round"/>
<path d="M21.5 4.90001C22.88 3.72001 25.14 3.72001 26.54 4.90001L29.7 7.62001C30.3 8.14001 31.42 8.56002 32.22 8.56002H35.62C37.74 8.56002 39.48 10.3 39.48 12.42V15.82C39.48 16.6 39.9 17.74 40.42 18.34L43.14 21.5C44.32 22.88 44.32 25.14 43.14 26.54L40.42 29.7C39.9 30.3 39.48 31.42 39.48 32.22V35.62C39.48 37.74 37.74 39.48 35.62 39.48H32.22C31.44 39.48 30.3 39.9 29.7 40.42L26.54 43.14C25.16 44.32 22.9 44.32 21.5 43.14L18.34 40.42C17.74 39.9 16.62 39.48 15.82 39.48H12.36C10.24 39.48 8.50001 37.74 8.50001 35.62V32.2C8.50001 31.42 8.08001 30.3 7.58001 29.7L4.88001 26.52C3.72001 25.14 3.72001 22.9 4.88001 21.52L7.58001 18.34C8.08001 17.74 8.50001 16.62 8.50001 15.84V12.4C8.50001 10.28 10.24 8.54001 12.36 8.54001H15.82C16.6 8.54001 17.74 8.12001 18.34 7.60001L21.5 4.90001Z" stroke="currentColor" stroke-width="2" stroke-linecap="round" stroke-linejoin="round"/>
</svg>
