<svg width="48" height="48" viewBox="0 0 48 48" fill="none" xmlns="http://www.w3.org/2000/svg">
<path d="M22 4H18C8 4 4 8 4 18V30C4 40 8 44 18 44H30C40 44 44 40 44 30V26" stroke="currentColor" stroke-width="2" stroke-linecap="round" stroke-linejoin="round"/>
<path d="M32.08 6.04002L16.32 21.8C15.72 22.4 15.12 23.58 15 24.44L14.14 30.46C13.82 32.64 15.36 34.16 17.54 33.86L23.56 33C24.4 32.88 25.58 32.28 26.2 31.68L41.96 15.92C44.68 13.2 45.96 10.04 41.96 6.04002C37.96 2.04002 34.8 3.32002 32.08 6.04002Z" stroke="currentColor" stroke-width="2" stroke-miterlimit="10" stroke-linecap="round" stroke-linejoin="round"/>
<path d="M29.82 8.30005C31.16 13.08 34.9 16.82 39.7 18.18" stroke="currentColor" stroke-width="2" stroke-miterlimit="10" stroke-linecap="round" stroke-linejoin="round"/>
</svg>
