<svg width="56" height="31" viewBox="0 0 56 31" fill="none" xmlns="http://www.w3.org/2000/svg">
<path d="M10.4735 25.085H10.4646C10.0116 25.085 9.6488 25.4523 9.6488 25.9053C9.6488 26.3584 10.0205 26.7257 10.4735 26.7257C10.9265 26.7257 11.2938 26.3584 11.2938 25.9053C11.2938 25.4523 10.9265 25.085 10.4735 25.085Z" fill="currentColor"/>
<path d="M17.4877 25.085H17.4789C17.0259 25.085 16.663 25.4523 16.663 25.9053C16.663 26.3584 17.0346 26.7257 17.4877 26.7257C17.9407 26.7257 18.308 26.3584 18.308 25.9053C18.308 25.4523 17.9407 25.085 17.4877 25.085Z" fill="currentColor"/>
<path d="M46.4209 25.085H46.4121C45.9591 25.085 45.5962 25.4523 45.5962 25.9053C45.5962 26.3584 45.9678 26.7257 46.4209 26.7257C46.8739 26.7257 47.2412 26.3584 47.2412 25.9053C47.2412 25.4523 46.8739 25.085 46.4209 25.085Z" fill="currentColor"/>
<path d="M55.2462 15.1671L54.1432 14.0642L51.9213 7.3982C52.2528 7.29287 52.4931 6.98279 52.4931 6.61649C52.4931 6.16346 52.1258 5.79618 51.6728 5.79618H43.7255V2.23295C43.7255 1.29714 42.9642 0.535889 42.0284 0.535889H1.69707C0.761252 0.535889 0 1.29725 0 2.23295V21.5217C0 22.4575 0.761252 23.2188 1.69707 23.2188H2.63026V25.0283C2.63026 25.9641 3.39151 26.7253 4.32732 26.7253H6.21634C6.6009 28.7204 8.35911 30.2324 10.4647 30.2324C11.9065 30.2324 13.185 29.5229 13.9717 28.4355C14.7585 29.5229 16.037 30.2324 17.4788 30.2324C19.5844 30.2324 21.3427 28.7204 21.7272 26.7253H42.1637C42.5483 28.7204 44.3065 30.2324 46.4121 30.2324C48.7982 30.2324 50.7394 28.2911 50.7394 25.905C50.7394 25.8862 50.7382 25.8677 50.738 25.849H54.3029C55.2388 25.849 56 25.0878 56 24.152V16.987C56.0001 16.2996 55.7324 15.6533 55.2462 15.1671ZM6.21634 25.0848H4.32732C4.29615 25.0848 4.27088 25.0596 4.27088 25.0284V23.2189H7.07581C6.65143 23.7533 6.35033 24.3894 6.21634 25.0848ZM10.4647 28.5919C8.98321 28.5919 7.778 27.3866 7.778 25.9052C7.778 24.4294 8.97424 23.2281 10.448 23.2189H10.4816C11.9554 23.228 13.1516 24.4293 13.1516 25.9052C13.1515 27.3866 11.9462 28.5919 10.4647 28.5919ZM17.4789 28.5919C15.9974 28.5919 14.7921 27.3866 14.7921 25.9052C14.7921 24.4294 15.9884 23.2281 17.4621 23.2189H17.4958C18.9695 23.228 20.1657 24.4293 20.1657 25.9052C20.1656 27.3866 18.9604 28.5919 17.4789 28.5919ZM42.1638 25.0848H21.7273C21.5933 24.3894 21.2922 23.7532 20.8677 23.2188H36.7677C37.2207 23.2188 37.588 22.8515 37.588 22.3985C37.588 21.9454 37.2207 21.5781 36.7677 21.5781H1.69707C1.66589 21.5781 1.64063 21.5529 1.64063 21.5217V2.23295C1.64063 2.20178 1.66589 2.17652 1.69707 2.17652H42.0283C42.0595 2.17652 42.0847 2.20178 42.0847 2.23295V21.5783H40.2751C39.8221 21.5783 39.4548 21.9455 39.4548 22.3986C39.4548 22.8516 39.8221 23.2189 40.2751 23.2189H43.0233C42.5988 23.7533 42.2978 24.3894 42.1638 25.0848ZM52.5804 14.5637H47.2889C47.2578 14.5637 47.2325 14.5384 47.2325 14.5073V10.9437H51.3738L52.5804 14.5637ZM46.4122 28.5919C44.9307 28.5919 43.7255 27.3866 43.7255 25.9052C43.7255 24.4294 44.9217 23.2281 46.3954 23.2189H46.4123C46.4141 23.2189 46.416 23.2187 46.418 23.2186C47.8968 23.2216 49.0991 24.4256 49.0991 25.9051C49.0989 27.3866 47.8937 28.5919 46.4122 28.5919ZM54.3595 24.1522C54.3595 24.1834 54.3342 24.2086 54.303 24.2086H50.3927C49.7315 22.6635 48.1964 21.5779 46.4122 21.5779C46.4065 21.5779 46.401 21.5784 46.3953 21.5784H43.7255V7.49357V7.49314C43.7255 7.46196 43.7507 7.4367 43.7819 7.4367H50.2048L50.8269 9.30308H46.4122C45.9591 9.30308 45.5919 9.67036 45.5919 10.1234V14.5073C45.5919 15.4431 46.3531 16.2043 47.2889 16.2043H53.9632L54.0862 16.3273C54.2624 16.5036 54.3595 16.7379 54.3595 16.9871V18.948H53.4263C52.9733 18.948 52.606 19.3153 52.606 19.7683C52.606 20.2213 52.9733 20.5886 53.4263 20.5886H54.3595V24.1522Z" fill="currentColor"/>
<path d="M39.3979 18.0713H4.32727C3.87424 18.0713 3.50696 18.4386 3.50696 18.8916C3.50696 19.3446 3.87424 19.7119 4.32727 19.7119H39.3979C39.8509 19.7119 40.2182 19.3446 40.2182 18.8916C40.2182 18.4386 39.8509 18.0713 39.3979 18.0713Z" fill="currentColor"/>
</svg>
