<svg width="48" height="49" viewBox="0 0 48 49" fill="none" xmlns="http://www.w3.org/2000/svg">
<path d="M38.7 6.53589H40.5V5.03589H36.75C36.551 5.03589 36.3603 5.11491 36.2196 5.25556C36.079 5.39621 36 5.58698 36 5.78589V9.53589H37.5V7.49589C41.7431 10.864 44.5766 15.6944 45.4458 21.0417C46.3149 26.389 45.1573 31.8681 42.1994 36.4068C39.2415 40.9454 34.6962 44.2169 29.4533 45.5808C24.2103 46.9446 18.6471 46.3028 13.8525 43.7809L13.1475 45.1009C18.2456 47.781 24.1571 48.4733 29.7366 47.0438C35.3161 45.6142 40.1663 42.1646 43.3476 37.3632C46.529 32.5618 47.8149 26.7505 46.9562 21.0551C46.0975 15.3598 43.1555 10.1859 38.7 6.53589Z" fill="currentColor"/>
<path d="M10.4999 41.5834C6.24661 38.2186 3.40377 33.3862 2.52896 28.034C1.65414 22.6817 2.81047 17.1956 5.77115 12.6518C8.73184 8.10794 13.2833 4.83411 18.5328 3.47235C23.7824 2.11059 29.3513 2.75916 34.1474 5.29086L34.8524 3.97086C29.7543 1.29079 23.8428 0.598456 18.2633 2.028C12.6838 3.45753 7.83357 6.90718 4.65225 11.7086C1.47094 16.51 0.185039 22.3213 1.0437 28.0166C1.90235 33.7119 4.84444 38.8858 9.29993 42.5359H7.49993V44.0359H11.2499C11.4488 44.0359 11.6396 43.9568 11.7803 43.8162C11.9209 43.6755 11.9999 43.4848 11.9999 43.2859V39.5359H10.4999V41.5834Z" fill="currentColor"/>
<path d="M6.75 24.5359C6.75 27.9476 7.76169 31.2827 9.65715 34.1195C11.5526 36.9562 14.2467 39.1672 17.3987 40.4728C20.5507 41.7784 24.0191 42.12 27.3653 41.4544C30.7115 40.7888 33.7851 39.1459 36.1976 36.7335C38.61 34.321 40.253 31.2474 40.9185 27.9012C41.5841 24.555 41.2425 21.0866 39.9369 17.9346C38.6313 14.7826 36.4203 12.0885 33.5836 10.193C30.7468 8.29758 27.4117 7.28589 24 7.28589C19.425 7.28589 15.0374 9.10329 11.8024 12.3383C8.56741 15.5733 6.75 19.9609 6.75 24.5359ZM39.75 24.5359C39.75 27.6509 38.8263 30.696 37.0956 33.2861C35.365 35.8762 32.9052 37.8949 30.0273 39.087C27.1493 40.2791 23.9825 40.591 20.9273 39.9833C17.8721 39.3755 15.0657 37.8755 12.8631 35.6728C10.6604 33.4701 9.16035 30.6638 8.55263 27.6086C7.94491 24.5534 8.25682 21.3866 9.4489 18.5086C10.641 15.6307 12.6597 13.1709 15.2498 11.4402C17.8398 9.70961 20.8849 8.78589 24 8.78589C28.1772 8.78589 32.1832 10.4453 35.1369 13.399C38.0906 16.3527 39.75 20.3587 39.75 24.5359Z" fill="currentColor"/>
<path d="M9.74988 24.5359C9.74988 27.3543 10.5856 30.1094 12.1514 32.4528C13.7172 34.7962 15.9428 36.6226 18.5466 37.7012C21.1505 38.7797 24.0157 39.0619 26.7799 38.5121C29.5441 37.9622 32.0833 36.6051 34.0761 34.6122C36.069 32.6193 37.4262 30.0802 37.9761 27.3159C38.5259 24.5517 38.2437 21.6865 37.1652 19.0827C36.0866 16.4788 34.2602 14.2533 31.9168 12.6874C29.5734 11.1216 26.8183 10.2859 23.9999 10.2859C20.2205 10.2859 16.596 11.7872 13.9236 14.4596C11.2512 17.132 9.74988 20.7566 9.74988 24.5359ZM32.0324 17.5684L33.5324 16.0684C35.4459 18.2035 36.58 20.9238 36.7499 23.7859H34.4999V25.2859H36.7499C36.5829 28.14 35.4571 30.8541 33.5549 32.9884L32.0549 31.4884L30.9899 32.5534L32.4899 34.0534C30.3509 35.9771 27.6217 37.1169 24.7499 37.2859V35.0359H23.2499V37.2859C20.3958 37.119 17.6817 35.9931 15.5474 34.0909L17.0474 32.5909L15.9824 31.5259L14.4824 33.0259C12.5723 30.8817 11.446 28.1531 11.2874 25.2859H13.4999V23.7859H11.2874C11.4543 20.9318 12.5801 18.2177 14.4824 16.0834L15.9824 17.5834L17.0474 16.5184L15.5474 15.0184C17.6817 13.1161 20.3958 11.9903 23.2499 11.8234V14.0359H24.7499V11.8234C27.604 11.9903 30.3181 13.1161 32.4524 15.0184L30.9524 16.5184L32.0324 17.5684Z" fill="currentColor"/>
<path d="M24.7499 15.5359H23.2499V24.5359C23.2493 24.6346 23.2682 24.7324 23.3056 24.8238C23.3429 24.9152 23.3979 24.9983 23.4674 25.0684L27.9674 29.5684L29.0324 28.5034L24.7499 24.2284V15.5359Z" fill="currentColor"/>
</svg>
