<svg width="20" height="15" viewBox="0 0 20 15" fill="none" xmlns="http://www.w3.org/2000/svg">
<path d="M9.98971 4.33723C10.0923 4.32888 10.1953 4.32466 10.2984 4.32466C11.1819 4.32466 11.9953 4.63024 12.6387 5.14114C12.8829 5.09208 13.1346 5.06634 13.391 5.06634C15.0207 5.06634 16.461 6.10302 17.0043 7.59869C17.1122 7.58959 17.2206 7.58501 17.3291 7.58501C17.6563 7.58501 17.974 7.62623 18.2775 7.70357C18.4908 7.10134 18.6073 6.45372 18.6073 5.77935C18.6073 2.59258 16.0147 0 12.828 0C10.9447 0 9.26904 0.905627 8.21326 2.30411C9.02318 2.73516 9.66623 3.45391 9.98971 4.33723Z" fill="#1C364F"/>
<path d="M9.45291 7.58493C9.56139 7.58493 9.66982 7.5895 9.77768 7.5986C10.0655 6.80629 10.6051 6.14285 11.2912 5.69402C10.9851 5.56699 10.6499 5.49648 10.2984 5.49648C10.0972 5.49648 9.89662 5.51957 9.70228 5.56516C9.54807 5.60133 9.38572 5.57352 9.25232 5.48797C9.11892 5.4025 9.02584 5.2666 8.99432 5.11137C8.74967 3.90769 7.67892 3.03406 6.44826 3.03406C5.21763 3.03406 4.14688 3.90769 3.9022 5.11141C3.87063 5.26668 3.77759 5.40254 3.64419 5.48801C3.51083 5.57348 3.34852 5.60141 3.19423 5.56516C2.99993 5.51957 2.79938 5.49648 2.59813 5.49648C1.16555 5.49648 0 6.66199 0 8.09465C0 9.52731 1.16555 10.6929 2.59821 10.6929H5.68091C6.02482 8.92426 7.58525 7.58493 9.45291 7.58493Z" fill="#1C364F"/>
<path d="M17.3291 8.75688C17.1222 8.75688 16.9161 8.78063 16.7163 8.82746C16.5621 8.86367 16.3997 8.83582 16.2663 8.75031C16.1329 8.66484 16.0398 8.52895 16.0083 8.37367C15.7568 7.13629 14.6561 6.23816 13.391 6.23816C12.1259 6.23816 11.0252 7.13629 10.7736 8.37367C10.7421 8.52895 10.649 8.6648 10.5156 8.75027C10.3822 8.83582 10.2199 8.86359 10.0656 8.82742C9.86593 8.78059 9.65975 8.75684 9.45288 8.75684C7.98014 8.75684 6.78194 9.955 6.78194 11.4278C6.78194 12.9006 7.98014 14.0987 9.45288 14.0987H17.3291C18.8018 14.0987 20 12.9006 20 11.4278C20 9.955 18.8019 8.75688 17.3291 8.75688Z" fill="#1C364F"/>
</svg>
