<svg width="19" height="21" viewBox="0 0 19 21" fill="none" xmlns="http://www.w3.org/2000/svg">
<path d="M0.355545 15.374C0.268752 15.5113 0.172721 15.6426 0.080034 15.7763C-0.0276818 15.9315 -0.019099 16.0938 0.0607658 16.2538C0.210258 16.5535 0.473533 16.7396 0.747907 16.9068C0.883336 16.9893 1.03197 17.0501 1.18739 17.1073C1.22113 17.1198 1.23688 17.1029 1.22351 17.0693C1.10763 16.7755 1.11521 16.5452 1.19876 16.3531C1.21314 16.32 1.25588 16.2887 1.29073 16.2791C1.34543 16.264 1.39889 16.2445 1.45077 16.2213C1.48368 16.2065 1.53711 16.1833 1.57117 16.1712C1.87129 16.0641 2.16689 15.9527 2.46812 15.8596C2.73801 15.7762 3.00056 15.8189 3.2585 15.9436C3.8109 16.2107 4.36078 16.4862 4.92811 16.7183C5.77867 17.0659 6.67393 17.1468 7.58581 17.0793C7.79845 17.0635 8.01023 17.043 8.22049 17.0152C8.25623 17.0104 8.28688 17.0356 8.29025 17.0714C8.2977 17.1512 8.3098 17.2308 8.32638 17.31C8.33382 17.3452 8.31163 17.3761 8.27629 17.3834C8.0295 17.4344 7.88366 17.6303 7.77777 17.8857C7.75512 17.9404 7.72417 17.9936 7.68805 18.0404C7.58609 18.1724 7.55713 18.2902 7.71279 18.4096C7.7464 18.4354 7.75371 18.5162 7.74795 18.5689C7.73289 18.7043 7.70828 18.8388 7.68398 18.9842C7.67808 19.0198 7.70142 19.0569 7.73517 19.0697C7.84698 19.1117 7.95877 19.1701 8.04639 19.1446C8.12442 19.122 8.17547 19.0064 8.23793 18.9035C8.25665 18.8726 8.2977 18.8655 8.32724 18.886C8.40038 18.9368 8.47267 18.9869 8.53805 19.0323C8.56773 19.0528 8.61299 19.0494 8.63918 19.0247C8.82311 18.8514 9.00132 18.6834 9.20496 18.4914C9.23126 18.4666 9.22354 18.4508 9.18793 18.4562C8.98867 18.4857 8.81722 18.5111 8.6306 18.5386C8.59486 18.5439 8.56759 18.519 8.56942 18.4829C8.57814 18.3096 8.58448 18.1482 8.60093 17.9879C8.60375 17.9608 8.66731 17.9189 8.70147 17.9201C8.77841 17.923 8.85507 17.938 8.94041 17.953C8.97598 17.9592 9.00018 17.9927 8.99439 18.0283C8.97795 18.1303 8.96219 18.2277 8.94603 18.3281C8.94027 18.3637 8.96402 18.3853 8.99777 18.3725C9.23023 18.2849 9.33642 18.0897 9.45679 17.8958C9.47578 17.8651 9.46593 17.8269 9.43415 17.8099C9.31319 17.7453 9.19393 17.6816 9.05991 17.6099C9.02813 17.5929 9.019 17.5552 9.03968 17.5255C9.09452 17.4468 9.14643 17.3721 9.19552 17.3016C9.2093 17.285 9.22154 17.267 9.23278 17.2482C9.24195 17.235 9.25108 17.2219 9.26008 17.2089C9.27514 17.1873 9.2841 17.1706 9.2799 17.1717C9.27579 17.1728 9.28579 17.1476 9.30213 17.1156C9.32729 17.0662 9.35263 17.017 9.37779 16.9676C9.39426 16.9355 9.42673 16.9316 9.45417 16.955C9.5045 16.9978 9.5633 17.0302 9.62686 17.0502C9.6613 17.061 9.71658 17.0782 9.74923 17.0935C9.94063 17.1832 10.1471 17.2748 10.3465 17.3797C10.5847 17.5052 10.6268 17.7432 10.6394 17.9796C10.6472 18.1221 10.5297 18.1876 10.4138 18.2499C10.2527 18.3366 10.0846 18.4214 9.94849 18.5399C9.77256 18.6932 9.78015 18.8109 9.90658 19.0078C9.9285 19.042 9.92626 19.1081 9.90937 19.1486C9.74051 19.5514 9.73895 19.5507 10.0536 19.8492C10.1079 19.901 10.1625 19.9526 10.2334 20.0196C10.2596 20.0444 10.2745 20.036 10.2669 20.0008C10.2368 19.8624 10.2125 19.7491 10.187 19.6361C10.1419 19.4359 10.1558 19.3629 10.2974 19.2251C10.3233 19.1999 10.3713 19.1933 10.4036 19.2092C10.4675 19.2405 10.5343 19.2733 10.6099 19.3104C10.6422 19.3263 10.6631 19.3173 10.6566 19.2902C10.6518 19.2699 10.6483 19.2554 10.6442 19.2412C10.5445 18.8956 10.5587 18.8404 10.8985 18.7161C10.9322 18.7037 10.9629 18.7232 10.9667 18.759C10.9907 18.9874 11.0145 19.2117 11.0376 19.436C11.0421 19.4793 11.0429 19.5229 11.0466 19.5662C11.0663 19.799 11.1481 19.8911 11.3754 19.9271C11.4083 19.9323 11.4521 19.9212 11.4793 19.9018C11.6098 19.8089 11.7375 19.7118 11.8889 19.5985C11.9177 19.5768 11.9121 19.5565 11.8761 19.5533C11.739 19.5413 11.624 19.5352 11.5124 19.5125C11.4644 19.5028 11.3914 19.4426 11.3903 19.4035C11.3809 19.1106 11.3843 18.8172 11.3847 18.5098C11.3847 18.4738 11.4123 18.4545 11.4464 18.4658C11.4995 18.4832 11.5539 18.5008 11.6001 18.5309C11.6396 18.5568 11.6747 18.6192 11.6768 18.6667C11.6812 18.7677 11.6706 18.8693 11.6616 18.9978C11.6591 19.0338 11.6795 19.0438 11.7068 19.0201C11.8899 18.8618 12.0455 18.7234 12.1246 18.5143C12.1595 18.4223 12.1526 18.3702 12.0508 18.3251C11.8425 18.2327 11.6287 18.1424 11.4425 18.0143C11.346 17.9479 11.288 17.8259 11.1984 17.6907C11.1784 17.6606 11.1905 17.6353 11.2265 17.6333C11.464 17.6201 11.6651 17.609 11.8733 17.5975C11.9093 17.5955 11.9253 17.5678 11.9079 17.5361C11.8203 17.3779 11.7153 17.229 11.7539 17.0223C11.7605 16.9868 11.789 16.9811 11.8158 17.0053C11.9394 17.1165 12.0711 17.1344 12.2112 17.0925C12.2458 17.082 12.2735 17.0642 12.2747 17.0563C12.2755 17.0504 12.2759 17.0449 12.2733 17.0424C12.0101 16.7911 11.9599 16.4673 12.1303 16.0612C12.1305 16.0608 12.1308 16.0602 12.1309 16.0598C12.1313 16.0589 12.1583 16.0467 12.1924 16.0347C12.3838 15.9677 12.5763 15.9684 12.7938 16.0347C13.0009 16.1133 13.111 16.2704 13.1925 16.562C13.3003 16.9469 13.3116 17.3339 13.1602 17.7138C13.0834 17.9063 12.9726 18.0716 12.7953 18.1863C12.765 18.2058 12.7664 18.2303 12.8005 18.2418C13.1199 18.3508 13.449 18.3472 13.6886 17.8164C13.7033 17.7835 13.7208 17.7849 13.7297 17.8199C13.7397 17.8582 13.7477 17.8881 13.7485 17.9184C13.7572 18.3338 13.9227 18.6826 14.2269 18.954C14.6938 19.3704 15.2226 19.6501 15.8757 19.6063C16.453 19.5676 17.13 19.0412 17.24 18.526C17.3258 18.1241 17.2656 17.7371 17.0573 17.3783C17.0275 17.3272 16.9879 17.2813 16.9508 17.2346C16.9436 17.2256 16.9338 17.2185 16.919 17.2084C16.9002 17.1955 16.8933 17.2127 16.9037 17.2471C16.9355 17.3516 16.9676 17.4412 16.9802 17.5335C17.0358 17.9391 16.7717 18.3109 16.3298 18.4689C15.9665 18.5989 15.64 18.4846 15.3717 18.2612C15.1645 18.0887 15.015 17.8453 14.8482 17.6271C14.82 17.5902 14.8101 17.5388 14.805 17.4793C14.8019 17.4435 14.8177 17.438 14.8408 17.4658C15.1058 17.7868 15.4275 17.7478 15.7833 17.6419C15.8179 17.6316 15.826 17.6012 15.8017 17.5747C15.6702 17.4309 15.5521 17.303 15.4361 17.1732C15.2398 16.9536 15.0994 16.6961 15.052 16.4107C15.028 16.2657 14.9855 16.1408 14.9268 16.0334C14.9095 16.0017 14.8831 15.9498 14.869 15.9166C14.7724 15.6889 14.6361 15.4818 14.4695 15.3025C14.4448 15.276 14.409 15.2305 14.3889 15.2005C14.324 15.1038 14.255 15.0197 14.1806 14.944C14.1553 14.9183 14.1255 14.8698 14.1051 14.8399C14.0882 14.8151 14.0656 14.7921 14.0368 14.7723C13.8598 14.6508 13.6773 14.5384 13.4901 14.4352C13.4586 14.4178 13.4103 14.3854 13.3818 14.3632C13.1557 14.1863 12.9076 14.04 12.6446 13.9282C12.6114 13.9142 12.6134 13.9001 12.6491 13.8959C13.2586 13.8243 13.8539 13.6941 14.4549 13.4956C14.4892 13.4844 14.4876 13.477 14.4518 13.4796C14.0033 13.5124 13.5957 13.5529 13.1873 13.5645C13.0208 13.5694 12.854 13.5649 12.6871 13.5578C12.6511 13.5563 12.6329 13.5263 12.6606 13.5033C12.7162 13.4571 12.8101 13.4355 12.8717 13.4125C12.9398 13.3872 13.0077 13.362 13.0756 13.3367C13.1094 13.3242 13.166 13.314 13.2021 13.3133C14.0204 13.2977 14.7971 13.0386 15.5605 12.7075C15.5935 12.6932 15.5913 12.6848 15.5555 12.6891C15.238 12.7277 14.921 12.7825 14.6026 12.7919C14.3961 12.798 14.1896 12.8011 13.983 12.8025C13.9469 12.8028 13.9118 12.7793 13.8987 12.7529C13.8857 12.7264 13.8752 12.7038 13.8814 12.6991C13.8852 12.6963 13.889 12.6937 13.8928 12.691C13.9547 12.6481 14.0173 12.606 14.0832 12.5699C14.1641 12.5256 14.2456 12.4877 14.3297 12.4551C14.3634 12.442 14.4197 12.4271 14.455 12.4199C14.5422 12.4022 14.6293 12.3813 14.7159 12.3564C15.2984 12.1896 15.8254 11.9027 16.3574 11.6176C16.3892 11.6006 16.3868 11.5944 16.3519 11.6037C15.7761 11.7568 15.196 11.867 14.61 11.9378C14.5743 11.9422 14.5286 11.935 14.5059 11.9271C14.4833 11.9194 14.4834 11.8959 14.5075 11.869C14.5728 11.7965 14.6369 11.7228 14.6996 11.648C14.7228 11.6204 14.7699 11.5914 14.8049 11.5831C15.7708 11.3563 16.6567 10.902 17.4466 10.1646C17.4729 10.1399 17.4672 10.1314 17.434 10.1452C17.3361 10.186 17.245 10.2221 17.1575 10.265C16.5445 10.5657 15.9098 10.7965 15.2591 10.9752C15.2243 10.9847 15.2126 10.9682 15.2328 10.9382C15.2976 10.8419 15.3603 10.7443 15.4211 10.6453C15.4399 10.6144 15.4827 10.5803 15.517 10.569C15.604 10.5404 15.691 10.5117 15.7779 10.4837C16.6419 10.2062 17.2751 9.58448 17.9151 8.98158C17.9414 8.95683 17.9566 8.92925 17.9492 8.91998C17.9418 8.91071 17.9103 8.91746 17.8789 8.93491C17.7851 8.98709 17.691 9.03869 17.5984 9.09271C17.2932 9.27046 16.9781 9.46256 16.6417 9.57534C16.5841 9.59475 16.0093 9.7614 16.0649 9.59082C16.1216 9.41813 16.3089 9.29197 16.4381 9.17553C16.6768 8.96065 16.9154 8.74574 17.1541 8.53086C17.3133 8.41032 17.466 8.28024 17.609 8.13526C18.1434 7.59396 18.545 6.95576 18.9763 6.33866C18.9969 6.30912 19.0058 6.27875 18.9961 6.27072C18.9864 6.26269 18.9568 6.27593 18.9301 6.30013C18.742 6.47113 18.5536 6.64199 18.3655 6.81303C17.7659 7.35812 17.1253 7.84289 16.4462 8.27083C16.4157 8.29009 16.3976 8.27703 16.4054 8.24187C16.4167 8.1921 16.4274 8.14201 16.4375 8.09197C16.4395 8.08211 16.4414 8.07242 16.4431 8.06256C16.4461 8.0464 16.466 8.01014 16.4883 7.98156C16.5526 7.89901 16.6168 7.81659 16.681 7.73404C16.7031 7.70564 16.7444 7.66486 16.7725 7.64235C17.0275 7.43802 17.2432 7.18684 17.4073 6.90123C17.4253 6.87 17.458 6.82192 17.481 6.79407C18.2545 5.85689 18.6771 4.76501 18.823 3.51616C18.8272 3.48028 18.8161 3.47676 18.7986 3.50841C18.553 3.95323 18.3334 4.36714 18.0969 4.77101C17.6495 5.53495 17.1269 6.23625 16.5035 6.8517C16.4779 6.877 16.4313 6.91161 16.399 6.92736C16.346 6.95321 16.2913 6.97548 16.2353 6.99402C16.2011 7.00526 16.1621 7.00119 16.1485 6.98699C16.135 6.97279 16.1412 6.93863 16.1626 6.90964C16.4185 6.5644 16.6343 6.19465 16.8081 5.80229C16.8228 5.76937 16.8498 5.71763 16.8686 5.68696C17.2563 5.05483 17.537 4.36924 17.7851 3.66859C17.7959 3.63791 17.8172 3.59996 17.8079 3.5749C17.6723 3.21025 17.7765 2.8325 17.7491 2.46151C17.6972 1.76414 17.3833 1.18554 17.0089 0.625415C16.9573 0.548204 16.903 0.472821 16.8351 0.403193C16.8099 0.377341 16.7964 0.386028 16.8069 0.420497C16.8711 0.632309 16.9402 0.842949 16.9947 1.05728C17.2176 1.93427 17.3324 2.81592 17.119 3.7157C17.0056 4.19455 16.7416 4.58832 16.4659 4.98155C16.0027 5.64239 15.4828 6.24163 14.7581 6.63062C14.3704 6.83877 13.9891 7.05982 13.5959 7.2573C12.2845 7.91562 11.0323 8.6687 9.85529 9.5436C9.42453 9.83513 9.01345 10.156 8.63246 10.5092C8.60603 10.5336 8.59703 10.5272 8.61192 10.4944C8.73105 10.2304 8.83004 9.96322 8.87616 9.67254C8.88181 9.63697 8.87461 9.61177 8.86099 9.61574C8.84748 9.61967 8.8399 9.6215 8.83807 9.62573C8.74597 9.84568 8.589 10.0192 8.43854 10.1975C8.41521 10.2251 8.38708 10.22 8.37498 10.186C8.3453 10.1023 8.31466 10.0191 8.28343 9.93596C8.27078 9.90221 8.27388 9.84906 8.29019 9.81683C8.5325 9.34247 8.72419 8.85084 8.83314 8.32598C8.84045 8.29068 8.83835 8.25859 8.82907 8.25425C8.81966 8.25004 8.79967 8.27296 8.78506 8.30588C8.76565 8.34962 8.74638 8.39336 8.72091 8.43328C8.52109 8.74801 8.32024 9.06234 8.11801 9.37552C8.09847 9.40575 8.07134 9.40337 8.05724 9.37018C8.0155 9.27188 7.97259 9.17402 7.92871 9.07668C7.91396 9.04376 7.91154 8.98978 7.9235 8.95573C8.14373 8.33032 8.30814 7.69102 8.38508 7.0247C8.38928 6.98882 8.38284 6.95635 8.37115 6.95214C8.3595 6.9479 8.34051 6.9721 8.32951 7.00643C8.30742 7.07575 8.28664 7.14565 8.2561 7.21049C8.06428 7.61905 7.8719 8.0273 7.67781 8.43473C7.66233 8.4672 7.63648 8.46764 7.62 8.43555C7.53097 8.26186 7.43832 8.09014 7.34211 7.92041C7.3244 7.88905 7.31568 7.83503 7.32285 7.79974C7.40988 7.36436 7.47137 6.92388 7.51005 6.47919C7.52256 6.33504 7.51453 6.1892 7.51256 6.02706C7.51215 5.99108 7.50243 5.98939 7.49047 6.02341C7.33608 6.4633 7.18628 6.89027 7.03806 7.31272C7.0261 7.34674 7.00094 7.34957 6.98167 7.31907C6.91063 7.20725 6.83807 7.09657 6.76396 6.98689C6.74373 6.95707 6.73205 6.90406 6.73753 6.86845C6.85131 6.13743 6.8935 5.40334 6.82415 4.65895C6.82077 4.62307 6.80488 4.59229 6.78899 4.59018C6.7731 4.58808 6.75566 4.61524 6.751 4.65095C6.73991 4.73675 6.73118 4.82323 6.70813 4.90578C6.57973 5.36453 6.45074 5.82314 6.31983 6.28117C6.30983 6.31574 6.28412 6.32067 6.26216 6.29213C6.1792 6.18441 6.09454 6.07808 6.00833 5.97301C5.98541 5.94516 5.96797 5.89342 5.96894 5.85741C5.99624 4.93949 5.88004 4.03702 5.5853 3.14641C5.57389 3.11225 5.57402 3.11225 5.58333 3.147C5.713 3.63836 5.56348 4.52635 5.47899 5.03615C5.4731 5.07172 5.43918 5.10464 5.4032 5.1035C5.22585 5.09788 5.07988 4.98044 4.99718 4.81168C4.90774 4.62913 4.89664 4.41987 4.87751 4.2175C4.80692 3.46694 4.60382 2.72903 4.28064 2.04782C4.26516 2.01521 4.2552 2.01814 4.25872 2.05402C4.3289 2.77125 4.3926 3.49958 4.26068 4.20627C4.25407 4.2417 4.23538 4.24394 4.21963 4.21161C3.66654 3.06955 3.11342 1.92745 2.56029 0.785352C2.54454 0.752882 2.53751 0.75526 2.5444 0.790694C2.70306 1.59948 2.86179 2.4084 3.02045 3.21718C3.02735 3.25261 3.00963 3.26375 2.98136 3.24138C2.43258 2.80772 2.0488 2.16939 1.92347 1.48097C1.91699 1.44554 1.91406 1.44581 1.91475 1.4818C1.91923 1.72074 1.907 2.25067 2.01658 2.45062C2.03388 2.48226 2.03402 2.48281 2.00716 2.45876C1.97411 2.42908 1.94105 2.39954 1.90803 2.36986C1.88118 2.3458 1.8453 2.30068 1.82799 2.26918C1.72507 2.08215 1.62115 1.89608 1.50947 1.71481C1.31034 1.39135 1.11304 1.06114 0.86972 0.771874C0.642293 0.501464 0.364955 0.272935 0.105369 0.0293761C0.0790689 0.00476522 0.0488395 -0.00674744 0.0374303 0.00407584C0.026021 0.0148991 0.0318118 0.0486443 0.0503562 0.0795975C0.187612 0.309541 0.327694 0.53776 0.459607 0.770806C1.10077 1.90332 1.59002 3.09461 1.85274 4.37424C2.05218 5.34602 2.01333 6.31877 1.88804 7.29421C1.78891 8.06615 1.65868 8.83119 1.37952 9.56166C1.31172 9.739 1.21934 9.90693 1.13003 10.0878C1.114 10.1201 1.12455 10.1644 1.15295 10.1866C1.28683 10.2912 1.42536 10.4024 1.57051 10.5036C1.59805 10.5229 1.66854 10.4999 1.70932 10.478C1.95274 10.3477 2.19268 10.2108 2.43527 10.0789C2.45326 10.069 2.47336 10.0631 2.4939 10.0582C2.52751 10.0502 2.5576 10.0488 2.56129 10.0548C2.56481 10.0609 2.54623 10.0853 2.51965 10.1098C2.49942 10.1284 2.47915 10.1469 2.45892 10.1655C2.43234 10.1898 2.43837 10.1998 2.47257 10.1884C2.76383 10.0908 3.05706 10.0288 3.36531 10.0405C4.05683 10.0668 4.68882 10.8788 4.51065 11.5192C4.426 11.8236 4.21418 12.0346 3.96935 12.2131C3.46503 12.581 2.87971 12.7713 2.29471 12.9611C1.97956 13.0634 1.66678 13.1736 1.35077 13.2729C0.794957 13.4474 0.578974 13.8886 0.465467 14.4038C0.44351 14.5032 0.432687 14.6052 0.429171 14.7095C0.427896 14.7455 0.418072 14.8025 0.41104 14.8378C0.396563 14.9102 0.397391 14.9868 0.415521 15.0626C0.422691 15.0924 0.429895 15.1221 0.437065 15.152C0.44551 15.187 0.437202 15.2404 0.41821 15.271C0.398011 15.3061 0.376951 15.3402 0.355545 15.374Z" fill="#1C364F"/>
</svg>
