<svg width="22" height="23" viewBox="0 0 22 23" fill="none" xmlns="http://www.w3.org/2000/svg">
<path d="M7.50561 3.27909C7.61401 3.51756 7.84911 3.65857 8.09504 3.65857C8.18459 3.65857 8.27561 3.63985 8.3624 3.60038C8.68774 3.45251 8.83161 3.06893 8.68369 2.74359L7.82094 0.845549C7.67303 0.520207 7.28936 0.376302 6.96415 0.524262C6.63881 0.672137 6.49495 1.05571 6.64287 1.38105L7.50561 3.27909Z" fill="#1C364F"/>
<path d="M13.6376 3.60036C13.7245 3.63983 13.8154 3.65855 13.9049 3.65855C14.1509 3.65855 14.386 3.51754 14.4944 3.27908L15.3571 1.38104C15.505 1.05569 15.3612 0.672075 15.0358 0.524244C14.7104 0.376326 14.3269 0.520189 14.179 0.84553L13.3163 2.74357C13.1684 3.06891 13.3122 3.45249 13.6376 3.60036Z" fill="#1C364F"/>
<path d="M11 3.18495C11.3574 3.18495 11.6471 2.89524 11.6471 2.53789V0.647059C11.6471 0.28971 11.3574 0 11 0C10.6427 0 10.353 0.28971 10.353 0.647059V2.53789C10.353 2.89524 10.6427 3.18495 11 3.18495Z" fill="#1C364F"/>
<path d="M4.4384 9.40423C5.51467 9.40423 6.39036 8.52854 6.39036 7.45184C6.39036 6.37556 5.51467 5.49988 4.4384 5.49988C3.36169 5.49988 2.48601 6.37556 2.48601 7.45184C2.48601 8.52854 3.36169 9.40423 4.4384 9.40423Z" fill="#1C364F"/>
<path d="M8.55369 14.1617C7.90425 13.4172 7.64992 12.4532 7.79188 11.5329C7.21471 11.0136 6.45204 10.6982 5.6169 10.6982H3.25988C1.46235 10.6982 0 12.1606 0 13.9577V16.9959C0 17.2341 0.193125 17.4272 0.431373 17.4272H1.80486V14.6478C1.80486 14.2995 2.07231 13.9997 2.42022 13.983C2.7918 13.9652 3.09898 14.2616 3.09898 14.6293V17.4272H5.40423C5.79808 15.8588 7.00765 14.6108 8.55369 14.1617Z" fill="#1C364F"/>
<path d="M17.5616 9.40423C18.6383 9.40423 19.514 8.52854 19.514 7.45184C19.514 6.37556 18.6383 5.49988 17.5616 5.49988C16.4853 5.49988 15.6096 6.37556 15.6096 7.45184C15.6096 8.52854 16.4853 9.40423 17.5616 9.40423Z" fill="#1C364F"/>
<path d="M18.7401 10.6982H16.3831C15.548 10.6982 14.7853 11.0136 14.2081 11.5329C14.3501 12.4534 14.0956 13.4173 13.4463 14.1617C14.9924 14.6108 16.2019 15.8588 16.5958 17.4272H18.901V14.6478C18.901 14.2995 19.1685 13.9997 19.5164 13.983C19.888 13.9652 20.1951 14.2616 20.1951 14.6293V17.4272H21.5686C21.8069 17.4272 22 17.2341 22 16.9958V13.9577C22 12.1606 20.5377 10.6982 18.7401 10.6982Z" fill="#1C364F"/>
<path d="M11 13.9822C12.0326 13.9822 12.952 13.1524 12.952 12.0303C12.952 10.9552 12.0778 10.0779 11 10.0779C9.93623 10.0779 9.02397 10.944 9.0489 12.0898C9.08099 13.1427 9.94685 13.9822 11 13.9822Z" fill="#1C364F"/>
<path d="M12.4766 15.2903C12.2767 15.2719 12.4139 15.2765 9.82148 15.2765C8.02607 15.2765 6.5616 16.7372 6.5616 18.5364V21.5746C6.5616 21.8128 6.75473 22.0059 6.99297 22.0059H8.17364V19.7792C8.17364 19.4119 8.47978 19.1157 8.85133 19.1328C9.19962 19.1489 9.46776 19.4488 9.46776 19.7974V22.0059H12.5322V19.7974C12.5322 19.4488 12.8004 19.1489 13.1487 19.1328C13.5202 19.1157 13.8263 19.4118 13.8263 19.7792V22.0059H15.007C15.2453 22.0059 15.4384 21.8128 15.4384 21.5746V18.5364C15.4384 16.8274 14.1194 15.4365 12.4766 15.2903Z" fill="#1C364F"/>
</svg>
