<svg width="18" height="21" viewBox="0 0 18 21" fill="none" xmlns="http://www.w3.org/2000/svg">
<path d="M18 13.28C18 12.62 17.46 12.08 16.8 12.08C17.46 12.08 18 11.54 18 10.88C18 10.22 17.46 9.68001 16.8 9.68001H11.88C12.612 7.48397 12.6 6.78401 12.6 5.44001C12.6 4.44157 11.7814 3.64001 10.8 3.64001H10.44C10.212 3.64001 9.924 3.82005 9.86396 4.09601C9.27032 6.40725 8.3422 9.05937 6 9.59657V18.2791L8.07596 18.968C8.68796 19.1719 9.324 19.28 9.972 19.28H15.6C16.2628 19.28 16.8 18.7427 16.8 18.08C16.8 17.4173 16.2628 16.88 15.6 16.88H16.8C17.46 16.88 18 16.34 18 15.68C18 15.02 17.46 14.48 16.8 14.48C17.46 14.48 18 13.94 18 13.28Z" fill="#1C364F"/>
<path d="M3 8.47998H0.6C0.26836 8.47998 0 8.74834 0 9.07998V19.88C0 20.2116 0.26836 20.48 0.6 20.48H3C3.99256 20.48 4.8 19.6725 4.8 18.68V10.28C4.8 9.28742 3.99256 8.47998 3 8.47998ZM3 18.08C2.66864 18.08 2.4 17.8113 2.4 17.48C2.4 17.1485 2.66864 16.88 3 16.88C3.33136 16.88 3.6 17.1485 3.6 17.48C3.6 17.8113 3.33136 18.08 3 18.08Z" fill="#1C364F"/>
<path d="M8.25414 2.64579L7.4057 1.79735C7.17133 1.56299 6.79162 1.56299 6.55725 1.79735C6.32289 2.03171 6.32289 2.41143 6.55725 2.64579L7.4057 3.49423C7.64006 3.72859 8.01973 3.72859 8.25414 3.49423C8.48849 3.25987 8.48849 2.88015 8.25414 2.64579Z" fill="#1C364F"/>
<path d="M15.0427 1.79735C14.8084 1.56299 14.4287 1.56299 14.1943 1.79735L13.3459 2.64579C13.1115 2.88015 13.1115 3.25987 13.3459 3.49423C13.5802 3.72859 13.9599 3.72859 14.1943 3.49423L15.0427 2.64579C15.2771 2.41143 15.2771 2.03171 15.0427 1.79735Z" fill="#1C364F"/>
<path d="M10.8 0C10.464 0 10.2 0.26396 10.2 0.6V1.84C10.2 2.17604 10.464 2.44 10.8 2.44C11.136 2.44 11.4 2.17604 11.4 1.84V0.6C11.4 0.26396 11.136 0 10.8 0Z" fill="#1C364F"/>
</svg>
