<svg width="15" height="51" viewBox="0 0 15 51" fill="none" xmlns="http://www.w3.org/2000/svg">
<path d="M12.2569 30.1027C10.9002 28.7468 9.09726 28.0001 7.17991 28.0001C3.22094 28.0001 0 31.221 0 35.18V43.8202C0 47.7792 3.22094 51.0001 7.17991 51.0001C11.1389 51.0001 14.3598 47.7792 14.3598 43.8202V35.18C14.3598 33.2626 13.6131 31.4596 12.2569 30.1027ZM13.1429 43.8202C13.1429 47.1082 10.468 49.7831 7.17991 49.7831C3.89185 49.7831 1.21693 47.1082 1.21693 43.8202V35.18C1.21693 31.8919 3.8919 29.217 7.17991 29.217C8.77225 29.217 10.2698 29.8372 11.3964 30.9632C12.5227 32.0901 13.1429 33.5876 13.1429 35.18V43.8202Z" fill="white"/>
<path d="M7.18052 31.7726C6.84446 31.7726 6.57205 32.045 6.57205 32.381V33.8109C6.57205 34.147 6.84446 34.4194 7.18052 34.4194C7.51658 34.4194 7.78899 34.147 7.78899 33.8109V32.381C7.78899 32.045 7.51653 31.7726 7.18052 31.7726Z" fill="white"/>
<path d="M7.18052 34.8326C6.84446 34.8326 6.57205 35.105 6.57205 35.4411V35.6211C6.57205 35.9572 6.84446 36.2296 7.18052 36.2296C7.51658 36.2296 7.78899 35.9572 7.78899 35.6211V35.4411C7.78899 35.105 7.51653 34.8326 7.18052 34.8326Z" fill="white"/>
<line x1="6.5" y1="22.0001" x2="6.5" y2="6.10597e-05" stroke="white"/>
</svg>
