<svg width="76" height="76" viewBox="0 0 76 76" fill="none" xmlns="http://www.w3.org/2000/svg">
<path d="M38 0C17.0135 0 0 17.0132 0 38C0 58.9868 17.0135 76 38 76C58.9865 76 76 58.9868 76 38C76 17.0132 58.9865 0 38 0ZM51.1338 40.0143L32.1338 51.8893C31.7493 52.1293 31.3121 52.25 30.875 52.25C30.479 52.25 30.0823 52.1514 29.7234 51.9519C28.9685 51.5333 28.5 50.7389 28.5 49.875V26.125C28.5 25.2611 28.9685 24.4667 29.7234 24.0481C30.4784 23.6271 31.4015 23.6526 32.1338 24.1107L51.1338 35.9857C51.8278 36.4206 52.25 37.1814 52.25 38C52.25 38.8186 51.8278 39.5795 51.1338 40.0143Z" fill="white" fill-opacity="0.68"/>
</svg>
