<svg width="16" height="16" viewBox="0 0 16 16" fill="none" xmlns="http://www.w3.org/2000/svg">
<path d="M4.28409 9.30151C4.51868 11.1431 6.09568 12.5714 7.99999 12.5714C9.90431 12.5714 11.4813 11.1431 11.7159 9.30151H4.28409Z" fill="#1C364F"/>
<path d="M13.6568 2.34316C12.1459 0.832156 10.1369 0 8 0C5.86312 0 3.85413 0.832156 2.34316 2.34316C0.832125 3.85413 0 5.86312 0 8C0 10.1369 0.832125 12.1459 2.34316 13.6568C3.85413 15.1678 5.86312 16 8 16C10.1369 16 12.1459 15.1678 13.6568 13.6568C15.1679 12.1459 16 10.1369 16 8C16 5.86312 15.1679 3.85413 13.6568 2.34316ZM9.7305 5.88737C10.5103 5.10753 11.7791 5.10759 12.5589 5.88737C12.7449 6.07331 12.7449 6.37484 12.5589 6.56081C12.4659 6.65381 12.3441 6.70031 12.2222 6.70031C12.1004 6.70031 11.9785 6.65381 11.8855 6.56081C11.477 6.15231 10.8124 6.15234 10.404 6.56081C10.218 6.74675 9.9165 6.74675 9.73053 6.56081C9.54453 6.37484 9.54453 6.07334 9.7305 5.88737ZM3.44109 5.88737C4.22087 5.10759 5.48972 5.10753 6.2695 5.88737C6.45547 6.07331 6.45547 6.37484 6.2695 6.56081C6.1765 6.65381 6.05466 6.70031 5.93281 6.70031C5.81097 6.70031 5.68906 6.65381 5.59613 6.56081C5.18766 6.15238 4.52303 6.15234 4.11456 6.56081C3.92863 6.74675 3.62709 6.74675 3.44112 6.56081C3.25512 6.37484 3.25513 6.07334 3.44109 5.88737ZM8 13.5238C5.40931 13.5238 3.30159 11.4161 3.30159 8.82541C3.30159 8.56244 3.51481 8.34922 3.77778 8.34922H12.2222C12.4852 8.34922 12.6984 8.56244 12.6984 8.82541C12.6984 11.4161 10.5907 13.5238 8 13.5238Z" fill="#1C364F"/>
</svg>
