<svg width="26" height="18" viewBox="0 0 26 18" fill="none" xmlns="http://www.w3.org/2000/svg">
<path d="M24.9866 1.51032C24.0481 0.43758 22.3153 0 19.0061 0H6.99366C3.60872 0 1.84659 0.465807 0.911594 1.6079C0 2.72145 0 4.36218 0 6.63298V10.9611C0 15.3604 1.0816 17.594 6.99366 17.594H19.0062C21.8759 17.594 23.4661 17.2079 24.4949 16.2612C25.5499 15.2904 26 13.7053 26 10.9611V6.63298C26 4.23823 25.9295 2.58782 24.9866 1.51032ZM16.6921 9.3946L11.2373 12.1358C11.1153 12.1971 10.982 12.2275 10.8488 12.2275C10.698 12.2275 10.5475 12.1885 10.4143 12.1109C10.1633 11.9647 10.0101 11.7031 10.0101 11.421V5.95621C10.0101 5.6746 10.1629 5.41331 10.4133 5.26702C10.6639 5.12073 10.9754 5.11073 11.2354 5.24056L16.6902 7.96411C16.9677 8.10266 17.142 8.37815 17.1424 8.67871C17.1427 8.97952 16.9692 9.2554 16.6921 9.3946Z" fill="white"/>
</svg>
