<svg width="17" height="17" viewBox="0 0 17 17" fill="none" xmlns="http://www.w3.org/2000/svg">
<path d="M12.3982 0H4.60174C2.0643 0 0 2.0643 0 4.60174V12.3984C0 14.9357 2.0643 17 4.60174 17H12.3984C14.9357 17 17 14.9357 17 12.3984V4.60174C17 2.0643 14.9357 0 12.3982 0V0ZM8.49998 13.1483C5.93686 13.1483 3.85168 11.0631 3.85168 8.49998C3.85168 5.93686 5.93686 3.85168 8.49998 3.85168C11.0631 3.85168 13.1483 5.93686 13.1483 8.49998C13.1483 11.0631 11.0631 13.1483 8.49998 13.1483ZM13.2594 4.9479C12.502 4.9479 11.8859 4.33183 11.8859 3.57439C11.8859 2.81694 12.502 2.20074 13.2594 2.20074C14.0169 2.20074 14.6331 2.81694 14.6331 3.57439C14.6331 4.33183 14.0169 4.9479 13.2594 4.9479Z" fill="#1F3951"/>
<path d="M8.49995 4.84827C6.4865 4.84827 4.84827 6.48637 4.84827 8.49995C4.84827 10.5134 6.4865 12.1516 8.49995 12.1516C10.5135 12.1516 12.1516 10.5134 12.1516 8.49995C12.1516 6.48637 10.5135 4.84827 8.49995 4.84827Z" fill="#1F3951"/>
<path d="M13.2594 3.19745C13.0516 3.19745 12.8824 3.36658 12.8824 3.57436C12.8824 3.78213 13.0516 3.95126 13.2594 3.95126C13.4673 3.95126 13.6364 3.78226 13.6364 3.57436C13.6364 3.36645 13.4673 3.19745 13.2594 3.19745Z" fill="#1F3951"/>
</svg>
