<svg width="18" height="19" viewBox="0 0 18 19" fill="none" xmlns="http://www.w3.org/2000/svg">
<path d="M17.6038 0.264557C17.2294 0.0536755 16.755 0.186352 16.5442 0.560649L15.6422 2.16221C16.1737 2.70049 16.4074 3.46681 16.2779 4.20354L17.8997 1.32411C18.1106 0.949816 17.978 0.475439 17.6038 0.264557Z" fill="#1C364F"/>
<path d="M14.6758 9.41946L12.5377 9.34755L12.7694 7.68837L12.8359 8.85401L13.5516 8.87803L14.0956 7.95844C14.3851 7.46891 14.2863 6.85771 13.8917 6.48141L14.5092 6.06523C14.3388 6.10483 14.163 6.1257 13.9847 6.1257C13.4803 6.1257 12.9772 5.95986 12.5591 5.63574C12.2936 5.96229 4.76421 15.2211 4.38491 15.6876C4.07437 16.0695 3.56111 16.2156 3.09517 16.0533L1.83302 17.3505C1.48046 17.7128 1.48846 18.2921 1.85075 18.6445C2.2129 18.9968 2.79221 18.9892 3.14478 18.6268L6.81784 14.8516C6.85958 14.8089 6.89704 14.762 6.9295 14.7119C8.83315 11.7799 8.71005 11.9721 8.73379 11.9319L9.25334 12.2391L9.69355 14.987L7.37557 16.911C6.98669 17.2337 6.93307 17.8107 7.2559 18.1996C7.57959 18.5897 8.15676 18.6411 8.54449 18.3192L11.2642 16.0619C11.5133 15.8553 11.6347 15.5325 11.5833 15.2129L11.2042 12.8466L12.0647 11.3919C11.9978 11.3896 11.4368 11.3707 11.3737 11.3686C10.641 11.344 10.139 10.6203 10.379 9.91871L11.1606 7.96187L10.8775 9.98834C10.8137 10.4451 11.1597 10.8577 11.6217 10.8733L14.6235 10.9744C14.6323 10.9747 14.6412 10.9748 14.6501 10.9748C15.0675 10.9748 15.4129 10.6436 15.4271 10.2232C15.4414 9.79376 15.1051 9.4339 14.6758 9.41946Z" fill="#1C364F"/>
<path d="M3.9557 15.3385L12.066 5.3653L11.5078 5.03518C11.1241 4.80814 10.6439 4.81271 10.2634 5.05119L0.288362 11.3042C-0.0370391 11.5082 -0.0979446 11.9574 0.161547 12.2406L3.02511 15.3659C3.27859 15.6426 3.7188 15.6297 3.9557 15.3385Z" fill="#1C364F"/>
<path d="M14.8896 2.27073C14.0408 1.76861 12.9548 2.05656 12.4591 2.89451C11.9602 3.73804 12.2395 4.82618 13.0829 5.32501C13.9317 5.82712 15.0177 5.53918 15.5134 4.70123C16.0123 3.8577 15.733 2.76955 14.8896 2.27073Z" fill="#1C364F"/>
</svg>
