<svg width="57" height="30" viewBox="0 0 57 30" fill="none" xmlns="http://www.w3.org/2000/svg">
<path d="M23.32 1.15345L22.842 1.66722L20.437 4.1771L19.9744 3.94819C18.1164 3.06949 16.1734 2.65967 14.2324 2.65967C6.59311 2.65967 0.874756 8.82183 0.874756 16.0173C0.874756 23.2389 6.73406 29.3749 14.2324 29.3749C17.8639 29.3749 21.4644 27.8028 23.8869 25.2482L30.4906 18.2777L37.9064 10.4091C39.4279 8.79332 41.5431 8.00272 43.6191 8.00272C47.9961 8.00272 51.6337 11.5182 51.6337 16.0173C51.6337 20.3021 48.147 24.0319 43.6191 24.0319C41.1037 24.0319 39.5988 23.2455 37.6173 21.2886L36.7012 20.3522L35.8352 19.4366L34.8309 18.3503C34.569 18.0644 34.1195 18.0608 33.8531 18.3426L31.1119 21.2418C30.8691 21.4986 30.8684 21.9002 31.1103 22.1578L33.7059 24.9276L34.0554 25.285C34.513 25.7418 34.9777 26.1603 35.4821 26.5575C37.7385 28.3341 40.3937 29.3749 43.6191 29.3749C51.1862 29.3749 56.9767 23.205 56.9767 16.0173C56.9767 8.738 51.1173 2.65967 43.6191 2.65967C39.8627 2.65967 36.3257 4.20297 33.703 7.04105L30.5583 10.4354L26.9521 14.2879L20.018 21.5563C18.4251 23.2258 16.4027 24.0319 14.2324 24.0319C9.68819 24.0319 6.2178 20.3119 6.2178 16.0173C6.2178 11.7181 9.68053 8.00272 14.2324 8.00272L14.5469 8.00916C15.0825 8.03062 15.6684 8.10555 16.1964 8.23224L16.4417 8.29659L14.0064 10.7281C13.8813 10.8537 13.7691 10.9669 13.654 11.0833C13.2589 11.4833 13.5045 12.1626 14.064 12.2174L21.9755 12.9827L24.173 13.1808C24.5726 13.215 24.912 12.8917 24.8974 12.4909L24.4781 1.58263C24.4568 0.986712 23.7246 0.71535 23.32 1.15345Z" fill="#B689BD"/>
</svg>
