<svg width="36" height="36" viewBox="0 0 36 36" fill="none" xmlns="http://www.w3.org/2000/svg">
<path d="M6 30.0002H30M6 30.0002V24.0002L18 12.0002M6 30.0002L12 30.0001L24 18.0002M18 12.0002L22.3029 7.69719L22.3055 7.69464C22.8979 7.10232 23.1945 6.80563 23.5365 6.69451C23.8378 6.59662 24.1624 6.59662 24.4636 6.69451C24.8054 6.80555 25.1017 7.1019 25.6932 7.69339L28.3029 10.3031C28.8969 10.8971 29.1941 11.1943 29.3054 11.5367C29.4033 11.838 29.4032 12.1625 29.3053 12.4638C29.1941 12.806 28.8974 13.1027 28.3043 13.6959L28.3029 13.6972L24 18.0002M18 12.0002L24 18.0002" stroke="currentColor" stroke-width="2" stroke-linecap="round" stroke-linejoin="round"/>
</svg>
