<svg width="60" height="60" viewBox="0 0 60 60" fill="none" xmlns="http://www.w3.org/2000/svg">
<path d="M30 6C16.7423 6 6 16.7423 6 30C6 43.2577 16.7423 54 30 54C43.2577 54 54 43.2577 54 30C54 16.7423 43.2577 6 30 6ZM30 7.99615C42.1269 7.99615 52.0038 17.8615 52.0038 30C52.0038 35.3654 50.0769 40.2808 46.8808 44.1C44.5731 43.1538 39.2769 41.3192 36.1615 40.3962C35.8846 40.3154 35.85 40.2923 35.85 39.1615C35.85 38.2269 36.2308 37.2808 36.6115 36.4731C37.0269 35.6077 37.5 34.1423 37.6731 32.8269C38.1577 32.2615 38.8269 31.1538 39.2423 29.0308C39.6115 27.1615 39.4385 26.4808 39.1962 25.8462C39.1731 25.7769 39.1385 25.7077 39.1269 25.65C39.0346 25.2115 39.1615 22.9385 39.4846 21.1731C39.7038 19.9615 39.4269 17.3885 37.7654 15.2538C36.7154 13.9038 34.6962 12.2538 31.0154 12.0231H28.9962C25.3731 12.2538 23.3654 13.9038 22.3038 15.2538C20.6308 17.3885 20.3538 19.9615 20.5731 21.1731C20.8962 22.9385 21.0231 25.2115 20.9308 25.65C20.9077 25.7308 20.8846 25.7885 20.8615 25.8577C20.6192 26.4923 20.4346 27.1731 20.8154 29.0423C21.2423 31.1654 21.9 32.2731 22.3846 32.8385C22.5577 34.1538 23.0423 35.6077 23.4462 36.4846C23.7462 37.1192 23.8846 37.9846 23.8846 39.2077C23.8846 40.35 23.8385 40.3615 23.5846 40.4423C20.3423 41.4 15.2077 43.2462 13.1538 44.1346C9.93462 40.3038 7.99615 35.3769 7.99615 30C7.99615 17.8731 17.8731 7.99615 30 7.99615Z" fill="#B689BD"/>
</svg>
