<svg width="60" height="60" viewBox="0 0 60 60" fill="none" xmlns="http://www.w3.org/2000/svg">
<path d="M29.1118 35.4458C25.331 32.4139 22.8065 28.6727 21.4793 26.5439L20.4893 24.7238C20.8354 24.3616 23.4752 21.6049 24.6191 20.1092C26.0567 18.2311 23.9724 16.5348 23.9724 16.5348C23.9724 16.5348 18.1077 10.8146 16.7712 9.67995C15.4346 8.54369 13.896 9.17477 13.896 9.17477C11.0869 10.9449 8.17471 12.4839 8.00001 19.8852C7.99349 26.8148 13.3874 33.962 19.2203 39.4952C25.0626 45.744 33.084 52.0071 40.8391 52C48.4277 51.8312 50.0053 48.9915 51.8204 46.252C51.8204 46.252 52.4679 44.7527 51.304 43.4481C50.1393 42.1438 44.273 36.4232 44.273 36.4232C44.273 36.4232 42.5349 34.3901 40.6086 35.7933C39.1731 36.8398 36.5953 39.1675 35.9742 39.7319C35.9754 39.7339 31.6632 37.4919 29.1118 35.4458Z" fill="#B689BD"/>
</svg>
