<svg width="47" height="47" viewBox="0 0 47 47" fill="none" xmlns="http://www.w3.org/2000/svg">
<g clip-path="url(#clip0_41_745)">
<path d="M5.875 0H41.125C44.3563 0 47 2.64375 47 5.875V41.125C47 44.3563 44.3563 47 41.125 47H5.875C2.64375 47 0 44.3563 0 41.125V5.875C0 2.64375 2.64375 0 5.875 0Z" fill="url(#paint0_linear_41_745)"/>
<path d="M31.1375 7.34375H15.8625C11.1625 7.34375 7.34375 11.3094 7.34375 16.0094V30.9906C7.34375 35.6906 11.1625 39.6562 15.8625 39.6562H31.1375C35.8375 39.6562 39.6562 35.6906 39.6562 30.9906V16.0094C39.6562 11.3094 35.8375 7.34375 31.1375 7.34375ZM36.7188 30.6969C36.7188 33.9281 34.075 36.7188 30.8438 36.7188H16.1562C12.925 36.7188 10.2812 33.9281 10.2812 30.6969V16.1562C10.2812 12.925 12.7781 10.2812 16.1562 10.2812H30.8438C34.075 10.2812 36.7188 13.0719 36.7188 16.3031V30.6969Z" fill="white"/>
<path d="M23.4996 15.275C18.9464 15.1281 15.1277 18.8 14.9808 23.3531C14.8339 27.9063 18.5058 31.725 23.0589 31.8719C27.6121 32.0188 31.4308 28.3469 31.5777 23.7938V23.6469C31.7246 18.9469 28.0527 15.275 23.4996 15.275ZM23.4996 28.7875C20.5621 28.7875 18.0652 26.4375 18.0652 23.5C18.0652 20.5625 20.4152 18.0656 23.3527 18.0656C26.2902 18.0656 28.7871 20.4156 28.7871 23.3531V23.5C28.7871 26.4375 26.4371 28.7875 23.4996 28.7875Z" fill="white"/>
<path d="M32.0184 16.5968C32.9918 16.5968 33.7809 15.742 33.7809 14.6875C33.7809 13.6329 32.9918 12.7781 32.0184 12.7781C31.045 12.7781 30.2559 13.6329 30.2559 14.6875C30.2559 15.742 31.045 16.5968 32.0184 16.5968Z" fill="white"/>
</g>
<defs>
<linearGradient id="paint0_linear_41_745" x1="8.52389" y1="49.4393" x2="38.4761" y2="-2.4393" gradientUnits="userSpaceOnUse">
<stop stop-color="#FEC053"/>
<stop offset="0.327" stop-color="#F2203E"/>
<stop offset="0.648" stop-color="#B729A8"/>
<stop offset="1" stop-color="#5342D6"/>
</linearGradient>
<clipPath id="clip0_41_745">
<rect width="47" height="47" fill="white"/>
</clipPath>
</defs>
</svg>
