<svg width="60" height="60" viewBox="0 0 60 60" fill="none" xmlns="http://www.w3.org/2000/svg">
<path d="M24.32 16.1534L23.842 16.6672L21.437 19.1771L20.9744 18.9482C19.1164 18.0695 17.1734 17.6597 15.2324 17.6597C7.59312 17.6597 1.87476 23.8218 1.87476 31.0173C1.87476 38.2389 7.73406 44.3749 15.2324 44.3749C18.8639 44.3749 22.4644 42.8028 24.8869 40.2482L31.4906 33.2777L38.9064 25.4091C40.4279 23.7933 42.5431 23.0027 44.6191 23.0027C48.9961 23.0027 52.6337 26.5182 52.6337 31.0173C52.6337 35.3021 49.147 39.0319 44.6191 39.0319C42.1037 39.0319 40.5988 38.2455 38.6173 36.2886L37.7012 35.3522L36.8352 34.4366L35.8309 33.3503C35.569 33.0644 35.1195 33.0608 34.8531 33.3426L32.1119 36.2418C31.8691 36.4986 31.8684 36.9002 32.1103 37.1578L34.7059 39.9276L35.0554 40.285C35.513 40.7418 35.9777 41.1603 36.4821 41.5575C38.7385 43.3341 41.3937 44.3749 44.6191 44.3749C52.1862 44.3749 57.9767 38.205 57.9767 31.0173C57.9767 23.738 52.1173 17.6597 44.6191 17.6597C40.8627 17.6597 37.3257 19.203 34.703 22.041L31.5583 25.4354L27.9521 29.2879L21.018 36.5563C19.4251 38.2258 17.4027 39.0319 15.2324 39.0319C10.6882 39.0319 7.2178 35.3119 7.2178 31.0173C7.2178 26.7181 10.6805 23.0027 15.2324 23.0027L15.5469 23.0092C16.0825 23.0306 16.6684 23.1055 17.1964 23.2322L17.4417 23.2966L15.0064 25.7281C14.8813 25.8537 14.7691 25.9669 14.654 26.0833C14.2589 26.4833 14.5045 27.1626 15.064 27.2174L22.9755 27.9827L25.173 28.1808C25.5726 28.215 25.912 27.8917 25.8974 27.4909L25.4781 16.5826C25.4568 15.9867 24.7246 15.7154 24.32 16.1534Z" fill="#B689BD"/>
</svg>
