<svg width="60" height="60" viewBox="0 0 60 60" fill="none" xmlns="http://www.w3.org/2000/svg">
<path d="M32 47V53C32.2515 52.9453 32.4947 52.8489 32.7221 52.7139C33.0277 52.5369 33.3013 52.2947 33.5284 52.0002C33.6833 51.778 33.8025 51.5257 33.8804 51.2553C33.9457 51.0621 33.9854 50.8587 33.9982 50.6519V50.634C34.0215 49.4271 33.8222 48.557 33.3835 47.9714C33.0703 47.5543 32.6134 47.2354 32 47Z" fill="#B689BD"/>
<path d="M47.3318 30.0004V22.2212L51.8907 26.729C52.035 26.8715 52.2064 26.9845 52.395 27.0616C52.5836 27.1387 52.7857 27.1784 52.9898 27.1784C53.194 27.1784 53.3961 27.1387 53.5847 27.0616C53.7733 26.9845 53.9446 26.8715 54.089 26.729C54.2333 26.5864 54.3478 26.4173 54.4259 26.2311C54.504 26.0449 54.5442 25.8453 54.5442 25.6438C54.5442 25.4423 54.504 25.2427 54.4259 25.0566C54.3478 24.8704 54.2333 24.7012 54.089 24.5587L46.8715 17.4318C46.5745 17.1545 46.1812 17 45.7724 17C45.3636 17 44.9703 17.1545 44.6732 17.4318L37.4558 24.5573C37.1641 24.8451 37.0001 25.2355 37 25.6426C36.9999 26.0498 37.1636 26.4403 37.4551 26.7283C37.7466 27.0162 38.142 27.1781 38.5544 27.1782C38.9668 27.1784 39.3624 27.0167 39.6541 26.729L44.2257 22.2212V30.0004C42.5249 30.2132 40.8889 30.779 39.4253 31.6605C42.9228 34.0888 45.4145 37.6822 46.4423 41.7797C47.47 45.8773 46.9647 50.2034 45.0191 53.9624C45.2719 53.9777 45.5246 54 45.783 54C48.8871 54.0036 51.876 52.8391 54.1411 50.7436C56.4062 48.6482 57.7772 45.7793 57.9752 42.7209C58.1731 39.6626 57.183 36.6447 55.2064 34.2817C53.2298 31.9187 50.4154 30.3882 47.336 30.0018L47.3318 30.0004Z" fill="#B689BD"/>
<path d="M27.0069 41.2773C27.0385 41.5769 27.1059 41.8719 27.2077 42.1561C27.3205 42.4272 27.4934 42.6704 27.7139 42.8681C28.0586 43.18 28.4495 43.4391 28.8735 43.6366C29.2323 43.8024 29.6107 43.9245 30 44V38C29.0922 38.1454 28.3824 38.4764 27.8817 38.9879C27.5778 39.2866 27.3425 39.6453 27.1916 40.0401C27.0408 40.4349 26.9778 40.8567 27.0069 41.2773Z" fill="#B689BD"/>
<path d="M19.6954 31.661C18.3015 30.7797 16.7437 30.2139 15.124 30.0008V22.2214L19.4668 26.7293C19.7446 27.018 20.1216 27.1805 20.515 27.1811C20.9083 27.1816 21.2858 27.0201 21.5643 26.7321C21.8428 26.4441 21.9995 26.0532 22 25.6454C22.0005 25.2376 21.8447 24.8463 21.5669 24.5576L14.687 17.4319C14.4042 17.1545 14.0296 17 13.6403 17C13.251 17 12.8765 17.1545 12.5936 17.4319L5.72044 24.5576C5.44266 24.8454 5.28653 25.2358 5.28641 25.643C5.28628 26.0501 5.44217 26.4406 5.71977 26.7286C5.99738 27.0166 6.37396 27.1785 6.76668 27.1786C7.15939 27.1787 7.53608 27.0171 7.81386 26.7293L12.1553 22.2214V30.0008C9.22283 30.3873 6.54263 31.9179 4.66035 34.281C2.77806 36.6441 1.83518 39.662 2.02366 42.7205C2.21214 45.779 3.51781 48.648 5.67487 50.7435C7.83192 52.8391 10.6782 54.0036 13.6343 54C13.8803 54 14.121 53.9777 14.3617 53.9623C12.5088 50.2031 12.0276 45.8767 13.0066 41.7789C13.9856 37.6811 16.3589 34.0877 19.69 31.6596L19.6954 31.661Z" fill="#B689BD"/>
<path d="M31.4768 31.5894V5.13885L38.8352 12.6288C38.9725 12.7685 39.1354 12.8793 39.3148 12.9548C39.4941 13.0304 39.6863 13.0693 39.8804 13.0693C40.0745 13.0693 40.2667 13.0304 40.446 12.9548C40.6254 12.8793 40.7883 12.7685 40.9256 12.6288C41.0628 12.4892 41.1717 12.3234 41.246 12.1409C41.3203 11.9584 41.3585 11.7629 41.3585 11.5654C41.3585 11.3679 41.3203 11.1723 41.246 10.9898C41.1717 10.8074 41.0628 10.6416 40.9256 10.5019L31.0458 0.441046C30.9087 0.301234 30.7458 0.190314 30.5664 0.114634C30.3871 0.0389542 30.1948 0 30.0007 0C29.8065 0 29.6143 0.0389542 29.4349 0.114634C29.2556 0.190314 29.0927 0.301234 28.9555 0.441046L19.0717 10.4978C18.7945 10.7799 18.6388 11.1624 18.6388 11.5613C18.6388 11.9601 18.7945 12.3427 19.0717 12.6247C19.3489 12.9068 19.7249 13.0652 20.1169 13.0652C20.5089 13.0652 20.8849 12.9068 21.1621 12.6247L28.5232 5.13885V31.5894C24.9582 31.9742 21.6741 33.7359 19.3478 36.5114C17.0215 39.2869 15.8302 42.8647 16.0196 46.5073C16.2089 50.15 17.7644 53.58 20.3655 56.0903C22.9666 58.6006 26.415 60 30 60C33.585 60 37.0334 58.6006 39.6345 56.0903C42.2356 53.58 43.7911 50.15 43.9804 46.5073C44.1698 42.8647 42.9785 39.2869 40.6522 36.5114C38.3259 33.7359 35.0418 31.9742 31.4768 31.5894ZM36.4589 50.5022C36.3878 51.5445 35.9474 52.5335 35.15 53.4255C34.4559 54.2069 33.4275 54.7069 32.0903 54.9145V55.6125C32.0969 55.8115 32.0565 56.0091 31.9723 56.1888C31.8882 56.3685 31.763 56.5251 31.607 56.6453C31.3665 56.8341 31.0718 56.9378 30.7679 56.9403C30.4615 56.9384 30.1651 56.8288 29.9288 56.6302C29.7859 56.5049 29.6727 56.3482 29.5978 56.1719C29.523 55.9956 29.4883 55.8044 29.4965 55.6125V54.9514C28.107 54.8148 26.884 54.4118 25.8569 53.7534C24.6017 52.9337 23.827 51.7467 23.5437 50.2112C23.4989 50.0462 23.4953 49.8723 23.5333 49.7054C23.5713 49.5386 23.6497 49.3841 23.7614 49.2559C23.8731 49.1278 24.0144 49.0301 24.1727 48.9717C24.3309 48.9133 24.501 48.8961 24.6674 48.9217C25.2984 48.9367 25.7697 49.3411 25.8395 49.9489C26.0073 50.6388 26.4315 51.274 27.1229 51.8054C27.6895 52.2398 28.4856 52.5198 29.4965 52.6414V46.6308C28.1312 46.4697 26.8961 45.9697 25.9549 45.1692C24.9341 44.2733 24.2934 43.0104 24.1667 41.6448C24.0931 40.8739 24.1989 40.0961 24.4755 39.3745C24.7509 38.6796 25.1698 38.053 25.7039 37.5371C26.2723 36.9931 26.9451 36.5745 27.6801 36.3077C28.2668 36.0891 28.8771 35.9424 29.4979 35.8706V35.1234C29.4926 34.9427 29.5247 34.7629 29.592 34.5956C29.6593 34.4283 29.7603 34.2772 29.8886 34.1521C30.1226 33.9268 30.43 33.7973 30.752 33.7882C31.074 33.7791 31.388 33.8912 31.6339 34.1029C31.7811 34.2272 31.8992 34.3832 31.9798 34.5597C32.0604 34.7362 32.1014 34.9287 32.0997 35.1234V36.0113C33.1407 36.2234 34.0984 36.7393 34.856 37.4962C35.7675 38.41 36.2509 39.6422 36.2898 41.1517C36.1408 41.9494 35.7367 42.3606 35.1943 42.4303C34.6519 42.4999 34.0625 42.1858 33.9726 41.3784C33.9385 41.0167 33.8656 40.6599 33.7551 40.3143C33.6485 39.9854 33.4818 39.68 33.2637 39.4141C33.0132 39.1046 32.7197 38.8341 32.3924 38.6108C32.299 38.5472 32.2012 38.4906 32.0997 38.4415V44.6719C32.8197 44.828 33.5084 45.1074 34.1364 45.4984C34.7441 45.8731 35.2678 46.3734 35.6736 46.9669C36.026 47.5154 36.2649 48.1313 36.3757 48.7769C36.4846 49.3449 36.5136 49.9259 36.4616 50.5022H36.4589Z" fill="#B689BD"/>
</svg>
