<svg width="60" height="60" viewBox="0 0 60 60" fill="none" xmlns="http://www.w3.org/2000/svg">
<path d="M18.5 23C20.9853 23 23 20.9853 23 18.5C23 16.0147 20.9853 14 18.5 14C16.0147 14 14 16.0147 14 18.5C14 20.9853 16.0147 23 18.5 23Z" fill="#B689BD"/>
<path d="M55.0355 29.8686L30.1597 4.97038C29.5339 4.34379 28.7903 3.84712 27.9718 3.50897C27.1534 3.17082 26.2761 2.99785 25.3905 3.00002H9.71715C7.93565 3.00002 6.22712 3.70772 4.96741 4.96743C3.7077 6.22714 3 7.93567 3 9.71717V25.3905C3.00157 27.1714 3.71029 28.8788 4.97037 30.1373L29.8686 55.0355C31.1281 56.2934 32.8353 57 34.6154 57C36.3955 57 38.1027 56.2934 39.3622 55.0355L55.0355 39.3622C56.2934 38.1027 57 36.3955 57 34.6154C57 32.8354 56.2934 31.1281 55.0355 29.8686ZM18.6734 27.6296C16.902 27.6296 15.1704 27.1043 13.6976 26.1202C12.2247 25.1361 11.0768 23.7373 10.3989 22.1008C9.72103 20.4642 9.54367 18.6634 9.88924 16.9261C10.2348 15.1888 11.0878 13.5929 12.3404 12.3404C13.5929 11.0878 15.1888 10.2348 16.9261 9.88926C18.6634 9.54368 20.4642 9.72105 22.1007 10.3989C23.7373 11.0768 25.136 12.2247 26.1202 13.6976C27.1043 15.1704 27.6296 16.902 27.6296 18.6734C27.6296 21.0487 26.686 23.3267 25.0063 25.0064C23.3267 26.686 21.0487 27.6296 18.6734 27.6296Z" fill="#B689BD"/>
</svg>
