<svg width="47" height="47" viewBox="0 0 47 47" fill="none" xmlns="http://www.w3.org/2000/svg">
<g clip-path="url(#clip0_41_741)">
<path d="M47 36.4525C47 42.2816 42.2725 47 36.4525 47H10.5475C4.72754 47 0 42.2725 0 36.4525V10.5475C0 4.72754 4.72754 0 10.5475 0H36.4525C42.2725 0 47 4.72754 47 10.5475V36.4525Z" fill="#5EBEE1"/>
<path d="M35.1673 12.3104L10.6759 21.8481C9.88645 22.1602 9.93235 23.2985 10.7493 23.5371L16.9732 25.3731L19.2956 32.7444C19.5343 33.5155 20.5165 33.7449 21.0765 33.1666L24.2986 29.8803L30.6142 34.516C31.3853 35.0852 32.4868 34.6629 32.6796 33.7266L36.8564 13.7332C37.0675 12.7602 36.1036 11.9432 35.1673 12.3104ZM32.1013 16.7442L20.7277 26.8051C20.6175 26.9061 20.5441 27.0438 20.5257 27.1907L20.0851 31.0828C20.0667 31.2114 19.8923 31.2297 19.8556 31.1012L18.0564 25.2905C17.9738 25.0242 18.0839 24.7397 18.3226 24.5928L31.7525 16.2576C32.0554 16.0832 32.3767 16.5055 32.1013 16.7442Z" fill="white"/>
</g>
<defs>
<clipPath id="clip0_41_741">
<rect width="47" height="47" fill="white"/>
</clipPath>
</defs>
</svg>
