<svg width="47" height="47" viewBox="0 0 47 47" fill="none" xmlns="http://www.w3.org/2000/svg">
<g clip-path="url(#clip0_41_750)">
<path d="M38.775 0H8.225C3.68246 0 0 3.68246 0 8.225V38.775C0 43.3175 3.68246 47 8.225 47H38.775C43.3175 47 47 43.3175 47 38.775V8.225C47 3.68246 43.3175 0 38.775 0Z" fill="#4489C8"/>
<path d="M7.06374 14.5181H12.7037C12.8217 14.5179 12.9368 14.5536 13.0339 14.6205C13.131 14.6874 13.2054 14.7823 13.2472 14.8926C13.8714 16.5009 16.4637 22.7945 18.8358 23.3085C20.5983 23.3085 19.9741 14.9367 17.7342 14.9367C17.1467 14.9367 18.777 13.8938 18.8872 13.8498C20.9687 13.2792 23.1654 13.2792 25.2469 13.8498C26.3705 14.3198 26.5614 15.6343 26.5908 16.7506C26.6201 17.8668 25.3423 22.6256 27.0241 23.1396C29.2272 23.8152 32.0619 16.9048 32.7228 15.2084C32.7658 15.0995 32.8407 15.0061 32.9377 14.9406C33.0346 14.8751 33.1492 14.8404 33.2662 14.8412H39.5451C39.6422 14.8409 39.7378 14.8646 39.8234 14.9103C39.909 14.9559 39.982 15.0221 40.0358 15.1028C40.0896 15.1835 40.1226 15.2763 40.1318 15.3729C40.141 15.4695 40.1262 15.5669 40.0886 15.6563C38.7952 18.6069 37.2446 21.4378 35.4547 24.1163C35.3025 24.3374 35.2311 24.6041 35.2525 24.8716C35.2739 25.1391 35.3868 25.3911 35.5722 25.5851C37.4522 27.5973 42.5928 33.296 39.6553 33.296H33.3176C33.1538 33.2964 32.9918 33.2619 32.8424 33.1948C32.693 33.1277 32.5596 33.0295 32.4511 32.9068C31.467 31.8199 28.603 28.7943 27.3105 29.0367C26.2383 29.2349 26.1355 31.0562 26.1869 32.2459C26.2031 32.5528 26.0984 32.8539 25.8952 33.0845C25.692 33.3152 25.4065 33.457 25.1 33.4796C23.9764 33.5457 22.4416 33.5751 22.302 33.5677C17.8223 33.2813 15.1712 30.2924 12.6377 26.9584C9.98373 23.4236 7.91346 19.4864 6.50562 15.2965C6.47684 15.2078 6.4693 15.1137 6.48361 15.0216C6.49792 14.9294 6.53367 14.842 6.58798 14.7662C6.64229 14.6905 6.71365 14.6286 6.79629 14.5855C6.87893 14.5423 6.97054 14.5193 7.06374 14.5181Z" fill="white"/>
</g>
<defs>
<clipPath id="clip0_41_750">
<rect width="47" height="47" fill="white"/>
</clipPath>
</defs>
</svg>
