<svg width="47" height="47" viewBox="0 0 47 47" fill="none" xmlns="http://www.w3.org/2000/svg">
<g clip-path="url(#clip0_41_736)">
<path d="M38.775 0H8.225C3.68246 0 0 3.68246 0 8.225V38.775C0 43.3175 3.68246 47 8.225 47H38.775C43.3175 47 47 43.3175 47 38.775V8.225C47 3.68246 43.3175 0 38.775 0Z" fill="url(#paint0_linear_41_736)"/>
<path d="M20.1373 15.7012L21.6061 19.6888C21.6416 19.7781 21.6536 19.875 21.6407 19.9702C21.6278 20.0654 21.5906 20.1557 21.5326 20.2323C21.2174 20.6894 20.853 21.1105 20.4458 21.488C20.3273 21.581 20.2491 21.7159 20.2273 21.8648C20.2054 22.0138 20.2415 22.1654 20.3283 22.2885C21.2315 23.5002 23.5742 26.4377 26.6218 27.4879C26.7393 27.5267 26.866 27.5269 26.9836 27.4886C27.1012 27.4503 27.2034 27.3754 27.2754 27.2749L28.4945 25.6519C28.5777 25.5422 28.6968 25.4651 28.831 25.4342C28.9653 25.4034 29.1061 25.4206 29.2289 25.483L33.0476 27.3924C33.1804 27.455 33.2845 27.5655 33.339 27.7018C33.3936 27.8381 33.3944 27.9899 33.3414 28.1268C32.9228 29.3165 31.6083 32.2173 28.7956 31.7473C25.1176 31.1829 21.7722 29.2948 19.3883 26.4377C17.0823 23.559 12.5292 16.1565 19.5278 15.3193C19.6573 15.3064 19.7875 15.3369 19.8978 15.406C20.0081 15.4752 20.0924 15.579 20.1373 15.7012Z" fill="white"/>
<path d="M24.6747 40.2434C21.6024 40.2476 18.5814 39.4557 15.9062 37.9448L7.09375 40.2066L10.3323 32.929C8.37468 30.1757 7.32937 26.8779 7.34344 23.4996C7.34344 14.2685 15.1205 6.75586 24.6747 6.75586C34.2289 6.75586 42.0059 14.2685 42.0059 23.4996C42.0059 32.7307 34.2289 40.2434 24.6747 40.2434ZM16.3689 34.787L16.905 35.1174C19.2402 36.5587 21.9305 37.3216 24.6747 37.3205C32.6133 37.3205 39.0684 31.1298 39.0684 23.5143C39.0684 15.8988 32.6133 9.69336 24.6747 9.69336C16.7361 9.69336 10.2809 15.8841 10.2809 23.4996C10.2842 26.5289 11.3204 29.4665 13.2184 31.8274L13.7692 32.5251L11.1181 37.0195L16.3689 34.787Z" fill="white"/>
</g>
<defs>
<linearGradient id="paint0_linear_41_736" x1="23.5" y1="2.9375" x2="23.5" y2="47.5948" gradientUnits="userSpaceOnUse">
<stop stop-color="#1DF47C"/>
<stop offset="0.31" stop-color="#12DF63"/>
<stop offset="0.75" stop-color="#05C443"/>
<stop offset="1" stop-color="#00BA37"/>
</linearGradient>
<clipPath id="clip0_41_736">
<rect width="47" height="47" fill="white"/>
</clipPath>
</defs>
</svg>
