<svg width="45" height="45" viewBox="0 0 45 45" fill="none" xmlns="http://www.w3.org/2000/svg">
<g clip-path="url(#clip0_41_729)">
<path d="M1.07239 36.786C1.07227 36.6322 1.07227 36.4737 1.07227 36.3101V8.69105C1.07227 6.02413 1.07227 4.68968 1.59128 3.67105C2.04782 2.77504 2.77577 2.04709 3.67178 1.59055C4.69041 1.07153 6.02486 1.07153 8.69178 1.07153H36.3108C38.9777 1.07153 40.3105 1.07153 41.3291 1.59055C42.2251 2.04709 42.9544 2.77504 43.4109 3.67105C43.9294 4.68868 43.9294 6.02152 43.9294 8.68322V36.317C43.9294 37.4718 43.9294 38.3761 43.8871 39.113M1.07239 36.786C1.07422 39.1392 1.1041 40.3711 1.59128 41.3272C2.04782 42.2232 2.77577 42.9536 3.67178 43.4102C4.68941 43.9287 6.02225 43.9287 8.68396 43.9287H36.3189C38.9806 43.9287 40.3115 43.9287 41.3291 43.4102C42.2251 42.9536 42.9544 42.2232 43.4109 41.3272C43.7044 40.7511 43.8318 40.0746 43.8871 39.113M1.07239 36.786L12.4246 23.5418L12.4279 23.5381C13.4348 22.3634 13.9391 21.7751 14.5372 21.5631C15.0626 21.3768 15.6362 21.3811 16.159 21.5747C16.7547 21.7953 17.251 22.3903 18.2435 23.5813L24.6034 31.2132C25.5222 32.3157 25.9842 32.8702 26.5452 33.0927C27.04 33.289 27.5857 33.3111 28.0963 33.1604C28.6775 32.9889 29.1891 32.4773 30.2122 31.4543L31.3957 30.2708C32.4373 29.2291 32.9582 28.7087 33.5477 28.5385C34.0655 28.3891 34.619 28.4212 35.1171 28.6269C35.6842 28.8611 36.1442 29.4343 37.0644 30.5846L43.8871 39.113M43.8871 39.113L43.9294 39.1658M29.6437 15.3572C28.3287 15.3572 27.2627 14.2913 27.2627 12.9763C27.2627 11.6613 28.3287 10.5953 29.6437 10.5953C30.9587 10.5953 32.0246 11.6613 32.0246 12.9763C32.0246 14.2913 30.9587 15.3572 29.6437 15.3572Z" stroke="#242424" stroke-width="1.5" stroke-linecap="round" stroke-linejoin="round"/>
</g>
<defs>
<clipPath id="clip0_41_729">
<rect width="45" height="45" fill="white"/>
</clipPath>
</defs>
</svg>
