<svg width="30" height="30" viewBox="0 0 30 30" fill="none" xmlns="http://www.w3.org/2000/svg">
<path fill-rule="evenodd" clip-rule="evenodd" d="M14.9996 0.600098C15.3179 0.600098 15.6231 0.726526 15.8481 0.95157C16.0732 1.17661 16.1996 1.48184 16.1996 1.8001V13.8001L28.1996 13.8001C28.5179 13.8001 28.8231 13.9265 29.0481 14.1516C29.2732 14.3766 29.3996 14.6818 29.3996 15.0001C29.3996 15.3184 29.2732 15.6236 29.0481 15.8486C28.8231 16.0737 28.5179 16.2001 28.1996 16.2001H16.1996V28.2001C16.1996 28.5184 16.0732 28.8236 15.8481 29.0486C15.6231 29.2737 15.3179 29.4001 14.9996 29.4001C14.6813 29.4001 14.3761 29.2737 14.1511 29.0486C13.926 28.8236 13.7996 28.5184 13.7996 28.2001L13.7996 16.2001H1.79961C1.48135 16.2001 1.17613 16.0737 0.951081 15.8486C0.726038 15.6236 0.599609 15.3184 0.599609 15.0001C0.599609 14.6818 0.726038 14.3766 0.951081 14.1516C1.17613 13.9265 1.48135 13.8001 1.79961 13.8001H13.7996V1.8001C13.7996 1.48184 13.926 1.17661 14.1511 0.95157C14.3761 0.726526 14.6813 0.600098 14.9996 0.600098Z" fill="currentColor"/>
</svg>
