<svg width="44" height="44" viewBox="0 0 44 44" fill="none" xmlns="http://www.w3.org/2000/svg">
<path d="M38.3906 43.6563H5.59372C4.878 43.6718 4.16661 43.5413 3.50304 43.2727C2.83946 43.004 2.23764 42.6029 1.73435 42.0938C1.22373 41.5916 0.821606 40.9899 0.552846 40.3261C0.284086 39.6623 0.154411 38.9503 0.171847 38.2344V5.5625C0.147082 4.84741 0.268752 4.1348 0.529386 3.46844C0.790019 2.80208 1.18411 2.19603 1.68747 1.6875C2.19621 1.17255 2.80566 0.768014 3.47777 0.499174C4.14987 0.230333 4.87018 0.102957 5.59372 0.125001H38.4062C39.1296 0.103894 39.8497 0.2317 40.5217 0.500487C41.1936 0.769274 41.8032 1.1733 42.3125 1.6875C42.8204 2.18842 43.2209 2.7876 43.4896 3.44847C43.7582 4.10933 43.8893 4.81802 43.875 5.53125V38.2031C43.8924 38.9191 43.7627 39.631 43.494 40.2949C43.2252 40.9587 42.8231 41.5603 42.3125 42.0625C41.804 42.5843 41.1931 42.9953 40.5182 43.2695C39.8433 43.5438 39.1189 43.6755 38.3906 43.6563ZM29.9843 33.1719C30.2951 33.1996 30.6048 33.1087 30.8512 32.9174C31.0976 32.726 31.2624 32.4485 31.3125 32.1406L35.6406 11.4375C35.653 11.3041 35.634 11.1696 35.5852 11.0448C35.5364 10.92 35.459 10.8083 35.3593 10.7188C35.1859 10.5542 34.9577 10.4596 34.7187 10.4531C34.6354 10.4531 26.026 13.6354 8.8906 20C8.69722 20.0617 8.52961 20.1855 8.41378 20.3522C8.29795 20.5189 8.24037 20.7191 8.24997 20.9219C8.26088 21.1112 8.33192 21.2921 8.45277 21.4382C8.57361 21.5844 8.73795 21.6881 8.92185 21.7344L15.1718 23.6719L17.6875 31.2188C17.7532 31.4244 17.8858 31.6023 18.0641 31.724C18.2425 31.8457 18.4564 31.9044 18.6718 31.8906C18.7885 31.8902 18.9038 31.8665 19.0112 31.8209C19.1185 31.7753 19.2156 31.7087 19.2968 31.625L22.8437 28.25L29.2343 32.9375C29.457 33.0853 29.7172 33.1666 29.9843 33.1719ZM18.5625 29.3594L16.6718 23.1094C25.7552 17.3281 30.3281 14.4375 30.3906 14.4375C30.625 14.4375 30.75 14.4375 30.75 14.6875C30.7552 14.7185 30.7552 14.7502 30.75 14.7813C30.75 14.7813 26.8281 18.375 19 25.4063L18.5625 29.3594Z" fill="#D0D600"/>
</svg>
