<svg width="69" height="69" viewBox="0 0 69 69" fill="none" xmlns="http://www.w3.org/2000/svg">
<path d="M53.905 60.9961C49.2054 55.7474 42.3771 52.4444 34.7773 52.4444C27.1776 52.4444 20.3487 55.7474 15.6491 60.9961M34.7773 67.1111C16.5519 67.1111 1.77734 52.3365 1.77734 34.1111C1.77734 15.8857 16.5519 1.11108 34.7773 1.11108C53.0027 1.11108 67.7773 15.8857 67.7773 34.1111C67.7773 52.3365 53.0027 67.1111 34.7773 67.1111ZM34.7773 41.4444C28.7022 41.4444 23.7773 36.5196 23.7773 30.4444C23.7773 24.3693 28.7022 19.4444 34.7773 19.4444C40.8525 19.4444 45.7773 24.3693 45.7773 30.4444C45.7773 36.5196 40.8525 41.4444 34.7773 41.4444Z" stroke="#242424" stroke-width="2" stroke-linecap="round" stroke-linejoin="round"/>
</svg>
