<svg width="44" height="44" viewBox="0 0 44 44" fill="none" xmlns="http://www.w3.org/2000/svg">
<path d="M42.3124 1.68743C41.8084 1.17487 41.2043 0.771608 40.5376 0.502785C39.8709 0.233962 39.156 0.105338 38.4374 0.124931H5.59368C4.86991 0.100994 4.14904 0.2275 3.47666 0.49645C2.80429 0.7654 2.19503 1.17094 1.68743 1.68743C1.17094 2.19503 0.7654 2.80429 0.49645 3.47666C0.2275 4.14904 0.100994 4.86991 0.124931 5.59368V38.4062C0.100994 39.13 0.2275 39.8508 0.49645 40.5232C0.7654 41.1956 1.17094 41.8048 1.68743 42.3124C2.19503 42.8289 2.80429 43.2345 3.47666 43.5034C4.14904 43.7724 4.86991 43.8989 5.59368 43.8749H38.4062C39.8567 43.8667 41.2453 43.2857 42.2696 42.2586C43.2938 41.2314 43.8708 39.8411 43.8749 38.3906V5.59368C43.8989 4.86991 43.7724 4.14904 43.5034 3.47666C43.2345 2.80429 42.8289 2.19503 42.3124 1.68743Z" fill="#D0D600"/>
<path d="M40.3594 22.0942C40.1549 24.9384 39.2541 27.6887 37.7364 30.1028C36.2188 32.517 34.1307 34.5208 31.6562 35.938C28.9757 37.5144 25.937 38.3802 22.8281 38.4536H22.3125C19.2973 38.3998 16.3351 37.6512 13.6562 36.2661L8.71875 37.7505C6.67188 38.3911 5.04688 38.9224 3.82813 39.313C3.82813 39.313 3.71875 39.313 3.70313 39.1411L3.5625 39.3755C3.5625 39.3755 4.53125 36.563 6.46875 31.0942C6.59418 30.7487 6.65765 30.3837 6.65625 30.0161C6.62803 29.6777 6.5324 29.3483 6.375 29.0474C5.04956 26.51 4.35294 23.6913 4.34375 20.8286C4.4235 16.3303 6.27669 12.0455 9.5 8.90674C12.6355 5.74532 16.8218 3.84396 21.2656 3.56299H23.4688C27.8193 3.80194 31.9369 5.60546 35.0625 8.64111C38.1575 11.6206 40.0437 15.6378 40.3594 19.9224V22.0942ZM36.9219 25.1255C37.3543 23.706 37.5909 22.234 37.625 20.7505C37.5928 17.3324 36.2636 14.054 33.9063 11.5786C32.4979 9.88531 30.7212 8.53626 28.7119 7.63449C26.7026 6.73272 24.5137 6.30209 22.3125 6.37549H21.1406C18.4179 6.53312 15.7956 7.45958 13.5781 9.04736C11.6167 10.3042 10.0041 12.0356 8.88971 14.0813C7.77534 16.1271 7.19524 18.4209 7.20313 20.7505C7.20396 21.3262 7.25099 21.901 7.34375 22.4692C7.53264 24.4513 8.14544 26.3697 9.14063 28.0942C9.76563 29.1411 10.0938 29.6567 10.1094 29.6567L9.5 31.0317C8.6875 33.4224 8.25 34.7505 8.15625 35.0161L13.9375 33.2036C15.9338 34.471 18.1853 35.2819 20.5312 35.5786C21.0809 35.6456 21.6338 35.6822 22.1875 35.688C24.3051 35.7273 26.4075 35.3228 28.3594 34.5005C30.3976 33.6788 32.2252 32.4098 33.7073 30.7872C35.1893 29.1645 36.2879 27.2296 36.9219 25.1255ZM31.375 25.0317C31.3919 25.198 31.3919 25.3655 31.375 25.5317C31.3912 26.1967 31.2059 26.8511 30.8433 27.4088C30.4808 27.9666 29.9581 28.4016 29.3438 28.6567C28.6179 29.0095 27.8226 29.1964 27.0156 29.2036H26.6875C25.0654 28.8825 23.4904 28.3575 22 27.6411C19.4751 26.3169 17.3254 24.3768 15.75 22.0005C14.5632 20.5985 13.8232 18.8735 13.625 17.0474C13.625 14.7661 14.3906 13.4224 15.9219 13.0317C16.2351 12.9636 16.5544 12.927 16.875 12.9224C17.1645 12.9267 17.4506 12.985 17.7188 13.0942C18.1589 13.706 18.5161 14.3732 18.7812 15.0786C19.1112 15.8041 19.3931 16.5505 19.625 17.313C19.5577 17.7763 19.3312 18.2016 18.9844 18.5161C18.6953 18.8559 18.4241 19.2106 18.1719 19.5786C18.4352 20.2876 18.8391 20.936 19.3594 21.4849C20.2447 22.6176 21.3369 23.572 22.5781 24.2974C23.2268 24.7309 23.954 25.0335 24.7188 25.188C24.9062 25.188 25.3125 24.7974 25.8906 24.063C26.4688 23.3286 26.8438 22.9692 27 22.9692C27.8169 23.1689 28.6009 23.4846 29.3281 23.9067C30.0479 24.2091 30.7339 24.5862 31.375 25.0317Z" fill="white"/>
</svg>
