<svg width="44" height="44" viewBox="0 0 44 44" fill="none" xmlns="http://www.w3.org/2000/svg">
<path d="M38.3906 43.8749H5.59368C4.86991 43.8989 4.14904 43.7724 3.47666 43.5034C2.80429 43.2345 2.19503 42.8289 1.68743 42.3124C1.17487 41.8084 0.771608 41.2043 0.502785 40.5376C0.233962 39.8709 0.105338 39.156 0.124931 38.4374V5.59368C0.100994 4.86991 0.2275 4.14904 0.49645 3.47666C0.7654 2.80429 1.17094 2.19503 1.68743 1.68743C2.19503 1.17094 2.80429 0.7654 3.47666 0.49645C4.14904 0.2275 4.86991 0.100994 5.59368 0.124931H38.4062C39.13 0.100994 39.8508 0.2275 40.5232 0.49645C41.1956 0.7654 41.8048 1.17094 42.3124 1.68743C42.8289 2.19503 43.2345 2.80429 43.5034 3.47666C43.7724 4.14904 43.8989 4.86991 43.8749 5.59368V38.4062C43.8667 39.8567 43.2857 41.2453 42.2586 42.2696C41.2314 43.2938 39.8411 43.8708 38.3906 43.8749ZM22.1093 32.4218C23.5937 32.4218 25.5312 32.4218 27.8906 32.4218C31.0156 32.3124 32.7656 32.2187 33.2031 32.1249C33.8841 32.0347 34.5273 31.759 35.0624 31.3281C35.6249 30.8642 36.0469 30.2528 36.2812 29.5624C36.8771 27.4875 37.1201 25.3272 36.9999 23.1718V20.6874C36.9916 19.0686 36.8925 17.4514 36.7031 15.8437C36.5956 14.7815 36.1953 13.7699 35.5468 12.9218C35.2656 12.6249 35.0781 12.4843 34.9687 12.4687C34.5214 12.0938 33.9819 11.8456 33.4062 11.7499C29.6176 11.3567 25.8072 11.2158 21.9999 11.3281C20.4374 11.3281 18.5781 11.3281 16.4999 11.4218C14.5148 11.4021 12.5307 11.5222 10.5624 11.7812C9.65124 11.9242 8.82937 12.4106 8.26556 13.1406C7.74833 13.9625 7.40778 14.883 7.26556 15.8437C7.09316 17.4526 7.0045 19.0693 6.99993 20.6874C6.85487 23.3275 7.01742 25.9755 7.48431 28.5781C7.57931 29.1135 7.73121 29.6373 7.93743 30.1406C8.44984 31.0327 9.29109 31.6889 10.2812 31.9687L11.4531 32.1562C12.381 32.2739 13.3147 32.3417 14.2499 32.3593C17.8281 32.3749 20.4374 32.4218 22.1093 32.4218ZM18.8749 25.7656V17.3124L25.5312 20.7812C26.4999 21.2812 26.9843 21.5468 26.9843 21.5624L18.8749 25.7656Z" fill="#D0D600"/>
</svg>
