<svg width="1440" height="614" fill="none" xmlns="http://www.w3.org/2000/svg"><path d="M759.012 4.051c9.336 115.963-25.445 231.311-98.404 326.325-72.96 95.014-179.57 163.795-301.612 194.574-122.041 30.779-251.926 21.642-367.447-25.848-115.52-47.489-209.496-130.378-265.87-234.487" stroke="#2553AD"/><path d="M675.169 1.868c-9.421 110.473 21.216 220.708 87.136 313.502 65.922 92.795 163.42 162.929 277.285 199.448 113.87 36.52 237.68 37.366 352.13 2.409 114.44-34.958 213.06-103.751 280.48-195.634" stroke="#2553AD"/><path d="M1233.66-2.409c-79.9 72.341-137.11 171.45-163.27 282.867-26.16 111.416-19.9 229.299 17.86 336.44M208.809-.161C288.072 72.58 344.614 171.79 370.213 283.063c25.599 111.273 18.919 228.806-19.066 335.528" stroke="#2553AD"/><path d="M1166.5 60c0 10.125-3.38 13.5-13.5 13.5 10.12 0 13.5 3.375 13.5 13.5 0-10.125 3.38-13.5 13.5-13.5-10.12 0-13.5-3.375-13.5-13.5zM760.5 33c0 10.125-3.375 13.5-13.5 13.5 10.125 0 13.5 3.375 13.5 13.5 0-10.125 3.375-13.5 13.5-13.5-10.125 0-13.5-3.375-13.5-13.5zM171.032 528.124c-.471 10.114-4 13.328-14.114 12.855 10.114.473 13.328 4.001 12.856 14.115.472-10.114 4.001-13.328 14.115-12.855-10.114-.473-13.328-4.001-12.857-14.115zM634.5 347c0 10.125-3.375 13.5-13.5 13.5 10.125 0 13.5 3.375 13.5 13.5 0-10.125 3.375-13.5 13.5-13.5-10.125 0-13.5-3.375-13.5-13.5zM1168.6 527.531c-.63 10.105-4.2 13.268-14.31 12.651 10.11.617 13.27 4.191 12.64 14.297.63-10.106 4.2-13.268 14.31-12.652-10.11-.616-13.27-4.191-12.64-14.296z" fill="#2553AD"/></svg>