<svg width="1440" height="960" fill="none" xmlns="http://www.w3.org/2000/svg"><path d="M759.012 4.051c9.336 115.963-25.445 231.311-98.404 326.325-72.96 95.014-179.57 163.795-301.612 194.574-122.041 30.779-251.926 21.642-367.447-25.848-115.52-47.489-209.496-130.378-265.87-234.487" stroke="#2553AD"/><path d="M675.169 1.868c-9.421 110.473 21.216 220.708 87.136 313.502 65.922 92.795 163.42 162.929 277.285 199.448 113.87 36.52 237.68 37.366 352.13 2.409 114.44-34.958 213.06-103.751 280.48-195.634" stroke="#2553AD"/><path d="M1233.66-2.409c-71.98 65.168-125.71 152.221-154.77 250.757-29.06 98.536-32.22 204.381-9.1 304.88 23.12 100.498 71.54 191.393 139.47 261.821 67.92 70.427 152.48 117.408 243.55 135.336M208.809-.162c74.989 68.82 129.743 161.429 157.098 265.729 27.355 104.301 26.039 215.436-3.778 318.884-29.817 103.447-86.745 194.388-163.337 260.946C122.2 911.954 29.507 951.034-67.177 957.541" stroke="#2553AD"/><path d="M1166.5 60c0 10.125-3.38 13.5-13.5 13.5 10.12 0 13.5 3.375 13.5 13.5 0-10.125 3.38-13.5 13.5-13.5-10.12 0-13.5-3.375-13.5-13.5zM760.5 33c0 10.125-3.375 13.5-13.5 13.5 10.125 0 13.5 3.375 13.5 13.5 0-10.125 3.375-13.5 13.5-13.5-10.125 0-13.5-3.375-13.5-13.5zM171.032 528.124c-.471 10.114-4 13.328-14.114 12.855 10.114.473 13.328 4.001 12.856 14.115.472-10.114 4.001-13.328 14.115-12.855-10.114-.473-13.328-4.001-12.857-14.115zM634.5 347c0 10.125-3.375 13.5-13.5 13.5 10.125 0 13.5 3.375 13.5 13.5 0-10.125 3.375-13.5 13.5-13.5-10.125 0-13.5-3.375-13.5-13.5zM1168.6 527.531c-.63 10.105-4.2 13.268-14.31 12.651 10.11.617 13.27 4.191 12.64 14.297.63-10.106 4.2-13.268 14.31-12.652-10.11-.616-13.27-4.191-12.64-14.296z" fill="#2553AD"/></svg>