<svg width="1024" height="136" fill="none" xmlns="http://www.w3.org/2000/svg"><path d="M95.852 132.829L77.857 87.817H21.46L4.015 132.829H.848L51.345 2.646h3.925l51.738 130.183H95.852zm-73.451-47.04h54.698L49.371 16.04l-26.97 69.75zM125.102 109.776l5.738-6.127c3.558-3.736 6.542-4.1 6.358 1.48 1.125 16.538 12.005 25.468 30.368 26.766 28.095 1.868 47.972-14.488 41.04-34.397-8.24-25.057-81.324-30.865-78.707-67.312 1.308-18.793 21.737-30.889 47.032-28.451a61.639 61.639 0 0134.292 15.421l-3.741 7.267c-1.515 1.663-3.558.547-4.132-2.05-3.374-11.162-13.497-17.29-26.419-18.224-21.164-1.868-38.034 7.244-39.549 22.119-2.617 33.85 67.46 31.07 81.14 63.782 10.123 24.897-14.598 46.492-51.14 44.055-18.501-1.276-34.43-10.206-42.28-24.329zM327.851 4.696h-44.025v128.133H273.52V4.696h-46.114v-2.05h100.445v2.05zM434.853 132.827l-35.234-61.914c-11.798 3.349-24.927 6.128-38.034 10.593v51.321h-10.397V2.644h9.915c25.249 0 70.284-9.658 77.583 22.141 3.191 13.668-.551 25.057-11.981 34.032a64.08 64.08 0 01-19.488 9.682l37.093 64.328h-9.457zm-73.268-54.488c21.921-7.813 47.216-11.162 59.198-23.804 7.873-8.178 8.814-18.041 7.138-26.766-5.073-24.92-40.857-22.505-66.336-22.505v73.075zM460.328 67.362c0-38.292 28.118-66.925 65.785-66.925s65.762 28.633 65.762 66.925-28.095 67.335-65.762 67.335-65.785-28.838-65.785-67.335zm116.374-22.483c-16.87-33.85-52.104-47.837-79.832-34.966-26.603 12.073-36.726 47.426-21.37 80.342 16.068 34.032 51.164 47.836 79.649 34.396 26.603-11.89 37.047-47.061 21.553-79.772zM651.223 112.417a22.23 22.23 0 014.125-12.223 22.49 22.49 0 0110.242-7.929 22.678 22.678 0 0112.95-.995 22.561 22.561 0 0111.35 6.269 22.281 22.281 0 015.972 11.447 22.18 22.18 0 01-1.392 12.816 22.387 22.387 0 01-8.294 9.921 22.647 22.647 0 01-12.436 3.724 22.412 22.412 0 01-8.821-1.693 22.263 22.263 0 01-7.43-5.014 22.087 22.087 0 01-4.827-7.521 21.956 21.956 0 01-1.439-8.802zm39.847-7.654c-5.784-11.572-17.834-16.355-27.337-11.959-9.182 4.146-12.556 16.242-7.299 27.495 5.508 11.662 17.513 16.378 27.268 11.776 9.09-4.145 12.694-16.173 7.368-27.312zM881.421 2.646l-50.589 115.49L775.56 2.646h-9.388v130.183h1.698l.942-3.144V8.226l58.256 124.603L881.421 9.912V132.83h10.307V2.646h-10.307zM1012.04 132.828l-18-45.012h-56.397l-17.445 45.012h-3.19L967.62 2.645h3.925l51.715 130.183h-11.22zm-73.456-47.04h54.721l-27.728-69.75-26.993 69.75z" fill="#3056A1"/><path d="M672.016 2.896h3.397l-.574 87.814h-2.295c-.184-29.294-.36-58.565-.528-87.814z" fill="#3056A1"/><path d="M675.597 2.965l-2.64.342c2.341 14.943 4.69 29.893 7.047 44.852l1.262-.365-5.669-44.83zM691.148 69.846v-2.3h-34.591v2.3h34.591z" fill="#3056A1"/><path d="M692.648 51.691a.804.804 0 01.367-.182l43.612-8.77a21.744 21.744 0 0011.158-5.934 21.482 21.482 0 005.919-11.105l-64.27 19.818-17.375 24.351 20.589-18.178z" fill="#3056A1"/><path d="M748.709 41.896l-52.495 10.478a10.659 10.659 0 00-3.191 1.23l27.728 3.03a28.025 28.025 0 0016.295-3.042 27.739 27.739 0 0011.663-11.696zM735.198 59.706l-42.533-4.556c-.48-.05-.966.004-1.423.16l16.182 7.744a26.277 26.277 0 004.591 1.686 25.851 25.851 0 0012.213.302 25.74 25.74 0 0010.97-5.336zM690.266 56.52l11.752 11.025a16.114 16.114 0 008.307 4.145c3.12.54 6.331.151 9.229-1.115L690.266 56.52zM654.76 51.76a.598.598 0 00-.344-.159l-43.612-8.77a21.722 21.722 0 01-11.153-5.946 21.452 21.452 0 01-5.901-11.115l64.27 19.84 17.353 24.328-20.613-18.177z" fill="#3056A1"/><path d="M598.727 41.962l52.494 10.547c1.117.224 2.187.632 3.168 1.208L626.638 56.7a27.98 27.98 0 01-16.273-3.047 27.686 27.686 0 01-11.638-11.69zM612.23 59.8l42.533-4.557a3.58 3.58 0 011.4.16l-16.067 7.767h-.115a26.66 26.66 0 01-4.59 1.663 25.784 25.784 0 01-12.203.305A25.674 25.674 0 01612.23 59.8zM657.168 56.611l-11.753 11.026a16.112 16.112 0 01-8.31 4.132 16.18 16.18 0 01-9.226-1.126l29.289-14.032zM671.903 2.873l2.617.341-7.024 44.852-1.285-.364 5.692-44.83z" fill="#3056A1"/></svg>