<svg width="460" height="390" fill="none" xmlns="http://www.w3.org/2000/svg"><path d="M170.387 313.932a60.648 60.648 0 0111.295-33.393c6.997-9.791 16.751-17.324 28.045-21.66a62.233 62.233 0 0135.463-2.719c11.834 2.562 22.643 8.519 31.078 17.126a60.853 60.853 0 0116.355 31.273 60.497 60.497 0 01-3.814 35.014c-4.717 11.047-12.616 20.473-22.711 27.103a62.104 62.104 0 01-34.052 10.173 61.514 61.514 0 01-24.157-4.623 60.993 60.993 0 01-20.344-13.701 60.281 60.281 0 01-13.218-20.546 59.809 59.809 0 01-3.94-24.047zm109.114-20.909c-15.84-31.614-48.838-44.683-74.859-32.672-25.141 11.326-34.381 44.371-19.987 75.114 15.084 31.862 47.957 44.744 74.669 32.173 24.89-11.326 34.759-44.184 20.177-74.615z" fill="url(#paint0_linear_226_1392)"/><path d="M237.13 14.912l-7.228.934c6.411 40.824 12.843 81.668 19.296 122.534l3.457-.996L237.13 14.912z" fill="url(#paint1_linear_226_1392)"/><path d="M279.717 197.631v-6.285h-94.721v6.285h94.721z" fill="url(#paint2_linear_226_1392)"/><path d="M283.819 148.035a2.204 2.204 0 011.006-.497l119.421-23.96a59.568 59.568 0 0030.553-16.212 58.617 58.617 0 0016.21-30.337l-175.99 54.142-47.58 66.525 56.38-49.661z" fill="url(#paint3_linear_226_1392)"/><path d="M437.328 121.275l-143.746 28.627a29.198 29.198 0 00-8.736 3.36l75.927 8.277a76.899 76.899 0 0044.619-8.311c13.676-7.193 24.815-18.338 31.936-31.953z" fill="url(#paint4_linear_226_1392)"/><path d="M400.333 169.928l-116.467-12.447a9.198 9.198 0 00-3.897.436l44.312 21.159a72.074 72.074 0 0012.57 4.605 70.94 70.94 0 0033.443.825 70.54 70.54 0 0030.039-14.578z" fill="url(#paint5_linear_226_1392)"/><path d="M277.299 161.222l32.181 30.121a44.16 44.16 0 0022.746 11.323 44.395 44.395 0 0025.274-3.047l-80.201-38.397z" fill="url(#paint6_linear_226_1392)"/><path d="M180.068 148.222a1.644 1.644 0 00-.942-.436L59.704 123.827a59.513 59.513 0 01-30.54-16.243 58.564 58.564 0 01-16.16-30.368l175.99 54.203 47.517 66.464-56.443-49.661z" fill="url(#paint7_linear_226_1392)"/><path d="M26.635 121.451l143.746 28.813a28.077 28.077 0 018.674 3.299l-75.99 8.152a76.765 76.765 0 01-44.56-8.325c-13.654-7.193-24.77-18.334-31.87-31.939z" fill="url(#paint8_linear_226_1392)"/><path d="M63.613 170.183l116.468-12.446a9.822 9.822 0 013.834.436l-43.998 21.22h-.314a73.086 73.086 0 01-12.571 4.543 70.757 70.757 0 01-33.415.833 70.353 70.353 0 01-30.004-14.586z" fill="url(#paint9_linear_226_1392)"/><path d="M186.668 161.471l-32.181 30.12a44.153 44.153 0 01-22.757 11.291 44.398 44.398 0 01-25.263-3.076l80.201-38.335z" fill="url(#paint10_linear_226_1392)"/><path d="M227.023 14.663l7.165.933-19.233 122.535-3.519-.996 15.587-122.472z" fill="url(#paint11_linear_226_1392)"/><path d="M227.316 14.725h9.303l-1.572 239.903h-6.285c-.503-80.03-.985-159.997-1.446-239.903z" fill="url(#paint12_linear_226_1392)"/><defs><linearGradient id="paint0_linear_226_1392" x1="232.004" y1="254.75" x2="232.004" y2="376.853" gradientUnits="userSpaceOnUse"><stop stop-color="#5C84D1"/><stop offset="1" stop-color="#3F63A9"/><stop offset="1" stop-color="#2C529A"/></linearGradient><linearGradient id="paint1_linear_226_1392" x1="241.279" y1="14.912" x2="241.279" y2="138.38" gradientUnits="userSpaceOnUse"><stop stop-color="#5C84D1"/><stop offset="1" stop-color="#3F63A9"/><stop offset="1" stop-color="#2C529A"/></linearGradient><linearGradient id="paint2_linear_226_1392" x1="279.717" y1="194.488" x2="184.996" y2="194.488" gradientUnits="userSpaceOnUse"><stop stop-color="#5C84D1"/><stop offset="1" stop-color="#3F63A9"/><stop offset="1" stop-color="#2C529A"/></linearGradient><linearGradient id="paint3_linear_226_1392" x1="339.224" y1="77.029" x2="339.224" y2="197.696" gradientUnits="userSpaceOnUse"><stop stop-color="#5C84D1"/><stop offset="1" stop-color="#3F63A9"/><stop offset="1" stop-color="#2C529A"/></linearGradient><linearGradient id="paint4_linear_226_1392" x1="361.087" y1="121.275" x2="361.087" y2="162.05" gradientUnits="userSpaceOnUse"><stop stop-color="#5C84D1"/><stop offset="1" stop-color="#3F63A9"/><stop offset="1" stop-color="#2C529A"/></linearGradient><linearGradient id="paint5_linear_226_1392" x1="340.151" y1="157.432" x2="340.151" y2="186.114" gradientUnits="userSpaceOnUse"><stop stop-color="#5C84D1"/><stop offset="1" stop-color="#3F63A9"/><stop offset="1" stop-color="#2C529A"/></linearGradient><linearGradient id="paint6_linear_226_1392" x1="317.399" y1="161.222" x2="317.399" y2="203.312" gradientUnits="userSpaceOnUse"><stop stop-color="#5C84D1"/><stop offset="1" stop-color="#3F63A9"/><stop offset="1" stop-color="#2C529A"/></linearGradient><linearGradient id="paint7_linear_226_1392" x1="124.757" y1="77.216" x2="124.757" y2="197.883" gradientUnits="userSpaceOnUse"><stop stop-color="#5C84D1"/><stop offset="1" stop-color="#3F63A9"/><stop offset="1" stop-color="#2C529A"/></linearGradient><linearGradient id="paint8_linear_226_1392" x1="102.845" y1="121.451" x2="102.845" y2="162.221" gradientUnits="userSpaceOnUse"><stop stop-color="#5C84D1"/><stop offset="1" stop-color="#3F63A9"/><stop offset="1" stop-color="#2C529A"/></linearGradient><linearGradient id="paint9_linear_226_1392" x1="123.764" y1="157.702" x2="123.764" y2="186.376" gradientUnits="userSpaceOnUse"><stop stop-color="#5C84D1"/><stop offset="1" stop-color="#3F63A9"/><stop offset="1" stop-color="#2C529A"/></linearGradient><linearGradient id="paint10_linear_226_1392" x1="146.567" y1="161.471" x2="146.567" y2="203.518" gradientUnits="userSpaceOnUse"><stop stop-color="#5C84D1"/><stop offset="1" stop-color="#3F63A9"/><stop offset="1" stop-color="#2C529A"/></linearGradient><linearGradient id="paint11_linear_226_1392" x1="222.812" y1="14.663" x2="222.812" y2="138.131" gradientUnits="userSpaceOnUse"><stop stop-color="#5C84D1"/><stop offset="1" stop-color="#3F63A9"/><stop offset="1" stop-color="#2C529A"/></linearGradient><linearGradient id="paint12_linear_226_1392" x1="231.968" y1="14.725" x2="231.968" y2="254.628" gradientUnits="userSpaceOnUse"><stop stop-color="#5C84D1"/><stop offset="1" stop-color="#3F63A9"/><stop offset="1" stop-color="#2C529A"/></linearGradient></defs></svg>