<svg width="1162" height="159" fill="none" xmlns="http://www.w3.org/2000/svg"><path d="M1127.75 153.196h1.16c3.7 0 5.55-1.697 5.55-5.091 0-1.234-.23-2.546-.69-3.934l-20.83-56.234h-40.49l-20.14 55.308c-.46 1.234-.69 2.391-.69 3.471 0 2.006.54 3.626 1.62 4.86 1.08 1.08 2.24 1.62 3.47 1.62h1.16v2.314h-25.69v-2.314h1.16c2 0 3.93-1.157 5.78-3.471 2.01-2.469 3.63-5.323 4.86-8.563L1096.98 0l51.83 139.774c1.08 3.085 2.55 6.094 4.4 9.025 2 2.931 4.55 4.397 7.64 4.397h1.15v2.314h-34.25v-2.314zm-52.99-73.127h35.64l-17.82-48.365-17.82 48.365zM979.332 153.196h1.157c1.08 0 2.082-.463 3.008-1.388a12.354 12.354 0 002.314-3.24 12.463 12.463 0 001.62-3.934c.309-1.543.463-2.931.463-4.165V18.745l-59.705 139.311-56.696-132.137v114.55c0 1.234.154 2.622.463 4.165.308 1.388.771 2.7 1.388 3.934.772 1.234 1.62 2.314 2.546 3.24.925.925 2.005 1.388 3.239 1.388h1.158v2.314h-25.225v-2.314h1.158c1.079 0 2.082-.463 3.008-1.388a12.354 12.354 0 002.314-3.24 17.043 17.043 0 001.389-3.934c.308-1.543.462-2.931.462-4.165V17.125c0-1.08-.154-2.314-.462-3.703a17.037 17.037 0 00-1.389-3.934c-.617-1.234-1.388-2.237-2.314-3.008-.926-.926-1.929-1.389-3.008-1.389h-1.158V2.777h23.605l53.688 126.584L986.043 2.777h26.147v2.314h-1.15c-1.24 0-2.32.463-3.24 1.389-.93.771-1.78 1.774-2.55 3.008a16.947 16.947 0 00-1.39 3.934c-.31 1.389-.46 2.623-.46 3.703v123.344c0 1.234.15 2.622.46 4.165.31 1.388.77 2.7 1.39 3.934a17.968 17.968 0 002.55 3.24c.92.925 2 1.388 3.24 1.388h1.15v2.314h-32.858v-2.314zM752.15.463c12.034 0 22.833 2.16 32.398 6.48 9.565 4.165 17.665 9.873 24.299 17.124 6.788 7.097 11.956 15.428 15.504 24.993 3.703 9.41 5.554 19.284 5.554 29.62 0 11.571-2.16 22.216-6.479 31.936-4.166 9.719-9.951 18.05-17.356 24.993-7.405 6.942-16.045 12.419-25.919 16.43-9.719 3.857-20.133 5.785-31.241 5.785-11.879 0-22.601-2.16-32.166-6.479-9.411-4.32-17.433-10.028-24.067-17.125-6.48-7.097-11.494-15.273-15.042-24.53-3.548-9.256-5.323-18.899-5.323-28.927 0-9.873 1.775-19.593 5.323-29.158 3.548-9.719 8.717-18.358 15.505-25.918 6.942-7.56 15.35-13.653 25.224-18.282C728.238 2.777 739.5.463 752.15.463zm-.231 149.262c10.336-.463 19.362-2.777 27.075-6.943 7.868-4.319 14.425-9.719 19.67-16.199 5.246-6.633 9.103-13.884 11.571-21.752 2.623-7.869 3.934-15.66 3.934-23.373 0-8.486-1.543-17.048-4.628-25.687-3.086-8.64-7.482-16.43-13.191-23.373-5.708-7.097-12.573-12.805-20.595-17.125-7.869-4.474-16.739-6.71-26.613-6.71-9.565 0-18.127 2.16-25.687 6.479-7.56 4.165-14.039 9.565-19.439 16.199-5.245 6.634-9.256 14.039-12.033 22.216-2.777 8.176-4.166 16.199-4.166 24.067 0 8.485 1.62 17.047 4.86 25.687 3.24 8.485 7.714 16.199 13.422 23.141 5.708 6.942 12.419 12.574 20.133 16.893 7.868 4.32 16.43 6.48 25.687 6.48zM571.471.463c12.033 0 22.832 2.16 32.397 6.48 9.566 4.165 17.665 9.873 24.299 17.124 6.788 7.097 11.956 15.428 15.505 24.993 3.702 9.41 5.554 19.284 5.554 29.62 0 11.571-2.16 22.216-6.48 31.936-4.165 9.719-9.951 18.05-17.356 24.993-7.405 6.942-16.045 12.419-25.918 16.43-9.72 3.857-20.133 5.785-31.241 5.785-11.879 0-22.602-2.16-32.167-6.479-9.411-4.32-17.433-10.028-24.067-17.125-6.479-7.097-11.493-15.273-15.042-24.53-3.548-9.256-5.322-18.899-5.322-28.927 0-9.873 1.774-19.593 5.322-29.158 3.549-9.719 8.717-18.358 15.505-25.918 6.942-7.56 15.351-13.653 25.224-18.282C547.558 2.777 558.82.463 571.471.463zm-.232 149.262c10.337-.463 19.362-2.777 27.076-6.943 7.868-4.319 14.424-9.719 19.67-16.199 5.245-6.633 9.102-13.884 11.57-21.752 2.623-7.869 3.934-15.66 3.934-23.373 0-8.486-1.542-17.048-4.628-25.687-3.085-8.64-7.482-16.43-13.19-23.373-5.709-7.097-12.574-12.805-20.596-17.125-7.868-4.474-16.739-6.71-26.613-6.71-9.565 0-18.127 2.16-25.687 6.479-7.559 4.165-14.039 9.565-19.438 16.199-5.246 6.634-9.257 14.039-12.034 22.216-2.777 8.176-4.165 16.199-4.165 24.067 0 8.485 1.619 17.047 4.859 25.687 3.24 8.485 7.714 16.199 13.422 23.141 5.708 6.942 12.419 12.574 20.133 16.893 7.868 4.32 16.431 6.48 25.687 6.48zM395.359 153.196h1.157v2.314h-32.629v-2.314h1.157c1.08 0 2.082-.462 3.008-1.388a12.354 12.354 0 002.314-3.24 12.463 12.463 0 001.62-3.934c.309-1.543.463-2.931.463-4.165V17.125c0-1.08-.154-2.314-.463-3.703a12.46 12.46 0 00-1.62-3.934c-.617-1.234-1.388-2.237-2.314-3.008-.926-.926-1.928-1.389-3.008-1.389h-1.157V2.777h40.266c15.427 0 27.307 3.009 35.637 9.025 8.486 6.017 12.728 14.888 12.728 26.613 0 5.863-1.003 11.03-3.008 15.505-1.851 4.32-4.397 8.1-7.637 11.34-3.24 3.085-7.097 5.63-11.571 7.636-4.319 1.851-8.948 3.24-13.884 4.165l16.661 25.456a756.99 756.99 0 0012.265 18.281 418.448 418.448 0 0112.265 18.282 324.662 324.662 0 003.472 4.86 62.281 62.281 0 004.165 4.628c1.543 1.389 3.085 2.546 4.628 3.471 1.697.772 3.394 1.157 5.091 1.157v2.314h-9.95c-6.171 0-11.263-1.465-15.274-4.396-3.857-3.086-7.096-6.634-9.719-10.645a2695.512 2695.512 0 01-20.827-31.01 2723.31 2723.31 0 00-20.365-31.01 402.735 402.735 0 00-5.554-.462 368.456 368.456 0 01-5.322-.926v63.408c0 1.234.154 2.622.463 4.165.308 1.388.771 2.7 1.388 3.934a29.487 29.487 0 002.314 3.24c.926.926 2.006 1.388 3.24 1.388zm-7.405-142.55v58.778h1.157c1.234.155 3.162.31 5.785.463h10.182c3.24 0 6.634-.463 10.183-1.388a31.577 31.577 0 0010.182-5.091c3.24-2.469 5.862-5.631 7.868-9.488 2.16-3.857 3.24-8.717 3.24-14.58 0-5.862-1.157-10.644-3.472-14.347-2.159-3.702-5.245-6.634-9.256-8.794-3.857-2.16-8.562-3.625-14.116-4.397-5.554-.77-11.648-1.157-18.282-1.157h-3.471zM309.558 153.196h1.157v2.314h-32.86v-2.314h1.157c1.234 0 2.314-.462 3.239-1.388a12.38 12.38 0 002.315-3.24 12.484 12.484 0 001.619-3.934c.309-1.543.463-2.931.463-4.165V11.339h-26.844c-2.468 0-4.628.54-6.479 1.62a14.998 14.998 0 00-4.629 4.166c-1.234 1.543-2.159 3.317-2.777 5.323-.617 1.85-.925 3.702-.925 5.553h-2.314V2.777h103.905v25.224h-2.315c0-1.85-.308-3.702-.925-5.553-.617-2.006-1.543-3.78-2.777-5.323a14.986 14.986 0 00-4.629-4.165c-1.851-1.08-4.011-1.62-6.479-1.62h-27.307v129.129c0 1.234.154 2.622.463 4.165.308 1.388.771 2.7 1.388 3.934a29.62 29.62 0 002.314 3.24c.926.926 2.006 1.388 3.24 1.388zM235.243 114.55c0 7.714-1.543 14.348-4.628 19.901-3.086 5.4-7.097 9.797-12.034 13.191-4.783 3.394-10.259 5.863-16.43 7.405-6.017 1.543-12.034 2.314-18.051 2.314-6.171 0-11.493-.617-15.967-1.851a871.128 871.128 0 01-12.265-3.471c-2.469-.771-4.706-1.389-6.711-1.851a20.37 20.37 0 00-6.017-.926v-26.381h2.314c0 5.862 1.466 10.568 4.397 14.116 3.086 3.394 6.634 6.017 10.645 7.868 4.011 1.851 8.022 3.086 12.034 3.703 4.011.463 6.942.694 8.793.694 6.634 0 12.342-.926 17.125-2.777 4.783-2.006 8.717-4.551 11.802-7.637 3.086-3.239 5.323-6.788 6.711-10.645 1.543-3.857 2.314-7.791 2.314-11.802 0-5.091-1.08-9.333-3.24-12.728-2.159-3.548-5.014-6.633-8.562-9.256-3.394-2.623-7.328-4.86-11.802-6.711a1247.904 1247.904 0 00-13.653-5.554 463.338 463.338 0 01-15.505-6.248c-5.091-2.16-9.642-4.783-13.654-7.868-4.011-3.24-7.25-7.02-9.719-11.34-2.468-4.474-3.702-9.95-3.702-16.43 0-6.788 1.311-12.65 3.934-17.587 2.622-5.091 6.093-9.257 10.413-12.497 4.474-3.24 9.488-5.63 15.042-7.174 5.708-1.697 11.494-2.545 17.356-2.545 4.011 0 7.791.308 11.339.926a99.537 99.537 0 0110.183 1.85c2.622.618 5.168 1.158 7.636 1.62 2.469.31 4.86.464 7.174.464v23.835h-2.314c-.309-8.022-3.471-13.422-9.488-16.199-6.017-2.931-14.348-4.397-24.993-4.397-6.171 0-11.262 1.08-15.273 3.24-3.857 2.006-6.942 4.551-9.257 7.637-2.314 2.931-3.934 6.17-4.859 9.72-.772 3.393-1.157 6.402-1.157 9.024 0 4.32.925 8.023 2.777 11.108 2.005 3.086 4.628 5.786 7.868 8.1 3.239 2.314 6.942 4.397 11.108 6.248a269.765 269.765 0 0013.422 5.322 434.731 434.731 0 0115.967 6.48c5.4 2.314 10.182 5.168 14.348 8.562 4.319 3.394 7.791 7.56 10.413 12.497 2.777 4.936 4.166 10.953 4.166 18.05zM95.574 153.196h1.157c3.703 0 5.554-1.697 5.554-5.091 0-1.234-.231-2.546-.694-3.934L80.763 87.937H40.266l-20.133 55.308c-.463 1.234-.694 2.391-.694 3.471 0 2.006.54 3.626 1.62 4.86 1.08 1.08 2.237 1.62 3.47 1.62h1.158v2.314H0v-2.314h1.157c2.006 0 3.934-1.157 5.785-3.471 2.006-2.469 3.626-5.323 4.86-8.563L64.796 0l51.837 139.774c1.08 3.085 2.545 6.094 4.396 9.025 2.006 2.931 4.552 4.397 7.637 4.397h1.157v2.314h-34.25v-2.314zM42.58 80.069h35.638L60.399 31.704 42.58 80.069z" fill="#fff" fill-opacity=".1"/></svg>