<svg width="64" height="64" fill="none" xmlns="http://www.w3.org/2000/svg"><path d="M16.45 54.975V42.559" stroke="url(#paint0_linear_703_2248)" stroke-width="1.5" stroke-miterlimit="10" stroke-linecap="round" stroke-linejoin="round"/><path d="M47.55 54.975V42.559" stroke="url(#paint1_linear_703_2248)" stroke-width="1.5" stroke-miterlimit="10" stroke-linecap="round" stroke-linejoin="round"/><path d="M16.448 9.023a6.282 6.282 0 00-6.272 6.272v.832a6.282 6.282 0 006.272 6.272 6.282 6.282 0 006.272-6.272v-.832a6.282 6.282 0 00-6.272-6.272z" stroke="url(#paint2_linear_703_2248)" stroke-width="1.5" stroke-miterlimit="10" stroke-linecap="round" stroke-linejoin="round"/><path d="M19.648 21.568h3.264c3.328 0 5.824 3.136 5.824 6.4v11.84h-4.672V55.04H8.832V39.744H4.16v-11.84c0-3.264 2.56-6.4 5.824-6.4h3.264" stroke="url(#paint3_linear_703_2248)" stroke-width="1.5" stroke-miterlimit="10" stroke-linecap="round" stroke-linejoin="round"/><path d="M47.551 9.023a6.282 6.282 0 00-6.272 6.272v.832a6.282 6.282 0 006.272 6.272 6.282 6.282 0 006.272-6.272v-.832a6.282 6.282 0 00-6.272-6.272z" stroke="url(#paint4_linear_703_2248)" stroke-width="1.5" stroke-miterlimit="10" stroke-linecap="round" stroke-linejoin="round"/><path d="M50.688 21.568h3.264c3.328 0 5.824 3.136 5.824 6.4v11.84h-4.672V55.04H39.936V39.744h-4.672v-11.84c0-3.264 2.56-6.4 5.824-6.4h3.264" stroke="url(#paint5_linear_703_2248)" stroke-width="1.5" stroke-miterlimit="10" stroke-linecap="round" stroke-linejoin="round"/><path d="M18.047 34.432l-3.328-3.264m0 0l3.264-3.264m-3.264 3.264h34.56m-3.328 3.264l3.264-3.264-3.264-3.264" stroke="url(#paint6_linear_703_2248)" stroke-width="1.5" stroke-miterlimit="10" stroke-linecap="round" stroke-linejoin="round"/><defs><linearGradient id="paint0_linear_703_2248" x1="16.949" y1="42.559" x2="16.949" y2="54.975" gradientUnits="userSpaceOnUse"><stop stop-color="#CDAC7F"/><stop offset="1" stop-color="#CDAC7F" stop-opacity=".6"/></linearGradient><linearGradient id="paint1_linear_703_2248" x1="48.051" y1="42.559" x2="48.051" y2="54.975" gradientUnits="userSpaceOnUse"><stop stop-color="#CDAC7F"/><stop offset="1" stop-color="#CDAC7F" stop-opacity=".6"/></linearGradient><linearGradient id="paint2_linear_703_2248" x1="16.448" y1="9.023" x2="16.448" y2="22.399" gradientUnits="userSpaceOnUse"><stop stop-color="#CDAC7F"/><stop offset="1" stop-color="#CDAC7F" stop-opacity=".6"/></linearGradient><linearGradient id="paint3_linear_703_2248" x1="16.448" y1="21.504" x2="16.448" y2="55.04" gradientUnits="userSpaceOnUse"><stop stop-color="#CDAC7F"/><stop offset="1" stop-color="#CDAC7F" stop-opacity=".6"/></linearGradient><linearGradient id="paint4_linear_703_2248" x1="47.551" y1="9.023" x2="47.551" y2="22.399" gradientUnits="userSpaceOnUse"><stop stop-color="#CDAC7F"/><stop offset="1" stop-color="#CDAC7F" stop-opacity=".6"/></linearGradient><linearGradient id="paint5_linear_703_2248" x1="47.52" y1="21.504" x2="47.52" y2="55.04" gradientUnits="userSpaceOnUse"><stop stop-color="#CDAC7F"/><stop offset="1" stop-color="#CDAC7F" stop-opacity=".6"/></linearGradient><linearGradient id="paint6_linear_703_2248" x1="31.999" y1="27.904" x2="31.999" y2="34.432" gradientUnits="userSpaceOnUse"><stop stop-color="#CDAC7F"/><stop offset="1" stop-color="#CDAC7F" stop-opacity=".6"/></linearGradient></defs></svg>