<svg width="64" height="64" fill="none" xmlns="http://www.w3.org/2000/svg"><path d="M35.136 27.968a5.544 5.544 0 01-.384-2.048v-.768c0-3.2 2.624-5.824 5.824-5.824 3.2 0 5.824 2.624 5.824 5.824v.768c0 3.2-2.624 5.824-5.824 5.824-1.152 0-2.24-.32-3.136-.896" stroke="url(#paint0_linear_703_2236)" stroke-width="1.5" stroke-miterlimit="10" stroke-linecap="round" stroke-linejoin="round"/><path d="M45.057 29.568c3.392.448 6.08 3.328 6.08 6.848v1.6" stroke="url(#paint1_linear_703_2236)" stroke-width="1.5" stroke-miterlimit="10" stroke-linecap="round" stroke-linejoin="round"/><path d="M28.866 27.968c.256-.64.384-1.344.384-2.048v-.768c0-3.2-2.624-5.824-5.824-5.824-3.2 0-5.824 2.624-5.824 5.824v.768c0 3.2 2.624 5.824 5.824 5.824 1.152 0 2.24-.32 3.136-.896" stroke="url(#paint2_linear_703_2236)" stroke-width="1.5" stroke-miterlimit="10" stroke-linecap="round" stroke-linejoin="round"/><path d="M18.943 29.568c-3.392.448-6.08 3.328-6.08 6.848v1.6" stroke="url(#paint3_linear_703_2236)" stroke-width="1.5" stroke-miterlimit="10" stroke-linecap="round" stroke-linejoin="round"/><path d="M32 27.008c-3.2 0-5.824 2.624-5.824 5.824v.768c0 3.2 2.624 5.824 5.824 5.824 3.2 0 5.824-2.624 5.824-5.824v-.768c0-3.2-2.624-5.824-5.824-5.824z" stroke="url(#paint4_linear_703_2236)" stroke-width="1.5" stroke-miterlimit="10" stroke-linecap="round" stroke-linejoin="round"/><path d="M36.481 37.248c3.392.448 6.08 3.328 6.08 6.848v2.816m-21.12.064V44.16c0-3.52 2.624-6.464 6.08-6.848" stroke="url(#paint5_linear_703_2236)" stroke-width="1.5" stroke-miterlimit="10" stroke-linecap="round" stroke-linejoin="round"/><path d="M34.048 55.809c-.576.576-1.344.896-2.048.896-.768 0-1.472-.32-2.048-.896L8.64 33.663c-13.696-14.272 7.04-35.968 20.8-21.632l2.496 2.624 2.56-2.623c13.76-14.337 34.56 7.36 20.8 21.631L34.048 55.81z" stroke="url(#paint6_linear_703_2236)" stroke-width="1.5" stroke-miterlimit="10" stroke-linecap="round" stroke-linejoin="round"/><defs><linearGradient id="paint0_linear_703_2236" x1="40.576" y1="19.328" x2="40.576" y2="31.744" gradientUnits="userSpaceOnUse"><stop stop-color="#CDAC7F"/><stop offset="1" stop-color="#CDAC7F" stop-opacity=".6"/></linearGradient><linearGradient id="paint1_linear_703_2236" x1="48.097" y1="29.568" x2="48.097" y2="38.016" gradientUnits="userSpaceOnUse"><stop stop-color="#CDAC7F"/><stop offset="1" stop-color="#CDAC7F" stop-opacity=".6"/></linearGradient><linearGradient id="paint2_linear_703_2236" x1="23.426" y1="19.328" x2="23.426" y2="31.744" gradientUnits="userSpaceOnUse"><stop stop-color="#CDAC7F"/><stop offset="1" stop-color="#CDAC7F" stop-opacity=".6"/></linearGradient><linearGradient id="paint3_linear_703_2236" x1="15.903" y1="29.568" x2="15.903" y2="38.016" gradientUnits="userSpaceOnUse"><stop stop-color="#CDAC7F"/><stop offset="1" stop-color="#CDAC7F" stop-opacity=".6"/></linearGradient><linearGradient id="paint4_linear_703_2236" x1="32" y1="27.008" x2="32" y2="39.424" gradientUnits="userSpaceOnUse"><stop stop-color="#CDAC7F"/><stop offset="1" stop-color="#CDAC7F" stop-opacity=".6"/></linearGradient><linearGradient id="paint5_linear_703_2236" x1="32.001" y1="37.248" x2="32.001" y2="46.976" gradientUnits="userSpaceOnUse"><stop stop-color="#CDAC7F"/><stop offset="1" stop-color="#CDAC7F" stop-opacity=".6"/></linearGradient><linearGradient id="paint6_linear_703_2236" x1="31.981" y1="7.33" x2="31.981" y2="56.705" gradientUnits="userSpaceOnUse"><stop stop-color="#CDAC7F"/><stop offset="1" stop-color="#CDAC7F" stop-opacity=".6"/></linearGradient></defs></svg>