<svg width="146" height="51" fill="none" xmlns="http://www.w3.org/2000/svg"><path d="M18.712 35.305l-2.309-5.782H9.168L6.93 35.305h-.407l6.48-16.724h.503l6.637 16.724h-1.43zM9.29 29.262h7.017l-3.557-8.96-3.46 8.96zM22.465 32.344l.736-.787c.456-.48.84-.527.816.19.144 2.125 1.54 3.272 3.896 3.439 3.604.24 6.155-1.861 5.265-4.42-1.057-3.218-10.433-3.964-10.098-8.646.168-2.415 2.79-3.968 6.034-3.655a7.903 7.903 0 014.4 1.98l-.48.934c-.194.214-.457.07-.53-.263-.433-1.434-1.732-2.221-3.39-2.341-2.715-.24-4.88.93-5.074 2.841-.335 4.349 8.655 3.992 10.41 8.194 1.299 3.198-1.873 5.973-6.56 5.66-2.374-.164-4.418-1.312-5.425-3.126zM48.476 18.845h-5.648v16.46h-1.322v-16.46H35.59v-.264h12.886v.264zM62.203 35.305l-4.52-7.953c-1.514.43-3.199.787-4.88 1.36v6.593h-1.334V18.581h1.272c3.24 0 9.017-1.24 9.953 2.845.41 1.756-.07 3.219-1.537 4.372a8.216 8.216 0 01-2.5 1.243l4.759 8.264h-1.213zm-9.4-7c2.812-1.003 6.057-1.433 7.595-3.057 1.01-1.051 1.13-2.318.915-3.439-.65-3.201-5.242-2.891-8.51-2.891v9.388zM65.473 26.895c0-4.919 3.607-8.597 8.44-8.597 4.832 0 8.437 3.678 8.437 8.597 0 4.92-3.605 8.65-8.438 8.65-4.832 0-8.44-3.704-8.44-8.65zm14.93-2.888c-2.165-4.348-6.685-6.145-10.242-4.492-3.413 1.551-4.712 6.093-2.742 10.321 2.062 4.372 6.564 6.145 10.219 4.419 3.413-1.528 4.753-6.046 2.765-10.248zM89.963 32.683c.018-.563.202-1.11.53-1.57.328-.46.785-.815 1.314-1.018a2.907 2.907 0 013.117.677 2.865 2.865 0 01.588 3.117c-.221.52-.591.963-1.064 1.274a2.903 2.903 0 01-1.596.479 2.874 2.874 0 01-2.085-.862 2.836 2.836 0 01-.803-2.097zm5.113-.983c-.742-1.486-2.288-2.101-3.508-1.536-1.177.532-1.61 2.086-.936 3.532.707 1.498 2.247 2.104 3.498 1.513 1.167-.533 1.629-2.078.946-3.509zM119.497 18.581l-6.49 14.837-7.092-14.837h-1.204v16.724h.218l.121-.404V19.298l7.474 16.007 6.973-15.79v15.79h1.322V18.581h-1.322zM136.254 35.305l-2.309-5.782h-7.235l-2.238 5.782h-.41l6.494-16.724h.503l6.635 16.724h-1.44zm-9.423-6.043h7.02l-3.557-8.96-3.463 8.96z" fill="#fff"/><path d="M92.633 18.614h.436l-.074 11.28h-.294c-.024-3.763-.047-7.523-.068-11.28z" fill="#fff"/><path d="M93.089 18.623l-.339.043c.3 1.92.602 3.84.904 5.762l.162-.047-.727-5.758zM95.086 27.215v-.296h-4.438v.296h4.438z" fill="#fff"/><path d="M95.278 24.882a.104.104 0 01.047-.023l5.596-1.127a2.789 2.789 0 001.431-.762c.39-.39.655-.887.759-1.426l-8.245 2.545-2.23 3.129 2.642-2.336z" fill="#fff"/><path d="M102.472 23.624l-6.734 1.346c-.145.03-.283.084-.41.158l3.557.39c.721.083 1.45-.053 2.091-.392a3.555 3.555 0 001.496-1.502zM100.737 25.912l-5.457-.585a.43.43 0 00-.182.02l2.076.995a3.365 3.365 0 002.156.255c.517-.112 1-.347 1.407-.685zM94.973 25.502l1.507 1.417a2.066 2.066 0 002.25.389l-3.757-1.806zM90.417 24.891a.076.076 0 00-.044-.02l-5.595-1.127a2.785 2.785 0 01-1.431-.764 2.756 2.756 0 01-.757-1.428l8.245 2.549 2.227 3.125-2.645-2.335z" fill="#fff"/><path d="M83.227 23.632l6.734 1.355c.144.029.281.081.407.155l-3.56.384a3.586 3.586 0 01-2.088-.392 3.554 3.554 0 01-1.493-1.502zM84.96 25.924l5.458-.585a.459.459 0 01.18.02l-2.062.998h-.015c-.19.089-.386.16-.589.213a3.303 3.303 0 01-2.971-.646zM90.726 25.514L89.22 26.93a2.066 2.066 0 01-2.25.387l3.757-1.803zM92.617 18.61l.336.045-.901 5.762-.165-.047.73-5.76z" fill="#fff"/></svg>