<?xml version="1.0" encoding="utf-8"?><svg viewBox="0 0 1440 960" xmlns="http://www.w3.org/2000/svg" xmlns:xlink="http://www.w3.org/1999/xlink"><style>:root>svg{display:none}:root>svg:target{display:block}</style><svg fill="none" viewBox="0 0 1440 614" id="bg-blue-with-patterns" xmlns="http://www.w3.org/2000/svg"><path d="M759.012 4.051c9.336 115.963-25.445 231.311-98.404 326.325-72.96 95.014-179.57 163.795-301.612 194.574-122.041 30.779-251.926 21.642-367.447-25.848-115.52-47.489-209.496-130.378-265.87-234.487" stroke="#2553AD"/><path d="M675.169 1.868c-9.421 110.473 21.216 220.708 87.136 313.502 65.922 92.795 163.42 162.929 277.285 199.448 113.87 36.52 237.68 37.366 352.13 2.409 114.44-34.958 213.06-103.751 280.48-195.634" stroke="#2553AD"/><path d="M1233.66-2.409c-79.9 72.341-137.11 171.45-163.27 282.867-26.16 111.416-19.9 229.299 17.86 336.44M208.809-.161C288.072 72.58 344.614 171.79 370.213 283.063c25.599 111.273 18.919 228.806-19.066 335.528" stroke="#2553AD"/><path d="M1166.5 60c0 10.125-3.38 13.5-13.5 13.5 10.12 0 13.5 3.375 13.5 13.5 0-10.125 3.38-13.5 13.5-13.5-10.12 0-13.5-3.375-13.5-13.5zm-406-27c0 10.125-3.375 13.5-13.5 13.5 10.125 0 13.5 3.375 13.5 13.5 0-10.125 3.375-13.5 13.5-13.5-10.125 0-13.5-3.375-13.5-13.5zM171.032 528.124c-.471 10.114-4 13.328-14.114 12.855 10.114.473 13.328 4.001 12.856 14.115.472-10.114 4.001-13.328 14.115-12.855-10.114-.473-13.328-4.001-12.857-14.115zM634.5 347c0 10.125-3.375 13.5-13.5 13.5 10.125 0 13.5 3.375 13.5 13.5 0-10.125 3.375-13.5 13.5-13.5-10.125 0-13.5-3.375-13.5-13.5zm534.1 180.531c-.63 10.105-4.2 13.268-14.31 12.651 10.11.617 13.27 4.191 12.64 14.297.63-10.106 4.2-13.268 14.31-12.652-10.11-.616-13.27-4.191-12.64-14.296z" fill="#2553AD"/></svg><svg fill="none" viewBox="0 0 1440 960" id="big-bg-blue-with-patterns" xmlns="http://www.w3.org/2000/svg"><path d="M759.012 4.051c9.336 115.963-25.445 231.311-98.404 326.325-72.96 95.014-179.57 163.795-301.612 194.574-122.041 30.779-251.926 21.642-367.447-25.848-115.52-47.489-209.496-130.378-265.87-234.487" stroke="#2553AD"/><path d="M675.169 1.868c-9.421 110.473 21.216 220.708 87.136 313.502 65.922 92.795 163.42 162.929 277.285 199.448 113.87 36.52 237.68 37.366 352.13 2.409 114.44-34.958 213.06-103.751 280.48-195.634" stroke="#2553AD"/><path d="M1233.66-2.409c-71.98 65.168-125.71 152.221-154.77 250.757-29.06 98.536-32.22 204.381-9.1 304.88 23.12 100.498 71.54 191.393 139.47 261.821 67.92 70.427 152.48 117.408 243.55 135.336M208.809-.162c74.989 68.82 129.743 161.429 157.098 265.729 27.355 104.301 26.039 215.436-3.778 318.884-29.817 103.447-86.745 194.388-163.337 260.946C122.2 911.954 29.507 951.034-67.177 957.541" stroke="#2553AD"/><path d="M1166.5 60c0 10.125-3.38 13.5-13.5 13.5 10.12 0 13.5 3.375 13.5 13.5 0-10.125 3.38-13.5 13.5-13.5-10.12 0-13.5-3.375-13.5-13.5zm-406-27c0 10.125-3.375 13.5-13.5 13.5 10.125 0 13.5 3.375 13.5 13.5 0-10.125 3.375-13.5 13.5-13.5-10.125 0-13.5-3.375-13.5-13.5zM171.032 528.124c-.471 10.114-4 13.328-14.114 12.855 10.114.473 13.328 4.001 12.856 14.115.472-10.114 4.001-13.328 14.115-12.855-10.114-.473-13.328-4.001-12.857-14.115zM634.5 347c0 10.125-3.375 13.5-13.5 13.5 10.125 0 13.5 3.375 13.5 13.5 0-10.125 3.375-13.5 13.5-13.5-10.125 0-13.5-3.375-13.5-13.5zm534.1 180.531c-.63 10.105-4.2 13.268-14.31 12.651 10.11.617 13.27 4.191 12.64 14.297.63-10.106 4.2-13.268 14.31-12.652-10.11-.616-13.27-4.191-12.64-14.296z" fill="#2553AD"/></svg><svg fill="none" viewBox="0 0 1024 136" id="big-logo" xmlns="http://www.w3.org/2000/svg"><path d="M95.852 132.829L77.857 87.817H21.46L4.015 132.829H.848L51.345 2.646h3.925l51.738 130.183H95.852zm-73.451-47.04h54.698L49.371 16.04l-26.97 69.75zm102.701 23.987l5.738-6.127c3.558-3.736 6.542-4.1 6.358 1.48 1.125 16.538 12.005 25.468 30.368 26.766 28.095 1.868 47.972-14.488 41.04-34.397-8.24-25.057-81.324-30.865-78.707-67.312 1.308-18.793 21.737-30.889 47.032-28.451a61.639 61.639 0 0134.292 15.421l-3.741 7.267c-1.515 1.663-3.558.547-4.132-2.05-3.374-11.162-13.497-17.29-26.419-18.224-21.164-1.868-38.034 7.244-39.549 22.119-2.617 33.85 67.46 31.07 81.14 63.782 10.123 24.897-14.598 46.492-51.14 44.055-18.501-1.276-34.43-10.206-42.28-24.329zM327.851 4.696h-44.025v128.133H273.52V4.696h-46.114v-2.05h100.445v2.05zm107.002 128.131l-35.234-61.914c-11.798 3.349-24.927 6.128-38.034 10.593v51.321h-10.397V2.644h9.915c25.249 0 70.284-9.658 77.583 22.141 3.191 13.668-.551 25.057-11.981 34.032a64.08 64.08 0 01-19.488 9.682l37.093 64.328h-9.457zm-73.268-54.488c21.921-7.813 47.216-11.162 59.198-23.804 7.873-8.178 8.814-18.041 7.138-26.766-5.073-24.92-40.857-22.505-66.336-22.505v73.075zm98.743-10.977c0-38.292 28.118-66.925 65.785-66.925s65.762 28.633 65.762 66.925-28.095 67.335-65.762 67.335-65.785-28.838-65.785-67.335zm116.374-22.483c-16.87-33.85-52.104-47.837-79.832-34.966-26.603 12.073-36.726 47.426-21.37 80.342 16.068 34.032 51.164 47.836 79.649 34.396 26.603-11.89 37.047-47.061 21.553-79.772zm74.521 67.538a22.23 22.23 0 014.125-12.223 22.49 22.49 0 0110.242-7.929 22.678 22.678 0 0112.95-.995 22.561 22.561 0 0111.35 6.269 22.281 22.281 0 015.972 11.447 22.18 22.18 0 01-1.392 12.816 22.387 22.387 0 01-8.294 9.921 22.647 22.647 0 01-12.436 3.724 22.412 22.412 0 01-8.821-1.693 22.263 22.263 0 01-7.43-5.014 22.087 22.087 0 01-4.827-7.521 21.956 21.956 0 01-1.439-8.802zm39.847-7.654c-5.784-11.572-17.834-16.355-27.337-11.959-9.182 4.146-12.556 16.242-7.299 27.495 5.508 11.662 17.513 16.378 27.268 11.776 9.09-4.145 12.694-16.173 7.368-27.312zM881.421 2.646l-50.589 115.49L775.56 2.646h-9.388v130.183h1.698l.942-3.144V8.226l58.256 124.603L881.421 9.912V132.83h10.307V2.646h-10.307zm130.619 130.182l-18-45.012h-56.397l-17.445 45.012h-3.19L967.62 2.645h3.925l51.715 130.183h-11.22zm-73.456-47.04h54.721l-27.728-69.75-26.993 69.75z" fill="#3056A1"/><path d="M672.016 2.896h3.397l-.574 87.814h-2.295c-.184-29.294-.36-58.565-.528-87.814z" fill="#3056A1"/><path d="M675.597 2.965l-2.64.342c2.341 14.943 4.69 29.893 7.047 44.852l1.262-.365-5.669-44.83zm15.551 66.881v-2.3h-34.591v2.3h34.591z" fill="#3056A1"/><path d="M692.648 51.691a.804.804 0 01.367-.182l43.612-8.77a21.744 21.744 0 0011.158-5.934 21.482 21.482 0 005.919-11.105l-64.27 19.818-17.375 24.351 20.589-18.178z" fill="#3056A1"/><path d="M748.709 41.896l-52.495 10.478a10.659 10.659 0 00-3.191 1.23l27.728 3.03a28.025 28.025 0 0016.295-3.042 27.739 27.739 0 0011.663-11.696zm-13.511 17.81l-42.533-4.556c-.48-.05-.966.004-1.423.16l16.182 7.744a26.277 26.277 0 004.591 1.686 25.851 25.851 0 0012.213.302 25.74 25.74 0 0010.97-5.336zm-44.932-3.186l11.752 11.025a16.114 16.114 0 008.307 4.145c3.12.54 6.331.151 9.229-1.115L690.266 56.52zm-35.506-4.76a.598.598 0 00-.344-.159l-43.612-8.77a21.722 21.722 0 01-11.153-5.946 21.452 21.452 0 01-5.901-11.115l64.27 19.84 17.353 24.328-20.613-18.177z" fill="#3056A1"/><path d="M598.727 41.962l52.494 10.547c1.117.224 2.187.632 3.168 1.208L626.638 56.7a27.98 27.98 0 01-16.273-3.047 27.686 27.686 0 01-11.638-11.69zM612.23 59.8l42.533-4.557a3.58 3.58 0 011.4.16l-16.067 7.767h-.115a26.66 26.66 0 01-4.59 1.663 25.784 25.784 0 01-12.203.305A25.674 25.674 0 01612.23 59.8zm44.938-3.189l-11.753 11.026a16.112 16.112 0 01-8.31 4.132 16.18 16.18 0 01-9.226-1.126l29.289-14.032zm14.735-53.738l2.617.341-7.024 44.852-1.285-.364 5.692-44.83z" fill="#3056A1"/></svg><svg fill="none" viewBox="0 0 1162 159" id="big-logo-grey" xmlns="http://www.w3.org/2000/svg"><path d="M1127.75 153.196h1.16c3.7 0 5.55-1.697 5.55-5.091 0-1.234-.23-2.546-.69-3.934l-20.83-56.234h-40.49l-20.14 55.308c-.46 1.234-.69 2.391-.69 3.471 0 2.006.54 3.626 1.62 4.86 1.08 1.08 2.24 1.62 3.47 1.62h1.16v2.314h-25.69v-2.314h1.16c2 0 3.93-1.157 5.78-3.471 2.01-2.469 3.63-5.323 4.86-8.563L1096.98 0l51.83 139.774c1.08 3.085 2.55 6.094 4.4 9.025 2 2.931 4.55 4.397 7.64 4.397h1.15v2.314h-34.25v-2.314zm-52.99-73.127h35.64l-17.82-48.365-17.82 48.365zm-95.428 73.127h1.157c1.08 0 2.082-.463 3.008-1.388a12.354 12.354 0 002.314-3.24 12.463 12.463 0 001.62-3.934c.309-1.543.463-2.931.463-4.165V18.745l-59.705 139.311-56.696-132.137v114.55c0 1.234.154 2.622.463 4.165.308 1.388.771 2.7 1.388 3.934.772 1.234 1.62 2.314 2.546 3.24.925.925 2.005 1.388 3.239 1.388h1.158v2.314h-25.225v-2.314h1.158c1.079 0 2.082-.463 3.008-1.388a12.354 12.354 0 002.314-3.24 17.043 17.043 0 001.389-3.934c.308-1.543.462-2.931.462-4.165V17.125c0-1.08-.154-2.314-.462-3.703a17.037 17.037 0 00-1.389-3.934c-.617-1.234-1.388-2.237-2.314-3.008-.926-.926-1.929-1.389-3.008-1.389h-1.158V2.777h23.605l53.688 126.584L986.043 2.777h26.147v2.314h-1.15c-1.24 0-2.32.463-3.24 1.389-.93.771-1.78 1.774-2.55 3.008a16.947 16.947 0 00-1.39 3.934c-.31 1.389-.46 2.623-.46 3.703v123.344c0 1.234.15 2.622.46 4.165.31 1.388.77 2.7 1.39 3.934a17.968 17.968 0 002.55 3.24c.92.925 2 1.388 3.24 1.388h1.15v2.314h-32.858v-2.314zM752.15.463c12.034 0 22.833 2.16 32.398 6.48 9.565 4.165 17.665 9.873 24.299 17.124 6.788 7.097 11.956 15.428 15.504 24.993 3.703 9.41 5.554 19.284 5.554 29.62 0 11.571-2.16 22.216-6.479 31.936-4.166 9.719-9.951 18.05-17.356 24.993-7.405 6.942-16.045 12.419-25.919 16.43-9.719 3.857-20.133 5.785-31.241 5.785-11.879 0-22.601-2.16-32.166-6.479-9.411-4.32-17.433-10.028-24.067-17.125-6.48-7.097-11.494-15.273-15.042-24.53-3.548-9.256-5.323-18.899-5.323-28.927 0-9.873 1.775-19.593 5.323-29.158 3.548-9.719 8.717-18.358 15.505-25.918 6.942-7.56 15.35-13.653 25.224-18.282C728.238 2.777 739.5.463 752.15.463zm-.231 149.262c10.336-.463 19.362-2.777 27.075-6.943 7.868-4.319 14.425-9.719 19.67-16.199 5.246-6.633 9.103-13.884 11.571-21.752 2.623-7.869 3.934-15.66 3.934-23.373 0-8.486-1.543-17.048-4.628-25.687-3.086-8.64-7.482-16.43-13.191-23.373-5.708-7.097-12.573-12.805-20.595-17.125-7.869-4.474-16.739-6.71-26.613-6.71-9.565 0-18.127 2.16-25.687 6.479-7.56 4.165-14.039 9.565-19.439 16.199-5.245 6.634-9.256 14.039-12.033 22.216-2.777 8.176-4.166 16.199-4.166 24.067 0 8.485 1.62 17.047 4.86 25.687 3.24 8.485 7.714 16.199 13.422 23.141 5.708 6.942 12.419 12.574 20.133 16.893 7.868 4.32 16.43 6.48 25.687 6.48zM571.471.463c12.033 0 22.832 2.16 32.397 6.48 9.566 4.165 17.665 9.873 24.299 17.124 6.788 7.097 11.956 15.428 15.505 24.993 3.702 9.41 5.554 19.284 5.554 29.62 0 11.571-2.16 22.216-6.48 31.936-4.165 9.719-9.951 18.05-17.356 24.993-7.405 6.942-16.045 12.419-25.918 16.43-9.72 3.857-20.133 5.785-31.241 5.785-11.879 0-22.602-2.16-32.167-6.479-9.411-4.32-17.433-10.028-24.067-17.125-6.479-7.097-11.493-15.273-15.042-24.53-3.548-9.256-5.322-18.899-5.322-28.927 0-9.873 1.774-19.593 5.322-29.158 3.549-9.719 8.717-18.358 15.505-25.918 6.942-7.56 15.351-13.653 25.224-18.282C547.558 2.777 558.82.463 571.471.463zm-.232 149.262c10.337-.463 19.362-2.777 27.076-6.943 7.868-4.319 14.424-9.719 19.67-16.199 5.245-6.633 9.102-13.884 11.57-21.752 2.623-7.869 3.934-15.66 3.934-23.373 0-8.486-1.542-17.048-4.628-25.687-3.085-8.64-7.482-16.43-13.19-23.373-5.709-7.097-12.574-12.805-20.596-17.125-7.868-4.474-16.739-6.71-26.613-6.71-9.565 0-18.127 2.16-25.687 6.479-7.559 4.165-14.039 9.565-19.438 16.199-5.246 6.634-9.257 14.039-12.034 22.216-2.777 8.176-4.165 16.199-4.165 24.067 0 8.485 1.619 17.047 4.859 25.687 3.24 8.485 7.714 16.199 13.422 23.141 5.708 6.942 12.419 12.574 20.133 16.893 7.868 4.32 16.431 6.48 25.687 6.48zm-175.88 3.471h1.157v2.314h-32.629v-2.314h1.157c1.08 0 2.082-.462 3.008-1.388a12.354 12.354 0 002.314-3.24 12.463 12.463 0 001.62-3.934c.309-1.543.463-2.931.463-4.165V17.125c0-1.08-.154-2.314-.463-3.703a12.46 12.46 0 00-1.62-3.934c-.617-1.234-1.388-2.237-2.314-3.008-.926-.926-1.928-1.389-3.008-1.389h-1.157V2.777h40.266c15.427 0 27.307 3.009 35.637 9.025 8.486 6.017 12.728 14.888 12.728 26.613 0 5.863-1.003 11.03-3.008 15.505-1.851 4.32-4.397 8.1-7.637 11.34-3.24 3.085-7.097 5.63-11.571 7.636-4.319 1.851-8.948 3.24-13.884 4.165l16.661 25.456a756.99 756.99 0 0012.265 18.281 418.448 418.448 0 0112.265 18.282 324.662 324.662 0 003.472 4.86 62.281 62.281 0 004.165 4.628c1.543 1.389 3.085 2.546 4.628 3.471 1.697.772 3.394 1.157 5.091 1.157v2.314h-9.95c-6.171 0-11.263-1.465-15.274-4.396-3.857-3.086-7.096-6.634-9.719-10.645a2695.512 2695.512 0 01-20.827-31.01 2723.31 2723.31 0 00-20.365-31.01 402.735 402.735 0 00-5.554-.462 368.456 368.456 0 01-5.322-.926v63.408c0 1.234.154 2.622.463 4.165.308 1.388.771 2.7 1.388 3.934a29.487 29.487 0 002.314 3.24c.926.926 2.006 1.388 3.24 1.388zm-7.405-142.55v58.778h1.157c1.234.155 3.162.31 5.785.463h10.182c3.24 0 6.634-.463 10.183-1.388a31.577 31.577 0 0010.182-5.091c3.24-2.469 5.862-5.631 7.868-9.488 2.16-3.857 3.24-8.717 3.24-14.58 0-5.862-1.157-10.644-3.472-14.347-2.159-3.702-5.245-6.634-9.256-8.794-3.857-2.16-8.562-3.625-14.116-4.397-5.554-.77-11.648-1.157-18.282-1.157h-3.471zm-78.396 142.55h1.157v2.314h-32.86v-2.314h1.157c1.234 0 2.314-.462 3.239-1.388a12.38 12.38 0 002.315-3.24 12.484 12.484 0 001.619-3.934c.309-1.543.463-2.931.463-4.165V11.339h-26.844c-2.468 0-4.628.54-6.479 1.62a14.998 14.998 0 00-4.629 4.166c-1.234 1.543-2.159 3.317-2.777 5.323a17.464 17.464 0 00-.925 5.553h-2.314V2.777h103.905v25.224h-2.315c0-1.85-.308-3.702-.925-5.553-.617-2.006-1.543-3.78-2.777-5.323a14.986 14.986 0 00-4.629-4.165c-1.851-1.08-4.011-1.62-6.479-1.62h-27.307v129.129c0 1.234.154 2.622.463 4.165.308 1.388.771 2.7 1.388 3.934a29.62 29.62 0 002.314 3.24c.926.926 2.006 1.388 3.24 1.388zm-74.315-38.646c0 7.714-1.543 14.348-4.628 19.901-3.086 5.4-7.097 9.797-12.034 13.191-4.783 3.394-10.259 5.863-16.43 7.405-6.017 1.543-12.034 2.314-18.051 2.314-6.171 0-11.493-.617-15.967-1.851a871.128 871.128 0 01-12.265-3.471c-2.469-.771-4.706-1.389-6.711-1.851a20.37 20.37 0 00-6.017-.926v-26.381h2.314c0 5.862 1.466 10.568 4.397 14.116 3.086 3.394 6.634 6.017 10.645 7.868 4.011 1.851 8.022 3.086 12.034 3.703 4.011.463 6.942.694 8.793.694 6.634 0 12.342-.926 17.125-2.777 4.783-2.006 8.717-4.551 11.802-7.637 3.086-3.239 5.323-6.788 6.711-10.645 1.543-3.857 2.314-7.791 2.314-11.802 0-5.091-1.08-9.333-3.24-12.728-2.159-3.548-5.014-6.633-8.562-9.256-3.394-2.623-7.328-4.86-11.802-6.711a1247.904 1247.904 0 00-13.653-5.554 463.338 463.338 0 01-15.505-6.248c-5.091-2.16-9.642-4.783-13.654-7.868-4.011-3.24-7.25-7.02-9.719-11.34-2.468-4.474-3.702-9.95-3.702-16.43 0-6.788 1.311-12.65 3.934-17.587 2.622-5.091 6.093-9.257 10.413-12.497 4.474-3.24 9.488-5.63 15.042-7.174A60.604 60.604 0 01186.183.463c4.011 0 7.791.308 11.339.926a99.537 99.537 0 0110.183 1.85c2.622.618 5.168 1.158 7.636 1.62 2.469.31 4.86.464 7.174.464v23.835h-2.314c-.309-8.022-3.471-13.422-9.488-16.199-6.017-2.931-14.348-4.397-24.993-4.397-6.171 0-11.262 1.08-15.273 3.24-3.857 2.006-6.942 4.551-9.257 7.637-2.314 2.931-3.934 6.17-4.859 9.72-.772 3.393-1.157 6.402-1.157 9.024 0 4.32.925 8.023 2.777 11.108 2.005 3.086 4.628 5.786 7.868 8.1 3.239 2.314 6.942 4.397 11.108 6.248a269.765 269.765 0 0013.422 5.322 434.731 434.731 0 0115.967 6.48c5.4 2.314 10.182 5.168 14.348 8.562 4.319 3.394 7.791 7.56 10.413 12.497 2.777 4.936 4.166 10.953 4.166 18.05zM95.574 153.196h1.157c3.703 0 5.554-1.697 5.554-5.091 0-1.234-.231-2.546-.694-3.934L80.763 87.937H40.266l-20.133 55.308c-.463 1.234-.694 2.391-.694 3.471 0 2.006.54 3.626 1.62 4.86 1.08 1.08 2.237 1.62 3.47 1.62h1.158v2.314H0v-2.314h1.157c2.006 0 3.934-1.157 5.785-3.471 2.006-2.469 3.626-5.323 4.86-8.563L64.796 0l51.837 139.774c1.08 3.085 2.545 6.094 4.396 9.025 2.006 2.931 4.552 4.397 7.637 4.397h1.157v2.314h-34.25v-2.314zM42.58 80.069h35.638L60.399 31.704 42.58 80.069z" fill="#fff" fill-opacity=".1"/></svg><svg fill="none" viewBox="0 0 460 390" id="big-logo-short" xmlns="http://www.w3.org/2000/svg"><path d="M170.387 313.932a60.648 60.648 0 0111.295-33.393c6.997-9.791 16.751-17.324 28.045-21.66a62.233 62.233 0 0135.463-2.719c11.834 2.562 22.643 8.519 31.078 17.126a60.853 60.853 0 0116.355 31.273 60.497 60.497 0 01-3.814 35.014c-4.717 11.047-12.616 20.473-22.711 27.103a62.104 62.104 0 01-34.052 10.173 61.514 61.514 0 01-24.157-4.623 60.993 60.993 0 01-20.344-13.701 60.281 60.281 0 01-13.218-20.546 59.809 59.809 0 01-3.94-24.047zm109.114-20.909c-15.84-31.614-48.838-44.683-74.859-32.672-25.141 11.326-34.381 44.371-19.987 75.114 15.084 31.862 47.957 44.744 74.669 32.173 24.89-11.326 34.759-44.184 20.177-74.615z" fill="url(#epaint0_linear_226_1392)"/><path d="M237.13 14.912l-7.228.934a146729.44 146729.44 0 0019.296 122.534l3.457-.996L237.13 14.912z" fill="url(#epaint1_linear_226_1392)"/><path d="M279.717 197.631v-6.285h-94.721v6.285h94.721z" fill="url(#epaint2_linear_226_1392)"/><path d="M283.819 148.035a2.204 2.204 0 011.006-.497l119.421-23.96a59.568 59.568 0 0030.553-16.212 58.617 58.617 0 0016.21-30.337l-175.99 54.142-47.58 66.525 56.38-49.661z" fill="url(#epaint3_linear_226_1392)"/><path d="M437.328 121.275l-143.746 28.627a29.198 29.198 0 00-8.736 3.36l75.927 8.277a76.899 76.899 0 0044.619-8.311c13.676-7.193 24.815-18.338 31.936-31.953z" fill="url(#epaint4_linear_226_1392)"/><path d="M400.333 169.928l-116.467-12.447a9.198 9.198 0 00-3.897.436l44.312 21.159a72.074 72.074 0 0012.57 4.605 70.94 70.94 0 0033.443.825 70.54 70.54 0 0030.039-14.578z" fill="url(#epaint5_linear_226_1392)"/><path d="M277.299 161.222l32.181 30.121a44.16 44.16 0 0022.746 11.323 44.395 44.395 0 0025.274-3.047l-80.201-38.397z" fill="url(#epaint6_linear_226_1392)"/><path d="M180.068 148.222a1.644 1.644 0 00-.942-.436L59.704 123.827a59.513 59.513 0 01-30.54-16.243 58.564 58.564 0 01-16.16-30.368l175.99 54.203 47.517 66.464-56.443-49.661z" fill="url(#epaint7_linear_226_1392)"/><path d="M26.635 121.451l143.746 28.813a28.077 28.077 0 018.674 3.299l-75.99 8.152a76.765 76.765 0 01-44.56-8.325c-13.654-7.193-24.77-18.334-31.87-31.939z" fill="url(#epaint8_linear_226_1392)"/><path d="M63.613 170.183l116.468-12.446a9.822 9.822 0 013.834.436l-43.998 21.22h-.314a73.086 73.086 0 01-12.571 4.543 70.757 70.757 0 01-33.415.833 70.353 70.353 0 01-30.004-14.586z" fill="url(#epaint9_linear_226_1392)"/><path d="M186.668 161.471l-32.181 30.12a44.153 44.153 0 01-22.757 11.291 44.398 44.398 0 01-25.263-3.076l80.201-38.335z" fill="url(#epaint10_linear_226_1392)"/><path d="M227.023 14.663l7.165.933-19.233 122.535-3.519-.996 15.587-122.472z" fill="url(#epaint11_linear_226_1392)"/><path d="M227.316 14.725h9.303l-1.572 239.903h-6.285c-.503-80.03-.985-159.997-1.446-239.903z" fill="url(#epaint12_linear_226_1392)"/><defs><linearGradient id="epaint0_linear_226_1392" x1="232.004" y1="254.75" x2="232.004" y2="376.853" gradientUnits="userSpaceOnUse"><stop stop-color="#5C84D1"/><stop offset="1" stop-color="#3F63A9"/><stop offset="1" stop-color="#2C529A"/></linearGradient><linearGradient id="epaint1_linear_226_1392" x1="241.279" y1="14.912" x2="241.279" y2="138.38" gradientUnits="userSpaceOnUse"><stop stop-color="#5C84D1"/><stop offset="1" stop-color="#3F63A9"/><stop offset="1" stop-color="#2C529A"/></linearGradient><linearGradient id="epaint2_linear_226_1392" x1="279.717" y1="194.488" x2="184.996" y2="194.488" gradientUnits="userSpaceOnUse"><stop stop-color="#5C84D1"/><stop offset="1" stop-color="#3F63A9"/><stop offset="1" stop-color="#2C529A"/></linearGradient><linearGradient id="epaint3_linear_226_1392" x1="339.224" y1="77.029" x2="339.224" y2="197.696" gradientUnits="userSpaceOnUse"><stop stop-color="#5C84D1"/><stop offset="1" stop-color="#3F63A9"/><stop offset="1" stop-color="#2C529A"/></linearGradient><linearGradient id="epaint4_linear_226_1392" x1="361.087" y1="121.275" x2="361.087" y2="162.05" gradientUnits="userSpaceOnUse"><stop stop-color="#5C84D1"/><stop offset="1" stop-color="#3F63A9"/><stop offset="1" stop-color="#2C529A"/></linearGradient><linearGradient id="epaint5_linear_226_1392" x1="340.151" y1="157.432" x2="340.151" y2="186.114" gradientUnits="userSpaceOnUse"><stop stop-color="#5C84D1"/><stop offset="1" stop-color="#3F63A9"/><stop offset="1" stop-color="#2C529A"/></linearGradient><linearGradient id="epaint6_linear_226_1392" x1="317.399" y1="161.222" x2="317.399" y2="203.312" gradientUnits="userSpaceOnUse"><stop stop-color="#5C84D1"/><stop offset="1" stop-color="#3F63A9"/><stop offset="1" stop-color="#2C529A"/></linearGradient><linearGradient id="epaint7_linear_226_1392" x1="124.757" y1="77.216" x2="124.757" y2="197.883" gradientUnits="userSpaceOnUse"><stop stop-color="#5C84D1"/><stop offset="1" stop-color="#3F63A9"/><stop offset="1" stop-color="#2C529A"/></linearGradient><linearGradient id="epaint8_linear_226_1392" x1="102.845" y1="121.451" x2="102.845" y2="162.221" gradientUnits="userSpaceOnUse"><stop stop-color="#5C84D1"/><stop offset="1" stop-color="#3F63A9"/><stop offset="1" stop-color="#2C529A"/></linearGradient><linearGradient id="epaint9_linear_226_1392" x1="123.764" y1="157.702" x2="123.764" y2="186.376" gradientUnits="userSpaceOnUse"><stop stop-color="#5C84D1"/><stop offset="1" stop-color="#3F63A9"/><stop offset="1" stop-color="#2C529A"/></linearGradient><linearGradient id="epaint10_linear_226_1392" x1="146.567" y1="161.471" x2="146.567" y2="203.518" gradientUnits="userSpaceOnUse"><stop stop-color="#5C84D1"/><stop offset="1" stop-color="#3F63A9"/><stop offset="1" stop-color="#2C529A"/></linearGradient><linearGradient id="epaint11_linear_226_1392" x1="222.812" y1="14.663" x2="222.812" y2="138.131" gradientUnits="userSpaceOnUse"><stop stop-color="#5C84D1"/><stop offset="1" stop-color="#3F63A9"/><stop offset="1" stop-color="#2C529A"/></linearGradient><linearGradient id="epaint12_linear_226_1392" x1="231.968" y1="14.725" x2="231.968" y2="254.628" gradientUnits="userSpaceOnUse"><stop stop-color="#5C84D1"/><stop offset="1" stop-color="#3F63A9"/><stop offset="1" stop-color="#2C529A"/></linearGradient></defs></svg><svg fill="none" viewBox="0 0 10 8" id="check" xmlns="http://www.w3.org/2000/svg"><path d="M1 4l3 3 5-6" stroke="#fff"/></svg><svg fill="none" viewBox="0 0 24 24" id="close" xmlns="http://www.w3.org/2000/svg"><path d="M21 21l-9-9m0 0L3 3m9 9l9-9m-9 9l-9 9" stroke="#fff" stroke-opacity=".5" stroke-width="2" stroke-linecap="round" stroke-linejoin="round"/></svg><svg fill="none" viewBox="0 0 60 60" id="empty-photo" xmlns="http://www.w3.org/2000/svg"><path d="M30 0C13.458 0 0 13.458 0 30s13.458 30 30 30 30-13.458 30-30S46.542 0 30 0zm-7.243 16.849c1.827-1.937 4.399-3.003 7.243-3.003 2.844 0 5.393 1.073 7.227 3.02 1.86 1.973 2.764 4.624 2.55 7.474C39.35 30 34.966 34.615 30 34.615c-4.966 0-9.36-4.615-9.777-10.276-.212-2.873.69-5.533 2.534-7.49zM30 55.385a25.31 25.31 0 01-18.173-7.676 17.726 17.726 0 015.068-4.823c3.677-2.357 8.33-3.655 13.105-3.655 4.776 0 9.428 1.298 13.1 3.655a17.72 17.72 0 015.073 4.823A25.306 25.306 0 0130 55.385z" fill="#fff"/></svg><svg fill="none" viewBox="0 0 29 28" id="ic_star" xmlns="http://www.w3.org/2000/svg"><g clip-path="url(#iclip0_2003_1866)"><path d="M14.894.598c0 10.124-3.375 13.5-13.5 13.5 10.125 0 13.5 3.374 13.5 13.499 0-10.125 3.375-13.5 13.5-13.5-10.125 0-13.5-3.375-13.5-13.5z" fill="currentColor"/></g><defs><clipPath id="iclip0_2003_1866"><path fill="#fff" transform="translate(.5)" d="M0 0h28v28H0z"/></clipPath></defs></svg><svg fill="none" viewBox="0 0 24 24" id="ic_star_blue" xmlns="http://www.w3.org/2000/svg"><path d="M12.338.512c0 8.679-2.893 11.571-11.57 11.571 8.677 0 11.57 2.893 11.57 11.571 0-8.678 2.893-11.57 11.571-11.57-8.678 0-11.57-2.893-11.57-11.572z" fill="#2553AD"/></svg><svg fill="none" viewBox="0 0 24 24" id="ic_star_gold" xmlns="http://www.w3.org/2000/svg"><g clip-path="url(#kclip0_2003_1530)"><path d="M12.338.512c0 8.679-2.892 11.571-11.57 11.571 8.678 0 11.57 2.893 11.57 11.571 0-8.678 2.893-11.57 11.571-11.57-8.678 0-11.57-2.893-11.57-11.572z" fill="#CDAC7F"/></g><defs><clipPath id="kclip0_2003_1530"><path fill="#fff" d="M0 0h24v24H0z"/></clipPath></defs></svg><svg fill="none" viewBox="0 0 27 26" id="ic_star_orange" xmlns="http://www.w3.org/2000/svg"><path d="M13.5 0c0 9.75-3.25 13-13 13 9.75 0 13 3.25 13 13 0-9.75 3.25-13 13-13-9.75 0-13-3.25-13-13z" fill="#FF6939"/></svg><svg fill="none" viewBox="0 0 29 28" id="ic_star_white" xmlns="http://www.w3.org/2000/svg"><g clip-path="url(#mclip0_2003_1866)"><path d="M14.894.598c0 10.124-3.375 13.5-13.5 13.5 10.125 0 13.5 3.374 13.5 13.499 0-10.125 3.375-13.5 13.5-13.5-10.125 0-13.5-3.375-13.5-13.5z" fill="#fff"/></g><defs><clipPath id="mclip0_2003_1866"><path fill="#fff" transform="translate(.5)" d="M0 0h28v28H0z"/></clipPath></defs></svg><svg fill="none" viewBox="0 0 16 16" id="inst" xmlns="http://www.w3.org/2000/svg"><path d="M11.094.969H4.906A3.937 3.937 0 00.97 4.906v6.188a3.938 3.938 0 003.937 3.937h6.188a3.938 3.938 0 003.937-3.937V4.906A3.938 3.938 0 0011.094.97zM8 11.375a3.375 3.375 0 110-6.75 3.375 3.375 0 010 6.75zm3.656-6.188a.844.844 0 110-1.687.844.844 0 010 1.688z" fill="currentColor"/></svg><svg fill="none" viewBox="0 0 146 51" id="logo" xmlns="http://www.w3.org/2000/svg"><path d="M18.712 35.305l-2.309-5.782H9.168L6.93 35.305h-.407l6.48-16.724h.503l6.637 16.724h-1.43zM9.29 29.262h7.017l-3.557-8.96-3.46 8.96zm13.175 3.082l.736-.787c.456-.48.84-.527.816.19.144 2.125 1.54 3.272 3.896 3.439 3.604.24 6.155-1.861 5.265-4.42-1.057-3.218-10.433-3.964-10.098-8.646.168-2.415 2.79-3.968 6.034-3.655a7.903 7.903 0 014.4 1.98l-.48.934c-.194.214-.457.07-.53-.263-.433-1.434-1.732-2.221-3.39-2.341-2.715-.24-4.88.93-5.074 2.841-.335 4.349 8.655 3.992 10.41 8.194 1.299 3.198-1.873 5.973-6.56 5.66-2.374-.164-4.418-1.312-5.425-3.126zm26.011-13.499h-5.648v16.46h-1.322v-16.46H35.59v-.264h12.886v.264zm13.727 16.46l-4.52-7.953c-1.514.43-3.199.787-4.88 1.36v6.593h-1.334V18.581h1.272c3.24 0 9.017-1.24 9.953 2.845.41 1.756-.07 3.219-1.537 4.372a8.216 8.216 0 01-2.5 1.243l4.759 8.264h-1.213zm-9.4-7c2.812-1.003 6.057-1.433 7.595-3.057 1.01-1.051 1.13-2.318.915-3.439-.65-3.201-5.242-2.891-8.51-2.891v9.388zm12.67-1.41c0-4.919 3.607-8.597 8.44-8.597 4.832 0 8.437 3.678 8.437 8.597 0 4.92-3.605 8.65-8.438 8.65-4.832 0-8.44-3.704-8.44-8.65zm14.93-2.888c-2.165-4.348-6.685-6.145-10.242-4.492-3.413 1.551-4.712 6.093-2.742 10.321 2.062 4.372 6.564 6.145 10.219 4.419 3.413-1.528 4.753-6.046 2.765-10.248zm9.56 8.676c.018-.563.202-1.11.53-1.57.328-.46.785-.815 1.314-1.018a2.907 2.907 0 013.117.677 2.865 2.865 0 01.588 3.117c-.221.52-.591.963-1.064 1.274a2.903 2.903 0 01-1.596.479 2.874 2.874 0 01-2.085-.862 2.836 2.836 0 01-.803-2.097zm5.113-.983c-.742-1.486-2.288-2.101-3.508-1.536-1.177.532-1.61 2.086-.936 3.532.707 1.498 2.247 2.104 3.498 1.513 1.167-.533 1.629-2.078.946-3.509zm24.421-13.119l-6.49 14.837-7.092-14.837h-1.204v16.724h.218l.121-.404V19.298l7.474 16.007 6.973-15.79v15.79h1.322V18.581h-1.322zm16.757 16.724l-2.309-5.782h-7.235l-2.238 5.782h-.41l6.494-16.724h.503l6.635 16.724h-1.44zm-9.423-6.043h7.02l-3.557-8.96-3.463 8.96z" fill="#fff"/><path d="M92.633 18.614h.436l-.074 11.28h-.294c-.024-3.763-.047-7.523-.068-11.28z" fill="#fff"/><path d="M93.089 18.623l-.339.043c.3 1.92.602 3.84.904 5.762l.162-.047-.727-5.758zm1.997 8.592v-.296h-4.438v.296h4.438z" fill="#fff"/><path d="M95.278 24.882a.104.104 0 01.047-.023l5.596-1.127a2.789 2.789 0 001.431-.762c.39-.39.655-.887.759-1.426l-8.245 2.545-2.23 3.129 2.642-2.336z" fill="#fff"/><path d="M102.472 23.624l-6.734 1.346c-.145.03-.283.084-.41.158l3.557.39a3.593 3.593 0 002.091-.392 3.555 3.555 0 001.496-1.502zm-1.735 2.288l-5.457-.585a.43.43 0 00-.182.02l2.076.995a3.365 3.365 0 002.156.255c.517-.112 1-.347 1.407-.685zm-5.764-.41l1.507 1.417a2.066 2.066 0 002.25.389l-3.757-1.806zm-4.556-.611a.076.076 0 00-.044-.02l-5.595-1.127a2.785 2.785 0 01-1.431-.764 2.756 2.756 0 01-.757-1.428l8.245 2.549 2.227 3.125-2.645-2.335z" fill="#fff"/><path d="M83.227 23.632l6.734 1.355c.144.029.281.081.407.155l-3.56.384a3.586 3.586 0 01-2.088-.392 3.554 3.554 0 01-1.493-1.502zm1.733 2.292l5.458-.585a.459.459 0 01.18.02l-2.062.998h-.015c-.19.089-.386.16-.589.213a3.303 3.303 0 01-2.971-.646zm5.766-.41L89.22 26.93a2.066 2.066 0 01-2.25.387l3.757-1.803zm1.891-6.904l.336.045-.901 5.762-.165-.047.73-5.76z" fill="#fff"/></svg><svg fill="none" viewBox="0 0 24 24" id="mark-check" xmlns="http://www.w3.org/2000/svg"><path d="M20 6L9 17l-5-5" stroke="#CDAC7F" stroke-width="2" stroke-miterlimit="10"/></svg><svg fill="none" viewBox="0 0 24 24" id="mark-question" xmlns="http://www.w3.org/2000/svg"><path d="M8 7.028c.581-2.046 2.725-3.333 4.937-2.965 2.212.367 3.759 2.268 3.563 4.378-.125 1.346-.934 2.493-2.087 3.146-1.056.61-2.229 1.504-2.229 3.095v1.51m-.004 4.055a.625.625 0 100-1.25.625.625 0 000 1.25z" stroke="#CDAC7F" stroke-width="2" stroke-linecap="round" stroke-linejoin="round"/></svg><svg fill="none" viewBox="0 0 24 24" id="plus" xmlns="http://www.w3.org/2000/svg"><path fill-rule="evenodd" clip-rule="evenodd" d="M12 0a1 1 0 011 1v10h10a1 1 0 010 2H13v10a1 1 0 01-2 0V13H1a1 1 0 010-2h10V1a1 1 0 011-1z" fill="currentColor"/></svg><svg fill="none" viewBox="0 0 51 20" id="slider-arrow-next" xmlns="http://www.w3.org/2000/svg"><path d="M0 10h50s-6.203-.336-8.533-2.958C39.784 5.15 39.175 1 39.175 1M0 10h50s-6.203.335-8.533 2.958C39.784 14.85 39.175 19 39.175 19" stroke="#fff"/></svg><svg fill="none" viewBox="0 0 51 20" id="slider-arrow-prev" xmlns="http://www.w3.org/2000/svg"><path d="M51 10H1s6.203-.336 8.533-2.958C11.216 5.15 11.825 1 11.825 1M51 10H1s6.203.335 8.533 2.958C11.216 14.85 11.825 19 11.825 19" stroke="#fff"/></svg><svg style="margin:auto;background:0 0" viewBox="0 0 100 100" preserveAspectRatio="xMidYMid" display="block" id="spinner" xmlns="http://www.w3.org/2000/svg"><rect x="44.5" y="17" rx="5.5" ry="6" width="11" height="12" fill="#2B2B2F"><animate attributeName="opacity" values="1;0" keyTimes="0;1" dur="1s" begin="-0.9285714285714286s" repeatCount="indefinite"/></rect><rect x="44.5" y="17" rx="5.5" ry="6" width="11" height="12" fill="#2B2B2F" transform="rotate(25.714 50 50)"><animate attributeName="opacity" values="1;0" keyTimes="0;1" dur="1s" begin="-0.8571428571428571s" repeatCount="indefinite"/></rect><rect x="44.5" y="17" rx="5.5" ry="6" width="11" height="12" fill="#2B2B2F" transform="rotate(51.429 50 50)"><animate attributeName="opacity" values="1;0" keyTimes="0;1" dur="1s" begin="-0.7857142857142857s" repeatCount="indefinite"/></rect><rect x="44.5" y="17" rx="5.5" ry="6" width="11" height="12" fill="#2B2B2F" transform="rotate(77.143 50 50)"><animate attributeName="opacity" values="1;0" keyTimes="0;1" dur="1s" begin="-0.7142857142857143s" repeatCount="indefinite"/></rect><rect x="44.5" y="17" rx="5.5" ry="6" width="11" height="12" fill="#2B2B2F" transform="rotate(102.857 50 50)"><animate attributeName="opacity" values="1;0" keyTimes="0;1" dur="1s" begin="-0.6428571428571429s" repeatCount="indefinite"/></rect><rect x="44.5" y="17" rx="5.5" ry="6" width="11" height="12" fill="#2B2B2F" transform="rotate(128.571 50 50)"><animate attributeName="opacity" values="1;0" keyTimes="0;1" dur="1s" begin="-0.5714285714285714s" repeatCount="indefinite"/></rect><rect x="44.5" y="17" rx="5.5" ry="6" width="11" height="12" fill="#2B2B2F" transform="rotate(154.286 50 50)"><animate attributeName="opacity" values="1;0" keyTimes="0;1" dur="1s" begin="-0.5s" repeatCount="indefinite"/></rect><rect x="44.5" y="17" rx="5.5" ry="6" width="11" height="12" fill="#2B2B2F" transform="rotate(180 50 50)"><animate attributeName="opacity" values="1;0" keyTimes="0;1" dur="1s" begin="-0.42857142857142855s" repeatCount="indefinite"/></rect><rect x="44.5" y="17" rx="5.5" ry="6" width="11" height="12" fill="#2B2B2F" transform="rotate(205.714 50 50)"><animate attributeName="opacity" values="1;0" keyTimes="0;1" dur="1s" begin="-0.35714285714285715s" repeatCount="indefinite"/></rect><rect x="44.5" y="17" rx="5.5" ry="6" width="11" height="12" fill="#2B2B2F" transform="rotate(231.429 50 50)"><animate attributeName="opacity" values="1;0" keyTimes="0;1" dur="1s" begin="-0.2857142857142857s" repeatCount="indefinite"/></rect><rect x="44.5" y="17" rx="5.5" ry="6" width="11" height="12" fill="#2B2B2F" transform="rotate(257.143 50 50)"><animate attributeName="opacity" values="1;0" keyTimes="0;1" dur="1s" begin="-0.21428571428571427s" repeatCount="indefinite"/></rect><rect x="44.5" y="17" rx="5.5" ry="6" width="11" height="12" fill="#2B2B2F" transform="rotate(282.857 50 50)"><animate attributeName="opacity" values="1;0" keyTimes="0;1" dur="1s" begin="-0.14285714285714285s" repeatCount="indefinite"/></rect><rect x="44.5" y="17" rx="5.5" ry="6" width="11" height="12" fill="#2B2B2F" transform="rotate(308.571 50 50)"><animate attributeName="opacity" values="1;0" keyTimes="0;1" dur="1s" begin="-0.07142857142857142s" repeatCount="indefinite"/></rect><rect x="44.5" y="17" rx="5.5" ry="6" width="11" height="12" fill="#2B2B2F" transform="rotate(334.286 50 50)"><animate attributeName="opacity" values="1;0" keyTimes="0;1" dur="1s" begin="0s" repeatCount="indefinite"/></rect></svg><svg fill="none" viewBox="0 0 25 29" id="telegram" xmlns="http://www.w3.org/2000/svg"><path d="M23.937 8.73l-3.32 16.123c-.25 1.138-.903 1.421-1.832.885L13.727 21.9l-2.44 2.417c-.27.278-.497.51-1.017.51l.363-5.305 9.375-8.724c.408-.374-.088-.581-.633-.207l-11.59 7.515-4.99-1.608c-1.086-.349-1.105-1.118.226-1.654l19.517-7.743c.903-.349 1.694.208 1.4 1.629z" fill="currentColor"/></svg><svg fill="none" viewBox="0 0 17 11" id="vk" xmlns="http://www.w3.org/2000/svg"><path d="M15.658 1.268c.11-.372 0-.643-.53-.643h-1.75c-.444 0-.65.235-.761.494 0 0-.89 2.17-2.15 3.579-.409.408-.593.537-.817.537-.11 0-.27-.13-.27-.501V1.268c0-.444-.13-.643-.5-.643H6.13c-.279 0-.447.206-.447.403 0 .423.631.519.696 1.707v2.577c0 .564-.103.667-.324.667-.593 0-2.035-2.179-2.892-4.672-.168-.485-.336-.68-.782-.68H.63c-.499 0-.6.236-.6.495 0 .463.593 2.762 2.763 5.803 1.447 2.076 3.482 3.202 5.337 3.202 1.111 0 1.25-.25 1.25-.682v-1.57c0-.499.106-.6.459-.6.26 0 .706.13 1.742 1.13 1.186 1.186 1.383 1.72 2.05 1.72h1.75c.499 0 .749-.25.604-.745-.158-.492-.724-1.205-1.476-2.052-.408-.482-1.02-1-1.204-1.26-.26-.333-.185-.482 0-.777-.003 0 2.128-3.003 2.352-4.023z" fill="currentColor"/></svg><svg fill="none" viewBox="0 0 16 12" id="youtube" xmlns="http://www.w3.org/2000/svg"><path d="M15.636 2.138A1.999 1.999 0 0014.227.72C12.984.384 8.002.384 8.002.384s-4.985 0-6.226.336A1.999 1.999 0 00.367 2.138C.031 3.388.031 6 .031 6s0 2.611.334 3.861a1.999 1.999 0 001.409 1.419c1.243.336 6.225.336 6.225.336s4.985 0 6.226-.336a1.999 1.999 0 001.409-1.419c.333-1.25.333-3.861.333-3.861s0-2.611-.33-3.862zM6.37 8.368V3.632L10.534 6 6.37 8.369z" fill="currentColor"/></svg></svg>