<svg width="17" height="11" fill="none" xmlns="http://www.w3.org/2000/svg"><path d="M15.658 1.268c.11-.372 0-.643-.53-.643h-1.75c-.444 0-.65.235-.761.494 0 0-.89 2.17-2.15 3.579-.409.408-.593.537-.817.537-.11 0-.27-.13-.27-.501V1.268c0-.444-.13-.643-.5-.643H6.13c-.279 0-.447.206-.447.403 0 .423.631.519.696 1.707v2.577c0 .564-.103.667-.324.667-.593 0-2.035-2.179-2.892-4.672-.168-.485-.336-.68-.782-.68H.63c-.499 0-.6.236-.6.495 0 .463.593 2.762 2.763 5.803 1.447 2.076 3.482 3.202 5.337 3.202 1.111 0 1.25-.25 1.25-.682v-1.57c0-.499.106-.6.459-.6.26 0 .706.13 1.742 1.13 1.186 1.186 1.383 1.72 2.05 1.72h1.75c.499 0 .749-.25.604-.745-.158-.492-.724-1.205-1.476-2.052-.408-.482-1.02-1-1.204-1.26-.26-.333-.185-.482 0-.777-.003 0 2.128-3.003 2.352-4.023z" fill="currentColor"/></svg>