<svg width="74" height="74" viewBox="0 0 74 74" fill="none" xmlns="http://www.w3.org/2000/svg">
<path d="M27.75 52.4167L12.3333 67.8333M46.25 52.4167L61.6666 67.8333M37 6.16666V12.3333M37 67.8333V52.4167M16.0333 52.4167H57.9666C61.4203 52.4167 63.1471 52.4167 64.4662 51.7445C65.6266 51.1533 66.5699 50.2099 67.1612 49.0496C67.8333 47.7305 67.8333 46.0036 67.8333 42.55V22.2C67.8333 18.7463 67.8333 17.0195 67.1612 15.7004C66.5699 14.54 65.6266 13.5967 64.4662 13.0055C63.1471 12.3333 61.4203 12.3333 57.9666 12.3333H16.0333C12.5796 12.3333 10.8528 12.3333 9.53368 13.0055C8.37335 13.5967 7.42997 14.54 6.83875 15.7004C6.16663 17.0195 6.16663 18.7463 6.16663 22.2V42.55C6.16663 46.0036 6.16663 47.7305 6.83875 49.0496C7.42997 50.2099 8.37335 51.1533 9.53368 51.7445C10.8528 52.4167 12.5796 52.4167 16.0333 52.4167Z" stroke="white" stroke-width="2" stroke-linecap="round" stroke-linejoin="round"/>
</svg>
