<svg width="12" height="12" viewBox="0 0 12 12" fill="none" xmlns="http://www.w3.org/2000/svg">
<path d="M0 0.743238C0 0.645635 0.0193424 0.548987 0.056921 0.458813C0.0944996 0.368639 0.149578 0.286706 0.219015 0.21769C0.288451 0.148674 0.370884 0.0939269 0.461607 0.0565757C0.552329 0.0192244 0.649566 0 0.747763 0H11.3039C11.449 0.00784393 11.588 0.0603459 11.7017 0.150229C11.7444 0.17802 11.782 0.212771 11.8131 0.253017C11.9301 0.383777 11.9951 0.552436 11.996 0.727425V11.1802C12.0068 11.2837 11.9956 11.3883 11.9631 11.4872C11.9307 11.5862 11.8777 11.6772 11.8075 11.7545C11.7374 11.8318 11.6518 11.8936 11.5561 11.9359C11.4605 11.9781 11.3569 12 11.2522 12C11.1475 12 11.044 11.9781 10.9484 11.9359C10.8527 11.8936 10.767 11.8318 10.6969 11.7545C10.6268 11.6772 10.5738 11.5862 10.5413 11.4872C10.5089 11.3883 10.4977 11.2837 10.5085 11.1802V2.48273L1.27279 11.7021C1.20464 11.772 1.12305 11.8276 1.03286 11.8657C0.942678 11.9037 0.845729 11.9233 0.747763 11.9234C0.649658 11.9243 0.552431 11.905 0.462115 11.867C0.371799 11.8289 0.29032 11.7727 0.222738 11.7021C0.152496 11.6343 0.0966558 11.5531 0.0585241 11.4635C0.0203924 11.3739 0.000746727 11.2775 0.000746727 11.1802C0.000746727 11.0829 0.0203924 10.9866 0.0585241 10.8969C0.0966558 10.8073 0.152496 10.7262 0.222738 10.6584L9.4584 1.47857H0.707989C0.518011 1.46852 0.339029 1.38687 0.207493 1.25026C0.0759563 1.11364 0.00175476 0.932326 0 0.743238Z" fill="#353131"/>
</svg>
