<svg width="18" height="18" viewBox="0 0 18 18" fill="none" xmlns="http://www.w3.org/2000/svg">
<path d="M0 1.11486C0 0.968452 0.0290127 0.823481 0.0853806 0.68822C0.141748 0.552959 0.224367 0.430059 0.328522 0.326535C0.432676 0.223011 0.556326 0.14089 0.69241 0.0848635C0.828495 0.0288366 0.974348 0 1.12164 0H16.9559C17.1735 0.0117659 17.382 0.0905189 17.5525 0.225343C17.6166 0.26703 17.673 0.319156 17.7196 0.379526C17.8951 0.575666 17.9927 0.828654 17.994 1.09114V16.7703C18.0102 16.9256 17.9934 17.0825 17.9447 17.2309C17.896 17.3793 17.8165 17.5158 17.7113 17.6318C17.6062 17.7477 17.4777 17.8404 17.3342 17.9038C17.1907 17.9672 17.0354 18 16.8784 18C16.7213 18 16.566 17.9672 16.4225 17.9038C16.279 17.8404 16.1506 17.7477 16.0454 17.6318C15.9402 17.5158 15.8607 17.3793 15.812 17.2309C15.7633 17.0825 15.7465 16.9256 15.7627 16.7703V3.7241L1.90918 17.5531C1.80696 17.658 1.68458 17.7415 1.5493 17.7985C1.41402 17.8556 1.26859 17.885 1.12164 17.8852C0.974487 17.8864 0.828648 17.8576 0.693172 17.8004C0.557697 17.7433 0.43548 17.6591 0.334106 17.5531C0.228745 17.4514 0.144983 17.3297 0.0877857 17.1952C0.0305901 17.0608 0.00111961 16.9163 0.00111961 16.7703C0.00111961 16.6243 0.0305901 16.4798 0.0877857 16.3454C0.144983 16.2109 0.228745 16.0892 0.334106 15.9875L14.1876 2.21786H1.06198C0.777016 2.20278 0.508543 2.08031 0.311239 1.87538C0.113934 1.67046 0.00263214 1.39849 0 1.11486Z" fill="#C0C0C0"/>
</svg>
