<svg width="50" height="56" viewBox="0 0 50 56" fill="none" xmlns="http://www.w3.org/2000/svg">
<path d="M24.9977 42.0155C34.5556 42.0155 42.3039 34.2672 42.3039 24.7092C42.3039 15.1512 34.5556 7.40295 24.9977 7.40295C15.4397 7.40295 7.69141 15.1512 7.69141 24.7092C7.69141 34.2672 15.4397 42.0155 24.9977 42.0155Z" stroke="#464646" stroke-width="2" stroke-miterlimit="10"/>
<path d="M12.5664 24.7092C12.5664 17.8842 18.1727 12.278 24.9977 12.278" stroke="#464646" stroke-width="2" stroke-miterlimit="10"/>
<path d="M7.57109 39.6998C4.15859 35.6779 1.96484 30.4373 1.96484 24.7092C1.96484 12.0342 12.2023 1.6748 24.9992 1.6748C37.6742 1.6748 48.0336 11.9123 48.0336 24.7092C48.0336 30.4373 45.9617 35.6779 42.4273 39.6998" stroke="#464646" stroke-width="2" stroke-miterlimit="10" stroke-dasharray="1.99 1.99"/>
<path d="M35.3602 42.1373V53.9592C35.3602 54.0811 35.2383 54.0811 35.1164 54.0811L24.3914 50.5467L14.1539 54.0811C14.032 54.0811 13.9102 54.0811 13.9102 53.9592V42.1373" stroke="#464646" stroke-width="2" stroke-miterlimit="10"/>
<path d="M28.9003 32.0217L25.0003 29.8279L20.9784 31.8998C20.4909 32.1436 19.8815 31.7779 20.0034 31.1686L20.8565 26.7811L17.6878 23.6123C17.3221 23.2467 17.5659 22.5154 18.0534 22.5154L22.5628 21.9061L24.6346 17.8842C24.8784 17.3967 25.6096 17.3967 25.8534 17.8842L27.8034 21.9061L32.3128 22.6373C32.8003 22.7592 33.044 23.3686 32.6784 23.7342L29.3878 26.9029L30.119 31.4123C29.9971 31.8998 29.3878 32.2654 28.9003 32.0217Z" stroke="#464646" stroke-width="2" stroke-miterlimit="10"/>
</svg>
