<svg width="44" height="55" viewBox="0 0 44 55" fill="none" xmlns="http://www.w3.org/2000/svg">
<path d="M1.40625 54.4467C1.40625 43.1124 10.6687 33.8499 22.0031 33.8499C33.3375 33.8499 42.6 43.1124 42.6 54.4467" stroke="white" stroke-width="2" stroke-miterlimit="10"/>
<path d="M29.1875 35.1904C32.3562 40.1873 34.1844 47.0123 34.1844 54.4467" stroke="white" stroke-width="2" stroke-miterlimit="10"/>
<path d="M15.2938 35.1904C12.125 40.1873 10.2969 47.0123 10.2969 54.4467" stroke="white" stroke-width="2" stroke-miterlimit="10"/>
<path d="M22 33.9717V54.6904" stroke="white" stroke-width="2" stroke-miterlimit="10"/>
<path d="M4.57812 44.6968H40.1656" stroke="white" stroke-width="2" stroke-miterlimit="10"/>
<path d="M31.3919 17.7625C31.3919 24.7093 22.7388 32.7531 21.7638 33.7281C21.7638 33.7281 21.6419 33.7281 21.52 33.7281C20.4231 32.7531 11.77 24.7093 11.8919 17.7625C11.8919 12.4 16.2794 8.01245 21.6419 8.01245C27.0044 8.01245 31.27 12.2781 31.3919 17.7625Z" stroke="white" stroke-width="2" stroke-miterlimit="10"/>
<path d="M21.6438 23.1249C24.6054 23.1249 27.0062 20.724 27.0062 17.7624C27.0062 14.8008 24.6054 12.3999 21.6438 12.3999C18.6821 12.3999 16.2812 14.8008 16.2812 17.7624C16.2812 20.724 18.6821 23.1249 21.6438 23.1249Z" stroke="white" stroke-width="2" stroke-miterlimit="10"/>
<path d="M10.0656 29.3405C7.14063 26.4155 5.3125 22.2718 5.3125 17.7624C5.3125 13.253 7.14063 9.10928 10.0656 6.18428C12.9906 3.25928 17.1344 1.43115 21.6438 1.43115C26.1531 1.43115 30.2969 3.25928 33.2219 6.18428C36.1469 9.10928 37.975 13.253 37.975 17.7624C37.975 22.2718 36.1469 26.4155 33.2219 29.3405" stroke="white" stroke-width="2" stroke-miterlimit="10" stroke-dasharray="1.99 1.99"/>
</svg>
