<svg width="60" height="54" viewBox="0 0 60 54" fill="none" xmlns="http://www.w3.org/2000/svg">
<path d="M57.0594 52.7158H2.94688C2.825 52.7158 2.70313 52.5939 2.70313 52.4721L1.48438 46.3783C1.48438 46.2564 1.60625 46.0127 1.72812 46.0127H26.225L27.4438 47.2314H32.4406L33.6594 46.0127H58.1563C58.2781 46.0127 58.5219 46.1346 58.4 46.3783L57.1813 52.4721C57.3031 52.5939 57.1813 52.7158 57.0594 52.7158Z" stroke="white" stroke-width="2" stroke-miterlimit="10"/>
<path d="M10.8688 16.2751H4.89687C4.65312 16.2751 4.53125 16.397 4.53125 16.6408V43.0876" stroke="white" stroke-width="2" stroke-miterlimit="10"/>
<path d="M55.4688 43.2095V16.6408C55.4688 16.397 55.3469 16.2751 55.1031 16.2751H48.7656" stroke="white" stroke-width="2" stroke-miterlimit="10"/>
<path d="M45.4875 43.2094V9.57192L37.2 1.28442H14.775C14.6531 1.28442 14.5312 1.4063 14.5312 1.52817V43.2094" stroke="white" stroke-width="2" stroke-miterlimit="10"/>
<path d="M37.1875 1.28442V9.32817C37.1875 9.45005 37.3094 9.57192 37.4312 9.57192H45.475" stroke="white" stroke-width="2" stroke-miterlimit="10"/>
<path d="M40.6062 17.0063H19.1562V41.747H40.6062V17.0063Z" stroke="white" stroke-width="2" stroke-miterlimit="10"/>
<path d="M19.1562 23.3438H40.6062" stroke="white" stroke-width="2" stroke-miterlimit="10"/>
<path d="M19.2812 27.853H40.7312" stroke="white" stroke-width="2" stroke-miterlimit="10"/>
<path d="M19.4062 32.3625H40.8562" stroke="white" stroke-width="2" stroke-miterlimit="10"/>
<path d="M19.4062 36.8721H40.8562" stroke="white" stroke-width="2" stroke-miterlimit="10"/>
<path d="M25.125 41.7468V16.2749" stroke="white" stroke-width="2" stroke-miterlimit="10"/>
<path d="M18.0625 11.1562H25.1312" stroke="white" stroke-width="2" stroke-miterlimit="10"/>
</svg>
