<svg width="50" height="56" viewBox="0 0 50 56" fill="none" xmlns="http://www.w3.org/2000/svg">
<path d="M25.0016 42.0158C34.5595 42.0158 42.3078 34.2675 42.3078 24.7096C42.3078 15.1516 34.5595 7.40332 25.0016 7.40332C15.4436 7.40332 7.69531 15.1516 7.69531 24.7096C7.69531 34.2675 15.4436 42.0158 25.0016 42.0158Z" stroke="white" stroke-width="2" stroke-miterlimit="10"/>
<path d="M12.5703 24.7096C12.5703 17.8846 18.1766 12.2783 25.0016 12.2783" stroke="white" stroke-width="2" stroke-miterlimit="10"/>
<path d="M7.575 39.7C4.1625 35.6782 1.96875 30.4375 1.96875 24.7094C1.96875 12.0344 12.2062 1.67505 25.0031 1.67505C37.6781 1.67505 48.0375 11.9125 48.0375 24.7094C48.0375 30.4375 45.9656 35.6782 42.4312 39.7" stroke="white" stroke-width="2" stroke-miterlimit="10" stroke-dasharray="1.99 1.99"/>
<path d="M35.3641 42.1377V53.9596C35.3641 54.0814 35.2422 54.0814 35.1203 54.0814L24.3953 50.5471L14.1578 54.0814C14.0359 54.0814 13.9141 54.0814 13.9141 53.9596V42.1377" stroke="white" stroke-width="2" stroke-miterlimit="10"/>
<path d="M28.9042 32.0219L25.0042 29.8282L20.9823 31.9C20.4948 32.1438 19.8854 31.7782 20.0073 31.1688L20.8604 26.7813L17.6917 23.6125C17.326 23.2469 17.5698 22.5157 18.0573 22.5157L22.5667 21.9063L24.6385 17.8844C24.8823 17.3969 25.6135 17.3969 25.8573 17.8844L27.8073 21.9063L32.3167 22.6375C32.8042 22.7594 33.0479 23.3688 32.6823 23.7344L29.3917 26.9032L30.1229 31.4125C30.001 31.9 29.3917 32.2657 28.9042 32.0219Z" stroke="white" stroke-width="2" stroke-miterlimit="10"/>
</svg>
