<svg width="60" height="54" viewBox="0 0 60 54" fill="none" xmlns="http://www.w3.org/2000/svg">
<path d="M57.0555 52.7155H2.94297C2.82109 52.7155 2.69922 52.5936 2.69922 52.4717L1.48047 46.378C1.48047 46.2561 1.60234 46.0123 1.72422 46.0123H26.2211L27.4398 47.2311H32.4367L33.6555 46.0123H58.1524C58.2742 46.0123 58.518 46.1342 58.3961 46.378L57.1774 52.4717C57.2992 52.5936 57.1774 52.7155 57.0555 52.7155Z" stroke="#464646" stroke-width="2" stroke-miterlimit="10"/>
<path d="M10.8648 16.2748H4.89297C4.64922 16.2748 4.52734 16.3967 4.52734 16.6404V43.0873" stroke="#464646" stroke-width="2" stroke-miterlimit="10"/>
<path d="M55.4688 43.2091V16.6404C55.4688 16.3967 55.3469 16.2748 55.1031 16.2748H48.7656" stroke="#464646" stroke-width="2" stroke-miterlimit="10"/>
<path d="M45.4797 43.2092V9.57168L37.1922 1.28418H14.7672C14.6453 1.28418 14.5234 1.40606 14.5234 1.52793V43.2092" stroke="#464646" stroke-width="2" stroke-miterlimit="10"/>
<path d="M37.1875 1.28418V9.32793C37.1875 9.4498 37.3094 9.57168 37.4312 9.57168H45.475" stroke="#464646" stroke-width="2" stroke-miterlimit="10"/>
<path d="M40.6023 17.0061H19.1523V41.7467H40.6023V17.0061Z" stroke="#464646" stroke-width="2" stroke-miterlimit="10"/>
<path d="M19.1523 23.3435H40.6023" stroke="#464646" stroke-width="2" stroke-miterlimit="10"/>
<path d="M19.2734 27.8529H40.7234" stroke="#464646" stroke-width="2" stroke-miterlimit="10"/>
<path d="M19.3984 32.3623H40.8484" stroke="#464646" stroke-width="2" stroke-miterlimit="10"/>
<path d="M19.3984 36.8717H40.8484" stroke="#464646" stroke-width="2" stroke-miterlimit="10"/>
<path d="M25.125 41.7467V16.2748" stroke="#464646" stroke-width="2" stroke-miterlimit="10"/>
<path d="M18.0547 11.1562H25.1234" stroke="#464646" stroke-width="2" stroke-miterlimit="10"/>
</svg>
