<svg width="44" height="55" viewBox="0 0 44 55" fill="none" xmlns="http://www.w3.org/2000/svg">
<path d="M1.40234 54.4469C1.40234 43.1125 10.6648 33.85 21.9992 33.85C33.3336 33.85 42.5961 43.1125 42.5961 54.4469" stroke="#464646" stroke-width="2" stroke-miterlimit="10"/>
<path d="M29.1875 35.1903C32.3562 40.1872 34.1844 47.0122 34.1844 54.4466" stroke="#464646" stroke-width="2" stroke-miterlimit="10"/>
<path d="M15.2938 35.1903C12.125 40.1872 10.2969 47.0122 10.2969 54.4466" stroke="#464646" stroke-width="2" stroke-miterlimit="10"/>
<path d="M22 33.9716V54.6903" stroke="#464646" stroke-width="2" stroke-miterlimit="10"/>
<path d="M4.57031 44.6971H40.1578" stroke="#464646" stroke-width="2" stroke-miterlimit="10"/>
<path d="M31.3841 17.7628C31.3841 24.7097 22.731 32.7534 21.756 33.7284C21.756 33.7284 21.6341 33.7284 21.5122 33.7284C20.4153 32.7534 11.7622 24.7097 11.8841 17.7628C11.8841 12.4003 16.2716 8.01282 21.6341 8.01282C26.9966 8.01282 31.2622 12.2784 31.3841 17.7628Z" stroke="#464646" stroke-width="2" stroke-miterlimit="10"/>
<path d="M21.6359 23.125C24.5976 23.125 26.9984 20.7242 26.9984 17.7625C26.9984 14.8009 24.5976 12.4 21.6359 12.4C18.6743 12.4 16.2734 14.8009 16.2734 17.7625C16.2734 20.7242 18.6743 23.125 21.6359 23.125Z" stroke="#464646" stroke-width="2" stroke-miterlimit="10"/>
<path d="M10.0578 29.3406C7.13281 26.4156 5.30469 22.2719 5.30469 17.7625C5.30469 13.2532 7.13281 9.1094 10.0578 6.1844C12.9828 3.2594 17.1266 1.43127 21.6359 1.43127C26.1453 1.43127 30.2891 3.2594 33.2141 6.1844C36.1391 9.1094 37.9672 13.2532 37.9672 17.7625C37.9672 22.2719 36.1391 26.4156 33.2141 29.3406" stroke="#464646" stroke-width="2" stroke-miterlimit="10" stroke-dasharray="1.99 1.99"/>
</svg>
