<svg width="355" height="189" viewBox="0 0 355 189" fill="none" xmlns="http://www.w3.org/2000/svg">
<path d="M290.148 156.908V94.9163C290.148 88.7134 290.342 82.417 292.56 76.624C297.265 64.3326 308.775 49.138 331.642 48.2711C331.795 48.2653 339.326 48.2601 339.48 48.2556V49.3314V79.1453L331.642 79.1317C329.59 79.1403 325.978 80.0063 323.417 83.229C322.264 84.6798 321.653 88.3661 321.653 88.3661V156.908H290.148Z" fill="white"/>
<path fill-rule="evenodd" clip-rule="evenodd" d="M79.377 57.9062C72.9964 52.5214 64.3475 48.5917 52.8655 48.2554V49.3311V79.1451C55.1707 78.9914 60.4266 80.0673 63.0084 85.5997C63.3158 86.9828 63.3158 88.3659 63.3158 88.3659V156.908H63.9336H94.8203H95.4381V88.3659C95.4381 88.3659 96.0494 84.6797 97.2021 83.2289C99.9675 79.7483 103.96 79.0166 105.888 79.1451V49.3311V48.2554C94.4064 48.5917 85.7575 52.5214 79.377 57.9062ZM0 156.908V95.6329C0 88.9529 0.193573 82.1596 2.67262 75.9566C7.56841 63.7064 19.1963 48.9222 41.9548 48.2556V49.3314V79.1453C40.0266 79.0168 36.0339 79.7485 33.2685 83.2291C32.1158 84.6799 31.5045 88.3661 31.5045 88.3661V156.908H0ZM159.672 156.908V92.7661C159.672 87.9946 159.49 83.1782 157.985 78.6503C153.777 65.992 142.174 48.9717 117.717 48.2554V49.3311V79.1451C119.645 79.0166 123.638 79.7483 126.403 83.2289C127.556 84.6797 128.167 88.3659 128.167 88.3659V156.908H159.672Z" fill="white"/>
<path fill-rule="evenodd" clip-rule="evenodd" d="M176.422 103.081V0H207.926V48.2557H218.531V79.6066H207.926V116.797C207.926 116.797 208.538 120.484 209.69 121.934C212.456 125.415 216.448 126.147 218.377 126.018V155.832V156.908C199.147 156.345 187.864 145.702 181.874 135.026C176.504 125.455 176.422 114.055 176.422 103.081ZM229.592 48.2554C247.416 48.7774 258.413 57.9588 264.695 67.8004C270.809 77.3778 271.468 89.0524 271.538 100.507H271.547V101.801C271.547 101.968 271.547 102.135 271.547 102.303C271.547 102.574 271.547 102.845 271.546 103.117C271.547 103.609 271.547 104.099 271.547 104.589V104.64V104.81H271.543C271.499 115.803 271.004 127.049 265.376 136.418C259.22 146.664 248.078 156.52 229.592 157.061V155.985V126.171C231.52 126.3 235.513 125.568 238.278 122.088C239.431 120.637 240.042 116.951 240.042 116.951V104.81V100.507V88.3659C240.042 88.3659 239.431 84.6797 238.278 83.2289C235.513 79.7483 231.52 79.0166 229.592 79.1451V49.3311V48.2554Z" fill="white"/>
<path fill-rule="evenodd" clip-rule="evenodd" d="M345.625 155.217C349.783 155.217 353.155 151.845 353.155 147.687C353.155 143.528 349.783 140.156 345.625 140.156C341.466 140.156 338.094 143.528 338.094 147.687C338.094 151.845 341.466 155.217 345.625 155.217ZM345.625 157.061C350.802 157.061 354.999 152.864 354.999 147.687C354.999 142.509 350.802 138.312 345.625 138.312C340.447 138.312 336.25 142.509 336.25 147.687C336.25 152.864 340.447 157.061 345.625 157.061Z" fill="white"/>
<path d="M342.328 152.758V142.638H345.856C346.758 142.638 347.402 142.73 347.789 142.914C348.175 143.093 348.493 143.409 348.742 143.86C348.99 144.306 349.114 144.842 349.114 145.468C349.114 146.26 348.923 146.897 348.541 147.38C348.164 147.864 347.625 148.167 346.926 148.292C347.285 148.549 347.582 148.833 347.816 149.141C348.051 149.445 348.371 149.992 348.776 150.784L349.784 152.758H347.789L346.574 150.556C346.137 149.76 345.84 149.263 345.683 149.065C345.527 148.862 345.361 148.724 345.186 148.651C345.011 148.573 344.731 148.533 344.344 148.533H343.999V152.758H342.328ZM343.999 146.918H345.241C346.001 146.918 346.484 146.886 346.691 146.821C346.898 146.752 347.066 146.616 347.195 146.414C347.324 146.211 347.388 145.942 347.388 145.606C347.388 145.284 347.324 145.026 347.195 144.833C347.066 144.635 346.891 144.499 346.67 144.426C346.514 144.375 346.061 144.35 345.31 144.35H343.999V146.918Z" fill="white"/>
<path d="M8.66172 185.024H8.68547L14.3126 171.445H16.9244V187.851H15.2149V173.6H15.1674L9.0891 187.851H8.18686L2.10857 173.6H2.06108V187.851H0.351562V171.445H2.96333L8.66172 185.024Z" fill="white"/>
<path d="M28.7662 180.853C28.7662 179.91 28.5129 179.208 28.0064 178.744C27.4999 178.281 26.7638 178.049 25.7983 178.049C25.1335 178.049 24.5161 178.165 23.9463 178.397C23.3765 178.628 22.8937 178.937 22.498 179.323L21.5957 178.281C22.0547 177.833 22.6562 177.462 23.4002 177.168C24.16 176.875 25.0147 176.728 25.9645 176.728C26.566 176.728 27.1279 176.813 27.6503 176.983C28.1726 177.138 28.6316 177.377 29.0274 177.701C29.4231 178.026 29.7318 178.435 29.9534 178.93C30.175 179.424 30.2858 180.003 30.2858 180.667V185.418C30.2858 185.835 30.3016 186.267 30.3333 186.715C30.3649 187.163 30.4124 187.542 30.4757 187.851H29.0274C28.9799 187.588 28.9403 187.302 28.9087 186.993C28.877 186.684 28.8612 186.383 28.8612 186.09H28.8137C28.3072 186.816 27.7294 187.341 27.0804 187.665C26.4473 187.974 25.6796 188.129 24.7773 188.129C24.3499 188.129 23.9067 188.067 23.4477 187.943C23.0045 187.835 22.5929 187.65 22.213 187.387C21.849 187.125 21.5403 186.785 21.287 186.368C21.0496 185.951 20.9309 185.441 20.9309 184.838C20.9309 184.004 21.1446 183.348 21.572 182.869C22.0152 182.374 22.6008 182.011 23.329 181.78C24.0571 181.532 24.8881 181.378 25.822 181.316C26.7718 181.239 27.7531 181.2 28.7662 181.2V180.853ZM28.2913 182.428C27.6265 182.428 26.9538 182.459 26.2731 182.521C25.6083 182.567 24.9989 182.676 24.4449 182.846C23.9067 183 23.4635 183.232 23.1153 183.541C22.767 183.85 22.5929 184.259 22.5929 184.769C22.5929 185.155 22.6642 185.479 22.8066 185.742C22.9649 186.005 23.1707 186.221 23.4239 186.391C23.6772 186.545 23.9542 186.661 24.255 186.738C24.5715 186.8 24.8881 186.831 25.2047 186.831C25.7745 186.831 26.2811 186.738 26.7243 186.553C27.1675 186.352 27.5395 186.09 27.8402 185.765C28.141 185.425 28.3705 185.039 28.5288 184.607C28.687 184.174 28.7662 183.718 28.7662 183.239V182.428H28.2913Z" fill="white"/>
<path d="M40.8321 179.578C40.5946 179.13 40.2306 178.767 39.7399 178.489C39.265 178.196 38.7189 178.049 38.1016 178.049C37.8167 178.049 37.5317 178.08 37.2468 178.142C36.9619 178.203 36.7086 178.304 36.487 178.443C36.2654 178.582 36.0834 178.76 35.9409 178.976C35.8143 179.192 35.751 179.447 35.751 179.741C35.751 180.25 35.9647 180.644 36.3921 180.922C36.8194 181.185 37.4922 181.409 38.4102 181.594C39.724 181.857 40.6896 182.243 41.3069 182.753C41.9401 183.247 42.2567 183.919 42.2567 184.769C42.2567 185.387 42.13 185.912 41.8768 186.345C41.6393 186.762 41.3228 187.109 40.927 187.387C40.5313 187.65 40.0802 187.835 39.5737 187.943C39.083 188.067 38.5844 188.129 38.0778 188.129C37.2389 188.129 36.4237 187.959 35.6323 187.619C34.8408 187.279 34.1918 186.746 33.6853 186.02L34.9675 185.093C35.2524 185.572 35.6719 185.974 36.2259 186.298C36.7799 186.623 37.3893 186.785 38.0541 186.785C38.4023 186.785 38.7347 186.754 39.0513 186.692C39.3679 186.63 39.6449 186.522 39.8823 186.368C40.1198 186.213 40.3097 186.02 40.4522 185.788C40.5946 185.541 40.6659 185.24 40.6659 184.885C40.6659 184.313 40.3809 183.888 39.8111 183.61C39.2571 183.317 38.4498 183.046 37.3893 182.799C37.0569 182.722 36.7007 182.629 36.3208 182.521C35.9568 182.398 35.6164 182.228 35.2999 182.011C34.9833 181.78 34.7221 181.494 34.5163 181.154C34.3106 180.814 34.2077 180.389 34.2077 179.88C34.2077 179.323 34.3185 178.852 34.5401 178.466C34.7617 178.064 35.0545 177.74 35.4186 177.493C35.7985 177.23 36.2259 177.037 36.7007 176.914C37.1756 176.79 37.6663 176.728 38.1728 176.728C38.9484 176.728 39.7003 176.898 40.4284 177.238C41.1566 177.578 41.7027 178.057 42.0667 178.675L40.8321 179.578Z" fill="white"/>
<path d="M53.9464 179.486C53.6773 179.069 53.2815 178.729 52.7592 178.466C52.2527 178.188 51.6987 178.049 51.0972 178.049C50.4482 178.049 49.8625 178.165 49.3402 178.397C48.8178 178.613 48.3667 178.922 47.9868 179.323C47.6227 179.71 47.3378 180.173 47.132 180.714C46.9421 181.239 46.8471 181.811 46.8471 182.428C46.8471 183.046 46.9421 183.618 47.132 184.143C47.3378 184.668 47.6227 185.132 47.9868 185.533C48.3508 185.92 48.7941 186.229 49.3164 186.46C49.8388 186.677 50.4244 186.785 51.0734 186.785C51.7857 186.785 52.3872 186.653 52.8779 186.391C53.3686 186.128 53.7722 185.788 54.0888 185.371L55.2997 186.252C54.8249 186.823 54.2392 187.279 53.5427 187.619C52.8621 187.959 52.039 188.129 51.0734 188.129C50.1712 188.129 49.356 187.99 48.6279 187.712C47.8997 187.418 47.2745 187.016 46.7521 186.507C46.2456 185.997 45.8499 185.394 45.565 184.699C45.28 184.004 45.1376 183.247 45.1376 182.428C45.1376 181.61 45.28 180.853 45.565 180.158C45.8499 179.462 46.2456 178.86 46.7521 178.35C47.2745 177.84 47.8997 177.447 48.6279 177.168C49.356 176.875 50.1712 176.728 51.0734 176.728C51.8174 176.728 52.5692 176.89 53.329 177.215C54.1046 177.524 54.7299 177.987 55.2048 178.605L53.9464 179.486Z" fill="white"/>
<path d="M60.0009 178.79C60.3017 178.157 60.8003 177.655 61.4967 177.284C62.1932 176.914 62.9372 176.728 63.7286 176.728C65.1374 176.728 66.19 177.138 66.8865 177.956C67.5988 178.775 67.9549 179.856 67.9549 181.2V187.851H66.3404V181.849C66.3404 181.278 66.2929 180.76 66.1979 180.297C66.1029 179.833 65.9367 179.439 65.6993 179.115C65.4777 178.775 65.169 178.512 64.7733 178.327C64.3934 178.142 63.9106 178.049 63.325 178.049C62.8976 178.049 62.4781 178.134 62.0666 178.304C61.6708 178.474 61.3147 178.736 60.9981 179.092C60.6815 179.432 60.4283 179.872 60.2383 180.413C60.0484 180.938 59.9534 181.563 59.9534 182.289V187.851H58.3389V170.333H59.9534V178.79H60.0009Z" fill="white"/>
<path d="M74.2471 187.851H72.6325V177.006H74.2471V187.851ZM74.5795 172.835C74.5795 173.16 74.4608 173.43 74.2233 173.646C73.9859 173.847 73.7247 173.948 73.4398 173.948C73.1549 173.948 72.8937 173.847 72.6563 173.646C72.4188 173.43 72.3001 173.16 72.3001 172.835C72.3001 172.511 72.4188 172.248 72.6563 172.047C72.8937 171.831 73.1549 171.723 73.4398 171.723C73.7247 171.723 73.9859 171.831 74.2233 172.047C74.4608 172.248 74.5795 172.511 74.5795 172.835Z" fill="white"/>
<path d="M80.4678 177.006C80.4995 177.3 80.5232 177.624 80.5391 177.979C80.5549 178.335 80.5628 178.628 80.5628 178.86H80.6103C80.9269 178.227 81.4413 177.717 82.1536 177.331C82.8659 176.929 83.6178 176.728 84.4092 176.728C85.818 176.728 86.8706 177.138 87.5671 177.956C88.2794 178.775 88.6355 179.856 88.6355 181.2V187.851H87.021V181.849C87.021 181.278 86.9735 180.76 86.8785 180.297C86.7835 179.833 86.6173 179.439 86.3799 179.115C86.1583 178.775 85.8496 178.512 85.4539 178.327C85.074 178.142 84.5913 178.049 84.0056 178.049C83.5782 178.049 83.1587 178.134 82.7472 178.304C82.3515 178.474 81.9953 178.736 81.6787 179.092C81.3622 179.432 81.1089 179.872 80.9189 180.413C80.729 180.938 80.634 181.563 80.634 182.289V187.851H79.0195V179.393C79.0195 179.099 79.0116 178.721 78.9957 178.258C78.9799 177.794 78.9562 177.377 78.9245 177.006H80.4678Z" fill="white"/>
<path d="M101.767 181.594C101.719 180.575 101.379 179.733 100.746 179.069C100.129 178.389 99.2422 178.049 98.0867 178.049C97.5485 178.049 97.0499 178.149 96.5908 178.35C96.1318 178.536 95.7282 178.798 95.3799 179.138C95.0317 179.462 94.7547 179.841 94.5489 180.273C94.3431 180.691 94.2244 181.131 94.1928 181.594H101.767ZM103.405 182.104C103.405 182.212 103.405 182.328 103.405 182.452C103.405 182.575 103.397 182.707 103.381 182.846H94.169C94.1848 183.386 94.2956 183.896 94.5014 184.375C94.7072 184.854 94.9921 185.271 95.3562 185.626C95.7202 185.981 96.1476 186.267 96.6383 186.484C97.129 186.684 97.6593 186.785 98.2291 186.785C99.0681 186.785 99.7883 186.599 100.39 186.229C101.007 185.842 101.474 185.402 101.791 184.908L103.002 185.835C102.337 186.653 101.601 187.24 100.793 187.596C100.002 187.951 99.1472 188.129 98.2291 188.129C97.406 188.129 96.6383 187.99 95.926 187.712C95.2295 187.418 94.6281 187.016 94.1215 186.507C93.615 185.997 93.2114 185.394 92.9106 184.699C92.6257 184.004 92.4832 183.247 92.4832 182.428C92.4832 181.61 92.6257 180.853 92.9106 180.158C93.1955 179.462 93.5913 178.86 94.0978 178.35C94.6043 177.84 95.1979 177.447 95.8785 177.168C96.5592 176.875 97.2952 176.728 98.0867 176.728C98.9573 176.728 99.725 176.875 100.39 177.168C101.055 177.447 101.609 177.833 102.052 178.327C102.495 178.806 102.827 179.37 103.049 180.019C103.286 180.667 103.405 181.363 103.405 182.104Z" fill="white"/>
<path d="M108.801 177.006C108.833 177.3 108.857 177.624 108.872 177.979C108.888 178.335 108.896 178.628 108.896 178.86H108.944C109.26 178.227 109.775 177.717 110.487 177.331C111.199 176.929 111.951 176.728 112.743 176.728C114.151 176.728 115.204 177.138 115.9 177.956C116.613 178.775 116.969 179.856 116.969 181.2V187.851H115.354V181.849C115.354 181.278 115.307 180.76 115.212 180.297C115.117 179.833 114.951 179.439 114.713 179.115C114.492 178.775 114.183 178.512 113.787 178.327C113.407 178.142 112.925 178.049 112.339 178.049C111.912 178.049 111.492 178.134 111.081 178.304C110.685 178.474 110.329 178.736 110.012 179.092C109.696 179.432 109.442 179.872 109.252 180.413C109.062 180.938 108.967 181.563 108.967 182.289V187.851H107.353V179.393C107.353 179.099 107.345 178.721 107.329 178.258C107.313 177.794 107.29 177.377 107.258 177.006H108.801Z" fill="white"/>
<path d="M121.719 171.445H126.729C127.362 171.445 128.003 171.515 128.652 171.654C129.301 171.777 129.879 172.001 130.385 172.326C130.908 172.634 131.327 173.059 131.644 173.6C131.976 174.141 132.142 174.82 132.142 175.639C132.142 176.504 131.873 177.261 131.335 177.91C130.797 178.543 130.077 178.96 129.174 179.161V179.208C130.266 179.331 131.169 179.748 131.881 180.459C132.609 181.154 132.973 182.104 132.973 183.309C132.973 183.989 132.823 184.614 132.522 185.186C132.237 185.742 131.826 186.221 131.287 186.623C130.749 187.009 130.092 187.31 129.317 187.526C128.541 187.743 127.671 187.851 126.705 187.851H121.719V171.445ZM123.428 178.628H126.871C127.283 178.628 127.694 178.582 128.106 178.489C128.533 178.397 128.921 178.242 129.269 178.026C129.617 177.794 129.894 177.493 130.1 177.122C130.322 176.751 130.433 176.296 130.433 175.755C130.433 175.23 130.322 174.789 130.1 174.434C129.894 174.063 129.61 173.762 129.246 173.53C128.881 173.299 128.454 173.137 127.963 173.044C127.473 172.936 126.95 172.882 126.396 172.882H123.428V178.628ZM123.428 186.414H126.61C127.227 186.414 127.813 186.36 128.367 186.252C128.937 186.128 129.428 185.943 129.839 185.696C130.266 185.433 130.607 185.101 130.86 184.699C131.113 184.282 131.24 183.788 131.24 183.216C131.24 182.135 130.86 181.332 130.1 180.806C129.356 180.266 128.296 179.995 126.919 179.995H123.428V186.414Z" fill="white"/>
<path d="M145.266 187.851C145.234 187.557 145.211 187.233 145.195 186.877C145.179 186.522 145.171 186.229 145.171 185.997H145.124C144.807 186.63 144.293 187.148 143.58 187.549C142.868 187.936 142.116 188.129 141.325 188.129C139.916 188.129 138.855 187.719 138.143 186.901C137.447 186.082 137.098 185.001 137.098 183.657V177.006H138.713V183.008C138.713 183.579 138.76 184.097 138.855 184.56C138.95 185.024 139.109 185.425 139.33 185.765C139.568 186.09 139.876 186.345 140.256 186.53C140.652 186.715 141.143 186.808 141.728 186.808C142.156 186.808 142.567 186.723 142.963 186.553C143.375 186.383 143.739 186.128 144.055 185.788C144.372 185.433 144.625 184.993 144.815 184.468C145.005 183.927 145.1 183.294 145.1 182.567V177.006H146.714V185.464C146.714 185.757 146.722 186.136 146.738 186.599C146.754 187.063 146.778 187.48 146.809 187.851H145.266Z" fill="white"/>
<path d="M151.464 179.393C151.464 179.099 151.457 178.721 151.441 178.258C151.425 177.794 151.401 177.377 151.369 177.006H152.913C152.944 177.3 152.968 177.624 152.984 177.979C153 178.335 153.008 178.628 153.008 178.86H153.055C153.372 178.227 153.847 177.717 154.48 177.331C155.113 176.929 155.825 176.728 156.617 176.728C156.822 176.728 157.005 176.736 157.163 176.751C157.337 176.767 157.511 176.798 157.685 176.844L157.471 178.327C157.377 178.296 157.218 178.265 156.997 178.234C156.775 178.203 156.553 178.188 156.332 178.188C155.904 178.188 155.493 178.265 155.097 178.42C154.701 178.574 154.353 178.821 154.052 179.161C153.768 179.486 153.53 179.91 153.34 180.436C153.166 180.945 153.079 181.563 153.079 182.289V187.851H151.464V179.393Z" fill="white"/>
<path d="M171.119 182.428C171.119 183.247 170.968 184.004 170.667 184.699C170.382 185.394 169.979 185.997 169.456 186.507C168.934 187.016 168.309 187.418 167.581 187.712C166.853 187.99 166.053 188.129 165.183 188.129C164.328 188.129 163.536 187.99 162.808 187.712C162.08 187.418 161.455 187.016 160.933 186.507C160.41 185.997 159.999 185.394 159.698 184.699C159.413 184.004 159.271 183.247 159.271 182.428C159.271 181.61 159.413 180.853 159.698 180.158C159.999 179.462 160.41 178.86 160.933 178.35C161.455 177.84 162.08 177.447 162.808 177.168C163.536 176.875 164.328 176.728 165.183 176.728C166.053 176.728 166.853 176.875 167.581 177.168C168.309 177.447 168.934 177.84 169.456 178.35C169.979 178.86 170.382 179.462 170.667 180.158C170.968 180.853 171.119 181.61 171.119 182.428ZM169.409 182.428C169.409 181.826 169.306 181.262 169.1 180.737C168.91 180.196 168.633 179.733 168.269 179.347C167.905 178.945 167.462 178.628 166.94 178.397C166.417 178.165 165.832 178.049 165.183 178.049C164.534 178.049 163.948 178.165 163.426 178.397C162.919 178.628 162.484 178.945 162.12 179.347C161.756 179.733 161.471 180.196 161.265 180.737C161.075 181.262 160.98 181.826 160.98 182.428C160.98 183.031 161.075 183.603 161.265 184.143C161.471 184.668 161.756 185.132 162.12 185.533C162.484 185.92 162.919 186.229 163.426 186.46C163.948 186.677 164.534 186.785 165.183 186.785C165.832 186.785 166.417 186.677 166.94 186.46C167.462 186.229 167.905 185.92 168.269 185.533C168.633 185.132 168.91 184.668 169.1 184.143C169.306 183.603 169.409 183.031 169.409 182.428Z" fill="white"/>
<path d="M183.283 187.851H181.573V171.445H186.512C187.335 171.445 188.095 171.522 188.791 171.677C189.504 171.831 190.113 172.086 190.62 172.441C191.142 172.781 191.546 173.229 191.83 173.785C192.115 174.341 192.258 175.021 192.258 175.824C192.258 176.427 192.147 176.975 191.925 177.47C191.704 177.964 191.403 178.397 191.023 178.767C190.643 179.123 190.192 179.408 189.67 179.625C189.147 179.841 188.578 179.98 187.96 180.042L192.875 187.851H190.786L186.132 180.181H183.283V187.851ZM183.283 178.744H186.251C187.628 178.744 188.688 178.505 189.432 178.026C190.176 177.531 190.548 176.798 190.548 175.824C190.548 175.284 190.445 174.828 190.24 174.457C190.034 174.087 189.749 173.785 189.385 173.554C189.021 173.322 188.578 173.152 188.055 173.044C187.533 172.936 186.955 172.882 186.322 172.882H183.283V178.744Z" fill="white"/>
<path d="M202.893 180.853C202.893 179.91 202.64 179.208 202.133 178.744C201.627 178.281 200.89 178.049 199.925 178.049C199.26 178.049 198.643 178.165 198.073 178.397C197.503 178.628 197.02 178.937 196.625 179.323L195.722 178.281C196.181 177.833 196.783 177.462 197.527 177.168C198.287 176.875 199.141 176.728 200.091 176.728C200.693 176.728 201.255 176.813 201.777 176.983C202.299 177.138 202.758 177.377 203.154 177.701C203.55 178.026 203.858 178.435 204.08 178.93C204.302 179.424 204.412 180.003 204.412 180.667V185.418C204.412 185.835 204.428 186.267 204.46 186.715C204.492 187.163 204.539 187.542 204.602 187.851H203.154C203.107 187.588 203.067 187.302 203.035 186.993C203.004 186.684 202.988 186.383 202.988 186.09H202.94C202.434 186.816 201.856 187.341 201.207 187.665C200.574 187.974 199.806 188.129 198.904 188.129C198.477 188.129 198.033 188.067 197.574 187.943C197.131 187.835 196.72 187.65 196.34 187.387C195.976 187.125 195.667 186.785 195.414 186.368C195.176 185.951 195.058 185.441 195.058 184.838C195.058 184.004 195.271 183.348 195.699 182.869C196.142 182.374 196.727 182.011 197.456 181.78C198.184 181.532 199.015 181.378 199.949 181.316C200.898 181.239 201.88 181.2 202.893 181.2V180.853ZM202.418 182.428C201.753 182.428 201.08 182.459 200.4 182.521C199.735 182.567 199.126 182.676 198.572 182.846C198.033 183 197.59 183.232 197.242 183.541C196.894 183.85 196.72 184.259 196.72 184.769C196.72 185.155 196.791 185.479 196.933 185.742C197.092 186.005 197.297 186.221 197.551 186.391C197.804 186.545 198.081 186.661 198.382 186.738C198.698 186.8 199.015 186.831 199.331 186.831C199.901 186.831 200.408 186.738 200.851 186.553C201.294 186.352 201.666 186.09 201.967 185.765C202.268 185.425 202.497 185.039 202.655 184.607C202.814 184.174 202.893 183.718 202.893 183.239V182.428H202.418Z" fill="white"/>
<path d="M218.188 186.02C217.713 186.715 217.096 187.24 216.336 187.596C215.576 187.951 214.792 188.129 213.985 188.129C213.115 188.129 212.323 187.982 211.611 187.688C210.914 187.395 210.313 186.993 209.806 186.484C209.316 185.974 208.928 185.371 208.643 184.676C208.374 183.981 208.239 183.232 208.239 182.428C208.239 181.625 208.374 180.876 208.643 180.181C208.928 179.486 209.316 178.883 209.806 178.373C210.313 177.864 210.914 177.462 211.611 177.168C212.323 176.875 213.115 176.728 213.985 176.728C214.792 176.728 215.576 176.914 216.336 177.284C217.096 177.64 217.713 178.173 218.188 178.883H218.235V170.333H219.85V187.851H218.235V186.02H218.188ZM209.949 182.428C209.949 183.031 210.044 183.603 210.234 184.143C210.424 184.668 210.693 185.132 211.041 185.533C211.405 185.92 211.848 186.229 212.371 186.46C212.893 186.677 213.487 186.785 214.151 186.785C214.769 186.785 215.339 186.677 215.861 186.46C216.383 186.229 216.834 185.92 217.214 185.533C217.594 185.147 217.887 184.692 218.093 184.166C218.314 183.626 218.425 183.046 218.425 182.428C218.425 181.811 218.314 181.239 218.093 180.714C217.887 180.173 217.594 179.71 217.214 179.323C216.834 178.922 216.383 178.613 215.861 178.397C215.339 178.165 214.769 178.049 214.151 178.049C213.487 178.049 212.893 178.165 212.371 178.397C211.848 178.628 211.405 178.945 211.041 179.347C210.693 179.733 210.424 180.196 210.234 180.737C210.044 181.262 209.949 181.826 209.949 182.428Z" fill="white"/>
<path d="M235.68 182.428C235.68 183.247 235.53 184.004 235.229 184.699C234.944 185.394 234.54 185.997 234.018 186.507C233.496 187.016 232.87 187.418 232.142 187.712C231.414 187.99 230.615 188.129 229.744 188.129C228.889 188.129 228.098 187.99 227.37 187.712C226.642 187.418 226.016 187.016 225.494 186.507C224.972 185.997 224.56 185.394 224.259 184.699C223.974 184.004 223.832 183.247 223.832 182.428C223.832 181.61 223.974 180.853 224.259 180.158C224.56 179.462 224.972 178.86 225.494 178.35C226.016 177.84 226.642 177.447 227.37 177.168C228.098 176.875 228.889 176.728 229.744 176.728C230.615 176.728 231.414 176.875 232.142 177.168C232.87 177.447 233.496 177.84 234.018 178.35C234.54 178.86 234.944 179.462 235.229 180.158C235.53 180.853 235.68 181.61 235.68 182.428ZM233.97 182.428C233.97 181.826 233.868 181.262 233.662 180.737C233.472 180.196 233.195 179.733 232.831 179.347C232.467 178.945 232.023 178.628 231.501 178.397C230.979 178.165 230.393 178.049 229.744 178.049C229.095 178.049 228.509 178.165 227.987 178.397C227.481 178.628 227.045 178.945 226.681 179.347C226.317 179.733 226.032 180.196 225.826 180.737C225.637 181.262 225.542 181.826 225.542 182.428C225.542 183.031 225.637 183.603 225.826 184.143C226.032 184.668 226.317 185.132 226.681 185.533C227.045 185.92 227.481 186.229 227.987 186.46C228.509 186.677 229.095 186.785 229.744 186.785C230.393 186.785 230.979 186.677 231.501 186.46C232.023 186.229 232.467 185.92 232.831 185.533C233.195 185.132 233.472 184.668 233.662 184.143C233.868 183.603 233.97 183.031 233.97 182.428Z" fill="white"/>
<path d="M244.188 187.851H242.407L237.872 177.006H239.677L243.286 186.182H243.333L246.966 177.006H248.699L244.188 187.851Z" fill="white"/>
<path d="M258.702 180.853C258.702 179.91 258.448 179.208 257.942 178.744C257.435 178.281 256.699 178.049 255.734 178.049C255.069 178.049 254.452 178.165 253.882 178.397C253.312 178.628 252.829 178.937 252.433 179.323L251.531 178.281C251.99 177.833 252.592 177.462 253.336 177.168C254.095 176.875 254.95 176.728 255.9 176.728C256.501 176.728 257.063 176.813 257.586 176.983C258.108 177.138 258.567 177.377 258.963 177.701C259.359 178.026 259.667 178.435 259.889 178.93C260.11 179.424 260.221 180.003 260.221 180.667V185.418C260.221 185.835 260.237 186.267 260.269 186.715C260.3 187.163 260.348 187.542 260.411 187.851H258.963C258.915 187.588 258.876 187.302 258.844 186.993C258.812 186.684 258.797 186.383 258.797 186.09H258.749C258.243 186.816 257.665 187.341 257.016 187.665C256.383 187.974 255.615 188.129 254.713 188.129C254.285 188.129 253.842 188.067 253.383 187.943C252.94 187.835 252.528 187.65 252.149 187.387C251.784 187.125 251.476 186.785 251.223 186.368C250.985 185.951 250.866 185.441 250.866 184.838C250.866 184.004 251.08 183.348 251.507 182.869C251.951 182.374 252.536 182.011 253.264 181.78C253.993 181.532 254.824 181.378 255.758 181.316C256.707 181.239 257.689 181.2 258.702 181.2V180.853ZM258.227 182.428C257.562 182.428 256.889 182.459 256.209 182.521C255.544 182.567 254.934 182.676 254.38 182.846C253.842 183 253.399 183.232 253.051 183.541C252.703 183.85 252.528 184.259 252.528 184.769C252.528 185.155 252.6 185.479 252.742 185.742C252.9 186.005 253.106 186.221 253.359 186.391C253.613 186.545 253.89 186.661 254.19 186.738C254.507 186.8 254.824 186.831 255.14 186.831C255.71 186.831 256.217 186.738 256.66 186.553C257.103 186.352 257.475 186.09 257.776 185.765C258.076 185.425 258.306 185.039 258.464 184.607C258.623 184.174 258.702 183.718 258.702 183.239V182.428H258.227Z" fill="white"/>
<path d="M266.304 177.006C266.335 177.3 266.359 177.624 266.375 177.979C266.391 178.335 266.399 178.628 266.399 178.86H266.446C266.763 178.227 267.277 177.717 267.99 177.331C268.702 176.929 269.454 176.728 270.245 176.728C271.654 176.728 272.707 177.138 273.403 177.956C274.115 178.775 274.471 179.856 274.471 181.2V187.851H272.857V181.849C272.857 181.278 272.809 180.76 272.714 180.297C272.62 179.833 272.453 179.439 272.216 179.115C271.994 178.775 271.686 178.512 271.29 178.327C270.91 178.142 270.427 178.049 269.842 178.049C269.414 178.049 268.995 178.134 268.583 178.304C268.187 178.474 267.831 178.736 267.515 179.092C267.198 179.432 266.945 179.872 266.755 180.413C266.565 180.938 266.47 181.563 266.47 182.289V187.851H264.855V179.393C264.855 179.099 264.848 178.721 264.832 178.258C264.816 177.794 264.792 177.377 264.76 177.006H266.304Z" fill="white"/>
<path d="M290.167 182.428C290.167 183.247 290.017 184.004 289.716 184.699C289.431 185.394 289.027 185.997 288.505 186.507C287.983 187.016 287.358 187.418 286.629 187.712C285.901 187.99 285.102 188.129 284.231 188.129C283.377 188.129 282.585 187.99 281.857 187.712C281.129 187.418 280.504 187.016 279.981 186.507C279.459 185.997 279.047 185.394 278.747 184.699C278.462 184.004 278.319 183.247 278.319 182.428C278.319 181.61 278.462 180.853 278.747 180.158C279.047 179.462 279.459 178.86 279.981 178.35C280.504 177.84 281.129 177.447 281.857 177.168C282.585 176.875 283.377 176.728 284.231 176.728C285.102 176.728 285.901 176.875 286.629 177.168C287.358 177.447 287.983 177.84 288.505 178.35C289.027 178.86 289.431 179.462 289.716 180.158C290.017 180.853 290.167 181.61 290.167 182.428ZM288.458 182.428C288.458 181.826 288.355 181.262 288.149 180.737C287.959 180.196 287.682 179.733 287.318 179.347C286.954 178.945 286.511 178.628 285.988 178.397C285.466 178.165 284.88 178.049 284.231 178.049C283.582 178.049 282.997 178.165 282.474 178.397C281.968 178.628 281.533 178.945 281.168 179.347C280.804 179.733 280.519 180.196 280.314 180.737C280.124 181.262 280.029 181.826 280.029 182.428C280.029 183.031 280.124 183.603 280.314 184.143C280.519 184.668 280.804 185.132 281.168 185.533C281.533 185.92 281.968 186.229 282.474 186.46C282.997 186.677 283.582 186.785 284.231 186.785C284.88 186.785 285.466 186.677 285.988 186.46C286.511 186.229 286.954 185.92 287.318 185.533C287.682 185.132 287.959 184.668 288.149 184.143C288.355 183.603 288.458 183.031 288.458 182.428Z" fill="white"/>
<path d="M298.675 187.851H296.894L292.359 177.006H294.164L297.773 186.182H297.82L301.453 177.006H303.186L298.675 187.851Z" fill="white"/>
<path d="M307.823 187.851H306.208V177.006H307.823V187.851ZM308.155 172.835C308.155 173.16 308.037 173.43 307.799 173.646C307.562 173.847 307.301 173.948 307.016 173.948C306.731 173.948 306.47 173.847 306.232 173.646C305.995 173.43 305.876 173.16 305.876 172.835C305.876 172.511 305.995 172.248 306.232 172.047C306.47 171.831 306.731 171.723 307.016 171.723C307.301 171.723 307.562 171.831 307.799 172.047C308.037 172.248 308.155 172.511 308.155 172.835Z" fill="white"/>
<path d="M320.597 179.486C320.328 179.069 319.932 178.729 319.41 178.466C318.903 178.188 318.349 178.049 317.748 178.049C317.099 178.049 316.513 178.165 315.991 178.397C315.468 178.613 315.017 178.922 314.637 179.323C314.273 179.71 313.988 180.173 313.782 180.714C313.593 181.239 313.498 181.811 313.498 182.428C313.498 183.046 313.593 183.618 313.782 184.143C313.988 184.668 314.273 185.132 314.637 185.533C315.001 185.92 315.445 186.229 315.967 186.46C316.489 186.677 317.075 186.785 317.724 186.785C318.436 186.785 319.038 186.653 319.528 186.391C320.019 186.128 320.423 185.788 320.739 185.371L321.95 186.252C321.475 186.823 320.89 187.279 320.193 187.619C319.513 187.959 318.689 188.129 317.724 188.129C316.822 188.129 316.006 187.99 315.278 187.712C314.55 187.418 313.925 187.016 313.403 186.507C312.896 185.997 312.5 185.394 312.215 184.699C311.931 184.004 311.788 183.247 311.788 182.428C311.788 181.61 311.931 180.853 312.215 180.158C312.5 179.462 312.896 178.86 313.403 178.35C313.925 177.84 314.55 177.447 315.278 177.168C316.006 176.875 316.822 176.728 317.724 176.728C318.468 176.728 319.22 176.89 319.979 177.215C320.755 177.524 321.38 177.987 321.855 178.605L320.597 179.486Z" fill="white"/>
</svg>
