<svg width="8" height="15" viewBox="0 0 8 15" fill="none" xmlns="http://www.w3.org/2000/svg">
<path d="M5.03027 14.8975C4.95703 14.9004 4.91016 14.9063 4.86328 14.9063C3.86133 14.9063 2.8623 14.9033 1.86035 14.9092C1.71973 14.9092 1.68164 14.8711 1.68164 14.7305C1.68457 12.3984 1.68457 10.0635 1.68457 7.73145C1.68457 7.66993 1.68457 7.60841 1.68457 7.5293C1.13965 7.5293 0.609375 7.5293 0.0703125 7.5293C0.0703125 6.69727 0.0703125 5.87989 0.0703125 5.03907C0.125977 5.03907 0.178711 5.03907 0.228515 5.03907C0.667969 5.03907 1.10742 5.03614 1.54687 5.042C1.6582 5.042 1.6875 5.00977 1.6875 4.90137C1.68164 4.24805 1.68164 3.5918 1.6875 2.93848C1.69043 2.48145 1.76367 2.03614 1.97461 1.62305C2.27637 1.04005 2.75391 0.662117 3.35742 0.427742C3.84961 0.234382 4.36816 0.16407 4.88965 0.155281C5.73926 0.143562 6.58887 0.149421 7.43848 0.146492C7.51758 0.146492 7.58203 0.143562 7.58203 0.25489C7.5791 1.06055 7.5791 1.86622 7.5791 2.67188C7.5791 2.68067 7.57617 2.68946 7.56445 2.72755C7.51465 2.72755 7.45898 2.72755 7.40332 2.72755C6.87598 2.72755 6.34863 2.72462 5.82129 2.72755C5.5166 2.72755 5.27051 2.85059 5.11523 3.11719C5.06836 3.1963 5.03906 3.29884 5.03906 3.39259C5.03027 3.89063 5.03906 4.38868 5.0332 4.88673C5.0332 5.00391 5.06836 5.03614 5.18262 5.03614C5.91504 5.03028 6.64746 5.03321 7.37988 5.03321C7.43848 5.03321 7.49414 5.03321 7.59375 5.03321C7.49121 5.8711 7.3916 6.69141 7.28906 7.52052C6.52734 7.52052 5.78613 7.52052 5.03027 7.52052C5.03027 9.98438 5.03027 12.4336 5.03027 14.8975Z" fill="white"/>
</svg>
