<svg width="14" height="14" viewBox="0 0 14 14" fill="none" xmlns="http://www.w3.org/2000/svg">
<path d="M4.74223 13.9104C4.74223 13.8447 4.74223 13.7819 4.74223 13.719C4.74223 10.774 4.74223 7.83185 4.74223 4.88693C4.74223 4.8049 4.73676 4.73927 4.85707 4.73927C5.7266 4.74474 6.59887 4.74201 7.4684 4.74201C7.49027 4.74201 7.51215 4.74747 7.54769 4.75294C7.54769 5.13576 7.54769 5.5131 7.54769 5.89318C7.55863 5.89591 7.56684 5.90138 7.57777 5.90412C7.68715 5.76193 7.79105 5.61427 7.9059 5.47482C8.23949 5.06466 8.65785 4.76388 9.15004 4.58341C9.41801 4.48497 9.71058 4.42482 9.99223 4.41115C10.3805 4.39474 10.777 4.40021 11.1598 4.46583C11.7887 4.57247 12.3438 4.85138 12.8032 5.30802C13.2379 5.73732 13.525 6.25412 13.6809 6.83654C13.7629 7.14552 13.8149 7.46271 13.8641 7.77716C13.8969 7.99591 13.9133 8.22013 13.9133 8.43888C13.9161 10.2162 13.9161 11.9936 13.9161 13.7709C13.9161 13.8147 13.9133 13.8584 13.9106 13.9158C13.8586 13.9158 13.8149 13.9158 13.7711 13.9158C12.9317 13.9158 12.095 13.9131 11.2555 13.9186C11.1161 13.9186 11.0914 13.8721 11.0914 13.7463C11.0942 12.1111 11.0996 10.4733 11.0887 8.8381C11.086 8.55099 11.0586 8.25294 10.9848 7.97677C10.8508 7.49279 10.5446 7.14279 10.0579 6.96505C9.64769 6.81466 9.23207 6.78732 8.81098 6.89396C8.34613 7.01154 8.02621 7.32052 7.78558 7.72794C7.59965 8.0424 7.5641 8.38966 7.56137 8.73693C7.55043 10.3967 7.5559 12.0537 7.5559 13.7135C7.5559 13.7764 7.5559 13.8393 7.5559 13.9076C6.61254 13.9104 5.68558 13.9104 4.74223 13.9104Z" fill="white"/>
<path d="M2.98281 9.36797C2.98281 10.8254 2.98008 12.2828 2.98555 13.7402C2.98555 13.8715 2.9582 13.9207 2.81328 13.918C1.9793 13.9098 1.14531 13.9098 0.311328 13.918C0.174609 13.918 0.144531 13.8715 0.144531 13.7457C0.147266 10.8172 0.147266 7.88594 0.144531 4.95742C0.144531 4.83984 0.177344 4.79883 0.297656 4.79883C1.13984 4.8043 1.98203 4.8043 2.82695 4.79883C2.9582 4.79883 2.98281 4.84805 2.98281 4.96563C2.98281 6.43398 2.98281 7.90234 2.98281 9.36797Z" fill="white"/>
<path d="M1.53321 0.131701C2.43282 0.109826 2.97149 0.763341 2.97423 1.56451C2.97696 2.38483 2.40274 2.99733 1.5004 2.99459C0.660947 2.99459 0.0675875 2.39303 0.0703219 1.54264C0.0730563 0.746935 0.650009 0.104357 1.53321 0.131701Z" fill="white"/>
</svg>
