<svg width="20" height="18" viewBox="0 0 20 18" fill="none" xmlns="http://www.w3.org/2000/svg">
<path d="M19.3019 5.6514L19.2537 5.60328L19.2125 5.56203L19.1712 5.52765L10.4537 0.715154C10.3492 0.654814 10.2307 0.623047 10.11 0.623047C9.98932 0.623047 9.87076 0.654814 9.76625 0.715154L1.0625 5.39703C1.01526 5.4196 0.969356 5.44485 0.925 5.47265L0.876875 5.5139H0.835625C0.692837 5.63215 0.577625 5.78018 0.498057 5.94763C0.418489 6.11507 0.37649 6.29789 0.375 6.48328V16.2252C0.394356 16.5766 0.547723 16.9072 0.803518 17.1489C1.05931 17.3906 1.39806 17.5251 1.75 17.5245H18.25C18.6019 17.5251 18.9407 17.3906 19.1965 17.1489C19.4523 16.9072 19.6056 16.5766 19.625 16.2252V6.48328C19.6232 6.1757 19.5082 5.87955 19.3019 5.6514ZM10 10.1064L2.69187 6.05703L10 2.00078L17.315 6.05015L10 10.1064ZM1.75 16.1427V7.1089L9.65625 11.4883C9.7576 11.543 9.87108 11.5714 9.98625 11.5708C10.1156 11.5691 10.2419 11.531 10.3506 11.4608L18.25 7.1089V16.1495L1.75 16.1427Z" fill="white"/>
</svg>
