<svg width="40" height="40" viewBox="0 0 40 40" fill="none" xmlns="http://www.w3.org/2000/svg">
<path d="M4.0625 39.6875H35.3125V10.3125V7.8125H27.8125V0.3125H25.3125H4.0625V17.8125H6.5625V2.8125H25.3125V10.3125H32.8125V37.1875H4.0625V39.6875Z" fill="black"/>
<path d="M7.65625 29.375C9.625 29.375 11.25 27.75 11.25 25.7812C11.25 23.8125 9.625 22.1875 7.65625 22.1875H4.0625V32.8125H6.5625V29.375H7.65625ZM6.5625 24.6875H7.65625C8.25 24.6875 8.75 25.1875 8.75 25.7812C8.75 26.375 8.25 26.875 7.65625 26.875H6.5625V24.6875Z" fill="black"/>
<path d="M30.3125 24.6875V22.1875H24.0625V32.8125H26.5625V29.375H28.4375V26.875H26.5625V24.6875H30.3125Z" fill="black"/>
<path d="M21.5625 27.5C21.5625 24.5625 19.1875 22.1875 16.25 22.1875H13.75V32.8125H16.25C19.1875 32.8125 21.5625 30.4375 21.5625 27.5ZM16.25 30.3125V24.6875C17.8125 24.6875 19.0625 25.9375 19.0625 27.5C19.0625 29.0625 17.8125 30.3125 16.25 30.3125Z" fill="black"/>
</svg>
