<svg width="33" height="38" viewBox="0 0 33 38" fill="none" xmlns="http://www.w3.org/2000/svg">
<path d="M3.14788 1.00071L30.9579 17.5027C32.0789 18.168 32.0789 19.8315 30.9579 20.4968L3.14788 36.9988C2.02684 37.664 0.625 36.8323 0.625 35.5017V2.49773C0.625 1.16721 2.02612 0.335454 3.14788 1.00071Z" fill="white"/>
<path d="M30.9598 17.5027L3.14975 1.00074C2.98199 0.901583 2.80847 0.845342 2.63423 0.809082L29.5198 16.7627C30.6408 17.428 30.6408 19.0915 29.5198 19.7568L1.70975 36.2588C1.45847 36.4075 1.19423 36.4719 0.933594 36.4815C1.40591 37.1756 2.34551 37.4753 3.14975 36.9988L30.9598 20.4968C32.0808 19.8315 32.0808 18.168 30.9598 17.5027Z" fill="white"/>
<path d="M3.14788 1.00071L30.9579 17.5027C32.0789 18.168 32.0789 19.8315 30.9579 20.4968L3.14788 36.9988C2.02684 37.664 0.625 36.8323 0.625 35.5017V2.49773C0.625 1.16721 2.02612 0.335454 3.14788 1.00071Z" stroke="white" stroke-miterlimit="10"/>
</svg>
