<svg width="14" height="14" viewBox="0 0 14 14" fill="none" xmlns="http://www.w3.org/2000/svg">
<path d="M13.6685 11.8799L10.4498 8.66097C10.9966 7.79032 11.314 6.76127 11.314 5.6569C11.314 2.5325 8.78119 0 5.6569 0C2.53262 0 0 2.5325 0 5.6569C0 8.78143 2.5325 11.3137 5.6569 11.3137C6.85874 11.3137 7.97195 10.9379 8.88797 10.2995L12.0684 13.4801C12.2894 13.7009 12.5791 13.8108 12.8684 13.8108C13.1581 13.8108 13.4475 13.7009 13.6688 13.4801C14.1104 13.038 14.1104 12.3219 13.6685 11.8799ZM5.6569 9.48094C3.54517 9.48094 1.83311 7.76899 1.83311 5.65714C1.83311 3.54529 3.54517 1.83323 5.6569 1.83323C7.76875 1.83323 9.4807 3.54529 9.4807 5.65714C9.4807 7.76899 7.76875 9.48094 5.6569 9.48094Z" fill="white"/>
</svg>
