<svg width="15" height="8" viewBox="0 0 15 8" fill="none" xmlns="http://www.w3.org/2000/svg">
<path d="M14.0007 0.824674L13.2994 0.137502C13.2059 0.0457376 13.0983 0 12.9766 0C12.8552 0 12.7475 0.0457376 12.6541 0.137502L7.1407 5.53951L1.62755 0.137646C1.53405 0.0458822 1.42644 0.000144355 1.30488 0.000144355C1.18327 0.000144355 1.07567 0.0458822 0.98221 0.137646L0.280955 0.824867C0.187303 0.916438 0.140625 1.02188 0.140625 1.14103C0.140625 1.2601 0.187451 1.36553 0.280955 1.45711L6.81803 7.86259C6.91148 7.95421 7.01914 8 7.1407 8C7.26226 8 7.36972 7.95421 7.46312 7.86259L14.0007 1.45711C14.0942 1.36549 14.1406 1.26005 14.1406 1.14103C14.1406 1.02188 14.0942 0.916439 14.0007 0.824674Z" fill="black"/>
</svg>
