<svg width="18" height="18" viewBox="0 0 18 18" fill="none" xmlns="http://www.w3.org/2000/svg">
<path d="M13.9326 11.2077C12.883 11.2077 11.9434 11.6865 11.3199 12.437L7.26436 10.1344C7.39048 9.77952 7.4598 9.39792 7.4598 9.00024C7.4598 8.60263 7.39048 8.22103 7.26436 7.86613L11.3196 5.56297C11.943 6.31374 12.8828 6.7927 13.9325 6.7927C15.8047 6.7927 17.328 5.26891 17.328 3.39583C17.3281 1.52332 15.8049 0 13.9326 0C12.0601 0 10.5367 1.52332 10.5367 3.39576C10.5367 3.79344 10.6059 4.17512 10.7321 4.5301L6.67663 6.83334C6.05325 6.08297 5.1137 5.60432 4.06436 5.60432C2.1916 5.60432 0.667969 7.12764 0.667969 9.00016C0.667969 10.8726 2.1916 12.3959 4.06436 12.3959C5.1137 12.3959 6.05317 11.9173 6.67655 11.167L10.7321 13.4697C10.6059 13.8246 10.5366 14.2064 10.5366 14.6042C10.5366 16.4766 12.06 17.9999 13.9325 17.9999C15.8048 17.9999 17.328 16.4765 17.328 14.6042C17.3281 12.7314 15.8049 11.2077 13.9326 11.2077ZM13.9326 1.1883C15.1497 1.1883 16.1398 2.17854 16.1398 3.39576C16.1398 4.6136 15.1497 5.60432 13.9326 5.60432C12.7153 5.60432 11.725 4.6136 11.725 3.39576C11.725 2.17854 12.7153 1.1883 13.9326 1.1883ZM4.06444 11.2077C2.84691 11.2077 1.85634 10.2174 1.85634 9.00024C1.85634 7.78295 2.84691 6.7927 4.06444 6.7927C5.28149 6.7927 6.27158 7.78295 6.27158 9.00024C6.27158 10.2174 5.28141 11.2077 4.06444 11.2077ZM13.9326 16.8117C12.7153 16.8117 11.725 15.8214 11.725 14.6042C11.725 13.3866 12.7153 12.396 13.9326 12.396C15.1497 12.396 16.1398 13.3866 16.1398 14.6042C16.1398 15.8214 15.1497 16.8117 13.9326 16.8117Z" fill="#656A71"/>
</svg>
