<svg width="16" height="14" viewBox="0 0 16 14" fill="none" xmlns="http://www.w3.org/2000/svg">
<path fill-rule="evenodd" clip-rule="evenodd" d="M4.70439 13.452C10.9514 13.452 14.3684 8.276 14.3684 3.788C14.3684 3.641 14.3684 3.494 14.3584 3.349C14.9034 2.955 15.3874 2.483 15.7954 1.951C15.8284 1.905 15.8274 1.843 15.7924 1.798C15.7584 1.753 15.6994 1.736 15.6464 1.756C15.1484 1.938 14.6304 2.063 14.1024 2.125C14.7334 1.748 15.2224 1.177 15.5014 0.503C15.5164 0.464 15.5044 0.42 15.4734 0.393C15.4424 0.366 15.3974 0.361 15.3604 0.381C14.7584 0.705 14.1104 0.938 13.4394 1.071C12.7964 0.388 11.8994 0 10.9624 0C9.0974 0 7.56239 1.535 7.56239 3.4C7.56239 3.659 7.59239 3.917 7.65039 4.169C4.99139 4.035 2.50639 2.807 0.786393 0.783C0.755393 0.746 0.707394 0.727 0.659394 0.732C0.611394 0.737 0.568403 0.766 0.546403 0.809C-0.206597 2.324 0.277402 4.203 1.7014 5.154C1.3144 5.142 0.691394 4.951 0.368394 4.844C0.321394 4.828 0.2704 4.837 0.2314 4.867C0.1914 4.897 0.170402 4.945 0.173402 4.994C0.253402 5.673 0.665392 7.698 2.88539 8.101C2.45039 8.22 1.9974 8.251 1.5524 8.192C1.5094 8.186 1.46639 8.203 1.43939 8.236C1.41239 8.27 1.4054 8.315 1.4204 8.355C1.9184 9.629 3.1444 10.493 4.5244 10.519C3.7294 11.143 2.8104 11.58 1.8374 11.803C1.5194 11.876 0.7644 11.919 0.1904 11.933C0.1054 11.93 0.0293942 11.987 0.00639423 12.069C-0.0156058 12.152 0.0203987 12.239 0.0953987 12.281C1.5064 13.048 3.09039 13.452 4.70439 13.45" fill="white"/>
</svg>
