<svg width="20" height="14" viewBox="0 0 20 14" fill="none" xmlns="http://www.w3.org/2000/svg">
<path fill-rule="evenodd" clip-rule="evenodd" d="M4.18245 0.912037C2.41053 1.10179 1.03186 2.53912 0.917281 4.31837C0.861365 5.1947 0.832031 6.09029 0.832031 6.99962C0.832031 7.90895 0.861365 8.80454 0.917281 9.68087C1.03186 11.4601 2.41053 12.8975 4.18245 13.0863C6.02037 13.2724 7.97378 13.3723 9.9987 13.3723C12.0236 13.3723 13.977 13.2724 15.8149 13.0872C17.5869 12.8975 18.9655 11.4601 19.0801 9.68087C19.136 8.80454 19.1654 7.90895 19.1654 6.99962C19.1654 6.09029 19.136 5.1947 19.0801 4.31837C18.9655 2.53912 17.5869 1.10179 15.8149 0.912953C13.977 0.72687 12.0236 0.626953 9.9987 0.626953C7.97378 0.626953 6.02037 0.72687 4.18245 0.912037ZM8.30078 9.74474L12.8007 6.99932L8.30078 4.25391V9.74474Z" fill="white"/>
</svg>
