<svg width="24" height="24" fill="none" xmlns="http://www.w3.org/2000/svg"><g clip-path="url(#clip0_187_293)"><path fill-rule="evenodd" clip-rule="evenodd" d="M18.385 22.779a1.19 1.19 0 001.107.145 1.16 1.16 0 00.724-.84C21.085 18 23.193 7.663 23.984 3.948a.78.78 0 00-.26-.758.8.8 0 00-.797-.14C18.734 4.602 5.82 9.447.543 11.4a.827.827 0 00-.542.799c.012.354.25.66.593.764 2.367.708 5.474 1.693 5.474 1.693S7.52 19.04 8.277 21.27c.095.28.314.5.603.576a.866.866 0 00.811-.207l3.096-2.923s3.572 2.619 5.598 4.062zm-11.01-8.677l1.679 5.538.373-3.507 10.185-9.186a.277.277 0 00.033-.377.284.284 0 00-.376-.064L7.375 14.102z" fill="#fff"/></g><defs><clipPath id="clip0_187_293"><path fill="#fff" transform="translate(.001)" d="M0 0h24v24H0z"/></clipPath></defs></svg>