<svg width="16" height="12" viewBox="0 0 16 12" fill="none" xmlns="http://www.w3.org/2000/svg">
<path d="M2.1186 6.65837L2.11858 6.6584L4.91312 9.23716L13.8662 0.975387C13.8723 0.969625 13.8784 0.963968 13.8846 0.958416C13.8847 0.958392 13.8847 0.958367 13.8847 0.958343L14.051 1.14505L2.1186 6.65837ZM2.1186 6.65837L2.11537 6.65549M2.1186 6.65837L2.11537 6.65549M2.11537 6.65549C1.79606 6.37092 1.29399 6.37838 0.984498 6.67409C0.671833 6.97282 0.671833 7.45487 0.984502 7.75361L0.984476 7.75363M2.11537 6.65549L0.984476 7.75363M0.984476 7.75363L0.987664 7.75658M0.984476 7.75363L0.987664 7.75658M0.987664 7.75658L4.34766 10.8571L4.34769 10.8571M0.987664 7.75658L4.34769 10.8571M4.34769 10.8571C4.66213 11.1472 5.16414 11.1472 5.47856 10.8571L5.47858 10.8571M4.34769 10.8571L5.47858 10.8571M5.47858 10.8571L14.9971 2.07354L5.47858 10.8571Z" fill="#E49A00" stroke="#E49A00" stroke-width="0.5"/>
</svg>
