<svg width="18" height="18" viewBox="0 0 18 18" fill="none" xmlns="http://www.w3.org/2000/svg">
<path d="M13.4993 0.0037452L11.1651 0C8.54272 0 6.84803 1.73871 6.84803 4.42982V6.47227H4.50113C4.29833 6.47227 4.1341 6.63668 4.1341 6.83949V9.79876C4.1341 10.0016 4.29851 10.1658 4.50113 10.1658H6.84803V17.633C6.84803 17.8358 7.01226 18 7.21506 18H10.2771C10.4799 18 10.6441 17.8356 10.6441 17.633V10.1658H13.3882C13.591 10.1658 13.7552 10.0016 13.7552 9.79876L13.7564 6.83949C13.7564 6.74211 13.7176 6.64886 13.6489 6.57994C13.5802 6.51103 13.4865 6.47227 13.3891 6.47227H10.6441V4.74086C10.6441 3.90868 10.8424 3.48622 11.9265 3.48622L13.4989 3.48566C13.7015 3.48566 13.8657 3.32124 13.8657 3.11863V0.370775C13.8657 0.168347 13.7017 0.00411972 13.4993 0.0037452Z" fill="white"/>
</svg>
