<svg width="192" height="90" viewBox="0 0 192 90" fill="none" xmlns="http://www.w3.org/2000/svg">
<g clip-path="url(#clip0)">
<path d="M125.149 89.5054H87.2012L106.175 70.4175L125.149 89.5054Z" stroke="white" stroke-miterlimit="10"/>
<path d="M29.9846 75.6594C33.7853 75.6594 36.8664 72.5598 36.8664 68.7363C36.8664 64.9128 33.7853 61.8132 29.9846 61.8132C26.184 61.8132 23.1029 64.9128 23.1029 68.7363C23.1029 72.5598 26.184 75.6594 29.9846 75.6594Z" stroke="white" stroke-miterlimit="10"/>
<path d="M80.3195 57.7581V26.6043C80.3195 12.1647 91.9201 0.494385 106.273 0.494385C120.627 0.494385 132.227 12.1647 132.227 26.6043V57.7581H80.3195Z" stroke="white" stroke-miterlimit="10"/>
<path d="M174.772 37.2618V19.064L151.177 19.064V37.2618H174.772Z" stroke="white" stroke-miterlimit="10"/>
<path d="M174.721 62.1338V43.936L151.127 43.936V62.1338H174.721Z" stroke="white" stroke-miterlimit="10"/>
<path d="M191.485 37.2618V19.064L174.772 19.064V37.2618H191.485Z" stroke="white" stroke-miterlimit="10"/>
<path d="M191.434 62.1338V43.936H174.721V62.1338H191.434Z" stroke="white" stroke-miterlimit="10"/>
<path d="M59.9693 8.90112H0V57.3627H59.9693V8.90112Z" stroke="white" stroke-miterlimit="10"/>
<path d="M51.1213 20.7693H7.86482V30.6594H51.1213V20.7693Z" stroke="white" stroke-miterlimit="10"/>
<path d="M46.2058 45.4946H12.7803C10.0276 45.4946 7.86482 43.3188 7.86482 40.5495C7.86482 37.7803 10.0276 35.6045 12.7803 35.6045H46.2058C48.9585 35.6045 51.1213 37.7803 51.1213 40.5495C51.1213 43.3188 48.9585 45.4946 46.2058 45.4946Z" stroke="white" stroke-miterlimit="10"/>
<path d="M95.8525 26.2087H86.0215V36.0989H95.8525V26.2087Z" stroke="white" stroke-miterlimit="10"/>
<path d="M125.837 36.0989H99.5883V26.2087H123.773C124.952 26.2087 125.837 27.0989 125.837 28.2857V36.0989Z" stroke="white" stroke-miterlimit="10"/>
<path d="M120.922 50.9341H90.937C88.1843 50.9341 86.0215 48.7582 86.0215 45.989C86.0215 43.2198 88.1843 41.0439 90.937 41.0439H120.922C123.674 41.0439 125.837 43.2198 125.837 45.989C125.837 48.7582 123.674 50.9341 120.922 50.9341Z" stroke="white" stroke-miterlimit="10"/>
</g>
<defs>
<clipPath id="clip0">
<rect width="192" height="90" fill="white"/>
</clipPath>
</defs>
</svg>
