<svg width="337" height="81" viewBox="0 0 337 81" fill="none" xmlns="http://www.w3.org/2000/svg">
<path d="M31.3168 6.38184L62.0419 35.6197H0.5L31.3168 6.38184Z" stroke="white" stroke-miterlimit="10" stroke-linejoin="round"/>
<path d="M211.907 42.5811H157.427L184.667 16.7368L211.907 42.5811Z" stroke="white" stroke-miterlimit="10" stroke-linejoin="round"/>
<path d="M203.011 79.1285L164.49 42.5811H203.011V79.1285Z" stroke="white" stroke-miterlimit="10"/>
<path d="M299.533 44.5304L263.067 9.93213H299.533V44.5304Z" stroke="white" stroke-miterlimit="10"/>
<path d="M336 44.5304L299.533 9.93213H336V44.5304Z" stroke="white" stroke-miterlimit="10"/>
<path d="M336 79.1285L299.533 44.5303H336V79.1285Z" stroke="white" stroke-miterlimit="10"/>
<path d="M251.621 80L167.698 0.377441" stroke="white" stroke-miterlimit="10"/>
<path d="M53.9709 79.9988H282.346" stroke="white" stroke-miterlimit="10"/>
<path d="M281.887 79.999C290.498 79.999 297.479 73.376 297.479 65.2061C297.479 57.0361 290.498 50.4131 281.887 50.4131C273.276 50.4131 266.295 57.0361 266.295 65.2061C266.295 73.376 273.276 79.999 281.887 79.999Z" stroke="white" stroke-miterlimit="10"/>
<path d="M54.4295 35.6196H7.65395V79.9988H54.4295V35.6196Z" stroke="white" stroke-miterlimit="10"/>
<path d="M106.158 36.49H89.2819V57.3744H106.158V36.49Z" stroke="white" stroke-miterlimit="10"/>
<path d="M129.27 36.49H112.394V57.3744H129.27V36.49Z" stroke="white" stroke-miterlimit="10"/>
<path d="M106.158 21.697H89.2819V36.49H106.158V21.697Z" stroke="white" stroke-miterlimit="10"/>
<path d="M129.27 21.697H112.394V36.49H129.27V21.697Z" stroke="white" stroke-miterlimit="10"/>
<path d="M161.738 38.6653V22.5669H169.075V31.7038" stroke="white" stroke-miterlimit="10"/>
<path d="M250.245 30.3985H222.73C219.978 30.3985 217.685 28.2231 217.685 25.6127C217.685 23.0023 219.978 20.8269 222.73 20.8269H250.245C252.996 20.8269 255.289 23.0023 255.289 25.6127C255.289 28.2231 253.088 30.3985 250.245 30.3985Z" stroke="white" stroke-miterlimit="10"/>
</svg>
