<svg width="344" height="91" viewBox="0 0 344 91" fill="none" xmlns="http://www.w3.org/2000/svg">
<path d="M48.4569 44.0492H2L48.4569 1.18066V44.0492Z" stroke="white" stroke-miterlimit="10"/>
<path d="M48.4569 44.0491H25.962V90.0759H48.4569V44.0491Z" stroke="white" stroke-miterlimit="10"/>
<path d="M179.025 38.9046L137.948 1H179.025V38.9046Z" stroke="white" stroke-miterlimit="10"/>
<path d="M220.103 38.9046L179.025 1H220.103V38.9046Z" fill="white" stroke="white" stroke-miterlimit="10"/>
<path d="M179.025 76.5391L137.948 38.6345H179.025V76.5391Z" stroke="white" stroke-miterlimit="10"/>
<path d="M137.948 38.9046L96.8699 1H137.948V38.9046Z" stroke="white" stroke-miterlimit="10"/>
<path d="M137.948 76.5391L96.8699 38.6345H137.948V76.5391Z" stroke="white" stroke-miterlimit="10"/>
<path d="M220.103 76.5391L179.025 38.6345H220.103V76.5391Z" stroke="white" stroke-miterlimit="10"/>
<path d="M261.181 38.9046L220.103 1H261.181V38.9046Z" stroke="white" stroke-miterlimit="10"/>
<path d="M261.181 76.5391L220.103 38.6345H261.181V76.5391Z" stroke="white" stroke-miterlimit="10"/>
<path d="M302.258 38.9046L261.181 1H302.258V38.9046Z" stroke="white" stroke-miterlimit="10"/>
<path d="M302.258 76.5391L261.181 38.6345H302.258V76.5391Z" stroke="white" stroke-miterlimit="10"/>
<path d="M343.336 38.9046L302.258 1H343.336V38.9046Z" stroke="white" stroke-miterlimit="10"/>
<path d="M343.336 76.5391L302.258 38.6345H343.336V76.5391Z" stroke="white" stroke-miterlimit="10"/>
<path d="M48.4569 77.4409H342.847" stroke="white" stroke-miterlimit="10"/>
</svg>
