<svg width="340" height="90" viewBox="0 0 340 90" fill="none" xmlns="http://www.w3.org/2000/svg">
<g clip-path="url(#clip0)">
<path d="M326.975 29.7894H304.518L315.746 18.0542L326.975 29.7894Z" stroke="white" stroke-miterlimit="10"/>
<path d="M326.975 55.0653H304.518L315.746 43.3301L326.975 55.0653Z" stroke="white" stroke-miterlimit="10"/>
<path d="M326.975 42.4273H304.518L315.746 30.6921L326.975 42.4273Z" stroke="white" stroke-miterlimit="10"/>
<path d="M326.975 67.703H304.518L315.746 55.9678L326.975 67.703Z" stroke="white" stroke-miterlimit="10"/>
<path d="M279.905 0.451416C279.905 11.5547 270.922 20.5818 259.873 20.5818C248.824 20.5818 239.841 11.5547 239.841 0.451416" stroke="white" stroke-miterlimit="10"/>
<path d="M160.793 0H126.658V25.2758H160.793V0Z" stroke="white" stroke-miterlimit="10"/>
<path d="M169.518 73.8916L184.89 89.3386L239.578 34.3806L224.207 18.9336L169.518 73.8916Z" stroke="white" stroke-miterlimit="10"/>
<path d="M184.889 89.368L200.25 73.9317L170.337 43.8715C166.115 39.6288 159.198 39.6288 154.976 43.8715C150.754 48.1142 150.754 55.0651 154.976 59.3078L184.889 89.368Z" stroke="white" stroke-miterlimit="10"/>
<path d="M134.742 15.7542L137.637 18.6628L147.924 8.32481L145.03 5.41614L134.742 15.7542Z" fill="white" stroke="white" stroke-miterlimit="10"/>
<path d="M137.283 18.9568L140.132 16.0622L134.578 10.5184C133.806 9.73345 132.55 9.73345 131.729 10.5184C130.956 11.3034 130.956 12.5789 131.729 13.413L137.283 18.9568Z" fill="white" stroke="white" stroke-miterlimit="10"/>
<path d="M271.281 63.641H207.952C205.258 63.641 203.012 61.3842 203.012 58.6761C203.012 55.968 205.258 53.7112 207.952 53.7112H271.281C273.976 53.7112 276.222 55.968 276.222 58.6761C276.222 61.3842 273.976 63.641 271.281 63.641Z" stroke="white" stroke-miterlimit="10"/>
<path d="M271.281 44.6842H223.313C220.618 44.6842 218.372 42.4274 218.372 39.7193C218.372 37.0112 220.618 34.7544 223.313 34.7544H271.281C273.976 34.7544 276.222 37.0112 276.222 39.7193C276.222 42.4274 273.976 44.6842 271.281 44.6842Z" stroke="white" stroke-miterlimit="10"/>
<path d="M290.145 0.451416V89.8195" stroke="white" stroke-miterlimit="10"/>
</g>
<defs>
<clipPath id="clip0">
<rect width="340" height="90" fill="white"/>
</clipPath>
</defs>
</svg>
