<svg width="75" height="42" viewBox="0 0 75 42" fill="none" xmlns="http://www.w3.org/2000/svg">
<path d="M3.95283 0.491778V5.11691H4.53039V0.053833H3.60176L0.634689 4.73237V0.053833H0.0571289V5.11691H0.97443L3.95283 0.491778Z" fill="white"/>
<path d="M5.84355 2.78862H8.90122V5.11721H9.47878V0.0648193H8.90122V2.29727H5.84355V0.0648193H5.26599V5.11721H5.84355V2.78862Z" fill="white"/>
<path d="M10.4413 4.68922C10.5999 4.8708 10.8037 4.99898 11.0642 5.06307C11.3247 5.13784 11.6644 5.16989 12.0721 5.16989C12.6157 5.16989 13.046 5.11648 13.3405 5.00966C13.6349 4.90285 13.8387 4.72126 13.9633 4.47559C14.0879 4.22991 14.1445 3.87742 14.1445 3.42879H13.5783C13.5783 3.68515 13.5556 3.89878 13.5103 4.059C13.465 4.21923 13.3971 4.33672 13.2838 4.43286C13.1819 4.52899 13.0234 4.59308 12.8308 4.62513C12.6383 4.65717 12.3892 4.67854 12.0721 4.67854C11.755 4.67854 11.5059 4.64649 11.3247 4.59308C11.1321 4.53967 10.9849 4.43286 10.8717 4.294C10.7584 4.14446 10.6791 3.94151 10.6339 3.67447C10.5886 3.40743 10.5659 3.05493 10.5659 2.60631C10.5659 2.15768 10.5886 1.80519 10.6339 1.52747C10.6791 1.26043 10.7584 1.0468 10.8717 0.897253C10.9849 0.747711 11.1321 0.640895 11.3247 0.576806C11.5172 0.523398 11.7663 0.491353 12.0721 0.491353C12.4798 0.491353 12.7742 0.523398 12.9667 0.598169C13.1593 0.662258 13.2838 0.779756 13.3518 0.929298C13.4197 1.07884 13.465 1.32452 13.5103 1.65565L14.0766 1.66633C14.0539 1.35656 14.0199 1.1002 13.9633 0.897253C13.9067 0.694303 13.8048 0.534079 13.6689 0.395219C13.533 0.256358 13.3291 0.160224 13.08 0.0961343C12.8195 0.0320448 12.4911 0 12.0721 0C11.6644 0 11.3247 0.0320448 11.0642 0.106816C10.8037 0.181587 10.5886 0.309766 10.43 0.502035C10.2715 0.683622 10.1582 0.950661 10.0903 1.29247C10.0223 1.63428 9.98834 2.07223 9.98834 2.60631C9.98834 3.15107 10.0223 3.58901 10.0903 3.92014C10.1809 4.25127 10.2941 4.50763 10.4413 4.68922Z" fill="white"/>
<path d="M15.8433 5.11691H16.4208V0.566549H18.1082L18.1195 0.053833H14.1332V0.566549H15.8433V5.11691Z" fill="white"/>
<path d="M22.3323 0.491778V5.11691H22.9098V0.053833H21.9812L19.0255 4.73237V0.053833H18.4366V5.11691H19.3652L22.3323 0.491778Z" fill="white"/>
<path d="M24.937 5.11691H25.5259V0.566549H27.2133L27.2246 0.0965594L29.1272 4.15556C29.0705 4.33715 28.9913 4.46533 28.9007 4.52942C28.8101 4.59351 28.6855 4.62555 28.5043 4.62555H28.1646V5.11691H28.7081C29.1385 5.11691 29.4669 4.84987 29.6821 4.32647L31.4714 0.149967V0.566549H33.1814V5.11691H33.7703V0.566549H35.4463L35.4577 0.053833H31.5167H31.4714H30.9165L29.4443 3.56808L27.8248 0.053833H27.2133H27.1906H23.227V0.566549H24.937V5.11691Z" fill="white"/>
<path d="M39.8403 5.11691H40.4292V0.566549H42.1166V0.053833H38.1303V0.566549H39.8403V5.11691Z" fill="white"/>
<path d="M43.1019 3.14081H44.6533C45.0837 3.14081 45.4234 3.0874 45.6726 2.99127C45.9217 2.88445 46.1142 2.72423 46.2275 2.47855C46.3407 2.24356 46.3973 1.92311 46.3973 1.50653C46.3973 1.1754 46.352 0.897678 46.2501 0.684047C46.1482 0.470415 46.001 0.310191 45.7858 0.203375C45.582 0.0965594 45.3215 0.053833 45.0157 0.053833H42.5243V5.11691H43.1019V3.14081ZM43.1019 0.555868H44.9365C45.2649 0.555868 45.5027 0.630639 45.6273 0.790863C45.7518 0.951086 45.8198 1.21813 45.8198 1.61334C45.8198 1.91243 45.7745 2.12606 45.6839 2.2756C45.5933 2.42515 45.4574 2.52128 45.2762 2.56401C45.095 2.60673 44.8345 2.63878 44.4948 2.63878H43.1132V0.555868H43.1019Z" fill="white"/>
<path d="M50.2931 4.61487H47.5298V2.77764H50.1798V2.28628H47.5298V0.555868H50.3157V0.053833H46.9523V5.11691H50.2931V4.61487Z" fill="white"/>
<path d="M51.4934 2.78862H54.5398V5.11721H55.1173V0.0648193H54.5398V2.29727H51.4934V0.0648193H50.9045V5.11721H51.4934V2.78862Z" fill="white"/>
<path d="M59.7944 0.491778V5.11691H60.372V0.053833H59.4434L56.4763 4.73237V0.053833H55.8987V5.11691H56.816L59.7944 0.491778Z" fill="white"/>
<path d="M61.7649 2.78862H64.8113V5.11721H65.3888V0.0648193H64.8113V2.29727H61.7649V0.0648193H61.1874V5.11721H61.7649V2.78862Z" fill="white"/>
<path d="M66.7705 0.566549H69.4091V0.053833H66.1816V5.11691H66.7705V0.566549Z" fill="white"/>
<path d="M70.5076 4.08079H73.1463L73.5313 5.12759H74.1542L72.2063 0.053833H71.3683L69.4658 5.1169H70.0886L70.5076 4.08079ZM71.7986 0.470415L72.9538 3.57876H70.6435L71.7986 0.470415Z" fill="white"/>
<path d="M0.0913696 7.98983H1.83537V12.615H2.43558V7.98983H4.16826V7.46643H0.0913696V7.98983Z" fill="white"/>
<path d="M7.32708 7.46643H4.79034V12.615H5.37923V10.5534H7.19118C7.429 10.5534 7.6102 10.5855 7.76874 10.6389C7.91596 10.6923 8.02921 10.7884 8.10848 10.9166C8.18776 11.0448 8.22173 11.2263 8.22173 11.4507V12.615H8.82194V11.3118C8.82194 10.6923 8.53882 10.3611 7.98391 10.3291C8.25571 10.2757 8.45955 10.1902 8.59545 10.0727C8.73134 9.94456 8.81062 9.8057 8.84459 9.63479C8.87856 9.46389 8.90121 9.25025 8.90121 8.97253C8.90121 8.43845 8.76532 8.05392 8.51617 7.81892C8.25571 7.58393 7.85934 7.46643 7.32708 7.46643ZM8.16511 9.69888C8.08583 9.83774 7.96126 9.93388 7.80272 9.98728C7.63285 10.0407 7.41768 10.0621 7.12323 10.0621H5.37923V7.97915H7.32708C7.55357 7.97915 7.73477 8.02187 7.88199 8.09664C8.02921 8.17142 8.13113 8.29959 8.18776 8.45982C8.25571 8.62004 8.28968 8.83367 8.28968 9.10071C8.28968 9.35707 8.24438 9.56002 8.16511 9.69888Z" fill="white"/>
<path d="M11.4153 7.46643L9.46747 12.615H10.113L10.5433 11.5575H13.2386L13.635 12.615H14.2691L12.276 7.46643H11.4153ZM10.6792 11.0554L11.857 7.89369L13.0461 11.0554H10.6792Z" fill="white"/>
<path d="M15.5375 7.46643H14.926V12.6043H15.5375V7.46643Z" fill="white"/>
<path d="M20.509 12.177L17.4967 7.46643H16.5567V12.615H17.1456V7.95778L20.158 12.615H21.0979V7.46643H20.509V12.177Z" fill="white"/>
<path d="M22.706 7.46643H22.0945V12.6043H22.706V7.46643Z" fill="white"/>
<path d="M27.6776 12.1663L24.6652 7.46643H23.7253V12.615H24.3142V7.95778L27.3379 12.615H28.2778V7.46643H27.6776V12.1663Z" fill="white"/>
<path d="M31.2109 10.4039H32.9209V10.5855C32.9209 11.002 32.8756 11.3225 32.785 11.5468C32.6944 11.7711 32.5359 11.9313 32.3094 12.0275C32.0829 12.1236 31.7545 12.1663 31.3128 12.1663C30.9844 12.1663 30.7126 12.1343 30.5201 12.0809C30.3162 12.0275 30.1577 11.9207 30.0444 11.7711C29.9312 11.6216 29.8406 11.4079 29.7953 11.1409C29.75 10.8739 29.716 10.5107 29.716 10.0514C29.716 9.59207 29.7387 9.22889 29.7953 8.96186C29.8406 8.68413 29.9312 8.4705 30.0444 8.32096C30.1577 8.17142 30.3162 8.0646 30.5201 8.00051C30.7239 7.9471 30.9844 7.91506 31.3241 7.91506C31.7771 7.91506 32.1055 7.9471 32.3207 8.00051C32.5359 8.05392 32.6831 8.16074 32.7624 8.31028C32.8416 8.45982 32.8983 8.67345 32.9209 8.97254H33.4985C33.4645 8.56664 33.3966 8.25687 33.2946 8.04324C33.1927 7.82961 32.9889 7.66938 32.6831 7.56257C32.3887 7.45575 31.9357 7.40234 31.3241 7.40234C30.8825 7.40234 30.5201 7.44507 30.237 7.5412C29.9538 7.62666 29.7387 7.7762 29.5688 7.97915C29.4103 8.1821 29.2857 8.44914 29.2291 8.78027C29.1611 9.1114 29.1271 9.53866 29.1271 10.0514C29.1271 10.5641 29.1611 10.9914 29.2291 11.3225C29.297 11.6536 29.4103 11.9207 29.5688 12.1129C29.7273 12.3052 29.9538 12.4547 30.237 12.5402C30.5201 12.6256 30.8825 12.6684 31.3355 12.6684C31.7771 12.6684 32.1282 12.6363 32.4113 12.5722C32.6944 12.5081 32.9096 12.3906 33.0681 12.2411C33.2267 12.0809 33.3513 11.8672 33.4192 11.5895C33.4871 11.3118 33.5211 10.9486 33.5211 10.5V9.90183H31.2109V10.4039Z" fill="white"/>
<path d="M39.9422 7.46643H39.3307V12.6043H39.9422V7.46643Z" fill="white"/>
<path d="M44.9138 12.1663L41.9014 7.46643H40.9615V12.615H41.5504V7.95778L44.5627 12.615H45.5027V7.46643H44.9138V12.1663Z" fill="white"/>
<path d="M49.5343 9.89121C49.2965 9.80576 48.9794 9.76303 48.5717 9.74167C48.0847 9.72031 47.7223 9.67758 47.4958 9.62417C47.258 9.57077 47.0995 9.48531 47.0089 9.35713C46.9183 9.23964 46.873 9.05805 46.873 8.81237C46.873 8.57738 46.9069 8.39579 46.9862 8.26761C47.0542 8.13943 47.1901 8.05398 47.3939 7.98989C47.5864 7.93648 47.8922 7.90444 48.2772 7.90444C48.5604 7.90444 48.7868 7.9258 48.9567 7.95785C49.1266 7.98989 49.2512 8.0433 49.3531 8.11807C49.4437 8.19284 49.5116 8.28898 49.5456 8.40647C49.5796 8.53465 49.6022 8.68419 49.6022 8.88714H50.1911L50.1798 8.81237C50.1798 8.42784 50.1118 8.13943 49.9646 7.93648C49.8174 7.73353 49.6136 7.59467 49.3418 7.5199C49.07 7.44513 48.7189 7.41309 48.2886 7.41309C47.9262 7.41309 47.6317 7.44513 47.3826 7.48786C47.1334 7.54126 46.9296 7.62672 46.7711 7.73353C46.6125 7.85103 46.4993 7.98989 46.42 8.17148C46.3407 8.35307 46.3067 8.57738 46.3067 8.83374C46.3067 9.12214 46.352 9.35714 46.4313 9.53872C46.5219 9.72031 46.6465 9.85917 46.805 9.96599C46.9749 10.0621 47.1787 10.1369 47.4166 10.1796C47.6544 10.2223 47.9488 10.2544 48.2999 10.2758C48.7076 10.2864 49.002 10.3078 49.1945 10.3612C49.3871 10.4146 49.523 10.5001 49.5909 10.6282C49.6588 10.7564 49.6928 10.938 49.6928 11.173C49.6928 11.3653 49.6815 11.5255 49.6475 11.6323C49.6136 11.7498 49.5569 11.8459 49.4663 11.9207C49.3757 11.9955 49.2285 12.0489 49.0473 12.0916C48.8548 12.1237 48.617 12.145 48.2999 12.145C47.9488 12.145 47.6884 12.1343 47.5072 12.113C47.326 12.0916 47.1901 12.0382 47.0995 11.9634C47.0089 11.8887 46.9409 11.7819 46.9069 11.643C46.873 11.4935 46.8616 11.2905 46.8616 11.0128H46.2728V11.2585C46.2728 11.675 46.352 11.9848 46.5106 12.1771C46.6691 12.38 46.8843 12.5082 47.1561 12.5616C47.4279 12.615 47.8129 12.6471 48.2999 12.6471C48.6849 12.6471 49.002 12.6257 49.2512 12.5723C49.5003 12.5296 49.7041 12.4441 49.8627 12.3266C50.0212 12.2091 50.1232 12.0596 50.2024 11.8673C50.2704 11.675 50.3044 11.4187 50.3044 11.1089C50.3044 10.7564 50.2364 10.4787 50.1118 10.2864C49.9646 10.1155 49.7834 9.97667 49.5343 9.89121Z" fill="white"/>
<path d="M50.5761 7.98983H52.3201V12.615H52.9203V7.98983H54.653V7.46643H50.5761V7.98983Z" fill="white"/>
<path d="M55.8874 7.46643H55.2759V12.6043H55.8874V7.46643Z" fill="white"/>
<path d="M56.4537 7.98983H58.209V12.615H58.8092V7.98983H60.5419V7.46643H56.4537V7.98983Z" fill="white"/>
<path d="M64.8113 11.0768C64.8113 11.4079 64.7773 11.6429 64.6981 11.7818C64.6301 11.9313 64.4829 12.0275 64.2791 12.0809C64.0752 12.1343 63.7468 12.1556 63.2938 12.1556C62.8408 12.1556 62.5124 12.1343 62.3199 12.0809C62.116 12.0275 61.9801 11.9313 61.9009 11.7818C61.8216 11.6322 61.7876 11.3973 61.7876 11.0768V7.46643H61.1987V11.0875C61.1987 11.4507 61.244 11.7497 61.3346 11.9634C61.4252 12.177 61.5611 12.3372 61.731 12.444C61.9009 12.5402 62.116 12.6043 62.3538 12.6363C62.5917 12.6684 62.8974 12.679 63.2938 12.679C63.8374 12.679 64.2451 12.647 64.5282 12.5936C64.8113 12.5295 65.0265 12.3906 65.185 12.1663C65.3436 11.942 65.4115 11.5788 65.4115 11.0982V7.46643H64.8226V11.0768H64.8113Z" fill="white"/>
<path d="M66.0004 7.98983H67.7557V12.615H68.3559V7.98983H70.0886V7.46643H66.0004V7.98983Z" fill="white"/>
<path d="M70.7001 12.615H74.1315V12.1022H71.289V10.233H74.0069V9.73093H71.289V7.96846H74.1428V7.46643H70.7001V12.615Z" fill="white"/>
<path d="M74.2334 5.85352H0V6.33419H74.2334V5.85352Z" fill="white"/>
<path d="M27.1113 16.9303H26.296V17.6994V40.9318V41.7009H27.1113H47.1334H47.9488V40.9318V17.6994V16.9303H47.1334H27.1113ZM34.597 36.4776L30.7579 40.9425H27.1113V21.6622H30.4182V37.0971L34.597 32.1622V36.4776ZM38.7984 40.9425H35.4237V21.6622H38.7984V40.9425ZM47.1447 40.9425H43.8039V25.561L39.6251 30.4959V26.1912L43.5095 21.6729H47.1447V40.9425ZM47.1447 20.8932H35.4237H34.6083H27.1227V17.7101H47.1447V20.8932Z" fill="white"/>
</svg>
