<svg width="40" height="39" viewBox="0 0 40 39" fill="none" xmlns="http://www.w3.org/2000/svg">
<g clip-path="url(#clip0)">
<path fill-rule="evenodd" clip-rule="evenodd" d="M19.7436 35.1004C19.7436 38.0904 20 38.0904 22.3077 38.0904C23.0769 38.0904 23.4615 37.7004 23.9744 37.9604C23.8462 38.6104 23.8462 38.0904 23.4615 38.6104C23.5897 38.7404 23.5897 38.7404 23.718 39.0004C25.1282 38.2204 24.4872 37.5704 24.1026 37.3104C23.8462 37.1804 23.5897 37.1804 23.4615 37.1804V33.1504H22.8205V37.4404C21.6667 37.4404 21.9231 37.8304 21.9231 33.1504C21.4103 33.1504 21.2821 33.1504 21.2821 33.6704V37.4404C19.8718 37.3104 20.5128 33.5404 20.641 33.1504H19.8718C19.8718 33.9304 19.7436 34.1904 19.7436 35.1004Z" fill="white"/>
<path fill-rule="evenodd" clip-rule="evenodd" d="M30.1282 35.6204C30.1282 36.2704 30.2564 36.9204 30.641 37.4404C31.7949 38.6104 34.2308 38.2204 34.2308 35.8804C34.2308 34.8404 33.7179 34.0604 32.6923 34.0604C32.4359 34.0604 31.6667 34.0604 31.6667 34.5804C31.4103 35.2304 32.3077 34.4504 32.5641 34.4504C34.359 34.4504 33.8462 37.4404 32.4359 37.4404C31.4103 37.4404 30.7692 37.1804 30.7692 35.7504C30.7692 34.4504 31.9231 32.7604 34.1026 34.3204L34.4872 33.8004C33.7179 33.4104 33.4615 33.1504 32.4359 33.1504C31.1538 33.1504 30.1282 34.3204 30.1282 35.6204Z" fill="white"/>
<path fill-rule="evenodd" clip-rule="evenodd" d="M12.9487 36.9204C12.9487 36.1404 13.0769 34.7104 13.5897 34.1904C13.8461 33.6704 13.7179 33.8004 14.359 33.8004C14.8718 36.0104 14.7436 34.3204 14.7436 37.4404C13.8461 37.1804 13.9743 37.3104 12.9487 37.3104V36.9204ZM12.3077 37.4404C11.7949 37.4404 11.6667 37.4404 11.6667 37.9604C12.1795 38.2204 12.5641 37.9604 13.2051 37.9604C14.1026 37.9604 15.3846 38.3504 15.7692 38.0904V37.5704H15.3846C15.3846 36.0104 15.5128 33.1504 14.1026 33.1504C12.6923 33.1504 12.3077 35.8804 12.3077 37.4404Z" fill="white"/>
<path fill-rule="evenodd" clip-rule="evenodd" d="M11.7949 29.1204C11.7949 29.7704 11.5385 31.5904 12.5641 31.5904C13.3333 31.5904 13.9743 30.6804 14.4872 30.1604C14.4872 30.8104 14.359 30.5504 14.359 31.5904C15.3846 31.5904 15.1282 31.5904 15.1282 29.2504C15.1282 28.2104 15.2564 27.6904 15.2564 26.6504H14.4872C14.4872 27.5604 14.6154 28.9904 14.1026 29.7704C13.5897 30.6804 12.3077 31.4604 12.3077 29.9004C12.3077 29.2504 12.3077 28.8604 12.4359 28.2104C12.5641 27.6904 12.6923 27.3004 12.6923 26.6504H12.0513C12.0513 27.4304 11.7949 28.0804 11.7949 29.1204Z" fill="white"/>
<path fill-rule="evenodd" clip-rule="evenodd" d="M5.51282 34.3204V38.0904H6.28205L6.15384 35.6204C8.20512 35.1004 8.46153 36.2704 7.6923 37.4404C6.53846 37.4404 6.79487 37.0504 6.41025 37.8304C9.10256 39.1304 9.61538 34.8404 7.05128 34.8404C6.66666 34.8404 6.41025 34.9704 6.15384 35.1004C6.15384 34.3204 6.28205 34.1904 6.28205 33.6704C7.43589 33.6704 7.82051 34.1904 7.94871 33.2804C6.66666 33.2804 5.51282 32.5004 5.51282 34.3204Z" fill="white"/>
<path fill-rule="evenodd" clip-rule="evenodd" d="M38.2051 27.1704C38.4615 27.5604 38.7179 28.3404 38.7179 28.9904H36.9231C37.4359 28.0804 37.1795 27.6904 38.2051 27.1704ZM35.5128 31.5904H36.1538C36.4103 31.0704 36.5385 29.5104 37.0513 29.5104H38.8462C38.8462 30.2904 38.9744 30.6804 38.9744 31.5904H39.6154C39.6154 30.6804 39.4872 30.2904 39.4872 29.3804C40 29.3804 39.8718 29.5104 40 28.9904C39.7436 28.6004 39.8718 28.7304 39.359 28.8604C39.2308 28.0804 38.9744 26.6504 38.0769 26.6504C36.7949 26.6504 35.641 30.8104 35.5128 31.5904Z" fill="white"/>
<path fill-rule="evenodd" clip-rule="evenodd" d="M2.69231 27.1707C2.94872 27.6907 3.20513 28.2107 3.20513 28.9907H1.53846C1.66667 28.2107 2.05128 27.5607 2.69231 27.1707ZM0 31.5907H0.769231C0.769231 31.3307 1.02564 29.5107 1.53846 29.5107H3.33333L3.46154 31.5907H4.10256L3.97436 29.3807C4.61539 29.3807 4.23077 29.5107 4.48718 29.1207C4.23077 28.6007 4.35897 28.7307 3.84615 28.8607C3.71795 26.7807 2.4359 25.2207 0.897436 28.7307C0.512821 29.5107 0.25641 30.6807 0 31.5907Z" fill="white"/>
<path fill-rule="evenodd" clip-rule="evenodd" d="M9.61539 28.4703C9.48718 28.0803 9.23077 27.6903 9.10256 27.3003C8.84615 26.7803 8.84615 26.6503 8.07692 26.6503C8.71795 27.9503 9.35898 28.8603 8.97436 29.5103C8.84615 29.9003 8.84615 29.9003 8.58974 30.1603C8.46154 30.5503 8.33333 30.6803 8.20513 30.9403C7.94872 31.4603 7.69231 31.8503 7.4359 32.3703H8.20513C8.33333 31.8503 8.58974 31.4603 8.84615 30.9403C9.23077 30.5503 9.35898 30.0303 9.74359 29.7703L10.641 31.3303C10.8974 31.7203 10.641 31.5903 11.2821 31.5903C11.1538 31.0703 10.3846 29.6403 10 29.1203C10.2564 28.6003 10.641 28.2103 10.8974 27.6903C11.2821 26.9103 11.7949 26.7803 11.7949 26.1303C11.2821 26.0003 11.4103 26.0003 10.641 27.0403L9.61539 28.4703Z" fill="white"/>
<path fill-rule="evenodd" clip-rule="evenodd" d="M34.4872 28.9904H33.5897V27.3004C34.2308 27.3004 35 27.0404 35.3846 27.6904C35.7692 28.2104 35.2564 28.9904 34.4872 28.9904ZM32.9487 26.7804L32.8205 31.5904H33.4615L33.5897 29.5104C35.5128 29.6404 36.0256 29.2504 36.0256 27.6904C36.0256 26.9104 34.7436 26.6504 33.8462 26.6504C33.4615 26.6504 33.3333 26.7804 32.9487 26.7804Z" fill="white"/>
<path fill-rule="evenodd" clip-rule="evenodd" d="M22.4359 27.9504C22.4359 28.3404 21.9231 28.4704 21.9231 28.8604C21.9231 29.6404 22.3077 29.5104 22.3077 30.2904C22.4359 31.4604 21.7949 31.5904 22.9487 31.5904V30.6804C23.8462 30.9404 23.9744 32.1104 25.5128 31.3304C25.2564 31.0704 25.3846 31.2004 25.2564 30.8104C24.4872 30.9404 24.359 31.0704 23.5897 30.4204C22.8205 29.6404 22.9487 29.9004 22.9487 28.7304C22.9487 28.0804 24.7436 27.5604 25.1282 27.0404C25 26.9104 25 26.9104 25 26.6504C24.4872 26.7804 23.4615 27.5604 22.9487 27.8204C22.9487 26.7804 23.3333 26.6504 22.4359 26.6504V27.9504Z" fill="white"/>
<path fill-rule="evenodd" clip-rule="evenodd" d="M8.84616 33.5404C8.84616 34.9704 9.48719 36.0104 10.8974 36.0104C10.7692 36.4004 10.5128 37.0504 10.1282 37.3104C9.35898 37.9604 9.23078 36.7904 8.97437 37.8304C11.4103 39.0004 12.0513 34.8404 12.0513 33.1504H11.4103C11.4103 33.5404 11.2821 35.3604 10.8974 35.3604C9.61539 35.3604 9.48719 34.0604 9.48719 33.1504H8.84616V33.5404Z" fill="white"/>
<path fill-rule="evenodd" clip-rule="evenodd" d="M6.53846 28.9906H5.51282C5.51282 28.2106 5.64103 27.9506 5.64103 27.3006C6.79487 27.1706 7.4359 27.1706 7.4359 28.0806C7.4359 28.7306 7.17949 28.9906 6.53846 28.9906ZM5 26.7806L4.8718 30.6806C4.8718 31.5906 4.61539 31.5906 5.51282 31.5906V29.5106C6.15385 29.5106 8.07692 29.7706 8.07692 28.0806C8.07692 26.2606 5.64103 26.6506 5 26.7806Z" fill="white"/>
<path fill-rule="evenodd" clip-rule="evenodd" d="M16.1538 33.9307C16.1538 35.1007 17.0513 36.0107 18.0769 36.0107C18.0769 36.4007 17.8205 36.9207 17.5641 37.1807C17.1795 37.7007 16.9231 37.5707 16.4102 37.3107L16.1538 37.8307C17.0513 38.0907 17.9487 38.7407 18.7179 36.1407C18.9744 35.3607 19.2308 34.0607 19.359 33.1507C18.7179 33.1507 18.4615 33.0207 18.3333 35.3607C17.0513 35.3607 16.6667 34.4507 16.6667 33.1507H16.1538V33.9307Z" fill="white"/>
<path fill-rule="evenodd" clip-rule="evenodd" d="M29.2308 27.6904C29.2308 28.4704 30 29.5104 31.1539 29.5104C31.1539 30.1604 30.5128 31.0704 30.1282 31.0704C29.4872 31.0704 29.359 30.5504 29.2308 31.4604L30.2564 31.5904C31.6667 31.8504 32.3077 28.0804 32.4359 26.6504C31.6667 26.6504 31.6667 26.7804 31.6667 27.5604C31.5385 27.8204 31.4103 28.6004 31.4103 28.9904C30 28.9904 29.7436 28.0804 29.7436 26.6504H29.2308V27.6904Z" fill="white"/>
<path fill-rule="evenodd" clip-rule="evenodd" d="M26.1538 38.0904C26.5385 38.0904 27.0513 37.8304 27.3077 37.7004L27.1795 37.1804C26.5385 37.5704 26.282 37.4404 25.5128 37.3104C25.2564 36.4004 25.3846 36.6604 25.3846 35.6204H26.6667V35.1004H25.3846C25.3846 33.1504 25.2564 33.8004 27.1795 33.8004V33.2804C25.1282 33.2804 24.8718 32.5004 24.7436 34.3204C24.7436 34.9704 24.4872 35.2304 24.6154 36.0104C24.7436 37.0504 24.8718 38.0904 26.1538 38.0904Z" fill="white"/>
<path fill-rule="evenodd" clip-rule="evenodd" d="M19.1026 28.08C19.1026 29.64 18.8462 32.37 21.2821 31.46C21.2821 31.46 21.5385 31.33 21.6667 31.33C21.7949 31.07 21.7949 31.2 21.6667 31.07C21.4103 30.55 21.6667 30.81 21.1539 30.94C20.7692 30.94 20.7692 31.07 20.3846 30.94C19.6154 30.81 19.7436 29.9 19.7436 29.12C21.4103 29.12 20.8974 29.25 21.1539 28.73C20.7692 28.47 20.3846 28.6 19.7436 28.6C19.7436 26.91 19.6154 27.3 21.2821 27.3C21.6667 27.3 21.6667 27.17 21.6667 26.78C19.8718 26.78 19.1026 26 19.1026 28.08Z" fill="white"/>
<path fill-rule="evenodd" clip-rule="evenodd" d="M15.641 26.78C15.7692 27.3 15.641 27.17 16.0256 27.3C16.4103 27.43 16.7949 27.3 16.9231 27.17L16.6667 31.59C17.8205 31.59 17.5641 31.46 17.5641 29.64C17.5641 28.86 17.5641 27.95 17.5641 27.17C17.8205 27.3 17.9487 27.3 18.3333 27.3C18.8462 27.3 18.7179 27.3 18.8462 26.78C16.9231 26.65 17.6923 26.52 15.641 26.78Z" fill="white"/>
<path fill-rule="evenodd" clip-rule="evenodd" d="M25.5128 26.78C25.641 27.3 25.5128 27.17 25.8974 27.3C26.2821 27.43 26.6667 27.3 26.7949 27.17L26.6667 30.55C26.6667 31.07 26.5385 31.07 26.5385 31.59C27.6923 31.59 27.4359 31.46 27.4359 29.64C27.4359 28.86 27.4359 27.95 27.4359 27.17C27.6923 27.3 27.8205 27.3 28.2051 27.3C28.718 27.3 28.718 27.3 28.718 26.78C26.7949 26.65 27.5641 26.52 25.5128 26.78Z" fill="white"/>
<path fill-rule="evenodd" clip-rule="evenodd" d="M27.8205 34.3204V38.0904H28.5897C28.5897 36.6604 28.4615 35.7504 28.4615 34.4504C28.4615 33.9304 28.5897 34.1904 28.5897 33.6704L30.3846 33.8004V33.2804L28.0769 33.1504C27.9487 33.6704 27.8205 33.8004 27.8205 34.3204Z" fill="white"/>
<path fill-rule="evenodd" clip-rule="evenodd" d="M21.1538 20.2801C21.9231 20.2801 22.6923 20.9301 24.4872 20.4101C24.8718 20.2801 25.1282 20.1501 25.641 20.1501L26.5385 23.6601H21.5385C21.5385 22.8801 21.4103 20.8001 21.1538 20.2801ZM16.2821 19.3701L20.3846 19.6301C20.3846 20.2801 20.641 20.8001 20.7692 21.4501C20.8974 22.2301 20.8974 22.7501 20.8974 23.6601H16.5385C16.5385 23.0101 16.2821 22.3601 16.2821 21.5801C16.2821 21.0601 16.2821 20.9301 16.2821 20.4101C16.1538 19.7601 16.2821 20.0201 16.2821 19.3701ZM26.1538 19.7601C27.1795 19.2401 27.6923 18.5901 28.0769 18.4601L28.9744 20.8001C29.2308 21.5801 29.4872 22.6201 29.4872 23.6601C26.4103 23.6601 27.3077 24.0501 26.7949 21.7101C26.6667 21.1901 26.282 20.1501 26.1538 19.7601ZM16.6667 8.84011C16.6667 7.54011 16.6667 4.81011 18.3333 4.81011C20.1282 4.81011 18.8462 5.20011 20.5128 4.81011C24.1026 3.77011 26.7949 4.03011 29.1026 7.15011C31.282 10.1401 32.0513 14.0401 33.4615 17.4201C33.9744 18.4601 34.4872 19.6301 35.1282 20.6701C35.8974 22.1001 36.282 22.6201 37.0513 23.6601C36.5385 23.6601 36.0256 23.6601 35.5128 23.6601C34.7436 23.6601 34.7436 23.5301 34.4872 23.0101L31.5385 17.5501C31.1538 16.5101 31.0256 16.6401 30 16.6401C28.2051 16.6401 27.6923 18.2001 25.641 19.2401C24.1026 20.0201 21.5385 20.4101 20.641 18.8501C20.2564 17.9401 20.3846 17.6801 19.6154 16.3801C19.1026 15.6001 18.718 15.0801 18.2051 14.3001C17.5641 12.7401 16.6667 10.9201 16.6667 8.84011ZM16.0256 7.93011C16.0256 11.1801 17.1795 14.0401 18.8462 16.5101C19.2308 17.0301 20 18.2001 20 18.9801L16.2821 18.7201C16.4103 18.3301 16.5385 17.8101 16.4103 17.4201C16.1538 17.4201 16.0256 17.2901 15.7692 18.0701C15.3846 19.7601 15.7692 21.9701 15.8974 23.6601H10C10 21.7101 10.2564 19.8901 10.2564 17.9401C10.3846 15.0801 11.1539 10.4001 12.8205 8.32011C13.5897 7.15011 15.1282 6.11011 16.4103 5.85011C16.2821 6.63011 16.0256 7.02011 16.0256 7.93011ZM18.2051 4.16011C17.1795 4.16011 17.5641 4.81011 15.8974 5.33011C15.1282 5.59011 14.2308 5.98011 13.5897 6.50011C10.641 8.97011 10.1282 12.8701 9.74359 16.9001L9.35898 23.6601C8.33334 23.6601 6.92308 23.5301 6.15385 23.1401C5.25642 22.4901 5.51283 22.1001 6.02565 21.1901C6.92308 19.8901 8.33334 18.4601 8.33334 17.1601C8.33334 16.1201 5.89744 16.2501 5.89744 15.4701C5.89744 14.8201 8.33334 13.5201 8.33334 12.0901C8.33334 10.5301 6.28206 11.3101 6.28206 10.1401C6.28206 9.36011 8.33334 8.45011 8.33334 6.76011C8.33334 4.68011 5.12821 6.50011 8.07693 2.60011C8.58975 1.82011 8.97436 1.04011 9.8718 0.650109C11.0256 1.69011 11.5385 3.25011 12.8205 3.25011C13.9744 3.25011 14.8718 1.30011 15.7692 0.650109C15.8974 0.780109 16.0256 0.780109 16.1538 0.910109L17.0513 2.08011C19.4872 5.07011 20.3846 1.56011 21.7949 0.650109C22.3077 1.04011 22.5641 1.43011 22.8205 1.95011C23.0769 2.34011 23.5897 2.99011 23.5897 3.64011C22.3077 3.64011 21.9231 3.77011 20.8974 4.03011C19.4872 4.42011 19.7436 4.16011 18.2051 4.16011ZM6.15385 4.94011C6.15385 6.50011 9.23077 5.72011 6.66667 8.45011C6.15385 9.10011 5.64103 9.62011 5.64103 10.2701C5.64103 11.7001 7.69231 11.3101 7.69231 12.0901C7.69231 13.7801 2.17949 15.7301 7.69231 17.0301C7.69231 18.0701 7.3077 18.4601 6.66667 19.5001C6.15385 20.1501 5.51283 20.9301 5.12821 21.5801C4.10257 23.4001 7.17949 24.3101 8.97436 24.3101H30.1282C30.1282 20.4101 28.7179 19.1101 28.4615 17.8101C29.359 17.5501 28.7179 17.2901 30.5128 17.2901C30.8974 17.2901 31.0256 17.6801 31.1538 18.0701C31.6667 19.3701 33.8461 24.3101 35 24.3101H38.0769C38.0769 23.6601 38.0769 23.9201 37.3077 23.0101C36.9231 22.4901 36.6667 22.2301 36.4103 21.7101C35.2564 19.8901 34.359 18.0701 33.5897 15.9901C32.1795 11.9601 31.0256 7.28011 27.5641 4.81011C26.9231 4.29011 25.5128 3.64011 24.359 3.64011C24.2308 2.86011 22.6923 0.260109 22.0513 0.000109211C20.7692 -0.259891 20 2.60011 18.718 2.60011C18.0769 2.60011 16.6667 0.000109211 15.7692 0.000109211C14.7436 0.000109211 13.8462 2.60011 12.6923 2.60011C12.1795 2.60011 11.2821 1.30011 10.8974 0.910109C10.2564 0.000109199 9.8718 -0.389891 8.84616 0.520109C8.20513 1.17011 6.15385 4.03011 6.15385 4.94011Z" fill="#FCFDFD"/>
<path fill-rule="evenodd" clip-rule="evenodd" d="M27.9487 10.5296C28.4615 10.9196 28.9744 11.3096 28.9744 12.2196H27.4359C27.6923 11.5696 27.9487 12.3496 27.9487 10.5296ZM25.8974 11.0496C25.8974 11.4396 25.8974 11.4396 26.0256 11.6996C25.5128 11.5696 25.3846 11.3096 25 11.0496C25.3846 10.2696 25.2564 10.0096 26.6667 10.0096C26.6667 10.0096 26.6667 10.0096 26.5385 10.0096C26.5385 10.1396 25.8974 10.5296 25.8974 11.0496ZM28.4615 12.6096C28.8461 12.6096 28.9744 12.4796 29.359 12.4796C29.359 11.4396 28.9744 10.9196 28.4615 10.5296C26.1538 8.44963 23.718 10.5296 25.1282 11.5696C25.7692 12.0896 27.3077 12.6096 28.4615 12.6096Z" fill="#F9FAFB"/>
</g>
<defs>
<clipPath id="clip0">
<rect width="40" height="39" fill="white"/>
</clipPath>
</defs>
</svg>
