<svg width="97" height="19" viewBox="0 0 97 19" fill="none" xmlns="http://www.w3.org/2000/svg">
<path d="M11.9515 9.298C11.9515 10.7877 10.7435 12.0013 9.24636 12.0013C7.75563 12.0013 6.5412 10.7941 6.5412 9.298C6.5412 7.80831 7.7492 6.59473 9.24636 6.59473C10.7371 6.60115 11.9515 7.80831 11.9515 9.298Z" fill="white"/>
<path d="M0 18.5955H18.6084V0H0V18.5955ZM16.9763 16.9645H1.63209V1.63096H16.9763V16.9645Z" fill="white"/>
<path d="M28.5744 0.725586L25.4001 18.5762H28.9085L29.3519 14.9932H32.0442L32.5711 18.5762H36.0344L32.7959 0.725586H28.5744ZM29.6988 11.7891L30.6113 3.92971H30.6305L31.5687 11.7891H29.6988Z" fill="white"/>
<path d="M42.2672 0.725586H37.1589V18.5762H40.6801V11.6158H42.2672C42.8391 11.6158 43.3595 11.5323 43.8286 11.3653C44.2977 11.1984 44.7474 10.9287 45.1715 10.5434C45.602 10.1646 45.9362 9.59953 46.1803 8.85468C46.4245 8.10984 46.5466 7.21089 46.5466 6.17067C46.5466 2.53633 45.1201 0.725586 42.2672 0.725586ZM42.5435 7.87226C42.2222 8.23184 41.811 8.40521 41.3098 8.40521H40.6801V3.92971H41.2519C41.8238 3.92971 42.2608 4.09024 42.5628 4.40487C42.8648 4.7195 43.019 5.29098 43.019 6.1193C43.019 6.92836 42.8583 7.51268 42.5435 7.87226Z" fill="white"/>
<path d="M56.4291 8.71943C56.005 8.33416 55.5552 8.04521 55.0862 7.87184C54.6171 7.69847 54.0966 7.615 53.5312 7.615H51.9441V3.92929H56.3841V0.71875H48.4164V18.5694H53.5312C56.3777 18.5694 57.8106 16.7522 57.8106 13.1243C57.8106 12.0841 57.6885 11.1851 57.4443 10.4274C57.2002 9.68259 56.8596 9.11111 56.4291 8.71943ZM53.8332 14.8965C53.5376 15.2111 53.1071 15.3653 52.5481 15.3653H51.9376V10.8127H52.6123C53.1007 10.8127 53.499 10.9989 53.8139 11.3713C54.1287 11.7438 54.283 12.3473 54.283 13.1757C54.283 14.0104 54.1352 14.5819 53.8332 14.8965Z" fill="white"/>
<path d="M65.0201 18.5762H68.5413V4.10308H70.8416V18.5762H74.3692V0.725586H65.0201V18.5762Z" fill="white"/>
<path d="M81.5144 0.725586H76.3997V18.5762H79.9208V11.6158H81.5079C82.0798 11.6158 82.6003 11.5323 83.0694 11.3653C83.5384 11.1984 83.9882 10.9287 84.4123 10.5434C84.8428 10.1646 85.1769 9.59953 85.4211 8.85468C85.6653 8.10984 85.7873 7.21089 85.7873 6.17067C85.7938 2.53633 84.3673 0.725586 81.5144 0.725586ZM81.7907 7.87226C81.4694 8.23184 81.0582 8.40521 80.557 8.40521H79.9208V3.92971H80.4927C81.0646 3.92971 81.5015 4.09024 81.8035 4.40487C82.1055 4.7195 82.2597 5.29098 82.2597 6.1193C82.2662 6.92836 82.1055 7.51268 81.7907 7.87226Z" fill="white"/>
<path d="M95.8112 1.73337C95.0209 0.795888 93.845 0.327148 92.2644 0.327148C90.6773 0.327148 89.4885 0.789467 88.6918 1.72052C87.895 2.65158 87.5031 3.85875 87.5031 5.34844V13.3812C87.5031 17.1247 89.0837 18.9997 92.2451 18.9997C95.4129 18.9997 96.9935 17.1247 96.9935 13.3812V5.37412C97 3.88443 96.6016 2.67085 95.8112 1.73337ZM93.4724 14.1261C93.4724 14.6205 93.3503 15.0122 93.1061 15.2947C92.8619 15.5772 92.5792 15.7185 92.2515 15.7185C91.9238 15.7185 91.6411 15.5837 91.3969 15.2947C91.1527 15.0122 91.0307 14.6205 91.0307 14.1261V5.07233C91.0307 4.59075 91.1527 4.22475 91.3841 3.98075C91.6218 3.73033 91.911 3.60832 92.2515 3.60832C92.5792 3.60832 92.8619 3.73675 93.1061 3.98075C93.3503 4.23117 93.4724 4.59075 93.4724 5.07233V14.1261Z" fill="white"/>
</svg>
