<svg width="34" height="42" viewBox="0 0 34 42" fill="none" xmlns="http://www.w3.org/2000/svg">
<path d="M22.2676 15.4777C22.2676 17.9558 20.1385 19.9746 17.4999 19.9746C14.8725 19.9746 12.7322 17.9665 12.7322 15.4777C12.7322 12.9995 14.8612 10.9807 17.4999 10.9807C20.1272 10.9914 22.2676 12.9995 22.2676 15.4777Z" fill="white"/>
<path d="M1.20367 30.9452H34V0.0113525H1.20367V30.9452ZM31.1235 28.2321H4.08015V2.72448H31.1235V28.2321Z" fill="white"/>
<path d="M1.92844 34.1169L0.478882 41.8184H2.08699L2.29083 40.2695H3.52523L3.76305 41.8184H5.3485L3.86497 34.1169H1.92844ZM2.43805 38.8916L2.85707 35.5056H2.8684L3.29874 38.8916H2.43805Z" fill="white"/>
<path d="M8.17969 34.1169H5.8468V41.8184H7.45491V38.8168H8.17969C8.44016 38.8168 8.67797 38.7848 8.89314 38.71C9.10831 38.6353 9.31216 38.5178 9.50468 38.3575C9.6972 38.1973 9.85574 37.9516 9.96899 37.6312C10.0822 37.3107 10.1389 36.9262 10.1389 36.4669C10.1389 34.9074 9.48203 34.1169 8.17969 34.1169ZM8.30427 37.2039C8.15704 37.3535 7.97585 37.4389 7.73803 37.4389H7.45491V35.5056H7.71538C7.97585 35.5056 8.17969 35.5696 8.31559 35.7085C8.45148 35.8474 8.51943 36.093 8.51943 36.4455C8.53076 36.798 8.45149 37.0544 8.30427 37.2039Z" fill="white"/>
<path d="M14.6574 37.5671C14.4649 37.3962 14.261 37.2787 14.0459 37.2039C13.8307 37.1292 13.5929 37.0971 13.3324 37.0971H12.6076V35.5056H14.6347V34.1169H10.9995V41.8184H13.3324C14.6347 41.8184 15.2916 41.0386 15.2916 39.4684C15.2916 39.0198 15.2349 38.6353 15.1217 38.3041C15.0085 37.9837 14.8499 37.738 14.6574 37.5671ZM13.4683 40.2375C13.3324 40.3764 13.1399 40.4404 12.8794 40.4404H12.5963V38.475H12.9021C13.1286 38.475 13.3097 38.5605 13.4456 38.7207C13.5929 38.8809 13.6608 39.1373 13.6608 39.5005C13.6721 39.853 13.6042 40.0986 13.4683 40.2375Z" fill="white"/>
<path d="M18.5757 41.8184H20.1952V35.5803H21.237V41.8184H22.8565V34.1169H18.5757V41.8184Z" fill="white"/>
<path d="M26.118 34.1169H23.7851V41.8184H25.3932V38.8168H26.118C26.3785 38.8168 26.6163 38.7848 26.8315 38.71C27.0466 38.6353 27.2505 38.5178 27.443 38.3575C27.6355 38.1973 27.7941 37.9516 27.9073 37.6312C28.0205 37.3107 28.0772 36.9262 28.0772 36.4669C28.0772 34.9074 27.4203 34.1169 26.118 34.1169ZM26.2426 37.2039C26.0953 37.3535 25.9028 37.4389 25.6763 37.4389H25.3819V35.5056H25.6424C25.9028 35.5056 26.1067 35.5696 26.2426 35.7085C26.3785 35.8474 26.4464 36.093 26.4464 36.4455C26.4691 36.798 26.3898 37.0544 26.2426 37.2039Z" fill="white"/>
<path d="M32.6523 34.5549C32.29 34.149 31.7577 33.946 31.0329 33.946C30.3081 33.946 29.7646 34.149 29.4022 34.5442C29.0398 34.9501 28.8586 35.4628 28.8586 36.1144V39.5752C28.8586 41.1882 29.5834 42 31.0216 42C32.4711 42 33.1959 41.1882 33.1959 39.5752V36.1251C33.1959 35.4842 33.0147 34.9608 32.6523 34.5549ZM31.5878 39.9064C31.5878 40.12 31.5312 40.2909 31.418 40.4084C31.3047 40.5259 31.1801 40.59 31.0329 40.59C30.8857 40.59 30.7498 40.5259 30.6365 40.4084C30.5233 40.2909 30.4667 40.12 30.4667 39.9064V35.9969C30.4667 35.794 30.5233 35.6337 30.6252 35.5269C30.7385 35.4201 30.863 35.3667 31.0216 35.3667C31.1688 35.3667 31.3047 35.4201 31.4066 35.5269C31.5199 35.6337 31.5765 35.794 31.5765 35.9969V39.9064H31.5878Z" fill="white"/>
</svg>
