<svg width="14" height="14" viewBox="0 0 14 14" fill="none" xmlns="http://www.w3.org/2000/svg">
<path d="M10.1581 13.2759C8.95125 13.8191 7.90518 14 6.47696 14C3.13796 14 0.201027 11.6062 0.201027 7.66391C0.201027 3.56037 3.178 0 7.72428 0C11.2645 0 13.799 2.43403 13.799 5.81328C13.799 8.75 12.1496 10.6006 9.97718 10.6006C9.03175 10.6006 8.34793 10.1178 8.24731 9.05166H8.20706C7.58362 10.0776 6.67843 10.6006 5.61225 10.6006C4.30478 10.6006 3.35934 9.63506 3.35934 7.98547C3.35934 5.53153 5.16971 3.29875 8.06618 3.29875C8.95125 3.29875 9.95684 3.52012 10.46 3.80166L9.85665 7.52303C9.65562 8.70953 9.79628 9.25291 10.3596 9.27281C11.2245 9.29294 12.3106 8.1865 12.3106 5.87344C12.3106 3.2585 10.621 1.22675 7.5029 1.22675C4.42553 1.22675 1.72987 3.64066 1.72987 7.48256C1.72987 10.8417 3.88215 12.7527 6.87946 12.7527C7.9054 12.7527 8.99172 12.5315 9.79606 12.1089L10.1581 13.2759ZM8.36784 4.96847C8.20684 4.92822 8.00559 4.88797 7.74418 4.88797C6.41681 4.88797 5.37053 6.19544 5.37053 7.74419C5.37053 8.5085 5.71265 8.99128 6.37634 8.99128C7.12053 8.99128 7.90518 8.04584 8.08609 6.87925L8.36784 4.96847Z" fill="white"/>
</svg>
