<svg width="17" height="17" viewBox="0 0 17 17" fill="none" xmlns="http://www.w3.org/2000/svg">
<path d="M16.132 4.51659C15.9484 3.83382 15.4101 3.2956 14.7274 3.11175C13.4802 2.77051 8.4915 2.77051 8.4915 2.77051C8.4915 2.77051 3.50296 2.77051 2.2558 3.09881C1.58626 3.28246 1.03481 3.83392 0.851154 4.51659C0.522949 5.76365 0.522949 8.3499 0.522949 8.3499C0.522949 8.3499 0.522949 10.9492 0.851154 12.1832C1.035 12.8659 1.57313 13.4041 2.2559 13.5879C3.51609 13.9293 8.4917 13.9293 8.4917 13.9293C8.4917 13.9293 13.4802 13.9293 14.7274 13.601C15.4102 13.4172 15.9484 12.879 16.1322 12.1963C16.4603 10.9492 16.4603 8.36303 16.4603 8.36303C16.4603 8.36303 16.4735 5.76365 16.132 4.51659ZM6.9032 10.7392V5.96063L11.0516 8.3499L6.9032 10.7392Z" fill="white"/>
</svg>
