<svg width="10" height="13" viewBox="0 0 10 13" fill="none" xmlns="http://www.w3.org/2000/svg">
<path d="M4.64636 0.353516L0.353516 4.64636C0.158203 4.84167 0.158203 5.1582 0.353516 5.35352L1.05688 6.05688C1.25195 6.25195 1.56812 6.2522 1.76343 6.05737L3.99988 3.82716V12.5C3.99988 12.7761 4.22374 13 4.49988 13H5.49988C5.77602 13 5.99988 12.7761 5.99988 12.5V3.82716L8.23633 6.05737C8.43176 6.2522 8.74792 6.25195 8.94299 6.05688L9.64636 5.35352C9.84167 5.1582 9.84167 4.84167 9.64636 4.64636L5.35352 0.353516C5.1582 0.158203 4.84167 0.158203 4.64636 0.353516Z" fill="currentColor" fill-opacity="0.9"/>
</svg>
