<svg width="18" height="18" viewBox="0 0 18 18" fill="none" xmlns="http://www.w3.org/2000/svg">
<path d="M11 9C11 10.1046 10.1046 11 9 11C7.89543 11 7 10.1046 7 9C7 7.89543 7.89543 7 9 7C10.1046 7 11 7.89543 11 9Z" fill="black" fill-opacity="0.65"/>
<path d="M5 0H1C0.447715 0 0 0.447716 0 1V5H2V2H5V0Z" fill="black" fill-opacity="0.65"/>
<path d="M7 2V0H11V2H7Z" fill="black" fill-opacity="0.65"/>
<path d="M16 5V2H13V0H17C17.5523 0 18 0.447715 18 1V5H16Z" fill="black" fill-opacity="0.65"/>
<path d="M16 11V7H18V11H16Z" fill="black" fill-opacity="0.65"/>
<path d="M13 16H16V13H18V17C18 17.5523 17.5523 18 17 18H13V16Z" fill="black" fill-opacity="0.65"/>
<path d="M7 16H11V18H7V16Z" fill="black" fill-opacity="0.65"/>
<path d="M2 13V16H5V18H1C0.447716 18 0 17.5523 0 17V13H2Z" fill="black" fill-opacity="0.65"/>
<path d="M2 7V11H0V7H2Z" fill="black" fill-opacity="0.65"/>
</svg>
