<svg width="12" height="12" viewBox="0 0 12 12" fill="none" xmlns="http://www.w3.org/2000/svg">
<path d="M11.5858 1.00002L11 0.41428C10.8373 0.251561 10.5735 0.251561 10.4108 0.41428L6.00002 4.825L1.58928 0.414279C1.42656 0.251561 1.16274 0.251561 1.00002 0.414279L0.414279 1.00002C0.251561 1.16274 0.251561 1.42656 0.414279 1.58928L4.82502 6L0.414284 10.4108C0.251565 10.5735 0.251565 10.8373 0.414284 11L1.00003 11.5858C1.16275 11.7485 1.42656 11.7485 1.58928 11.5858L6.00002 7.175L10.4108 11.5857C10.5735 11.7485 10.8373 11.7485 11 11.5857L11.5858 11C11.7485 10.8373 11.7485 10.5735 11.5858 10.4107L7.17502 6L11.5858 1.58928C11.7485 1.42656 11.7485 1.16274 11.5858 1.00002Z" fill="black" fill-opacity="0.65"/>
</svg>
