<svg width="10" height="10" viewBox="0 0 10 10" fill="none" xmlns="http://www.w3.org/2000/svg">
<path d="M9.46866 1.00002L9.00006 0.531424C8.86989 0.401249 8.65883 0.401249 8.52866 0.531424L5.00007 4.06L1.47147 0.531423C1.3413 0.401248 1.13024 0.401248 1.00007 0.531423L0.531472 1.00002C0.401298 1.13019 0.401298 1.34125 0.531472 1.47142L4.06007 5L0.531476 8.52862C0.401301 8.65879 0.401301 8.86985 0.531476 9.00002L1.00007 9.46862C1.13025 9.59879 1.3413 9.59879 1.47148 9.46862L5.00007 5.94L8.52867 9.4686C8.65884 9.59877 8.8699 9.59877 9.00007 9.4686L9.46867 9C9.59884 8.86983 9.59884 8.65877 9.46867 8.5286L5.94007 5L9.46866 1.47142C9.59883 1.34125 9.59883 1.13019 9.46866 1.00002Z" fill="white"/>
</svg>
