<svg width="14" height="13" viewBox="0 0 14 13" fill="none" xmlns="http://www.w3.org/2000/svg">
<path fill-rule="evenodd" clip-rule="evenodd" d="M12.9985 0H1.00016C0.631999 0 0.333496 0.298462 0.333496 0.666667V9.33333C0.333496 9.70154 0.631999 10 1.00016 10H6.33333V11.3333H3.99992C3.81584 11.3333 3.66659 11.4826 3.66659 11.6667V12.3333C3.66659 12.5174 3.81584 12.6667 3.99992 12.6667H9.99878C10.1829 12.6667 10.3321 12.5174 10.3321 12.3333V11.6667C10.3321 11.4826 10.1829 11.3333 9.99878 11.3333H7.66667V10H12.9985C13.3667 10 13.6652 9.70154 13.6652 9.33333V0.666667C13.6652 0.298462 13.3667 0 12.9985 0ZM1.66667 1.33333V8.66667H12.3333L12.332 1.33333H1.66667Z" fill="black" fill-opacity="0.9"/>
</svg>
