<svg width="18" height="16" viewBox="0 0 18 16" fill="none" xmlns="http://www.w3.org/2000/svg">
<path fill-rule="evenodd" clip-rule="evenodd" d="M4 0.666687C4 0.298645 3.70203 0 3.33337 0H0.666626C0.298706 0 0 0.298645 0 0.666687V3.33331C0 3.70203 0.298706 4 0.666626 4H3.33337C3.70203 4 4 3.70203 4 3.33331V0.666687ZM4 6.66669C4 6.29865 3.70203 6 3.33337 6H0.666626C0.298706 6 0 6.29865 0 6.66669V9.33331C0 9.70203 0.298706 10 0.666626 10H3.33337C3.70203 10 4 9.70203 4 9.33331V6.66669ZM3.33337 12C3.70203 12 4 12.2986 4 12.6667V15.3333C4 15.702 3.70203 16 3.33337 16H0.666626C0.298706 16 0 15.702 0 15.3333V12.6667C0 12.2986 0.298706 12 0.666626 12H3.33337ZM17.5 1H6.5C6.22388 1 6 1.22388 6 1.5V2.5C6 2.77612 6.22388 3 6.5 3H17.5C17.7761 3 18 2.77612 18 2.5V1.5C18 1.22388 17.7761 1 17.5 1ZM6.5 7H17.5C17.7761 7 18 7.22388 18 7.5V8.5C18 8.77612 17.7761 9 17.5 9H6.5C6.22388 9 6 8.77612 6 8.5V7.5C6 7.22388 6.22388 7 6.5 7ZM17.5 13H6.5C6.22388 13 6 13.2239 6 13.5V14.5C6 14.7761 6.22388 15 6.5 15H17.5C17.7761 15 18 14.7761 18 14.5V13.5C18 13.2239 17.7761 13 17.5 13Z" fill="currentColor"/>
</svg>
