<svg width="316" height="80" viewBox="0 0 316 80" fill="none" xmlns="http://www.w3.org/2000/svg">
<g clip-path="url(#clip0_13873_34659)">
<path d="M182.949 41.5271H197.223V36.4734H182.949V30.4078H198.516V25.3541H188.001L176.848 36.4305V54.7132H199.16V49.6596H182.949V41.5271Z" fill="#B3B3B3"/>
<path d="M206.033 45.6548C206.033 47.3169 206.923 50.4264 212.257 50.4264C215.169 50.4264 218.388 49.7026 218.388 46.63C218.388 44.3239 216.163 43.7535 213.048 42.9869L207.143 41.5334C202.98 40.5214 200.595 38.0559 200.595 33.6033C200.595 30.3712 202.373 24.5876 211.877 24.5876C220.853 24.5876 223.275 30.4938 223.275 34.0878H217.413C217.254 32.7569 216.77 29.6413 211.429 29.6413C209.087 29.6413 206.297 30.5306 206.297 33.1617C206.297 35.4678 208.198 35.9523 209.412 36.2283L216.567 37.9639C220.589 38.982 224.268 40.6011 224.268 45.8572C224.268 54.7134 215.292 55.48 212.704 55.48C202.03 55.48 200.172 49.2979 200.172 45.6671L206.033 45.6548Z" fill="#B3B3B3"/>
<path d="M238.861 54.7133H232.73V30.4079H223.9V25.3542H247.715V30.4079H238.861V54.7133Z" fill="#B3B3B3"/>
<path d="M261.099 25.3541L271.406 54.7132H264.778L262.877 48.6476H252.08L250.02 54.7132H243.588L254.012 25.3541H261.099ZM253.699 43.5939H261.541L257.537 31.9901H257.457L253.699 43.5939Z" fill="#B3B3B3"/>
<path d="M283.05 54.7133H276.919V30.4079H268.089V25.3542H291.904V30.4079H283.05V54.7133Z" fill="#B3B3B3"/>
<path d="M315.35 25.3541V30.4078H299.788V36.4734H314.056V41.5332H299.788V49.6596H316V54.7132H293.682V25.3541H315.35Z" fill="#B3B3B3"/>
<path d="M24.1025 45.9062C24.1715 47.6804 23.7011 49.4339 22.7536 50.9353C21.671 52.4408 20.2033 53.6271 18.5046 54.3699C16.7947 55.1299 14.9432 55.5187 13.0721 55.5106C4.57402 55.4615 0.216643 52.1783 0 45.6609H5.92293C5.92634 46.3965 6.11523 47.1194 6.47213 47.7626C6.82902 48.4059 7.34239 48.9487 7.96469 49.3407C9.23811 50.1713 10.7375 50.587 12.2567 50.5305C13.7046 50.5622 15.1349 50.2087 16.4015 49.5063C16.9197 49.2667 17.3607 48.8871 17.6748 48.4104C17.989 47.9336 18.1638 47.3786 18.1796 46.8078C18.2123 45.066 16.6856 43.8271 13.5994 43.0911C8.51039 41.8645 5.64907 41.1019 5.01549 40.8035C1.98658 39.3724 0.47212 36.9192 0.47212 33.4438C0.474149 31.7733 0.950441 30.1377 1.84556 28.7274C2.82603 27.2698 4.2299 26.1481 5.86775 25.5137C7.63864 24.7667 9.54389 24.3909 11.4657 24.4097C14.262 24.3247 17.0115 25.1418 19.3078 26.7403C20.4919 27.5515 21.4633 28.6361 22.1399 29.9021C22.8165 31.1682 23.1785 32.5786 23.1951 34.0141H17.3089C17.2667 33.3305 17.063 32.6666 16.7145 32.077C16.3659 31.4874 15.8825 30.9889 15.304 30.6225C14.1605 29.8905 12.8227 29.5207 11.4657 29.5615C10.263 29.5366 9.07214 29.8039 7.99535 30.3404C7.44922 30.5755 6.98177 30.962 6.64822 31.4544C6.31467 31.9467 6.12895 32.5242 6.113 33.1187C6.113 34.7787 7.6663 35.9767 10.7729 36.7127C16.005 37.9638 18.8929 38.7141 19.4365 38.9635C22.539 40.3496 24.0903 42.6638 24.0903 45.9062" fill="#1F2639"/>
<path d="M53.6436 40.1901C53.6436 45.1742 52.3765 49.0422 49.8422 51.7939C47.4223 54.4066 44.1277 55.715 39.9584 55.7191C35.2985 55.7191 31.7218 54.2614 29.2284 51.3462C26.735 48.4309 25.4903 44.4056 25.4944 39.2701C25.4944 34.9115 26.7472 31.3687 29.2529 28.6415C31.8404 25.8121 35.2985 24.381 39.6273 24.3483C41.4075 24.2996 43.1793 24.6108 44.8365 25.2631C46.4937 25.9154 48.0023 26.8955 49.272 28.1447C52.1864 31.0354 53.6436 35.0424 53.6436 40.1656V40.1901ZM47.5552 40.5335C47.5552 33.3946 44.8451 29.8109 39.4249 29.7822C38.2427 29.7418 37.0705 30.0107 36.0241 30.5626C34.9778 31.1144 34.0936 31.9299 33.4591 32.9285C32.1836 34.928 31.5286 37.2606 31.5767 39.632C31.5056 42.2135 32.2337 44.754 33.6614 46.9058C34.3369 47.9963 35.2833 48.8931 36.4083 49.509C37.5333 50.1248 38.7987 50.4387 40.081 50.4201C41.0893 50.4318 42.0866 50.2091 42.9942 49.7695C43.9018 49.33 44.6949 48.6856 45.3111 47.8871C46.8071 46.0594 47.5552 43.6062 47.5552 40.5274" fill="#1F2639"/>
<path d="M75.7963 54.6949H55.0415V25.3052H61.2097V49.3408H75.7963V54.6949Z" fill="#1F2639"/>
<path d="M94.7546 25.3052L84.785 54.6949H78.9847L69.1008 25.3052H75.6369L82.0136 45.9492L88.3841 25.3052H94.7546Z" fill="#1F2639"/>
<path d="M118.336 54.6949H96.0239V25.3052H117.643V30.4999H102.033V36.7495H116.374V41.9013H102.033V49.5002H118.336V54.6949Z" fill="#1F2639"/>
<path d="M143.254 54.6949H137.251V47.1328C137.251 45.6363 136.855 44.6019 136.062 44.0295C135.379 43.4857 134.237 43.2138 132.634 43.2138H126.092V54.6949H120.09V25.3113H135.001C137.916 25.3113 140.231 26.2108 141.948 28.0099C142.693 28.7783 143.279 29.6865 143.671 30.6822C144.064 31.678 144.255 32.7416 144.235 33.8117C144.262 35.269 143.866 36.7027 143.095 37.9393C142.294 39.207 141.082 40.16 139.661 40.6379C140.894 40.9575 141.952 41.7508 142.604 42.8458C143.098 43.9614 143.321 45.1784 143.254 46.3968V54.6949ZM133.897 30.4202H126.092V38.2644H133.732C134.345 38.2993 134.959 38.2085 135.536 37.9975C136.112 37.7866 136.64 37.46 137.086 37.0377C137.443 36.6876 137.725 36.2682 137.915 35.8053C138.105 35.3424 138.198 34.8456 138.189 34.3453C138.201 33.8476 138.113 33.3526 137.931 32.8893C137.749 32.4259 137.476 32.0035 137.129 31.6468C136.702 31.2328 136.196 30.9104 135.64 30.6995C135.084 30.4885 134.491 30.3935 133.897 30.4202Z" fill="#1F2639"/>
<path d="M213.072 0.0184326L170.103 42.9991L169.656 43.4591C169.043 41.4842 167.608 39.9878 165.364 38.9819C164.824 38.7305 161.936 37.9884 156.706 36.7311C153.6 35.9951 152.046 34.7971 152.046 33.1371C152.063 32.5435 152.248 31.9667 152.58 31.4746C152.912 30.9825 153.378 30.5954 153.923 30.3588C155.002 29.8224 156.194 29.5552 157.399 29.5799C158.756 29.5391 160.094 29.9089 161.237 30.6409C161.817 31.0058 162.301 31.504 162.648 32.094C162.996 32.6841 163.198 33.3487 163.236 34.0325H169.122C169.108 32.5979 168.749 31.1878 168.074 29.9217C167.399 28.6555 166.43 27.5706 165.247 26.7587C162.948 25.1621 160.197 24.3453 157.399 24.4281C155.477 24.4093 153.572 24.7851 151.801 25.5321C150.166 26.1673 148.762 27.2862 147.779 28.7397C146.879 30.1502 146.403 31.789 146.406 33.4622C146.381 36.9212 147.893 39.3745 150.943 40.8219C151.568 41.1162 154.429 41.8788 159.527 43.1095C162.605 43.8455 164.131 45.0844 164.107 46.8262C164.091 47.397 163.916 47.952 163.602 48.4288C163.288 48.9055 162.847 49.2851 162.329 49.5247C161.062 50.2271 159.632 50.5806 158.184 50.5489C156.665 50.6054 155.165 50.1897 153.892 49.3591C153.269 48.9679 152.755 48.4253 152.398 47.7819C152.041 47.1385 151.852 46.4151 151.85 45.6793H145.909C146.117 51.8369 150.021 55.1079 157.62 55.4922L133.094 80.0246H133.45L213.434 0.0184326H213.072Z" fill="#1F2639"/>
</g>
<defs>
<clipPath id="clip0_13873_34659">
<rect width="316" height="80" fill="white"/>
</clipPath>
</defs>
</svg>
