<svg width="175" height="40" viewBox="0 0 175 40" fill="none" xmlns="http://www.w3.org/2000/svg">
<g clip-path="url(#clip0_13869_35895)">
<path d="M100.053 20.7636H107.235V18.2368H100.053V15.204H107.886V12.6771H102.595L96.9836 18.2153V27.3567H108.21V24.8298H100.053V20.7636Z" fill="white" fill-opacity="0.7"/>
<path d="M111.669 22.8274C111.669 23.6584 112.116 25.2132 114.8 25.2132C116.265 25.2132 117.885 24.8513 117.885 23.315C117.885 22.162 116.765 21.8768 115.198 21.4935L112.227 20.7667C110.132 20.2607 108.932 19.028 108.932 16.8016C108.932 15.1856 109.827 12.2938 114.609 12.2938C119.125 12.2938 120.344 15.2469 120.344 17.0439H117.395C117.314 16.3785 117.071 14.8207 114.383 14.8207C113.205 14.8207 111.801 15.2653 111.801 16.5809C111.801 17.7339 112.758 17.9761 113.368 18.1141L116.969 18.982C118.993 19.491 120.844 20.3006 120.844 22.9286C120.844 27.3567 116.327 27.74 115.025 27.74C109.654 27.74 108.719 24.6489 108.719 22.8335L111.669 22.8274Z" fill="white" fill-opacity="0.7"/>
<path d="M128.186 27.3567H125.101V15.204H120.659V12.6771H132.641V15.204H128.186V27.3567Z" fill="white" fill-opacity="0.7"/>
<path d="M139.376 12.6771L144.562 27.3567H141.227L140.271 24.3239H134.838L133.801 27.3567H130.565L135.81 12.6771H139.376ZM135.652 21.797H139.598L137.584 15.9951H137.543L135.652 21.797Z" fill="white" fill-opacity="0.7"/>
<path d="M150.421 27.3567H147.336V15.204H142.893V12.6771H154.876V15.204H150.421V27.3567Z" fill="white" fill-opacity="0.7"/>
<path d="M166.673 12.6771V15.204H158.843V18.2368H166.022V20.7667H158.843V24.8298H167V27.3567H155.77V12.6771H166.673Z" fill="white" fill-opacity="0.7"/>
<path d="M20.1275 22.953C20.1622 23.8401 19.9256 24.7169 19.4488 25.4676C18.9041 26.2203 18.1656 26.8135 17.3108 27.1849C16.4505 27.5649 15.5189 27.7593 14.5774 27.7552C10.3015 27.7307 8.10901 26.0891 8 22.8304H10.9802C10.9819 23.1982 11.077 23.5596 11.2565 23.8813C11.4361 24.2029 11.6944 24.4743 12.0075 24.6703C12.6483 25.0856 13.4027 25.2934 14.1671 25.2652C14.8957 25.281 15.6153 25.1043 16.2527 24.7531C16.5134 24.6333 16.7353 24.4435 16.8933 24.2051C17.0514 23.9667 17.1394 23.6892 17.1473 23.4038C17.1638 22.5329 16.3956 21.9135 14.8428 21.5455C12.2821 20.9322 10.8424 20.5509 10.5236 20.4017C8.99958 19.6861 8.23755 18.4595 8.23755 16.7218C8.23857 15.8866 8.47823 15.0688 8.92862 14.3636C9.42196 13.6348 10.1283 13.074 10.9524 12.7568C11.8435 12.3833 12.8021 12.1954 13.7691 12.2048C15.1761 12.1623 16.5596 12.5708 17.715 13.3701C18.3108 13.7757 18.7996 14.318 19.14 14.951C19.4805 15.584 19.6626 16.2892 19.6709 17.007H16.7092C16.688 16.6652 16.5855 16.3332 16.4101 16.0384C16.2348 15.7436 15.9915 15.4944 15.7004 15.3112C15.125 14.9452 14.4519 14.7603 13.7691 14.7807C13.164 14.7682 12.5648 14.9019 12.023 15.1701C11.7482 15.2877 11.513 15.481 11.3451 15.7271C11.1773 15.9733 11.0839 16.262 11.0758 16.5593C11.0758 17.3893 11.8574 17.9883 13.4205 18.3563C16.0531 18.9819 17.5062 19.357 17.7798 19.4817C19.3408 20.1747 20.1214 21.3319 20.1214 22.953" fill="white" fill-opacity="0.95"/>
<path d="M34.9916 20.0951C34.9916 22.5872 34.354 24.5212 33.0788 25.897C31.8612 27.2034 30.2035 27.8576 28.1056 27.8596C25.761 27.8596 23.9613 27.1308 22.7067 25.6732C21.4521 24.2155 20.8258 22.2028 20.8279 19.6351C20.8279 17.4558 21.4583 15.6844 22.7191 14.3208C24.021 12.9061 25.761 12.1906 27.939 12.1742C28.8348 12.1499 29.7263 12.3054 30.5601 12.6316C31.394 12.9578 32.1531 13.4478 32.7919 14.0724C34.2584 15.5178 34.9916 17.5213 34.9916 20.0828V20.0951ZM31.9281 20.2668C31.9281 16.6974 30.5645 14.9055 27.8372 14.8912C27.2424 14.8709 26.6526 15.0054 26.1261 15.2813C25.5996 15.5573 25.1547 15.965 24.8354 16.4643C24.1936 17.4641 23.8641 18.6303 23.8883 19.816C23.8525 21.1068 24.2189 22.3771 24.9372 23.453C25.2771 23.9982 25.7533 24.4466 26.3194 24.7545C26.8855 25.0625 27.5221 25.2194 28.1673 25.2101C28.6747 25.216 29.1765 25.1046 29.6331 24.8848C30.0898 24.665 30.4889 24.3428 30.7989 23.9436C31.5517 23.0298 31.9281 21.8032 31.9281 20.2638" fill="white" fill-opacity="0.95"/>
<path d="M46.1381 27.3475H35.6951V12.6526H38.7987V24.6704H46.1381V27.3475Z" fill="white" fill-opacity="0.95"/>
<path d="M55.6771 12.6526L50.6607 27.3475H47.7422L42.769 12.6526H46.0578L49.2663 22.9746L52.4717 12.6526H55.6771Z" fill="white" fill-opacity="0.95"/>
<path d="M67.5424 27.3475H56.3157V12.6526H67.1937V15.25H59.3391V18.3748H66.5551V20.9507H59.3391V24.7501H67.5424V27.3475Z" fill="white" fill-opacity="0.95"/>
<path d="M80.0803 27.3475H77.06V23.5664C77.06 22.8182 76.8605 22.301 76.4615 22.0147C76.118 21.7428 75.5432 21.6069 74.7369 21.6069H71.4451V27.3475H68.4248V12.6556H75.9278C77.3942 12.6556 78.5594 13.1054 79.4232 14.0049C79.798 14.3891 80.0927 14.8432 80.2902 15.3411C80.4877 15.839 80.5841 16.3708 80.5739 16.9059C80.5874 17.6345 80.3881 18.3513 80.0001 18.9697C79.5974 19.6035 78.9873 20.08 78.2725 20.3189C78.8931 20.4787 79.4252 20.8754 79.7533 21.4229C80.002 21.9807 80.1141 22.5892 80.0803 23.1984V27.3475ZM75.3724 15.2101H71.4451V19.1322H75.2892C75.5976 19.1496 75.9065 19.1042 76.1967 18.9988C76.4868 18.8933 76.7523 18.73 76.9767 18.5189C77.1565 18.3438 77.2984 18.1341 77.3939 17.9027C77.4894 17.6712 77.5364 17.4228 77.532 17.1727C77.5377 16.9238 77.4934 16.6763 77.4018 16.4446C77.3101 16.213 77.173 16.0018 76.9983 15.8234C76.7837 15.6164 76.5287 15.4552 76.2491 15.3497C75.9695 15.2443 75.6712 15.1967 75.3724 15.2101Z" fill="white" fill-opacity="0.95"/>
<path d="M115.21 0.00915527L93.5899 21.4995L93.3647 21.7295C93.0562 20.7421 92.3343 19.9938 91.2052 19.4909C90.9337 19.3652 89.4806 18.9941 86.849 18.3655C85.2859 17.9975 84.5043 17.3985 84.5043 16.5685C84.5124 16.2717 84.6056 15.9833 84.7728 15.7373C84.94 15.4912 85.1744 15.2977 85.4484 15.1793C85.9913 14.9112 86.5915 14.7775 87.1976 14.7899C87.8804 14.7695 88.5535 14.9544 89.1289 15.3204C89.4205 15.5028 89.6639 15.752 89.8389 16.047C90.0138 16.342 90.1152 16.6743 90.1346 17.0162H93.0963C93.0892 16.2989 92.9082 15.5938 92.5688 14.9608C92.2294 14.3277 91.7416 13.7852 91.1465 13.3793C89.9895 12.581 88.6054 12.1726 87.1976 12.214C86.2306 12.2046 85.272 12.3925 84.3809 12.766C83.5579 13.0836 82.8519 13.643 82.3571 14.3698C81.9044 15.075 81.6646 15.8945 81.666 16.731C81.6537 18.4605 82.4147 19.6872 83.949 20.4109C84.2637 20.5581 85.7034 20.9393 88.2681 21.5547C89.8169 21.9227 90.5851 22.5421 90.5727 23.413C90.5648 23.6984 90.4768 23.9759 90.3187 24.2143C90.1606 24.4527 89.9388 24.6425 89.678 24.7623C89.0407 25.1135 88.321 25.2902 87.5925 25.2744C86.8281 25.3026 86.0737 25.0948 85.4329 24.6795C85.1194 24.4839 84.8608 24.2126 84.6812 23.8909C84.5015 23.5692 84.4067 23.2075 84.4056 22.8396H81.4161C81.521 25.9184 83.4852 27.5539 87.3087 27.746L74.9683 40.0122H75.1472L115.392 0.00915527H115.21Z" fill="white" fill-opacity="0.95"/>
<path d="M116.5 -1L74.5 41" stroke="white" stroke-opacity="0.95" stroke-width="0.5"/>
</g>
<defs>
<clipPath id="clip0_13869_35895">
<rect width="159" height="40" fill="white" transform="translate(8)"/>
</clipPath>
</defs>
</svg>
