<svg width="159" height="40" viewBox="0 0 159 40" fill="none" xmlns="http://www.w3.org/2000/svg">
<g clip-path="url(#clip0_13873_33818)">
<path d="M92.0533 20.7636H99.2354V18.2368H92.0533V15.204H99.8864V12.6771H94.5954L88.9836 18.2153V27.3567H100.21V24.8298H92.0533V20.7636Z" fill="white" fill-opacity="0.3"/>
<path d="M103.669 22.8274C103.669 23.6584 104.116 25.2132 106.8 25.2132C108.265 25.2132 109.885 24.8513 109.885 23.315C109.885 22.162 108.765 21.8768 107.198 21.4935L104.227 20.7667C102.132 20.2607 100.932 19.028 100.932 16.8016C100.932 15.1856 101.827 12.2938 106.609 12.2938C111.125 12.2938 112.344 15.2469 112.344 17.0439H109.395C109.314 16.3785 109.071 14.8207 106.383 14.8207C105.205 14.8207 103.801 15.2653 103.801 16.5809C103.801 17.7339 104.758 17.9761 105.368 18.1141L108.969 18.982C110.993 19.491 112.844 20.3006 112.844 22.9286C112.844 27.3567 108.327 27.74 107.025 27.74C101.654 27.74 100.719 24.6489 100.719 22.8335L103.669 22.8274Z" fill="white" fill-opacity="0.3"/>
<path d="M120.186 27.3567H117.101V15.204H112.659V12.6771H124.641V15.204H120.186V27.3567Z" fill="white" fill-opacity="0.3"/>
<path d="M131.376 12.6771L136.562 27.3567H133.227L132.271 24.3239H126.838L125.801 27.3567H122.565L127.81 12.6771H131.376ZM127.652 21.797H131.598L129.584 15.9951H129.543L127.652 21.797Z" fill="white" fill-opacity="0.3"/>
<path d="M142.421 27.3567H139.336V15.204H134.893V12.6771H146.876V15.204H142.421V27.3567Z" fill="white" fill-opacity="0.3"/>
<path d="M158.673 12.6771V15.204H150.843V18.2368H158.022V20.7667H150.843V24.8298H159V27.3567H147.77V12.6771H158.673Z" fill="white" fill-opacity="0.3"/>
<path d="M12.1275 22.953C12.1622 23.8401 11.9256 24.7169 11.4488 25.4676C10.9041 26.2203 10.1656 26.8135 9.31084 27.1849C8.4505 27.5649 7.51888 27.7593 6.57744 27.7552C2.30148 27.7307 0.109007 26.0891 0 22.8304H2.98021C2.98192 23.1982 3.07697 23.5596 3.25654 23.8813C3.43612 24.2029 3.69443 24.4743 4.00755 24.6703C4.64829 25.0856 5.40272 25.2934 6.16712 25.2652C6.89565 25.281 7.61535 25.1043 8.25265 24.7531C8.51338 24.6333 8.73526 24.4435 8.89333 24.2051C9.0514 23.9667 9.13937 23.6892 9.14733 23.4038C9.16378 22.5329 8.39559 21.9135 6.84276 21.5455C4.28212 20.9322 2.84241 20.5509 2.52362 20.4017C0.999576 19.6861 0.237554 18.4595 0.237554 16.7218C0.238575 15.8866 0.478228 15.0688 0.928619 14.3636C1.42196 13.6348 2.12834 13.074 2.95245 12.7568C3.84349 12.3833 4.80215 12.1954 5.76914 12.2048C7.17615 12.1623 8.55959 12.5708 9.71499 13.3701C10.3108 13.7757 10.7996 14.318 11.14 14.951C11.4805 15.584 11.6626 16.2892 11.6709 17.007H8.70924C8.68801 16.6652 8.5855 16.3332 8.41013 16.0384C8.23476 15.7436 7.99153 15.4944 7.70042 15.3112C7.12505 14.9452 6.45194 14.7603 5.76914 14.7807C5.16396 14.7682 4.56478 14.9019 4.02298 15.1701C3.74818 15.2877 3.51298 15.481 3.34515 15.7271C3.17732 15.9733 3.08387 16.262 3.07585 16.5593C3.07585 17.3893 3.85741 17.9883 5.42053 18.3563C8.05315 18.9819 9.50623 19.357 9.77977 19.4817C11.3408 20.1747 12.1214 21.3319 12.1214 22.953" fill="white" fill-opacity="0.95"/>
<path d="M26.9916 20.0951C26.9916 22.5872 26.354 24.5212 25.0788 25.897C23.8612 27.2034 22.2035 27.8576 20.1056 27.8596C17.761 27.8596 15.9613 27.1308 14.7067 25.6732C13.4521 24.2155 12.8258 22.2028 12.8279 19.6351C12.8279 17.4558 13.4583 15.6844 14.7191 14.3208C16.021 12.9061 17.761 12.1906 19.939 12.1742C20.8348 12.1499 21.7263 12.3054 22.5601 12.6316C23.394 12.9578 24.1531 13.4478 24.7919 14.0724C26.2584 15.5178 26.9916 17.5213 26.9916 20.0828V20.0951ZM23.9281 20.2668C23.9281 16.6974 22.5645 14.9055 19.8372 14.8912C19.2424 14.8709 18.6526 15.0054 18.1261 15.2813C17.5996 15.5573 17.1547 15.965 16.8354 16.4643C16.1936 17.4641 15.8641 18.6303 15.8883 19.816C15.8525 21.1068 16.2189 22.3771 16.9372 23.453C17.2771 23.9982 17.7533 24.4466 18.3194 24.7545C18.8855 25.0625 19.5221 25.2194 20.1673 25.2101C20.6747 25.216 21.1765 25.1046 21.6331 24.8848C22.0898 24.665 22.4889 24.3428 22.7989 23.9436C23.5517 23.0298 23.9281 21.8032 23.9281 20.2638" fill="white" fill-opacity="0.95"/>
<path d="M38.1381 27.3475H27.6951V12.6526H30.7987V24.6704H38.1381V27.3475Z" fill="white" fill-opacity="0.95"/>
<path d="M47.6771 12.6526L42.6607 27.3475H39.7422L34.769 12.6526H38.0578L41.2663 22.9746L44.4717 12.6526H47.6771Z" fill="white" fill-opacity="0.95"/>
<path d="M59.5424 27.3475H48.3157V12.6526H59.1937V15.25H51.3391V18.3748H58.5551V20.9507H51.3391V24.7501H59.5424V27.3475Z" fill="white" fill-opacity="0.95"/>
<path d="M72.0803 27.3475H69.06V23.5664C69.06 22.8182 68.8605 22.301 68.4615 22.0147C68.118 21.7428 67.5432 21.6069 66.7369 21.6069H63.4451V27.3475H60.4248V12.6556H67.9278C69.3942 12.6556 70.5594 13.1054 71.4232 14.0049C71.798 14.3891 72.0927 14.8432 72.2902 15.3411C72.4877 15.839 72.5841 16.3708 72.5739 16.9059C72.5874 17.6345 72.3881 18.3513 72.0001 18.9697C71.5974 19.6035 70.9873 20.08 70.2725 20.3189C70.8931 20.4787 71.4252 20.8754 71.7533 21.4229C72.002 21.9807 72.1141 22.5892 72.0803 23.1984V27.3475ZM67.3724 15.2101H63.4451V19.1322H67.2892C67.5976 19.1496 67.9065 19.1042 68.1967 18.9988C68.4868 18.8933 68.7523 18.73 68.9767 18.5189C69.1565 18.3438 69.2984 18.1341 69.3939 17.9027C69.4894 17.6712 69.5364 17.4228 69.532 17.1727C69.5377 16.9238 69.4934 16.6763 69.4018 16.4446C69.3101 16.213 69.173 16.0018 68.9983 15.8234C68.7837 15.6164 68.5287 15.4552 68.2491 15.3497C67.9695 15.2443 67.6712 15.1967 67.3724 15.2101Z" fill="white" fill-opacity="0.95"/>
<path d="M107.21 0.00915527L85.5899 21.4995L85.3647 21.7295C85.0562 20.7421 84.3343 19.9938 83.2052 19.4909C82.9337 19.3652 81.4806 18.9941 78.849 18.3655C77.2859 17.9975 76.5043 17.3985 76.5043 16.5685C76.5124 16.2717 76.6056 15.9833 76.7728 15.7373C76.94 15.4912 77.1744 15.2977 77.4484 15.1793C77.9913 14.9112 78.5915 14.7775 79.1976 14.7899C79.8804 14.7695 80.5535 14.9544 81.1289 15.3204C81.4205 15.5028 81.6639 15.752 81.8389 16.047C82.0138 16.342 82.1152 16.6743 82.1346 17.0162H85.0963C85.0892 16.2989 84.9082 15.5938 84.5688 14.9608C84.2294 14.3277 83.7416 13.7852 83.1465 13.3793C81.9895 12.581 80.6054 12.1726 79.1976 12.214C78.2306 12.2046 77.272 12.3925 76.3809 12.766C75.5579 13.0836 74.8519 13.643 74.3571 14.3698C73.9044 15.075 73.6646 15.8945 73.666 16.731C73.6537 18.4605 74.4147 19.6872 75.949 20.4109C76.2637 20.5581 77.7034 20.9393 80.2681 21.5547C81.8169 21.9227 82.5851 22.5421 82.5727 23.413C82.5648 23.6984 82.4768 23.9759 82.3187 24.2143C82.1606 24.4527 81.9388 24.6425 81.678 24.7623C81.0407 25.1135 80.321 25.2902 79.5925 25.2744C78.8281 25.3026 78.0737 25.0948 77.4329 24.6795C77.1194 24.4839 76.8608 24.2126 76.6812 23.8909C76.5015 23.5692 76.4067 23.2075 76.4056 22.8396H73.4161C73.521 25.9184 75.4852 27.5539 79.3087 27.746L66.9683 40.0122H67.1472L107.392 0.00915527H107.21Z" fill="white" fill-opacity="0.95"/>
<path d="M108.5 -1L66.5 41" stroke="white" stroke-opacity="0.95" stroke-width="0.5"/>
</g>
<defs>
<clipPath id="clip0_13873_33818">
<rect width="159" height="40" fill="white"/>
</clipPath>
</defs>
</svg>
