<svg width="43" height="40" viewBox="0 0 43 40" fill="none" xmlns="http://www.w3.org/2000/svg">
<path d="M26.4439 20.764H33.7266V18.2367H26.4439V15.2034H34.3862V12.6761H29.0186L23.3284 18.2141V27.3551H34.7174V24.8278H26.4439V20.764Z" fill="white" fill-opacity="0.7"/>
<path d="M41.8178 0L19.8887 21.4897L19.6573 21.7179C19.3405 20.73 18.613 19.9816 17.466 19.4784C17.1897 19.3551 15.7158 18.9809 13.0457 18.3544C11.4619 17.9872 10.6678 17.3862 10.6678 16.5556C10.6823 15.9561 11.0019 15.494 11.6268 15.1665C12.1403 14.9072 12.7318 14.7782 13.4001 14.7782C14.1652 14.7782 14.8161 14.9553 15.36 15.3097C15.9718 15.7038 16.3117 16.2693 16.3797 17.005H19.3839C19.313 15.4515 18.6549 14.2395 17.4038 13.3678C16.303 12.5911 14.9694 12.2027 13.4001 12.2027C12.3688 12.2027 11.4185 12.387 10.5434 12.7541C9.62496 13.1354 8.93936 13.6712 8.48952 14.3586C8.0368 15.0461 7.80392 15.8327 7.79091 16.7172C7.77644 18.4479 8.54738 19.674 10.1052 20.3969C10.4248 20.5471 11.8843 20.927 14.4835 21.5422C16.0543 21.9093 16.8324 22.5287 16.8194 23.4004C16.8194 23.9589 16.5186 24.4082 15.9125 24.7484C15.3079 25.09 14.6021 25.2601 13.7964 25.2601C12.9213 25.2601 12.1894 25.0617 11.6065 24.6676C10.9397 24.2325 10.5912 23.6187 10.5637 22.8278H7.53923C7.64337 25.905 9.63942 27.5365 13.5144 27.7321L1 40H1.18225L42 0H41.8178Z" fill="white" fill-opacity="0.95"/>
<path d="M42 0L1 40" stroke="white" stroke-opacity="0.95" stroke-width="0.5"/>
</svg>
