<svg width="14" height="14" viewBox="0 0 14 14" fill="none" xmlns="http://www.w3.org/2000/svg">
<path fill-rule="evenodd" clip-rule="evenodd" d="M0.333252 6.99998C0.333252 3.31997 3.31991 0.333313 6.99992 0.333313C10.6799 0.333313 13.6666 3.31997 13.6666 6.99998C13.6666 10.68 10.6799 13.6666 6.99992 13.6666C3.31991 13.6666 0.333252 10.68 0.333252 6.99998ZM1.66659 6.99998C1.66659 9.94 4.0599 12.3333 6.99992 12.3333C9.93994 12.3333 12.3333 9.94 12.3333 6.99998C12.3333 4.05996 9.93994 1.66665 6.99992 1.66665C4.0599 1.66665 1.66659 4.05996 1.66659 6.99998ZM7.42923 4.33331H5.33325V9.66665H6.45647V7.93748H7.4007C7.80882 7.93748 8.15642 7.86196 8.4435 7.71092C8.7323 7.55988 8.95279 7.34894 9.10498 7.07811C9.25716 6.80727 9.33325 6.49477 9.33325 6.1406C9.33325 5.78644 9.25802 5.47394 9.10757 5.2031C8.95885 4.93054 8.74268 4.71786 8.45906 4.56508C8.17545 4.41057 7.83217 4.33331 7.42923 4.33331ZM6.45647 7.03383H7.21911C7.43528 7.03383 7.61341 6.99651 7.75348 6.92185C7.89529 6.84547 8.00078 6.74043 8.06996 6.60675C8.14086 6.47133 8.17631 6.31595 8.17631 6.1406C8.17631 5.96352 8.14086 5.80901 8.06996 5.67706C8.00078 5.54338 7.89529 5.44008 7.75348 5.36717C7.61168 5.29251 7.43182 5.25519 7.21393 5.25519H6.45647V7.03383Z" fill="black" fill-opacity="0.9"/>
</svg>
