<svg width="12" height="12" viewBox="0 0 12 12" fill="none" xmlns="http://www.w3.org/2000/svg">
<path d="M4.07692 3.07692C4.07692 3.62921 3.62921 4.07692 3.07692 4.07692C2.52464 4.07692 2.07692 3.62921 2.07692 3.07692C2.07692 2.52464 2.52464 2.07692 3.07692 2.07692C3.62921 2.07692 4.07692 2.52464 4.07692 3.07692Z" fill="black" fill-opacity="0.9"/>
<path fill-rule="evenodd" clip-rule="evenodd" d="M11.7972 7.88151L7.88102 11.7972C7.61068 12.0675 7.17236 12.0675 6.90202 11.7972L0.206462 5.10221C0.0768234 4.97249 0.00382538 4.79671 0.00366262 4.61328L2.55679e-07 0.693034C-0.000325009 0.310384 0.309734 0 0.692302 0H4.61165C4.79541 0 4.97152 0.0729167 5.1014 0.202962L11.7974 6.90267C12.0676 7.17301 12.0675 7.61133 11.7972 7.88151ZM4.40104 1.33333H1.33333L1.33626 4.40234L7.33333 10.3333L10.3333 7.33333L4.40104 1.33333Z" fill="black" fill-opacity="0.9"/>
</svg>
