<svg width="12" height="12" viewBox="0 0 12 12" fill="none" xmlns="http://www.w3.org/2000/svg">
<path fill-rule="evenodd" clip-rule="evenodd" d="M3.33341 3.33335C3.33341 4.80402 4.52938 6.00002 6.00008 6.00002C7.47078 6.00002 8.66675 4.80402 8.66675 3.33335C8.66675 1.86269 7.47078 0.666687 6.00008 0.666687C4.52938 0.666687 3.33341 1.86269 3.33341 3.33335ZM4.66675 3.33335C4.66675 2.59735 5.26473 2.00002 6.00008 2.00002C6.73543 2.00002 7.33341 2.59735 7.33341 3.33335C7.33341 4.06868 6.73543 4.66669 6.00008 4.66669C5.26473 4.66669 4.66675 4.06868 4.66675 3.33335Z" fill="black" fill-opacity="0.9"/>
<path fill-rule="evenodd" clip-rule="evenodd" d="M1.00008 11.3334C0.815999 11.3334 0.666748 11.1841 0.666748 11V10.6667C0.666748 8.31136 2.86011 6.66669 6.00008 6.66669C9.14005 6.66669 11.3334 8.31136 11.3334 10.6667V11C11.3334 11.1841 11.1842 11.3334 11.0001 11.3334H1.00008ZM9.89477 10H2.10612C2.5048 8.7947 3.99544 8.00002 6.00081 8.00002C8.0061 8.00002 9.49609 8.7947 9.89477 10Z" fill="black" fill-opacity="0.9"/>
</svg>
