<svg width="24" height="24" viewBox="0 0 24 24" fill="none" xmlns="http://www.w3.org/2000/svg">
<path d="M23.9499 2.43009C23.9111 2.24873 23.7778 2.10102 23.6001 2.04493C23.2504 1.91031 22.6563 2.11224 22.6563 2.11224C22.6581 2.11411 1.63036 9.7499 0.429253 10.595C0.170154 10.7764 0.0831707 10.8829 0.0406043 11.0063C-0.168526 11.6084 0.479223 11.8739 0.479223 11.8739L5.89995 13.6575C5.99064 13.6744 6.08502 13.6688 6.17386 13.6407C7.40643 12.8536 18.5773 5.72634 19.2232 5.48702C19.325 5.45523 19.4009 5.49076 19.3805 5.56181C19.1214 6.47608 9.42 15.1888 9.42 15.1888C9.42 15.1888 9.38299 15.2355 9.35893 15.2898L9.34783 15.2823L8.84258 20.7137C8.84258 20.7137 8.6316 22.3777 10.2769 20.7137C11.4391 19.5396 12.5625 18.558 13.1251 18.0793C14.9888 19.3788 16.995 20.8165 17.8592 21.5682C18.1517 21.8561 18.5477 22.0094 18.9549 21.9963C19.7766 21.9645 20.0061 21.054 20.0061 21.054C20.0061 21.054 23.8389 5.47393 23.9666 3.38736C23.9795 3.18357 23.9962 3.05269 23.998 2.91246C24.0054 2.7498 23.9888 2.58714 23.9518 2.43009H23.9499Z" fill="black" fill-opacity="0.9"/>
</svg>
