<svg width="10" height="14" viewBox="0 0 10 14" fill="none" xmlns="http://www.w3.org/2000/svg">
<path d="M0.353516 4.64644L4.64636 0.353592C4.84167 0.158279 5.1582 0.158279 5.35352 0.353592L9.64636 4.64644C9.84167 4.84175 9.84167 5.15828 9.64636 5.35359L8.94299 6.05696C8.74792 6.25203 8.43176 6.25227 8.23633 6.05745L4.99988 2.83003L1.76343 6.05745C1.56812 6.25227 1.25195 6.25203 1.05688 6.05696L0.353516 5.35359C0.158203 5.15828 0.158203 4.84175 0.353516 4.64644Z" fill="currentColor" fill-opacity="0.65"/>
<path d="M0.353516 9.35347L4.64636 13.6464C4.84167 13.8416 5.1582 13.8416 5.35352 13.6464L9.64636 9.35347C9.84167 9.15828 9.84167 8.84163 9.64636 8.64644L8.94299 7.94307C8.74792 7.748 8.43176 7.74776 8.23633 7.94258L4.99988 11.17L1.76343 7.94258C1.56812 7.74776 1.25195 7.748 1.05688 7.94307L0.353516 8.64644C0.158203 8.84163 0.158203 9.15828 0.353516 9.35347Z" fill="currentColor" fill-opacity="0.65"/>
</svg>
