<svg width="40" height="40" viewBox="0 0 40 40" fill="none" xmlns="http://www.w3.org/2000/svg">
<path d="M0 19.9818C0 8.93346 8.93346 0 19.9818 0C31.0301 0 39.9635 8.93346 39.9635 19.9818C39.9635 31.0301 31.0301 39.9635 19.9818 39.9635C8.93346 39.9635 0 31.0301 0 19.9818Z" fill="#17222E"/>
<path d="M30.9999 13.1607C30.1876 13.5181 29.3104 13.778 28.4007 13.8755C29.3429 13.3232 30.0577 12.4459 30.3826 11.3737C29.5053 11.8936 28.5306 12.251 27.5234 12.4784C26.7112 11.6012 25.5415 11.0488 24.2419 11.0488C21.7401 11.0488 19.7257 13.0632 19.7257 15.565C19.7257 15.9224 19.7582 16.2473 19.8557 16.6047C16.1193 16.4097 12.7728 14.6228 10.5634 11.8936C10.1735 12.5759 9.94611 13.3232 9.94611 14.1679C9.94611 15.7274 10.7584 17.1245 11.9605 17.9368C11.2132 17.9043 10.5309 17.7094 9.91362 17.3845C9.91362 17.4169 9.91362 17.4169 9.91362 17.4494C9.91362 19.6263 11.4732 21.4458 13.5201 21.8681C13.1302 21.9656 12.7403 22.0306 12.3179 22.0306C12.0255 22.0306 11.7331 21.9981 11.4732 21.9656C12.058 23.7526 13.715 25.0522 15.6969 25.0847C14.1374 26.2868 12.2204 27.0016 10.1086 27.0016C9.75117 27.0016 9.39377 26.9691 9.03638 26.9366C11.0183 28.2038 13.3901 28.951 15.9568 28.951C24.2419 28.951 28.7905 22.0631 28.7905 16.1173C28.7905 15.9224 28.7905 15.7274 28.7905 15.5325C29.6353 14.8827 30.3826 14.0704 30.9999 13.1607Z" fill="white"/>
</svg>
