<svg width="50" height="51" fill="none" xmlns="http://www.w3.org/2000/svg"><path d="M45.824 31.5c.647-2.118.94-4.354.94-6.589 0-12.882-10.47-23.412-23.411-23.412S0 12.03 0 24.911s10.47 23.412 23.412 23.412c3.294 0 6.47-.706 9.47-2 1.824 1.941 4.412 3.176 7.236 3.176 5.47 0 9.882-4.47 9.882-9.882 0-3.353-1.647-6.353-4.176-8.118zM23.353 46.44c-11.882 0-21.53-9.647-21.53-21.529s9.648-21.53 21.53-21.53c11.882 0 21.53 9.648 21.53 21.53 0 1.941-.236 3.824-.765 5.647-1.236-.53-2.589-.882-4-.882-5.47 0-9.883 4.47-9.883 9.882 0 1.882.53 3.706 1.47 5.177a21.213 21.213 0 01-8.352 1.705zm16.765 1.177c-4.412 0-8.06-3.588-8.06-8.059 0-4.412 3.59-8.059 8.06-8.059 4.411 0 8.058 3.588 8.058 8.06 0 4.47-3.647 8.058-8.058 8.058z" fill="#0090F0"/><path d="M24.295 21.148v-8.883a.93.93 0 00-.942-.941.93.93 0 00-.94.941v8.883a3.852 3.852 0 00-2.942 3.764c0 .824.294 1.588.706 2.236l-3.588 4.235c-.353.412-.294 1 .117 1.294a.843.843 0 00.589.235.915.915 0 00.705-.353l3.589-4.176c.53.294 1.117.412 1.764.412a3.879 3.879 0 003.883-3.883c.059-1.823-1.236-3.353-2.941-3.764zm-.942 5.823c-1.117 0-2-.882-2-2 0-1.118.883-2 2-2 1.118 0 2 .882 2 2 .06 1.059-.882 2-2 2zM7.765 23.97H4a.93.93 0 00-.94.942c0 .53.41.941.94.941h3.765a.93.93 0 00.941-.94.93.93 0 00-.941-.942zM23.353 4.618a.93.93 0 00-.942.94v3.766c0 .529.471.94.942.94a.93.93 0 00.94-.94V5.559a.93.93 0 00-.94-.941zM42.765 23.97H39a.93.93 0 00-.94.942c0 .53.41.941.94.941h3.765a.93.93 0 00.941-.94.93.93 0 00-.941-.942zM23.353 39.56a.93.93 0 00-.942.94v3.765c0 .53.412.941.942.941.529 0 .94-.412.94-.941V40.5a.929.929 0 00-.94-.94zm13.471 2.292l.647-.588c1.059-.94 1.94-1.94 1.94-3.117 0-1.353-.882-2.294-2.587-2.294a4.2 4.2 0 00-2.412.764l.47 1.236c.353-.295.942-.589 1.589-.589.823 0 1.176.47 1.176 1.06 0 .823-.823 1.646-2.412 3.117l-.823.823v1.06h5.176V41.91l-2.764-.059zm8.47-1.587v-4.294h-2.059l-2.764 4.47v1.118h3.235v1.765h1.588V41.56h.882v-1.294h-.882zm-1.647-1.588v1.588H42l1-1.588c.235-.47.412-.882.647-1.353h.059c-.06.47-.06.883-.06 1.353z" fill="#0090F0"/></svg>