<svg width="50" height="50" fill="none" xmlns="http://www.w3.org/2000/svg"><g clip-path="url(#clip0)" fill="#00F287"><path d="M38.541 19.79H9.374a3.129 3.129 0 00-3.125 3.126v2.083a19.743 19.743 0 0010.715 17.594 1.043 1.043 0 00.956-1.852A17.664 17.664 0 018.332 25v-2.083c0-.575.467-1.042 1.042-1.042H38.54c.575 0 1.042.467 1.042 1.042V25a17.657 17.657 0 01-9.59 15.74 1.043 1.043 0 00.956 1.852A19.734 19.734 0 0041.665 25v-2.083a3.129 3.129 0 00-3.125-3.125z"/><path d="M47.84 41.266a1.044 1.044 0 00-.963-.644H1.042a1.044 1.044 0 00-.737 1.78l2.335 2.337a7.248 7.248 0 005.157 2.135h32.321a7.26 7.26 0 005.16-2.135l2.336-2.338a1.04 1.04 0 00.225-1.135zm-4.036 2a5.179 5.179 0 01-3.684 1.525H7.797c-1.39 0-2.7-.542-3.684-1.525l-.558-.559h40.807l-.558.559zm4.182-18.556c-2.807-1.804-7.29.154-7.792.382a1.043 1.043 0 00.864 1.898c1.004-.457 4.225-1.538 5.8-.523.71.456 1.059 1.341 1.059 2.7 0 4.17-8.413 6.691-11.661 7.312l-.738.146a1.042 1.042 0 10.402 2.042l.732-.144C37.198 38.42 50 35.908 50 29.167c0-2.096-.679-3.594-2.014-4.457zM32.069 11.066c1.693-2.116 1.693-5.431 0-7.548a1.039 1.039 0 00-1.465-.162 1.04 1.04 0 00-.163 1.464c1.073 1.34 1.073 3.605-.002 4.948-1.695 2.117-1.695 5.432 0 7.548a1.038 1.038 0 001.465.163 1.04 1.04 0 00.162-1.465c-1.075-1.34-1.075-3.604.002-4.948zm-6.259-.001c1.696-2.116 1.696-5.43 0-7.548a1.04 1.04 0 00-1.464-.162 1.04 1.04 0 00-.163 1.464c1.075 1.34 1.075 3.605-.002 4.948-1.694 2.117-1.694 5.432 0 7.549a1.038 1.038 0 001.465.162 1.04 1.04 0 00.162-1.465c-1.073-1.34-1.073-3.604.002-4.948zm-6.242.003c1.694-2.117 1.694-5.431 0-7.548a1.042 1.042 0 00-1.627 1.3c1.073 1.34 1.073 3.604-.002 4.948-1.696 2.117-1.696 5.431 0 7.548a1.047 1.047 0 001.465.165 1.04 1.04 0 00.162-1.465c-1.075-1.342-1.075-3.604.002-4.948z"/></g><defs><clipPath id="clip0"><path fill="#fff" d="M0 0h50v50H0z"/></clipPath></defs></svg>