<svg width="49" height="51" fill="none" xmlns="http://www.w3.org/2000/svg"><path d="M19.906 33.922H24.5a.766.766 0 00.766-.766V31.17a10.65 10.65 0 002.028-.842l1.406 1.406a.788.788 0 001.082 0l3.249-3.249a.766.766 0 000-1.082l-1.406-1.406c.35-.647.633-1.326.842-2.028h1.986a.766.766 0 00.766-.766V18.61a.766.766 0 00-.766-.765h-1.986a10.618 10.618 0 00-.842-2.029l1.406-1.405a.766.766 0 000-1.083l-3.249-3.248a.788.788 0 00-1.082 0l-1.406 1.405a10.618 10.618 0 00-2.028-.841V8.655a.766.766 0 00-.766-.765h-4.594a.766.766 0 00-.765.765v1.986a10.62 10.62 0 00-2.029.842l-1.405-1.405a.788.788 0 00-1.083 0l-3.248 3.248a.766.766 0 000 1.083l1.405 1.405a10.63 10.63 0 00-.842 2.029H9.953a.766.766 0 00-.765.765v4.594c0 .423.342.766.765.766h1.986c.21.702.492 1.381.842 2.028l-1.405 1.406a.766.766 0 000 1.082l3.248 3.249a.788.788 0 001.082 0l1.406-1.406c.647.35 1.326.633 2.029.842v1.986c0 .423.342.766.765.766zm3.828-1.531h-3.062v-1.809a.766.766 0 00-.59-.745 9.1 9.1 0 01-2.693-1.117.766.766 0 00-.944.11l-1.28 1.28L13 27.944l1.28-1.28a.766.766 0 00.11-.943 9.099 9.099 0 01-1.118-2.694.766.766 0 00-.745-.59h-1.808v-3.062h1.808a.766.766 0 00.745-.59c.225-.95.6-1.856 1.118-2.693a.766.766 0 00-.11-.944L13 13.868l2.165-2.165 1.28 1.28c.25.25.641.297.944.11a9.1 9.1 0 012.693-1.118.766.766 0 00.59-.745V9.422h3.062v1.808c0 .355.244.663.59.745a9.1 9.1 0 012.693 1.118c.302.187.693.14.944-.11l1.28-1.28 2.166 2.165-1.28 1.28a.765.765 0 00-.11.944 9.101 9.101 0 011.117 2.694c.082.345.39.589.745.589h1.808v3.063H31.88a.766.766 0 00-.745.589c-.224.95-.6 1.857-1.118 2.694a.766.766 0 00.11.943l1.28 1.28-2.165 2.166-1.28-1.28a.767.767 0 00-.944-.11 9.1 9.1 0 01-2.693 1.117.766.766 0 00-.59.745v1.809z" fill="#00F287" stroke="#00F287" stroke-width=".5"/><path d="M22.203 27.797c3.8 0 6.89-3.091 6.89-6.89 0-3.8-3.09-6.891-6.89-6.891s-6.89 3.09-6.89 6.89 3.09 6.89 6.89 6.89zm0-12.25a5.365 5.365 0 015.36 5.36 5.365 5.365 0 01-5.36 5.359 5.365 5.365 0 01-5.36-5.36 5.365 5.365 0 015.36-5.36z" fill="#00F287" stroke="#00F287" stroke-width=".5"/><path d="M13.023 49.99h19.899a.766.766 0 00.766-.765v-5.353c0-1.113.478-2.304 1.821-2.304h1.51c2.764 0 5.856-2.29 5.856-5.355v-6.895h2.317a2.26 2.26 0 001.915-1.058 2.303 2.303 0 00.14-2.226l-5.994-12.725c-.866-1.838-1.815-3.372-2.902-4.69-2.521-3.053-5.779-5.326-9.42-6.573A19.545 19.545 0 0022.587 1c-4.209 0-8.44 1.343-11.916 3.78-4.979 3.494-8.345 9.173-9.005 15.192-.695 6.346 1.376 12.62 5.682 17.217 3.12 3.331 4.91 7.718 4.91 12.036 0 .422.342.765.765.765zm19.133-1.531H13.772c-.198-4.45-2.107-8.901-5.306-12.317-4-4.27-5.924-10.103-5.278-16.003C3.8 14.55 6.926 9.279 11.55 6.034c3.22-2.259 7.14-3.503 11.037-3.503 2.012 0 3.98.324 5.848.964 3.374 1.155 6.394 3.264 8.735 6.1 1.004 1.217 1.887 2.646 2.698 4.367l5.993 12.725a.772.772 0 01-.047.753.732.732 0 01-.622.347h-3.083a.766.766 0 00-.765.766v7.66c0 2.154-2.326 3.824-4.326 3.824H35.51c-1.974 0-3.353 1.577-3.353 3.835v4.587z" fill="#00F287" stroke="#00F287" stroke-width=".6"/></svg>