<svg width="53" height="53" fill="none" xmlns="http://www.w3.org/2000/svg"><path d="M9 39v4H3v-6.712m42 .002V43h-6v-4m-4-28H13L7 23h34l-6-12zM7 19H1v4h6v-4zm40 0h-6v4h6v-4z" stroke="#00F287" stroke-width="2" stroke-miterlimit="10" stroke-linecap="round" stroke-linejoin="round"/><path d="M14 39H9a8 8 0 010-16h30a8 8 0 010 16H14z" stroke="#00F287" stroke-width="2" stroke-miterlimit="10" stroke-linecap="round" stroke-linejoin="round"/><path d="M43 29H5v4h38v-4zm-26 4h14l-2 6H19l-2-6zm16-4l-3-6m-15 6l3-6" stroke="#00F287" stroke-width="2" stroke-miterlimit="10" stroke-linecap="round" stroke-linejoin="round"/></svg>