<svg width="54" height="54" fill="none" xmlns="http://www.w3.org/2000/svg"><path d="M53.322 23.72c-.396-.396-.962-.678-1.527-.678H42.86v-1.414h7.35c.453 0 .849-.17 1.131-.453l.057-.056c.283-.283.509-.735.509-1.188V6.248c0-.453-.17-.905-.509-1.188-.283-.282-.735-.509-1.188-.509H28.047c-.452 0-.905.17-1.187.51-.283.282-.51.734-.51 1.187V19.93c0 .453.17.905.51 1.188.282.283.735.509 1.187.509h7.407v1.413H2.262c-.622 0-1.188.227-1.583.679-.396.396-.679.961-.679 1.583s.226 1.188.679 1.584c.339.339.848.565 1.413.622v21.09c0 .51.396.849.848.849h48.12a.833.833 0 00.848-.848v-21.09c.565-.057 1.074-.283 1.413-.622.396-.396.679-.962.679-1.584 0-.622-.226-1.187-.678-1.583zM28.102 6.304h22.11v10.63h-22.11V6.305zm0 13.571v-1.188h22.11v1.188h-22.11zm13.006 1.753v1.413H37.15v-1.413h3.958zM26.124 47.695H3.845v-9.217h22.279v9.217zM3.845 36.725v-9.16h22.279v9.16H3.845zm46.367 10.97H27.876v-20.13h22.335v20.13zm1.865-22.053c-.113.114-.226.17-.339.17H2.318c-.113 0-.282-.056-.339-.17-.113-.113-.17-.226-.17-.339 0-.113.057-.283.17-.339.113-.113.226-.17.34-.17h49.419c.113 0 .283.057.34.17.113.056.17.17.17.34 0 .112-.057.282-.17.338z" fill="#00F287"/><path d="M18.49 42.267l-6.955-.057a.833.833 0 00-.848.849c0 .508.396.848.848.848l6.955.056a.833.833 0 00.848-.848c.057-.452-.339-.848-.848-.848zm0-10.8l-6.955-.056a.833.833 0 00-.848.848c-.057.452.34.848.848.848l6.955.057a.833.833 0 00.848-.849.833.833 0 00-.848-.848z" fill="#00F287"/></svg>