<svg width="54" height="54" fill="none" xmlns="http://www.w3.org/2000/svg"><path fill-rule="evenodd" clip-rule="evenodd" d="M12.375 15.75h-6.75a3.38 3.38 0 00-3.375 3.375v15.75a3.38 3.38 0 003.375 3.375h5.625v-7.876c0-.62.504-1.125 1.125-1.125h29.25c.621 0 1.125.504 1.125 1.125v7.876h5.625a3.38 3.38 0 003.375-3.375v-15.75a3.38 3.38 0 00-3.375-3.375h-36zM42.75 40.5h5.625A5.631 5.631 0 0054 34.875v-15.75c0-3.1-2.522-5.625-5.625-5.625H42.75V5.625c0-3.1-2.522-5.625-5.625-5.625h-20.25a5.631 5.631 0 00-5.625 5.625V13.5H5.625A5.631 5.631 0 000 19.125v15.75c0 3.1 2.522 5.625 5.625 5.625h5.625v7.874c0 3.1 2.523 5.625 5.625 5.625h20.25a5.631 5.631 0 005.625-5.625V40.5zm-2.25-1.149v9.023a3.38 3.38 0 01-3.375 3.375h-20.25a3.38 3.38 0 01-3.375-3.375V31.5h27v7.852zm0-33.726V13.5h-27V5.625a3.38 3.38 0 013.375-3.375h20.25A3.38 3.38 0 0140.5 5.625zm-5.625 41.626h-13.5a1.125 1.125 0 010-2.25h13.5a1.125 1.125 0 010 2.25zm-13.5-4.501h13.5a1.125 1.125 0 000-2.25h-13.5a1.125 1.125 0 000 2.25zm13.5-4.5h-4.5a1.125 1.125 0 010-2.25h4.5a1.125 1.125 0 010 2.25z" fill="#00F287"/></svg>