<svg width="50" height="50" fill="none" xmlns="http://www.w3.org/2000/svg"><path d="M45.824 31c.647-2.118.94-4.354.94-6.589C46.765 11.53 36.295 1 23.354 1S0 11.53 0 24.411c0 12.883 10.47 23.412 23.412 23.412 3.294 0 6.47-.706 9.47-2 1.824 1.941 4.412 3.176 7.236 3.176C45.588 49 50 44.53 50 39.117c0-3.353-1.647-6.353-4.176-8.118zM23.353 45.94c-11.882 0-21.53-9.646-21.53-21.529 0-11.882 9.648-21.53 21.53-21.53 11.882 0 21.53 9.648 21.53 21.53 0 1.941-.236 3.824-.765 5.647-1.236-.53-2.589-.882-4-.882-5.47 0-9.883 4.47-9.883 9.882 0 1.883.53 3.706 1.47 5.177a21.213 21.213 0 01-8.352 1.706zm16.765 1.177c-4.412 0-8.06-3.588-8.06-8.059 0-4.411 3.59-8.059 8.06-8.059 4.411 0 8.058 3.589 8.058 8.06 0 4.47-3.647 8.058-8.058 8.058z" fill="#00F287"/><path d="M24.295 20.647v-8.882a.93.93 0 00-.942-.941.93.93 0 00-.94.941v8.882a3.852 3.852 0 00-2.942 3.765c0 .824.294 1.588.706 2.235l-3.588 4.236c-.353.411-.294 1 .117 1.294a.843.843 0 00.589.235.92.92 0 00.705-.353l3.589-4.176c.53.294 1.117.411 1.764.411a3.878 3.878 0 003.883-3.882c.059-1.823-1.236-3.353-2.941-3.765zm-.942 5.824c-1.117 0-2-.882-2-2 0-1.118.883-2 2-2 1.118 0 2 .882 2 2 .06 1.059-.882 2-2 2zM7.765 23.47H4a.93.93 0 00-.94.942c0 .53.41.941.94.941h3.765a.93.93 0 00.941-.94.93.93 0 00-.941-.942zM23.353 4.118a.93.93 0 00-.942.94v3.766c0 .529.471.94.942.94a.93.93 0 00.94-.94V5.059a.93.93 0 00-.94-.941zM42.765 23.47H39a.93.93 0 00-.94.942c0 .53.41.941.94.941h3.765a.93.93 0 00.941-.94.93.93 0 00-.941-.942zM23.353 39.06a.93.93 0 00-.942.94v3.765c0 .53.412.941.942.941a.93.93 0 00.94-.94V40a.93.93 0 00-.94-.94zm13.471 2.293l.647-.589c1.059-.94 1.94-1.94 1.94-3.117 0-1.353-.882-2.294-2.587-2.294a4.2 4.2 0 00-2.412.764l.47 1.236c.353-.294.942-.589 1.589-.589.823 0 1.176.471 1.176 1.06 0 .823-.823 1.646-2.412 3.117l-.823.823v1.06h5.176V41.41l-2.764-.058zm8.47-1.588v-4.294h-2.059l-2.764 4.47v1.118h3.235v1.765h1.588V41.06h.882v-1.294h-.882zm-1.647-1.588v1.588H42l1-1.588c.235-.47.412-.882.647-1.353h.059c-.06.47-.06.883-.06 1.353z" fill="#00F287"/></svg>