<svg width="54" height="54" fill="none" xmlns="http://www.w3.org/2000/svg"><g clip-path="url(#clip0)" stroke="#00F287" stroke-width="2" stroke-miterlimit="10" stroke-linejoin="round"><path d="M44.25 36.583l-5.75 5.75-3.833-3.833" stroke-linecap="round"/><path d="M39.458 49.042a9.583 9.583 0 100-19.167 9.583 9.583 0 000 19.167z"/><path d="M10.085 18.622c6.691-6.693 17.547-6.704 24.25 0m4.851-6.566c-9.372-9.37-24.568-9.384-33.956 0m9.703 13.131c4.017-4.016 10.53-4.023 14.553 0m4.849-6.565c-6.691-6.693-17.549-6.704-24.25 0m19.401 6.565c-4.02-4.016-10.528-4.023-14.553 0m7.275 12.42a3.43 3.43 0 100-6.862 3.43 3.43 0 000 6.862z" stroke-linecap="round"/></g><defs><clipPath id="clip0"><path fill="#fff" transform="translate(4 4)" d="M0 0h46v46H0z"/></clipPath></defs></svg>