<svg width="134" height="61" fill="none" xmlns="http://www.w3.org/2000/svg"><path fill-rule="evenodd" clip-rule="evenodd" d="M1 18.376c0 4.573 2.387 6.658 8.592 6.658h.22c6.206 0 8.592-2.085 8.592-6.658v-.731c0-3.695-1.432-5.488-5.287-6.365l-5.36-1.208c-1.58-.33-1.837-.658-1.837-1.792v-.768c0-1.866.625-2.342 3.672-2.342h.22c3.048 0 3.672.476 3.672 2.341v.805c0 .256.11.366.367.366h4.04c.256 0 .366-.11.366-.366v-.805c0-4.572-2.313-6.657-8.445-6.657h-.22C3.46.854 1.147 2.939 1.147 7.51v.769c0 1.756.367 3.073 1.138 3.987.771.878 2.167 1.537 4.186 2.012l5.36 1.207c1.433.33 1.8.842 1.8 2.158v.732c0 1.866-.661 2.341-3.819 2.341h-.22c-3.158 0-3.819-.475-3.819-2.341v-.805c0-.256-.11-.365-.367-.365H1.367c-.257 0-.367.11-.367.365v.805h0zM36.616 5.463c.257 0 .368-.11.368-.366V1.512c0-.256-.11-.365-.368-.365H22.003c-.257 0-.367.11-.367.365v22.864c0 .256.11.365.367.365h14.613c.257 0 .368-.11.368-.365V20.79c0-.256-.11-.366-.368-.366H26.41v-5.45h9.106c.257 0 .367-.11.367-.367v-3.585c0-.256-.11-.365-.367-.365H26.41V5.463h10.207zm20.746 18.803l-4.26-7.755c2.791-.732 4.076-2.78 4.076-6.329V7.768c0-4.537-2.093-6.622-6.756-6.622H40.73c-.257 0-.367.11-.367.366v22.863c0 .257.11.366.367.366h4.039c.257 0 .367-.11.367-.366v-7.572h3.047l3.819 7.646c.11.183.257.292.44.292h4.664c.22 0 .33-.11.33-.292l-.073-.183zM45.135 5.463h4.186c2.717 0 3.084.33 3.084 2.305v2.414c0 1.976-.367 2.305-3.084 2.305h-4.186V5.463zm32.532-3.878c.11-.256-.037-.438-.294-.438h-4.296c-.184 0-.33.073-.404.256L69.442 12.34l-.882 3.146a47.43 47.43 0 00-.66 3.402c-.22-1.354-.441-2.488-.698-3.402-.22-.915-.514-2.012-.845-3.22l-3.23-10.864c-.074-.183-.221-.256-.404-.256h-4.296c-.22 0-.33.11-.33.292l.036.147 7.16 22.827c.11.22.257.329.44.329h4.333c.184 0 .33-.11.44-.33l7.16-22.827zM95.18 5.463c.257 0 .367-.11.367-.366V1.512c0-.256-.11-.365-.367-.365H80.567c-.257 0-.367.11-.367.365v22.864c0 .256.11.365.367.365h14.614c.257 0 .367-.11.367-.365V20.79c0-.256-.11-.366-.367-.366H84.973v-5.45h9.106c.257 0 .368-.11.368-.367v-3.585c0-.256-.11-.365-.368-.365h-9.106V5.463h10.208zm20.745 18.803l-4.259-7.755c2.791-.732 4.076-2.78 4.076-6.329V7.768c0-4.537-2.093-6.622-6.756-6.622h-9.694c-.257 0-.367.11-.367.366v22.863c0 .257.11.366.367.366h4.039c.257 0 .367-.11.367-.366v-7.572h3.048l3.819 7.646c.11.183.257.292.44.292h4.663c.22 0 .331-.11.331-.292l-.074-.183zM103.699 5.463h4.186c2.717 0 3.085.33 3.085 2.305v2.414c0 1.976-.367 2.305-3.085 2.305h-4.186V5.463zM34.15 26.69c0-.369-.158-.527-.528-.527H27.55c-.264 0-.475.158-.633.474l-6.864 15.307c-1.003 2.157-1.69 3.998-2.164 5.523-.476-1.525-1.215-3.366-2.218-5.523L8.807 26.637c-.158-.316-.37-.474-.633-.474H2.102c-.37 0-.528.158-.528.526v32.877c0 .368.159.526.528.526h5.597c.37 0 .528-.158.528-.526V47.52c0-3.261-.106-6.523-.37-9.836 1.109 3.84 2.165 6.417 3.696 9.836l3.168 7.154c.158.263.316.368.58.368h5.122c.264 0 .475-.105.58-.368l3.169-7.154c1.53-3.42 2.587-5.997 3.695-9.836-.264 3.313-.37 6.575-.37 9.836v12.046c0 .368.16.526.529.526h5.596c.37 0 .528-.158.528-.526V26.689zm32.998 32.823L55.744 26.584c-.105-.263-.316-.42-.634-.42h-5.28c-.316 0-.527.157-.633.42l-11.404 32.93c-.106.367.053.578.422.578h6.072c.316 0 .528-.158.633-.421l2.06-6.154h10.98l2.06 6.154c.105.263.316.42.633.42h6.072c.317 0 .475-.104.475-.367l-.053-.21zM49.04 47.415l1.373-4.156c.95-2.893 1.637-5.313 2.059-7.311.422 1.998 1.109 4.418 2.06 7.311l1.372 4.156H49.04zm41.974 6.996c0-.369-.158-.526-.528-.526h-12.83V26.689c0-.368-.158-.526-.528-.526H71.32c-.37 0-.528.158-.528.526v32.877c0 .368.158.526.528.526h19.165c.37 0 .528-.158.528-.526V54.41zm24.445 0c0-.369-.158-.526-.528-.526h-12.829V26.689c0-.368-.159-.526-.529-.526h-5.807c-.37 0-.528.158-.528.526v32.877c0 .368.158.526.528.526h19.165c.37 0 .528-.158.528-.526V54.41zm13.475 5.735c2.863 0 4.168-1.483 4.168-5.34v-.137c0-3.856-1.305-5.34-4.168-5.34h-.458c-2.314 0-3.435.89-3.985 3.287l-.756 3.331c-.206.981-.412 1.141-1.122 1.141h-.481c-1.168 0-1.466-.388-1.466-2.282v-.137c0-1.894.298-2.282 1.466-2.282h.504c.16 0 .229-.068.229-.228v-2.51c0-.16-.069-.228-.229-.228h-.504c-2.863 0-4.169 1.437-4.169 5.248v.137c0 3.81 1.306 5.248 4.169 5.248h.481c1.099 0 1.923-.228 2.496-.707.55-.48.962-1.346 1.26-2.601l.755-3.332c.207-.89.527-1.118 1.352-1.118h.458c1.168 0 1.466.411 1.466 2.374v.137c0 1.962-.298 2.373-1.466 2.373h-.504c-.16 0-.229.068-.229.228v2.51c0 .16.069.228.229.228h.504v0zm-6.642-23.275c-2.771 0-4.145 1.37-4.145 4.199v6.024c0 .16.068.228.229.228h14.314c.161 0 .229-.068.229-.228v-2.51c0-.16-.068-.228-.229-.228h-4.443V41.07c0-2.83-1.374-4.199-4.145-4.199h-1.81zm1.809 2.967c1.237 0 1.443.228 1.443 1.916v2.602h-4.695v-2.602c0-1.688.206-1.916 1.443-1.916h1.809zm8.566-14.947l.092-.022c.114 0 .16.068.16.205v2.624a.274.274 0 01-.183.274l-2.68.89v4.746l2.68.89a.275.275 0 01.183.274v2.624c0 .16-.091.229-.252.183L118.33 32.65a.275.275 0 01-.183-.274v-2.282c0-.137.068-.228.183-.274l14.337-4.929zm-5.268 7.827v-2.966l-1.809.593c-1.26.41-2.313.707-3.184.89.871.183 1.924.48 3.184.89l1.809.593zm1.489-8.67c2.932 0 4.214-1.484 4.214-5.477v-.138c0-3.993-1.282-5.476-4.214-5.476h-.687c-.161 0-.229.068-.229.228v2.51c0 .16.068.229.229.229h.687c1.191 0 1.512.41 1.512 2.51v.137c0 2.099-.321 2.51-1.512 2.51h-6.711c-1.191 0-1.511-.411-1.511-2.51v-.138c0-2.099.32-2.51 1.511-2.51h.687c.161 0 .229-.068.229-.228v-2.51c0-.16-.068-.228-.229-.228h-.687c-2.931 0-4.214 1.483-4.214 5.476v.138c0 3.993 1.283 5.476 4.214 5.476h6.711zm-8.039-22.454c0-.16-.068-.229-.229-.229h-2.244c-.161 0-.229.069-.229.229v9.082c0 .16.068.228.229.228h14.314c.161 0 .229-.069.229-.228V1.594c0-.16-.068-.229-.229-.229h-2.244c-.161 0-.229.069-.229.229v6.343h-3.413V2.278c0-.16-.068-.228-.229-.228h-2.244c-.161 0-.229.068-.229.228v5.66h-3.253V1.593h0z" fill="#010005" stroke="#010005" stroke-width=".216" stroke-miterlimit="22.926"/></svg>