<?xml version="1.0" encoding="utf-8"?><svg viewBox="0 0 134 61" xmlns="http://www.w3.org/2000/svg" xmlns:xlink="http://www.w3.org/1999/xlink"><style>:root>svg{display:none}:root>svg:target{display:block}</style><svg fill="none" viewBox="0 0 18 12" id="acco_arrow" xmlns="http://www.w3.org/2000/svg"><path d="M1.313 1.75l7.5 7.5 7.5-7.5" stroke="#D9D9D9" stroke-width="3"/></svg><svg fill="none" viewBox="0 0 18 12" id="acco_arrow_blue" xmlns="http://www.w3.org/2000/svg"><path d="M1.313 1.75l7.5 7.5 7.5-7.5" stroke="#0090F0" stroke-width="3"/></svg><svg fill="none" viewBox="0 0 22 21" id="arrow_left" xmlns="http://www.w3.org/2000/svg"><path d="M2 10.5l9-9m-9 9l9 9m-9-9h19.5" stroke="#000" stroke-width="2"/></svg><svg fill="none" viewBox="0 0 22 21" id="arrow_right" xmlns="http://www.w3.org/2000/svg"><path d="M20 10.5l-9-9m9 9l-9 9m9-9H.5" stroke="#000" stroke-width="2"/></svg><svg fill="none" viewBox="0 0 41 15" id="big_arrow_right" xmlns="http://www.w3.org/2000/svg"><path fill-rule="evenodd" clip-rule="evenodd" d="M35.087 8.137a.268.268 0 000-.345l-6.32-6.772a.249.249 0 00-.336 0l-.615.663a.233.233 0 00-.028.317l4.67 5.043H3.435a.209.209 0 00-.224.23v1.384a.209.209 0 00.224.23h29.023L27.816 13.9a.269.269 0 000 .346l.615.663a.224.224 0 00.336 0l6.32-6.772z" fill="#109FFF"/></svg><svg fill="none" viewBox="0 0 50 51" id="clock" xmlns="http://www.w3.org/2000/svg"><path d="M45.824 31.5c.647-2.118.94-4.354.94-6.589 0-12.882-10.47-23.412-23.411-23.412S0 12.03 0 24.911s10.47 23.412 23.412 23.412c3.294 0 6.47-.706 9.47-2 1.824 1.941 4.412 3.176 7.236 3.176 5.47 0 9.882-4.47 9.882-9.882 0-3.353-1.647-6.353-4.176-8.118zM23.353 46.44c-11.882 0-21.53-9.647-21.53-21.529s9.648-21.53 21.53-21.53c11.882 0 21.53 9.648 21.53 21.53 0 1.941-.236 3.824-.765 5.647-1.236-.53-2.589-.882-4-.882-5.47 0-9.883 4.47-9.883 9.882 0 1.882.53 3.706 1.47 5.177a21.213 21.213 0 01-8.352 1.705zm16.765 1.177c-4.412 0-8.06-3.588-8.06-8.059 0-4.412 3.59-8.059 8.06-8.059 4.411 0 8.058 3.588 8.058 8.06 0 4.47-3.647 8.058-8.058 8.058z" fill="#0090F0"/><path d="M24.295 21.148v-8.883a.93.93 0 00-.942-.941.93.93 0 00-.94.941v8.883a3.852 3.852 0 00-2.942 3.764c0 .824.294 1.588.706 2.236l-3.588 4.235c-.353.412-.294 1 .117 1.294a.843.843 0 00.589.235c.235 0 .529-.117.705-.353l3.589-4.176c.53.294 1.117.412 1.764.412a3.879 3.879 0 003.883-3.883c.059-1.823-1.236-3.353-2.941-3.764zm-.942 5.823c-1.117 0-2-.882-2-2 0-1.118.883-2 2-2 1.118 0 2 .882 2 2 .06 1.059-.882 2-2 2zM7.765 23.97H4a.93.93 0 00-.94.942c0 .53.41.941.94.941h3.765a.93.93 0 00.941-.94.93.93 0 00-.941-.942zM23.353 4.618a.93.93 0 00-.942.94v3.766c0 .529.471.94.942.94a.93.93 0 00.94-.94V5.559a.93.93 0 00-.94-.941zM42.765 23.97H39a.93.93 0 00-.94.942c0 .53.41.941.94.941h3.765a.93.93 0 00.941-.94.93.93 0 00-.941-.942zM23.353 39.56a.93.93 0 00-.942.94v3.765c0 .53.412.941.942.941.529 0 .94-.412.94-.941V40.5a.929.929 0 00-.94-.94zM36.824 41.852l.647-.588c1.059-.94 1.94-1.94 1.94-3.117 0-1.353-.882-2.294-2.587-2.294a4.2 4.2 0 00-2.412.764l.47 1.236c.353-.295.942-.589 1.589-.589.823 0 1.176.47 1.176 1.06 0 .823-.823 1.646-2.412 3.117l-.823.823v1.06h5.176V41.91l-2.764-.059zM45.294 40.265v-4.294h-2.059l-2.764 4.47v1.118h3.235v1.765h1.588V41.56h.882v-1.294h-.882zm-1.647-1.588v1.588H42l1-1.588c.235-.47.412-.882.647-1.353h.059c-.06.47-.06.883-.06 1.353z" fill="#0090F0"/></svg><svg fill="none" viewBox="0 0 12 12" id="close_ico" xmlns="http://www.w3.org/2000/svg"><path d="M1 1l10 10M1 11L11 1" stroke="#37434B" stroke-width="2" stroke-linecap="round" stroke-linejoin="bevel"/></svg><svg fill="none" viewBox="0 0 54 54" id="good_ico-1" xmlns="http://www.w3.org/2000/svg"><path d="M53.322 23.72c-.396-.396-.962-.678-1.527-.678H42.86v-1.414h7.35c.453 0 .849-.17 1.131-.453l.057-.056c.283-.283.509-.735.509-1.188V6.248c0-.453-.17-.905-.509-1.188-.283-.282-.735-.509-1.188-.509H28.047c-.452 0-.905.17-1.187.51-.283.282-.51.734-.51 1.187V19.93c0 .453.17.905.51 1.188.282.283.735.509 1.187.509h7.407v1.413H2.262c-.622 0-1.188.227-1.583.679-.396.396-.679.961-.679 1.583s.226 1.188.679 1.584c.339.339.848.565 1.413.622v21.09c0 .51.396.849.848.849H51.06a.833.833 0 00.848-.848V27.509c.565-.057 1.074-.283 1.413-.622.396-.396.679-.962.679-1.584 0-.622-.226-1.187-.678-1.583zM28.102 6.304h22.11v10.63h-22.11V6.305zm0 13.571v-1.188h22.11v1.188H28.102zm13.006 1.753v1.413H37.15v-1.413h3.958zM26.124 47.695H3.845v-9.217h22.279v9.217zM3.845 36.725v-9.16h22.279v9.16H3.845zm46.367 10.97H27.876v-20.13h22.335v20.13zm1.865-22.053c-.113.114-.226.17-.339.17H2.318c-.113 0-.282-.056-.339-.17-.113-.113-.17-.226-.17-.339 0-.113.057-.283.17-.339.113-.113.226-.17.34-.17h49.419c.113 0 .283.057.34.17.113.056.17.17.17.34 0 .112-.057.282-.17.338z" fill="#00F287"/><path d="M18.49 42.267l-6.955-.057a.833.833 0 00-.848.849c0 .508.396.848.848.848l6.955.056a.833.833 0 00.848-.848c.057-.452-.339-.848-.848-.848zM18.49 31.467l-6.955-.056a.833.833 0 00-.848.848c-.057.452.34.848.848.848l6.955.057a.833.833 0 00.848-.849.833.833 0 00-.848-.848z" fill="#00F287"/></svg><svg fill="none" viewBox="0 0 50 50" id="good_ico-2" xmlns="http://www.w3.org/2000/svg"><g clip-path="url(#iclip0)" fill="#00F287"><path d="M38.541 19.79H9.374a3.129 3.129 0 00-3.125 3.126v2.083a19.743 19.743 0 0010.715 17.594 1.043 1.043 0 00.956-1.852A17.664 17.664 0 018.332 25v-2.083c0-.575.467-1.042 1.042-1.042H38.54c.575 0 1.042.467 1.042 1.042v2.083a17.657 17.657 0 01-9.59 15.74 1.043 1.043 0 00.956 1.852 19.734 19.734 0 0010.717-17.592v-2.083a3.129 3.129 0 00-3.125-3.125z"/><path d="M47.84 41.266a1.044 1.044 0 00-.963-.644H1.042a1.044 1.044 0 00-.737 1.78l2.335 2.337a7.248 7.248 0 005.157 2.135h32.321a7.26 7.26 0 005.16-2.135l2.336-2.338a1.04 1.04 0 00.225-1.135zm-4.036 2a5.179 5.179 0 01-3.684 1.525H7.797c-1.39 0-2.7-.542-3.684-1.525l-.558-.559h40.807l-.558.559zM47.986 24.71c-2.807-1.804-7.29.154-7.792.382a1.043 1.043 0 00.864 1.898c1.004-.457 4.225-1.538 5.8-.523.71.456 1.059 1.341 1.059 2.7 0 4.17-8.413 6.691-11.661 7.312l-.738.146a1.042 1.042 0 10.402 2.042l.732-.144C37.198 38.42 50 35.908 50 29.167c0-2.096-.679-3.594-2.014-4.457zM32.069 11.066c1.693-2.116 1.693-5.431 0-7.548a1.039 1.039 0 00-1.465-.162 1.04 1.04 0 00-.163 1.464c1.073 1.34 1.073 3.605-.002 4.948-1.695 2.117-1.695 5.432 0 7.548a1.038 1.038 0 001.465.163 1.04 1.04 0 00.162-1.465c-1.075-1.34-1.075-3.604.002-4.948zM25.81 11.065c1.696-2.116 1.696-5.43 0-7.548a1.04 1.04 0 00-1.464-.162 1.04 1.04 0 00-.163 1.464c1.075 1.34 1.075 3.605-.002 4.948-1.694 2.117-1.694 5.432 0 7.549a1.038 1.038 0 001.465.162 1.04 1.04 0 00.162-1.465c-1.073-1.34-1.073-3.604.002-4.948zM19.568 11.068c1.694-2.117 1.694-5.431 0-7.548a1.042 1.042 0 00-1.627 1.3c1.073 1.34 1.073 3.604-.002 4.948-1.696 2.117-1.696 5.431 0 7.548a1.047 1.047 0 001.465.165 1.04 1.04 0 00.162-1.465c-1.075-1.342-1.075-3.604.002-4.948z"/></g><defs><clipPath id="iclip0"><path fill="#fff" d="M0 0h50v50H0z"/></clipPath></defs></svg><svg fill="none" viewBox="0 0 50 50" id="good_ico-3" xmlns="http://www.w3.org/2000/svg"><path d="M45.824 31c.647-2.118.94-4.354.94-6.589C46.765 11.53 36.295 1 23.354 1S0 11.53 0 24.411c0 12.883 10.47 23.412 23.412 23.412 3.294 0 6.47-.706 9.47-2 1.824 1.941 4.412 3.176 7.236 3.176C45.588 49 50 44.53 50 39.117c0-3.353-1.647-6.353-4.176-8.118zM23.353 45.94c-11.882 0-21.53-9.646-21.53-21.529 0-11.882 9.648-21.53 21.53-21.53 11.882 0 21.53 9.648 21.53 21.53 0 1.941-.236 3.824-.765 5.647-1.236-.53-2.589-.882-4-.882-5.47 0-9.883 4.47-9.883 9.882 0 1.883.53 3.706 1.47 5.177a21.213 21.213 0 01-8.352 1.706zm16.765 1.177c-4.412 0-8.06-3.588-8.06-8.059 0-4.411 3.59-8.059 8.06-8.059 4.411 0 8.058 3.589 8.058 8.06 0 4.47-3.647 8.058-8.058 8.058z" fill="#00F287"/><path d="M24.295 20.647v-8.882a.93.93 0 00-.942-.941.93.93 0 00-.94.941v8.882a3.852 3.852 0 00-2.942 3.765c0 .824.294 1.588.706 2.235l-3.588 4.236c-.353.411-.294 1 .117 1.294a.843.843 0 00.589.235.92.92 0 00.705-.353l3.589-4.176c.53.294 1.117.411 1.764.411a3.878 3.878 0 003.883-3.882c.059-1.823-1.236-3.353-2.941-3.765zm-.942 5.824c-1.117 0-2-.882-2-2 0-1.118.883-2 2-2 1.118 0 2 .882 2 2 .06 1.059-.882 2-2 2zM7.765 23.47H4a.93.93 0 00-.94.942c0 .53.41.941.94.941h3.765a.93.93 0 00.941-.94.93.93 0 00-.941-.942zM23.353 4.118a.93.93 0 00-.942.94v3.766c0 .529.471.94.942.94a.93.93 0 00.94-.94V5.059a.93.93 0 00-.94-.941zM42.765 23.47H39a.93.93 0 00-.94.942c0 .53.41.941.94.941h3.765a.93.93 0 00.941-.94.93.93 0 00-.941-.942zM23.353 39.06a.93.93 0 00-.942.94v3.765c0 .53.412.941.942.941a.93.93 0 00.94-.94V40a.93.93 0 00-.94-.94zM36.824 41.353l.647-.589c1.059-.94 1.94-1.94 1.94-3.117 0-1.353-.882-2.294-2.587-2.294a4.2 4.2 0 00-2.412.764l.47 1.236c.353-.294.942-.589 1.589-.589.823 0 1.176.471 1.176 1.06 0 .823-.823 1.646-2.412 3.117l-.823.823v1.06h5.176V41.41l-2.764-.058zM45.294 39.765v-4.294h-2.059l-2.764 4.47v1.118h3.235v1.765h1.588V41.06h.882v-1.294h-.882zm-1.647-1.588v1.588H42l1-1.588c.235-.47.412-.882.647-1.353h.059c-.06.47-.06.883-.06 1.353z" fill="#00F287"/></svg><svg fill="none" viewBox="0 0 54 54" id="good_ico-4" xmlns="http://www.w3.org/2000/svg"><g clip-path="url(#kclip0)" stroke="#00F287" stroke-width="2" stroke-miterlimit="10" stroke-linejoin="round"><path d="M44.25 36.583l-5.75 5.75-3.833-3.833" stroke-linecap="round"/><path d="M39.458 49.042a9.583 9.583 0 100-19.167 9.583 9.583 0 000 19.167z"/><path d="M10.085 18.622c6.691-6.693 17.547-6.704 24.25 0M39.186 12.056c-9.372-9.37-24.568-9.384-33.956 0M14.933 25.187c4.017-4.016 10.53-4.023 14.553 0M34.335 18.622c-6.691-6.693-17.549-6.704-24.25 0M29.486 25.187c-4.02-4.016-10.528-4.023-14.553 0M22.208 37.607a3.43 3.43 0 100-6.862 3.43 3.43 0 000 6.862z" stroke-linecap="round"/></g><defs><clipPath id="kclip0"><path fill="#fff" transform="translate(4 4)" d="M0 0h46v46H0z"/></clipPath></defs></svg><svg fill="none" viewBox="0 0 54 54" id="good_ico-5" xmlns="http://www.w3.org/2000/svg"><path fill-rule="evenodd" clip-rule="evenodd" d="M12.375 15.75h-6.75a3.38 3.38 0 00-3.375 3.375v15.75a3.38 3.38 0 003.375 3.375h5.625v-7.876c0-.62.504-1.125 1.125-1.125h29.25c.621 0 1.125.504 1.125 1.125v7.876h5.625a3.38 3.38 0 003.375-3.375v-15.75a3.38 3.38 0 00-3.375-3.375h-36zM42.75 40.5h5.625A5.631 5.631 0 0054 34.875v-15.75c0-3.1-2.522-5.625-5.625-5.625H42.75V5.625c0-3.1-2.522-5.625-5.625-5.625h-20.25a5.631 5.631 0 00-5.625 5.625V13.5H5.625A5.631 5.631 0 000 19.125v15.75c0 3.1 2.522 5.625 5.625 5.625h5.625v7.874c0 3.1 2.523 5.625 5.625 5.625h20.25a5.631 5.631 0 005.625-5.625V40.5zm-2.25-1.149v9.023a3.38 3.38 0 01-3.375 3.375h-20.25a3.38 3.38 0 01-3.375-3.375V31.5h27v7.852zm0-33.726V13.5h-27V5.625a3.38 3.38 0 013.375-3.375h20.25A3.38 3.38 0 0140.5 5.625zm-5.625 41.626h-13.5a1.125 1.125 0 010-2.25h13.5a1.125 1.125 0 010 2.25zm-13.5-4.501h13.5a1.125 1.125 0 000-2.25h-13.5a1.125 1.125 0 000 2.25zm13.5-4.5h-4.5a1.125 1.125 0 010-2.25h4.5a1.125 1.125 0 010 2.25z" fill="#00F287"/></svg><svg fill="none" viewBox="0 0 46 48" id="good_ico-6" xmlns="http://www.w3.org/2000/svg"><path d="M6.708 5.792a3.835 3.835 0 013.834-3.834h24.916a3.835 3.835 0 013.834 3.834v34.5a3.835 3.835 0 01-3.834 3.833H10.542a3.835 3.835 0 01-3.834-3.833v-34.5zM12.458 48v-2.875M33.541 48v-2.875M6.708 17.292h32.584M12.458 6.75v5.75M12.458 20.167v11.5" stroke="#00F287" stroke-width="2" stroke-miterlimit="10" stroke-linejoin="round"/></svg><svg fill="none" viewBox="0 0 49 51" id="good_ico-7" xmlns="http://www.w3.org/2000/svg"><path d="M19.906 33.922H24.5a.766.766 0 00.766-.766V31.17c.702-.21 1.381-.491 2.028-.842l1.406 1.406a.788.788 0 001.082 0l3.249-3.249a.766.766 0 000-1.082l-1.406-1.406c.35-.647.633-1.326.842-2.028h1.986a.766.766 0 00.766-.766V18.61a.766.766 0 00-.766-.765h-1.986a10.618 10.618 0 00-.842-2.029l1.406-1.405a.766.766 0 000-1.083l-3.249-3.248a.788.788 0 00-1.082 0l-1.406 1.405a10.618 10.618 0 00-2.028-.841V8.655a.766.766 0 00-.766-.765h-4.594a.766.766 0 00-.765.765v1.986a10.62 10.62 0 00-2.029.842l-1.405-1.405a.788.788 0 00-1.083 0l-3.248 3.248a.766.766 0 000 1.083l1.405 1.405a10.63 10.63 0 00-.842 2.029H9.953a.766.766 0 00-.765.765v4.594c0 .423.342.766.765.766h1.986c.21.702.492 1.381.842 2.028l-1.405 1.406a.766.766 0 000 1.082l3.248 3.249a.788.788 0 001.082 0l1.406-1.406c.647.35 1.326.633 2.029.842v1.986c0 .423.342.766.765.766zm3.828-1.531h-3.062v-1.809a.766.766 0 00-.59-.745 9.1 9.1 0 01-2.693-1.117.766.766 0 00-.944.11l-1.28 1.28L13 27.944l1.28-1.28a.766.766 0 00.11-.943 9.099 9.099 0 01-1.118-2.694.766.766 0 00-.745-.59h-1.808v-3.062h1.808a.766.766 0 00.745-.59c.225-.95.6-1.856 1.118-2.693a.766.766 0 00-.11-.944L13 13.868l2.165-2.165 1.28 1.28c.25.25.641.297.944.11a9.1 9.1 0 012.693-1.118.766.766 0 00.59-.745V9.422h3.062v1.808c0 .355.244.663.59.745a9.1 9.1 0 012.693 1.118c.302.187.693.14.944-.11l1.28-1.28 2.166 2.165-1.28 1.28a.765.765 0 00-.11.944 9.101 9.101 0 011.117 2.694c.082.345.39.589.745.589h1.808v3.063H31.88a.766.766 0 00-.745.589c-.224.95-.6 1.857-1.118 2.694a.766.766 0 00.11.943l1.28 1.28-2.165 2.166-1.28-1.28a.767.767 0 00-.944-.11 9.1 9.1 0 01-2.693 1.117.766.766 0 00-.59.745v1.809z" fill="#00F287" stroke="#00F287" stroke-width=".5"/><path d="M22.203 27.797c3.8 0 6.89-3.091 6.89-6.89 0-3.8-3.09-6.891-6.89-6.891s-6.89 3.09-6.89 6.89 3.09 6.89 6.89 6.89zm0-12.25a5.365 5.365 0 015.36 5.36 5.365 5.365 0 01-5.36 5.359 5.365 5.365 0 01-5.36-5.36 5.365 5.365 0 015.36-5.36z" fill="#00F287" stroke="#00F287" stroke-width=".5"/><path d="M13.023 49.99h19.899a.766.766 0 00.766-.765v-5.353c0-1.113.478-2.304 1.821-2.304h1.51c2.764 0 5.856-2.29 5.856-5.355v-6.895h2.317a2.26 2.26 0 001.915-1.058 2.303 2.303 0 00.14-2.226l-5.994-12.725c-.866-1.838-1.815-3.372-2.902-4.69-2.521-3.053-5.779-5.326-9.42-6.573A19.545 19.545 0 0022.587 1c-4.209 0-8.44 1.343-11.916 3.78-4.979 3.494-8.345 9.173-9.005 15.192-.695 6.346 1.376 12.62 5.682 17.217 3.12 3.331 4.91 7.718 4.91 12.036 0 .422.342.765.765.765zm19.133-1.531H13.772c-.198-4.45-2.107-8.901-5.306-12.317-4-4.27-5.924-10.103-5.278-16.003C3.8 14.55 6.926 9.279 11.55 6.034c3.22-2.259 7.14-3.503 11.037-3.503 2.012 0 3.98.324 5.848.964 3.374 1.155 6.394 3.264 8.735 6.1 1.004 1.217 1.887 2.646 2.698 4.367l5.993 12.725a.772.772 0 01-.047.753.732.732 0 01-.622.347h-3.083a.766.766 0 00-.765.766v7.66c0 2.154-2.326 3.824-4.326 3.824H35.51c-1.974 0-3.353 1.577-3.353 3.835v4.587z" fill="#00F287" stroke="#00F287" stroke-width=".6"/></svg><svg fill="none" viewBox="0 0 47 47" id="good_ico-8" xmlns="http://www.w3.org/2000/svg"><path d="M15.39 31.61l16.325-16.325M17.43 20.387a3.061 3.061 0 100-6.122 3.061 3.061 0 000 6.122zM29.674 32.631a3.061 3.061 0 100-6.122 3.061 3.061 0 000 6.122z" stroke="#00F287" stroke-width="2" stroke-miterlimit="10" stroke-linecap="round" stroke-linejoin="round"/><path d="M23.552 45.896C35.95 45.896 46 35.846 46 23.448S35.95 1 23.552 1C11.155 1 1.104 11.05 1.104 23.448s10.05 22.448 22.448 22.448z" stroke="#00F287" stroke-width="2" stroke-miterlimit="10" stroke-linejoin="round"/></svg><svg fill="none" viewBox="0 0 53 53" id="good_ico-9" xmlns="http://www.w3.org/2000/svg"><path d="M9 39v4H3v-6.712M45 36.29V43h-6v-4M35 11H13L7 23h34l-6-12zM7 19H1v4h6v-4zM47 19h-6v4h6v-4z" stroke="#00F287" stroke-width="2" stroke-miterlimit="10" stroke-linecap="round" stroke-linejoin="round"/><path d="M14 39H9a8 8 0 010-16h30a8 8 0 010 16H14z" stroke="#00F287" stroke-width="2" stroke-miterlimit="10" stroke-linecap="round" stroke-linejoin="round"/><path d="M43 29H5v4h38v-4zM17 33h14l-2 6H19l-2-6zM33 29l-3-6M15 29l3-6" stroke="#00F287" stroke-width="2" stroke-miterlimit="10" stroke-linecap="round" stroke-linejoin="round"/></svg><svg fill="none" viewBox="0 0 134 61" id="logo" xmlns="http://www.w3.org/2000/svg"><path fill-rule="evenodd" clip-rule="evenodd" d="M1 18.376c0 4.573 2.387 6.658 8.592 6.658h.22c6.206 0 8.592-2.085 8.592-6.658v-.731c0-3.695-1.432-5.488-5.287-6.365l-5.36-1.208c-1.58-.33-1.837-.658-1.837-1.792v-.768c0-1.866.625-2.342 3.672-2.342h.22c3.048 0 3.672.476 3.672 2.341v.805c0 .256.11.366.367.366h4.04c.256 0 .366-.11.366-.366v-.805c0-4.572-2.313-6.657-8.445-6.657h-.22C3.46.854 1.147 2.939 1.147 7.51v.769c0 1.756.367 3.073 1.138 3.987.771.878 2.167 1.537 4.186 2.012l5.36 1.207c1.433.33 1.8.842 1.8 2.158v.732c0 1.866-.661 2.341-3.819 2.341h-.22c-3.158 0-3.819-.475-3.819-2.341v-.805c0-.256-.11-.365-.367-.365H1.367c-.257 0-.367.11-.367.365v.805h0zM36.616 5.463c.257 0 .368-.11.368-.366V1.512c0-.256-.11-.365-.368-.365H22.003c-.257 0-.367.11-.367.365v22.864c0 .256.11.365.367.365h14.613c.257 0 .368-.11.368-.365V20.79c0-.256-.11-.366-.368-.366H26.41v-5.45h9.106c.257 0 .367-.11.367-.367v-3.585c0-.256-.11-.365-.367-.365h-9.106V5.463h10.207zm20.746 18.803l-4.26-7.755c2.791-.732 4.076-2.78 4.076-6.329V7.768c0-4.537-2.093-6.622-6.756-6.622H40.73c-.257 0-.367.11-.367.366v22.863c0 .257.11.366.367.366h4.039c.257 0 .367-.11.367-.366v-7.572h3.047l3.819 7.646c.11.183.257.292.44.292h4.664c.22 0 .33-.11.33-.292l-.073-.183zM45.135 5.463h4.186c2.717 0 3.084.33 3.084 2.305v2.414c0 1.976-.367 2.305-3.084 2.305h-4.186V5.463zm32.532-3.878c.11-.256-.037-.438-.294-.438h-4.296c-.184 0-.33.073-.404.256L69.442 12.34l-.882 3.146a47.43 47.43 0 00-.66 3.402c-.22-1.354-.441-2.488-.698-3.402-.22-.915-.514-2.012-.845-3.22l-3.23-10.864c-.074-.183-.221-.256-.404-.256h-4.296c-.22 0-.33.11-.33.292l.036.147 7.16 22.827c.11.22.257.329.44.329h4.333c.184 0 .33-.11.44-.33l7.16-22.827zM95.18 5.463c.257 0 .367-.11.367-.366V1.512c0-.256-.11-.365-.367-.365H80.567c-.257 0-.367.11-.367.365v22.864c0 .256.11.365.367.365h14.614c.257 0 .367-.11.367-.365V20.79c0-.256-.11-.366-.367-.366H84.973v-5.45h9.106c.257 0 .368-.11.368-.367v-3.585c0-.256-.11-.365-.368-.365h-9.106V5.463h10.208zm20.745 18.803l-4.259-7.755c2.791-.732 4.076-2.78 4.076-6.329V7.768c0-4.537-2.093-6.622-6.756-6.622h-9.694c-.257 0-.367.11-.367.366v22.863c0 .257.11.366.367.366h4.039c.257 0 .367-.11.367-.366v-7.572h3.048l3.819 7.646c.11.183.257.292.44.292h4.663c.22 0 .331-.11.331-.292l-.074-.183zM103.699 5.463h4.186c2.717 0 3.085.33 3.085 2.305v2.414c0 1.976-.367 2.305-3.085 2.305h-4.186V5.463zM34.15 26.69c0-.369-.158-.527-.528-.527H27.55c-.264 0-.475.158-.633.474l-6.864 15.307c-1.003 2.157-1.69 3.998-2.164 5.523-.476-1.525-1.215-3.366-2.218-5.523L8.807 26.637c-.158-.316-.37-.474-.633-.474H2.102c-.37 0-.528.158-.528.526v32.877c0 .368.159.526.528.526h5.597c.37 0 .528-.158.528-.526V47.52c0-3.261-.106-6.523-.37-9.836 1.109 3.84 2.165 6.417 3.696 9.836l3.168 7.154c.158.263.316.368.58.368h5.122c.264 0 .475-.105.58-.368l3.169-7.154c1.53-3.42 2.587-5.997 3.695-9.836-.264 3.313-.37 6.575-.37 9.836v12.046c0 .368.16.526.529.526h5.596c.37 0 .528-.158.528-.526V26.689zm32.998 32.823L55.744 26.584c-.105-.263-.316-.42-.634-.42h-5.28c-.316 0-.527.157-.633.42l-11.404 32.93c-.106.367.053.578.422.578h6.072c.316 0 .528-.158.633-.421l2.06-6.154H57.96l2.06 6.154c.105.263.316.42.633.42h6.072c.317 0 .475-.104.475-.367l-.053-.21zM49.04 47.415l1.373-4.156c.95-2.893 1.637-5.313 2.059-7.311.422 1.998 1.109 4.418 2.06 7.311l1.372 4.156h-6.864zm41.974 6.996c0-.369-.158-.526-.528-.526h-12.83V26.689c0-.368-.158-.526-.528-.526H71.32c-.37 0-.528.158-.528.526v32.877c0 .368.158.526.528.526h19.165c.37 0 .528-.158.528-.526V54.41zm24.445 0c0-.369-.158-.526-.528-.526h-12.829V26.689c0-.368-.159-.526-.529-.526h-5.807c-.37 0-.528.158-.528.526v32.877c0 .368.158.526.528.526h19.165c.37 0 .528-.158.528-.526V54.41zM128.934 60.146c2.863 0 4.168-1.483 4.168-5.34v-.137c0-3.856-1.305-5.34-4.168-5.34h-.458c-2.314 0-3.435.89-3.985 3.287l-.756 3.331c-.206.981-.412 1.141-1.122 1.141h-.481c-1.168 0-1.466-.388-1.466-2.282v-.137c0-1.894.298-2.282 1.466-2.282h.504c.16 0 .229-.068.229-.228v-2.51c0-.16-.069-.228-.229-.228h-.504c-2.863 0-4.169 1.437-4.169 5.248v.137c0 3.81 1.306 5.248 4.169 5.248h.481c1.099 0 1.923-.228 2.496-.707.55-.48.962-1.346 1.26-2.601l.755-3.332c.207-.89.527-1.118 1.352-1.118h.458c1.168 0 1.466.411 1.466 2.374v.137c0 1.962-.298 2.373-1.466 2.373h-.504c-.16 0-.229.068-.229.228v2.51c0 .16.069.228.229.228h.504v0zm-6.642-23.275c-2.771 0-4.145 1.37-4.145 4.199v6.024c0 .16.068.228.229.228h14.314c.161 0 .229-.068.229-.228v-2.51c0-.16-.068-.228-.229-.228h-4.443V41.07c0-2.83-1.374-4.199-4.145-4.199h-1.81zm1.809 2.967c1.237 0 1.443.228 1.443 1.916v2.602h-4.695v-2.602c0-1.688.206-1.916 1.443-1.916h1.809zm8.566-14.947l.092-.022c.114 0 .16.068.16.205v2.624a.274.274 0 01-.183.274l-2.68.89v4.746l2.68.89a.275.275 0 01.183.274v2.624c0 .16-.091.229-.252.183L118.33 32.65a.275.275 0 01-.183-.274v-2.282c0-.137.068-.228.183-.274l14.337-4.929zm-5.268 7.827v-2.966l-1.809.593c-1.26.41-2.313.707-3.184.89.871.183 1.924.48 3.184.89l1.809.593zm1.489-8.67c2.932 0 4.214-1.484 4.214-5.477v-.138c0-3.993-1.282-5.476-4.214-5.476h-.687c-.161 0-.229.068-.229.228v2.51c0 .16.068.229.229.229h.687c1.191 0 1.512.41 1.512 2.51v.137c0 2.099-.321 2.51-1.512 2.51h-6.711c-1.191 0-1.511-.411-1.511-2.51v-.138c0-2.099.32-2.51 1.511-2.51h.687c.161 0 .229-.068.229-.228v-2.51c0-.16-.068-.228-.229-.228h-.687c-2.931 0-4.214 1.483-4.214 5.476v.138c0 3.993 1.283 5.476 4.214 5.476h6.711zm-8.039-22.454c0-.16-.068-.229-.229-.229h-2.244c-.161 0-.229.069-.229.229v9.082c0 .16.068.228.229.228h14.314c.161 0 .229-.069.229-.228V1.594c0-.16-.068-.229-.229-.229h-2.244c-.161 0-.229.069-.229.229v6.343h-3.413V2.278c0-.16-.068-.228-.229-.228h-2.244c-.161 0-.229.068-.229.228v5.66h-3.253V1.593h0z" fill="#010005" stroke="#010005" stroke-width=".216" stroke-miterlimit="22.926"/></svg><svg fill="none" viewBox="0 0 60 60" id="messenger" xmlns="http://www.w3.org/2000/svg"><circle cx="30" cy="30" r="30" fill="#18FE0E"/><path d="M21 39.5h-1a1 1 0 001.614.79L21 39.5zm4.5-3.5v-1h-.343l-.27.21.613.79zM22 39.5V24h-2v15.5h2zM23 23h14v-2H23v2zm15 1v10h2V24h-2zm-1 11H25.5v2H37v-2zm-12.114.21l-4.5 3.5 1.228 1.58 4.5-3.5-1.228-1.58zM38 34a1 1 0 01-1 1v2a3 3 0 003-3h-2zm-1-11a1 1 0 011 1h2a3 3 0 00-3-3v2zm-15 1a1 1 0 011-1v-2a3 3 0 00-3 3h2z" fill="#37434B"/></svg><svg fill="none" viewBox="0 0 47 48" id="percent" xmlns="http://www.w3.org/2000/svg"><path d="M15.313 32.146l16.333-16.334M17.355 20.916a3.062 3.062 0 100-6.124 3.062 3.062 0 000 6.124zM29.605 33.166a3.062 3.062 0 100-6.124 3.062 3.062 0 000 6.124z" stroke="#0090F0" stroke-width="2" stroke-miterlimit="10" stroke-linecap="round" stroke-linejoin="round"/><path d="M23.48 46.437c12.403 0 22.458-10.054 22.458-22.458 0-12.403-10.055-22.458-22.459-22.458-12.403 0-22.458 10.055-22.458 22.458 0 12.404 10.055 22.458 22.458 22.458z" stroke="#0090F0" stroke-width="2" stroke-miterlimit="10" stroke-linejoin="round"/></svg></svg>