<svg width="21" height="27" viewBox="0 0 21 27" fill="none" xmlns="http://www.w3.org/2000/svg">
<path d="M1.01235 1C1.01235 1 0.473156 3.68775 6.51985 4.59684C12.5665 5.50593 17.5734 5.42688 18.7673 7.08696C19.9227 8.74704 18.4207 14.6759 17.3423 15.3083C16.2639 15.9407 4.13198 15.3083 4.13198 15.3083C4.13198 15.3083 2.32183 16.2964 3.97793 17.996C3.97793 17.996 15.5113 17.9466 17.1289 18.5C18.7465 19.0534 19.1139 19.6561 19.1524 20.2095" stroke="black" stroke-width="2" stroke-miterlimit="10" stroke-linecap="round" stroke-linejoin="round"/>
<path d="M5.86539 15.3083L4.09375 4.04346" stroke="black" stroke-width="2" stroke-miterlimit="10" stroke-linecap="round" stroke-linejoin="round"/>
<path d="M17.6289 23.5C17.6289 24.913 16.5419 26 15.1289 26C13.7159 26 12.6289 24.913 12.6289 23.5C12.6289 22.087 13.7159 21 15.1289 21C16.5419 21 17.6289 22.087 17.6289 23.5Z" stroke="black" stroke-width="2" stroke-miterlimit="10" stroke-linecap="round" stroke-linejoin="round"/>
<path d="M7.62891 23.5C7.62891 24.913 6.54195 26 5.1289 26C3.71586 26 2.62891 24.913 2.62891 23.5C2.62891 22.087 3.71586 21 5.1289 21C6.54195 21 7.62891 22.087 7.62891 23.5Z" stroke="black" stroke-width="2" stroke-miterlimit="10" stroke-linecap="round" stroke-linejoin="round"/>
</svg>
