<svg width="31" height="31" viewBox="0 0 31 31" fill="none" xmlns="http://www.w3.org/2000/svg">
<path d="M9.49219 14.732C9.49219 14.732 17.3863 11.085 16.1889 1.24751C16.6767 -0.288098 18.5837 0.959581 18.5837 0.959581C18.5837 0.959581 20.5351 2.0633 20.2247 6.04627C20.2247 6.04627 19.8699 10.4131 19.8699 10.845C19.8699 10.845 19.6481 12.1887 21.2447 12.1407L29.2275 12.0927C29.2275 12.0927 32.1102 13.6763 29.3162 16.0277C29.3162 16.0277 31.6667 18.2351 28.784 20.3946C28.784 20.3946 31.1789 22.41 28.3849 24.8094C28.3849 24.8094 30.425 26.7769 27.8971 28.7444H12.9958L9.49219 27.7367" stroke="white" stroke-width="2" stroke-miterlimit="10" stroke-linecap="round" stroke-linejoin="round"/>
<path d="M6.69853 30.52H3.2393C1.68709 30.52 0.445312 29.1763 0.445312 27.4968V15.6438C0.445312 13.9643 1.68709 12.6206 3.2393 12.6206H6.69853C8.25075 12.6206 9.49252 13.9643 9.49252 15.6438V27.4968C9.49252 29.1763 8.25075 30.52 6.69853 30.52Z" stroke="white" stroke-width="2" stroke-miterlimit="10"/>
<path d="M7.58443 26.6806C7.58443 27.4964 6.96355 28.2162 6.16526 28.2162C5.36698 28.2162 4.74609 27.5444 4.74609 26.6806C4.74609 25.8168 5.36698 25.145 6.16526 25.145C6.96355 25.145 7.58443 25.8168 7.58443 26.6806Z" stroke="white" stroke-width="2" stroke-miterlimit="10"/>
</svg>
