<svg width="24" height="24" viewBox="0 0 24 24" fill="none" xmlns="http://www.w3.org/2000/svg">
<path d="M1.04877 8.08436C0.760442 5.83022 1.76959 3.61186 3.57165 2.21644L3.75185 2.07332C4.36455 1.60818 5.30162 1.67974 5.84223 2.21644L7.78845 4.14856C8.40115 4.75682 8.40115 5.79445 7.78845 6.40271L6.85138 7.58344C6.31077 8.29904 6.20264 9.22932 6.52701 10.0523C7.42804 12.1633 9.51842 15.9917 13.0144 16.7431C13.7352 16.8862 14.4921 16.7073 15.1048 16.278L16.5825 15.133C17.1952 14.5248 18.2404 14.5248 18.8531 15.133L20.7993 17.0651C21.3399 17.6018 21.412 18.5679 20.9074 19.1762L20.7993 19.3193C18.9972 21.6092 16.0058 22.611 13.1586 21.8597C11.1042 21.323 8.65344 20.0707 6.02244 17.4587C2.52645 13.9881 1.37314 10.589 1.04877 8.08436Z" stroke="black" stroke-width="2" stroke-miterlimit="10"/>
<path d="M12.293 7.5835C13.23 7.5835 14.1671 7.9413 14.8879 8.6569C15.6087 9.3725 15.9692 10.3028 15.9692 11.2331" stroke="black" stroke-width="2" stroke-miterlimit="10" stroke-linecap="round" stroke-linejoin="round"/>
<path d="M12.293 4.14868C14.1311 4.14868 15.9692 4.8285 17.3387 6.22392C18.7443 7.61934 19.4291 9.44412 19.4291 11.2331" stroke="black" stroke-width="2" stroke-miterlimit="10" stroke-linecap="round" stroke-linejoin="round"/>
<path d="M12.293 1C14.96 1 17.591 2.00184 19.6093 4.00552C21.6276 6.0092 22.6368 8.62114 22.6368 11.2689" stroke="black" stroke-width="2" stroke-miterlimit="10" stroke-linecap="round" stroke-linejoin="round"/>
</svg>
