<svg width="34" height="34" viewBox="0 0 34 34" fill="none" xmlns="http://www.w3.org/2000/svg">
<path d="M24.4418 11.2956H26.0285C26.293 11.2956 26.4818 11.0689 26.4818 10.8045V7.59334C26.4818 7.3289 26.2552 7.10223 26.0285 7.10223H24.4418C24.1774 7.10223 23.9885 7.3289 23.9885 7.59334V10.8045C23.9507 11.0689 24.1774 11.2956 24.4418 11.2956ZM24.8952 8.08445H25.5752V10.3511H24.8952V8.08445Z" fill="currentColor"/>
<path d="M24.4418 16.6222H26.0285C26.293 16.6222 26.4818 16.3956 26.4818 16.1311V12.92C26.4818 12.6556 26.2552 12.4289 26.0285 12.4289H24.4418C24.1774 12.4289 23.9885 12.6556 23.9885 12.92V16.1311C23.9507 16.3956 24.1774 16.6222 24.4418 16.6222ZM24.8952 13.4111H25.5752V15.6778H24.8952V13.4111Z" fill="currentColor"/>
<path d="M20.4375 12.92V16.1311C20.4375 16.3956 20.6642 16.6222 20.8908 16.6222H22.4775C22.7419 16.6222 22.9308 16.3956 22.9308 16.1311V12.92C22.9308 12.6556 22.7042 12.4289 22.4775 12.4289H20.8908C20.6642 12.4667 20.4375 12.6933 20.4375 12.92ZM21.3819 13.4111H22.0619V15.6778H21.3819V13.4111Z" fill="currentColor"/>
<path d="M24.4418 21.9489H26.0285C26.293 21.9489 26.4818 21.7222 26.4818 21.4578V18.2467C26.4818 17.9822 26.2552 17.7556 26.0285 17.7556H24.4418C24.1774 17.7556 23.9885 17.9822 23.9885 18.2467V21.4578C23.9507 21.7222 24.1774 21.9489 24.4418 21.9489ZM24.8952 18.7378H25.5752V21.0044H24.8952V18.7378Z" fill="currentColor"/>
<path d="M22.5146 17.7933H20.9279C20.6635 17.7933 20.4746 18.02 20.4746 18.2844V21.4956C20.4746 21.76 20.7013 21.9867 20.9279 21.9867H22.5146C22.7791 21.9867 22.9679 21.76 22.9679 21.4956V18.2844C23.0057 18.02 22.7791 17.7933 22.5146 17.7933ZM22.0613 21.0044H21.3813V18.7378H22.0613V21.0044Z" fill="currentColor"/>
<path d="M24.4418 27.2756H26.0285C26.293 27.2756 26.4818 27.0489 26.4818 26.8222V23.6111C26.4818 23.3467 26.2552 23.1578 26.0285 23.1578H24.4418C24.1774 23.1578 23.9885 23.3844 23.9885 23.6111V26.8222C23.9507 27.0867 24.1774 27.2756 24.4418 27.2756ZM24.8952 24.0644H25.5752V26.3311H24.8952V24.0644Z" fill="currentColor"/>
<path d="M22.5146 23.12H20.9279C20.6635 23.12 20.4746 23.3467 20.4746 23.5733V26.7844C20.4746 27.0489 20.7013 27.2756 20.9279 27.2756H22.5146C22.7791 27.2756 22.9679 27.0489 22.9679 26.7844V23.5733C23.0057 23.3467 22.7791 23.12 22.5146 23.12ZM22.0613 26.3311H21.3813V24.0644H22.0613V26.3311Z" fill="currentColor"/>
<path d="M8.50021 16.2445H10.0869C10.3513 16.2445 10.5402 16.0178 10.5402 15.7533V12.1645C10.578 11.8622 10.3513 11.6733 10.0869 11.6733H8.50021C8.23577 11.6733 8.04688 11.9 8.04688 12.1645V15.7533C8.04688 16.0178 8.27355 16.2445 8.50021 16.2445ZM8.99132 12.6178H9.63355V15.2622H8.99132V12.6178Z" fill="currentColor"/>
<path d="M11.9748 21.8356H13.5615C13.8259 21.8356 14.0148 21.6089 14.0148 21.3445V17.7556C14.0148 17.4534 13.8259 17.2645 13.5615 17.2645H11.9748C11.7104 17.2645 11.5215 17.4911 11.5215 17.7556V21.3445C11.5215 21.6089 11.7481 21.8356 11.9748 21.8356ZM12.4281 18.2089H13.0704V20.8534H12.4281V18.2089Z" fill="currentColor"/>
<path d="M11.9748 16.2445H13.5615C13.8259 16.2445 14.0148 16.0178 14.0148 15.7533V12.1645C14.0148 11.8622 13.8259 11.6733 13.5615 11.6733H11.9748C11.7104 11.6733 11.5215 11.9 11.5215 12.1645V15.7533C11.5215 16.0178 11.7481 16.2445 11.9748 16.2445ZM12.4281 12.6178H13.0704V15.2622H12.4281V12.6178Z" fill="currentColor"/>
<path d="M8.50021 21.8356H10.0869C10.3513 21.8356 10.5402 21.6089 10.5402 21.3445V17.7556C10.578 17.4534 10.3513 17.2645 10.0869 17.2645H8.50021C8.23577 17.2645 8.04688 17.4911 8.04688 17.7556V21.3445C8.04688 21.6089 8.27355 21.8356 8.50021 21.8356ZM8.99132 18.2089H9.63355V20.8534H8.99132V18.2089Z" fill="currentColor"/>
<path d="M15.4514 16.2445H17.038C17.3025 16.2445 17.4914 16.0178 17.4914 15.7533V12.1645C17.4914 11.8622 17.2647 11.6733 17.0003 11.6733H15.4514C15.1869 11.6733 14.998 11.9 14.998 12.1645V15.7533C14.998 16.0178 15.2247 16.2445 15.4514 16.2445ZM15.9047 12.6178H16.5469V15.2622H15.9047V12.6178Z" fill="currentColor"/>
<path d="M15.4514 21.8356H17.038C17.3025 21.8356 17.4914 21.6089 17.4914 21.3445V17.7556C17.4914 17.4534 17.2647 17.2645 17.0003 17.2645H15.4514C15.1869 17.2645 14.998 17.4911 14.998 17.7556V21.3445C14.998 21.6089 15.2247 21.8356 15.4514 21.8356ZM15.9047 18.2089H16.5469V20.8534H15.9047V18.2089Z" fill="currentColor"/>
<path d="M13.5998 29.4289H17.0754C17.3398 29.4289 17.5287 29.2022 17.5287 28.9756V25.5756C17.5665 25.3111 17.3398 25.0845 17.0754 25.0845H13.5998C13.3354 25.0845 13.1465 25.3111 13.1465 25.5756V28.9756C13.1465 29.24 13.3732 29.4289 13.5998 29.4289ZM14.0909 26.0289H16.622V28.4845H14.0909V26.0289Z" fill="currentColor"/>
<path d="M8.42404 29.4289H11.8996C12.164 29.4289 12.3907 29.2022 12.3907 28.9756V25.5756C12.3529 25.3111 12.164 25.0845 11.8996 25.0845H8.42404C8.15959 25.0845 7.9707 25.3111 7.9707 25.5756V28.9756C7.9707 29.24 8.19737 29.4289 8.42404 29.4289ZM8.87737 26.0289H11.4085V28.4845H8.87737V26.0289Z" fill="currentColor"/>
<path d="M28.4085 30.5622V4.45777C28.4085 4.19333 28.1818 3.96666 27.9551 3.96666H26.784V2.71999C26.784 2.45555 26.5573 2.26666 26.2929 2.26666H17.1129C16.8485 2.26666 16.6596 2.49333 16.6596 2.71999V3.96666H15.6018C15.3373 3.96666 15.1485 4.19333 15.1485 4.45777V7.29111H4.23068C3.96623 7.29111 3.77734 7.51777 3.77734 7.78221V9.44444C3.77734 9.70888 4.00401 9.93555 4.23068 9.93555H4.98623H5.85512V30.6H4.07956V31.5444H30.184V30.6L28.4085 30.5622ZM17.604 3.21111H25.8396V3.96666H17.604V3.21111ZM5.43956 8.95333H4.68401V8.23555H20.8907V8.95333H20.1351H5.43956ZM18.8129 30.5622H6.76179V23.9889H18.8129V30.5622ZM18.8129 23.0444H6.76179V9.89777H18.8129V23.0444ZM27.5018 30.5622H19.7573V9.89777H21.344C21.6085 9.89777 21.7973 9.6711 21.7973 9.40666V7.74444C21.7973 7.48 21.5707 7.25333 21.344 7.25333H16.0929V4.91111H27.5018V30.5622Z" fill="currentColor"/>
</svg>
