<svg width="25" height="26" viewBox="0 0 25 26" fill="none" xmlns="http://www.w3.org/2000/svg">
<path fill-rule="evenodd" clip-rule="evenodd" d="M24.6539 25.216C24.3191 25.545 23.7809 25.5403 23.4519 25.2055L12.8997 14.4664L2.3475 25.2055C2.01848 25.5403 1.48031 25.545 1.14546 25.216C0.810619 24.887 0.805895 24.3488 1.13492 24.014L12.2934 12.6579C12.4532 12.4952 12.6717 12.4036 12.8997 12.4036C13.1277 12.4036 13.3462 12.4952 13.506 12.6579L24.6645 24.014C24.9935 24.3488 24.9888 24.887 24.6539 25.216Z" fill="currentColor"/>
<path fill-rule="evenodd" clip-rule="evenodd" d="M1.12242 0.796931C1.45727 0.467911 1.99544 0.472634 2.32446 0.80748L12.8767 11.5465L23.4289 0.80748C23.7579 0.472634 24.2961 0.467911 24.6309 0.796931C24.9657 1.12595 24.9705 1.66412 24.6415 1.99897L13.483 13.3551C13.3231 13.5177 13.1047 13.6093 12.8767 13.6093C12.6486 13.6093 12.4302 13.5177 12.2704 13.3551L1.11187 1.99897C0.782852 1.66412 0.787575 1.12595 1.12242 0.796931Z" fill="currentColor"/>
</svg>
