<svg width="43" height="42" viewBox="0 0 43 42" fill="none" xmlns="http://www.w3.org/2000/svg">
<path d="M26.4437 21.7639H33.7264V19.2366H26.4437V16.2033H34.3859V13.676H29.0183L23.3281 19.2139V28.355H34.7172V25.8277H26.4437V21.7639Z" fill="white" fill-opacity="0.7"/>
<path d="M41.8178 1L19.8887 22.4897L19.6573 22.7179C19.3405 21.73 18.613 20.9816 17.466 20.4784C17.1897 20.3551 15.7158 19.9809 13.0457 19.3544C11.4619 18.9872 10.6678 18.3862 10.6678 17.5556C10.6823 16.9561 11.0019 16.494 11.6268 16.1665C12.1403 15.9072 12.7318 15.7782 13.4001 15.7782C14.1652 15.7782 14.8161 15.9553 15.36 16.3097C15.9718 16.7038 16.3117 17.2693 16.3797 18.005H19.3839C19.313 16.4515 18.6549 15.2395 17.4038 14.3678C16.303 13.5911 14.9694 13.2027 13.4001 13.2027C12.3688 13.2027 11.4185 13.387 10.5434 13.7541C9.62496 14.1354 8.93936 14.6712 8.48952 15.3586C8.0368 16.0461 7.80392 16.8327 7.79091 17.7172C7.77644 19.4479 8.54738 20.674 10.1052 21.3969C10.4248 21.5471 11.8843 21.927 14.4835 22.5422C16.0543 22.9093 16.8324 23.5287 16.8194 24.4004C16.8194 24.9589 16.5186 25.4082 15.9125 25.7484C15.3079 26.09 14.6021 26.2601 13.7964 26.2601C12.9213 26.2601 12.1894 26.0617 11.6065 25.6676C10.9397 25.2325 10.5912 24.6187 10.5637 23.8278H7.53923C7.64337 26.905 9.63942 28.5365 13.5144 28.7321L1 41H1.18225L42 1H41.8178Z" fill="white" fill-opacity="0.95"/>
<path d="M42 1L1 41" stroke="white" stroke-opacity="0.95" stroke-width="0.5"/>
</svg>
