<svg width="192" height="48" viewBox="0 0 192 48" fill="none" xmlns="http://www.w3.org/2000/svg">
<g clip-path="url(#clip0_702_128)">
<path d="M110.965 24.9162H119.583V21.884H110.965V18.2446H120.365V15.2124H114.015L107.281 21.8582V32.8279H120.753V29.7957H110.965V24.9162Z" fill="white" fill-opacity="0.5"/>
<path d="M124.903 27.3927C124.903 28.39 125.439 30.2557 128.66 30.2557C130.419 30.2557 132.362 29.8214 132.362 27.9778C132.362 26.5942 131.018 26.252 129.138 25.792L125.573 24.9199C123.059 24.3127 121.619 22.8334 121.619 20.1618C121.619 18.2225 122.692 14.7524 128.431 14.7524C133.851 14.7524 135.313 18.2961 135.313 20.4525H131.774C131.677 19.654 131.385 17.7846 128.16 17.7846C126.746 17.7846 125.062 18.3182 125.062 19.8969C125.062 21.2805 126.209 21.5712 126.942 21.7368L131.263 22.7782C133.691 23.3891 135.913 24.3605 135.913 27.5142C135.913 32.8279 130.493 33.2879 128.93 33.2879C122.485 33.2879 121.363 29.5786 121.363 27.4001L124.903 27.3927Z" fill="white" fill-opacity="0.5"/>
<path d="M144.725 32.8279H141.022V18.2446H135.691V15.2124H150.07V18.2446H144.725V32.8279Z" fill="white" fill-opacity="0.5"/>
<path d="M158.151 15.2124L164.375 32.8279H160.373L159.225 29.1885H152.706L151.462 32.8279H147.578L153.872 15.2124H158.151ZM153.683 26.1563H158.418L156 19.194H155.952L153.683 26.1563Z" fill="white" fill-opacity="0.5"/>
<path d="M171.404 32.8279H167.702V18.2446H162.371V15.2124H176.75V18.2446H171.404V32.8279Z" fill="white" fill-opacity="0.5"/>
<path d="M190.908 15.2124V18.2446H181.512V21.884H190.126V24.9199H181.512V29.7957H191.3V32.8279H177.824V15.2124H190.908Z" fill="white" fill-opacity="0.5"/>
<path d="M15.053 27.5438C15.0947 28.6084 14.8107 29.6604 14.2386 30.5613C13.5849 31.4646 12.6987 32.1764 11.673 32.622C10.6406 33.078 9.52266 33.3113 8.39292 33.3065C3.26178 33.2771 0.630808 31.3071 0.5 27.3966H4.07625C4.07831 27.838 4.19236 28.2718 4.40785 28.6577C4.62335 29.0437 4.93331 29.3693 5.30906 29.6046C6.07795 30.1029 6.98326 30.3523 7.90055 30.3184C8.77478 30.3374 9.63842 30.1254 10.4032 29.7039C10.7161 29.5601 10.9823 29.3324 11.172 29.0463C11.3617 28.7603 11.4672 28.4273 11.4768 28.0848C11.4965 27.0397 10.5747 26.2964 8.71131 25.8548C5.63855 25.1188 3.91089 24.6613 3.52834 24.4822C1.69949 23.6236 0.785065 22.1516 0.785065 20.0664C0.78629 19.0641 1.07387 18.0827 1.61434 17.2366C2.20635 16.362 3.054 15.689 4.04293 15.3083C5.11219 14.8601 6.26258 14.6347 7.42297 14.6459C9.11138 14.5949 10.7715 15.0852 12.158 16.0443C12.8729 16.5311 13.4595 17.1818 13.868 17.9414C14.2766 18.701 14.4951 19.5473 14.5051 20.4086H10.9511C10.9256 19.9984 10.8026 19.6001 10.5922 19.2463C10.3817 18.8926 10.0898 18.5935 9.7405 18.3736C9.05006 17.9344 8.24233 17.7126 7.42297 17.737C6.69676 17.7221 5.97773 17.8824 5.32757 18.2044C4.99782 18.3454 4.71558 18.5773 4.51418 18.8727C4.31278 19.1681 4.20064 19.5146 4.19102 19.8713C4.19102 20.8674 5.12889 21.5861 7.00463 22.0277C10.1638 22.7784 11.9075 23.2286 12.2357 23.3782C14.109 24.2099 15.0456 25.5984 15.0456 27.5438" fill="white" fill-opacity="0.9"/>
<path d="M32.891 24.114C32.891 27.1045 32.1259 29.4252 30.5957 31.0763C29.1346 32.6439 27.1453 33.4289 24.6278 33.4314C21.8142 33.4314 19.6547 32.5568 18.1491 30.8076C16.6436 29.0585 15.8921 26.6433 15.8945 23.562C15.8945 20.9469 16.651 18.8211 18.1639 17.1848C19.7262 15.4872 21.8142 14.6286 24.4279 14.6089C25.5028 14.5797 26.5726 14.7664 27.5732 15.1578C28.5739 15.5492 29.4848 16.1372 30.2514 16.8867C32.0111 18.6212 32.891 21.0254 32.891 24.0993V24.114ZM29.2148 24.3201C29.2148 20.0367 27.5784 17.8864 24.3058 17.8693C23.592 17.845 22.8841 18.0064 22.2524 18.3375C21.6206 18.6686 21.0867 19.1579 20.7036 19.757C19.9334 20.9567 19.538 22.3563 19.567 23.7791C19.5241 25.3281 19.9637 26.8524 20.8258 28.1434C21.2336 28.7977 21.8051 29.3358 22.4843 29.7053C23.1636 30.0748 23.9276 30.2632 24.7019 30.252C25.3107 30.259 25.9128 30.1254 26.4609 29.8616C27.0089 29.5979 27.4878 29.2113 27.8598 28.7322C28.7631 27.6356 29.2148 26.1637 29.2148 24.3164" fill="white" fill-opacity="0.9"/>
<path d="M46.2661 32.817H33.7344V15.1831H37.4587V29.6045H46.2661V32.817Z" fill="white" fill-opacity="0.9"/>
<path d="M57.7143 15.1831L51.6946 32.817H48.1924L42.2246 15.1831H46.1711L50.0213 27.5695L53.8678 15.1831H57.7143Z" fill="white" fill-opacity="0.9"/>
<path d="M71.9525 32.817H58.4805V15.1831H71.5341V18.2999H62.1085V22.0497H70.7678V25.1408H62.1085V29.7001H71.9525V32.817Z" fill="white" fill-opacity="0.9"/>
<path d="M86.9983 32.8167H83.374V28.2794C83.374 27.3816 83.1346 26.7609 82.6558 26.4174C82.2436 26.0912 81.5537 25.928 80.5863 25.928H76.6361V32.8167H73.0117V15.1865H82.0153C83.775 15.1865 85.1732 15.7262 86.2098 16.8057C86.6596 17.2667 87.0131 17.8116 87.2501 18.4091C87.4871 19.0065 87.6029 19.6447 87.5907 20.2868C87.6068 21.1611 87.3677 22.0214 86.9021 22.7633C86.4189 23.5239 85.6867 24.0958 84.8289 24.3825C85.5736 24.5742 86.2122 25.0503 86.6059 25.7072C86.9044 26.3766 87.0389 27.1068 86.9983 27.8379V32.8167ZM81.3489 18.2518H76.6361V22.9584H81.2489C81.6191 22.9793 81.9897 22.9248 82.3379 22.7983C82.6862 22.6717 83.0047 22.4757 83.274 22.2224C83.4897 22.0123 83.6601 21.7607 83.7747 21.4829C83.8892 21.2052 83.9456 20.9071 83.9404 20.607C83.9472 20.3083 83.8941 20.0113 83.7841 19.7333C83.6741 19.4553 83.5095 19.2019 83.2999 18.9878C83.0424 18.7394 82.7364 18.546 82.4009 18.4194C82.0654 18.2929 81.7074 18.2358 81.3489 18.2518" fill="white" fill-opacity="0.9"/>
<path d="M129.154 0.0112305L103.209 25.7996L102.939 26.0756C102.569 24.8907 101.703 23.9928 100.348 23.3893C100.022 23.2385 98.2781 22.7932 95.1202 22.0388C93.2444 21.5972 92.3065 20.8784 92.3065 19.8824C92.3163 19.5262 92.4281 19.1802 92.6287 18.8849C92.8294 18.5897 93.1106 18.3574 93.4394 18.2155C94.0909 17.8936 94.8111 17.7333 95.5385 17.7481C96.3579 17.7236 97.1656 17.9455 97.856 18.3847C98.2059 18.6036 98.498 18.9026 98.708 19.2566C98.918 19.6106 99.0396 20.0094 99.0629 20.4197H102.617C102.608 19.5589 102.391 18.7129 101.984 17.9532C101.577 17.1935 100.991 16.5425 100.277 16.0554C98.8888 15.0974 97.2279 14.6073 95.5385 14.657C94.3781 14.6458 93.2277 14.8712 92.1585 15.3194C91.1709 15.7005 90.3237 16.3719 89.7299 17.244C89.1866 18.0903 88.8989 19.0736 88.9006 20.0775C88.8858 22.1529 89.799 23.6248 91.6402 24.4933C92.0178 24.6699 93.7454 25.1275 96.8231 25.8659C98.6816 26.3075 99.6034 27.0508 99.5886 28.0959C99.5791 28.4383 99.4735 28.7714 99.2838 29.0574C99.0941 29.3435 98.8279 29.5712 98.515 29.715C97.7502 30.1365 96.8866 30.3485 96.0124 30.3295C95.0951 30.3634 94.1898 30.114 93.4209 29.6156C93.0447 29.3809 92.7343 29.0554 92.5188 28.6693C92.3032 28.2833 92.1895 27.8493 92.1881 27.4077H88.6007C88.7266 31.1023 91.0836 33.0649 95.6718 33.2955L80.8633 48.0149H81.078L129.372 0.0112305H129.154Z" fill="white" fill-opacity="0.9"/>
<path d="M130.701 -1.19995L80.3008 49.2001" stroke="white" stroke-opacity="0.9" stroke-width="0.6"/>
</g>
<defs>
<clipPath id="clip0_702_128">
<rect width="190.8" height="48" fill="white" transform="translate(0.5)"/>
</clipPath>
</defs>
</svg>
