<svg width="30" height="27" viewBox="0 0 30 27" fill="none" xmlns="http://www.w3.org/2000/svg">
<path fill-rule="evenodd" clip-rule="evenodd" d="M14.8706 16.1312C13.9424 16.1307 13.0418 15.8154 12.3159 15.2369L6.26636 10.3595C6.07324 10.1864 5.95393 9.9457 5.93299 9.68716C5.91206 9.42861 5.99111 9.17189 6.15384 8.96989C6.31658 8.7679 6.5506 8.63603 6.80768 8.60147C7.06476 8.5669 7.3253 8.63227 7.53561 8.78411L13.5798 13.6561C13.949 13.9487 14.4065 14.1075 14.8776 14.1065C15.3487 14.1055 15.8056 13.9449 16.1736 13.6507L22.157 8.78681C22.3652 8.61742 22.6322 8.53768 22.8992 8.56512C23.1662 8.59257 23.4113 8.72495 23.5807 8.93315C23.7501 9.14136 23.8298 9.40832 23.8024 9.67531C23.7749 9.94231 23.6426 10.1875 23.4344 10.3569L17.4401 15.2289C16.7104 15.8118 15.8045 16.1299 14.8706 16.1312Z" fill="currentColor"/>
<path fill-rule="evenodd" clip-rule="evenodd" d="M21.4554 24.9458C21.4581 24.9431 21.4689 24.9458 21.477 24.9458C23.016 24.9458 24.3811 24.3955 25.4278 23.3501C26.6431 22.1402 27.3107 20.4016 27.3107 18.4552V9.1914C27.3107 5.4241 24.8478 2.69 21.4554 2.69H8.21254C4.82022 2.69 2.35724 5.4241 2.35724 9.1914V18.4552C2.35724 20.4016 3.02626 22.1402 4.24022 23.3501C5.28691 24.3955 6.65329 24.9458 8.19096 24.9458H21.4554ZM8.18691 26.9691C6.10566 26.9691 4.24696 26.2137 2.8118 24.784C1.21343 23.1896 0.333984 20.9425 0.333984 18.4552V9.1914C0.333984 4.33154 3.72091 0.666748 8.21254 0.666748H21.4554C25.9471 0.666748 29.334 4.33154 29.334 9.1914V18.4552C29.334 20.9425 28.4545 23.1896 26.8562 24.784C25.4224 26.2124 23.5623 26.9691 21.477 26.9691H8.18691Z" fill="currentColor"/>
</svg>
