<svg width="34" height="34" viewBox="0 0 34 34" fill="none" xmlns="http://www.w3.org/2000/svg">
<path d="M17.4797 6C16.102 6 15.0078 7.10843 15.0078 8.4148C15.0078 9.72117 16.1425 10.8296 17.4797 10.8296C18.8575 10.8296 19.9516 9.72117 19.9516 8.4148C19.9516 7.10843 18.8575 6 17.4797 6ZM17.4797 7.22719C18.1686 7.22719 18.7359 7.78141 18.7359 8.45439C18.7359 9.12737 18.2092 9.642 17.4797 9.642C16.7909 9.642 16.2235 9.08778 16.2235 8.4148C16.2235 7.74182 16.7909 7.22719 17.4797 7.22719ZM6.94379 7.821C5.56601 7.821 4.4719 8.92943 4.4719 10.2358C4.4719 11.5422 5.60654 12.6506 6.94379 12.6506C8.28105 12.6506 9.41569 11.5422 9.41569 10.2358C9.41569 8.92943 8.32157 7.821 6.94379 7.821ZM28.0562 7.821C26.6784 7.821 25.5843 8.92943 25.5843 10.2358C25.5843 11.5422 26.719 12.6506 28.0562 12.6506C29.434 12.6506 30.5281 11.5422 30.5281 10.2358C30.5281 8.92943 29.3935 7.821 28.0562 7.821ZM6.94379 9.00861C7.63268 9.00861 8.2 9.56282 8.2 10.2358C8.2 10.9088 7.63268 11.463 6.94379 11.463C6.2549 11.463 5.68758 10.9088 5.68758 10.2358C5.68758 9.56282 6.2549 9.00861 6.94379 9.00861ZM28.0562 9.00861C28.7451 9.00861 29.3124 9.56282 29.3124 10.2358C29.3124 10.9088 28.7451 11.463 28.0562 11.463C27.3673 11.463 26.8 10.9088 26.8 10.2358C26.8 9.56282 27.3268 9.00861 28.0562 9.00861ZM16.8719 11.463C14.8052 11.463 13.1438 13.0861 13.1438 15.105V17.5198H11.2797C10.9556 17.5198 10.6719 17.7969 10.6314 18.1136C10.5908 18.4303 10.915 18.7074 11.2392 18.747H13.1033H21.8562H23.7203C24.0444 18.747 24.3281 18.4699 24.3686 18.1532C24.3686 17.8365 24.085 17.5594 23.7608 17.5198H21.8562V15.105C21.8562 13.0861 20.1948 11.463 18.1281 11.463H16.8719ZM16.8719 12.6506H18.1281C19.5059 12.6506 20.6 13.7194 20.6 15.0654V17.4802H14.4V15.0654C14.4 13.759 15.4941 12.6506 16.8719 12.6506ZM6.94379 13.284C5.56601 13.284 4.4719 14.3924 4.4719 15.6988V21.2806V21.3201C4.59346 22.5869 5.64706 23.537 6.94379 23.537H10.0235V27.179C10.0235 28.1687 10.8745 29 11.8876 29C12.9007 29 13.7516 28.1687 13.7516 27.179V22.3494C13.7516 21.0034 12.617 19.9346 11.2797 19.9346H9.41569V15.6988C9.41569 15.6592 9.41569 15.6592 9.41569 15.6196C9.29412 14.3528 8.32157 13.284 6.94379 13.284ZM28.0562 13.284C26.719 13.284 25.7059 14.3924 25.5843 15.6196C25.5843 15.6592 25.5843 15.6592 25.5843 15.6988V19.9346H23.7203C22.3425 19.9346 21.2484 21.043 21.2484 22.3494V27.179C21.2484 28.1687 22.0993 29 23.1124 29C24.1255 29 24.9765 28.1687 24.9765 27.179V23.537H28.0562C29.3529 23.537 30.4065 22.5473 30.5281 21.3201V21.2806V15.6988C30.5281 14.3528 29.3935 13.284 28.0562 13.284ZM6.94379 14.4716C7.63268 14.4716 8.07843 14.9466 8.2 15.7384V20.5284C8.2 20.8451 8.48366 21.1222 8.80784 21.1222H11.2797C11.9686 21.1222 12.5359 21.6764 12.5359 22.3494V27.179C12.5359 27.5353 12.2523 27.7728 11.9281 27.7728C11.5634 27.7728 11.3203 27.4957 11.3203 27.179V22.9432C11.3203 22.6265 11.0366 22.3494 10.7124 22.3494H6.98431C6.33595 22.3494 5.80915 21.8744 5.76863 21.241V15.6988C5.7281 15.0258 6.2549 14.4716 6.94379 14.4716ZM28.0562 14.4716C28.7451 14.4716 29.3124 15.0258 29.3124 15.6988V21.241C29.2719 21.8744 28.7451 22.3494 28.0967 22.3494H24.3686C24.0444 22.3494 23.7608 22.6265 23.7608 22.9432V27.179C23.7608 27.5353 23.4771 27.7728 23.1529 27.7728C22.7882 27.7728 22.5451 27.4957 22.5451 27.179V22.3494C22.5451 21.6764 23.1124 21.1222 23.8013 21.1222H26.2732C26.5974 21.1222 26.881 20.8451 26.881 20.5284V15.7384C26.881 14.9862 27.3268 14.4716 28.0562 14.4716ZM2.60784 16.2926C2.28366 16.2926 2 16.5697 2 16.8864V21.716C2 24.0516 3.9451 25.9518 6.33595 25.9518H8.2C8.52418 25.9518 8.80784 25.6747 8.84837 25.358C8.84837 25.0413 8.56471 24.7642 8.24052 24.7246H6.37647C4.67451 24.7246 3.29673 23.3787 3.29673 21.716V16.8864C3.25621 16.5697 2.97255 16.2926 2.60784 16.2926ZM32.3516 16.2926C32.0275 16.2926 31.7438 16.5697 31.7438 16.926V21.7556C31.7438 23.4182 30.366 24.7642 28.6641 24.7642H26.8C26.4758 24.7642 26.1922 25.0413 26.1516 25.358C26.1516 25.6747 26.4353 25.9518 26.7595 25.9914H28.6235C31.0144 25.9914 32.9595 24.0912 32.9595 21.7556V16.8864C33 16.5697 32.7163 16.2926 32.3516 16.2926C32.3922 16.2926 32.3922 16.2926 32.3516 16.2926Z" fill="currentColor"/>
</svg>
