<svg width="34" height="34" viewBox="0 0 34 34" fill="none" xmlns="http://www.w3.org/2000/svg">
<path d="M19.6816 15.1489H18.8127C18.586 15.1489 18.3594 15.3378 18.3594 15.6022C18.3594 15.8666 18.586 16.0555 18.8127 16.0555H19.6816C19.9083 16.0555 20.1349 15.8666 20.1349 15.6022C20.1349 15.3755 19.946 15.1489 19.6816 15.1489Z" fill="currentColor"/>
<path d="M29.844 20.0222H28.4462C28.484 19.8711 28.5218 19.72 28.5218 19.5689V19.1533H29.3907C29.8818 19.1533 30.2596 18.7755 30.2596 18.2844V17.4155C30.2596 16.9244 29.8818 16.5467 29.3907 16.5467H24.5551C24.3285 16.5467 24.1018 16.7355 24.1018 17V19.6444C24.1018 19.7955 24.1396 19.9467 24.1773 20.0978H16.9618C16.9996 19.9467 17.0373 19.7955 17.0373 19.6444C17.0373 18.9267 16.4329 18.3222 15.7151 18.3222H15.6018L15.3751 17.4533H20.0973C21.3062 17.4533 22.2885 16.4711 22.2885 15.2622V6.34666C22.2885 5.13777 21.3062 4.15555 20.0973 4.15555H6.00623C4.79734 4.15555 3.81512 5.13777 3.81512 6.34666V15.1867C3.81512 16.3955 4.79734 17.3778 6.00623 17.3778H10.7285L10.5018 18.2467H10.3885C9.67068 18.2467 9.06623 18.8511 9.06623 19.5689C9.06623 19.72 9.10401 19.8711 9.14179 20.0222H4.23068C4.00401 20.0222 3.77734 20.2111 3.77734 20.4755V22.2511C3.77734 22.4778 3.96623 22.7044 4.23068 22.7044H5.09957V29.3156C5.09957 29.5422 5.28845 29.7689 5.5529 29.7689H7.32845C7.55512 29.7689 7.78179 29.58 7.78179 29.3156V27.1244H26.2929V29.3156C26.2929 29.5422 26.4818 29.7689 26.7462 29.7689H28.5218C28.7485 29.7689 28.9751 29.58 28.9751 29.3156V22.6667H29.844C30.0707 22.6667 30.2973 22.4778 30.2973 22.2133V20.4755C30.2973 20.2489 30.1085 20.0222 29.844 20.0222ZM28.5218 17.3778H29.3907V18.2467H28.5218V17.3778ZM24.9707 17.3778H27.6151V19.5689C27.6151 19.7955 27.4262 20.0222 27.1618 20.0222H25.424C25.1973 20.0222 24.9707 19.8333 24.9707 19.5689V17.3778ZM4.72179 6.34666C4.72179 5.62888 5.28846 5.02444 6.04401 5.02444H20.1351C20.8529 5.02444 21.4573 5.62888 21.4573 6.34666V13.8267H4.72179V6.34666ZM6.04401 16.5089C5.28846 16.5089 4.72179 15.9044 4.72179 15.1867V14.7333H21.4573V15.1867C21.4573 15.9044 20.8529 16.5089 20.1351 16.5089H6.04401ZM14.7329 18.2467H11.4462L11.6729 17.3778H14.5062L14.7329 18.2467ZM10.464 19.1155H15.7529C15.9796 19.1155 16.2062 19.3044 16.2062 19.5689C16.2062 19.7955 16.0173 20.0222 15.7529 20.0222H10.464C10.1996 20.0222 10.0107 19.8333 10.0107 19.5689C10.0107 19.3422 10.1996 19.1155 10.464 19.1155ZM6.9129 28.8244H6.04401V22.6667H6.9129V28.8244ZM26.2929 26.18H7.78179V22.6667H26.2929V26.18ZM28.0685 28.8244H27.1996V22.6667H28.0685V28.8244ZM29.3907 21.7978H4.72179V20.9289H29.3907V21.7978Z" fill="currentColor"/>
<path d="M26.7461 15.1867V15.64H27.615V15.1867H28.0683C28.5594 15.1867 28.9372 14.8089 28.9372 14.3178V13.4489H28.0683V14.3178H27.615C27.1616 14.28 26.7461 14.6955 26.7461 15.1867Z" fill="currentColor"/>
<path d="M25.8767 14.28H26.33C26.8211 14.28 27.1989 13.9022 27.1989 13.4111V12.5422H26.33V13.4111H25.8767C25.3856 13.4111 25.0078 13.7889 25.0078 14.28V14.7333H25.8767V14.28Z" fill="currentColor"/>
<path d="M15.299 25.3111H18.8124C19.039 25.3111 19.2657 25.1222 19.2657 24.8578V23.9889H18.3968V24.4422H18.359H15.7146V23.9889H14.8457V24.8578C14.8457 25.0844 15.0346 25.3111 15.299 25.3111Z" fill="currentColor"/>
</svg>
