<svg width="34" height="34" viewBox="0 0 34 34" fill="none" xmlns="http://www.w3.org/2000/svg">
<path d="M29.101 11.8077C29.0143 11.591 28.8843 11.3309 28.6243 11.0709C28.4076 10.8542 28.0175 10.6808 27.6274 10.6808C27.4541 10.6808 27.1507 10.6808 26.8906 10.6808C26.5006 10.7242 26.2405 10.8542 26.0238 10.9842L24.9836 8.08036C24.9836 8.08036 24.9836 8.08036 24.9836 8.03702C24.5069 6.82348 23.2933 6 21.9931 6L14.3651 6.13002L11.3312 6.08668C10.031 6.08668 8.81747 6.86681 8.34072 8.1237C8.34072 8.1237 8.34072 8.1237 8.34072 8.16704L7.30054 11.0709C7.0405 10.9409 6.82379 10.8108 6.43373 10.7675C6.17368 10.7675 5.91363 10.7675 5.69693 10.7675C5.30686 10.7675 4.9168 10.9409 4.70009 11.1576C4.48339 11.3743 4.31002 11.6343 4.22334 11.8944C4.04998 12.3711 4.00664 12.8045 4.00664 12.8045C3.9633 13.1079 4.13666 13.368 4.3967 13.498L5.65359 14.0181C5.00348 14.7982 4.65675 15.795 4.65675 16.8352V26.0668C4.65675 26.8036 5.26352 27.4104 6.00032 27.4104H9.29422C10.031 27.4104 10.6378 26.8036 10.6378 26.0668V25.1133C12.3714 25.2867 14.2784 25.3734 17.2256 25.3734C18.7425 25.3734 20.0428 25.2433 21.213 25.1567C21.473 25.1567 21.6897 25.1133 21.9064 25.1133H21.9498C21.9931 25.1133 22.0364 25.1133 22.0798 25.1133H22.1665C22.3398 25.1133 22.4698 25.07 22.6432 25.07V26.0235C22.6432 26.7603 23.25 27.3671 23.9868 27.3671H27.2807C28.0175 27.3671 28.6243 26.7603 28.6243 26.0235V16.7919C28.6243 15.7517 28.2775 14.7982 27.6274 13.9747L28.8843 13.4546C29.1443 13.3246 29.3177 13.0646 29.2744 12.7612C29.3177 12.7178 29.2744 12.2844 29.101 11.8077ZM9.59761 8.68713C9.901 7.95034 10.5944 7.51693 11.3312 7.51693L20.5629 7.43025H21.9931C22.7732 7.43025 23.4667 7.907 23.7267 8.60045L25.287 13.0646C23.2933 13.368 19.0893 13.9314 15.4486 13.8447C12.1547 13.8014 9.46759 13.498 7.95066 13.2813L9.59761 8.68713ZM5.39355 12.4578C5.39355 12.4144 5.39355 12.4144 5.39355 12.3711C5.43689 12.2411 5.52357 12.1544 5.56691 12.1111C5.61025 12.0677 5.61025 12.0677 5.65359 12.0677C5.91364 12.0677 6.3037 12.0677 6.3037 12.0677C6.21702 12.0677 6.52041 12.1544 6.73711 12.2844C6.78045 12.3278 6.78045 12.3278 6.82379 12.3278L6.60709 12.9345L6.56375 12.9779L5.39355 12.4578ZM27.324 16.8352L23.2933 18.0921C23.2933 18.7856 23.8568 19.349 24.5502 19.349H27.324V25.9801H24.0301V24.3332C24.0301 23.9865 23.7267 23.6831 23.38 23.6831C23.3367 23.6831 23.3367 23.6831 23.2933 23.6831C21.473 23.8998 19.3926 23.9865 16.0987 23.9865C14.8852 23.9865 13.8017 23.9865 12.8482 23.9865C11.7647 23.9431 10.8545 23.8564 10.031 23.7698C9.98768 23.7698 9.98768 23.7698 9.94434 23.7698C9.59761 23.7698 9.29422 24.0731 9.29422 24.4199V26.0668H6.00032V19.4357H8.77413C9.46759 19.4357 10.031 18.8722 10.031 18.1788L6.00032 16.9219V16.8352C6.00032 16.0117 6.34705 15.1883 6.91048 14.6248L7.0405 14.4948C8.2107 14.6682 11.3746 15.1016 15.4053 15.1883C15.6653 15.1883 15.9687 15.1883 16.2288 15.1883C20.2595 15.1883 24.5936 14.4948 26.1105 14.2348L26.4139 14.5382C27.0206 15.1449 27.324 15.9251 27.324 16.7485V16.8352ZM27.9308 12.4578L26.7606 12.9779L26.7173 12.9345L26.5006 12.3278C26.5439 12.2844 26.5439 12.2844 26.5872 12.2844C26.8473 12.1544 27.1507 12.0677 27.064 12.0677C27.064 12.0677 27.4541 12.0677 27.6708 12.0677C27.7141 12.0677 27.7141 12.0677 27.7574 12.1111C27.8008 12.1544 27.8875 12.2411 27.9308 12.3711C27.9308 12.4144 27.9308 12.4144 27.9308 12.4578Z" fill="currentColor"/>
<path d="M21.7754 17.3986C21.6887 17.3553 21.6021 17.3553 21.5154 17.3553H11.5036C11.1569 17.3553 10.8535 17.6587 10.8535 18.0054C10.8535 18.0921 10.8535 18.1788 10.8969 18.2654L12.1537 20.9092C12.2404 21.0393 12.3271 21.1693 12.4571 21.2126C12.4571 21.2126 14.0174 21.9494 16.4878 21.9494C18.9583 21.9494 20.5185 21.2126 20.5185 21.2126C20.6486 21.1259 20.7786 21.0393 20.8219 20.9092L22.0788 18.2654C22.2522 17.9187 22.0788 17.5287 21.7754 17.3986ZM19.7384 20.1724C19.4784 20.2591 18.4382 20.6925 16.4878 20.6925C14.5375 20.6925 13.4973 20.2591 13.2373 20.1724L12.5438 18.6989H20.3885L19.7384 20.1724Z" fill="currentColor"/>
</svg>
