<svg width="34" height="34" viewBox="0 0 34 34" fill="none" xmlns="http://www.w3.org/2000/svg">
<path d="M7.55469 4.9111V29.0889H26.2169V4.9111H7.55469ZM25.0836 27.9555H8.68802V6.04444H25.0836V27.9555Z" fill="currentColor"/>
<path d="M21.8353 17.7933H11.9375V18.8889H21.8353V17.7933Z" fill="currentColor"/>
<path d="M19.0775 21.08H11.9375V22.1755H19.0775V21.08Z" fill="currentColor"/>
<path d="M21.8353 24.3667H11.9375V25.4622H21.8353V24.3667Z" fill="currentColor"/>
<path d="M16.5841 12.7689H17.6041V15.1489H20.7019V10.0111L17.113 7.17776L13.4863 10.0111V15.1489H16.5841V12.7689ZM15.4886 12.7689V14.0155H14.6574V10.5778L17.113 8.61332L19.6063 10.5778V14.0155H18.7752V12.7689V11.6355H17.6419H16.6219H15.4886V12.7689Z" fill="currentColor"/>
</svg>
