<svg width="34" height="34" viewBox="0 0 34 34" fill="none" xmlns="http://www.w3.org/2000/svg">
<path d="M26.7891 17.2644H17.6091C17.798 16.5844 17.8736 15.8289 17.798 15.1111L19.0825 14.2044C19.1958 14.1289 19.2713 14.0155 19.3091 13.8644L19.5358 12.3533L20.518 12.6178C20.5936 12.6556 20.6691 12.6555 20.7447 12.6555C21.198 12.6555 21.5758 12.3155 21.5758 11.8244V10.9555L22.4825 11.22C23.0113 11.3333 23.5402 10.9933 23.6158 10.5022L23.8047 9.51999L24.8247 9.74666C25.0513 9.78444 25.3913 9.74666 25.5802 9.59555L26.0713 9.25555C26.2602 9.14221 26.4113 8.87777 26.4869 8.65111L27.2425 5.5911C27.318 5.36444 27.2802 5.06221 27.1291 4.87333C26.978 4.68444 26.7513 4.5711 26.4869 4.53333H26.4491H23.8047C23.5025 4.53333 23.0491 4.64666 22.7847 4.83555L14.7002 10.5022C13.8313 10.0111 12.8869 9.78444 11.9047 9.78444C10.7336 9.78444 9.56246 10.1622 8.58023 10.8422C5.89801 12.7311 5.21801 16.4711 7.06912 19.1911C7.25801 19.4555 7.59801 19.4933 7.82468 19.3422C8.08912 19.1533 8.1269 18.8133 7.97579 18.5867C6.46468 16.32 7.03134 13.26 9.22245 11.7111C10.0158 11.1444 10.9602 10.8422 11.9425 10.8422C12.8491 10.8422 13.718 11.0689 14.4736 11.56C14.6625 11.6733 14.8891 11.6733 15.078 11.56L23.4269 5.70444C23.5025 5.62888 23.6913 5.5911 23.8047 5.5911H23.8425H26.2225L25.5425 8.38666C25.5425 8.42444 25.5425 8.42444 25.5425 8.42444L25.0891 8.72666L23.578 8.38666C23.4269 8.34888 23.2758 8.38666 23.1625 8.46222C23.0491 8.53777 22.9736 8.6511 22.9358 8.80222L22.6713 10.1622L21.2736 9.78444C21.1225 9.74666 20.9713 9.74666 20.8202 9.85999C20.6691 9.93555 20.5936 10.1244 20.5936 10.2755V11.5222L19.3469 11.1822C19.1958 11.1444 19.0447 11.1822 18.9313 11.2578C18.818 11.3711 18.7425 11.4844 18.7047 11.6355L18.4025 13.4867L17.0425 14.4311C16.8536 14.5444 16.778 14.7711 16.8158 14.96C17.118 16.8111 16.2869 18.7378 14.7758 19.7956C13.9825 20.3622 13.038 20.6644 12.0558 20.6644C11.6025 20.6644 10.7713 20.4378 9.97801 20.1355C9.71357 20.0222 9.41135 20.1733 9.29801 20.4378C9.18468 20.7022 9.33579 21.0044 9.60023 21.1178C9.94023 21.2689 11.1491 21.7222 12.0936 21.7222C13.3025 21.7222 14.4736 21.3444 15.2669 20.6644C16.1358 20.06 16.8158 19.2289 17.2313 18.3222C17.2691 18.3222 17.3069 18.3222 17.3447 18.3222H26.7891C27.3558 18.3222 27.8469 18.8133 27.8469 19.38V27.4267C27.8469 27.9933 27.3558 28.4844 26.7891 28.4844H10.6958C10.0158 28.4844 8.99579 27.9933 8.54246 27.4267L6.27579 24.5555C5.89802 24.0644 5.86023 23.1578 6.23801 22.6667L7.4469 21.08C7.59801 20.8533 7.56023 20.4755 7.33357 20.3244C7.1069 20.1733 6.7669 20.2111 6.57801 20.4378L5.36912 22.0244C4.7269 22.9311 4.76468 24.3289 5.44468 25.1978L7.71134 28.0689C8.35357 28.8622 9.67579 29.5044 10.6958 29.5044H26.7891C27.9602 29.5044 28.9047 28.5222 28.9047 27.3511V19.38C28.9047 18.2089 27.9602 17.2644 26.7891 17.2644Z" fill="currentColor"/>
<path d="M11.1499 17.7178C10.8477 17.7178 10.621 17.9445 10.621 18.2467C10.621 18.5489 10.8477 18.7756 11.1499 18.7756C12.4343 18.7756 13.5299 17.68 13.5299 16.3956C13.5299 15.0733 12.4721 14.0156 11.1499 14.0156C10.0543 14.0156 9.10987 14.7333 8.84543 15.7911C8.76987 16.0556 8.92098 16.3578 9.2232 16.4333C9.48765 16.5089 9.78988 16.3578 9.86543 16.0556C10.0165 15.4889 10.5454 15.0733 11.1499 15.0733C11.8677 15.0733 12.4721 15.6778 12.4721 16.3956C12.4721 17.1133 11.8677 17.7178 11.1499 17.7178Z" fill="currentColor"/>
<path d="M7.44727 23.4222C7.44727 24.7444 8.50504 25.8022 9.82727 25.8022C11.1117 25.8022 12.2073 24.7444 12.245 23.4222C12.245 23.0822 12.1695 22.7422 12.0184 22.44C11.905 22.1755 11.565 22.0622 11.3006 22.1755C11.0362 22.2889 10.9228 22.6289 11.0362 22.8933C11.1117 23.0444 11.1495 23.2333 11.1495 23.4222C11.1495 24.14 10.545 24.7444 9.82727 24.7444C9.10949 24.7444 8.50504 24.14 8.50504 23.4222C8.50504 23.12 8.27838 22.8933 7.97616 22.8933C7.67394 22.8933 7.44727 23.12 7.44727 23.4222Z" fill="currentColor"/>
<path d="M9.37434 23.8C9.48768 23.9511 9.67656 24.0267 9.82767 24.0267C9.90323 24.0267 10.0166 23.9889 10.0921 23.9889C10.3566 23.8 10.3943 23.46 10.2432 23.2333C9.67657 22.4022 8.80768 20.8533 9.18545 19.3422C9.41212 18.36 10.1299 17.5289 11.3388 16.8867C11.6032 16.7356 11.7166 16.4333 11.5655 16.1689C11.4143 15.9044 11.1121 15.7911 10.8477 15.9422C9.37434 16.7356 8.46768 17.7933 8.16545 19.0778C7.7499 20.8533 8.58101 22.6289 9.37434 23.8Z" fill="currentColor"/>
</svg>
