<svg width="34" height="34" viewBox="0 0 34 34" fill="none" xmlns="http://www.w3.org/2000/svg">
<path d="M29.2022 11.6355H29.7311C30.0333 11.6355 30.26 11.4089 30.26 11.1067C30.26 10.9555 30.1844 10.8044 30.0711 10.7289L24.2156 5.43999C24.1022 5.36444 23.9889 5.28888 23.8755 5.28888H7.97111C7.85778 5.28888 7.70666 5.32666 7.6311 5.43999L1.77555 10.7289C1.54889 10.9178 1.54889 11.2578 1.73777 11.4844C1.85111 11.5978 1.96444 11.6733 2.11555 11.6733H2.64444V27.5778H0V28.6356H31.8467V27.54H29.2022V11.6355ZM18.5867 27.54H13.2978V22.2511H18.5867V27.54ZM28.1444 27.5022H19.6444V21.6467C19.6444 21.3444 19.4178 21.1178 19.1156 21.1178H12.7311C12.4289 21.1178 12.2022 21.3444 12.2022 21.6467V27.5022H3.70222V23.2711H5.28889C5.59111 23.2711 5.81778 23.0444 5.81778 22.7422V18.5111C5.81778 18.2089 5.59111 17.9822 5.28889 17.9822H3.70222V15.5644C4.00444 15.7533 4.38222 15.8667 4.76 15.8667C5.36444 15.8667 5.96888 15.6022 6.34666 15.1489C7.14 16.0178 8.46222 16.1311 9.3311 15.3378C9.40666 15.2622 9.44444 15.2244 9.51999 15.1489C10.3133 16.0178 11.6356 16.1311 12.5044 15.3378C12.58 15.2622 12.6178 15.2244 12.6933 15.1489C13.4867 16.0178 14.8089 16.1311 15.6778 15.3378C15.7533 15.2622 15.7911 15.2244 15.8667 15.1489C16.66 16.0178 17.9822 16.1311 18.8511 15.3378C18.9267 15.2622 18.9644 15.2244 19.04 15.1489C19.8333 16.0178 21.1556 16.1311 22.0244 15.3378C22.1 15.2622 22.1378 15.2244 22.2133 15.1489C23.0067 16.0178 24.3289 16.1311 25.1978 15.3378C25.2733 15.2622 25.3111 15.2244 25.3867 15.1489C25.8022 15.6022 26.3689 15.8667 26.9733 15.8667C27.3511 15.8667 27.7289 15.7533 28.0311 15.5644V17.9822H26.5578C26.2556 17.9822 26.0289 18.2089 26.0289 18.5111V22.7422C26.0289 23.0444 26.2556 23.2711 26.5578 23.2711H28.1444V27.5022ZM3.70222 22.2511V19.0778H4.76V22.2511H3.70222ZM3.70222 13.7511V11.6355H5.81778V13.7511C5.81778 14.3555 5.32666 14.8089 4.76 14.8089C4.19333 14.8089 3.70222 14.3555 3.70222 13.7511ZM6.91333 13.7511V11.6355H9.02889V13.7511C9.02889 14.3555 8.53778 14.8089 7.97111 14.8089C7.36667 14.8089 6.91333 14.3555 6.91333 13.7511ZM10.0867 13.7511V11.6355H12.2022V13.7511C12.2022 14.3555 11.7111 14.8089 11.1444 14.8089C10.5778 14.8089 10.0867 14.3555 10.0867 13.7511ZM13.26 13.7511V11.6355H15.3755V13.7511C15.3755 14.3555 14.8844 14.8089 14.3178 14.8089C13.7511 14.8089 13.26 14.3555 13.26 13.7511ZM16.4711 13.7511V11.6355H18.5867V13.7511C18.5867 14.3555 18.0956 14.8089 17.5289 14.8089C16.9244 14.8089 16.4711 14.3555 16.4711 13.7511ZM19.6444 13.7511V11.6355H21.76V13.7511C21.76 14.3555 21.2689 14.8089 20.7022 14.8089C20.0978 14.8089 19.6444 14.3555 19.6444 13.7511ZM22.8178 13.7511V11.6355H24.9333V13.7511C24.9333 14.3555 24.4422 14.8089 23.8755 14.8089C23.3089 14.8089 22.8178 14.3555 22.8178 13.7511ZM28.1444 22.2511H27.0867V19.0778H28.1444V22.2511ZM28.1444 13.7511C28.1444 14.3555 27.6533 14.8089 27.0867 14.8089C26.4822 14.8089 26.0289 14.3178 26.0289 13.7511V11.6355H28.1444V13.7511ZM3.51333 10.5778L8.19777 6.34666H23.6867L28.3711 10.5778H3.51333Z" fill="currentColor"/>
</svg>
