<svg xmlns="http://www.w3.org/2000/svg" width="20" height="17" viewBox="0 0 20 17" fill="none">
    <path fill-rule="evenodd" clip-rule="evenodd" d="M2.07639 7.62874C6.20257 5.89889 11.194 3.43586 15.5203 1.77204C19.5131 0.30837 19.447 0.704642 18.8479 4.70073C18.381 7.89493 17.8473 11.0898 17.3136 14.284C17.1134 15.8151 16.3129 16.6136 14.6517 15.6816L9.46015 12.0218C8.72631 11.4214 8.92645 10.9544 9.52686 10.358L14.3188 5.83217C15.583 4.56463 14.986 4.10165 13.5183 5.09834L6.93441 9.55874C6.00043 10.2259 5.00441 10.2259 3.93968 9.8923L1.67678 9.09175C0.213109 8.55805 1.34322 7.95764 2.07706 7.62741L2.07639 7.62874Z" fill="currentColor"/>
</svg>
