<svg width="15" height="15" viewBox="0 0 15 15" fill="none" xmlns="http://www.w3.org/2000/svg">
<path fill-rule="evenodd" clip-rule="evenodd" d="M11.9698 2.04363C10.6542 0.726482 8.90453 0.000769043 7.04052 0C3.19962 0 0.0736572 3.12587 0.0721191 6.96781C0.0715918 8.19597 0.392414 9.39484 1.00224 10.4516L0.0136719 14.0625L3.70774 13.0935C4.7256 13.6487 5.87154 13.9413 7.03769 13.9416H7.04063C10.8811 13.9416 14.0074 10.8155 14.0089 6.97339C14.0097 5.11139 13.2855 3.36072 11.9698 2.04363ZM7.04052 12.7648H7.03811C5.99889 12.7643 4.97964 12.4851 4.09026 11.9575L3.87888 11.8319L1.68676 12.407L2.27184 10.2697L2.13408 10.0506C1.55431 9.1284 1.24814 8.06258 1.24867 6.96823C1.24987 3.7749 3.84814 1.1769 7.04285 1.1769C8.58986 1.1774 10.0441 1.78062 11.1376 2.87538C12.231 3.97015 12.8329 5.42533 12.8324 6.97295C12.831 10.1665 10.2329 12.7648 7.04052 12.7648ZM10.2175 8.42699C10.0434 8.33981 9.18732 7.91872 9.02766 7.86054C8.86819 7.80242 8.75197 7.77348 8.63602 7.94773C8.5199 8.12197 8.18627 8.5142 8.08464 8.63033C7.98302 8.74656 7.88157 8.76113 7.70742 8.67394C7.53328 8.58682 6.97228 8.40289 6.30719 7.80971C5.78962 7.34803 5.44021 6.77786 5.33859 6.60364C5.23714 6.42922 5.33771 6.34407 5.41497 6.24827C5.60345 6.01422 5.79219 5.76883 5.85022 5.6527C5.90832 5.53647 5.87923 5.43478 5.83563 5.34766C5.79219 5.26054 5.44399 4.40352 5.29893 4.05479C5.15749 3.71542 5.01405 3.76123 4.90711 3.75594C4.80566 3.75086 4.68954 3.74983 4.57341 3.74983C4.45735 3.74983 4.2687 3.79334 4.10907 3.96775C3.9495 4.14209 3.49976 4.56326 3.49976 5.42028C3.49976 6.2773 4.12366 7.10521 4.21069 7.22142C4.2977 7.33765 5.4385 9.0963 7.18506 9.85042C7.60048 10.03 7.92475 10.137 8.1777 10.2173C8.59483 10.3498 8.97429 10.3311 9.27435 10.2863C9.60891 10.2362 10.3044 9.86501 10.4496 9.45832C10.5947 9.05161 10.5947 8.70304 10.5511 8.63033C10.5077 8.55773 10.3915 8.5142 10.2175 8.42699Z" fill="currentColor"/>
</svg>
