<svg width="150" height="80" viewBox="0 0 150 80" fill="none" xmlns="http://www.w3.org/2000/svg">
<path d="M52.7389 48.703V30.0419C52.7389 22.8453 46.8697 16.9875 39.659 16.9875H20.9614C13.7506 16.9875 7.88142 22.8453 7.88142 30.0419V48.703C7.88142 55.4813 12.996 61.0043 19.6198 61.6737L33.3705 50.544H18.5298V45.1884L33.2028 33.2219H19.1168V28.1173H42.0066V33.4729L27.3336 45.4394H42.0066V50.7951L28.5075 61.7574H39.659C46.8697 61.7574 52.7389 55.8997 52.7389 48.703Z" fill="#231F20"/>
<path d="M63.8906 25.272H67.3283C68.8375 25.272 69.9275 26.1925 69.9275 27.7824C69.9275 29.2887 68.8375 30.2929 67.3283 30.2092H64.9806V33.4728H63.8906V25.272ZM67.1606 29.205C68.2506 29.205 68.9213 28.7029 68.9213 27.6987C68.9213 26.6946 68.2506 26.1925 67.1606 26.1925H64.9806V29.205H67.1606Z" fill="#231F20"/>
<path d="M73.5328 27.4478C75.0421 27.4478 76.2997 28.703 76.2997 30.4603C76.2997 32.2176 75.0421 33.5565 73.5328 33.4729C72.0236 33.4729 70.7659 32.2176 70.7659 30.4603C70.6821 28.7867 71.9398 27.4478 73.5328 27.4478ZM73.5328 32.7197C74.539 32.7197 75.2936 31.8829 75.2936 30.544C75.2936 29.2051 74.539 28.3683 73.5328 28.3683H73.449C72.4428 28.3683 71.6882 29.2051 71.6882 30.544C71.6882 31.8829 72.4428 32.7197 73.449 32.7197H73.5328Z" fill="#231F20"/>
<path d="M80.1564 27.4478C81.4979 27.4478 82.4202 28.2009 82.5041 29.4561H81.4979C81.4141 29.1214 81.3302 28.7867 81.0787 28.6193C80.8271 28.3683 80.5756 28.2846 80.2402 28.2846H80.1564C79.0664 28.2846 78.3956 29.2888 78.3956 30.4603C78.3956 31.6319 78.9825 32.7197 80.1564 32.636H80.2402C80.5756 32.636 80.911 32.5524 81.0787 32.3013C81.3302 32.0503 81.4979 31.7992 81.4979 31.4645H82.5041C82.3364 32.7197 81.4141 33.4729 80.1564 33.4729C78.3956 33.4729 77.3895 32.1339 77.3895 30.4603C77.3895 28.7867 78.3956 27.4478 80.1564 27.4478Z" fill="#231F20"/>
<path d="M86.3612 27.4478C87.7028 27.4478 88.6251 28.2009 88.7089 29.4561H87.7028C87.6189 29.1214 87.5351 28.7867 87.2835 28.6193C87.032 28.3683 86.7805 28.2846 86.4451 28.2846H86.3612C85.2712 28.2846 84.6005 29.2888 84.6005 30.4603C84.6005 31.6319 85.1874 32.7197 86.3612 32.636H86.4451C86.7805 32.636 87.1158 32.5524 87.2835 32.3013C87.5351 32.0503 87.7028 31.7992 87.7028 31.4645H88.7089C88.5412 32.7197 87.6189 33.4729 86.3612 33.4729C84.6005 33.4729 83.5943 32.1339 83.5943 30.4603C83.5943 28.7867 84.6005 27.4478 86.3612 27.4478Z" fill="#231F20"/>
<path d="M95.3326 27.615V33.4727H94.3264V28.7029L91.4757 33.4727H90.1342V27.615H91.1403V32.3849L94.0749 27.615H95.3326Z" fill="#231F20"/>
<path d="M102.376 27.6151V33.4728H101.369V28.7029L98.5187 33.4728H97.1771V27.6151H98.1833V32.4686L101.118 27.6151H102.376ZM98.854 25.272C98.9379 25.8577 99.1894 26.1925 99.6925 26.1925C100.196 26.1925 100.531 25.8577 100.531 25.272H101.369C101.369 26.3598 100.699 26.7782 99.6087 26.7782C98.5187 26.7782 97.8479 26.2762 97.8479 25.272H98.854Z" fill="#231F20"/>
<path d="M106.568 27.4478C107.909 27.4478 108.832 28.2009 108.915 29.4561H107.909C107.825 29.1214 107.742 28.7867 107.49 28.6193C107.239 28.3683 106.987 28.2846 106.652 28.2846H106.568C105.478 28.2846 104.807 29.2888 104.807 30.4603C104.807 31.6319 105.394 32.7197 106.568 32.636H106.652C106.987 32.636 107.322 32.5524 107.49 32.3013C107.742 32.0503 107.909 31.7992 107.909 31.4645H108.915C108.748 32.7197 107.825 33.4729 106.568 33.4729C104.807 33.4729 103.801 32.1339 103.801 30.4603C103.801 28.7867 104.891 27.4478 106.568 27.4478Z" fill="#231F20"/>
<path d="M112.437 30.6275L111.347 31.6317V33.4727H110.341V27.615H111.347V30.4602L114.282 27.615H115.456L113.108 29.8744L115.623 33.4727H114.366L112.437 30.6275Z" fill="#231F20"/>
<path d="M118.725 27.4478C120.235 27.4478 121.492 28.703 121.492 30.4603C121.492 32.2176 120.235 33.5565 118.725 33.4729C117.216 33.4729 115.959 32.2176 115.959 30.4603C115.959 28.7867 117.216 27.4478 118.725 27.4478ZM118.809 32.7197C119.815 32.7197 120.57 31.8829 120.57 30.544C120.57 29.2051 119.815 28.3683 118.809 28.3683H118.725C117.719 28.3683 116.965 29.2051 116.965 30.544C116.965 31.8829 117.719 32.7197 118.725 32.7197H118.809Z" fill="#231F20"/>
<path d="M125.349 27.4478C126.859 27.4478 127.781 28.5356 127.781 30.0419V30.6277H123.673C123.673 31.9666 124.595 32.7197 125.349 32.7197H125.433C126.104 32.7197 126.607 32.385 126.775 31.7155H127.781C127.529 32.8871 126.607 33.5565 125.349 33.5565C123.84 33.5565 122.583 32.4687 122.666 30.4603C122.583 28.5356 123.924 27.4478 125.349 27.4478ZM126.775 29.8745C126.775 28.8703 126.104 28.3683 125.349 28.3683H125.266C124.595 28.3683 123.84 28.7867 123.673 29.8745H126.775Z" fill="#231F20"/>
<path d="M66.1542 37.5733C67.6635 37.5733 68.9212 38.8285 68.9212 40.5858C68.9212 42.3432 67.6635 43.6821 66.1542 43.5984C64.645 43.5984 63.3873 42.3432 63.3873 40.5858C63.3035 38.8285 64.645 37.4896 66.1542 37.5733ZM66.2381 42.7616C67.2442 42.7616 67.9989 41.9248 67.9989 40.5858C67.9989 39.2469 67.2442 38.4101 66.2381 38.4101H66.1542C65.1481 38.4101 64.3935 39.2469 64.3935 40.5858C64.3935 41.9248 65.1481 42.7616 66.1542 42.7616H66.2381Z" fill="#231F20"/>
<path d="M70.3467 37.9915C70.4305 37.4058 70.5982 36.9874 70.8498 36.6526C71.269 36.1505 71.9398 35.8995 72.8621 35.8995H74.2036C74.6228 35.8995 74.7905 35.8158 74.7905 35.4811V35.3137H75.7128V35.6484C75.7128 36.4853 75.3774 36.82 74.3713 36.82H72.8621C71.5205 36.82 71.1013 37.4895 71.0175 39.0794C71.4367 38.4936 72.2751 37.9915 73.1136 37.9915C74.539 37.9915 75.7128 39.0794 75.7128 40.753C75.7128 42.4267 74.539 43.7656 72.9459 43.7656C71.1013 43.7656 70.179 42.4267 70.179 40.251C70.179 39.2468 70.2629 38.4936 70.3467 37.9915ZM73.0298 42.8451C74.0359 42.8451 74.7067 41.9246 74.7067 40.6694C74.7067 39.4978 74.0359 38.661 73.0298 38.661H72.9459C71.9398 38.661 71.1852 39.4978 71.1852 40.5857C71.1852 41.8409 71.9398 42.8451 73.0298 42.8451Z" fill="#231F20"/>
<path d="M86.1934 42.6779V45.1047H85.2711V43.5147H77.1381V37.657H78.1442V42.6779H80.6596V37.657H81.6657V42.6779H84.1811V37.657H85.1872V42.6779H86.1934Z" fill="#231F20"/>
<path d="M89.6311 37.5733C91.1403 37.5733 92.0626 38.6612 92.0626 40.1675V40.7533H87.9542C87.9542 42.0922 88.8765 42.8453 89.6311 42.8453H89.7149C90.3857 42.8453 90.8888 42.5106 91.0565 41.8411H92.0626C91.8111 43.0127 90.8888 43.6821 89.6311 43.6821C88.1219 43.6821 86.8642 42.5943 86.948 40.5859C86.948 38.5775 88.2896 37.4897 89.6311 37.5733ZM91.1403 39.9164C91.1403 38.9123 90.4695 38.4102 89.7149 38.4102H89.6311C88.9603 38.4102 88.2057 38.8286 88.038 39.9164H91.1403Z" fill="#231F20"/>
<path d="M96.0035 37.5733C97.345 37.5733 98.2673 38.3264 98.3512 39.5817H97.345C97.2612 39.2469 97.1773 38.9122 96.9258 38.7448C96.6743 38.4938 96.4227 38.4101 96.0873 38.4101H96.0035C94.9135 38.4101 94.2427 39.4143 94.2427 40.5858C94.2427 41.7574 94.8296 42.8453 96.0035 42.7616H96.0873C96.4227 42.7616 96.7581 42.6779 96.9258 42.4268C97.1773 42.1758 97.345 41.9248 97.345 41.59H98.3512C98.1835 42.8453 97.2612 43.5984 96.0035 43.5984C94.2427 43.5984 93.2366 42.2595 93.2366 40.5858C93.2366 38.8285 94.2427 37.4896 96.0035 37.5733Z" fill="#231F20"/>
<path d="M103.885 38.4938H101.956V43.5147H100.95V38.4938H99.0219V37.657H103.885V38.4938Z" fill="#231F20"/>
<path d="M104.975 37.657H107.742C108.916 37.657 109.586 38.3264 109.586 39.1633C109.586 39.8327 109.167 40.3348 108.497 40.5859C109.083 40.6695 109.754 41.1716 109.754 41.9248C109.754 42.8453 108.916 43.5984 107.826 43.5984H104.975V37.657V37.657ZM107.658 40.1674C108.245 40.1674 108.664 39.8327 108.664 39.2469C108.664 38.7448 108.245 38.4101 107.574 38.4101H106.065V40.1674H107.658ZM107.574 42.7616C108.329 42.7616 108.748 42.4269 108.748 41.8411C108.748 41.339 108.329 41.0043 107.658 41.0043H105.981V42.8453H107.574V42.7616Z" fill="#231F20"/>
<path d="M113.611 37.5733C115.12 37.5733 116.378 38.8285 116.378 40.5858C116.378 42.3432 115.12 43.6821 113.611 43.5984C112.102 43.5984 110.844 42.3432 110.844 40.5858C110.844 38.8285 112.102 37.4896 113.611 37.5733ZM113.695 42.7616C114.701 42.7616 115.456 41.9248 115.456 40.5858C115.456 39.2469 114.701 38.4101 113.695 38.4101H113.611C112.605 38.4101 111.85 39.2469 111.85 40.5858C111.85 41.9248 112.605 42.7616 113.611 42.7616H113.695Z" fill="#231F20"/>
<path d="M69.4243 50.0419C69.6758 50.3766 69.8435 50.7114 69.8435 51.2135C69.8435 52.7197 68.5858 53.7239 66.6574 53.7239C64.5612 53.7239 63.3874 52.7197 63.3035 50.8787H64.8966C65.0643 51.7992 65.6512 52.3013 66.7412 52.3013C67.7473 52.3013 68.2504 51.8829 68.2504 51.2135C68.2504 50.544 67.7473 50.2093 66.825 50.2093H65.7351V48.7867H66.7412C67.6635 48.7867 68.1666 48.3683 68.1666 47.6988C68.1666 47.113 67.6635 46.6946 66.7412 46.6946C66.2381 46.6946 65.8189 46.862 65.4835 47.113C65.232 47.3641 65.0643 47.6988 64.9804 48.2009H63.3874C63.3874 47.7825 63.5551 47.3641 63.7228 46.862C63.9743 46.4436 64.3097 46.0252 64.8128 45.7741C65.3158 45.5231 65.9027 45.3557 66.6574 45.3557C68.6697 45.3557 69.7596 46.2762 69.7596 47.6988C69.7596 48.5356 69.2566 49.2051 68.3343 49.4561C68.7535 49.5398 69.0889 49.7072 69.4243 50.0419Z" fill="#231F20"/>
<path d="M71.185 47.6987H72.6942V49.9581H74.958V47.6987H76.4672V53.5565H74.958V51.1297H72.6942V53.5565H71.185V47.6987Z" fill="#231F20"/>
<path d="M77.7251 50.6276C77.7251 48.6193 78.899 47.5314 80.2405 47.6151C81.079 47.6151 81.7497 48.0335 82.0013 48.5356V47.6988H83.5105V53.5565H82.0013V52.7197C81.6659 53.2218 81.079 53.6402 80.2405 53.6402C79.0666 53.7239 77.7251 52.636 77.7251 50.6276ZM80.6597 52.4686C81.4143 52.4686 82.0013 51.7992 82.0013 50.6276C82.0013 49.4561 81.4143 48.7866 80.6597 48.7866H80.5759C79.8213 48.7866 79.2343 49.5398 79.2343 50.6276C79.2343 51.6318 79.8213 52.4686 80.5759 52.4686H80.6597Z" fill="#231F20"/>
<path d="M85.1034 47.6987H86.6965V49.9581H88.9603V47.6987H90.4695V53.5565H88.9603V51.1297H86.6965V53.5565H85.1034V47.6987Z" fill="#231F20"/>
<path d="M97.764 47.6987V53.5565H96.2548V49.3724L94.0748 53.5565H92.0625V47.6987H93.5717V51.8828L95.6678 47.6987H97.764Z" fill="#231F20"/>
<path d="M99.0218 50.6276C99.0218 48.8703 100.112 47.5314 101.789 47.615C103.466 47.615 104.472 48.8703 104.472 50.6276C104.472 50.7113 104.472 50.9623 104.472 51.2134H100.531C100.615 51.9665 101.202 52.5523 101.873 52.5523H101.956C102.543 52.5523 102.879 52.2176 102.963 51.7991H104.472C104.22 52.9707 103.214 53.8075 101.789 53.8075C100.279 53.7238 98.9379 52.5523 99.0218 50.6276ZM102.963 49.9581C102.963 49.2887 102.376 48.8703 101.789 48.8703H101.705C101.034 48.8703 100.531 49.2887 100.531 49.9581H102.963Z" fill="#231F20"/>
</svg>
