<svg width="30" height="30" viewBox="0 0 30 30" fill="none" xmlns="http://www.w3.org/2000/svg">
<path d="M15.0002 5.4C15.0002 3.24486 13.2545 1.5 11.1004 1.5C8.94553 1.5 7.2002 3.24681 7.2002 5.40039C7.2002 7.55358 8.94631 9.29922 11.1004 9.29922L15.0002 9.3V5.4Z" stroke="#E65497" stroke-miterlimit="10" stroke-linecap="round" stroke-linejoin="round"/>
<path d="M18.9002 9.3C21.0547 9.3 22.8 7.55419 22.8 5.39922C22.8 3.24503 21.0535 1.5 18.9002 1.5C16.7469 1.5 15 3.24542 15 5.39922V9.3H18.9002Z" stroke="#E65497" stroke-miterlimit="10" stroke-linecap="round" stroke-linejoin="round"/>
<path d="M24.5999 13.2H5.3999V28.5H24.5999V13.2Z" stroke="#0F0F0F" stroke-miterlimit="10" stroke-linecap="round" stroke-linejoin="round"/>
<path d="M26.6998 9.3H3.2998V13.2H26.6998V9.3Z" stroke="#0F0F0F" stroke-miterlimit="10" stroke-linecap="round" stroke-linejoin="round"/>
<path d="M18 13.2H12V28.5H18V13.2Z" stroke="#0F0F0F" stroke-miterlimit="10" stroke-linecap="round" stroke-linejoin="round"/>
</svg>
