<svg width="22" height="22" viewBox="0 0 22 22" fill="none" xmlns="http://www.w3.org/2000/svg">
<path d="M11 18.7916H6.41667C3.66667 18.7916 1.83334 17.4166 1.83334 14.2083V7.79159C1.83334 4.58325 3.66667 3.20825 6.41667 3.20825H15.5833C18.3333 3.20825 20.1667 4.58325 20.1667 7.79159V10.5416" stroke="white" stroke-miterlimit="10" stroke-linecap="round" stroke-linejoin="round"/>
<path d="M15.5833 8.25L12.7142 10.5417C11.77 11.2933 10.2208 11.2933 9.27666 10.5417L6.41666 8.25" stroke="white" stroke-miterlimit="10" stroke-linecap="round" stroke-linejoin="round"/>
<path d="M17.6092 13.5392L14.3642 16.7842C14.2359 16.9125 14.1167 17.1508 14.0892 17.325L13.915 18.5625C13.8508 19.0117 14.1625 19.3234 14.6117 19.2592L15.8492 19.085C16.0234 19.0575 16.2708 18.9383 16.39 18.81L19.635 15.565C20.1942 15.0059 20.46 14.355 19.635 13.53C18.8192 12.7142 18.1683 12.98 17.6092 13.5392Z" fill="white" stroke="white" stroke-miterlimit="10" stroke-linecap="round" stroke-linejoin="round"/>
<path d="M17.1417 14.0066C17.4167 14.9966 18.1867 15.7666 19.1767 16.0416" stroke="white" stroke-miterlimit="10" stroke-linecap="round" stroke-linejoin="round"/>
</svg>
