<svg width="27" height="23" viewBox="0 0 27 23" fill="none" xmlns="http://www.w3.org/2000/svg">
<path d="M20.2593 7.71014V4.85299C20.2593 4.09523 19.9694 3.36851 19.4534 2.83269C18.9374 2.29687 18.2376 1.99585 17.5079 1.99585H3.75132C3.02163 1.99585 2.32182 2.29687 1.80584 2.83269C1.28987 3.36851 1 4.09523 1 4.85299V13.4244C1 14.1822 1.28987 14.9089 1.80584 15.4447C2.32182 15.9805 3.02163 16.2816 3.75132 16.2816H6.50265M9.25397 21.9959H23.0106C23.7403 21.9959 24.4401 21.6948 24.9561 21.159C25.472 20.6232 25.7619 19.8965 25.7619 19.1387V10.5673C25.7619 9.80952 25.472 9.08279 24.9561 8.54697C24.4401 8.01116 23.7403 7.71014 23.0106 7.71014H9.25397C8.52427 7.71014 7.82446 8.01116 7.30849 8.54697C6.79252 9.08279 6.50265 9.80952 6.50265 10.5673V19.1387C6.50265 19.8965 6.79252 20.6232 7.30849 21.159C7.82446 21.6948 8.52427 21.9959 9.25397 21.9959ZM18.8836 14.853C18.8836 15.6108 18.5937 16.3375 18.0778 16.8733C17.5618 17.4091 16.862 17.7101 16.1323 17.7101C15.4026 17.7101 14.7028 17.4091 14.1868 16.8733C13.6708 16.3375 13.381 15.6108 13.381 14.853C13.381 14.0952 13.6708 13.3685 14.1868 12.8327C14.7028 12.2969 15.4026 11.9958 16.1323 11.9958C16.862 11.9958 17.5618 12.2969 18.0778 12.8327C18.5937 13.3685 18.8836 14.0952 18.8836 14.853V14.853Z" stroke="currentColor" stroke-width="2" stroke-linecap="round" stroke-linejoin="round"/>
</svg>
