<svg width="20" height="20" viewBox="0 0 20 20" fill="none" xmlns="http://www.w3.org/2000/svg">
<path d="M6.98334 9.99994L8.99167 12.0166L13.0167 7.98328" stroke="white" stroke-linecap="round" stroke-linejoin="round"/>
<path d="M8.95834 2.04172C9.53334 1.55006 10.475 1.55006 11.0583 2.04172L12.375 3.17506C12.625 3.39172 13.0917 3.56672 13.425 3.56672H14.8417C15.725 3.56672 16.45 4.29172 16.45 5.17506V6.59172C16.45 6.91672 16.625 7.39172 16.8417 7.64172L17.975 8.95839C18.4667 9.53339 18.4667 10.4751 17.975 11.0584L16.8417 12.3751C16.625 12.6251 16.45 13.0917 16.45 13.4251V14.8417C16.45 15.7251 15.725 16.4501 14.8417 16.4501H13.425C13.1 16.4501 12.625 16.6251 12.375 16.8417L11.0583 17.9751C10.4833 18.4667 9.54167 18.4667 8.95834 17.9751L7.64167 16.8417C7.39167 16.6251 6.925 16.4501 6.59167 16.4501H5.15C4.26667 16.4501 3.54167 15.7251 3.54167 14.8417V13.4167C3.54167 13.0917 3.36667 12.6251 3.15834 12.3751L2.03334 11.0501C1.55 10.4751 1.55 9.54172 2.03334 8.96672L3.15834 7.64172C3.36667 7.39172 3.54167 6.92506 3.54167 6.60006V5.16672C3.54167 4.28339 4.26667 3.55839 5.15 3.55839H6.59167C6.91667 3.55839 7.39167 3.38339 7.64167 3.16672L8.95834 2.04172Z" stroke="white" stroke-linecap="round" stroke-linejoin="round"/>
</svg>
