<svg width="128" height="28" viewBox="0 0 128 28" fill="none" xmlns="http://www.w3.org/2000/svg">
<g clip-path="url(#clip0_12_636)">
<path d="M84.8923 12.7344L84.97 11.469C85.1258 11.548 85.359 11.548 85.5925 11.548C86.682 11.548 86.7596 9.8871 86.7596 5.14117H91.8955V12.7344H90.3392V6.40678H88.1605C88.1605 10.5199 88.0049 12.8136 85.9818 12.8136C85.5925 12.8925 85.2036 12.8136 84.8923 12.7344ZM93.6852 5.22035H95.1635V7.98868C95.1635 8.77963 95.0858 10.2034 95.0858 10.9152L98.2761 5.22013H99.9102V12.8136H98.4317V10.0452C98.4317 9.25429 98.5094 7.83054 98.5094 7.11877L95.319 12.8136H93.6849V5.22035H93.6852ZM101.155 12.6552L101.31 11.3106C101.855 11.6269 102.555 11.7061 103.178 11.7061C103.878 11.7061 104.734 11.548 104.734 10.5986C104.734 9.57036 103.645 9.49118 102.944 9.49118C102.789 9.49118 102.633 9.49118 102.4 9.49118V8.30475C102.555 8.30475 102.711 8.30475 102.789 8.30475C103.489 8.30475 104.656 8.1466 104.656 7.19729C104.656 6.40633 103.878 6.24819 103.256 6.24819C102.711 6.24819 101.933 6.40633 101.466 6.56448L101.31 5.37806C101.933 5.21991 102.789 5.06177 103.489 5.06177C104.967 5.06177 106.135 5.61538 106.135 7.03914C106.135 7.83009 105.59 8.4629 104.734 8.7C105.668 8.85815 106.29 9.64932 106.29 10.5192C106.29 12.1803 105.045 12.8129 103.333 12.8129C102.555 12.9717 101.777 12.8136 101.155 12.6552ZM107.769 5.22035H109.247V7.98868C109.247 8.77963 109.17 10.2034 109.17 10.9152L112.36 5.22013H113.994V12.8136H112.516V10.0452C112.516 9.25429 112.593 7.83054 112.593 7.11877L109.403 12.8136H107.769V5.22035ZM115.861 5.22035H117.417V8.22601H120.374V5.22035H121.931V12.8136H120.374V9.4914H117.418V12.8136H115.861V5.22035H115.861ZM123.643 5.22035H128V6.48596H125.121V12.8136H123.565V5.22035H123.643ZM67.5402 24.2032H70.8861C72.1312 24.2032 72.9093 23.8869 73.4539 23.1749C73.6872 22.8586 74.0765 22.2258 74.0765 21.0394C74.0765 19.8529 73.6874 19.0618 72.9093 18.4292C72.4423 18.1129 71.8198 17.8756 70.8082 17.8756H67.4623V24.2032H67.5402ZM63.1053 28V5.22035H77.7337L76.4889 9.01696H67.5404V14.079H71.1977C74.0767 14.079 75.6331 14.7909 76.6447 15.6609C77.4228 16.3728 78.8232 17.9545 78.8232 21.0396C78.8232 24.1242 77.4228 25.7853 76.1777 26.6554C74.7771 27.6045 73.2988 27.9208 70.3417 27.9208H63.1055V28H63.1053ZM50.1884 28V9.01696H43.7298V5.22035H61.7821L60.5372 9.01696H54.7793V28H50.1884ZM32.1361 14.3163H34.626C35.4043 14.3163 35.7932 14.3163 36.1822 14.2373C37.1938 13.921 37.894 12.9717 37.894 11.7063C37.894 10.2036 37.1938 9.49162 36.1822 9.17533C35.7932 9.01718 35.4041 8.938 34.5481 8.938H32.2138V14.3165H32.1361V14.3163ZM32.214 18.2713V24.2824H35.3264C36.2603 24.2824 37.1163 24.2034 37.7386 23.6495C38.361 23.0957 38.5944 22.305 38.5944 21.3559C38.5944 20.6441 38.3612 19.9323 38.0498 19.3785C37.4273 18.5873 36.5715 18.3502 35.1708 18.3502H32.214V18.2713ZM39.3728 15.8984C40.2285 16.2937 41.0069 16.8475 41.4736 17.1638C42.7966 18.2713 43.3412 19.6948 43.3412 21.5932C43.3412 24.6778 41.7071 26.9717 39.0614 27.6835C38.2833 27.9208 37.4273 28 35.7932 28H27.7009V5.22035H34.8597C36.338 5.22035 37.3496 5.29954 38.2056 5.53664C40.7732 6.24863 42.4852 8.06764 42.4852 10.9152C42.4852 12.4179 41.9406 13.7627 41.0848 14.6328C40.7732 15.0281 40.2285 15.5027 39.3728 15.8984Z" fill="currentColor"/>
<path d="M23.1101 3.48009H4.1241L5.52474 0H24.5107L23.1101 3.48009ZM22.4098 5.22036H3.42389L2.02325 8.70045H21.0094L22.4098 5.22036ZM20.3867 10.3615H1.40072L0.000305176 13.8416H18.9863L20.3867 10.3615Z" fill="currentColor"/>
</g>
<defs>
<clipPath id="clip0_12_636">
<rect width="128" height="28" fill="currentColor"/>
</clipPath>
</defs>
</svg>
