<svg width="20" height="20" viewBox="0 0 20 20" fill="none" xmlns="http://www.w3.org/2000/svg">
<path d="M19.1392 15.8027C19.1392 16.1327 19.0659 16.4718 18.91 16.8018C18.7542 17.1318 18.5525 17.4435 18.2867 17.7368C17.8375 18.2318 17.3425 18.5893 16.7834 18.8185C16.2334 19.0477 15.6375 19.1668 14.9959 19.1668C14.0609 19.1668 13.0617 18.9468 12.0075 18.4977C10.9534 18.0485 9.89921 17.4435 8.85421 16.6827C7.80004 15.9127 6.80087 15.0602 5.84754 14.116C4.90337 13.1627 4.05087 12.1635 3.29004 11.1185C2.53837 10.0735 1.93337 9.0285 1.49337 7.99266C1.05337 6.94766 0.833374 5.9485 0.833374 4.99516C0.833374 4.37183 0.943374 3.776 1.16337 3.226C1.38337 2.66683 1.73171 2.1535 2.21754 1.69516C2.80421 1.11766 3.44587 0.833496 4.12421 0.833496C4.38087 0.833496 4.63754 0.888496 4.86671 0.998496C5.10504 1.1085 5.31587 1.2735 5.48087 1.51183L7.60754 4.50933C7.77254 4.7385 7.89171 4.94933 7.97421 5.151C8.05671 5.3435 8.10254 5.536 8.10254 5.71016C8.10254 5.93016 8.03837 6.15016 7.91004 6.361C7.79087 6.57183 7.61671 6.79183 7.39671 7.01183L6.70004 7.736C6.59921 7.83683 6.55337 7.956 6.55337 8.10266C6.55337 8.176 6.56254 8.24016 6.58087 8.3135C6.60837 8.38683 6.63587 8.44183 6.65421 8.49683C6.81921 8.79933 7.10337 9.1935 7.50671 9.67016C7.91921 10.1468 8.35921 10.6327 8.83587 11.1185C9.33087 11.6043 9.80754 12.0535 10.2934 12.466C10.77 12.8693 11.1642 13.1443 11.4759 13.3093C11.5217 13.3277 11.5767 13.3552 11.6409 13.3827C11.7142 13.4102 11.7875 13.4193 11.87 13.4193C12.0259 13.4193 12.145 13.3643 12.2459 13.2635L12.9425 12.576C13.1717 12.3468 13.3917 12.1727 13.6025 12.0627C13.8134 11.9343 14.0242 11.8702 14.2534 11.8702C14.4275 11.8702 14.6109 11.9068 14.8125 11.9893C15.0142 12.0718 15.225 12.191 15.4542 12.3468L18.4884 14.501C18.7267 14.666 18.8917 14.8585 18.9925 15.0877C19.0842 15.3168 19.1392 15.546 19.1392 15.8027Z" fill="currentColor"/>
</svg>
