<svg width="22" height="28" viewBox="0 0 22 28" fill="none" xmlns="http://www.w3.org/2000/svg">
<path d="M16.2778 7.08851C16.2778 8.56194 15.6925 9.97502 14.6506 11.0169C13.6087 12.0588 12.1956 12.6441 10.7222 12.6441C9.2488 12.6441 7.83572 12.0588 6.79385 11.0169C5.75198 9.97502 5.16667 8.56194 5.16667 7.08851C5.16667 5.61509 5.75198 4.20201 6.79385 3.16014C7.83572 2.11827 9.2488 1.53296 10.7222 1.53296C12.1956 1.53296 13.6087 2.11827 14.6506 3.16014C15.6925 4.20201 16.2778 5.61509 16.2778 7.08851V7.08851ZM10.7222 16.8107C8.14373 16.8107 5.67084 17.835 3.84757 19.6583C2.0243 21.4816 1 23.9545 1 26.533H20.4444C20.4444 23.9545 19.4201 21.4816 17.5969 19.6583C15.7736 17.835 13.3007 16.8107 10.7222 16.8107V16.8107Z" stroke="currentColor" stroke-width="2" stroke-linecap="round" stroke-linejoin="round"/>
</svg>
