<svg width="23" height="13" viewBox="0 0 23 13" fill="none" xmlns="http://www.w3.org/2000/svg">
<path fill-rule="evenodd" clip-rule="evenodd" d="M11.2466 12.6229H12.5922C12.5922 12.6229 12.9987 12.5803 13.2062 12.3664C13.3972 12.17 13.3911 11.8013 13.3911 11.8013C13.3911 11.8013 13.3648 10.0749 14.2028 9.8207C15.0288 9.57029 16.0896 11.4892 17.214 12.227C18.0642 12.7854 18.7102 12.663 18.7102 12.663L21.7165 12.6229C21.7165 12.6229 23.2892 12.5303 22.5435 11.348C22.4824 11.2513 22.1092 10.4735 20.3083 8.87514C18.4233 7.20228 18.6757 7.47286 20.9464 4.57918C22.3293 2.81691 22.8821 1.74102 22.7095 1.28021C22.5447 0.841325 21.5277 0.957329 21.5277 0.957329L18.1427 0.977491C18.1427 0.977491 17.8918 0.944764 17.7057 1.05113C17.5238 1.15544 17.4068 1.39856 17.4068 1.39856C17.4068 1.39856 16.8711 2.76226 16.1565 3.92201C14.6493 6.36921 14.0466 6.49836 13.8003 6.34642C13.2273 5.99227 13.3703 4.92369 13.3703 4.16454C13.3703 1.79303 13.7465 0.804216 12.6377 0.548247C12.2698 0.463216 11.999 0.407113 11.058 0.398055C9.85026 0.386074 8.82799 0.401561 8.24917 0.672724C7.8641 0.853013 7.56704 1.25479 7.74796 1.27788C7.97167 1.30651 8.47837 1.40849 8.74701 1.75826C9.09387 2.20942 9.08165 3.22277 9.08165 3.22277C9.08165 3.22277 9.28091 6.01448 8.6162 6.36132C8.15993 6.59917 7.53404 6.11353 6.19026 3.89338C5.50172 2.75613 4.98188 1.49907 4.98188 1.49907C4.98188 1.49907 4.88164 1.26414 4.70286 1.13849C4.48587 0.986257 4.18271 0.937752 4.18271 0.937752L0.966153 0.957913C0.966153 0.957913 0.483288 0.970771 0.306034 1.17151C0.148338 1.35005 0.293503 1.71939 0.293503 1.71939C0.293503 1.71939 2.81174 7.35247 5.66309 10.1912C8.27759 12.7939 11.2466 12.6229 11.2466 12.6229Z" fill="white"/>
</svg>
