<svg width="14" height="14" viewBox="0 0 14 14" fill="none" xmlns="http://www.w3.org/2000/svg">
<path fill-rule="evenodd" clip-rule="evenodd" d="M13.5332 4.27538C13.5527 4.82226 13.5625 5.73046 13.5625 6.99998C13.5625 8.26951 13.5478 9.1826 13.5185 9.73924C13.4892 10.2959 13.4062 10.7793 13.2695 11.1894C13.0937 11.6777 12.8252 12.1025 12.4639 12.4638C12.1025 12.8252 11.6777 13.0937 11.1894 13.2695C10.7793 13.4062 10.2959 13.4892 9.73925 13.5185C9.18261 13.5478 8.26953 13.5625 7 13.5625C5.73047 13.5625 4.81739 13.5478 4.26075 13.5185C3.70411 13.4892 3.22071 13.3965 2.81056 13.2402C2.32228 13.084 1.89747 12.8252 1.53615 12.4638C1.17482 12.1025 0.906264 11.6777 0.730483 11.1894C0.593765 10.7793 0.510757 10.2959 0.48146 9.73924C0.452164 9.1826 0.437515 8.26951 0.437515 6.99998C0.437515 5.73046 0.452164 4.81737 0.48146 4.26073C0.510757 3.70409 0.593765 3.2207 0.730483 2.81054C0.906264 2.32226 1.17482 1.89746 1.53615 1.53613C1.89747 1.1748 2.32228 0.906249 2.81056 0.730468C3.22071 0.593749 3.70411 0.510742 4.26075 0.481445C4.81739 0.452148 5.73047 0.4375 7 0.4375C8.26953 0.4375 9.18261 0.452148 9.73925 0.481445C10.2959 0.510742 10.7793 0.593749 11.1894 0.730468C11.6777 0.906249 12.1025 1.1748 12.4639 1.53613C12.8252 1.89746 13.0937 2.32226 13.2695 2.81054C13.4062 3.2207 13.4941 3.70898 13.5332 4.27538ZM11.0576 4.04101C11.2041 3.88476 11.2871 3.69921 11.3066 3.48437C11.3066 3.26952 11.2285 3.08398 11.0723 2.92773C10.916 2.77148 10.7305 2.69335 10.5156 2.69335C10.3008 2.69335 10.1152 2.77148 9.95898 2.92773C9.80273 3.08398 9.7246 3.26952 9.7246 3.48437C9.7246 3.69921 9.80273 3.88476 9.95898 4.04101C10.1152 4.19726 10.3008 4.27538 10.5156 4.27538C10.7305 4.27538 10.9111 4.19726 11.0576 4.04101ZM7 3.63085C7.60547 3.63085 8.16699 3.78222 8.68457 4.08495C9.20214 4.38769 9.6123 4.79784 9.91503 5.31542C10.2178 5.83299 10.3691 6.39452 10.3691 6.99998C10.3691 7.60545 10.2178 8.16697 9.91503 8.68455C9.6123 9.20213 9.20214 9.61228 8.68457 9.91502C8.16699 10.2178 7.60547 10.3691 7 10.3691C6.39453 10.3691 5.83301 10.2178 5.31543 9.91502C4.79786 9.61228 4.3877 9.20213 4.08497 8.68455C3.78223 8.16697 3.63087 7.60545 3.63087 6.99998C3.63087 6.39452 3.78223 5.83299 4.08497 5.31542C4.3877 4.79784 4.79786 4.38769 5.31543 4.08495C5.83301 3.78222 6.39453 3.63085 7 3.63085ZM7 9.19724C7.60547 9.19724 8.12304 8.9824 8.55273 8.55272C8.98242 8.12303 9.19726 7.60545 9.19726 6.99998C9.19726 6.39452 8.98242 5.87694 8.55273 5.44725C8.12304 5.01757 7.60547 4.80272 7 4.80272C6.39453 4.80272 5.87696 5.01757 5.44727 5.44725C5.01758 5.87694 4.80274 6.39452 4.80274 6.99998C4.80274 7.60545 5.01758 8.12303 5.44727 8.55272C5.87696 8.9824 6.39453 9.19724 7 9.19724ZM12.3613 9.28514C12.3223 10.0078 12.2441 10.5351 12.1269 10.8672C11.8926 11.4531 11.4726 11.873 10.8672 12.1269C10.5547 12.2441 10.0273 12.3222 9.28515 12.3613C8.875 12.3808 8.26953 12.3906 7.46875 12.3906H6.53125C5.75 12.3906 5.14454 12.3808 4.71485 12.3613C3.99219 12.3222 3.46485 12.2441 3.13282 12.1269C2.54689 11.8926 2.12696 11.4726 1.87306 10.8672C1.75587 10.5351 1.67775 10.0078 1.63868 9.28514C1.61915 8.85545 1.60939 8.24998 1.60939 7.46873V6.53124C1.60939 5.74999 1.61915 5.14452 1.63868 4.71483C1.67775 3.97265 1.75587 3.44531 1.87306 3.13281C2.10743 2.52734 2.52735 2.10742 3.13282 1.87304C3.46485 1.75586 3.99219 1.67773 4.71485 1.63867C5.14454 1.61914 5.75 1.60937 6.53125 1.60937H7.46875C8.25 1.60937 8.85546 1.61914 9.28515 1.63867C10.0273 1.67773 10.5547 1.75586 10.8672 1.87304C11.4726 2.10742 11.8926 2.52734 12.1269 3.13281C12.2441 3.44531 12.3223 3.97265 12.3613 4.71483C12.3808 5.12499 12.3906 5.73046 12.3906 6.53124V7.46873C12.3906 8.24998 12.3808 8.85545 12.3613 9.28514Z" fill="#484848"/>
</svg>
