<svg width="44" height="44" viewBox="0 0 44 44" fill="none" xmlns="http://www.w3.org/2000/svg">
<g clip-path="url(#clip0_9729_10661)">
<path d="M0 22.0002C0 34.1506 9.84968 44.0002 22 44.0002C34.1504 44.0002 44.0001 34.1506 44.0001 22.0002C44.0001 9.84984 34.1504 0.000156581 22 0.000156581C9.84968 0.000156581 0 9.84984 0 22.0002" fill="url(#paint0_linear_9729_10661)"/>
<path d="M14.892 23.608L17.5021 30.8326C17.5021 30.8326 17.8284 31.5083 18.178 31.5083C18.5276 31.5083 23.7246 26.1015 23.7246 26.1015L29.5043 14.9384L14.9852 21.7435L14.892 23.608Z" fill="#C8DAEA"/>
<path d="M18.3527 25.4608L17.8515 30.7859C17.8515 30.7859 17.6418 32.4173 19.2732 30.7859C20.9045 29.1546 22.466 27.8961 22.466 27.8961" fill="#A9C6D8"/>
<path d="M14.939 23.866L9.57045 22.1166C9.57045 22.1166 8.92965 21.8566 9.13548 21.2661C9.17799 21.1443 9.26356 21.0409 9.51992 20.8621C10.7098 20.033 31.5394 12.5461 31.5394 12.5461C31.5394 12.5461 32.1276 12.3481 32.4753 12.4797C32.6341 12.5399 32.7356 12.608 32.821 12.8563C32.8521 12.9467 32.87 13.1389 32.8676 13.3302C32.8657 13.4682 32.8489 13.5959 32.8366 13.7963C32.7098 15.8435 28.9139 31.1201 28.9139 31.1201C28.9139 31.1201 28.6868 32.014 27.873 32.0444C27.5762 32.0556 27.216 31.9954 26.7853 31.6249C25.1884 30.2512 19.6685 26.5416 18.449 25.7259C18.38 25.6801 18.3606 25.6202 18.3488 25.5619C18.3317 25.4761 18.4234 25.3691 18.4234 25.3691C18.4234 25.3691 28.0348 16.8254 28.2906 15.929C28.3104 15.8595 28.236 15.8252 28.1351 15.8552C27.4968 16.0901 16.4304 23.0779 15.2092 23.8498C15.1378 23.8949 14.9375 23.8658 14.9375 23.8658" fill="white"/>
</g>
<defs>
<linearGradient id="paint0_linear_9729_10661" x1="22" y1="44.0001" x2="22" y2="-3.00385e-05" gradientUnits="userSpaceOnUse">
<stop stop-color="#1D93D2"/>
<stop offset="1" stop-color="#38B0E3"/>
</linearGradient>
<clipPath id="clip0_9729_10661">
<rect width="44" height="44" fill="white"/>
</clipPath>
</defs>
</svg>
