<svg width="15" height="12" viewBox="0 0 15 12" fill="none" xmlns="http://www.w3.org/2000/svg">
<path d="M14.9687 1.09367C15.0312 0.656173 15 0.374923 14.8125 0.187423C14.625 -7.7039e-05 14.375 -0.031327 14.0625 0.062423L1.65623 4.84367C1.21873 5.03117 0.999982 5.21867 0.999982 5.40617C0.968732 5.62492 1.12498 5.78117 1.49998 5.87492L4.68748 6.87492L12.0625 2.21867C12.1562 2.15617 12.25 2.12492 12.3437 2.12492C12.4375 2.12492 12.5 2.12492 12.5312 2.18742C12.5625 2.24992 12.5312 2.28117 12.4687 2.34367L6.49998 7.74992L6.24998 11.0312C6.40623 11.0312 6.53123 10.9999 6.65623 10.9374C6.71873 10.9062 6.78123 10.8437 6.90623 10.7187L8.46873 9.21867L11.6875 11.5937C11.9687 11.7812 12.2187 11.8124 12.4062 11.7187C12.5937 11.6249 12.75 11.4062 12.8437 11.0312L14.9687 1.09367Z" fill="#484848"/>
</svg>
