<svg width="18" height="12" viewBox="0 0 18 12" fill="none" xmlns="http://www.w3.org/2000/svg">
<path d="M16.7188 1.875C16.8438 2.4375 16.9688 3.3125 17.0312 4.4375L17.0625 6L17.0312 7.5625C16.9688 8.75 16.8438 9.59375 16.7188 10.1562C16.5938 10.5312 16.4062 10.8438 16.1562 11.0938C15.875 11.375 15.5625 11.5625 15.1875 11.6562C14.625 11.8125 13.375 11.9062 11.375 11.9688L8.53125 12L5.6875 11.9688C3.6875 11.9062 2.40625 11.8125 1.875 11.6562C1.5 11.5625 1.15625 11.375 0.90625 11.0938C0.625 10.8438 0.4375 10.5312 0.34375 10.1562C0.1875 9.59375 0.09375 8.75 0.03125 7.5625L0 6C0 5.5625 0 5.03125 0.03125 4.4375C0.09375 3.3125 0.1875 2.4375 0.34375 1.875C0.4375 1.5 0.625 1.1875 0.90625 0.90625C1.15625 0.65625 1.5 0.46875 1.875 0.34375C2.40625 0.21875 3.6875 0.09375 5.6875 0.03125L8.53125 0L11.375 0.03125C13.375 0.09375 14.625 0.21875 15.1875 0.34375C15.5625 0.46875 15.875 0.65625 16.1562 0.90625C16.4062 1.1875 16.5938 1.5 16.7188 1.875ZM6.78125 8.5625L11.25 6L6.78125 3.46875V8.5625Z" fill="#484848"/>
</svg>
