<svg width="203" height="36" fill="none" xmlns="http://www.w3.org/2000/svg"><g clip-path="url(#clip0_788_792)"><path d="M3.135 2.201l4.58 3.16a.224.224 0 01.089.244L1.658 27.312a.225.225 0 01-.071.11l-.799.682c-.16.135-.06.393.15.393h12.206a.225.225 0 00.218-.165l7.433-26.253a.226.226 0 00-.219-.286H3.267c-.223 0-.312.283-.13.408h-.002zM34.224 19.05L39.03 2.08a.226.226 0 00-.22-.286H23.629a.225.225 0 00-.219.165l-2.451 8.726a.226.226 0 00.219.285h3.04c.15 0 .26.143.22.286l-4.802 16.959a.226.226 0 00.22.286h8.647c.112 0 .206.08.224.187l1.172 6.88c.033.198.295.255.412.09l11.234-15.965a.225.225 0 00-.188-.353h-6.914a.226.226 0 01-.218-.286v-.002z" stroke="#005FA9" stroke-width=".5" stroke-miterlimit="10"/><path d="M2.423.408l4.58 3.16a.223.223 0 01.088.244L.945 25.519a.225.225 0 01-.07.11l-.8.682c-.16.135-.06.393.15.393h12.206a.225.225 0 00.219-.165L20.085.285A.226.226 0 0019.866 0H2.556c-.225 0-.314.283-.13.408h-.003zM33.514 17.258L38.318.285a.226.226 0 00-.22-.285H22.917a.225.225 0 00-.219.165L20.246 8.89a.226.226 0 00.219.286h3.04c.15 0 .26.143.22.285l-4.801 16.96a.226.226 0 00.218.285h8.648c.112 0 .206.08.224.188l1.172 6.88c.033.197.295.255.412.09l11.234-15.965a.225.225 0 00-.188-.354H33.73a.226.226 0 01-.218-.285l.002-.003zM53.485 23.496h-.564v-6.274h.664v5.162l3.959-5.162h.592v6.274h-.664v-5.18l-3.984 5.18h-.003zM69.7 23.496h-.673v-6.274h.674v2.607h3.786v-2.607h.674v6.274h-.674V20.43H69.7v3.066zM84.767 17.222h.855l2.667 2.788v-2.788h.674v2.805l2.685-2.805h.854l-2.858 2.976 3.222 3.298h-.9l-3.003-3.083v3.083h-.674V20.43l-2.985 3.066h-.893l3.212-3.298-2.858-2.976h.002zM103.693 23.496h-.565v-6.274h.664v5.162l3.959-5.162h.593v6.274h-.664v-5.18l-3.985 5.18h-.002zM119.906 23.496h-.674v-6.274h.674v2.607h3.787v-2.607h.673v6.274h-.673V20.43h-3.787v3.066zM135.821 23.496h-.564v-6.274h.664v5.162l3.959-5.162h.592v6.274h-.664v-5.18l-3.984 5.18h-.003zM152.035 23.496h-.674v-6.274h2.675c.63 0 1.129.158 1.493.476.363.318.546.739.546 1.265 0 .526-.183.967-.546 1.285-.364.32-.863.48-1.493.48h-2.001v2.77-.002zm0-5.672v2.303h1.958c.447 0 .798-.1 1.045-.3.249-.2.374-.483.374-.847 0-.363-.123-.656-.369-.856-.247-.2-.595-.3-1.05-.3h-1.958zM167.075 23.496h-.564v-6.274h.663v5.162l3.96-5.162h.592v6.274h-.664v-5.18l-3.984 5.18h-.003zM183.291 23.496h-.674v-6.274h.674v2.607h3.786v-2.607h.674v6.274h-.674V20.43h-3.786v3.066zM199.313 23.496h-.674v-6.274h4.267v.601h-3.596v5.673h.003zM67.361 3.206v10.78h-2.987V5.606h-8.877v8.382h-2.988V3.206h14.855-.003zM82.875 3.206c.755 0 1.45.165 2.078.495.638.331 1.141.782 1.51 1.353.369.566.552 1.187.552 1.866a3.33 3.33 0 01-.56 1.865 3.813 3.813 0 01-1.502 1.345 4.45 4.45 0 01-2.078.488h-7.814v3.369h-2.988V3.206h10.805-.003zm-7.814 5.028h7.534c.433-.015.786-.137 1.063-.37.288-.25.427-.566.417-.944 0-.394-.142-.71-.424-.945-.272-.25-.623-.373-1.056-.37h-7.534v2.63zM103.81 3.206c.974 0 1.805.305 2.492.921.681.614 1.022 1.358 1.022 2.227v4.485c0 .871-.343 1.613-1.03 2.229-.686.613-1.515.921-2.484.921h-8.567c-.974 0-1.805-.305-2.494-.921-.682-.614-1.022-1.358-1.022-2.23V6.355c0-.872.343-1.613 1.03-2.227.686-.613 1.515-.921 2.484-.921h8.569zm-8.686 2.77c-.272.23-.407.528-.407.888v3.464c0 .346.137.644.414.897a1.5 1.5 0 00.992.36h6.807a1.58 1.58 0 00.999-.37c.273-.251.407-.549.407-.89V6.862c0-.36-.14-.661-.414-.897-.267-.258-.598-.378-.992-.363h-6.807a1.418 1.418 0 00-1 .37v.003zM124.994 3.206v2.399h-9.97v8.382h-2.988V3.206h12.961-.003zM140.51 3.206c.756 0 1.45.165 2.078.495a3.88 3.88 0 011.51 1.353c.369.566.552 1.187.552 1.866 0 .678-.186 1.292-.559 1.865a3.81 3.81 0 01-1.503 1.345 4.45 4.45 0 01-2.078.488h-7.814v3.369h-2.988V3.206h10.805-.003zm-7.814 5.028h7.535c.432-.015.785-.137 1.063-.37.287-.25.427-.566.417-.944 0-.394-.143-.71-.425-.945-.272-.25-.623-.373-1.055-.37h-7.535v2.63zM162.872 3.206v2.399H152.35v1.763h9.116v2.361h-9.116v1.859h10.522v2.401h-13.513V3.206h13.513zM179.415 3.206c.979 0 1.811.305 2.492.921.687.614 1.028 1.358 1.025 2.227v.693h-2.988v-.18c0-.36-.135-.661-.407-.897-.267-.258-.597-.378-.999-.363h-6.56a1.42 1.42 0 00-1 .37c-.272.231-.407.53-.407.89v3.463c0 .346.138.644.415.897.277.235.608.358.992.36h6.56c.399-.014.732-.137.999-.37.272-.25.407-.549.407-.89v-.164h2.988v.676c.005.871-.336 1.613-1.025 2.229-.681.613-1.513.921-2.492.921h-8.317c-.974 0-1.806-.305-2.495-.921-.681-.614-1.022-1.358-1.022-2.23V6.355c0-.872.343-1.613 1.03-2.227.686-.613 1.515-.921 2.484-.921h8.32zM199.486 3.206c.979 0 1.81.305 2.492.921.686.614 1.027 1.358 1.024 2.227v.693h-2.987v-.18c0-.36-.135-.661-.407-.897-.267-.258-.598-.378-1-.363h-6.56a1.417 1.417 0 00-.999.37 1.11 1.11 0 00-.407.89v3.463c0 .346.137.644.414.897.277.235.608.358.992.36h6.56c.4-.014.733-.137 1-.37.272-.25.407-.549.407-.89v-.164h2.987v.676c.005.871-.335 1.613-1.024 2.229-.682.613-1.513.921-2.492.921h-8.318c-.974 0-1.805-.305-2.494-.921-.682-.614-1.023-1.358-1.023-2.23V6.355c0-.872.344-1.613 1.03-2.227.687-.613 1.516-.921 2.485-.921h8.32z" fill="#005FA9"/></g><defs><clipPath id="clip0_788_792"><path fill="#fff" d="M0 0h203v36H0z"/></clipPath></defs></svg>