<?xml version="1.0" encoding="utf-8"?><svg viewBox="0 0 337 337" xmlns="http://www.w3.org/2000/svg" xmlns:xlink="http://www.w3.org/1999/xlink"><style>:root>svg{display:none}:root>svg:target{display:block}</style><svg fill="none" viewBox="0 0 24 24" id="announcement-03" xmlns="http://www.w3.org/2000/svg"><path d="M18.5 16c1.933 0 3.5-2.91 3.5-6.5S20.433 3 18.5 3m0 13c-1.933 0-3.5-2.91-3.5-6.5S16.567 3 18.5 3m0 13L5.444 13.626c-.928-.168-1.392-.253-1.767-.437a3 3 0 01-1.563-1.873C2 10.914 2 10.443 2 9.5c0-.943 0-1.414.114-1.816a3 3 0 011.563-1.873c.375-.184.839-.268 1.767-.437L18.5 3M5 14l.394 5.514c.037.524.056.785.17.984a1 1 0 00.432.402c.206.1.469.1.994.1h1.782c.6 0 .9 0 1.123-.12a1 1 0 00.44-.474c.101-.231.079-.53.032-1.129L10 14.5" stroke="#fff" stroke-width="2" stroke-linecap="round" stroke-linejoin="round"/></svg><svg fill="none" viewBox="0 0 15 15" id="close" xmlns="http://www.w3.org/2000/svg"><path d="M14.011 10.838l-3.51-3.51 3.51-3.51c.862-.861.844-2.291-.019-3.154-.862-.862-2.292-.88-3.154-.019l-3.51 3.51-3.51-3.51C2.957-.217 1.527-.198.665.665c-.865.861-.882 2.291-.02 3.153l3.51 3.51-3.51 3.509c-.862.862-.844 2.292.019 3.155.862.862 2.292.88 3.155.018l3.51-3.51 3.509 3.51c.862.863 2.292.844 3.154-.018.863-.863.881-2.293.02-3.155z" fill="#fff"/></svg><svg fill="none" viewBox="0 0 24 24" id="cube-outline" xmlns="http://www.w3.org/2000/svg"><path d="M9.75 20.75l1.473.818c.284.158.425.237.576.268.133.027.27.027.402 0 .15-.031.292-.11.576-.268l1.473-.818m-9-2.5l-1.427-.793c-.3-.166-.45-.25-.558-.368a1 1 0 01-.215-.364C3 16.573 3 16.401 3 16.06V14.5m0-5V7.941c0-.342 0-.513.05-.666a1 1 0 01.215-.364c.109-.119.258-.202.558-.368L5.25 5.75m4.5-2.5l1.473-.818c.284-.158.425-.237.576-.268a1 1 0 01.402 0c.15.031.292.11.576.268l1.473.818m4.5 2.5l1.427.793c.3.166.45.25.558.368a1 1 0 01.215.364c.05.152.05.324.05.666V9.5m0 5v1.559c0 .342 0 .514-.05.666a1 1 0 01-.215.364c-.109.119-.258.202-.558.368l-1.427.793m-9-7.5L12 12m0 0l2.25-1.25M12 12v2.5M3 7l2.25 1.25m13.5 0L21 7m-9 12.5V22" stroke="#fff" stroke-width="2" stroke-linecap="round" stroke-linejoin="round"/></svg><svg fill="none" viewBox="0 0 24 24" id="email" xmlns="http://www.w3.org/2000/svg"><path d="M14.006 14.694a3.596 3.596 0 01-4.012 0L.16 8.114A3.58 3.58 0 010 8v10.783C0 20.019 1 21 2.21 21h19.58A2.213 2.213 0 0024 18.783V8c-.052.04-.105.077-.16.114l-9.834 6.58z" fill="#005FA9"/><path d="M.94 7.368l9.834 6.222c.373.273.8.41 1.226.41.427 0 .853-.137 1.226-.41l9.834-6.222c.589-.432.94-1.155.94-1.935C24 4.09 23.01 3 21.791 3H2.21C.99 3 0 4.091 0 5.434c0 .779.351 1.502.94 1.934z" fill="#005FA9"/></svg><svg fill="none" viewBox="0 0 24 24" id="folder-check" xmlns="http://www.w3.org/2000/svg"><path d="M13 7l-1.116-2.231c-.32-.642-.481-.963-.72-1.198a2 2 0 00-.748-.462C10.1 3 9.74 3 9.022 3H5.2c-1.12 0-1.68 0-2.108.218a2 2 0 00-.874.874C2 4.52 2 5.08 2 6.2V7m0 0h15.2c1.68 0 2.52 0 3.162.327a3 3 0 011.311 1.311C22 9.28 22 10.12 22 11.8v4.4c0 1.68 0 2.52-.327 3.162a3 3 0 01-1.311 1.311C19.72 21 18.88 21 17.2 21H6.8c-1.68 0-2.52 0-3.162-.327a3 3 0 01-1.311-1.311C2 18.72 2 17.88 2 16.2V7zm7 7l2 2 4.5-4.5" stroke="#fff" stroke-width="2" stroke-linecap="round" stroke-linejoin="round"/></svg><svg fill="none" viewBox="0 0 24 24" id="home-02" xmlns="http://www.w3.org/2000/svg"><path d="M9 21v-7.4c0-.56 0-.84.109-1.054a1 1 0 01.437-.437C9.76 12 10.04 12 10.6 12h2.8c.56 0 .84 0 1.054.109a1 1 0 01.437.437C15 12.76 15 13.04 15 13.6V21M11.018 2.764L4.235 8.039c-.453.353-.68.53-.843.75a2 2 0 00-.318.65C3 9.704 3 9.991 3 10.565V17.8c0 1.12 0 1.68.218 2.108a2 2 0 00.874.874C4.52 21 5.08 21 6.2 21h11.6c1.12 0 1.68 0 2.108-.218a2 2 0 00.874-.874C21 19.48 21 18.92 21 17.8v-7.235c0-.574 0-.861-.074-1.126a2.002 2.002 0 00-.318-.65c-.163-.22-.39-.397-.843-.75l-6.783-5.275c-.351-.273-.527-.41-.72-.462a1 1 0 00-.523 0c-.194.052-.37.189-.721.462z" stroke="#fff" stroke-width="2" stroke-linecap="round" stroke-linejoin="round"/></svg><svg fill="none" viewBox="0 0 24 24" id="location" xmlns="http://www.w3.org/2000/svg"><g clip-path="url(#gclip0_298_753)"><path d="M12 0a9.012 9.012 0 00-9 9c0 6.461 8.385 14.554 8.741 14.895a.371.371 0 00.518 0C12.615 23.554 21 15.461 21 9a9.012 9.012 0 00-9-9zm0 13.125a4.125 4.125 0 110-8.25 4.125 4.125 0 010 8.25z" fill="#005FA9"/></g><defs><clipPath id="gclip0_298_753"><rect width="24" height="24" rx="10" fill="#fff"/></clipPath></defs></svg><svg fill="none" viewBox="0 0 24 24" id="phone-call" xmlns="http://www.w3.org/2000/svg"><g clip-path="url(#hclip0_298_726)" fill="#005FA9"><path d="M9.95 14.052c-2.293-2.293-2.811-4.586-2.928-5.505a.823.823 0 01.237-.69l1.855-1.854a.828.828 0 00.117-1.025L6.277.39A.828.828 0 005.203.088L.46 2.322a.824.824 0 00-.456.823c.249 2.36 1.278 8.165 6.982 13.869 5.704 5.704 11.507 6.733 13.87 6.982a.824.824 0 00.823-.456l2.234-4.743a.829.829 0 00-.3-1.072l-4.589-2.954a.828.828 0 00-1.025.116l-1.855 1.856a.824.824 0 01-.69.237c-.918-.117-3.211-.635-5.504-2.928zM19.143 11c-.474 0-.857-.299-.857-.667-.004-2.76-2.88-4.997-6.429-5-.473 0-.857-.298-.857-.666 0-.369.384-.667.857-.667 4.495.004 8.138 2.837 8.143 6.333 0 .368-.384.667-.857.667z"/><path d="M23.161 11c-.463 0-.838-.318-.838-.71-.007-4.897-4.697-8.865-10.484-8.87-.463 0-.839-.318-.839-.71 0-.392.376-.71.839-.71C18.552.006 23.993 4.61 24 10.29a.66.66 0 01-.246.502.922.922 0 01-.593.208z"/></g><defs><clipPath id="hclip0_298_726"><path fill="#fff" d="M0 0h24v24H0z"/></clipPath></defs></svg><svg fill="none" viewBox="0 0 24 24" id="phone-call-01" xmlns="http://www.w3.org/2000/svg"><path d="M14.05 6A5 5 0 0118 9.95M14.05 2A9 9 0 0122 9.94m-11.773 3.923a14.604 14.604 0 01-2.847-4.01 1.698 1.698 0 01-.113-.266 1.046 1.046 0 01.147-.862c.048-.067.105-.124.22-.238.35-.35.524-.524.638-.7a2 2 0 000-2.18c-.114-.176-.289-.351-.638-.7l-.195-.196c-.532-.531-.797-.797-1.083-.941a2 2 0 00-1.805 0c-.285.144-.551.41-1.083.941l-.157.158c-.53.53-.795.794-.997 1.154-.224.4-.386 1.02-.384 1.479 0 .413.081.695.241 1.26a19.038 19.038 0 004.874 8.283 19.039 19.039 0 008.283 4.873c.565.16.847.24 1.26.242a3.377 3.377 0 001.478-.384c.36-.203.625-.468 1.155-.997l.157-.158c.532-.531.797-.797.942-1.082a2 2 0 000-1.806c-.145-.285-.41-.55-.942-1.082l-.195-.195c-.35-.35-.524-.524-.7-.639a2 2 0 00-2.18 0c-.176.114-.35.29-.7.639-.115.114-.172.171-.239.22-.237.17-.581.228-.862.146a1.695 1.695 0 01-.266-.113 14.605 14.605 0 01-4.01-2.846z" stroke="#fff" stroke-width="2" stroke-linecap="round" stroke-linejoin="round"/></svg><svg fill="none" viewBox="0 0 24 24" id="settings-01" xmlns="http://www.w3.org/2000/svg"><path d="M12 15a3 3 0 100-6 3 3 0 000 6z" stroke="#fff" stroke-width="2" stroke-linecap="round" stroke-linejoin="round"/><path d="M18.727 14.727a1.5 1.5 0 00.3 1.655l.055.054a1.816 1.816 0 010 2.573 1.818 1.818 0 01-2.573 0l-.055-.055a1.5 1.5 0 00-1.654-.3 1.5 1.5 0 00-.91 1.373v.155a1.818 1.818 0 11-3.636 0V20.1a1.5 1.5 0 00-.981-1.373 1.5 1.5 0 00-1.655.3l-.054.055a1.818 1.818 0 01-3.106-1.287 1.818 1.818 0 01.533-1.286l.054-.055a1.5 1.5 0 00.3-1.654 1.5 1.5 0 00-1.372-.91h-.155a1.818 1.818 0 110-3.636H3.9a1.5 1.5 0 001.373-.981 1.5 1.5 0 00-.3-1.655l-.055-.054A1.818 1.818 0 117.491 4.99l.054.054a1.5 1.5 0 001.655.3h.073a1.5 1.5 0 00.909-1.372v-.155a1.818 1.818 0 013.636 0V3.9a1.499 1.499 0 00.91 1.373 1.5 1.5 0 001.654-.3l.054-.055a1.817 1.817 0 012.573 0 1.819 1.819 0 010 2.573l-.055.054a1.5 1.5 0 00-.3 1.655v.073a1.5 1.5 0 001.373.909h.155a1.818 1.818 0 010 3.636H20.1a1.499 1.499 0 00-1.373.91z" stroke="#fff" stroke-width="2" stroke-linecap="round" stroke-linejoin="round"/></svg><svg style="margin:auto;background:0 0" viewBox="0 0 100 100" preserveAspectRatio="xMidYMid" display="block" id="spinner" xmlns="http://www.w3.org/2000/svg"><rect x="44.5" y="17" rx="5.5" ry="6" width="11" height="12" fill="#618967"><animate attributeName="opacity" values="1;0" keyTimes="0;1" dur="1s" begin="-0.9285714285714286s" repeatCount="indefinite"/></rect><rect x="44.5" y="17" rx="5.5" ry="6" width="11" height="12" fill="#618967" transform="rotate(25.714 50 50)"><animate attributeName="opacity" values="1;0" keyTimes="0;1" dur="1s" begin="-0.8571428571428571s" repeatCount="indefinite"/></rect><rect x="44.5" y="17" rx="5.5" ry="6" width="11" height="12" fill="#618967" transform="rotate(51.429 50 50)"><animate attributeName="opacity" values="1;0" keyTimes="0;1" dur="1s" begin="-0.7857142857142857s" repeatCount="indefinite"/></rect><rect x="44.5" y="17" rx="5.5" ry="6" width="11" height="12" fill="#618967" transform="rotate(77.143 50 50)"><animate attributeName="opacity" values="1;0" keyTimes="0;1" dur="1s" begin="-0.7142857142857143s" repeatCount="indefinite"/></rect><rect x="44.5" y="17" rx="5.5" ry="6" width="11" height="12" fill="#618967" transform="rotate(102.857 50 50)"><animate attributeName="opacity" values="1;0" keyTimes="0;1" dur="1s" begin="-0.6428571428571429s" repeatCount="indefinite"/></rect><rect x="44.5" y="17" rx="5.5" ry="6" width="11" height="12" fill="#618967" transform="rotate(128.571 50 50)"><animate attributeName="opacity" values="1;0" keyTimes="0;1" dur="1s" begin="-0.5714285714285714s" repeatCount="indefinite"/></rect><rect x="44.5" y="17" rx="5.5" ry="6" width="11" height="12" fill="#618967" transform="rotate(154.286 50 50)"><animate attributeName="opacity" values="1;0" keyTimes="0;1" dur="1s" begin="-0.5s" repeatCount="indefinite"/></rect><rect x="44.5" y="17" rx="5.5" ry="6" width="11" height="12" fill="#618967" transform="rotate(180 50 50)"><animate attributeName="opacity" values="1;0" keyTimes="0;1" dur="1s" begin="-0.42857142857142855s" repeatCount="indefinite"/></rect><rect x="44.5" y="17" rx="5.5" ry="6" width="11" height="12" fill="#618967" transform="rotate(205.714 50 50)"><animate attributeName="opacity" values="1;0" keyTimes="0;1" dur="1s" begin="-0.35714285714285715s" repeatCount="indefinite"/></rect><rect x="44.5" y="17" rx="5.5" ry="6" width="11" height="12" fill="#618967" transform="rotate(231.429 50 50)"><animate attributeName="opacity" values="1;0" keyTimes="0;1" dur="1s" begin="-0.2857142857142857s" repeatCount="indefinite"/></rect><rect x="44.5" y="17" rx="5.5" ry="6" width="11" height="12" fill="#618967" transform="rotate(257.143 50 50)"><animate attributeName="opacity" values="1;0" keyTimes="0;1" dur="1s" begin="-0.21428571428571427s" repeatCount="indefinite"/></rect><rect x="44.5" y="17" rx="5.5" ry="6" width="11" height="12" fill="#618967" transform="rotate(282.857 50 50)"><animate attributeName="opacity" values="1;0" keyTimes="0;1" dur="1s" begin="-0.14285714285714285s" repeatCount="indefinite"/></rect><rect x="44.5" y="17" rx="5.5" ry="6" width="11" height="12" fill="#618967" transform="rotate(308.571 50 50)"><animate attributeName="opacity" values="1;0" keyTimes="0;1" dur="1s" begin="-0.07142857142857142s" repeatCount="indefinite"/></rect><rect x="44.5" y="17" rx="5.5" ry="6" width="11" height="12" fill="#618967" transform="rotate(334.286 50 50)"><animate attributeName="opacity" values="1;0" keyTimes="0;1" dur="1s" begin="0s" repeatCount="indefinite"/></rect></svg><svg fill="none" viewBox="0 0 74 74" id="stand" xmlns="http://www.w3.org/2000/svg"><path d="M27.75 52.417L12.333 67.833M46.25 52.417l15.417 15.416M37 6.167v6.166m0 55.5V52.417m-20.967 0h41.934c3.453 0 5.18 0 6.5-.672a6.167 6.167 0 002.694-2.695c.672-1.32.672-3.046.672-6.5V22.2c0-3.454 0-5.18-.672-6.5a6.166 6.166 0 00-2.695-2.694c-1.319-.673-3.046-.673-6.5-.673H16.034c-3.453 0-5.18 0-6.5.672A6.166 6.166 0 006.84 15.7c-.672 1.32-.672 3.046-.672 6.5v20.35c0 3.454 0 5.18.672 6.5a6.167 6.167 0 002.695 2.695c1.319.672 3.046.672 6.5.672z" stroke="#fff" stroke-width="2" stroke-linecap="round" stroke-linejoin="round"/></svg><svg fill="none" viewBox="0 0 24 24" id="zoom-in" xmlns="http://www.w3.org/2000/svg"><path d="M21 21l-4.35-4.35M19 11a8 8 0 11-16 0 8 8 0 0116 0z" stroke="#fff" stroke-width="2" stroke-linecap="round" stroke-linejoin="round"/></svg></svg>