<svg width="34" height="34" fill="none" xmlns="http://www.w3.org/2000/svg"><path d="M24.442 11.296h1.587c.264 0 .453-.227.453-.491V7.593c0-.264-.227-.49-.453-.49h-1.587c-.265 0-.454.226-.454.49v3.212c-.037.264.19.49.454.49zm.453-3.212h.68v2.267h-.68V8.084zM24.442 16.622h1.587c.264 0 .453-.226.453-.49V12.92c0-.264-.227-.491-.453-.491h-1.587c-.265 0-.454.227-.454.491v3.211c-.037.265.19.491.454.491zm.453-3.21h.68v2.266h-.68V13.41zM20.438 12.92v3.211c0 .265.226.491.453.491h1.587c.264 0 .453-.226.453-.49V12.92c0-.264-.227-.491-.454-.491h-1.586c-.227.038-.453.264-.453.491zm.944.491h.68v2.267h-.68V13.41zM24.442 21.949h1.587c.264 0 .453-.227.453-.491v-3.211c0-.265-.227-.491-.453-.491h-1.587c-.265 0-.454.226-.454.49v3.212c-.037.264.19.49.454.49zm.453-3.211h.68v2.266h-.68v-2.266zM22.515 17.793h-1.587c-.265 0-.453.227-.453.491v3.212c0 .264.226.49.453.49h1.587c.264 0 .453-.226.453-.49v-3.212c.038-.264-.189-.49-.453-.49zm-.454 3.211h-.68v-2.266h.68v2.266zM24.442 27.276h1.587a.46.46 0 00.453-.454v-3.21a.46.46 0 00-.453-.454h-1.587a.46.46 0 00-.454.453v3.211c-.037.265.19.454.454.454zm.453-3.212h.68v2.267h-.68v-2.267zM22.515 23.12h-1.587a.46.46 0 00-.453.453v3.211c0 .265.226.492.453.492h1.587c.264 0 .453-.227.453-.492v-3.21c.038-.227-.189-.454-.453-.454zm-.454 3.211h-.68v-2.267h.68v2.267zM8.5 16.244h1.587c.264 0 .453-.226.453-.49v-3.59c.038-.302-.189-.49-.453-.49H8.5c-.264 0-.453.226-.453.49v3.59c0 .264.227.49.453.49zm.491-3.626h.643v2.644H8.99v-2.644zM11.975 21.836h1.587c.264 0 .453-.227.453-.491v-3.59c0-.302-.19-.49-.454-.49h-1.586c-.265 0-.454.226-.454.49v3.59c0 .264.227.49.454.49zm.453-3.627h.642v2.644h-.642V18.21zM11.975 16.244h1.587c.264 0 .453-.226.453-.49v-3.59c0-.302-.19-.49-.454-.49h-1.586c-.265 0-.454.226-.454.49v3.59c0 .264.227.49.454.49zm.453-3.626h.642v2.644h-.642v-2.644zM8.5 21.836h1.587c.264 0 .453-.227.453-.491v-3.59c.038-.302-.189-.49-.453-.49H8.5c-.264 0-.453.226-.453.49v3.59c0 .264.227.49.453.49zm.491-3.627h.643v2.644H8.99V18.21zM15.451 16.244h1.587c.264 0 .453-.226.453-.49v-3.59a.476.476 0 00-.49-.49h-1.55c-.264 0-.453.226-.453.49v3.59c0 .264.227.49.453.49zm.454-3.626h.642v2.644h-.642v-2.644zM15.451 21.836h1.587c.264 0 .453-.227.453-.491v-3.59a.476.476 0 00-.49-.49h-1.55c-.264 0-.453.226-.453.49v3.59c0 .264.227.49.453.49zm.454-3.627h.642v2.644h-.642V18.21zM13.6 29.429h3.475a.46.46 0 00.454-.453v-3.4c.038-.265-.19-.492-.454-.492H13.6c-.265 0-.454.227-.454.492v3.4a.46.46 0 00.454.453zm.49-3.4h2.532v2.456h-2.531v-2.456zM8.424 29.429H11.9c.264 0 .49-.227.49-.453v-3.4c-.037-.265-.226-.492-.49-.492H8.424c-.264 0-.453.227-.453.492v3.4a.46.46 0 00.453.453zm.453-3.4h2.531v2.456h-2.53v-2.456z" fill="currentColor"/><path d="M28.409 30.562V4.458c0-.265-.227-.491-.454-.491h-1.171V2.72c0-.264-.227-.453-.491-.453h-9.18a.46.46 0 00-.453.453v1.247h-1.058c-.265 0-.454.226-.454.49v2.834H4.232c-.265 0-.454.227-.454.491v1.662c0 .265.227.492.454.492h1.625V30.6H4.08v.944h26.104V30.6l-1.776-.038zM17.604 3.212h8.236v.755h-8.236V3.21zM5.44 8.952h-.756v-.717h16.207v.717H5.44zm13.373 21.61H6.762v-6.574h12.05v6.573zm0-7.519H6.762V9.898h12.05v13.146zm8.689 7.518h-7.745V9.898h1.587c.264 0 .453-.227.453-.491V7.744c0-.264-.226-.49-.453-.49h-5.251V4.91h11.409v25.651z" fill="currentColor"/></svg>