<svg width="25" height="26" fill="none" xmlns="http://www.w3.org/2000/svg"><path fill-rule="evenodd" clip-rule="evenodd" d="M24.654 25.216a.85.85 0 01-1.202-.01L12.9 14.466 2.347 25.206a.85.85 0 01-1.212-1.192l11.158-11.356a.85.85 0 011.213 0l11.159 11.356a.85.85 0 01-.011 1.202z" fill="currentColor"/><path fill-rule="evenodd" clip-rule="evenodd" d="M1.122.797a.85.85 0 011.202.01l10.553 10.74L23.429.806A.85.85 0 1124.642 2L13.482 13.355a.85.85 0 01-1.213 0L1.112 2a.85.85 0 01.01-1.202z" fill="currentColor"/></svg>