<svg width="192" height="48" fill="none" xmlns="http://www.w3.org/2000/svg"><g clip-path="url(#clip0_702_128)"><path d="M110.965 24.916h8.618v-3.032h-8.618v-3.64h9.4v-3.032h-6.35l-6.734 6.646v10.97h13.472v-3.032h-9.788v-4.88zM124.903 27.393c0 .997.536 2.863 3.757 2.863 1.759 0 3.702-.435 3.702-2.278 0-1.384-1.344-1.726-3.224-2.186l-3.565-.872c-2.514-.607-3.954-2.087-3.954-4.758 0-1.94 1.073-5.41 6.812-5.41 5.42 0 6.882 3.544 6.882 5.7h-3.539c-.097-.798-.389-2.667-3.614-2.667-1.414 0-3.098.533-3.098 2.112 0 1.384 1.147 1.674 1.88 1.84l4.321 1.041c2.428.611 4.65 1.582 4.65 4.736 0 5.314-5.42 5.774-6.983 5.774-6.445 0-7.567-3.71-7.567-5.888l3.54-.007zM144.725 32.828h-3.703V18.245h-5.331v-3.033h14.379v3.033h-5.345v14.583zM158.151 15.212l6.224 17.616h-4.002l-1.148-3.64h-6.519l-1.244 3.64h-3.884l6.294-17.616h4.279zm-4.468 10.944h4.735L156 19.194h-.048l-2.269 6.962zM171.404 32.828h-3.702V18.245h-5.331v-3.033h14.379v3.033h-5.346v14.583zM190.908 15.212v3.033h-9.396v3.639h8.614v3.036h-8.614v4.876h9.788v3.032h-13.476V15.212h13.084z" fill="#fff" fill-opacity=".5"/><path d="M15.053 27.544a5.245 5.245 0 01-.814 3.017 6.23 6.23 0 01-2.566 2.061 8.035 8.035 0 01-3.28.684C3.262 33.277.63 31.308.5 27.396h3.576a2.611 2.611 0 001.233 2.209 4.463 4.463 0 002.592.713 4.962 4.962 0 002.502-.614 1.848 1.848 0 001.074-1.62c.02-1.044-.902-1.788-2.766-2.23-3.072-.735-4.8-1.193-5.183-1.372C1.7 23.624.785 22.152.785 20.066a5.268 5.268 0 01.83-2.83 5.178 5.178 0 012.428-1.928 8.531 8.531 0 013.38-.662 7.905 7.905 0 014.735 1.398 5.377 5.377 0 011.71 1.897c.409.76.627 1.606.637 2.468h-3.554a2.588 2.588 0 00-1.21-2.035 4.092 4.092 0 00-2.318-.637 4.513 4.513 0 00-2.095.467c-.33.141-.612.373-.814.669a1.862 1.862 0 00-.323.998c0 .996.938 1.715 2.814 2.157 3.159.75 4.903 1.2 5.23 1.35 1.874.832 2.81 2.22 2.81 4.166M32.891 24.114c0 2.99-.765 5.311-2.295 6.962-1.461 1.568-3.45 2.353-5.968 2.355-2.814 0-4.973-.874-6.479-2.623-1.505-1.75-2.257-4.165-2.255-7.246 0-2.615.757-4.74 2.27-6.377 1.562-1.698 3.65-2.556 6.264-2.576a8.036 8.036 0 013.145.549c1 .391 1.912.98 2.678 1.729 1.76 1.734 2.64 4.138 2.64 7.212v.015zm-3.676.206c0-4.283-1.637-6.434-4.91-6.45a4.122 4.122 0 00-2.053.467 4.093 4.093 0 00-1.548 1.42 7.173 7.173 0 00-1.137 4.022 7.484 7.484 0 001.259 4.364c.408.655.98 1.193 1.658 1.562.68.37 1.444.558 2.218.547a3.951 3.951 0 003.158-1.52c.903-1.096 1.355-2.568 1.355-4.416M46.266 32.817H33.734V15.183h3.725v14.422h8.807v3.212zM57.714 15.183l-6.02 17.634h-3.502l-5.967-17.634h3.946l3.85 12.387 3.847-12.387h3.846zM71.953 32.817H58.48V15.183h13.054V18.3h-9.426v3.75h8.66v3.09h-8.66v4.56h9.845v3.117zM86.998 32.817h-3.624v-4.538c0-.897-.24-1.518-.718-1.862-.412-.326-1.102-.489-2.07-.489h-3.95v6.889h-3.624v-17.63h9.003c1.76 0 3.158.54 4.195 1.619a4.864 4.864 0 011.38 3.48 4.502 4.502 0 01-.688 2.477 3.932 3.932 0 01-2.073 1.62 2.92 2.92 0 011.777 1.324c.298.67.433 1.4.392 2.13v4.98zm-5.65-14.565h-4.712v4.706h4.613a2.738 2.738 0 002.025-.736 2.208 2.208 0 00.666-1.615 2.236 2.236 0 00-.64-1.62 2.634 2.634 0 00-1.951-.735" fill="#fff" fill-opacity=".9"/><path d="M129.154.011L103.209 25.8l-.27.276c-.37-1.185-1.236-2.083-2.591-2.687-.326-.15-2.07-.596-5.228-1.35-1.876-.442-2.814-1.16-2.814-2.157a1.866 1.866 0 011.133-1.667 4.531 4.531 0 012.1-.467 4.09 4.09 0 012.317.637 2.584 2.584 0 011.207 2.035h3.554a5.34 5.34 0 00-2.34-4.365 7.933 7.933 0 00-4.739-1.398 8.53 8.53 0 00-3.38.662 5.203 5.203 0 00-2.428 1.925 5.228 5.228 0 00-.83 2.834c-.014 2.075.899 3.547 2.74 4.415.378.177 2.105.635 5.183 1.373 1.859.442 2.78 1.185 2.766 2.23a1.848 1.848 0 01-1.074 1.62 4.962 4.962 0 01-2.503.614 4.462 4.462 0 01-2.591-.714 2.622 2.622 0 01-1.233-2.208h-3.587c.126 3.694 2.483 5.657 7.07 5.887l-14.808 14.72h.215L129.372.01h-.218z" fill="#fff" fill-opacity=".9"/><path d="M130.701-1.2l-50.4 50.4" stroke="#fff" stroke-opacity=".9" stroke-width=".6"/></g><defs><clipPath id="clip0_702_128"><path fill="#fff" transform="translate(.5)" d="M0 0h190.8v48H0z"/></clipPath></defs></svg>