<svg width="30" height="27" fill="none" xmlns="http://www.w3.org/2000/svg"><path fill-rule="evenodd" clip-rule="evenodd" d="M14.87 16.131a4.103 4.103 0 01-2.554-.894l-6.05-4.877a1.013 1.013 0 011.27-1.576l6.044 4.872a2.082 2.082 0 002.594-.005l5.983-4.864a1.012 1.012 0 011.277 1.57l-5.994 4.872a4.126 4.126 0 01-2.57.902z" fill="currentColor"/><path fill-rule="evenodd" clip-rule="evenodd" d="M21.455 24.946c.003-.003.014 0 .022 0 1.539 0 2.904-.55 3.95-1.596 1.216-1.21 1.884-2.948 1.884-4.895V9.191c0-3.767-2.463-6.501-5.856-6.501H8.213c-3.393 0-5.856 2.734-5.856 6.501v9.264c0 1.947.67 3.685 1.883 4.895 1.047 1.045 2.413 1.596 3.951 1.596h13.264zM8.187 26.969c-2.081 0-3.94-.755-5.375-2.185C1.213 23.19.334 20.943.334 18.455V9.191c0-4.86 3.387-8.524 7.879-8.524h13.242c4.492 0 7.879 3.665 7.879 8.524v9.264c0 2.488-.88 4.735-2.478 6.329-1.434 1.428-3.294 2.185-5.379 2.185H8.187z" fill="currentColor"/></svg>