<svg width="34" height="34" fill="none" xmlns="http://www.w3.org/2000/svg"><path d="M17.48 6c-1.378 0-2.472 1.108-2.472 2.415 0 1.306 1.134 2.415 2.472 2.415 1.378 0 2.472-1.109 2.472-2.415C19.952 7.108 18.857 6 17.48 6zm0 1.227c.689 0 1.256.554 1.256 1.227s-.527 1.188-1.256 1.188c-.69 0-1.256-.554-1.256-1.227s.567-1.188 1.256-1.188zm-10.536.594c-1.378 0-2.472 1.108-2.472 2.415 0 1.306 1.135 2.415 2.472 2.415s2.472-1.109 2.472-2.415c0-1.307-1.094-2.415-2.472-2.415zm21.112 0c-1.378 0-2.472 1.108-2.472 2.415 0 1.306 1.135 2.415 2.472 2.415 1.378 0 2.472-1.109 2.472-2.415 0-1.307-1.134-2.415-2.472-2.415zM6.944 9.009c.689 0 1.256.554 1.256 1.227s-.567 1.227-1.256 1.227c-.69 0-1.256-.554-1.256-1.227s.567-1.227 1.256-1.227zm21.112 0c.69 0 1.256.554 1.256 1.227s-.567 1.227-1.256 1.227c-.689 0-1.256-.554-1.256-1.227s.527-1.227 1.256-1.227zm-11.184 2.454c-2.067 0-3.728 1.623-3.728 3.642v2.415H11.28c-.324 0-.608.277-.649.594-.04.316.284.593.608.633H23.72c.324 0 .608-.277.649-.594 0-.316-.284-.594-.608-.633h-1.905v-2.415c0-2.019-1.661-3.642-3.728-3.642h-1.256zm0 1.188h1.256c1.378 0 2.472 1.068 2.472 2.414v2.415h-6.2v-2.415c0-1.306 1.094-2.414 2.472-2.414zm-9.928.633c-1.378 0-2.472 1.108-2.472 2.415v5.622c.121 1.266 1.175 2.216 2.472 2.216h3.08v3.642c0 .99.85 1.821 1.864 1.821 1.013 0 1.864-.831 1.864-1.821v-4.83c0-1.346-1.135-2.414-2.472-2.414H9.416v-4.236-.08c-.122-1.266-1.094-2.335-2.472-2.335zm21.112 0c-1.337 0-2.35 1.108-2.472 2.336V19.935H23.72c-1.377 0-2.472 1.108-2.472 2.414v4.83c0 .99.851 1.821 1.864 1.821 1.014 0 1.865-.831 1.865-1.821v-3.642h3.08c1.296 0 2.35-.99 2.471-2.217V15.7c0-1.346-1.134-2.415-2.472-2.415zM6.944 14.472c.689 0 1.134.475 1.256 1.266v4.79c0 .317.284.594.608.594h2.472c.689 0 1.256.554 1.256 1.227v4.83c0 .356-.284.594-.608.594a.59.59 0 01-.608-.594v-4.236a.616.616 0 00-.608-.594H6.984c-.648 0-1.175-.475-1.215-1.108v-5.542a1.156 1.156 0 011.175-1.227zm21.112 0c.69 0 1.256.554 1.256 1.227v5.542c-.04.633-.567 1.108-1.215 1.108h-3.728a.616.616 0 00-.608.594v4.236c0 .356-.284.594-.608.594a.59.59 0 01-.608-.594v-4.83c0-.673.567-1.227 1.256-1.227h2.472a.616.616 0 00.608-.594v-4.79c0-.752.446-1.266 1.175-1.266zm-25.448 1.82a.616.616 0 00-.608.594v4.83c0 2.336 1.945 4.236 4.336 4.236H8.2c.324 0 .608-.277.648-.594 0-.317-.283-.594-.607-.633H6.376c-1.701 0-3.08-1.346-3.08-3.009v-4.83a.695.695 0 00-.688-.593zm29.744 0a.624.624 0 00-.608.634v4.83c0 1.662-1.378 3.008-3.08 3.008H26.8c-.324 0-.608.277-.648.594 0 .317.283.594.607.633h1.864c2.391 0 4.336-1.9 4.336-4.235v-4.87c.041-.316-.243-.593-.607-.593.04 0 .04 0 0 0z" fill="currentColor"/></svg>