<svg width="34" height="34" fill="none" xmlns="http://www.w3.org/2000/svg"><path d="M19.682 15.149h-.87a.46.46 0 00-.453.453.46.46 0 00.454.453h.869a.46.46 0 00.453-.453.46.46 0 00-.453-.453z" fill="currentColor"/><path d="M29.844 20.022h-1.398c.038-.15.076-.302.076-.453v-.416h.869a.855.855 0 00.869-.869v-.868a.855.855 0 00-.87-.87h-4.835a.46.46 0 00-.453.454v2.644c0 .152.038.303.075.454h-7.215c.038-.151.075-.302.075-.454 0-.717-.604-1.322-1.322-1.322h-.113l-.227-.869h4.722a2.193 2.193 0 002.191-2.19V6.346a2.193 2.193 0 00-2.19-2.191H6.005a2.193 2.193 0 00-2.19 2.19v8.84c0 1.21.981 2.192 2.19 2.192h4.723l-.227.869h-.114c-.717 0-1.322.604-1.322 1.322 0 .151.038.302.076.453H4.23a.46.46 0 00-.454.454v1.775a.46.46 0 00.454.453H5.1v6.612a.46.46 0 00.453.453h1.775a.46.46 0 00.454-.453v-2.192h18.51v2.192a.46.46 0 00.454.453h1.776a.46.46 0 00.453-.453v-6.65h.869a.46.46 0 00.453-.453v-1.738a.46.46 0 00-.453-.453zm-1.322-2.644h.869v.869h-.87v-.87zm-3.551 0h2.644v2.19a.46.46 0 01-.453.454h-1.738a.46.46 0 01-.453-.453v-2.191zM4.72 6.347c0-.718.567-1.323 1.323-1.323h14.091c.718 0 1.322.605 1.322 1.323v7.48H4.722v-7.48zm1.323 10.162a1.314 1.314 0 01-1.322-1.322v-.454h16.735v.454c0 .717-.604 1.322-1.322 1.322H6.044zm8.689 1.738h-3.287l.227-.87h2.833l.227.87zm-4.269.869h5.289a.46.46 0 01.453.453.46.46 0 01-.453.453h-5.289a.436.436 0 01-.453-.453.46.46 0 01.453-.453zm-3.551 9.708h-.869v-6.157h.869v6.157zm19.38-2.644H7.782v-3.513h18.51v3.513zm1.776 2.644h-.87v-6.157h.87v6.157zm1.322-7.026H4.72v-.87h24.67v.87z" fill="currentColor"/><path d="M26.746 15.187v.453h.869v-.453h.453a.855.855 0 00.87-.87v-.868h-.87v.869h-.453c-.453-.038-.869.377-.869.869zM25.877 14.28h.453a.855.855 0 00.869-.869v-.869h-.869v.87h-.453a.855.855 0 00-.87.868v.453h.87v-.453zM15.299 25.311h3.513a.46.46 0 00.454-.453v-.87h-.87v.454h-2.681v-.453h-.87v.869a.46.46 0 00.454.453z" fill="currentColor"/></svg>