<svg width="34" height="34" fill="none" xmlns="http://www.w3.org/2000/svg"><path d="M29.101 11.808a2.102 2.102 0 00-.477-.737c-.216-.217-.607-.39-.997-.39h-.736c-.39.043-.65.173-.867.303l-1.04-2.904v-.043A3.25 3.25 0 0021.994 6l-7.629.13-3.034-.043c-1.3 0-2.514.78-2.99 2.037v.043L7.3 11.071c-.26-.13-.477-.26-.867-.303h-.737c-.39 0-.78.173-.997.39-.217.216-.39.476-.477.736-.173.477-.216.91-.216.91-.044.304.13.564.39.694l1.257.52a4.385 4.385 0 00-.997 2.817v9.232A1.35 1.35 0 006 27.41h3.294a1.35 1.35 0 001.344-1.343v-.954c1.733.174 3.64.26 6.588.26 1.517 0 2.817-.13 3.987-.216.26 0 .477-.044.693-.044h.261c.173 0 .303-.043.476-.043v.953a1.35 1.35 0 001.344 1.344h3.294a1.35 1.35 0 001.343-1.344v-9.231c0-1.04-.346-1.994-.997-2.817l1.257-.52c.26-.13.434-.39.39-.694.044-.043 0-.477-.173-.953zM9.598 8.688a1.869 1.869 0 011.733-1.171l9.232-.087h1.43c.78 0 1.474.477 1.734 1.17l1.56 4.465c-1.994.303-6.198.866-9.838.78a59.74 59.74 0 01-7.498-.564l1.647-4.594zm-4.204 3.77v-.087a.666.666 0 01.173-.26c.043-.043.043-.043.087-.043h.65c-.087 0 .216.086.433.216.043.044.043.044.087.044l-.217.607-.043.043-1.17-.52zm21.93 4.377l-4.03 1.257c0 .694.563 1.257 1.256 1.257h2.774v6.631H24.03v-1.647a.667.667 0 00-.65-.65h-.087c-1.82.217-3.9.303-7.194.303h-3.25a42.05 42.05 0 01-2.818-.216h-.087a.667.667 0 00-.65.65v1.647H6v-6.631h2.774c.694 0 1.257-.564 1.257-1.257l-4.03-1.257v-.087c0-.823.346-1.647.91-2.21l.13-.13c1.17.173 4.334.607 8.364.693h.824c4.03 0 8.365-.693 9.881-.953l.304.303a3.08 3.08 0 01.91 2.21v.087zm.607-4.377l-1.17.52-.044-.043-.216-.607c.043-.044.043-.044.086-.044.26-.13.564-.216.477-.216h.607c.043 0 .043 0 .086.043.044.043.13.13.174.26v.087z" fill="currentColor"/><path d="M21.775 17.399c-.086-.044-.173-.044-.26-.044H11.504a.667.667 0 00-.65.65c0 .087 0 .174.043.26l1.257 2.644c.086.13.173.26.303.304 0 0 1.56.736 4.03.736 2.471 0 4.032-.736 4.032-.736.13-.087.26-.174.303-.304l1.257-2.644a.636.636 0 00-.304-.866zm-2.037 2.773c-.26.087-1.3.52-3.25.52s-2.99-.433-3.25-.52l-.694-1.473h7.845l-.65 1.473z" fill="currentColor"/></svg>