<svg width="34" height="34" fill="none" xmlns="http://www.w3.org/2000/svg"><path d="M26.79 17.264h-9.18c.188-.68.264-1.435.188-2.153l1.285-.907a.55.55 0 00.226-.34l.227-1.51.982.264c.076.038.151.037.227.037.453 0 .83-.34.83-.83v-.87l.908.265c.528.113 1.057-.227 1.133-.718l.189-.982 1.02.227c.226.037.566 0 .755-.151l.491-.34c.19-.114.34-.378.416-.605l.756-3.06c.075-.227.037-.529-.114-.718-.151-.189-.378-.302-.642-.34h-2.682c-.302 0-.756.114-1.02.303L14.7 10.502a5.605 5.605 0 00-2.795-.718 5.885 5.885 0 00-3.325 1.058c-2.682 1.89-3.362 5.63-1.51 8.35a.554.554 0 00.755.15.554.554 0 00.15-.755c-1.51-2.267-.944-5.327 1.247-6.876a4.662 4.662 0 012.72-.869c.907 0 1.776.227 2.532.718a.58.58 0 00.604 0l8.349-5.856c.076-.075.264-.113.378-.113H26.223l-.68 2.796v.037l-.454.303-1.511-.34a.524.524 0 00-.415.075.55.55 0 00-.227.34l-.265 1.36-1.397-.378c-.152-.037-.303-.037-.454.076-.15.076-.226.264-.226.415v1.247l-1.247-.34a.524.524 0 00-.416.076.784.784 0 00-.226.378l-.302 1.85-1.36.945a.508.508 0 00-.227.529c.302 1.851-.53 3.778-2.04 4.836a4.663 4.663 0 01-2.72.868c-.454 0-1.285-.226-2.078-.529-.264-.113-.567.038-.68.303-.113.264.038.566.302.68.34.15 1.55.604 2.494.604 1.209 0 2.38-.378 3.173-1.058a5.851 5.851 0 001.964-2.342H26.79c.567 0 1.058.491 1.058 1.058v8.047c0 .566-.491 1.057-1.058 1.057H10.696c-.68 0-1.7-.49-2.154-1.057l-2.266-2.872c-.378-.49-.416-1.397-.038-1.888l1.209-1.587c.151-.227.113-.604-.113-.756a.584.584 0 00-.756.114l-1.209 1.586c-.642.907-.604 2.305.076 3.174l2.266 2.87c.643.794 1.965 1.436 2.985 1.436h16.093c1.171 0 2.116-.982 2.116-2.153V19.38a2.112 2.112 0 00-2.116-2.116z" fill="currentColor"/><path d="M11.15 17.718a.516.516 0 00-.529.529c0 .302.227.529.529.529 1.284 0 2.38-1.096 2.38-2.38a2.37 2.37 0 00-2.38-2.38c-1.096 0-2.04.717-2.305 1.775a.518.518 0 00.378.642.518.518 0 00.642-.377c.152-.567.68-.983 1.285-.983.718 0 1.322.605 1.322 1.323 0 .717-.604 1.322-1.322 1.322zM7.447 23.422a2.37 2.37 0 002.38 2.38c1.285 0 2.38-1.058 2.418-2.38 0-.34-.075-.68-.227-.982-.113-.265-.453-.378-.717-.265-.265.114-.378.454-.265.718.076.151.114.34.114.53 0 .717-.605 1.321-1.323 1.321a1.338 1.338 0 01-1.322-1.322.516.516 0 00-.529-.529.516.516 0 00-.529.53z" fill="currentColor"/><path d="M9.374 23.8a.59.59 0 00.454.227c.075 0 .189-.038.264-.038a.554.554 0 00.151-.756c-.566-.83-1.435-2.38-1.058-3.89.227-.983.945-1.814 2.154-2.456.264-.151.378-.454.226-.718-.15-.265-.453-.378-.717-.227-1.474.794-2.38 1.851-2.683 3.136-.415 1.775.416 3.55 1.21 4.722z" fill="currentColor"/></svg>