<svg width="34" height="34" fill="none" xmlns="http://www.w3.org/2000/svg"><path d="M29.202 11.636h.53a.516.516 0 00.528-.53.465.465 0 00-.189-.377L24.216 5.44c-.114-.076-.227-.151-.34-.151H7.97c-.113 0-.264.038-.34.151l-5.855 5.289c-.227.189-.227.529-.038.755.113.114.226.19.378.19h.528v15.904H0v1.058h31.847V27.54h-2.645V11.636zM18.587 27.54h-5.29v-5.289h5.29v5.289zm9.557-.038h-8.5v-5.855a.516.516 0 00-.528-.53H12.73a.516.516 0 00-.529.53v5.855h-8.5v-4.23H5.29a.516.516 0 00.529-.53v-4.23a.516.516 0 00-.53-.53H3.703v-2.418c.302.19.68.303 1.058.303.604 0 1.209-.265 1.587-.718.793.869 2.115.982 2.984.189l.189-.19c.793.87 2.116.983 2.984.19l.19-.19c.793.87 2.115.983 2.984.19l.189-.19c.793.87 2.115.983 2.984.19l.189-.19c.793.87 2.116.983 2.984.19l.19-.19c.793.87 2.115.983 2.984.19l.189-.19c.415.454.982.719 1.586.719a2.03 2.03 0 001.058-.303v2.418h-1.473a.516.516 0 00-.53.53v4.23c0 .302.228.53.53.53h1.586v4.23zm-24.442-5.25v-3.174H4.76v3.173H3.702zm0-8.5v-2.117h2.116v2.116c0 .604-.491 1.058-1.058 1.058a1.056 1.056 0 01-1.058-1.058zm3.211 0v-2.117H9.03v2.116c0 .604-.491 1.058-1.058 1.058a1.033 1.033 0 01-1.058-1.058zm3.174 0v-2.117h2.115v2.116c0 .604-.49 1.058-1.058 1.058a1.056 1.056 0 01-1.057-1.058zm3.173 0v-2.117h2.116v2.116c0 .604-.492 1.058-1.058 1.058a1.056 1.056 0 01-1.058-1.058zm3.211 0v-2.117h2.116v2.116c0 .604-.491 1.058-1.058 1.058a1.033 1.033 0 01-1.058-1.058zm3.173 0v-2.117h2.116v2.116c0 .604-.491 1.058-1.058 1.058a1.033 1.033 0 01-1.058-1.058zm3.174 0v-2.117h2.115v2.116c0 .604-.49 1.058-1.058 1.058a1.056 1.056 0 01-1.057-1.058zm5.326 8.5h-1.057v-3.174h1.057v3.173zm0-8.5c0 .603-.49 1.057-1.057 1.057a1.056 1.056 0 01-1.058-1.058v-2.115h2.115v2.115zm-24.63-3.174l4.684-4.231h15.489l4.684 4.23H3.513z" fill="currentColor"/></svg>