<?xml version="1.0" encoding="utf-8"?><svg viewBox="0 0 192 48" xmlns="http://www.w3.org/2000/svg" xmlns:xlink="http://www.w3.org/1999/xlink"><style>:root>svg{display:none}:root>svg:target{display:block}</style><svg fill="none" viewBox="0 0 34 34" id="apartment" xmlns="http://www.w3.org/2000/svg"><path d="M24.442 11.296h1.587c.264 0 .453-.227.453-.491V7.593c0-.264-.227-.49-.453-.49h-1.587c-.265 0-.454.226-.454.49v3.212c-.037.264.19.49.454.49zm.453-3.212h.68v2.267h-.68V8.084zm-.453 8.538h1.587c.264 0 .453-.226.453-.49V12.92c0-.264-.227-.491-.453-.491h-1.587c-.265 0-.454.227-.454.491v3.211c-.037.265.19.491.454.491zm.453-3.21h.68v2.266h-.68V13.41zm-4.457-.492v3.211c0 .265.226.491.453.491h1.587c.264 0 .453-.226.453-.49V12.92c0-.264-.227-.491-.454-.491h-1.586c-.227.038-.453.264-.453.491zm.944.491h.68v2.267h-.68V13.41zm3.06 8.538h1.587c.264 0 .453-.227.453-.491v-3.211c0-.265-.227-.491-.453-.491h-1.587c-.265 0-.454.226-.454.49v3.212c-.037.264.19.49.454.49zm.453-3.211h.68v2.266h-.68v-2.266zm-2.38-.945h-1.587c-.265 0-.453.227-.453.491v3.212c0 .264.226.49.453.49h1.587c.264 0 .453-.226.453-.49v-3.212c.038-.264-.189-.49-.453-.49zm-.454 3.211h-.68v-2.266h.68v2.266zm2.381 6.272h1.587a.46.46 0 00.453-.454v-3.21a.46.46 0 00-.453-.454h-1.587a.46.46 0 00-.454.453v3.211c-.037.265.19.454.454.454zm.453-3.212h.68v2.267h-.68v-2.267zm-2.38-.944h-1.587a.46.46 0 00-.453.453v3.211c0 .265.226.492.453.492h1.587c.264 0 .453-.227.453-.492v-3.21c.038-.227-.189-.454-.453-.454zm-.454 3.211h-.68v-2.267h.68v2.267zM8.5 16.244h1.587c.264 0 .453-.226.453-.49v-3.59c.038-.302-.189-.49-.453-.49H8.5c-.264 0-.453.226-.453.49v3.59c0 .264.227.49.453.49zm.491-3.626h.643v2.644H8.99v-2.644zm2.984 9.218h1.587c.264 0 .453-.227.453-.491v-3.59c0-.302-.19-.49-.454-.49h-1.586c-.265 0-.454.226-.454.49v3.59c0 .264.227.49.454.49zm.453-3.627h.642v2.644h-.642V18.21zm-.453-1.965h1.587c.264 0 .453-.226.453-.49v-3.59c0-.302-.19-.49-.454-.49h-1.586c-.265 0-.454.226-.454.49v3.59c0 .264.227.49.454.49zm.453-3.626h.642v2.644h-.642v-2.644zM8.5 21.836h1.587c.264 0 .453-.227.453-.491v-3.59c.038-.302-.189-.49-.453-.49H8.5c-.264 0-.453.226-.453.49v3.59c0 .264.227.49.453.49zm.491-3.627h.643v2.644H8.99V18.21zm6.46-1.965h1.587c.264 0 .453-.226.453-.49v-3.59a.476.476 0 00-.49-.49h-1.55c-.264 0-.453.226-.453.49v3.59c0 .264.227.49.453.49zm.454-3.626h.642v2.644h-.642v-2.644zm-.454 9.218h1.587c.264 0 .453-.227.453-.491v-3.59a.476.476 0 00-.49-.49h-1.55c-.264 0-.453.226-.453.49v3.59c0 .264.227.49.453.49zm.454-3.627h.642v2.644h-.642V18.21zM13.6 29.429h3.475a.46.46 0 00.454-.453v-3.4c.038-.265-.19-.492-.454-.492H13.6c-.265 0-.454.227-.454.492v3.4a.46.46 0 00.454.453zm.49-3.4h2.532v2.456h-2.531v-2.456zm-5.666 3.4H11.9c.264 0 .49-.227.49-.453v-3.4c-.037-.265-.226-.492-.49-.492H8.424c-.264 0-.453.227-.453.492v3.4a.46.46 0 00.453.453zm.453-3.4h2.531v2.456h-2.53v-2.456z" fill="currentColor"/><path d="M28.409 30.562V4.458c0-.265-.227-.491-.454-.491h-1.171V2.72c0-.264-.227-.453-.491-.453h-9.18a.46.46 0 00-.453.453v1.247h-1.058c-.265 0-.454.226-.454.49v2.834H4.232c-.265 0-.454.227-.454.491v1.662c0 .265.227.492.454.492h1.625V30.6H4.08v.944h26.104V30.6l-1.776-.038zM17.604 3.212h8.236v.755h-8.236V3.21zM5.44 8.952h-.756v-.717h16.207v.717H5.44zm13.373 21.61H6.762v-6.574h12.05v6.573zm0-7.519H6.762V9.898h12.05v13.146zm8.689 7.518h-7.745V9.898h1.587c.264 0 .453-.227.453-.491V7.744c0-.264-.226-.49-.453-.49h-5.251V4.91h11.409v25.651z" fill="currentColor"/></svg><svg fill="none" viewBox="0 0 46 40" id="back-arrow" xmlns="http://www.w3.org/2000/svg"><path d="M45 20H1m0 0L18.111 1M1 20l17.111 19" stroke="currentColor" stroke-width="1.7" stroke-linecap="round" stroke-linejoin="round"/></svg><svg fill="none" viewBox="0 0 192 48" id="logo" xmlns="http://www.w3.org/2000/svg"><g clip-path="url(#cclip0_702_128)"><path d="M110.965 24.916h8.618v-3.032h-8.618v-3.64h9.4v-3.032h-6.35l-6.734 6.646v10.97h13.472v-3.032h-9.788v-4.88zm13.938 2.477c0 .997.536 2.863 3.757 2.863 1.759 0 3.702-.435 3.702-2.278 0-1.384-1.344-1.726-3.224-2.186l-3.565-.872c-2.514-.607-3.954-2.087-3.954-4.758 0-1.94 1.073-5.41 6.812-5.41 5.42 0 6.882 3.544 6.882 5.7h-3.539c-.097-.798-.389-2.667-3.614-2.667-1.414 0-3.098.533-3.098 2.112 0 1.384 1.147 1.674 1.88 1.84l4.321 1.041c2.428.611 4.65 1.582 4.65 4.736 0 5.314-5.42 5.774-6.983 5.774-6.445 0-7.567-3.71-7.567-5.888l3.54-.007zm19.822 5.435h-3.703V18.245h-5.331v-3.033h14.379v3.033h-5.345v14.583zm13.426-17.616l6.224 17.616h-4.002l-1.148-3.64h-6.519l-1.244 3.64h-3.884l6.294-17.616h4.279zm-4.468 10.944h4.735L156 19.194h-.048l-2.269 6.962zm17.721 6.672h-3.702V18.245h-5.331v-3.033h14.379v3.033h-5.346v14.583zm19.504-17.616v3.033h-9.396v3.639h8.614v3.036h-8.614v4.876h9.788v3.032h-13.476V15.212h13.084z" fill="#fff" fill-opacity=".5"/><path d="M15.053 27.544a5.245 5.245 0 01-.814 3.017 6.23 6.23 0 01-2.566 2.061 8.035 8.035 0 01-3.28.684C3.262 33.277.63 31.308.5 27.396h3.576a2.611 2.611 0 001.233 2.209 4.463 4.463 0 002.592.713 4.962 4.962 0 002.502-.614 1.848 1.848 0 001.074-1.62c.02-1.044-.902-1.788-2.766-2.23-3.072-.735-4.8-1.193-5.183-1.372C1.7 23.624.785 22.152.785 20.066a5.268 5.268 0 01.83-2.83 5.178 5.178 0 012.428-1.928 8.531 8.531 0 013.38-.662 7.905 7.905 0 014.735 1.398 5.377 5.377 0 011.71 1.897c.409.76.627 1.606.637 2.468h-3.554a2.588 2.588 0 00-1.21-2.035 4.092 4.092 0 00-2.318-.637 4.513 4.513 0 00-2.095.467c-.33.141-.612.373-.814.669a1.862 1.862 0 00-.323.998c0 .996.938 1.715 2.814 2.157 3.159.75 4.903 1.2 5.23 1.35 1.874.832 2.81 2.22 2.81 4.166m17.846-3.43c0 2.99-.765 5.311-2.295 6.962-1.461 1.568-3.45 2.353-5.968 2.355-2.814 0-4.973-.874-6.479-2.623-1.505-1.75-2.257-4.165-2.255-7.246 0-2.615.757-4.74 2.27-6.377 1.562-1.698 3.65-2.556 6.264-2.576a8.036 8.036 0 013.145.549 8 8 0 012.678 1.729c1.76 1.734 2.64 4.138 2.64 7.212v.015zm-3.676.206c0-4.283-1.637-6.434-4.91-6.45a4.122 4.122 0 00-2.053.467 4.093 4.093 0 00-1.548 1.42 7.173 7.173 0 00-1.137 4.022 7.484 7.484 0 001.259 4.364c.408.655.98 1.193 1.658 1.562.68.37 1.444.558 2.218.547a3.951 3.951 0 003.158-1.52c.903-1.096 1.355-2.568 1.355-4.416m17.051 8.501H33.734V15.183h3.725v14.422h8.807v3.212zm11.448-17.634l-6.02 17.634h-3.502l-5.967-17.634h3.946l3.85 12.387 3.847-12.387h3.846zm14.239 17.634H58.48V15.183h13.054V18.3h-9.426v3.75h8.66v3.09h-8.66v4.56h9.845v3.117zm15.045 0h-3.624v-4.538c0-.897-.24-1.518-.718-1.862-.412-.326-1.102-.489-2.07-.489h-3.95v6.889h-3.624v-17.63h9.003c1.76 0 3.158.54 4.195 1.619a4.864 4.864 0 011.38 3.48 4.502 4.502 0 01-.688 2.477 3.932 3.932 0 01-2.073 1.62 2.92 2.92 0 011.777 1.324c.298.67.433 1.4.392 2.13v4.98zm-5.65-14.565h-4.712v4.706h4.613a2.738 2.738 0 002.025-.736 2.208 2.208 0 00.666-1.615 2.236 2.236 0 00-.64-1.62 2.634 2.634 0 00-1.951-.735" fill="#fff" fill-opacity=".9"/><path d="M129.154.011L103.209 25.8l-.27.276c-.37-1.185-1.236-2.083-2.591-2.687-.326-.15-2.07-.596-5.228-1.35-1.876-.442-2.814-1.16-2.814-2.157a1.866 1.866 0 011.133-1.667 4.531 4.531 0 012.1-.467 4.09 4.09 0 012.317.637 2.584 2.584 0 011.207 2.035h3.554a5.34 5.34 0 00-2.34-4.365 7.933 7.933 0 00-4.739-1.398 8.53 8.53 0 00-3.38.662 5.203 5.203 0 00-2.428 1.925 5.228 5.228 0 00-.83 2.834c-.014 2.075.899 3.547 2.74 4.415.378.177 2.105.635 5.183 1.373 1.859.442 2.78 1.185 2.766 2.23a1.848 1.848 0 01-1.074 1.62 4.962 4.962 0 01-2.503.614 4.462 4.462 0 01-2.591-.714 2.622 2.622 0 01-1.233-2.208h-3.587c.126 3.694 2.483 5.657 7.07 5.887l-14.808 14.72h.215L129.372.01h-.218z" fill="#fff" fill-opacity=".9"/><path d="M130.701-1.2l-50.4 50.4" stroke="#fff" stroke-opacity=".9" stroke-width=".6"/></g><defs><clipPath id="cclip0_702_128"><path fill="#fff" transform="translate(.5)" d="M0 0h190.8v48H0z"/></clipPath></defs></svg><svg fill="none" viewBox="0 0 43 42" id="logo-mob" xmlns="http://www.w3.org/2000/svg"><path d="M26.444 21.764h7.282v-2.527h-7.282v-3.034h7.942v-2.527h-5.368l-5.69 5.538v9.141h11.39v-2.527h-8.274v-4.064z" fill="#fff" fill-opacity=".7"/><path d="M41.818 1l-21.93 21.49-.23.228c-.318-.988-1.045-1.736-2.192-2.24-.276-.123-1.75-.497-4.42-1.124-1.584-.367-2.378-.968-2.378-1.798.014-.6.334-1.062.959-1.39.513-.259 1.105-.388 1.773-.388.765 0 1.416.177 1.96.532.612.394.952.96 1.02 1.695h3.004c-.071-1.553-.73-2.765-1.98-3.637-1.101-.777-2.435-1.165-4.004-1.165-1.031 0-1.982.184-2.857.551-.918.381-1.604.917-2.053 1.605-.453.687-.686 1.474-.7 2.358-.014 1.73.757 2.957 2.315 3.68.32.15 1.78.53 4.378 1.145 1.571.367 2.35.987 2.336 1.858 0 .559-.3 1.008-.906 1.348-.605.342-1.31.512-2.117.512-.875 0-1.607-.198-2.19-.592-.666-.435-1.015-1.05-1.042-1.84H7.539c.104 3.077 2.1 4.709 5.975 4.904L1 41h.182L42 1h-.182z" fill="#fff" fill-opacity=".95"/><path d="M42 1L1 41" stroke="#fff" stroke-opacity=".95" stroke-width=".5"/></svg><svg fill="none" viewBox="0 0 30 27" id="mailto" xmlns="http://www.w3.org/2000/svg"><path fill-rule="evenodd" clip-rule="evenodd" d="M14.87 16.131a4.103 4.103 0 01-2.554-.894l-6.05-4.877a1.013 1.013 0 011.27-1.576l6.044 4.872a2.082 2.082 0 002.594-.005l5.983-4.864a1.012 1.012 0 011.277 1.57l-5.994 4.872a4.126 4.126 0 01-2.57.902z" fill="currentColor"/><path fill-rule="evenodd" clip-rule="evenodd" d="M21.455 24.946c.003-.003.014 0 .022 0 1.539 0 2.904-.55 3.95-1.596 1.216-1.21 1.884-2.948 1.884-4.895V9.191c0-3.767-2.463-6.501-5.856-6.501H8.213c-3.393 0-5.856 2.734-5.856 6.501v9.264c0 1.947.67 3.685 1.883 4.895 1.047 1.045 2.413 1.596 3.951 1.596h13.264zM8.187 26.969c-2.081 0-3.94-.755-5.375-2.185C1.213 23.19.334 20.943.334 18.455V9.191c0-4.86 3.387-8.524 7.879-8.524h13.242c4.492 0 7.879 3.665 7.879 8.524v9.264c0 2.488-.88 4.735-2.478 6.329-1.434 1.428-3.294 2.185-5.379 2.185H8.187z" fill="currentColor"/></svg><svg fill="none" viewBox="0 0 34 34" id="meeting" xmlns="http://www.w3.org/2000/svg"><path d="M17.48 6c-1.378 0-2.472 1.108-2.472 2.415 0 1.306 1.134 2.415 2.472 2.415 1.378 0 2.472-1.109 2.472-2.415C19.952 7.108 18.857 6 17.48 6zm0 1.227c.689 0 1.256.554 1.256 1.227s-.527 1.188-1.256 1.188c-.69 0-1.256-.554-1.256-1.227s.567-1.188 1.256-1.188zm-10.536.594c-1.378 0-2.472 1.108-2.472 2.415 0 1.306 1.135 2.415 2.472 2.415s2.472-1.109 2.472-2.415c0-1.307-1.094-2.415-2.472-2.415zm21.112 0c-1.378 0-2.472 1.108-2.472 2.415 0 1.306 1.135 2.415 2.472 2.415 1.378 0 2.472-1.109 2.472-2.415 0-1.307-1.134-2.415-2.472-2.415zM6.944 9.009c.689 0 1.256.554 1.256 1.227s-.567 1.227-1.256 1.227c-.69 0-1.256-.554-1.256-1.227s.567-1.227 1.256-1.227zm21.112 0c.69 0 1.256.554 1.256 1.227s-.567 1.227-1.256 1.227c-.689 0-1.256-.554-1.256-1.227s.527-1.227 1.256-1.227zm-11.184 2.454c-2.067 0-3.728 1.623-3.728 3.642v2.415H11.28c-.324 0-.608.277-.649.594-.04.316.284.593.608.633H23.72c.324 0 .608-.277.649-.594 0-.316-.284-.594-.608-.633h-1.905v-2.415c0-2.019-1.661-3.642-3.728-3.642h-1.256zm0 1.188h1.256c1.378 0 2.472 1.068 2.472 2.414v2.415h-6.2v-2.415c0-1.306 1.094-2.414 2.472-2.414zm-9.928.633c-1.378 0-2.472 1.108-2.472 2.415v5.622c.121 1.266 1.175 2.216 2.472 2.216h3.08v3.642c0 .99.85 1.821 1.864 1.821 1.013 0 1.864-.831 1.864-1.821v-4.83c0-1.346-1.135-2.414-2.472-2.414H9.416v-4.316c-.122-1.266-1.094-2.335-2.472-2.335zm21.112 0c-1.337 0-2.35 1.108-2.472 2.336v4.315H23.72c-1.377 0-2.472 1.108-2.472 2.414v4.83c0 .99.851 1.821 1.864 1.821 1.014 0 1.865-.831 1.865-1.821v-3.642h3.08c1.296 0 2.35-.99 2.471-2.217V15.7c0-1.346-1.134-2.415-2.472-2.415zM6.944 14.472c.689 0 1.134.475 1.256 1.266v4.79c0 .317.284.594.608.594h2.472c.689 0 1.256.554 1.256 1.227v4.83c0 .356-.284.594-.608.594a.59.59 0 01-.608-.594v-4.236a.616.616 0 00-.608-.594H6.984c-.648 0-1.175-.475-1.215-1.108v-5.542a1.156 1.156 0 011.175-1.227zm21.112 0c.69 0 1.256.554 1.256 1.227v5.542c-.04.633-.567 1.108-1.215 1.108h-3.728a.616.616 0 00-.608.594v4.236c0 .356-.284.594-.608.594a.59.59 0 01-.608-.594v-4.83c0-.673.567-1.227 1.256-1.227h2.472a.616.616 0 00.608-.594v-4.79c0-.752.446-1.266 1.175-1.266zm-25.448 1.82a.616.616 0 00-.608.594v4.83c0 2.336 1.945 4.236 4.336 4.236H8.2c.324 0 .608-.277.648-.594 0-.317-.283-.594-.607-.633H6.376c-1.701 0-3.08-1.346-3.08-3.009v-4.83a.695.695 0 00-.688-.593zm29.744 0a.624.624 0 00-.608.634v4.83c0 1.662-1.378 3.008-3.08 3.008H26.8c-.324 0-.608.277-.648.594 0 .317.283.594.607.633h1.864c2.391 0 4.336-1.9 4.336-4.235v-4.87c.041-.316-.243-.593-.607-.593.04 0 .04 0 0 0z" fill="currentColor"/></svg><svg fill="none" viewBox="0 0 34 34" id="office" xmlns="http://www.w3.org/2000/svg"><path d="M19.682 15.149h-.87a.46.46 0 00-.453.453.46.46 0 00.454.453h.869a.46.46 0 00.453-.453.46.46 0 00-.453-.453z" fill="currentColor"/><path d="M29.844 20.022h-1.398c.038-.15.076-.302.076-.453v-.416h.869a.855.855 0 00.869-.869v-.868a.855.855 0 00-.87-.87h-4.835a.46.46 0 00-.453.454v2.644c0 .152.038.303.075.454h-7.215c.038-.151.075-.302.075-.454 0-.717-.604-1.322-1.322-1.322h-.113l-.227-.869h4.722a2.193 2.193 0 002.191-2.19V6.346a2.193 2.193 0 00-2.19-2.191H6.005a2.193 2.193 0 00-2.19 2.19v8.84c0 1.21.981 2.192 2.19 2.192h4.723l-.227.869h-.114c-.717 0-1.322.604-1.322 1.322 0 .151.038.302.076.453H4.23a.46.46 0 00-.454.454v1.775a.46.46 0 00.454.453h.87v6.612a.46.46 0 00.453.453h1.775a.46.46 0 00.454-.453v-2.192h18.51v2.192a.46.46 0 00.454.453h1.776a.46.46 0 00.453-.453v-6.65h.869a.46.46 0 00.453-.453v-1.738a.46.46 0 00-.453-.453zm-1.322-2.644h.869v.869h-.87v-.87zm-3.551 0h2.644v2.19a.46.46 0 01-.453.454h-1.738a.46.46 0 01-.453-.453v-2.191zM4.72 6.347c0-.718.567-1.323 1.323-1.323h14.091c.718 0 1.322.605 1.322 1.323v7.48H4.722v-7.48zm1.323 10.162a1.314 1.314 0 01-1.322-1.322v-.454h16.735v.454c0 .717-.604 1.322-1.322 1.322H6.044zm8.689 1.738h-3.287l.227-.87h2.833l.227.87zm-4.269.869h5.289a.46.46 0 01.453.453.46.46 0 01-.453.453h-5.289a.436.436 0 01-.453-.453.46.46 0 01.453-.453zm-3.551 9.708h-.869v-6.157h.869v6.157zm19.38-2.644H7.782v-3.513h18.51v3.513zm1.776 2.644h-.87v-6.157h.87v6.157zm1.322-7.026H4.72v-.87h24.67v.87z" fill="currentColor"/><path d="M26.746 15.187v.453h.869v-.453h.453a.855.855 0 00.87-.87v-.868h-.87v.869h-.453c-.453-.038-.869.377-.869.869zm-.869-.907h.453a.855.855 0 00.869-.869v-.869h-.869v.87h-.453a.855.855 0 00-.87.868v.453h.87v-.453zM15.299 25.311h3.513a.46.46 0 00.454-.453v-.87h-.87v.454h-2.681v-.453h-.87v.869a.46.46 0 00.454.453z" fill="currentColor"/></svg><svg fill="none" viewBox="0 0 34 34" id="parking" xmlns="http://www.w3.org/2000/svg"><path d="M29.101 11.808a2.102 2.102 0 00-.477-.737c-.216-.217-.607-.39-.997-.39h-.736c-.39.043-.65.173-.867.303l-1.04-2.904v-.043A3.25 3.25 0 0021.994 6l-7.629.13-3.034-.043c-1.3 0-2.514.78-2.99 2.037v.043L7.3 11.071c-.26-.13-.477-.26-.867-.303h-.737c-.39 0-.78.173-.997.39a1.95 1.95 0 00-.477.736 4.21 4.21 0 00-.216.91c-.044.304.13.564.39.694l1.257.52a4.385 4.385 0 00-.997 2.817v9.232A1.35 1.35 0 006 27.41h3.294a1.35 1.35 0 001.344-1.343v-.954c1.733.174 3.64.26 6.588.26 1.517 0 2.817-.13 3.987-.216.26 0 .477-.044.693-.044h.261c.173 0 .303-.043.476-.043v.953a1.35 1.35 0 001.344 1.344h3.294a1.35 1.35 0 001.343-1.344v-9.231c0-1.04-.346-1.994-.997-2.817l1.257-.52c.26-.13.434-.39.39-.694.044-.043 0-.477-.173-.953zM9.598 8.688a1.869 1.869 0 011.733-1.171l9.232-.087h1.43c.78 0 1.474.477 1.734 1.17l1.56 4.465c-1.994.303-6.198.866-9.838.78a59.74 59.74 0 01-7.498-.564l1.647-4.594zm-4.204 3.77v-.087a.666.666 0 01.173-.26c.043-.043.043-.043.087-.043h.65c-.087 0 .216.086.433.216.043.044.043.044.087.044l-.217.607-.043.043-1.17-.52zm21.93 4.377l-4.03 1.257c0 .694.563 1.257 1.256 1.257h2.774v6.631H24.03v-1.647a.667.667 0 00-.65-.65h-.087c-1.82.217-3.9.303-7.194.303h-3.25a42.05 42.05 0 01-2.818-.216h-.087a.667.667 0 00-.65.65v1.647H6v-6.631h2.774c.694 0 1.257-.564 1.257-1.257l-4.03-1.257v-.087c0-.823.346-1.647.91-2.21l.13-.13c1.17.173 4.334.607 8.364.693h.824c4.03 0 8.365-.693 9.881-.953l.304.303a3.08 3.08 0 01.91 2.21v.087zm.607-4.377l-1.17.52-.044-.043-.216-.607c.043-.044.043-.044.086-.044.26-.13.564-.216.477-.216h.607c.043 0 .043 0 .086.043.044.043.13.13.174.26v.087z" fill="currentColor"/><path d="M21.775 17.399c-.086-.044-.173-.044-.26-.044H11.504a.667.667 0 00-.65.65c0 .087 0 .174.043.26l1.257 2.644c.086.13.173.26.303.304 0 0 1.56.736 4.03.736 2.471 0 4.032-.736 4.032-.736.13-.087.26-.174.303-.304l1.257-2.644a.636.636 0 00-.304-.866zm-2.037 2.773c-.26.087-1.3.52-3.25.52s-2.99-.433-3.25-.52l-.694-1.473h7.845l-.65 1.473z" fill="currentColor"/></svg><svg fill="none" viewBox="0 0 34 34" id="rent" xmlns="http://www.w3.org/2000/svg"><path d="M7.555 4.911V29.09h18.662V4.91H7.555zm17.529 23.044H8.688V6.046h16.396v21.91z" fill="currentColor"/><path d="M21.835 17.793h-9.898v1.096h9.898v-1.096zm-2.757 3.287h-7.14v1.096h7.14V21.08zm2.757 3.287h-9.898v1.095h9.898v-1.095zm-5.251-11.598h1.02v2.38h3.098V10.01l-3.589-2.833-3.627 2.833v5.138h3.098v-2.38zm-1.095 0v1.246h-.832v-3.437l2.456-1.965 2.493 1.965v3.438h-.83v-2.38h-3.287v1.133z" fill="currentColor"/></svg><svg fill="none" viewBox="0 0 34 34" id="sale" xmlns="http://www.w3.org/2000/svg"><path d="M26.79 17.264h-9.18c.188-.68.264-1.435.188-2.153l1.285-.907a.55.55 0 00.226-.34l.227-1.51.982.264c.076.038.151.037.227.037.453 0 .83-.34.83-.83v-.87l.908.265c.528.113 1.057-.227 1.133-.718l.189-.982 1.02.227c.226.037.566 0 .755-.151l.491-.34c.19-.114.34-.378.416-.605l.756-3.06c.075-.227.037-.529-.114-.718-.151-.189-.378-.302-.642-.34h-2.682c-.302 0-.756.114-1.02.303L14.7 10.502a5.605 5.605 0 00-2.795-.718 5.885 5.885 0 00-3.325 1.058c-2.682 1.89-3.362 5.63-1.51 8.35a.554.554 0 00.755.15.554.554 0 00.15-.755c-1.51-2.267-.944-5.327 1.247-6.876a4.662 4.662 0 012.72-.869c.907 0 1.776.227 2.532.718a.58.58 0 00.604 0l8.349-5.856c.076-.075.264-.113.378-.113h2.418l-.68 2.796v.037l-.454.303-1.511-.34a.524.524 0 00-.415.075.55.55 0 00-.227.34l-.265 1.36-1.397-.378c-.152-.037-.303-.037-.454.076-.15.076-.226.264-.226.415v1.247l-1.247-.34a.524.524 0 00-.416.076.784.784 0 00-.226.378l-.302 1.85-1.36.945a.508.508 0 00-.227.529c.302 1.851-.53 3.778-2.04 4.836a4.663 4.663 0 01-2.72.868c-.454 0-1.285-.226-2.078-.529-.264-.113-.567.038-.68.303-.113.264.038.566.302.68.34.15 1.55.604 2.494.604 1.209 0 2.38-.378 3.173-1.058a5.851 5.851 0 001.964-2.342h9.559c.567 0 1.058.491 1.058 1.058v8.047a1.08 1.08 0 01-1.058 1.057H10.696c-.68 0-1.7-.49-2.154-1.057l-2.266-2.872c-.378-.49-.416-1.397-.038-1.888l1.209-1.587c.151-.227.113-.604-.113-.756a.584.584 0 00-.756.114l-1.209 1.586c-.642.907-.604 2.305.076 3.174l2.266 2.87c.643.794 1.965 1.436 2.985 1.436h16.093c1.171 0 2.116-.982 2.116-2.153V19.38a2.112 2.112 0 00-2.116-2.116z" fill="currentColor"/><path d="M11.15 17.718a.516.516 0 00-.529.529c0 .302.227.529.529.529 1.284 0 2.38-1.096 2.38-2.38a2.37 2.37 0 00-2.38-2.38c-1.096 0-2.04.717-2.305 1.775a.518.518 0 00.378.642.518.518 0 00.642-.377c.152-.567.68-.983 1.285-.983.718 0 1.322.605 1.322 1.323 0 .717-.604 1.322-1.322 1.322zm-3.703 5.704a2.37 2.37 0 002.38 2.38c1.285 0 2.38-1.058 2.418-2.38 0-.34-.075-.68-.227-.982-.113-.265-.453-.378-.717-.265-.265.114-.378.454-.265.718.076.151.114.34.114.53 0 .717-.605 1.321-1.323 1.321a1.338 1.338 0 01-1.322-1.322.516.516 0 00-.529-.529.516.516 0 00-.529.53z" fill="currentColor"/><path d="M9.374 23.8a.59.59 0 00.454.227c.075 0 .189-.038.264-.038a.554.554 0 00.151-.756c-.566-.83-1.435-2.38-1.058-3.89.227-.983.945-1.814 2.154-2.456.264-.151.378-.454.226-.718-.15-.265-.453-.378-.717-.227-1.474.794-2.38 1.851-2.683 3.136-.415 1.775.416 3.55 1.21 4.722z" fill="currentColor"/></svg><svg fill="none" viewBox="0 0 21 20" id="select-arrow" xmlns="http://www.w3.org/2000/svg"><path fill-rule="evenodd" clip-rule="evenodd" d="M6.707 8.266a.85.85 0 011.202-.001l2.342 2.335 2.341-2.335a.85.85 0 011.2 1.203l-2.941 2.934a.85.85 0 01-1.2 0L6.708 9.468a.85.85 0 01-.002-1.202z" fill="#fff"/></svg><svg fill="none" viewBox="0 0 34 34" id="selling" xmlns="http://www.w3.org/2000/svg"><path d="M29.202 11.636h.53a.516.516 0 00.528-.53.465.465 0 00-.189-.377L24.216 5.44c-.114-.076-.227-.151-.34-.151H7.97c-.113 0-.264.038-.34.151l-5.855 5.289c-.227.189-.227.529-.038.755.113.114.226.19.378.19h.528v15.904H0v1.058h31.847V27.54h-2.645V11.636zM18.587 27.54h-5.29v-5.289h5.29v5.289zm9.557-.038h-8.5v-5.855a.516.516 0 00-.528-.53H12.73a.516.516 0 00-.529.53v5.855h-8.5v-4.23H5.29a.516.516 0 00.529-.53v-4.23a.516.516 0 00-.53-.53H3.703v-2.418c.302.19.68.303 1.058.303.604 0 1.209-.265 1.587-.718.793.869 2.115.982 2.984.189l.189-.19c.793.87 2.116.983 2.984.19l.19-.19c.793.87 2.115.983 2.984.19l.189-.19c.793.87 2.115.983 2.984.19l.189-.19c.793.87 2.116.983 2.984.19l.19-.19c.793.87 2.115.983 2.984.19l.189-.19c.415.454.982.719 1.586.719a2.03 2.03 0 001.058-.303v2.418h-1.473a.516.516 0 00-.53.53v4.23c0 .302.228.53.53.53h1.586v4.23zm-24.442-5.25v-3.174H4.76v3.173H3.702zm0-8.5v-2.117h2.116v2.116c0 .604-.491 1.058-1.058 1.058a1.056 1.056 0 01-1.058-1.058zm3.211 0v-2.117H9.03v2.116c0 .604-.491 1.058-1.058 1.058a1.033 1.033 0 01-1.058-1.058zm3.174 0v-2.117h2.115v2.116c0 .604-.49 1.058-1.058 1.058a1.056 1.056 0 01-1.057-1.058zm3.173 0v-2.117h2.116v2.116c0 .604-.492 1.058-1.058 1.058a1.056 1.056 0 01-1.058-1.058zm3.211 0v-2.117h2.116v2.116c0 .604-.491 1.058-1.058 1.058a1.033 1.033 0 01-1.058-1.058zm3.173 0v-2.117h2.116v2.116c0 .604-.491 1.058-1.058 1.058a1.033 1.033 0 01-1.058-1.058zm3.174 0v-2.117h2.115v2.116c0 .604-.49 1.058-1.058 1.058a1.056 1.056 0 01-1.057-1.058zm5.326 8.5h-1.057v-3.174h1.057v3.173zm0-8.5c0 .603-.49 1.057-1.057 1.057a1.056 1.056 0 01-1.058-1.058v-2.115h2.115v2.115zm-24.63-3.174l4.684-4.231h15.489l4.684 4.23H3.513z" fill="currentColor"/></svg><svg fill="none" viewBox="0 0 20 17" id="telegram" xmlns="http://www.w3.org/2000/svg"><path fill-rule="evenodd" clip-rule="evenodd" d="M2.076 7.629c4.127-1.73 9.118-4.193 13.444-5.857C19.513.308 19.447.705 18.848 4.701c-.467 3.194-1 6.389-1.534 9.583-.2 1.531-1.001 2.33-2.662 1.398l-5.192-3.66c-.734-.6-.534-1.068.067-1.664l4.792-4.526c1.264-1.267.667-1.73-.8-.734l-6.585 4.46c-.934.668-1.93.668-2.994.334l-2.263-.8c-1.464-.534-.334-1.134.4-1.465v.002z" fill="currentColor"/></svg><svg fill="none" viewBox="0 0 22 22" id="whatsapp" xmlns="http://www.w3.org/2000/svg"><path d="M11.003 0h-.006C4.932 0 0 4.934 0 11c0 2.406.775 4.636 2.094 6.447l-1.37 4.087 4.227-1.352A10.905 10.905 0 0011.003 22C17.068 22 22 17.065 22 11S17.068 0 11.003 0zm6.4 15.533c-.265.75-1.318 1.371-2.158 1.553-.575.122-1.326.22-3.853-.828-3.233-1.34-5.314-4.624-5.477-4.837-.155-.213-1.306-1.74-1.306-3.318 0-1.579.802-2.347 1.125-2.677.265-.271.704-.395 1.125-.395.136 0 .258.007.368.013.323.013.485.033.699.543.265.639.911 2.218.988 2.38.079.162.157.382.047.595-.103.22-.194.318-.356.505-.162.187-.316.33-.479.53-.148.175-.316.362-.129.685.187.316.833 1.371 1.785 2.218 1.228 1.093 2.223 1.443 2.58 1.591.265.11.58.084.775-.122.246-.266.55-.706.86-1.139.22-.31.497-.35.788-.24.297.104 1.869.88 2.192 1.042.323.162.536.239.615.375.077.136.077.776-.189 1.526z" fill="currentColor"/></svg><svg fill="none" viewBox="0 0 15 15" id="whatsapp2" xmlns="http://www.w3.org/2000/svg"><path fill-rule="evenodd" clip-rule="evenodd" d="M11.97 2.044A6.923 6.923 0 007.04 0C3.2 0 .075 3.126.073 6.968c0 1.228.32 2.427.93 3.484l-.988 3.61 3.694-.968a6.96 6.96 0 003.33.848h.003c3.84 0 6.966-3.127 6.968-6.969a6.925 6.925 0 00-2.04-4.93zm-4.93 10.72h-.002a5.785 5.785 0 01-2.948-.806l-.211-.126-2.192.575.585-2.137-.138-.22a5.778 5.778 0 01-.885-3.082 5.8 5.8 0 015.794-5.791c1.547 0 3.001.604 4.095 1.698a5.758 5.758 0 011.694 4.098 5.8 5.8 0 01-5.791 5.792zm3.177-4.337c-.174-.087-1.03-.508-1.19-.566-.159-.059-.275-.088-.391.087-.116.174-.45.566-.551.682-.102.117-.203.131-.378.044-.174-.087-.735-.271-1.4-.864a5.252 5.252 0 01-.968-1.206c-.102-.175-.001-.26.076-.356.188-.234.377-.48.435-.595.058-.117.03-.218-.014-.305s-.392-.944-.537-1.293c-.142-.34-.285-.294-.392-.3a6.937 6.937 0 00-.334-.005.64.64 0 00-.464.218c-.16.174-.61.595-.61 1.452s.625 1.685.712 1.801c.087.117 1.228 1.875 2.974 2.63.415.179.74.286.993.366a2.39 2.39 0 001.096.07c.335-.05 1.03-.422 1.176-.829.145-.406.145-.755.101-.828-.043-.072-.16-.116-.334-.203z" fill="currentColor"/></svg></svg>