<svg width="15" height="15" fill="none" xmlns="http://www.w3.org/2000/svg"><path fill-rule="evenodd" clip-rule="evenodd" d="M11.97 2.044A6.923 6.923 0 007.04 0C3.2 0 .075 3.126.073 6.968c0 1.228.32 2.427.93 3.484l-.988 3.61 3.694-.968a6.96 6.96 0 003.33.848h.003c3.84 0 6.966-3.127 6.968-6.969a6.925 6.925 0 00-2.04-4.93zm-4.93 10.72h-.002c-1.04 0-2.058-.279-2.948-.806l-.211-.126-2.192.575.585-2.137-.138-.22a5.778 5.778 0 01-.885-3.082 5.8 5.8 0 015.794-5.791c1.547 0 3.001.604 4.095 1.698a5.758 5.758 0 011.694 4.098 5.8 5.8 0 01-5.791 5.792zm3.177-4.337c-.174-.087-1.03-.508-1.19-.566-.159-.059-.275-.088-.391.087-.116.174-.45.566-.551.682-.102.117-.203.131-.378.044-.174-.087-.735-.271-1.4-.864a5.252 5.252 0 01-.968-1.206c-.102-.175-.001-.26.076-.356.188-.234.377-.48.435-.595.058-.117.03-.218-.014-.305s-.392-.944-.537-1.293c-.142-.34-.285-.294-.392-.3a6.937 6.937 0 00-.334-.005.64.64 0 00-.464.218c-.16.174-.61.595-.61 1.452s.625 1.685.712 1.801c.087.117 1.228 1.875 2.974 2.63.415.179.74.286.993.366.417.133.796.114 1.096.07.335-.05 1.03-.422 1.176-.829.145-.406.145-.755.101-.828-.043-.072-.16-.116-.334-.203z" fill="currentColor"/></svg>